<svg width="428" height="124" viewBox="0 0 428 124" fill="none" xmlns="http://www.w3.org/2000/svg">
<path d="M51.4142 80.5858C50.1543 81.8457 51.0466 84 52.8284 84H62V70L51.4142 80.5858Z" fill="#F27C4F"/>
<path d="M62 8C62 3.58172 65.5817 0 70 0H420C424.418 0 428 3.58172 428 8V76C428 80.4183 424.418 84 420 84H62V8Z" fill="#F27C4F"/>
<path d="M62 8C62 3.58172 65.5817 0 70 0H420C424.418 0 428 3.58172 428 8V76C428 80.4183 424.418 84 420 84H62V8Z" fill="url(#paint0_linear_52_72364)" fill-opacity="0.2"/>
<path d="M77.052 27.014L74.364 17.2H75.624L77.738 25.614L80.146 17.2H81.448L83.786 25.614L85.928 17.2H87.188L84.444 27H83.1L80.762 18.908L78.368 27L77.052 27.014ZM90.9122 27.168C90.2496 27.168 89.6616 27.0187 89.1482 26.72C88.6349 26.412 88.2289 25.9873 87.9302 25.446C87.6409 24.9047 87.4962 24.2653 87.4962 23.528C87.4962 22.8 87.6409 22.1653 87.9302 21.624C88.2196 21.0733 88.6209 20.6487 89.1342 20.35C89.6569 20.042 90.2589 19.888 90.9402 19.888C91.6122 19.888 92.1909 20.042 92.6762 20.35C93.1709 20.6487 93.5489 21.0453 93.8102 21.54C94.0716 22.0347 94.2022 22.5667 94.2022 23.136C94.2022 23.2387 94.1976 23.3413 94.1882 23.444C94.1882 23.5467 94.1882 23.6633 94.1882 23.794H88.6582C88.6862 24.326 88.8076 24.7693 89.0222 25.124C89.2462 25.4693 89.5216 25.7307 89.8482 25.908C90.1842 26.0853 90.5389 26.174 90.9122 26.174C91.3976 26.174 91.8036 26.062 92.1302 25.838C92.4569 25.614 92.6949 25.3107 92.8442 24.928H94.0062C93.8196 25.572 93.4602 26.1087 92.9282 26.538C92.4056 26.958 91.7336 27.168 90.9122 27.168ZM90.9122 20.882C90.3522 20.882 89.8529 21.0547 89.4142 21.4C88.9849 21.736 88.7376 22.2307 88.6722 22.884H93.0402C93.0122 22.2587 92.7976 21.7687 92.3962 21.414C91.9949 21.0593 91.5002 20.882 90.9122 20.882ZM102.616 27.168C101.925 27.168 101.319 27.0093 100.796 26.692C100.283 26.3747 99.8813 25.9407 99.592 25.39C99.312 24.8393 99.172 24.214 99.172 23.514C99.172 22.814 99.3167 22.1933 99.606 21.652C99.8953 21.1013 100.297 20.672 100.81 20.364C101.323 20.0467 101.93 19.888 102.63 19.888C103.199 19.888 103.703 20.0047 104.142 20.238C104.581 20.4713 104.921 20.798 105.164 21.218V16.92H106.34V27H105.276L105.164 25.852C104.94 26.188 104.618 26.4913 104.198 26.762C103.778 27.0327 103.251 27.168 102.616 27.168ZM102.742 26.146C103.209 26.146 103.619 26.0387 103.974 25.824C104.338 25.6 104.618 25.292 104.814 24.9C105.019 24.508 105.122 24.0507 105.122 23.528C105.122 23.0053 105.019 22.548 104.814 22.156C104.618 21.764 104.338 21.4607 103.974 21.246C103.619 21.022 103.209 20.91 102.742 20.91C102.285 20.91 101.874 21.022 101.51 21.246C101.155 21.4607 100.875 21.764 100.67 22.156C100.474 22.548 100.376 23.0053 100.376 23.528C100.376 24.0507 100.474 24.508 100.67 24.9C100.875 25.292 101.155 25.6 101.51 25.824C101.874 26.0387 102.285 26.146 102.742 26.146ZM111.379 27.168C110.716 27.168 110.128 27.0187 109.615 26.72C109.102 26.412 108.696 25.9873 108.397 25.446C108.108 24.9047 107.963 24.2653 107.963 23.528C107.963 22.8 108.108 22.1653 108.397 21.624C108.686 21.0733 109.088 20.6487 109.601 20.35C110.124 20.042 110.726 19.888 111.407 19.888C112.079 19.888 112.658 20.042 113.143 20.35C113.638 20.6487 114.016 21.0453 114.277 21.54C114.538 22.0347 114.669 22.5667 114.669 23.136C114.669 23.2387 114.664 23.3413 114.655 23.444C114.655 23.5467 114.655 23.6633 114.655 23.794H109.125C109.153 24.326 109.274 24.7693 109.489 25.124C109.713 25.4693 109.988 25.7307 110.315 25.908C110.651 26.0853 111.006 26.174 111.379 26.174C111.864 26.174 112.27 26.062 112.597 25.838C112.924 25.614 113.162 25.3107 113.311 24.928H114.473C114.286 25.572 113.927 26.1087 113.395 26.538C112.872 26.958 112.2 27.168 111.379 27.168ZM111.379 20.882C110.819 20.882 110.32 21.0547 109.881 21.4C109.452 21.736 109.204 22.2307 109.139 22.884H113.507C113.479 22.2587 113.264 21.7687 112.863 21.414C112.462 21.0593 111.967 20.882 111.379 20.882ZM118.888 27.168C118.057 27.168 117.366 26.958 116.816 26.538C116.265 26.118 115.943 25.5487 115.85 24.83H117.054C117.128 25.194 117.32 25.5113 117.628 25.782C117.945 26.0433 118.37 26.174 118.902 26.174C119.396 26.174 119.76 26.0713 119.994 25.866C120.227 25.6513 120.344 25.3993 120.344 25.11C120.344 24.69 120.19 24.41 119.882 24.27C119.583 24.13 119.158 24.004 118.608 23.892C118.234 23.8173 117.861 23.71 117.488 23.57C117.114 23.43 116.802 23.234 116.55 22.982C116.298 22.7207 116.172 22.38 116.172 21.96C116.172 21.3533 116.396 20.8587 116.844 20.476C117.301 20.084 117.917 19.888 118.692 19.888C119.429 19.888 120.031 20.0747 120.498 20.448C120.974 20.812 121.249 21.3347 121.324 22.016H120.162C120.115 21.6613 119.961 21.386 119.7 21.19C119.448 20.9847 119.107 20.882 118.678 20.882C118.258 20.882 117.931 20.9707 117.698 21.148C117.474 21.3253 117.362 21.5587 117.362 21.848C117.362 22.128 117.506 22.3473 117.796 22.506C118.094 22.6647 118.496 22.8 119 22.912C119.429 23.0053 119.835 23.122 120.218 23.262C120.61 23.3927 120.927 23.5933 121.17 23.864C121.422 24.1253 121.548 24.508 121.548 25.012C121.557 25.6373 121.319 26.1553 120.834 26.566C120.358 26.9673 119.709 27.168 118.888 27.168ZM126.35 27.168C125.687 27.168 125.099 27.0187 124.586 26.72C124.072 26.412 123.666 25.9873 123.368 25.446C123.078 24.9047 122.934 24.2653 122.934 23.528C122.934 22.8 123.078 22.1653 123.368 21.624C123.657 21.0733 124.058 20.6487 124.572 20.35C125.094 20.042 125.696 19.888 126.378 19.888C127.05 19.888 127.628 20.042 128.114 20.35C128.608 20.6487 128.986 21.0453 129.248 21.54C129.509 22.0347 129.64 22.5667 129.64 23.136C129.64 23.2387 129.635 23.3413 129.626 23.444C129.626 23.5467 129.626 23.6633 129.626 23.794H124.096C124.124 24.326 124.245 24.7693 124.46 25.124C124.684 25.4693 124.959 25.7307 125.286 25.908C125.622 26.0853 125.976 26.174 126.35 26.174C126.835 26.174 127.241 26.062 127.568 25.838C127.894 25.614 128.132 25.3107 128.282 24.928H129.444C129.257 25.572 128.898 26.1087 128.366 26.538C127.843 26.958 127.171 27.168 126.35 27.168ZM126.35 20.882C125.79 20.882 125.29 21.0547 124.852 21.4C124.422 21.736 124.175 22.2307 124.11 22.884H128.478C128.45 22.2587 128.235 21.7687 127.834 21.414C127.432 21.0593 126.938 20.882 126.35 20.882ZM131.198 27V20.056H132.262L132.36 21.386C132.575 20.9287 132.902 20.5647 133.34 20.294C133.779 20.0233 134.32 19.888 134.964 19.888V21.12H134.642C134.232 21.12 133.854 21.1947 133.508 21.344C133.163 21.484 132.888 21.7267 132.682 22.072C132.477 22.4173 132.374 22.8933 132.374 23.5V27H131.198ZM138.286 27L135.654 20.056H136.886L138.972 25.866L141.072 20.056H142.276L139.644 27H138.286ZM146.352 27.168C145.689 27.168 145.101 27.0187 144.588 26.72C144.074 26.412 143.668 25.9873 143.37 25.446C143.08 24.9047 142.936 24.2653 142.936 23.528C142.936 22.8 143.08 22.1653 143.37 21.624C143.659 21.0733 144.06 20.6487 144.574 20.35C145.096 20.042 145.698 19.888 146.38 19.888C147.052 19.888 147.63 20.042 148.116 20.35C148.61 20.6487 148.988 21.0453 149.25 21.54C149.511 22.0347 149.642 22.5667 149.642 23.136C149.642 23.2387 149.637 23.3413 149.628 23.444C149.628 23.5467 149.628 23.6633 149.628 23.794H144.098C144.126 24.326 144.247 24.7693 144.462 25.124C144.686 25.4693 144.961 25.7307 145.288 25.908C145.624 26.0853 145.978 26.174 146.352 26.174C146.837 26.174 147.243 26.062 147.57 25.838C147.896 25.614 148.134 25.3107 148.284 24.928H149.446C149.259 25.572 148.9 26.1087 148.368 26.538C147.845 26.958 147.173 27.168 146.352 27.168ZM146.352 20.882C145.792 20.882 145.292 21.0547 144.854 21.4C144.424 21.736 144.177 22.2307 144.112 22.884H148.48C148.452 22.2587 148.237 21.7687 147.836 21.414C147.434 21.0593 146.94 20.882 146.352 20.882ZM157.565 27.168C156.735 27.168 156.044 26.958 155.493 26.538C154.943 26.118 154.621 25.5487 154.527 24.83H155.731C155.806 25.194 155.997 25.5113 156.305 25.782C156.623 26.0433 157.047 26.174 157.579 26.174C158.074 26.174 158.438 26.0713 158.671 25.866C158.905 25.6513 159.021 25.3993 159.021 25.11C159.021 24.69 158.867 24.41 158.559 24.27C158.261 24.13 157.836 24.004 157.285 23.892C156.912 23.8173 156.539 23.71 156.165 23.57C155.792 23.43 155.479 23.234 155.227 22.982C154.975 22.7207 154.849 22.38 154.849 21.96C154.849 21.3533 155.073 20.8587 155.521 20.476C155.979 20.084 156.595 19.888 157.369 19.888C158.107 19.888 158.709 20.0747 159.175 20.448C159.651 20.812 159.927 21.3347 160.001 22.016H158.839C158.793 21.6613 158.639 21.386 158.377 21.19C158.125 20.9847 157.785 20.882 157.355 20.882C156.935 20.882 156.609 20.9707 156.375 21.148C156.151 21.3253 156.039 21.5587 156.039 21.848C156.039 22.128 156.184 22.3473 156.473 22.506C156.772 22.6647 157.173 22.8 157.677 22.912C158.107 23.0053 158.513 23.122 158.895 23.262C159.287 23.3927 159.605 23.5933 159.847 23.864C160.099 24.1253 160.225 24.508 160.225 25.012C160.235 25.6373 159.997 26.1553 159.511 26.566C159.035 26.9673 158.387 27.168 157.565 27.168ZM165.069 27.168C164.416 27.168 163.828 27.0187 163.305 26.72C162.783 26.4213 162.367 26.0013 162.059 25.46C161.761 24.9093 161.611 24.2653 161.611 23.528C161.611 22.7907 161.765 22.1513 162.073 21.61C162.381 21.0593 162.797 20.6347 163.319 20.336C163.851 20.0373 164.444 19.888 165.097 19.888C165.751 19.888 166.339 20.0373 166.861 20.336C167.384 20.6347 167.795 21.0593 168.093 21.61C168.401 22.1513 168.555 22.7907 168.555 23.528C168.555 24.2653 168.401 24.9093 168.093 25.46C167.785 26.0013 167.365 26.4213 166.833 26.72C166.311 27.0187 165.723 27.168 165.069 27.168ZM165.069 26.16C165.471 26.16 165.844 26.062 166.189 25.866C166.535 25.67 166.815 25.376 167.029 24.984C167.244 24.592 167.351 24.1067 167.351 23.528C167.351 22.9493 167.244 22.464 167.029 22.072C166.824 21.68 166.549 21.386 166.203 21.19C165.858 20.994 165.489 20.896 165.097 20.896C164.696 20.896 164.323 20.994 163.977 21.19C163.632 21.386 163.352 21.68 163.137 22.072C162.923 22.464 162.815 22.9493 162.815 23.528C162.815 24.1067 162.923 24.592 163.137 24.984C163.352 25.376 163.627 25.67 163.963 25.866C164.309 26.062 164.677 26.16 165.069 26.16ZM170.191 27V20.056H171.255L171.339 21.064C171.563 20.6907 171.861 20.4013 172.235 20.196C172.608 19.9907 173.028 19.888 173.495 19.888C174.045 19.888 174.517 20 174.909 20.224C175.31 20.448 175.618 20.7887 175.833 21.246C176.075 20.826 176.407 20.4947 176.827 20.252C177.256 20.0093 177.718 19.888 178.213 19.888C179.043 19.888 179.706 20.14 180.201 20.644C180.695 21.1387 180.943 21.904 180.943 22.94V27H179.781V23.066C179.781 22.3473 179.636 21.806 179.347 21.442C179.057 21.078 178.642 20.896 178.101 20.896C177.541 20.896 177.074 21.1153 176.701 21.554C176.337 21.9833 176.155 22.5993 176.155 23.402V27H174.979V23.066C174.979 22.3473 174.834 21.806 174.545 21.442C174.255 21.078 173.84 20.896 173.299 20.896C172.748 20.896 172.286 21.1153 171.913 21.554C171.549 21.9833 171.367 22.5993 171.367 23.402V27H170.191ZM185.836 27.168C185.173 27.168 184.585 27.0187 184.072 26.72C183.559 26.412 183.153 25.9873 182.854 25.446C182.565 24.9047 182.42 24.2653 182.42 23.528C182.42 22.8 182.565 22.1653 182.854 21.624C183.143 21.0733 183.545 20.6487 184.058 20.35C184.581 20.042 185.183 19.888 185.864 19.888C186.536 19.888 187.115 20.042 187.6 20.35C188.095 20.6487 188.473 21.0453 188.734 21.54C188.995 22.0347 189.126 22.5667 189.126 23.136C189.126 23.2387 189.121 23.3413 189.112 23.444C189.112 23.5467 189.112 23.6633 189.112 23.794H183.582C183.61 24.326 183.731 24.7693 183.946 25.124C184.17 25.4693 184.445 25.7307 184.772 25.908C185.108 26.0853 185.463 26.174 185.836 26.174C186.321 26.174 186.727 26.062 187.054 25.838C187.381 25.614 187.619 25.3107 187.768 24.928H188.93C188.743 25.572 188.384 26.1087 187.852 26.538C187.329 26.958 186.657 27.168 185.836 27.168ZM185.836 20.882C185.276 20.882 184.777 21.0547 184.338 21.4C183.909 21.736 183.661 22.2307 183.596 22.884H187.964C187.936 22.2587 187.721 21.7687 187.32 21.414C186.919 21.0593 186.424 20.882 185.836 20.882ZM197.582 27.168C196.919 27.168 196.322 27.0187 195.79 26.72C195.267 26.412 194.852 25.9873 194.544 25.446C194.245 24.8953 194.096 24.256 194.096 23.528C194.096 22.8 194.245 22.1653 194.544 21.624C194.852 21.0733 195.267 20.6487 195.79 20.35C196.322 20.042 196.919 19.888 197.582 19.888C198.403 19.888 199.094 20.1027 199.654 20.532C200.223 20.9613 200.582 21.5353 200.732 22.254H199.528C199.434 21.8247 199.206 21.4933 198.842 21.26C198.478 21.0173 198.053 20.896 197.568 20.896C197.176 20.896 196.807 20.994 196.462 21.19C196.116 21.386 195.836 21.68 195.622 22.072C195.407 22.464 195.3 22.9493 195.3 23.528C195.3 24.1067 195.407 24.592 195.622 24.984C195.836 25.376 196.116 25.6747 196.462 25.88C196.807 26.076 197.176 26.174 197.568 26.174C198.053 26.174 198.478 26.0573 198.842 25.824C199.206 25.5813 199.434 25.2407 199.528 24.802H200.732C200.592 25.502 200.237 26.0713 199.668 26.51C199.098 26.9487 198.403 27.168 197.582 27.168ZM202.374 27V20.056H203.438L203.536 21.386C203.751 20.9287 204.078 20.5647 204.516 20.294C204.955 20.0233 205.496 19.888 206.14 19.888V21.12H205.818C205.408 21.12 205.03 21.1947 204.684 21.344C204.339 21.484 204.064 21.7267 203.858 22.072C203.653 22.4173 203.55 22.8933 203.55 23.5V27H202.374ZM210.322 27.168C209.66 27.168 209.072 27.0187 208.558 26.72C208.045 26.412 207.639 25.9873 207.34 25.446C207.051 24.9047 206.906 24.2653 206.906 23.528C206.906 22.8 207.051 22.1653 207.34 21.624C207.63 21.0733 208.031 20.6487 208.544 20.35C209.067 20.042 209.669 19.888 210.35 19.888C211.022 19.888 211.601 20.042 212.086 20.35C212.581 20.6487 212.959 21.0453 213.22 21.54C213.482 22.0347 213.612 22.5667 213.612 23.136C213.612 23.2387 213.608 23.3413 213.598 23.444C213.598 23.5467 213.598 23.6633 213.598 23.794H208.068C208.096 24.326 208.218 24.7693 208.432 25.124C208.656 25.4693 208.932 25.7307 209.258 25.908C209.594 26.0853 209.949 26.174 210.322 26.174C210.808 26.174 211.214 26.062 211.54 25.838C211.867 25.614 212.105 25.3107 212.254 24.928H213.416C213.23 25.572 212.87 26.1087 212.338 26.538C211.816 26.958 211.144 27.168 210.322 27.168ZM210.322 20.882C209.762 20.882 209.263 21.0547 208.824 21.4C208.395 21.736 208.148 22.2307 208.082 22.884H212.45C212.422 22.2587 212.208 21.7687 211.806 21.414C211.405 21.0593 210.91 20.882 210.322 20.882ZM218.321 27.168C217.63 27.168 217.024 27.0093 216.501 26.692C215.988 26.3747 215.586 25.9407 215.297 25.39C215.017 24.8393 214.877 24.214 214.877 23.514C214.877 22.814 215.022 22.1933 215.311 21.652C215.6 21.1013 216.002 20.672 216.515 20.364C217.028 20.0467 217.635 19.888 218.335 19.888C218.904 19.888 219.408 20.0047 219.847 20.238C220.286 20.4713 220.626 20.798 220.869 21.218V16.92H222.045V27H220.981L220.869 25.852C220.645 26.188 220.323 26.4913 219.903 26.762C219.483 27.0327 218.956 27.168 218.321 27.168ZM218.447 26.146C218.914 26.146 219.324 26.0387 219.679 25.824C220.043 25.6 220.323 25.292 220.519 24.9C220.724 24.508 220.827 24.0507 220.827 23.528C220.827 23.0053 220.724 22.548 220.519 22.156C220.323 21.764 220.043 21.4607 219.679 21.246C219.324 21.022 218.914 20.91 218.447 20.91C217.99 20.91 217.579 21.022 217.215 21.246C216.86 21.4607 216.58 21.764 216.375 22.156C216.179 22.548 216.081 23.0053 216.081 23.528C216.081 24.0507 216.179 24.508 216.375 24.9C216.58 25.292 216.86 25.6 217.215 25.824C217.579 26.0387 217.99 26.146 218.447 26.146ZM224.676 18.516C224.443 18.516 224.247 18.4413 224.088 18.292C223.939 18.1333 223.864 17.9373 223.864 17.704C223.864 17.48 223.939 17.2933 224.088 17.144C224.247 16.9947 224.443 16.92 224.676 16.92C224.9 16.92 225.091 16.9947 225.25 17.144C225.409 17.2933 225.488 17.48 225.488 17.704C225.488 17.9373 225.409 18.1333 225.25 18.292C225.091 18.4413 224.9 18.516 224.676 18.516ZM224.088 27V20.056H225.264V27H224.088ZM230.056 27C229.421 27 228.922 26.846 228.558 26.538C228.194 26.23 228.012 25.6747 228.012 24.872V21.05H226.808V20.056H228.012L228.166 18.39H229.188V20.056H231.232V21.05H229.188V24.872C229.188 25.3107 229.276 25.6093 229.454 25.768C229.631 25.9173 229.944 25.992 230.392 25.992H231.12V27H230.056ZM236.809 27V21.05H235.759V20.056H236.809V18.852C236.809 18.18 236.977 17.69 237.313 17.382C237.649 17.074 238.139 16.92 238.783 16.92H239.483V17.928H238.965C238.61 17.928 238.358 18.0027 238.209 18.152C238.06 18.292 237.985 18.5347 237.985 18.88V20.056H239.693V21.05H237.985V27H236.809ZM243.984 27.168C243.33 27.168 242.742 27.0187 242.22 26.72C241.697 26.4213 241.282 26.0013 240.974 25.46C240.675 24.9093 240.526 24.2653 240.526 23.528C240.526 22.7907 240.68 22.1513 240.988 21.61C241.296 21.0593 241.711 20.6347 242.234 20.336C242.766 20.0373 243.358 19.888 244.012 19.888C244.665 19.888 245.253 20.0373 245.776 20.336C246.298 20.6347 246.709 21.0593 247.008 21.61C247.316 22.1513 247.47 22.7907 247.47 23.528C247.47 24.2653 247.316 24.9093 247.008 25.46C246.7 26.0013 246.28 26.4213 245.748 26.72C245.225 27.0187 244.637 27.168 243.984 27.168ZM243.984 26.16C244.385 26.16 244.758 26.062 245.104 25.866C245.449 25.67 245.729 25.376 245.944 24.984C246.158 24.592 246.266 24.1067 246.266 23.528C246.266 22.9493 246.158 22.464 245.944 22.072C245.738 21.68 245.463 21.386 245.118 21.19C244.772 20.994 244.404 20.896 244.012 20.896C243.61 20.896 243.237 20.994 242.892 21.19C242.546 21.386 242.266 21.68 242.052 22.072C241.837 22.464 241.73 22.9493 241.73 23.528C241.73 24.1067 241.837 24.592 242.052 24.984C242.266 25.376 242.542 25.67 242.878 25.866C243.223 26.062 243.592 26.16 243.984 26.16ZM249.105 27V20.056H250.169L250.267 21.386C250.481 20.9287 250.808 20.5647 251.247 20.294C251.685 20.0233 252.227 19.888 252.871 19.888V21.12H252.549C252.138 21.12 251.76 21.1947 251.415 21.344C251.069 21.484 250.794 21.7267 250.589 22.072C250.383 22.4173 250.281 22.8933 250.281 23.5V27H249.105ZM260.206 27.168C259.627 27.168 259.146 27.07 258.764 26.874C258.381 26.678 258.096 26.4167 257.91 26.09C257.723 25.7633 257.63 25.4087 257.63 25.026C257.63 24.3167 257.9 23.7707 258.442 23.388C258.983 23.0053 259.72 22.814 260.654 22.814H262.53V22.73C262.53 22.1233 262.371 21.666 262.054 21.358C261.736 21.0407 261.312 20.882 260.78 20.882C260.322 20.882 259.926 20.9987 259.59 21.232C259.263 21.456 259.058 21.7873 258.974 22.226H257.77C257.816 21.722 257.984 21.2973 258.274 20.952C258.572 20.6067 258.941 20.3453 259.38 20.168C259.818 19.9813 260.285 19.888 260.78 19.888C261.75 19.888 262.478 20.1493 262.964 20.672C263.458 21.1853 263.706 21.8713 263.706 22.73V27H262.656L262.586 25.754C262.39 26.146 262.1 26.482 261.718 26.762C261.344 27.0327 260.84 27.168 260.206 27.168ZM260.388 26.174C260.836 26.174 261.218 26.0573 261.536 25.824C261.862 25.5907 262.11 25.2873 262.278 24.914C262.446 24.5407 262.53 24.1487 262.53 23.738V23.724H260.752C260.061 23.724 259.571 23.8453 259.282 24.088C259.002 24.3213 258.862 24.6153 258.862 24.97C258.862 25.334 258.992 25.628 259.254 25.852C259.524 26.0667 259.902 26.174 260.388 26.174ZM265.47 27V16.92H266.646V27H265.47ZM268.573 27V16.92H269.749V27H268.573ZM276.782 27L274.752 20.056H275.928L277.398 25.502L279.022 20.056H280.352L281.99 25.502L283.446 20.056H284.636L282.606 27H281.402L279.694 21.274L277.986 27H276.782ZM288.799 27.168C288.136 27.168 287.548 27.0187 287.035 26.72C286.522 26.412 286.116 25.9873 285.817 25.446C285.528 24.9047 285.383 24.2653 285.383 23.528C285.383 22.8 285.528 22.1653 285.817 21.624C286.106 21.0733 286.508 20.6487 287.021 20.35C287.544 20.042 288.146 19.888 288.827 19.888C289.499 19.888 290.078 20.042 290.563 20.35C291.058 20.6487 291.436 21.0453 291.697 21.54C291.958 22.0347 292.089 22.5667 292.089 23.136C292.089 23.2387 292.084 23.3413 292.075 23.444C292.075 23.5467 292.075 23.6633 292.075 23.794H286.545C286.573 24.326 286.694 24.7693 286.909 25.124C287.133 25.4693 287.408 25.7307 287.735 25.908C288.071 26.0853 288.426 26.174 288.799 26.174C289.284 26.174 289.69 26.062 290.017 25.838C290.344 25.614 290.582 25.3107 290.731 24.928H291.893C291.706 25.572 291.347 26.1087 290.815 26.538C290.292 26.958 289.62 27.168 288.799 27.168ZM288.799 20.882C288.239 20.882 287.74 21.0547 287.301 21.4C286.872 21.736 286.624 22.2307 286.559 22.884H290.927C290.899 22.2587 290.684 21.7687 290.283 21.414C289.882 21.0593 289.387 20.882 288.799 20.882ZM292.78 19.188L292.598 16.43H293.76L293.592 19.188H292.78ZM297.249 27L294.617 20.056H295.849L297.935 25.866L300.035 20.056H301.239L298.607 27H297.249ZM305.315 27.168C304.652 27.168 304.064 27.0187 303.551 26.72C303.037 26.412 302.631 25.9873 302.333 25.446C302.043 24.9047 301.899 24.2653 301.899 23.528C301.899 22.8 302.043 22.1653 302.333 21.624C302.622 21.0733 303.023 20.6487 303.537 20.35C304.059 20.042 304.661 19.888 305.343 19.888C306.015 19.888 306.593 20.042 307.079 20.35C307.573 20.6487 307.951 21.0453 308.213 21.54C308.474 22.0347 308.605 22.5667 308.605 23.136C308.605 23.2387 308.6 23.3413 308.591 23.444C308.591 23.5467 308.591 23.6633 308.591 23.794H303.061C303.089 24.326 303.21 24.7693 303.425 25.124C303.649 25.4693 303.924 25.7307 304.251 25.908C304.587 26.0853 304.941 26.174 305.315 26.174C305.8 26.174 306.206 26.062 306.533 25.838C306.859 25.614 307.097 25.3107 307.247 24.928H308.409C308.222 25.572 307.863 26.1087 307.331 26.538C306.808 26.958 306.136 27.168 305.315 27.168ZM305.315 20.882C304.755 20.882 304.255 21.0547 303.817 21.4C303.387 21.736 303.14 22.2307 303.075 22.884H307.443C307.415 22.2587 307.2 21.7687 306.799 21.414C306.397 21.0593 305.903 20.882 305.315 20.882ZM313.868 27V16.92H315.044V27H313.868ZM320.094 27.168C319.431 27.168 318.843 27.0187 318.33 26.72C317.817 26.412 317.411 25.9873 317.112 25.446C316.823 24.9047 316.678 24.2653 316.678 23.528C316.678 22.8 316.823 22.1653 317.112 21.624C317.401 21.0733 317.803 20.6487 318.316 20.35C318.839 20.042 319.441 19.888 320.122 19.888C320.794 19.888 321.373 20.042 321.858 20.35C322.353 20.6487 322.731 21.0453 322.992 21.54C323.253 22.0347 323.384 22.5667 323.384 23.136C323.384 23.2387 323.379 23.3413 323.37 23.444C323.37 23.5467 323.37 23.6633 323.37 23.794H317.84C317.868 24.326 317.989 24.7693 318.204 25.124C318.428 25.4693 318.703 25.7307 319.03 25.908C319.366 26.0853 319.721 26.174 320.094 26.174C320.579 26.174 320.985 26.062 321.312 25.838C321.639 25.614 321.877 25.3107 322.026 24.928H323.188C323.001 25.572 322.642 26.1087 322.11 26.538C321.587 26.958 320.915 27.168 320.094 27.168ZM320.094 20.882C319.534 20.882 319.035 21.0547 318.596 21.4C318.167 21.736 317.919 22.2307 317.854 22.884H322.222C322.194 22.2587 321.979 21.7687 321.578 21.414C321.177 21.0593 320.682 20.882 320.094 20.882ZM327.253 27.168C326.674 27.168 326.193 27.07 325.811 26.874C325.428 26.678 325.143 26.4167 324.957 26.09C324.77 25.7633 324.677 25.4087 324.677 25.026C324.677 24.3167 324.947 23.7707 325.489 23.388C326.03 23.0053 326.767 22.814 327.701 22.814H329.577V22.73C329.577 22.1233 329.418 21.666 329.101 21.358C328.783 21.0407 328.359 20.882 327.827 20.882C327.369 20.882 326.973 20.9987 326.637 21.232C326.31 21.456 326.105 21.7873 326.021 22.226H324.817C324.863 21.722 325.031 21.2973 325.321 20.952C325.619 20.6067 325.988 20.3453 326.427 20.168C326.865 19.9813 327.332 19.888 327.827 19.888C328.797 19.888 329.525 20.1493 330.011 20.672C330.505 21.1853 330.753 21.8713 330.753 22.73V27H329.703L329.633 25.754C329.437 26.146 329.147 26.482 328.765 26.762C328.391 27.0327 327.887 27.168 327.253 27.168ZM327.435 26.174C327.883 26.174 328.265 26.0573 328.583 25.824C328.909 25.5907 329.157 25.2873 329.325 24.914C329.493 24.5407 329.577 24.1487 329.577 23.738V23.724H327.799C327.108 23.724 326.618 23.8453 326.329 24.088C326.049 24.3213 325.909 24.6153 325.909 24.97C325.909 25.334 326.039 25.628 326.301 25.852C326.571 26.0667 326.949 26.174 327.435 26.174ZM332.517 27V20.056H333.581L333.679 21.386C333.893 20.9287 334.22 20.5647 334.659 20.294C335.097 20.0233 335.639 19.888 336.283 19.888V21.12H335.961C335.55 21.12 335.172 21.1947 334.827 21.344C334.481 21.484 334.206 21.7267 334.001 22.072C333.795 22.4173 333.693 22.8933 333.693 23.5V27H332.517ZM337.603 27V20.056H338.667L338.737 21.302C338.961 20.8633 339.283 20.518 339.703 20.266C340.123 20.014 340.599 19.888 341.131 19.888C341.952 19.888 342.605 20.14 343.091 20.644C343.585 21.1387 343.833 21.904 343.833 22.94V27H342.657V23.066C342.657 21.6193 342.059 20.896 340.865 20.896C340.267 20.896 339.768 21.1153 339.367 21.554C338.975 21.9833 338.779 22.5993 338.779 23.402V27H337.603ZM348.736 27.168C348.074 27.168 347.486 27.0187 346.972 26.72C346.459 26.412 346.053 25.9873 345.754 25.446C345.465 24.9047 345.32 24.2653 345.32 23.528C345.32 22.8 345.465 22.1653 345.754 21.624C346.044 21.0733 346.445 20.6487 346.958 20.35C347.481 20.042 348.083 19.888 348.764 19.888C349.436 19.888 350.015 20.042 350.5 20.35C350.995 20.6487 351.373 21.0453 351.634 21.54C351.896 22.0347 352.026 22.5667 352.026 23.136C352.026 23.2387 352.022 23.3413 352.012 23.444C352.012 23.5467 352.012 23.6633 352.012 23.794H346.482C346.51 24.326 346.632 24.7693 346.846 25.124C347.07 25.4693 347.346 25.7307 347.672 25.908C348.008 26.0853 348.363 26.174 348.736 26.174C349.222 26.174 349.628 26.062 349.954 25.838C350.281 25.614 350.519 25.3107 350.668 24.928H351.83C351.644 25.572 351.284 26.1087 350.752 26.538C350.23 26.958 349.558 27.168 348.736 27.168ZM348.736 20.882C348.176 20.882 347.677 21.0547 347.238 21.4C346.809 21.736 346.562 22.2307 346.496 22.884H350.864C350.836 22.2587 350.622 21.7687 350.22 21.414C349.819 21.0593 349.324 20.882 348.736 20.882ZM356.735 27.168C356.044 27.168 355.438 27.0093 354.915 26.692C354.402 26.3747 354 25.9407 353.711 25.39C353.431 24.8393 353.291 24.214 353.291 23.514C353.291 22.814 353.436 22.1933 353.725 21.652C354.014 21.1013 354.416 20.672 354.929 20.364C355.442 20.0467 356.049 19.888 356.749 19.888C357.318 19.888 357.822 20.0047 358.261 20.238C358.7 20.4713 359.04 20.798 359.283 21.218V16.92H360.459V27H359.395L359.283 25.852C359.059 26.188 358.737 26.4913 358.317 26.762C357.897 27.0327 357.37 27.168 356.735 27.168ZM356.861 26.146C357.328 26.146 357.738 26.0387 358.093 25.824C358.457 25.6 358.737 25.292 358.933 24.9C359.138 24.508 359.241 24.0507 359.241 23.528C359.241 23.0053 359.138 22.548 358.933 22.156C358.737 21.764 358.457 21.4607 358.093 21.246C357.738 21.022 357.328 20.91 356.861 20.91C356.404 20.91 355.993 21.022 355.629 21.246C355.274 21.4607 354.994 21.764 354.789 22.156C354.593 22.548 354.495 23.0053 354.495 23.528C354.495 24.0507 354.593 24.508 354.789 24.9C354.994 25.292 355.274 25.6 355.629 25.824C355.993 26.0387 356.404 26.146 356.861 26.146ZM368.741 27.168C367.911 27.168 367.22 26.958 366.669 26.538C366.119 26.118 365.797 25.5487 365.703 24.83H366.907C366.982 25.194 367.173 25.5113 367.481 25.782C367.799 26.0433 368.223 26.174 368.755 26.174C369.25 26.174 369.614 26.0713 369.847 25.866C370.081 25.6513 370.197 25.3993 370.197 25.11C370.197 24.69 370.043 24.41 369.735 24.27C369.437 24.13 369.012 24.004 368.461 23.892C368.088 23.8173 367.715 23.71 367.341 23.57C366.968 23.43 366.655 23.234 366.403 22.982C366.151 22.7207 366.025 22.38 366.025 21.96C366.025 21.3533 366.249 20.8587 366.697 20.476C367.155 20.084 367.771 19.888 368.545 19.888C369.283 19.888 369.885 20.0747 370.351 20.448C370.827 20.812 371.103 21.3347 371.177 22.016H370.015C369.969 21.6613 369.815 21.386 369.553 21.19C369.301 20.9847 368.961 20.882 368.531 20.882C368.111 20.882 367.785 20.9707 367.551 21.148C367.327 21.3253 367.215 21.5587 367.215 21.848C367.215 22.128 367.36 22.3473 367.649 22.506C367.948 22.6647 368.349 22.8 368.853 22.912C369.283 23.0053 369.689 23.122 370.071 23.262C370.463 23.3927 370.781 23.5933 371.023 23.864C371.275 24.1253 371.401 24.508 371.401 25.012C371.411 25.6373 371.173 26.1553 370.687 26.566C370.211 26.9673 369.563 27.168 368.741 27.168ZM376.245 27.168C375.592 27.168 375.004 27.0187 374.481 26.72C373.959 26.4213 373.543 26.0013 373.235 25.46C372.937 24.9093 372.787 24.2653 372.787 23.528C372.787 22.7907 372.941 22.1513 373.249 21.61C373.557 21.0593 373.973 20.6347 374.495 20.336C375.027 20.0373 375.62 19.888 376.273 19.888C376.927 19.888 377.515 20.0373 378.037 20.336C378.56 20.6347 378.971 21.0593 379.269 21.61C379.577 22.1513 379.731 22.7907 379.731 23.528C379.731 24.2653 379.577 24.9093 379.269 25.46C378.961 26.0013 378.541 26.4213 378.009 26.72C377.487 27.0187 376.899 27.168 376.245 27.168ZM376.245 26.16C376.647 26.16 377.02 26.062 377.365 25.866C377.711 25.67 377.991 25.376 378.205 24.984C378.42 24.592 378.527 24.1067 378.527 23.528C378.527 22.9493 378.42 22.464 378.205 22.072C378 21.68 377.725 21.386 377.379 21.19C377.034 20.994 376.665 20.896 376.273 20.896C375.872 20.896 375.499 20.994 375.153 21.19C374.808 21.386 374.528 21.68 374.313 22.072C374.099 22.464 373.991 22.9493 373.991 23.528C373.991 24.1067 374.099 24.592 374.313 24.984C374.528 25.376 374.803 25.67 375.139 25.866C375.485 26.062 375.853 26.16 376.245 26.16ZM385.449 27V21.05H384.399V20.056H385.449V18.852C385.449 18.18 385.617 17.69 385.953 17.382C386.289 17.074 386.779 16.92 387.423 16.92H388.123V17.928H387.605C387.251 17.928 386.999 18.0027 386.849 18.152C386.7 18.292 386.625 18.5347 386.625 18.88V20.056H388.333V21.05H386.625V27H385.449ZM391.77 27.168C391.191 27.168 390.711 27.07 390.328 26.874C389.945 26.678 389.661 26.4167 389.474 26.09C389.287 25.7633 389.194 25.4087 389.194 25.026C389.194 24.3167 389.465 23.7707 390.006 23.388C390.547 23.0053 391.285 22.814 392.218 22.814H394.094V22.73C394.094 22.1233 393.935 21.666 393.618 21.358C393.301 21.0407 392.876 20.882 392.344 20.882C391.887 20.882 391.49 20.9987 391.154 21.232C390.827 21.456 390.622 21.7873 390.538 22.226H389.334C389.381 21.722 389.549 21.2973 389.838 20.952C390.137 20.6067 390.505 20.3453 390.944 20.168C391.383 19.9813 391.849 19.888 392.344 19.888C393.315 19.888 394.043 20.1493 394.528 20.672C395.023 21.1853 395.27 21.8713 395.27 22.73V27H394.22L394.15 25.754C393.954 26.146 393.665 26.482 393.282 26.762C392.909 27.0327 392.405 27.168 391.77 27.168ZM391.952 26.174C392.4 26.174 392.783 26.0573 393.1 25.824C393.427 25.5907 393.674 25.2873 393.842 24.914C394.01 24.5407 394.094 24.1487 394.094 23.738V23.724H392.316C391.625 23.724 391.135 23.8453 390.846 24.088C390.566 24.3213 390.426 24.6153 390.426 24.97C390.426 25.334 390.557 25.628 390.818 25.852C391.089 26.0667 391.467 26.174 391.952 26.174ZM397.034 27V20.056H398.098L398.196 21.386C398.411 20.9287 398.738 20.5647 399.176 20.294C399.615 20.0233 400.156 19.888 400.8 19.888V21.12H400.478C400.068 21.12 399.69 21.1947 399.344 21.344C398.999 21.484 398.724 21.7267 398.518 22.072C398.313 22.4173 398.21 22.8933 398.21 23.5V27H397.034ZM401.966 27.07C401.732 27.07 401.536 26.9953 401.378 26.846C401.228 26.6873 401.154 26.496 401.154 26.272C401.154 26.048 401.228 25.8613 401.378 25.712C401.536 25.5533 401.732 25.474 401.966 25.474C402.19 25.474 402.376 25.5533 402.526 25.712C402.684 25.8613 402.764 26.048 402.764 26.272C402.764 26.496 402.684 26.6873 402.526 26.846C402.376 26.9953 402.19 27.07 401.966 27.07ZM75.036 47V37.2H78.48C79.1707 37.2 79.74 37.312 80.188 37.536C80.6453 37.7507 80.986 38.0493 81.21 38.432C81.434 38.8053 81.546 39.2253 81.546 39.692C81.546 40.3267 81.3733 40.826 81.028 41.19C80.692 41.554 80.286 41.806 79.81 41.946C80.174 42.0113 80.5053 42.156 80.804 42.38C81.1027 42.604 81.336 42.884 81.504 43.22C81.6813 43.556 81.77 43.9247 81.77 44.326C81.77 44.8207 81.6487 45.2733 81.406 45.684C81.1633 46.0853 80.804 46.4073 80.328 46.65C79.852 46.8833 79.2733 47 78.592 47H75.036ZM76.212 41.484H78.396C79.0213 41.484 79.502 41.3393 79.838 41.05C80.174 40.7513 80.342 40.3407 80.342 39.818C80.342 39.3233 80.174 38.9267 79.838 38.628C79.5113 38.3293 79.0167 38.18 78.354 38.18H76.212V41.484ZM76.212 46.02H78.466C79.138 46.02 79.656 45.866 80.02 45.558C80.384 45.2407 80.566 44.802 80.566 44.242C80.566 43.6913 80.3747 43.2527 79.992 42.926C79.6093 42.59 79.0913 42.422 78.438 42.422H76.212V46.02ZM85.9219 47.168C85.1005 47.168 84.4472 46.9207 83.9619 46.426C83.4765 45.922 83.2339 45.152 83.2339 44.116V40.056H84.4099V43.99C84.4099 45.4367 85.0025 46.16 86.1879 46.16C86.7945 46.16 87.2939 45.9453 87.6859 45.516C88.0872 45.0773 88.2879 44.4567 88.2879 43.654V40.056H89.4639V47H88.3999L88.3159 45.754C88.1012 46.1927 87.7792 46.538 87.3499 46.79C86.9299 47.042 86.4539 47.168 85.9219 47.168ZM94.1436 47C93.5089 47 93.0096 46.846 92.6456 46.538C92.2816 46.23 92.0996 45.6747 92.0996 44.872V41.05H90.8956V40.056H92.0996L92.2536 38.39H93.2756V40.056H95.3196V41.05H93.2756V44.872C93.2756 45.3107 93.3643 45.6093 93.5416 45.768C93.7189 45.9173 94.0316 45.992 94.4796 45.992H95.2076V47H94.1436ZM96.3237 48.372V47.826C96.5663 47.826 96.7343 47.7607 96.8277 47.63C96.9303 47.5087 96.9817 47.322 96.9817 47.07V46.734H96.3097V45.586H97.5417C97.5977 45.8287 97.635 46.0573 97.6537 46.272C97.6817 46.4773 97.6957 46.6687 97.6957 46.846C97.6957 47.378 97.579 47.7653 97.3457 48.008C97.1123 48.2507 96.7717 48.372 96.3237 48.372ZM105.585 47.168C104.754 47.168 104.064 46.958 103.513 46.538C102.962 46.118 102.64 45.5487 102.547 44.83H103.751C103.826 45.194 104.017 45.5113 104.325 45.782C104.642 46.0433 105.067 46.174 105.599 46.174C106.094 46.174 106.458 46.0713 106.691 45.866C106.924 45.6513 107.041 45.3993 107.041 45.11C107.041 44.69 106.887 44.41 106.579 44.27C106.28 44.13 105.856 44.004 105.305 43.892C104.932 43.8173 104.558 43.71 104.185 43.57C103.812 43.43 103.499 43.234 103.247 42.982C102.995 42.7207 102.869 42.38 102.869 41.96C102.869 41.3533 103.093 40.8587 103.541 40.476C103.998 40.084 104.614 39.888 105.389 39.888C106.126 39.888 106.728 40.0747 107.195 40.448C107.671 40.812 107.946 41.3347 108.021 42.016H106.859C106.812 41.6613 106.658 41.386 106.397 41.19C106.145 40.9847 105.804 40.882 105.375 40.882C104.955 40.882 104.628 40.9707 104.395 41.148C104.171 41.3253 104.059 41.5587 104.059 41.848C104.059 42.128 104.204 42.3473 104.493 42.506C104.792 42.6647 105.193 42.8 105.697 42.912C106.126 43.0053 106.532 43.122 106.915 43.262C107.307 43.3927 107.624 43.5933 107.867 43.864C108.119 44.1253 108.245 44.508 108.245 45.012C108.254 45.6373 108.016 46.1553 107.531 46.566C107.055 46.9673 106.406 47.168 105.585 47.168ZM113.047 47.168C112.384 47.168 111.796 47.0187 111.283 46.72C110.77 46.412 110.364 45.9873 110.065 45.446C109.776 44.9047 109.631 44.2653 109.631 43.528C109.631 42.8 109.776 42.1653 110.065 41.624C110.354 41.0733 110.756 40.6487 111.269 40.35C111.792 40.042 112.394 39.888 113.075 39.888C113.747 39.888 114.326 40.042 114.811 40.35C115.306 40.6487 115.684 41.0453 115.945 41.54C116.206 42.0347 116.337 42.5667 116.337 43.136C116.337 43.2387 116.332 43.3413 116.323 43.444C116.323 43.5467 116.323 43.6633 116.323 43.794H110.793C110.821 44.326 110.942 44.7693 111.157 45.124C111.381 45.4693 111.656 45.7307 111.983 45.908C112.319 46.0853 112.674 46.174 113.047 46.174C113.532 46.174 113.938 46.062 114.265 45.838C114.592 45.614 114.83 45.3107 114.979 44.928H116.141C115.954 45.572 115.595 46.1087 115.063 46.538C114.54 46.958 113.868 47.168 113.047 47.168ZM113.047 40.882C112.487 40.882 111.988 41.0547 111.549 41.4C111.12 41.736 110.872 42.2307 110.807 42.884H115.175C115.147 42.2587 114.932 41.7687 114.531 41.414C114.13 41.0593 113.635 40.882 113.047 40.882ZM117.896 47V40.056H118.96L119.058 41.386C119.272 40.9287 119.599 40.5647 120.038 40.294C120.476 40.0233 121.018 39.888 121.662 39.888V41.12H121.34C120.929 41.12 120.551 41.1947 120.206 41.344C119.86 41.484 119.585 41.7267 119.38 42.072C119.174 42.4173 119.072 42.8933 119.072 43.5V47H117.896ZM123.696 38.516C123.462 38.516 123.266 38.4413 123.108 38.292C122.958 38.1333 122.884 37.9373 122.884 37.704C122.884 37.48 122.958 37.2933 123.108 37.144C123.266 36.9947 123.462 36.92 123.696 36.92C123.92 36.92 124.111 36.9947 124.27 37.144C124.428 37.2933 124.508 37.48 124.508 37.704C124.508 37.9373 124.428 38.1333 124.27 38.292C124.111 38.4413 123.92 38.516 123.696 38.516ZM123.108 47V40.056H124.284V47H123.108ZM129.495 47.168C128.842 47.168 128.254 47.0187 127.731 46.72C127.209 46.4213 126.793 46.0013 126.485 45.46C126.187 44.9093 126.037 44.2653 126.037 43.528C126.037 42.7907 126.191 42.1513 126.499 41.61C126.807 41.0593 127.223 40.6347 127.745 40.336C128.277 40.0373 128.87 39.888 129.523 39.888C130.177 39.888 130.765 40.0373 131.287 40.336C131.81 40.6347 132.221 41.0593 132.519 41.61C132.827 42.1513 132.981 42.7907 132.981 43.528C132.981 44.2653 132.827 44.9093 132.519 45.46C132.211 46.0013 131.791 46.4213 131.259 46.72C130.737 47.0187 130.149 47.168 129.495 47.168ZM129.495 46.16C129.897 46.16 130.27 46.062 130.615 45.866C130.961 45.67 131.241 45.376 131.455 44.984C131.67 44.592 131.777 44.1067 131.777 43.528C131.777 42.9493 131.67 42.464 131.455 42.072C131.25 41.68 130.975 41.386 130.629 41.19C130.284 40.994 129.915 40.896 129.523 40.896C129.122 40.896 128.749 40.994 128.403 41.19C128.058 41.386 127.778 41.68 127.563 42.072C127.349 42.464 127.241 42.9493 127.241 43.528C127.241 44.1067 127.349 44.592 127.563 44.984C127.778 45.376 128.053 45.67 128.389 45.866C128.735 46.062 129.103 46.16 129.495 46.16ZM137.15 47.168C136.329 47.168 135.676 46.9207 135.19 46.426C134.705 45.922 134.462 45.152 134.462 44.116V40.056H135.638V43.99C135.638 45.4367 136.231 46.16 137.416 46.16C138.023 46.16 138.522 45.9453 138.914 45.516C139.316 45.0773 139.516 44.4567 139.516 43.654V40.056H140.692V47H139.628L139.544 45.754C139.33 46.1927 139.008 46.538 138.578 46.79C138.158 47.042 137.682 47.168 137.15 47.168ZM145.288 47.168C144.457 47.168 143.767 46.958 143.216 46.538C142.665 46.118 142.343 45.5487 142.25 44.83H143.454C143.529 45.194 143.72 45.5113 144.028 45.782C144.345 46.0433 144.77 46.174 145.302 46.174C145.797 46.174 146.161 46.0713 146.394 45.866C146.627 45.6513 146.744 45.3993 146.744 45.11C146.744 44.69 146.59 44.41 146.282 44.27C145.983 44.13 145.559 44.004 145.008 43.892C144.635 43.8173 144.261 43.71 143.888 43.57C143.515 43.43 143.202 43.234 142.95 42.982C142.698 42.7207 142.572 42.38 142.572 41.96C142.572 41.3533 142.796 40.8587 143.244 40.476C143.701 40.084 144.317 39.888 145.092 39.888C145.829 39.888 146.431 40.0747 146.898 40.448C147.374 40.812 147.649 41.3347 147.724 42.016H146.562C146.515 41.6613 146.361 41.386 146.1 41.19C145.848 40.9847 145.507 40.882 145.078 40.882C144.658 40.882 144.331 40.9707 144.098 41.148C143.874 41.3253 143.762 41.5587 143.762 41.848C143.762 42.128 143.907 42.3473 144.196 42.506C144.495 42.6647 144.896 42.8 145.4 42.912C145.829 43.0053 146.235 43.122 146.618 43.262C147.01 43.3927 147.327 43.5933 147.57 43.864C147.822 44.1253 147.948 44.508 147.948 45.012C147.957 45.6373 147.719 46.1553 147.234 46.566C146.758 46.9673 146.109 47.168 145.288 47.168ZM149.628 47V36.92H150.804V47H149.628ZM153.488 50.08L155.21 46.328H154.804L152.046 40.056H153.32L155.616 45.46L158.052 40.056H159.27L154.72 50.08H153.488ZM159.919 47.07C159.686 47.07 159.49 46.9953 159.331 46.846C159.182 46.6873 159.107 46.496 159.107 46.272C159.107 46.048 159.182 45.8613 159.331 45.712C159.49 45.5533 159.686 45.474 159.919 45.474C160.143 45.474 160.33 45.5533 160.479 45.712C160.638 45.8613 160.717 46.048 160.717 46.272C160.717 46.496 160.638 46.6873 160.479 46.846C160.33 46.9953 160.143 47.07 159.919 47.07ZM166.022 47V37.2H167.198V46.062H171.762V47H166.022ZM176.129 47.168C175.466 47.168 174.878 47.0187 174.365 46.72C173.852 46.412 173.446 45.9873 173.147 45.446C172.858 44.9047 172.713 44.2653 172.713 43.528C172.713 42.8 172.858 42.1653 173.147 41.624C173.436 41.0733 173.838 40.6487 174.351 40.35C174.874 40.042 175.476 39.888 176.157 39.888C176.829 39.888 177.408 40.042 177.893 40.35C178.388 40.6487 178.766 41.0453 179.027 41.54C179.288 42.0347 179.419 42.5667 179.419 43.136C179.419 43.2387 179.414 43.3413 179.405 43.444C179.405 43.5467 179.405 43.6633 179.405 43.794H173.875C173.903 44.326 174.024 44.7693 174.239 45.124C174.463 45.4693 174.738 45.7307 175.065 45.908C175.401 46.0853 175.756 46.174 176.129 46.174C176.614 46.174 177.02 46.062 177.347 45.838C177.674 45.614 177.912 45.3107 178.061 44.928H179.223C179.036 45.572 178.677 46.1087 178.145 46.538C177.622 46.958 176.95 47.168 176.129 47.168ZM176.129 40.882C175.569 40.882 175.07 41.0547 174.631 41.4C174.202 41.736 173.954 42.2307 173.889 42.884H178.257C178.229 42.2587 178.014 41.7687 177.613 41.414C177.212 41.0593 176.717 40.882 176.129 40.882ZM183.489 47C182.855 47 182.355 46.846 181.991 46.538C181.627 46.23 181.445 45.6747 181.445 44.872V41.05H180.241V40.056H181.445L181.599 38.39H182.621V40.056H184.665V41.05H182.621V44.872C182.621 45.3107 182.71 45.6093 182.887 45.768C183.065 45.9173 183.377 45.992 183.825 45.992H184.553V47H183.489ZM185.893 39.188L185.711 36.43H186.873L186.705 39.188H185.893ZM191.021 47.168C190.19 47.168 189.499 46.958 188.949 46.538C188.398 46.118 188.076 45.5487 187.983 44.83H189.187C189.261 45.194 189.453 45.5113 189.761 45.782C190.078 46.0433 190.503 46.174 191.035 46.174C191.529 46.174 191.893 46.0713 192.127 45.866C192.36 45.6513 192.477 45.3993 192.477 45.11C192.477 44.69 192.323 44.41 192.015 44.27C191.716 44.13 191.291 44.004 190.741 43.892C190.367 43.8173 189.994 43.71 189.621 43.57C189.247 43.43 188.935 43.234 188.683 42.982C188.431 42.7207 188.305 42.38 188.305 41.96C188.305 41.3533 188.529 40.8587 188.977 40.476C189.434 40.084 190.05 39.888 190.825 39.888C191.562 39.888 192.164 40.0747 192.631 40.448C193.107 40.812 193.382 41.3347 193.457 42.016H192.295C192.248 41.6613 192.094 41.386 191.833 41.19C191.581 40.9847 191.24 40.882 190.811 40.882C190.391 40.882 190.064 40.9707 189.831 41.148C189.607 41.3253 189.495 41.5587 189.495 41.848C189.495 42.128 189.639 42.3473 189.929 42.506C190.227 42.6647 190.629 42.8 191.133 42.912C191.562 43.0053 191.968 43.122 192.351 43.262C192.743 43.3927 193.06 43.5933 193.303 43.864C193.555 44.1253 193.681 44.508 193.681 45.012C193.69 45.6373 193.452 46.1553 192.967 46.566C192.491 46.9673 191.842 47.168 191.021 47.168ZM199.066 47V36.92H200.242V42.982L203.084 40.056H204.526L201.446 43.192L204.918 47H203.42L200.242 43.402V47H199.066ZM208.736 47.168C208.074 47.168 207.486 47.0187 206.972 46.72C206.459 46.412 206.053 45.9873 205.754 45.446C205.465 44.9047 205.32 44.2653 205.32 43.528C205.32 42.8 205.465 42.1653 205.754 41.624C206.044 41.0733 206.445 40.6487 206.958 40.35C207.481 40.042 208.083 39.888 208.764 39.888C209.436 39.888 210.015 40.042 210.5 40.35C210.995 40.6487 211.373 41.0453 211.634 41.54C211.896 42.0347 212.026 42.5667 212.026 43.136C212.026 43.2387 212.022 43.3413 212.012 43.444C212.012 43.5467 212.012 43.6633 212.012 43.794H206.482C206.51 44.326 206.632 44.7693 206.846 45.124C207.07 45.4693 207.346 45.7307 207.672 45.908C208.008 46.0853 208.363 46.174 208.736 46.174C209.222 46.174 209.628 46.062 209.954 45.838C210.281 45.614 210.519 45.3107 210.668 44.928H211.83C211.644 45.572 211.284 46.1087 210.752 46.538C210.23 46.958 209.558 47.168 208.736 47.168ZM208.736 40.882C208.176 40.882 207.677 41.0547 207.238 41.4C206.809 41.736 206.562 42.2307 206.496 42.884H210.864C210.836 42.2587 210.622 41.7687 210.22 41.414C209.819 41.0593 209.324 40.882 208.736 40.882ZM216.707 47.168C216.044 47.168 215.456 47.0187 214.943 46.72C214.43 46.412 214.024 45.9873 213.725 45.446C213.436 44.9047 213.291 44.2653 213.291 43.528C213.291 42.8 213.436 42.1653 213.725 41.624C214.014 41.0733 214.416 40.6487 214.929 40.35C215.452 40.042 216.054 39.888 216.735 39.888C217.407 39.888 217.986 40.042 218.471 40.35C218.966 40.6487 219.344 41.0453 219.605 41.54C219.866 42.0347 219.997 42.5667 219.997 43.136C219.997 43.2387 219.992 43.3413 219.983 43.444C219.983 43.5467 219.983 43.6633 219.983 43.794H214.453C214.481 44.326 214.602 44.7693 214.817 45.124C215.041 45.4693 215.316 45.7307 215.643 45.908C215.979 46.0853 216.334 46.174 216.707 46.174C217.192 46.174 217.598 46.062 217.925 45.838C218.252 45.614 218.49 45.3107 218.639 44.928H219.801C219.614 45.572 219.255 46.1087 218.723 46.538C218.2 46.958 217.528 47.168 216.707 47.168ZM216.707 40.882C216.147 40.882 215.648 41.0547 215.209 41.4C214.78 41.736 214.532 42.2307 214.467 42.884H218.835C218.807 42.2587 218.592 41.7687 218.191 41.414C217.79 41.0593 217.295 40.882 216.707 40.882ZM221.556 50.08V40.056H222.62L222.732 41.204C222.956 40.868 223.273 40.5647 223.684 40.294C224.104 40.0233 224.636 39.888 225.28 39.888C225.971 39.888 226.573 40.0467 227.086 40.364C227.599 40.6813 227.996 41.1153 228.276 41.666C228.565 42.2167 228.71 42.842 228.71 43.542C228.71 44.242 228.565 44.8673 228.276 45.418C227.996 45.9593 227.595 46.3887 227.072 46.706C226.559 47.014 225.957 47.168 225.266 47.168C224.697 47.168 224.188 47.0513 223.74 46.818C223.301 46.5847 222.965 46.258 222.732 45.838V50.08H221.556ZM225.14 46.146C225.607 46.146 226.017 46.0387 226.372 45.824C226.727 45.6 227.007 45.292 227.212 44.9C227.417 44.508 227.52 44.0507 227.52 43.528C227.52 43.0053 227.417 42.548 227.212 42.156C227.007 41.764 226.727 41.4607 226.372 41.246C226.017 41.022 225.607 40.91 225.14 40.91C224.673 40.91 224.263 41.022 223.908 41.246C223.553 41.4607 223.273 41.764 223.068 42.156C222.863 42.548 222.76 43.0053 222.76 43.528C222.76 44.0507 222.863 44.508 223.068 44.9C223.273 45.292 223.553 45.6 223.908 45.824C224.263 46.0387 224.673 46.146 225.14 46.146ZM236.796 47C236.161 47 235.662 46.846 235.298 46.538C234.934 46.23 234.752 45.6747 234.752 44.872V41.05H233.548V40.056H234.752L234.906 38.39H235.928V40.056H237.972V41.05H235.928V44.872C235.928 45.3107 236.017 45.6093 236.194 45.768C236.371 45.9173 236.684 45.992 237.132 45.992H237.86V47H236.796ZM242.397 47.168C241.734 47.168 241.146 47.0187 240.633 46.72C240.119 46.412 239.713 45.9873 239.415 45.446C239.125 44.9047 238.981 44.2653 238.981 43.528C238.981 42.8 239.125 42.1653 239.415 41.624C239.704 41.0733 240.105 40.6487 240.619 40.35C241.141 40.042 241.743 39.888 242.425 39.888C243.097 39.888 243.675 40.042 244.161 40.35C244.655 40.6487 245.033 41.0453 245.295 41.54C245.556 42.0347 245.687 42.5667 245.687 43.136C245.687 43.2387 245.682 43.3413 245.673 43.444C245.673 43.5467 245.673 43.6633 245.673 43.794H240.143C240.171 44.326 240.292 44.7693 240.507 45.124C240.731 45.4693 241.006 45.7307 241.333 45.908C241.669 46.0853 242.023 46.174 242.397 46.174C242.882 46.174 243.288 46.062 243.615 45.838C243.941 45.614 244.179 45.3107 244.329 44.928H245.491C245.304 45.572 244.945 46.1087 244.413 46.538C243.89 46.958 243.218 47.168 242.397 47.168ZM242.397 40.882C241.837 40.882 241.337 41.0547 240.899 41.4C240.469 41.736 240.222 42.2307 240.157 42.884H244.525C244.497 42.2587 244.282 41.7687 243.881 41.414C243.479 41.0593 242.985 40.882 242.397 40.882ZM247.245 47V40.056H248.309L248.379 41.302C248.603 40.8633 248.925 40.518 249.345 40.266C249.765 40.014 250.241 39.888 250.773 39.888C251.595 39.888 252.248 40.14 252.733 40.644C253.228 41.1387 253.475 41.904 253.475 42.94V47H252.299V43.066C252.299 41.6193 251.702 40.896 250.507 40.896C249.91 40.896 249.411 41.1153 249.009 41.554C248.617 41.9833 248.421 42.5993 248.421 43.402V47H247.245ZM258.407 47.168C257.716 47.168 257.11 47.0093 256.587 46.692C256.074 46.3747 255.672 45.9407 255.383 45.39C255.103 44.8393 254.963 44.214 254.963 43.514C254.963 42.814 255.108 42.1933 255.397 41.652C255.686 41.1013 256.088 40.672 256.601 40.364C257.114 40.0467 257.721 39.888 258.421 39.888C258.99 39.888 259.494 40.0047 259.933 40.238C260.372 40.4713 260.712 40.798 260.955 41.218V36.92H262.131V47H261.067L260.955 45.852C260.731 46.188 260.409 46.4913 259.989 46.762C259.569 47.0327 259.042 47.168 258.407 47.168ZM258.533 46.146C259 46.146 259.41 46.0387 259.765 45.824C260.129 45.6 260.409 45.292 260.605 44.9C260.81 44.508 260.913 44.0507 260.913 43.528C260.913 43.0053 260.81 42.548 260.605 42.156C260.409 41.764 260.129 41.4607 259.765 41.246C259.41 41.022 259 40.91 258.533 40.91C258.076 40.91 257.665 41.022 257.301 41.246C256.946 41.4607 256.666 41.764 256.461 42.156C256.265 42.548 256.167 43.0053 256.167 43.528C256.167 44.0507 256.265 44.508 256.461 44.9C256.666 45.292 256.946 45.6 257.301 45.824C257.665 46.0387 258.076 46.146 258.533 46.146ZM264.762 38.516C264.529 38.516 264.333 38.4413 264.174 38.292C264.025 38.1333 263.95 37.9373 263.95 37.704C263.95 37.48 264.025 37.2933 264.174 37.144C264.333 36.9947 264.529 36.92 264.762 36.92C264.986 36.92 265.177 36.9947 265.336 37.144C265.495 37.2933 265.574 37.48 265.574 37.704C265.574 37.9373 265.495 38.1333 265.336 38.292C265.177 38.4413 264.986 38.516 264.762 38.516ZM264.174 47V40.056H265.35V47H264.174ZM267.398 47V40.056H268.462L268.532 41.302C268.756 40.8633 269.078 40.518 269.498 40.266C269.918 40.014 270.394 39.888 270.926 39.888C271.747 39.888 272.4 40.14 272.886 40.644C273.38 41.1387 273.628 41.904 273.628 42.94V47H272.452V43.066C272.452 41.6193 271.854 40.896 270.66 40.896C270.062 40.896 269.563 41.1153 269.162 41.554C268.77 41.9833 268.574 42.5993 268.574 43.402V47H267.398ZM278.909 50.248C278.303 50.248 277.747 50.1407 277.243 49.926C276.739 49.7207 276.319 49.422 275.983 49.03C275.657 48.638 275.442 48.162 275.339 47.602H276.501C276.651 48.0873 276.935 48.4793 277.355 48.778C277.785 49.0767 278.298 49.226 278.895 49.226C279.577 49.226 280.151 49.0067 280.617 48.568C281.084 48.1293 281.317 47.476 281.317 46.608V45.6C281.093 45.992 280.757 46.3467 280.309 46.664C279.861 46.9813 279.297 47.14 278.615 47.14C277.962 47.14 277.369 46.9813 276.837 46.664C276.315 46.3467 275.895 45.9127 275.577 45.362C275.269 44.8113 275.115 44.1907 275.115 43.5C275.115 42.8093 275.269 42.1933 275.577 41.652C275.895 41.1013 276.319 40.672 276.851 40.364C277.383 40.0467 277.976 39.888 278.629 39.888C279.245 39.888 279.787 40.028 280.253 40.308C280.72 40.5787 281.075 40.91 281.317 41.302L281.429 40.056H282.493V46.594C282.493 47.35 282.339 47.9987 282.031 48.54C281.723 49.0907 281.299 49.5107 280.757 49.8C280.216 50.0987 279.6 50.248 278.909 50.248ZM278.797 46.118C279.273 46.118 279.693 46.006 280.057 45.782C280.431 45.558 280.725 45.25 280.939 44.858C281.163 44.466 281.275 44.0133 281.275 43.5C281.275 42.9867 281.163 42.534 280.939 42.142C280.725 41.75 280.431 41.4467 280.057 41.232C279.693 41.0173 279.273 40.91 278.797 40.91C278.331 40.91 277.911 41.0173 277.537 41.232C277.164 41.4467 276.865 41.75 276.641 42.142C276.427 42.534 276.319 42.9867 276.319 43.5C276.319 44.0133 276.427 44.466 276.641 44.858C276.865 45.25 277.164 45.558 277.537 45.782C277.911 46.006 278.331 46.118 278.797 46.118ZM290.868 47C290.234 47 289.734 46.846 289.37 46.538C289.006 46.23 288.824 45.6747 288.824 44.872V41.05H287.62V40.056H288.824L288.978 38.39H290V40.056H292.044V41.05H290V44.872C290 45.3107 290.089 45.6093 290.266 45.768C290.444 45.9173 290.756 45.992 291.204 45.992H291.932V47H290.868ZM296.511 47.168C295.858 47.168 295.27 47.0187 294.747 46.72C294.224 46.4213 293.809 46.0013 293.501 45.46C293.202 44.9093 293.053 44.2653 293.053 43.528C293.053 42.7907 293.207 42.1513 293.515 41.61C293.823 41.0593 294.238 40.6347 294.761 40.336C295.293 40.0373 295.886 39.888 296.539 39.888C297.192 39.888 297.78 40.0373 298.303 40.336C298.826 40.6347 299.236 41.0593 299.535 41.61C299.843 42.1513 299.997 42.7907 299.997 43.528C299.997 44.2653 299.843 44.9093 299.535 45.46C299.227 46.0013 298.807 46.4213 298.275 46.72C297.752 47.0187 297.164 47.168 296.511 47.168ZM296.511 46.16C296.912 46.16 297.286 46.062 297.631 45.866C297.976 45.67 298.256 45.376 298.471 44.984C298.686 44.592 298.793 44.1067 298.793 43.528C298.793 42.9493 298.686 42.464 298.471 42.072C298.266 41.68 297.99 41.386 297.645 41.19C297.3 40.994 296.931 40.896 296.539 40.896C296.138 40.896 295.764 40.994 295.419 41.19C295.074 41.386 294.794 41.68 294.579 42.072C294.364 42.464 294.257 42.9493 294.257 43.528C294.257 44.1067 294.364 44.592 294.579 44.984C294.794 45.376 295.069 45.67 295.405 45.866C295.75 46.062 296.119 46.16 296.511 46.16ZM308.081 47C307.446 47 306.947 46.846 306.583 46.538C306.219 46.23 306.037 45.6747 306.037 44.872V41.05H304.833V40.056H306.037L306.191 38.39H307.213V40.056H309.257V41.05H307.213V44.872C307.213 45.3107 307.302 45.6093 307.479 45.768C307.656 45.9173 307.969 45.992 308.417 45.992H309.145V47H308.081ZM310.751 47V36.92H311.927V41.246C312.16 40.8167 312.492 40.4853 312.921 40.252C313.35 40.0093 313.817 39.888 314.321 39.888C315.124 39.888 315.768 40.14 316.253 40.644C316.738 41.1387 316.981 41.904 316.981 42.94V47H315.819V43.066C315.819 41.6193 315.236 40.896 314.069 40.896C313.462 40.896 312.954 41.1153 312.543 41.554C312.132 41.9833 311.927 42.5993 311.927 43.402V47H310.751ZM319.477 38.516C319.244 38.516 319.048 38.4413 318.889 38.292C318.74 38.1333 318.665 37.9373 318.665 37.704C318.665 37.48 318.74 37.2933 318.889 37.144C319.048 36.9947 319.244 36.92 319.477 36.92C319.701 36.92 319.892 36.9947 320.051 37.144C320.21 37.2933 320.289 37.48 320.289 37.704C320.289 37.9373 320.21 38.1333 320.051 38.292C319.892 38.4413 319.701 38.516 319.477 38.516ZM318.889 47V40.056H320.065V47H318.889ZM324.772 47.168C323.942 47.168 323.251 46.958 322.7 46.538C322.15 46.118 321.828 45.5487 321.734 44.83H322.938C323.013 45.194 323.204 45.5113 323.512 45.782C323.83 46.0433 324.254 46.174 324.786 46.174C325.281 46.174 325.645 46.0713 325.878 45.866C326.112 45.6513 326.228 45.3993 326.228 45.11C326.228 44.69 326.074 44.41 325.766 44.27C325.468 44.13 325.043 44.004 324.492 43.892C324.119 43.8173 323.746 43.71 323.372 43.57C322.999 43.43 322.686 43.234 322.434 42.982C322.182 42.7207 322.056 42.38 322.056 41.96C322.056 41.3533 322.28 40.8587 322.728 40.476C323.186 40.084 323.802 39.888 324.576 39.888C325.314 39.888 325.916 40.0747 326.382 40.448C326.858 40.812 327.134 41.3347 327.208 42.016H326.046C326 41.6613 325.846 41.386 325.584 41.19C325.332 40.9847 324.992 40.882 324.562 40.882C324.142 40.882 323.816 40.9707 323.582 41.148C323.358 41.3253 323.246 41.5587 323.246 41.848C323.246 42.128 323.391 42.3473 323.68 42.506C323.979 42.6647 324.38 42.8 324.884 42.912C325.314 43.0053 325.72 43.122 326.102 43.262C326.494 43.3927 326.812 43.5933 327.054 43.864C327.306 44.1253 327.432 44.508 327.432 45.012C327.442 45.6373 327.204 46.1553 326.718 46.566C326.242 46.9673 325.594 47.168 324.772 47.168ZM336.318 50.248C335.711 50.248 335.156 50.1407 334.652 49.926C334.148 49.7207 333.728 49.422 333.392 49.03C333.065 48.638 332.85 48.162 332.748 47.602H333.91C334.059 48.0873 334.344 48.4793 334.764 48.778C335.193 49.0767 335.706 49.226 336.304 49.226C336.985 49.226 337.559 49.0067 338.026 48.568C338.492 48.1293 338.726 47.476 338.726 46.608V45.6C338.502 45.992 338.166 46.3467 337.718 46.664C337.27 46.9813 336.705 47.14 336.024 47.14C335.37 47.14 334.778 46.9813 334.246 46.664C333.723 46.3467 333.303 45.9127 332.986 45.362C332.678 44.8113 332.524 44.1907 332.524 43.5C332.524 42.8093 332.678 42.1933 332.986 41.652C333.303 41.1013 333.728 40.672 334.26 40.364C334.792 40.0467 335.384 39.888 336.038 39.888C336.654 39.888 337.195 40.028 337.662 40.308C338.128 40.5787 338.483 40.91 338.726 41.302L338.838 40.056H339.902V46.594C339.902 47.35 339.748 47.9987 339.44 48.54C339.132 49.0907 338.707 49.5107 338.166 49.8C337.624 50.0987 337.008 50.248 336.318 50.248ZM336.206 46.118C336.682 46.118 337.102 46.006 337.466 45.782C337.839 45.558 338.133 45.25 338.348 44.858C338.572 44.466 338.684 44.0133 338.684 43.5C338.684 42.9867 338.572 42.534 338.348 42.142C338.133 41.75 337.839 41.4467 337.466 41.232C337.102 41.0173 336.682 40.91 336.206 40.91C335.739 40.91 335.319 41.0173 334.946 41.232C334.572 41.4467 334.274 41.75 334.05 42.142C333.835 42.534 333.728 42.9867 333.728 43.5C333.728 44.0133 333.835 44.466 334.05 44.858C334.274 45.25 334.572 45.558 334.946 45.782C335.319 46.006 335.739 46.118 336.206 46.118ZM344.137 47.168C343.559 47.168 343.078 47.07 342.695 46.874C342.313 46.678 342.028 46.4167 341.841 46.09C341.655 45.7633 341.561 45.4087 341.561 45.026C341.561 44.3167 341.832 43.7707 342.373 43.388C342.915 43.0053 343.652 42.814 344.585 42.814H346.461V42.73C346.461 42.1233 346.303 41.666 345.985 41.358C345.668 41.0407 345.243 40.882 344.711 40.882C344.254 40.882 343.857 40.9987 343.521 41.232C343.195 41.456 342.989 41.7873 342.905 42.226H341.701C341.748 41.722 341.916 41.2973 342.205 40.952C342.504 40.6067 342.873 40.3453 343.311 40.168C343.75 39.9813 344.217 39.888 344.711 39.888C345.682 39.888 346.41 40.1493 346.895 40.672C347.39 41.1853 347.637 41.8713 347.637 42.73V47H346.587L346.517 45.754C346.321 46.146 346.032 46.482 345.649 46.762C345.276 47.0327 344.772 47.168 344.137 47.168ZM344.319 46.174C344.767 46.174 345.15 46.0573 345.467 45.824C345.794 45.5907 346.041 45.2873 346.209 44.914C346.377 44.5407 346.461 44.1487 346.461 43.738V43.724H344.683C343.993 43.724 343.503 43.8453 343.213 44.088C342.933 44.3213 342.793 44.6153 342.793 44.97C342.793 45.334 342.924 45.628 343.185 45.852C343.456 46.0667 343.834 46.174 344.319 46.174ZM349.402 47V40.056H350.466L350.564 41.386C350.778 40.9287 351.105 40.5647 351.544 40.294C351.982 40.0233 352.524 39.888 353.168 39.888V41.12H352.846C352.435 41.12 352.057 41.1947 351.712 41.344C351.366 41.484 351.091 41.7267 350.886 42.072C350.68 42.4173 350.578 42.8933 350.578 43.5V47H349.402ZM357.378 47.168C356.687 47.168 356.08 47.0093 355.558 46.692C355.044 46.3747 354.643 45.9407 354.354 45.39C354.074 44.8393 353.934 44.214 353.934 43.514C353.934 42.814 354.078 42.1933 354.368 41.652C354.657 41.1013 355.058 40.672 355.572 40.364C356.085 40.0467 356.692 39.888 357.392 39.888C357.961 39.888 358.465 40.0047 358.904 40.238C359.342 40.4713 359.683 40.798 359.926 41.218V36.92H361.102V47H360.038L359.926 45.852C359.702 46.188 359.38 46.4913 358.96 46.762C358.54 47.0327 358.012 47.168 357.378 47.168ZM357.504 46.146C357.97 46.146 358.381 46.0387 358.736 45.824C359.1 45.6 359.38 45.292 359.576 44.9C359.781 44.508 359.884 44.0507 359.884 43.528C359.884 43.0053 359.781 42.548 359.576 42.156C359.38 41.764 359.1 41.4607 358.736 41.246C358.381 41.022 357.97 40.91 357.504 40.91C357.046 40.91 356.636 41.022 356.272 41.246C355.917 41.4607 355.637 41.764 355.432 42.156C355.236 42.548 355.138 43.0053 355.138 43.528C355.138 44.0507 355.236 44.508 355.432 44.9C355.637 45.292 355.917 45.6 356.272 45.824C356.636 46.0387 357.046 46.146 357.504 46.146ZM366.141 47.168C365.478 47.168 364.89 47.0187 364.377 46.72C363.863 46.412 363.457 45.9873 363.159 45.446C362.869 44.9047 362.725 44.2653 362.725 43.528C362.725 42.8 362.869 42.1653 363.159 41.624C363.448 41.0733 363.849 40.6487 364.363 40.35C364.885 40.042 365.487 39.888 366.169 39.888C366.841 39.888 367.419 40.042 367.905 40.35C368.399 40.6487 368.777 41.0453 369.039 41.54C369.3 42.0347 369.431 42.5667 369.431 43.136C369.431 43.2387 369.426 43.3413 369.417 43.444C369.417 43.5467 369.417 43.6633 369.417 43.794H363.887C363.915 44.326 364.036 44.7693 364.251 45.124C364.475 45.4693 364.75 45.7307 365.077 45.908C365.413 46.0853 365.767 46.174 366.141 46.174C366.626 46.174 367.032 46.062 367.359 45.838C367.685 45.614 367.923 45.3107 368.073 44.928H369.235C369.048 45.572 368.689 46.1087 368.157 46.538C367.634 46.958 366.962 47.168 366.141 47.168ZM366.141 40.882C365.581 40.882 365.081 41.0547 364.643 41.4C364.213 41.736 363.966 42.2307 363.901 42.884H368.269C368.241 42.2587 368.026 41.7687 367.625 41.414C367.223 41.0593 366.729 40.882 366.141 40.882ZM370.989 47V40.056H372.053L372.123 41.302C372.347 40.8633 372.669 40.518 373.089 40.266C373.509 40.014 373.985 39.888 374.517 39.888C375.339 39.888 375.992 40.14 376.477 40.644C376.972 41.1387 377.219 41.904 377.219 42.94V47H376.043V43.066C376.043 41.6193 375.446 40.896 374.251 40.896C373.654 40.896 373.155 41.1153 372.753 41.554C372.361 41.9833 372.165 42.5993 372.165 43.402V47H370.989ZM385.87 47.168C385.217 47.168 384.629 47.0187 384.106 46.72C383.584 46.4213 383.168 46.0013 382.86 45.46C382.562 44.9093 382.412 44.2653 382.412 43.528C382.412 42.7907 382.566 42.1513 382.874 41.61C383.182 41.0593 383.598 40.6347 384.12 40.336C384.652 40.0373 385.245 39.888 385.898 39.888C386.552 39.888 387.14 40.0373 387.662 40.336C388.185 40.6347 388.596 41.0593 388.894 41.61C389.202 42.1513 389.356 42.7907 389.356 43.528C389.356 44.2653 389.202 44.9093 388.894 45.46C388.586 46.0013 388.166 46.4213 387.634 46.72C387.112 47.0187 386.524 47.168 385.87 47.168ZM385.87 46.16C386.272 46.16 386.645 46.062 386.99 45.866C387.336 45.67 387.616 45.376 387.83 44.984C388.045 44.592 388.152 44.1067 388.152 43.528C388.152 42.9493 388.045 42.464 387.83 42.072C387.625 41.68 387.35 41.386 387.004 41.19C386.659 40.994 386.29 40.896 385.898 40.896C385.497 40.896 385.124 40.994 384.778 41.19C384.433 41.386 384.153 41.68 383.938 42.072C383.724 42.464 383.616 42.9493 383.616 43.528C383.616 44.1067 383.724 44.592 383.938 44.984C384.153 45.376 384.428 45.67 384.764 45.866C385.11 46.062 385.478 46.16 385.87 46.16ZM391.369 47V41.05H390.319V40.056H391.369V38.852C391.369 38.18 391.537 37.69 391.873 37.382C392.209 37.074 392.699 36.92 393.343 36.92H394.043V37.928H393.525C393.171 37.928 392.919 38.0027 392.769 38.152C392.62 38.292 392.545 38.5347 392.545 38.88V40.056H394.253V41.05H392.545V47H391.369ZM74.966 67V56.92H76.142V62.982L78.984 60.056H80.426L77.346 63.192L80.818 67H79.32L76.142 63.402V67H74.966ZM82.0207 67V60.056H83.0847L83.1547 61.302C83.3787 60.8633 83.7007 60.518 84.1207 60.266C84.5407 60.014 85.0167 59.888 85.5487 59.888C86.37 59.888 87.0234 60.14 87.5087 60.644C88.0034 61.1387 88.2507 61.904 88.2507 62.94V67H87.0747V63.066C87.0747 61.6193 86.4774 60.896 85.2827 60.896C84.6854 60.896 84.186 61.1153 83.7847 61.554C83.3927 61.9833 83.1967 62.5993 83.1967 63.402V67H82.0207ZM93.1964 67.168C92.5431 67.168 91.9551 67.0187 91.4324 66.72C90.9097 66.4213 90.4944 66.0013 90.1864 65.46C89.8877 64.9093 89.7384 64.2653 89.7384 63.528C89.7384 62.7907 89.8924 62.1513 90.2004 61.61C90.5084 61.0593 90.9237 60.6347 91.4464 60.336C91.9784 60.0373 92.5711 59.888 93.2244 59.888C93.8777 59.888 94.4657 60.0373 94.9884 60.336C95.5111 60.6347 95.9217 61.0593 96.2204 61.61C96.5284 62.1513 96.6824 62.7907 96.6824 63.528C96.6824 64.2653 96.5284 64.9093 96.2204 65.46C95.9124 66.0013 95.4924 66.4213 94.9604 66.72C94.4377 67.0187 93.8497 67.168 93.1964 67.168ZM93.1964 66.16C93.5977 66.16 93.9711 66.062 94.3164 65.866C94.6617 65.67 94.9417 65.376 95.1564 64.984C95.3711 64.592 95.4784 64.1067 95.4784 63.528C95.4784 62.9493 95.3711 62.464 95.1564 62.072C94.9511 61.68 94.6757 61.386 94.3304 61.19C93.9851 60.994 93.6164 60.896 93.2244 60.896C92.8231 60.896 92.4497 60.994 92.1044 61.19C91.7591 61.386 91.4791 61.68 91.2644 62.072C91.0497 62.464 90.9424 62.9493 90.9424 63.528C90.9424 64.1067 91.0497 64.592 91.2644 64.984C91.4791 65.376 91.7544 65.67 92.0904 65.866C92.4357 66.062 92.8044 66.16 93.1964 66.16ZM99.4578 67L97.4278 60.056H98.6038L100.074 65.502L101.698 60.056H103.028L104.666 65.502L106.122 60.056H107.312L105.282 67H104.078L102.37 61.274L100.662 67H99.4578ZM108.612 67V56.92H109.788V67H108.612ZM114.838 67.168C114.175 67.168 113.587 67.0187 113.074 66.72C112.561 66.412 112.155 65.9873 111.856 65.446C111.567 64.9047 111.422 64.2653 111.422 63.528C111.422 62.8 111.567 62.1653 111.856 61.624C112.145 61.0733 112.547 60.6487 113.06 60.35C113.583 60.042 114.185 59.888 114.866 59.888C115.538 59.888 116.117 60.042 116.602 60.35C117.097 60.6487 117.475 61.0453 117.736 61.54C117.997 62.0347 118.128 62.5667 118.128 63.136C118.128 63.2387 118.123 63.3413 118.114 63.444C118.114 63.5467 118.114 63.6633 118.114 63.794H112.584C112.612 64.326 112.733 64.7693 112.948 65.124C113.172 65.4693 113.447 65.7307 113.774 65.908C114.11 66.0853 114.465 66.174 114.838 66.174C115.323 66.174 115.729 66.062 116.056 65.838C116.383 65.614 116.621 65.3107 116.77 64.928H117.932C117.745 65.572 117.386 66.1087 116.854 66.538C116.331 66.958 115.659 67.168 114.838 67.168ZM114.838 60.882C114.278 60.882 113.779 61.0547 113.34 61.4C112.911 61.736 112.663 62.2307 112.598 62.884H116.966C116.938 62.2587 116.723 61.7687 116.322 61.414C115.921 61.0593 115.426 60.882 114.838 60.882ZM122.837 67.168C122.146 67.168 121.539 67.0093 121.017 66.692C120.503 66.3747 120.102 65.9407 119.813 65.39C119.533 64.8393 119.393 64.214 119.393 63.514C119.393 62.814 119.537 62.1933 119.827 61.652C120.116 61.1013 120.517 60.672 121.031 60.364C121.544 60.0467 122.151 59.888 122.851 59.888C123.42 59.888 123.924 60.0047 124.363 60.238C124.801 60.4713 125.142 60.798 125.385 61.218V56.92H126.561V67H125.497L125.385 65.852C125.161 66.188 124.839 66.4913 124.419 66.762C123.999 67.0327 123.471 67.168 122.837 67.168ZM122.963 66.146C123.429 66.146 123.84 66.0387 124.195 65.824C124.559 65.6 124.839 65.292 125.035 64.9C125.24 64.508 125.343 64.0507 125.343 63.528C125.343 63.0053 125.24 62.548 125.035 62.156C124.839 61.764 124.559 61.4607 124.195 61.246C123.84 61.022 123.429 60.91 122.963 60.91C122.505 60.91 122.095 61.022 121.731 61.246C121.376 61.4607 121.096 61.764 120.891 62.156C120.695 62.548 120.597 63.0053 120.597 63.528C120.597 64.0507 120.695 64.508 120.891 64.9C121.096 65.292 121.376 65.6 121.731 65.824C122.095 66.0387 122.505 66.146 122.963 66.146ZM131.978 70.248C131.371 70.248 130.816 70.1407 130.312 69.926C129.808 69.7207 129.388 69.422 129.052 69.03C128.725 68.638 128.51 68.162 128.408 67.602H129.57C129.719 68.0873 130.004 68.4793 130.424 68.778C130.853 69.0767 131.366 69.226 131.964 69.226C132.645 69.226 133.219 69.0067 133.686 68.568C134.152 68.1293 134.386 67.476 134.386 66.608V65.6C134.162 65.992 133.826 66.3467 133.378 66.664C132.93 66.9813 132.365 67.14 131.684 67.14C131.03 67.14 130.438 66.9813 129.906 66.664C129.383 66.3467 128.963 65.9127 128.646 65.362C128.338 64.8113 128.184 64.1907 128.184 63.5C128.184 62.8093 128.338 62.1933 128.646 61.652C128.963 61.1013 129.388 60.672 129.92 60.364C130.452 60.0467 131.044 59.888 131.698 59.888C132.314 59.888 132.855 60.028 133.322 60.308C133.788 60.5787 134.143 60.91 134.386 61.302L134.498 60.056H135.562V66.594C135.562 67.35 135.408 67.9987 135.1 68.54C134.792 69.0907 134.367 69.5107 133.826 69.8C133.284 70.0987 132.668 70.248 131.978 70.248ZM131.866 66.118C132.342 66.118 132.762 66.006 133.126 65.782C133.499 65.558 133.793 65.25 134.008 64.858C134.232 64.466 134.344 64.0133 134.344 63.5C134.344 62.9867 134.232 62.534 134.008 62.142C133.793 61.75 133.499 61.4467 133.126 61.232C132.762 61.0173 132.342 60.91 131.866 60.91C131.399 60.91 130.979 61.0173 130.606 61.232C130.232 61.4467 129.934 61.75 129.71 62.142C129.495 62.534 129.388 62.9867 129.388 63.5C129.388 64.0133 129.495 64.466 129.71 64.858C129.934 65.25 130.232 65.558 130.606 65.782C130.979 66.006 131.399 66.118 131.866 66.118ZM140.609 67.168C139.947 67.168 139.359 67.0187 138.845 66.72C138.332 66.412 137.926 65.9873 137.627 65.446C137.338 64.9047 137.193 64.2653 137.193 63.528C137.193 62.8 137.338 62.1653 137.627 61.624C137.917 61.0733 138.318 60.6487 138.831 60.35C139.354 60.042 139.956 59.888 140.637 59.888C141.309 59.888 141.888 60.042 142.373 60.35C142.868 60.6487 143.246 61.0453 143.507 61.54C143.769 62.0347 143.899 62.5667 143.899 63.136C143.899 63.2387 143.895 63.3413 143.885 63.444C143.885 63.5467 143.885 63.6633 143.885 63.794H138.355C138.383 64.326 138.505 64.7693 138.719 65.124C138.943 65.4693 139.219 65.7307 139.545 65.908C139.881 66.0853 140.236 66.174 140.609 66.174C141.095 66.174 141.501 66.062 141.827 65.838C142.154 65.614 142.392 65.3107 142.541 64.928H143.703C143.517 65.572 143.157 66.1087 142.625 66.538C142.103 66.958 141.431 67.168 140.609 67.168ZM140.609 60.882C140.049 60.882 139.55 61.0547 139.111 61.4C138.682 61.736 138.435 62.2307 138.369 62.884H142.737C142.709 62.2587 142.495 61.7687 142.093 61.414C141.692 61.0593 141.197 60.882 140.609 60.882ZM145.864 67.07C145.631 67.07 145.435 66.9953 145.276 66.846C145.127 66.6873 145.052 66.496 145.052 66.272C145.052 66.048 145.127 65.8613 145.276 65.712C145.435 65.5533 145.631 65.474 145.864 65.474C146.088 65.474 146.275 65.5533 146.424 65.712C146.583 65.8613 146.662 66.048 146.662 66.272C146.662 66.496 146.583 66.6873 146.424 66.846C146.275 66.9953 146.088 67.07 145.864 67.07Z" fill="white"/>
<rect y="84" width="40" height="40" rx="8" fill="white"/>
<defs>
<linearGradient id="paint0_linear_52_72364" x1="62" y1="84" x2="428" y2="-4.23086e-07" gradientUnits="userSpaceOnUse">
<stop offset="0.043503" stop-color="white" stop-opacity="0"/>
<stop offset="1" stop-color="white"/>
</linearGradient>
</defs>
</svg>
