<?xml version="1.0" encoding="UTF-8"?>
<svg id="Layer_1" data-name="Layer 1" xmlns="http://www.w3.org/2000/svg" viewBox="0 0 500 500">
  <defs>
    <style>
      .cls-1 {
        fill: #3e4de5;
        opacity: .3;
      }

      .cls-1, .cls-2 {
        stroke-width: 0px;
      }

      .cls-3, .cls-2, .cls-4 {
        fill: #000;
      }

      .cls-3, .cls-4 {
        stroke: #000;
        stroke-miterlimit: 10;
      }

      .cls-4 {
        stroke-width: .5px;
      }
    </style>
  </defs>
  <ellipse class="cls-1" cx="248.73" cy="240.33" rx="163.86" ry="121.61" transform="translate(-96.75 256.68) rotate(-46.73)"/>
  <path class="cls-2" d="M350.47,218.45c-2.4,8.36-4.34,17.26-4.51,25.97-.08,4.19.14,9.96,3.98,12.61,4.73,3.26,10.73-.93,14.43-3.85,13.45-10.6,23.86-25.59,33.9-39.25,1.91-2.59-2.43-5.09-4.32-2.52-8.85,12.04-17.96,24.38-28.93,34.62-2.32,2.17-9.23,8.79-12.25,6.91-2.09-1.3-1.9-6.96-1.78-9.66.22-4.94,1.09-9.84,2.13-14.66.64-2.96,1.33-5.92,2.17-8.84.89-3.1-3.93-4.42-4.82-1.33h0Z"/>
  <path class="cls-2" d="M360.35,256c6.68-4.15,12.17-10.12,17.32-15.99,6.88-7.84,13.25-16.13,19.44-24.52,5.57-7.56,10.82-15.38,16.21-23.07,1.85-2.64-2.48-5.14-4.32-2.52-5.01,7.15-9.95,14.36-15.03,21.47-5.83,8.15-12.05,16.1-18.59,23.68-5.2,6.02-10.75,12.4-17.56,16.64-2.73,1.7-.22,6.02,2.52,4.32h0Z"/>
  <path class="cls-2" d="M170.86,261.6c-8.44,1.87-17.08,4.41-24.79,8.35-3.69,1.89-8.57,4.75-9.23,9.28-.83,5.69,5.49,9.05,9.82,10.95,15.63,6.85,33.77,8.85,50.49,11.16,3.15.43,4.51-4.38,1.33-4.82-14.83-2.04-30-4.16-44.28-8.82-3.15-1.03-12.52-3.88-12.46-7.62.04-2.34,5.22-5.02,7.67-6.21,4.48-2.19,9.28-3.76,14.06-5.16,2.88-.85,5.78-1.63,8.71-2.28,3.14-.7,1.81-5.52-1.33-4.82h0Z"/>
  <path class="cls-2" d="M217.25,314.48c.24,12.62.18,25.25-.07,37.86-.37,18,.07,37.51-4.71,55.02-.85,3.11,3.97,4.43,4.82,1.33,4.81-17.59,4.47-37.12,4.87-55.2.28-13,.35-26.01.1-39.01-.06-3.21-5.06-3.22-5,0h0Z"/>
  <path class="cls-2" d="M279.83,314.48c-.25,13-.19,26.01.1,39.01.39,18.08.06,37.61,4.87,55.2.85,3.1,5.67,1.78,4.82-1.33-4.79-17.51-4.34-37.01-4.71-55.02-.26-12.62-.32-25.25-.07-37.86.06-3.22-4.94-3.22-5,0h0Z"/>
  <ellipse class="cls-3" cx="252.72" cy="223.18" rx="108.74" ry="119.89"/>
  <g>
    <circle class="cls-3" cx="186.74" cy="284.96" r="1.02"/>
    <circle class="cls-3" cx="191.83" cy="293.52" r="1.02"/>
    <circle class="cls-3" cx="183.52" cy="292.45" r="1.02"/>
    <circle class="cls-3" cx="177.18" cy="292.5" r="1.02"/>
    <circle class="cls-3" cx="187.47" cy="300.77" r="1.02"/>
    <circle class="cls-3" cx="180.77" cy="299.7" r="1.02"/>
    <circle class="cls-3" cx="194.49" cy="301.18" r="1.02"/>
    <circle class="cls-3" cx="198.92" cy="308.04" r="1.02"/>
    <circle class="cls-3" cx="190.5" cy="310.91" r="1.02"/>
    <circle class="cls-3" cx="199.49" cy="293.47" r="1.02"/>
    <circle class="cls-3" cx="209.73" cy="301.8" r="1.02"/>
    <circle class="cls-3" cx="203.12" cy="301.23" r="1.02"/>
    <circle class="cls-3" cx="199.49" cy="275.46" r="1.02"/>
    <circle class="cls-3" cx="202.53" cy="288.35" r="1.02"/>
    <circle class="cls-3" cx="198.18" cy="282.27" r="1.02"/>
    <circle class="cls-3" cx="193.33" cy="261.93" r="1.02"/>
    <circle class="cls-3" cx="198.92" cy="267.64" r="1.02"/>
    <circle class="cls-3" cx="192.31" cy="269.69" r="1.02"/>
    <circle class="cls-3" cx="178.89" cy="259.89" r="1.02"/>
    <circle class="cls-3" cx="187.16" cy="261.26" r="1.02"/>
    <circle class="cls-3" cx="177.87" cy="267.38" r="1.02"/>
    <circle class="cls-3" cx="168.94" cy="268.4" r="1.02"/>
    <circle class="cls-3" cx="174.66" cy="276.48" r="1.02"/>
    <circle class="cls-3" cx="162.54" cy="265.2" r="1.02"/>
    <circle class="cls-3" cx="184.69" cy="269.69" r="1.02"/>
    <circle class="cls-3" cx="190.81" cy="277.89" r="1.02"/>
    <circle class="cls-3" cx="180.77" cy="277.25" r="1.02"/>
    <circle class="cls-3" cx="166.9" cy="275.46" r="1.02"/>
    <circle class="cls-3" cx="179.91" cy="285.44" r="1.02"/>
    <circle class="cls-3" cx="173.22" cy="284.37" r="1.02"/>
    <circle class="cls-3" cx="213.36" cy="289.37" r="1.02"/>
    <circle class="cls-3" cx="216.06" cy="297" r="1.02"/>
    <circle class="cls-3" cx="208.08" cy="294.96" r="1.02"/>
    <circle class="cls-3" cx="207.06" cy="308.48" r="1.02"/>
    <circle class="cls-3" cx="215.04" cy="306.65" r="1.02"/>
    <circle class="cls-3" cx="200.15" cy="316.69" r="1.02"/>
    <circle class="cls-3" cx="194.47" cy="287" r="1.02"/>
    <circle class="cls-3" cx="207.69" cy="283.94" r="1.02"/>
    <circle class="cls-3" cx="168.59" cy="259.17" r="1.02"/>
  </g>
  <g>
    <circle class="cls-3" cx="312.65" cy="180.11" r="1.02"/>
    <circle class="cls-3" cx="305.7" cy="172.98" r="1.02"/>
    <circle class="cls-3" cx="314.03" cy="172.08" r="1.02"/>
    <circle class="cls-3" cx="320.18" cy="170.55" r="1.02"/>
    <circle class="cls-3" cx="308.24" cy="164.9" r="1.02"/>
    <circle class="cls-3" cx="315" cy="164.38" r="1.02"/>
    <circle class="cls-3" cx="301.32" cy="166.15" r="1.02"/>
    <circle class="cls-3" cx="295.41" cy="160.51" r="1.02"/>
    <circle class="cls-3" cx="302.93" cy="155.76" r="1.02"/>
    <circle class="cls-3" cx="298.26" cy="174.82" r="1.02"/>
    <circle class="cls-3" cx="286.36" cy="169.11" r="1.02"/>
    <circle class="cls-3" cx="292.91" cy="168.12" r="1.02"/>
    <circle class="cls-3" cx="302.47" cy="192.33" r="1.02"/>
    <circle class="cls-3" cx="296.5" cy="180.5" r="1.02"/>
    <circle class="cls-3" cx="302.14" cy="185.4" r="1.02"/>
    <circle class="cls-3" cx="311.61" cy="204.04" r="1.02"/>
    <circle class="cls-3" cx="304.84" cy="199.8" r="1.02"/>
    <circle class="cls-3" cx="310.79" cy="196.26" r="1.02"/>
    <circle class="cls-3" cx="326.13" cy="202.65" r="1.02"/>
    <circle class="cls-3" cx="317.77" cy="203.25" r="1.02"/>
    <circle class="cls-3" cx="325.37" cy="195.14" r="1.02"/>
    <circle class="cls-3" cx="333.81" cy="192.06" r="1.02"/>
    <circle class="cls-3" cx="326.36" cy="185.54" r="1.02"/>
    <circle class="cls-3" cx="340.79" cy="193.68" r="1.02"/>
    <circle class="cls-3" cx="318.19" cy="194.48" r="1.02"/>
    <circle class="cls-3" cx="310.34" cy="187.94" r="1.02"/>
    <circle class="cls-3" cx="320.24" cy="186.22" r="1.02"/>
    <circle class="cls-3" cx="334.15" cy="184.72" r="1.02"/>
    <circle class="cls-3" cx="319.17" cy="178.05" r="1.02"/>
    <circle class="cls-3" cx="325.93" cy="177.53" r="1.02"/>
    <circle class="cls-3" cx="285.72" cy="182.04" r="1.02"/>
    <circle class="cls-3" cx="281.32" cy="175.25" r="1.02"/>
    <circle class="cls-3" cx="289.56" cy="175.37" r="1.02"/>
    <circle class="cls-3" cx="287.39" cy="161.99" r="1.02"/>
    <circle class="cls-3" cx="280.06" cy="165.63" r="1.02"/>
    <circle class="cls-3" cx="292.2" cy="152.39" r="1.02"/>
    <circle class="cls-3" cx="304.65" cy="179.93" r="1.02"/>
    <circle class="cls-3" cx="292.51" cy="186" r="1.02"/>
    <circle class="cls-3" cx="336.31" cy="200.95" r="1.02"/>
  </g>
  <g>
    <circle class="cls-3" cx="183.56" cy="182.78" r="1.02"/>
    <circle class="cls-3" cx="189.05" cy="174.47" r="1.02"/>
    <circle class="cls-3" cx="180.7" cy="175.15" r="1.02"/>
    <circle class="cls-3" cx="174.38" cy="174.8" r="1.02"/>
    <circle class="cls-3" cx="185.04" cy="167.02" r="1.02"/>
    <circle class="cls-3" cx="178.3" cy="167.77" r="1.02"/>
    <circle class="cls-3" cx="192.07" cy="166.94" r="1.02"/>
    <circle class="cls-3" cx="196.82" cy="160.3" r="1.02"/>
    <circle class="cls-3" cx="188.55" cy="157.04" r="1.02"/>
    <circle class="cls-3" cx="196.7" cy="174.88" r="1.02"/>
    <circle class="cls-3" cx="207.32" cy="167.05" r="1.02"/>
    <circle class="cls-3" cx="200.7" cy="167.3" r="1.02"/>
    <circle class="cls-3" cx="195.85" cy="192.87" r="1.02"/>
    <circle class="cls-3" cx="199.5" cy="180.13" r="1.02"/>
    <circle class="cls-3" cx="194.87" cy="186.01" r="1.02"/>
    <circle class="cls-3" cx="188.42" cy="198.29" r="1.02"/>
    <circle class="cls-3" cx="174.55" cy="207.45" r="1.02"/>
    <circle class="cls-3" cx="182.87" cy="206.47" r="1.02"/>
    <circle class="cls-3" cx="173.88" cy="199.92" r="1.02"/>
    <circle class="cls-3" cx="165.01" cy="198.48" r="1.02"/>
    <circle class="cls-3" cx="171.1" cy="190.68" r="1.02"/>
    <circle class="cls-3" cx="180.81" cy="197.93" r="1.02"/>
    <circle class="cls-3" cx="187.3" cy="190.03" r="1.02"/>
    <circle class="cls-3" cx="177.25" cy="190.2" r="1.02"/>
    <circle class="cls-3" cx="163.3" cy="191.33" r="1.02"/>
    <circle class="cls-3" cx="176.77" cy="181.98" r="1.02"/>
    <circle class="cls-3" cx="170.03" cy="182.73" r="1.02"/>
    <circle class="cls-3" cx="210.37" cy="179.62" r="1.02"/>
    <circle class="cls-3" cx="213.42" cy="172.14" r="1.02"/>
    <circle class="cls-3" cx="205.35" cy="173.8" r="1.02"/>
    <circle class="cls-3" cx="204.97" cy="160.24" r="1.02"/>
    <circle class="cls-3" cx="212.86" cy="162.45" r="1.02"/>
    <circle class="cls-3" cx="198.46" cy="151.71" r="1.02"/>
    <circle class="cls-3" cx="191.38" cy="181.1" r="1.02"/>
    <circle class="cls-3" cx="204.44" cy="184.79" r="1.02"/>
  </g>
  <path class="cls-3" d="M183.39,414.01s3.57-12.11,17.74-12.39l6.85-.5-2.16-8.89s.94-2.82,5.82-1.5c0,0,1.31.38,1.78,2.07l11.27.94-.94,20.28h-40.37Z"/>
  <polygon class="cls-3" points="206.15 393.56 210.05 392.61 211.37 401.13 207.99 401.13 206.15 393.56"/>
  <polygon class="cls-3" points="183.39 414.01 223.76 414.01 223.91 410.83 184.63 411.23 183.39 414.01"/>
  <polygon class="cls-3" points="204.42 404.72 215.31 409.32 216.9 407.44 206.15 402.75 204.42 404.72"/>
  <path class="cls-3" d="M314.19,414.01s-3.57-12.11-17.74-12.39l-6.85-.5,2.16-8.89s-.94-2.82-5.82-1.5c0,0-1.31.38-1.78,2.07l-11.27.94.94,20.28h40.37Z"/>
  <polygon class="cls-3" points="291.43 393.56 287.53 392.61 286.21 401.13 289.59 401.13 291.43 393.56"/>
  <polygon class="cls-3" points="314.19 414.01 273.82 414.01 273.67 410.83 312.95 411.23 314.19 414.01"/>
  <polygon class="cls-3" points="293.16 404.72 282.27 409.32 280.67 407.44 291.43 402.75 293.16 404.72"/>
  <path class="cls-3" d="M247.89,236.15c1.71-5.83,27.66-1.28,45.4-21.5.42-.48,1.12.02,1.06.75-.7,7.85-5.45,34.73-37.61,35.83-1.63.06-3.22-.85-4.25-2.39-2.2-3.31-5.62-9.21-4.6-12.69Z"/>
  <path class="cls-3" d="M210.33,111.56c-.3.17-.12.63.21.54,5.58-1.39,19.99-4.6,15.52.55-3.98,4.59-7.59,10.11-9.28,12.8-.18.29.18.6.44.38,4.89-4.22,20.85-17.45,27.67-16.31,8.11,1.35,22.67,11.15,26.38,11.49s-19.93-15.89-13.01-15.21,41.81,15.87,34.67,10.64c-4.29-3.14-15.74-8.78-18.6-10.93-.29-.22,0-.66.31-.49,5.24,2.77,21.19,9.54,16.25,5-6.67-6.14-44.58-18.48-80.57,1.54Z"/>
  <g>
    <circle class="cls-3" cx="309.58" cy="296.99" r="1.02"/>
    <circle class="cls-3" cx="317.99" cy="291.65" r="1.02"/>
    <circle class="cls-3" cx="317.16" cy="299.99" r="1.02"/>
    <circle class="cls-3" cx="317.39" cy="306.32" r="1.02"/>
    <circle class="cls-3" cx="325.37" cy="295.8" r="1.02"/>
    <circle class="cls-3" cx="324.49" cy="302.52" r="1.02"/>
    <circle class="cls-3" cx="325.58" cy="288.77" r="1.02"/>
    <circle class="cls-3" cx="332.31" cy="284.15" r="1.02"/>
    <circle class="cls-3" cx="335.41" cy="292.48" r="1.02"/>
    <circle class="cls-3" cx="317.72" cy="284" r="1.02"/>
    <circle class="cls-3" cx="325.75" cy="273.52" r="1.02"/>
    <circle class="cls-3" cx="325.38" cy="280.14" r="1.02"/>
    <circle class="cls-3" cx="299.72" cy="284.52" r="1.02"/>
    <circle class="cls-3" cx="312.52" cy="281.1" r="1.02"/>
    <circle class="cls-3" cx="306.57" cy="285.62" r="1.02"/>
    <circle class="cls-3" cx="286.38" cy="291.05" r="1.02"/>
    <circle class="cls-3" cx="291.92" cy="285.31" r="1.02"/>
    <circle class="cls-3" cx="294.16" cy="291.85" r="1.02"/>
    <circle class="cls-3" cx="284.75" cy="305.55" r="1.02"/>
    <circle class="cls-3" cx="285.89" cy="297.24" r="1.02"/>
    <circle class="cls-3" cx="292.26" cy="306.35" r="1.02"/>
    <circle class="cls-3" cx="293.54" cy="315.25" r="1.02"/>
    <circle class="cls-3" cx="301.46" cy="309.3" r="1.02"/>
    <circle class="cls-3" cx="290.52" cy="321.74" r="1.02"/>
    <circle class="cls-3" cx="294.38" cy="299.47" r="1.02"/>
    <circle class="cls-3" cx="302.4" cy="293.12" r="1.02"/>
    <circle class="cls-3" cx="302.04" cy="303.17" r="1.02"/>
    <circle class="cls-3" cx="300.66" cy="317.09" r="1.02"/>
    <circle class="cls-3" cx="310.26" cy="303.8" r="1.02"/>
    <circle class="cls-3" cx="309.38" cy="310.52" r="1.02"/>
    <circle class="cls-3" cx="313.23" cy="270.24" r="1.02"/>
    <circle class="cls-3" cx="320.78" cy="267.33" r="1.02"/>
    <circle class="cls-3" cx="318.97" cy="275.37" r="1.02"/>
    <circle class="cls-3" cx="332.51" cy="276" r="1.02"/>
    <circle class="cls-3" cx="330.46" cy="268.08" r="1.02"/>
    <circle class="cls-3" cx="340.92" cy="282.67" r="1.02"/>
    <circle class="cls-3" cx="311.4" cy="289.2" r="1.02"/>
    <circle class="cls-3" cx="307.96" cy="276.08" r="1.02"/>
    <circle class="cls-3" cx="284.33" cy="315.86" r="1.02"/>
  </g>
  <path class="cls-4" d="M143.97,286.04c2.15,1.29,5.11,2.59,9.04,3.9,9.11,3.03,23.41,6.08,44.81,8.99l26.09,2.97"/>
  <path class="cls-3" d="M236.8,184.93c0,9.66-6.24,21.98-13.94,21.98s-13.94-12.32-13.94-21.98,6.24-17.49,13.94-17.49,13.94,7.83,13.94,17.49Z"/>
  <circle class="cls-3" cx="224.55" cy="193.21" r="8.07"/>
  <circle class="cls-3" cx="227.41" cy="197.69" r="3.98"/>
  <path class="cls-3" d="M209.81,178.75s3.15-11.15,13.05-11.32c0,0,8.65-1.18,13.05,11.32"/>
  <path class="cls-3" d="M283.44,184.38c0,9.66-6.24,21.98-13.94,21.98s-13.94-12.32-13.94-21.98,6.24-17.49,13.94-17.49,13.94,7.83,13.94,17.49Z"/>
  <circle class="cls-3" cx="271.19" cy="193.21" r="8.07"/>
  <circle class="cls-3" cx="274.06" cy="197.69" r="3.98"/>
  <path class="cls-3" d="M256.45,178.21s3.15-11.15,13.05-11.32c0,0,8.65-1.18,13.05,11.32"/>
  <path class="cls-3" d="M307.44,117.78c-5.07-10.41-32.79-12.77-26.4-12.86s6.06-6.55,6.06-6.55c-1.93,7.61-19.88,2.22-19.88,2.22.51-4.12-7.1-4.75-7.1-4.75,0,0,5.58,3.04-5.11,3.04s5.11-8.62,5.11-8.62c-12.42-1.27-13.69,9.38-21.01,10.33-7.32.95,4.87-7.96,4.87-7.96-9.97-1.29-19.47,9.31-19.47,9.31-5.44-9.37-24.71-4.32-24.71-4.32,0,0,26.35-2.54,14.95,7.31s-31,2.07-31,2.07c19.77,15.97,42.4,3.13,42.4,3.13-5.59,10.99-26.36,14.1-26.36,14.1,16.48,4.31,39.31-15.72,39.31-15.72-2.76,7.86,12.92,9.38,12.92,9.38-6.06-7.35,11.05-8.11,11.05-8.11,15.13,6.85,0,12.38,0,12.38,10.57,3.76,18.98-8.38,18.98-8.38,1.02,8.85,17.95,12.12,17.95,12.12,0,0-12.54-9.08,9.15-4.31l-1.73-3.81Z"/>
  <path class="cls-3" d="M248.57,96.35s24.92-20.05,44.36,20.09c0,0,3.27-14.98-46.76-15.84l2.39-4.25Z"/>
  <path class="cls-3" d="M224.51,107.76s-34.58,17.12-39.86,21.98c0,0,20.09-21.15,37.3-26.63l2.56,4.65Z"/>
  <path class="cls-3" d="M198.05,159.36c-.27.19-.57-.2-.36-.48,1.97-2.71,6.08-7.66,9.7-7.66,4.98,0,21.34-4.31,22.9,0s-11.45,3.45-15.31,3.73c-3.26.24-11.43.66-16.92,4.41Z"/>
  <path class="cls-3" d="M288.24,157.39c.29.16.55-.25.32-.51-2.18-2.54-6.67-7.15-10.28-6.86-4.97.4-21.61-2.58-22.82,1.84-1.21,4.42,11.69,2.52,15.56,2.49,3.27-.02,11.45-.26,17.22,3.04Z"/>
  <path class="cls-3" d="M289.45,213.47s8.37,1.79,9.26,5.46"/>
  <path class="cls-3" d="M279.42,151s.5-1.91,2.85-1.69c2.71.26,3.29,2.28,2.78,4.32-.52,2.04-3.57,3.31-5.34,1.1,0,0,4,1.42,4.43-1.81.45-3.45-2.17-3.03-4.72-1.92Z"/>
  <path class="cls-3" d="M278.28,150.02s1.5-.27,3.23.79l-3.15,1.24-.08-2.03Z"/>
  <path class="cls-3" d="M212.41,202.74s7.54-9.01,23.51-2.81l-16.64,17.11-6.87-14.3Z"/>
  <path class="cls-3" d="M259.65,202.74s7.54-9.01,23.51-2.81l-16.64,17.11-6.87-14.3Z"/>
  <path class="cls-3" d="M256.99,241.36s21.83-3.74,27.96-12.72"/>
  <path class="cls-3" d="M279.68,251.18s-8.23,6.21-17.43,5.65"/>
  <path class="cls-3" d="M146.23,198.78s27.83-61.3,65.3-84.44c0,0-24.28,7.08-43.6,33.68,0,0-16.97,22.19-21.69,50.76Z"/>
  <path class="cls-3" d="M233.78,341.25s88.41-19.29,126.26-98.71c0,0-4.54,45.63-43.34,77.58,0,0-31.04,29.91-82.92,21.13Z"/>
  <rect class="cls-3" x="194.14" y="288.34" width="8.07" height="20.59" rx="2.11" ry="2.11" transform="translate(36.8 -21.39) rotate(6.81)"/>
  <g>
    <circle class="cls-3" cx="198.2" cy="298.7" r="7.73"/>
    <rect class="cls-3" x="189.91" y="295.43" width="1.12" height="2.44" rx=".42" ry=".42" transform="translate(80.23 -38.2) rotate(14.48)"/>
    <g>
      <circle class="cls-3" cx="198.17" cy="298.7" r="6.32"/>
      <polygon class="cls-3" points="197.88 298.61 198.58 293.32 198.44 298.7 197.88 298.61"/>
      <polygon class="cls-3" points="197.88 298.47 199.81 295.59 198.4 298.7 197.88 298.47"/>
    </g>
  </g>
  <g>
    <path class="cls-3" d="M216.25,400.52c-.78-.05-1.32-.68-1.26-1.48.05-.74.71-1.29,1.46-1.24.75.05,1.32.73,1.27,1.49-.06.75-.69,1.28-1.47,1.23Z"/>
    <path class="cls-3" d="M216.29,400.66c.77.03,1.36.67,1.33,1.44-.03.75-.65,1.32-1.42,1.29-.77-.03-1.34-.63-1.32-1.38.02-.79.63-1.37,1.41-1.34Z"/>
    <path class="cls-3" d="M216.4,397.67c-.77-.03-1.32-.63-1.29-1.4.03-.77.68-1.38,1.43-1.33.75.05,1.35.72,1.3,1.47-.04.75-.67,1.29-1.44,1.26Z"/>
    <path class="cls-3" d="M220.51,396.5c-.02.65-.57,1.17-1.23,1.17-.66,0-1.23-.63-1.19-1.31.03-.63.62-1.16,1.26-1.13.68.03,1.18.58,1.15,1.27Z"/>
    <path class="cls-3" d="M220.4,399.35c-.02.65-.58,1.18-1.23,1.16-.67-.02-1.23-.63-1.19-1.3.04-.63.62-1.15,1.27-1.13.68.03,1.18.57,1.15,1.27Z"/>
    <path class="cls-3" d="M222.2,395.88c.35.02.64.33.63.68,0,.37-.34.68-.7.65-.38-.02-.65-.34-.62-.72.02-.36.33-.63.69-.61Z"/>
    <path class="cls-3" d="M222.08,398.73c.35.01.65.32.64.66,0,.37-.33.68-.69.66-.39-.02-.65-.31-.63-.71.02-.36.32-.63.68-.62Z"/>
    <path class="cls-3" d="M219.75,402.16c-.01.36-.31.64-.66.64-.39,0-.67-.29-.65-.68.01-.39.31-.66.7-.64.36.02.63.32.62.68Z"/>
    <path class="cls-3" d="M221.96,401.59c.35.01.65.31.65.66,0,.37-.31.67-.69.66-.39-.02-.67-.32-.64-.7.02-.36.32-.63.68-.62Z"/>
  </g>
  <g>
    <path class="cls-3" d="M276.55,400.83c-.78.03-1.38-.53-1.41-1.33-.03-.74.56-1.36,1.32-1.39.75-.03,1.4.58,1.42,1.35.02.75-.55,1.34-1.33,1.38Z"/>
    <path class="cls-3" d="M276.6,400.95c.76-.06,1.43.52,1.48,1.28.05.75-.5,1.38-1.27,1.44-.76.06-1.4-.48-1.46-1.23-.07-.79.47-1.43,1.25-1.49Z"/>
    <path class="cls-3" d="M276.38,397.98c-.77.05-1.39-.49-1.44-1.25-.06-.77.53-1.45,1.28-1.48.75-.04,1.42.57,1.46,1.32.04.75-.52,1.36-1.29,1.41Z"/>
    <path class="cls-3" d="M280.35,396.36c.05.65-.44,1.23-1.09,1.29-.66.07-1.29-.49-1.33-1.17-.04-.63.49-1.22,1.13-1.26.68-.05,1.23.44,1.28,1.14Z"/>
    <path class="cls-3" d="M280.55,399.2c.05.65-.45,1.23-1.09,1.29-.67.06-1.29-.49-1.33-1.16-.03-.63.49-1.21,1.14-1.26.68-.05,1.23.44,1.28,1.14Z"/>
    <path class="cls-3" d="M281.95,395.56c.35-.02.67.26.7.61.03.37-.26.71-.62.73-.38.02-.68-.26-.69-.65-.01-.36.26-.66.62-.68Z"/>
    <path class="cls-3" d="M282.14,398.41c.35-.03.68.24.71.59.04.37-.25.71-.61.74-.39.03-.68-.24-.7-.64-.02-.36.25-.67.61-.69Z"/>
    <path class="cls-3" d="M280.21,402.07c.03.36-.24.67-.59.71-.39.04-.7-.22-.73-.61-.03-.39.24-.69.63-.71.36-.02.66.25.69.61Z"/>
    <path class="cls-3" d="M282.34,401.26c.35-.03.68.24.72.58.04.37-.24.71-.61.73-.39.03-.7-.24-.72-.63-.02-.36.25-.66.61-.69Z"/>
  </g>
</svg>