<?xml version="1.0" encoding="UTF-8"?>
<svg id="Layer_1" data-name="Layer 1" xmlns="http://www.w3.org/2000/svg" xmlns:xlink="http://www.w3.org/1999/xlink" viewBox="0 0 500 500">
  <defs>
    <style>
      .cls-1 {
        fill: #3e4de5;
      }

      .cls-1, .cls-2, .cls-3, .cls-4, .cls-5, .cls-6, .cls-7, .cls-8, .cls-9, .cls-10, .cls-11, .cls-12, .cls-13, .cls-14, .cls-15, .cls-16 {
        stroke-width: 0px;
      }

      .cls-1, .cls-11 {
        opacity: .3;
      }

      .cls-2 {
        fill: #b3b3b3;
      }

      .cls-3 {
        fill: #fec622;
      }

      .cls-4 {
        fill: #4d4d4d;
      }

      .cls-17 {
        stroke: #e6e6e6;
        stroke-miterlimit: 10;
        stroke-width: .31px;
      }

      .cls-17, .cls-18 {
        fill: none;
      }

      .cls-5 {
        fill: url(#linear-gradient);
      }

      .cls-6 {
        fill: #604416;
      }

      .cls-7 {
        fill: #3e510b;
      }

      .cls-8 {
        fill: #999;
      }

      .cls-9 {
        fill: #000;
      }

      .cls-10 {
        fill: #d88916;
      }

      .cls-11, .cls-14 {
        fill: #cc7d0a;
      }

      .cls-12 {
        fill: #3e4ee5;
      }

      .cls-18 {
        stroke: #cc7d0a;
        stroke-linecap: round;
        stroke-linejoin: round;
        stroke-width: 1.2px;
      }

      .cls-13 {
        fill: #f2f2f2;
      }

      .cls-15 {
        fill: #fff;
      }

      .cls-16 {
        fill: #e6e6e6;
      }
    </style>
    <linearGradient id="linear-gradient" x1="163.62" y1="320.26" x2="325.48" y2="158.4" gradientUnits="userSpaceOnUse">
      <stop offset="0" stop-color="#d88916"/>
      <stop offset="0" stop-color="#b08708"/>
      <stop offset="0" stop-color="#b08708"/>
      <stop offset=".05" stop-color="#c1870e"/>
      <stop offset=".11" stop-color="#cd8712"/>
      <stop offset=".2" stop-color="#d48715"/>
      <stop offset=".44" stop-color="#d68816"/>
      <stop offset=".82" stop-color="#d68816"/>
      <stop offset=".89" stop-color="#d68816"/>
      <stop offset=".92" stop-color="#d18714"/>
      <stop offset=".95" stop-color="#c5870f"/>
      <stop offset=".98" stop-color="#b08608"/>
      <stop offset="1" stop-color="#9a8600"/>
    </linearGradient>
  </defs>
  <ellipse class="cls-1" cx="240.56" cy="256.49" rx="163.86" ry="121.61" transform="translate(-111.08 255.81) rotate(-46.73)"/>
  <path class="cls-9" d="M342.31,234.61c-2.4,8.36-4.34,17.26-4.51,25.97-.08,4.18.13,9.95,3.97,12.6,4.73,3.26,10.72-.94,14.43-3.85,13.45-10.6,23.86-25.59,33.9-39.25,1.9-2.59-2.42-5.08-4.31-2.52-8.85,12.04-17.96,24.39-28.93,34.62-2.32,2.16-9.23,8.8-12.26,6.91-2.1-1.31-1.9-6.97-1.78-9.67.22-4.94,1.09-9.84,2.13-14.66.64-2.96,1.33-5.92,2.17-8.84.89-3.09-3.92-4.41-4.81-1.33h0Z"/>
  <path class="cls-9" d="M352.18,272.15c6.68-4.15,12.17-10.12,17.32-15.99,6.88-7.83,13.25-16.13,19.44-24.52,5.57-7.56,10.82-15.38,16.21-23.07,1.84-2.63-2.48-5.13-4.31-2.52-5.01,7.15-9.95,14.36-15.03,21.47-5.83,8.15-12.05,16.1-18.59,23.69-5.2,6.02-10.75,12.4-17.56,16.64-2.72,1.69-.22,6.01,2.52,4.31h0Z"/>
  <path class="cls-9" d="M162.7,277.76c-8.43,1.87-17.08,4.4-24.78,8.35-3.69,1.89-8.57,4.75-9.23,9.27-.83,5.69,5.49,9.04,9.82,10.94,15.63,6.85,33.76,8.85,50.49,11.16,3.14.43,4.5-4.37,1.33-4.81-14.83-2.04-30-4.16-44.28-8.82-3.15-1.03-12.52-3.87-12.46-7.63.04-2.35,5.23-5.03,7.67-6.22,4.48-2.19,9.28-3.76,14.06-5.16,2.88-.85,5.78-1.63,8.71-2.28,3.13-.69,1.81-5.5-1.33-4.81h0Z"/>
  <path class="cls-9" d="M208.89,330.63c.24,12.62.18,25.25-.07,37.86-.37,17.99.08,37.47-4.7,54.97-.92,3.35,4.28,4.78,5.19,1.43,4.81-17.6,4.48-37.15,4.87-55.25.28-13,.35-26.01.1-39.01-.07-3.46-5.45-3.47-5.39,0h0Z"/>
  <path class="cls-9" d="M271.47,330.63c-.25,13-.19,26.01.1,39.01.39,18.1.06,37.65,4.87,55.25.91,3.34,6.11,1.92,5.19-1.43-4.78-17.49-4.34-36.98-4.7-54.97-.26-12.62-.32-25.25-.07-37.86.07-3.47-5.32-3.47-5.39,0h0Z"/>
  <ellipse class="cls-5" cx="244.55" cy="239.33" rx="108.74" ry="119.89"/>
  <g>
    <circle class="cls-14" cx="178.57" cy="301.11" r="1.02"/>
    <circle class="cls-14" cx="183.66" cy="309.67" r="1.02"/>
    <circle class="cls-14" cx="175.35" cy="308.6" r="1.02"/>
    <circle class="cls-14" cx="169.01" cy="308.65" r="1.02"/>
    <circle class="cls-14" cx="179.3" cy="316.93" r="1.02"/>
    <circle class="cls-14" cx="172.61" cy="315.86" r="1.02"/>
    <circle class="cls-14" cx="186.32" cy="317.34" r="1.02"/>
    <circle class="cls-14" cx="190.75" cy="324.19" r="1.02"/>
    <circle class="cls-14" cx="182.33" cy="327.06" r="1.02"/>
    <circle class="cls-14" cx="191.32" cy="309.62" r="1.02"/>
    <circle class="cls-14" cx="201.56" cy="317.95" r="1.02"/>
    <circle class="cls-14" cx="194.95" cy="317.38" r="1.02"/>
    <circle class="cls-14" cx="191.32" cy="291.61" r="1.02"/>
    <circle class="cls-14" cx="194.36" cy="304.51" r="1.02"/>
    <circle class="cls-14" cx="190.02" cy="298.42" r="1.02"/>
    <circle class="cls-14" cx="185.17" cy="278.09" r="1.02"/>
    <circle class="cls-14" cx="190.75" cy="283.79" r="1.02"/>
    <circle class="cls-14" cx="184.15" cy="285.84" r="1.02"/>
    <circle class="cls-14" cx="170.72" cy="276.05" r="1.02"/>
    <circle class="cls-14" cx="178.99" cy="277.42" r="1.02"/>
    <circle class="cls-14" cx="169.7" cy="283.53" r="1.02"/>
    <circle class="cls-14" cx="160.77" cy="284.55" r="1.02"/>
    <circle class="cls-14" cx="166.49" cy="292.63" r="1.02"/>
    <circle class="cls-14" cx="154.37" cy="281.35" r="1.02"/>
    <circle class="cls-14" cx="176.53" cy="285.84" r="1.02"/>
    <circle class="cls-14" cx="182.64" cy="294.04" r="1.02"/>
    <circle class="cls-14" cx="172.61" cy="293.4" r="1.02"/>
    <circle class="cls-14" cx="158.73" cy="291.61" r="1.02"/>
    <circle class="cls-14" cx="171.74" cy="301.59" r="1.02"/>
    <circle class="cls-14" cx="165.05" cy="300.52" r="1.02"/>
    <circle class="cls-14" cx="205.19" cy="305.53" r="1.02"/>
    <circle class="cls-14" cx="207.89" cy="313.15" r="1.02"/>
    <circle class="cls-14" cx="199.91" cy="311.11" r="1.02"/>
    <circle class="cls-14" cx="198.89" cy="324.63" r="1.02"/>
    <circle class="cls-14" cx="206.87" cy="322.8" r="1.02"/>
    <circle class="cls-14" cx="191.98" cy="332.85" r="1.02"/>
    <circle class="cls-14" cx="186.3" cy="303.15" r="1.02"/>
    <circle class="cls-14" cx="199.52" cy="300.09" r="1.02"/>
    <circle class="cls-14" cx="160.42" cy="275.33" r="1.02"/>
  </g>
  <g>
    <circle class="cls-14" cx="304.48" cy="196.26" r="1.02"/>
    <circle class="cls-14" cx="297.53" cy="189.13" r="1.02"/>
    <circle class="cls-14" cx="305.86" cy="188.23" r="1.02"/>
    <circle class="cls-14" cx="312.01" cy="186.7" r="1.02"/>
    <circle class="cls-14" cx="300.07" cy="181.06" r="1.02"/>
    <circle class="cls-14" cx="306.83" cy="180.54" r="1.02"/>
    <circle class="cls-14" cx="293.15" cy="182.3" r="1.02"/>
    <circle class="cls-14" cx="287.24" cy="176.66" r="1.02"/>
    <circle class="cls-14" cx="294.76" cy="171.91" r="1.02"/>
    <circle class="cls-14" cx="290.09" cy="190.97" r="1.02"/>
    <circle class="cls-14" cx="278.19" cy="185.26" r="1.02"/>
    <circle class="cls-14" cx="284.75" cy="184.27" r="1.02"/>
    <circle class="cls-14" cx="294.3" cy="208.48" r="1.02"/>
    <circle class="cls-14" cx="288.33" cy="196.65" r="1.02"/>
    <circle class="cls-14" cx="293.97" cy="201.55" r="1.02"/>
    <circle class="cls-14" cx="303.44" cy="220.19" r="1.02"/>
    <circle class="cls-14" cx="296.68" cy="215.95" r="1.02"/>
    <circle class="cls-14" cx="302.62" cy="212.41" r="1.02"/>
    <circle class="cls-14" cx="317.96" cy="218.81" r="1.02"/>
    <circle class="cls-14" cx="309.6" cy="219.4" r="1.02"/>
    <circle class="cls-14" cx="317.2" cy="211.29" r="1.02"/>
    <circle class="cls-14" cx="325.65" cy="208.21" r="1.02"/>
    <circle class="cls-14" cx="318.2" cy="201.69" r="1.02"/>
    <circle class="cls-14" cx="332.62" cy="209.83" r="1.02"/>
    <circle class="cls-14" cx="310.03" cy="210.63" r="1.02"/>
    <circle class="cls-14" cx="302.17" cy="204.09" r="1.02"/>
    <circle class="cls-14" cx="312.08" cy="202.37" r="1.02"/>
    <circle class="cls-14" cx="325.98" cy="200.87" r="1.02"/>
    <circle class="cls-14" cx="311" cy="194.2" r="1.02"/>
    <circle class="cls-14" cx="317.76" cy="193.68" r="1.02"/>
    <circle class="cls-14" cx="277.56" cy="198.19" r="1.02"/>
    <circle class="cls-14" cx="273.16" cy="191.4" r="1.02"/>
    <circle class="cls-14" cx="281.39" cy="191.53" r="1.02"/>
    <circle class="cls-14" cx="279.23" cy="178.14" r="1.02"/>
    <circle class="cls-14" cx="271.9" cy="181.78" r="1.02"/>
    <circle class="cls-14" cx="284.03" cy="168.54" r="1.02"/>
    <circle class="cls-14" cx="296.49" cy="196.09" r="1.02"/>
    <circle class="cls-14" cx="284.35" cy="202.15" r="1.02"/>
    <circle class="cls-14" cx="328.14" cy="217.1" r="1.02"/>
  </g>
  <g>
    <circle class="cls-14" cx="175.4" cy="198.93" r="1.02"/>
    <circle class="cls-14" cx="180.88" cy="190.62" r="1.02"/>
    <circle class="cls-14" cx="172.54" cy="191.3" r="1.02"/>
    <circle class="cls-14" cx="166.21" cy="190.95" r="1.02"/>
    <circle class="cls-14" cx="176.87" cy="183.17" r="1.02"/>
    <circle class="cls-14" cx="170.14" cy="183.92" r="1.02"/>
    <circle class="cls-14" cx="183.91" cy="183.09" r="1.02"/>
    <circle class="cls-14" cx="188.65" cy="176.45" r="1.02"/>
    <circle class="cls-14" cx="180.38" cy="173.19" r="1.02"/>
    <circle class="cls-14" cx="188.53" cy="191.03" r="1.02"/>
    <circle class="cls-14" cx="199.16" cy="183.2" r="1.02"/>
    <circle class="cls-14" cx="192.53" cy="183.45" r="1.02"/>
    <circle class="cls-14" cx="187.68" cy="209.02" r="1.02"/>
    <circle class="cls-14" cx="191.33" cy="196.28" r="1.02"/>
    <circle class="cls-14" cx="186.71" cy="202.16" r="1.02"/>
    <circle class="cls-14" cx="180.25" cy="214.45" r="1.02"/>
    <circle class="cls-14" cx="166.38" cy="223.6" r="1.02"/>
    <circle class="cls-14" cx="174.7" cy="222.62" r="1.02"/>
    <circle class="cls-14" cx="165.71" cy="216.08" r="1.02"/>
    <circle class="cls-14" cx="156.84" cy="214.64" r="1.02"/>
    <circle class="cls-14" cx="162.94" cy="206.83" r="1.02"/>
    <circle class="cls-14" cx="172.64" cy="214.09" r="1.02"/>
    <circle class="cls-14" cx="179.13" cy="206.18" r="1.02"/>
    <circle class="cls-14" cx="169.08" cy="206.36" r="1.02"/>
    <circle class="cls-14" cx="155.14" cy="207.48" r="1.02"/>
    <circle class="cls-14" cx="168.6" cy="198.13" r="1.02"/>
    <circle class="cls-14" cx="161.87" cy="198.88" r="1.02"/>
    <circle class="cls-14" cx="202.2" cy="195.78" r="1.02"/>
    <circle class="cls-14" cx="205.25" cy="188.29" r="1.02"/>
    <circle class="cls-14" cx="197.19" cy="189.95" r="1.02"/>
    <circle class="cls-14" cx="196.8" cy="176.4" r="1.02"/>
    <circle class="cls-14" cx="204.69" cy="178.6" r="1.02"/>
    <circle class="cls-14" cx="190.29" cy="167.86" r="1.02"/>
    <circle class="cls-14" cx="183.21" cy="197.26" r="1.02"/>
    <circle class="cls-14" cx="196.28" cy="200.94" r="1.02"/>
  </g>
  <path class="cls-16" d="M175.22,430.17s3.57-12.11,17.74-12.39l6.85-.5-2.16-8.89s.94-2.82,5.82-1.5c0,0,1.31.38,1.78,2.07l11.27.94-.94,20.28h-40.37Z"/>
  <polygon class="cls-12" points="197.98 409.71 201.88 408.76 203.2 417.28 199.82 417.28 197.98 409.71"/>
  <polygon class="cls-12" points="175.22 430.17 215.59 430.17 215.74 426.98 176.46 427.38 175.22 430.17"/>
  <polygon class="cls-15" points="196.25 420.87 207.14 425.47 208.74 423.6 197.98 418.9 196.25 420.87"/>
  <path class="cls-16" d="M306.02,430.17s-3.57-12.11-17.74-12.39l-6.85-.5,2.16-8.89s-.94-2.82-5.82-1.5c0,0-1.31.38-1.78,2.07l-11.27.94.94,20.28h40.37Z"/>
  <polygon class="cls-12" points="283.26 409.71 279.36 408.76 278.04 417.28 281.42 417.28 283.26 409.71"/>
  <polygon class="cls-12" points="306.02 430.17 265.65 430.17 265.5 426.98 304.78 427.38 306.02 430.17"/>
  <polygon class="cls-15" points="284.99 420.87 274.1 425.47 272.5 423.6 283.26 418.9 284.99 420.87"/>
  <path class="cls-15" d="M239.72,252.3c1.71-5.83,27.66-1.28,45.4-21.5.42-.48,1.12.02,1.06.75-.7,7.85-5.45,34.73-37.61,35.83-1.63.06-3.22-.85-4.25-2.39-2.2-3.31-5.62-9.21-4.6-12.69Z"/>
  <path class="cls-7" d="M202.16,127.71c-.3.17-.12.63.21.54,5.58-1.39,19.99-4.6,15.52.55-3.98,4.59-7.59,10.11-9.28,12.8-.18.29.18.6.44.38,4.89-4.22,20.85-17.45,27.67-16.31,8.11,1.35,22.67,11.15,26.38,11.49s-19.93-15.89-13.01-15.21,41.81,15.87,34.67,10.64c-4.29-3.14-15.74-8.78-18.6-10.93-.29-.22,0-.66.31-.49,5.24,2.77,21.19,9.54,16.25,5-6.67-6.14-44.58-18.48-80.57,1.54Z"/>
  <g>
    <circle class="cls-14" cx="301.42" cy="313.14" r="1.02"/>
    <circle class="cls-14" cx="309.83" cy="307.81" r="1.02"/>
    <circle class="cls-14" cx="308.99" cy="316.14" r="1.02"/>
    <circle class="cls-14" cx="309.23" cy="322.47" r="1.02"/>
    <circle class="cls-14" cx="317.2" cy="311.95" r="1.02"/>
    <circle class="cls-14" cx="316.33" cy="318.68" r="1.02"/>
    <circle class="cls-14" cx="317.41" cy="304.92" r="1.02"/>
    <circle class="cls-14" cx="324.14" cy="300.3" r="1.02"/>
    <circle class="cls-14" cx="327.25" cy="308.63" r="1.02"/>
    <circle class="cls-14" cx="309.56" cy="300.15" r="1.02"/>
    <circle class="cls-14" cx="317.59" cy="289.68" r="1.02"/>
    <circle class="cls-14" cx="317.21" cy="296.29" r="1.02"/>
    <circle class="cls-14" cx="291.56" cy="300.67" r="1.02"/>
    <circle class="cls-14" cx="304.36" cy="297.26" r="1.02"/>
    <circle class="cls-14" cx="298.4" cy="301.77" r="1.02"/>
    <circle class="cls-14" cx="278.21" cy="307.2" r="1.02"/>
    <circle class="cls-14" cx="283.76" cy="301.46" r="1.02"/>
    <circle class="cls-14" cx="285.99" cy="308" r="1.02"/>
    <circle class="cls-14" cx="276.59" cy="321.7" r="1.02"/>
    <circle class="cls-14" cx="277.72" cy="313.4" r="1.02"/>
    <circle class="cls-14" cx="284.1" cy="322.51" r="1.02"/>
    <circle class="cls-14" cx="285.37" cy="331.4" r="1.02"/>
    <circle class="cls-14" cx="293.29" cy="325.45" r="1.02"/>
    <circle class="cls-14" cx="282.36" cy="337.9" r="1.02"/>
    <circle class="cls-14" cx="286.21" cy="315.62" r="1.02"/>
    <circle class="cls-14" cx="294.23" cy="309.27" r="1.02"/>
    <circle class="cls-14" cx="293.88" cy="319.32" r="1.02"/>
    <circle class="cls-14" cx="292.49" cy="333.24" r="1.02"/>
    <circle class="cls-14" cx="302.09" cy="319.95" r="1.02"/>
    <circle class="cls-14" cx="301.22" cy="326.67" r="1.02"/>
    <circle class="cls-14" cx="305.07" cy="286.4" r="1.02"/>
    <circle class="cls-14" cx="312.61" cy="283.49" r="1.02"/>
    <circle class="cls-14" cx="310.8" cy="291.52" r="1.02"/>
    <circle class="cls-14" cx="324.34" cy="292.15" r="1.02"/>
    <circle class="cls-14" cx="322.29" cy="284.23" r="1.02"/>
    <circle class="cls-14" cx="332.75" cy="298.82" r="1.02"/>
    <circle class="cls-14" cx="303.24" cy="305.35" r="1.02"/>
    <circle class="cls-14" cx="299.8" cy="292.23" r="1.02"/>
    <circle class="cls-14" cx="276.16" cy="332.02" r="1.02"/>
  </g>
  <path class="cls-9" d="M134.55,304.34c6.83,3.88,14.72,5.86,22.33,7.59,10.58,2.4,21.36,4.17,32.12,5.55,8.9,1.14,17.83,2.05,26.75,3.06,3.18.36,3.16-4.63,0-4.99-8.68-.99-17.37-1.87-26.04-2.97-9.93-1.26-19.87-2.92-29.65-5.05-7.77-1.7-16.02-3.54-22.99-7.5-2.79-1.59-5.31,2.72-2.52,4.31h0Z"/>
  <path class="cls-15" d="M228.63,201.08c0,9.66-6.24,21.98-13.94,21.98s-13.94-12.32-13.94-21.98,6.24-17.49,13.94-17.49,13.94,7.83,13.94,17.49Z"/>
  <circle class="cls-6" cx="216.38" cy="209.36" r="8.07"/>
  <circle class="cls-15" cx="219.25" cy="213.85" r="3.98"/>
  <path class="cls-6" d="M201.64,194.91c.41-4.91,3.31-9.78,7.9-11.93,4.87-2.29,10.77-1.34,14.47,3.02,1.69,1.91,2.67,4.18,3.33,6.55.53,2.66.58,2.76-.91.41-2.6-3.75-6.31-7.56-11.15-7.61-.43,0-1.13.09-1.55.11-5.48.45-9.34,4.99-12.09,9.45h0Z"/>
  <path class="cls-15" d="M275.28,200.54c0,9.66-6.24,21.98-13.94,21.98s-13.94-12.32-13.94-21.98,6.24-17.49,13.94-17.49,13.94,7.83,13.94,17.49Z"/>
  <circle class="cls-6" cx="263.02" cy="209.36" r="8.07"/>
  <circle class="cls-15" cx="265.89" cy="213.85" r="3.98"/>
  <path class="cls-6" d="M248.28,194.37c.41-4.91,3.31-9.78,7.9-11.93,4.87-2.29,10.77-1.34,14.47,3.02,1.69,1.91,2.67,4.18,3.33,6.55.53,2.66.58,2.76-.91.41-2.6-3.75-6.31-7.57-11.15-7.61-.43,0-1.13.09-1.54.11-5.48.45-9.34,4.99-12.09,9.45h0Z"/>
  <path class="cls-7" d="M299.27,133.93c-5.07-10.41-32.79-12.77-26.4-12.86s6.06-6.55,6.06-6.55c-1.93,7.61-19.88,2.22-19.88,2.22.51-4.12-7.1-4.75-7.1-4.75,0,0,5.58,3.04-5.11,3.04s5.11-8.62,5.11-8.62c-12.42-1.27-13.69,9.38-21.01,10.33-7.32.95,4.87-7.96,4.87-7.96-9.97-1.29-19.47,9.31-19.47,9.31-5.44-9.37-24.71-4.32-24.71-4.32,0,0,26.35-2.54,14.95,7.31s-31,2.07-31,2.07c19.77,15.97,42.4,3.13,42.4,3.13-5.59,10.99-26.36,14.1-26.36,14.1,16.48,4.31,39.31-15.72,39.31-15.72-2.76,7.86,12.92,9.38,12.92,9.38-6.06-7.35,11.05-8.11,11.05-8.11,15.13,6.85,0,12.38,0,12.38,10.57,3.76,18.98-8.38,18.98-8.38,1.02,8.85,17.95,12.12,17.95,12.12,0,0-12.54-9.08,9.15-4.31l-1.73-3.81Z"/>
  <path class="cls-7" d="M240.4,112.5s24.92-20.05,44.36,20.09c0,0,3.27-14.98-46.76-15.84l2.39-4.25Z"/>
  <path class="cls-7" d="M216.34,123.91s-34.58,17.12-39.86,21.98c0,0,20.09-21.15,37.3-26.63l2.56,4.65Z"/>
  <path class="cls-6" d="M189.88,175.51c-.27.19-.57-.2-.36-.48,1.97-2.71,6.08-7.66,9.7-7.66,4.98,0,21.34-4.31,22.9,0s-11.45,3.45-15.31,3.73c-3.26.24-11.43.66-16.92,4.41Z"/>
  <path class="cls-6" d="M280.07,173.54c.29.16.55-.25.32-.51-2.18-2.54-6.67-7.15-10.28-6.86-4.97.4-21.61-2.58-22.82,1.84-1.21,4.42,11.69,2.52,15.56,2.49,3.27-.02,11.45-.26,17.22,3.04Z"/>
  <path class="cls-18" d="M281.28,229.62s8.37,1.79,9.26,5.46"/>
  <path class="cls-3" d="M271.25,167.15s.5-1.91,2.85-1.69c2.71.26,3.29,2.28,2.78,4.32-.52,2.04-3.57,3.31-5.34,1.1,0,0,4,1.42,4.43-1.81.45-3.45-2.17-3.03-4.72-1.92Z"/>
  <path class="cls-6" d="M270.11,166.18s1.5-.27,3.23.79l-3.15,1.24-.08-2.03Z"/>
  <path class="cls-10" d="M204.24,218.89s7.54-9.01,23.51-2.81l-16.64,17.11-6.87-14.3Z"/>
  <path class="cls-10" d="M251.49,218.89s7.54-9.01,23.51-2.81l-16.64,17.11-6.87-14.3Z"/>
  <path class="cls-17" d="M248.82,257.52s21.83-3.74,27.96-12.72"/>
  <path class="cls-18" d="M271.52,267.33s-8.23,6.21-17.43,5.65"/>
  <path class="cls-11" d="M138.06,214.93s27.83-61.3,65.3-84.44c0,0-24.28,7.08-43.6,33.68,0,0-16.97,22.19-21.69,50.76Z"/>
  <path class="cls-11" d="M225.61,357.41s88.41-19.29,126.26-98.71c0,0-4.54,45.63-43.34,77.58,0,0-31.04,29.91-82.92,21.13Z"/>
  <rect class="cls-2" x="185.97" y="304.5" width="8.07" height="20.59" rx="2.11" ry="2.11" transform="translate(38.66 -20.3) rotate(6.81)"/>
  <g>
    <circle class="cls-8" cx="190.04" cy="314.85" r="7.73"/>
    <rect class="cls-8" x="181.74" y="311.58" width="1.12" height="2.44" rx=".42" ry=".42" transform="translate(84.01 -35.65) rotate(14.48)"/>
    <g>
      <circle class="cls-13" cx="190.01" cy="314.85" r="6.32"/>
      <polygon class="cls-4" points="189.71 314.76 190.41 309.47 190.27 314.85 189.71 314.76"/>
      <polygon class="cls-4" points="189.71 314.62 191.64 311.74 190.23 314.85 189.71 314.62"/>
    </g>
  </g>
  <g>
    <path class="cls-12" d="M208.08,416.68c-.78-.05-1.32-.68-1.26-1.48.05-.74.71-1.29,1.46-1.24.75.05,1.32.73,1.27,1.49-.06.75-.69,1.28-1.47,1.23Z"/>
    <path class="cls-12" d="M208.12,416.81c.77.03,1.36.67,1.33,1.44-.03.75-.65,1.32-1.42,1.29-.77-.03-1.34-.63-1.32-1.38.02-.79.63-1.37,1.41-1.34Z"/>
    <path class="cls-12" d="M208.23,413.82c-.77-.03-1.32-.63-1.29-1.4.03-.77.68-1.38,1.43-1.33.75.05,1.35.72,1.3,1.47-.04.75-.67,1.29-1.44,1.26Z"/>
    <path class="cls-12" d="M212.35,412.65c-.02.65-.57,1.17-1.23,1.17-.66,0-1.23-.63-1.19-1.31.03-.63.62-1.16,1.26-1.13.68.03,1.18.58,1.15,1.27Z"/>
    <path class="cls-12" d="M212.23,415.5c-.02.65-.58,1.18-1.23,1.16-.67-.02-1.23-.63-1.19-1.3.04-.63.62-1.15,1.27-1.13.68.03,1.18.57,1.15,1.27Z"/>
    <path class="cls-12" d="M214.03,412.04c.35.02.64.33.63.68,0,.37-.34.68-.7.65-.38-.02-.65-.34-.62-.72.02-.36.33-.63.69-.61Z"/>
    <path class="cls-12" d="M213.91,414.89c.35.01.65.32.64.66,0,.37-.33.68-.69.66-.39-.02-.65-.31-.63-.71.02-.36.32-.63.68-.62Z"/>
    <path class="cls-12" d="M211.58,418.31c-.01.36-.31.64-.66.64-.39,0-.67-.29-.65-.68.01-.39.31-.66.7-.64.36.02.63.32.62.68Z"/>
    <path class="cls-12" d="M213.79,417.74c.35.01.65.31.65.66,0,.37-.31.67-.69.66-.39-.02-.67-.32-.64-.7.02-.36.32-.63.68-.62Z"/>
  </g>
  <g>
    <path class="cls-12" d="M268.38,416.98c-.78.03-1.38-.53-1.41-1.33-.03-.74.56-1.36,1.32-1.39.75-.03,1.4.58,1.42,1.35.02.75-.55,1.34-1.33,1.38Z"/>
    <path class="cls-12" d="M268.43,417.11c.76-.06,1.43.52,1.48,1.28.05.75-.5,1.38-1.27,1.44-.76.06-1.4-.48-1.46-1.23-.07-.79.47-1.43,1.25-1.49Z"/>
    <path class="cls-12" d="M268.22,414.13c-.77.05-1.39-.49-1.44-1.25-.06-.77.53-1.45,1.28-1.48.75-.04,1.42.57,1.46,1.32.04.75-.52,1.36-1.29,1.41Z"/>
    <path class="cls-12" d="M272.18,412.51c.05.65-.44,1.23-1.09,1.29-.66.07-1.29-.49-1.33-1.17-.04-.63.49-1.22,1.13-1.26.68-.05,1.23.44,1.28,1.14Z"/>
    <path class="cls-12" d="M272.38,415.35c.05.65-.45,1.23-1.09,1.29-.67.06-1.29-.49-1.33-1.16-.03-.63.49-1.21,1.14-1.26.68-.05,1.23.44,1.28,1.14Z"/>
    <path class="cls-12" d="M273.79,411.71c.35-.02.67.26.7.61.03.37-.26.71-.62.73-.38.02-.68-.26-.69-.65-.01-.36.26-.66.62-.68Z"/>
    <path class="cls-12" d="M273.98,414.56c.35-.03.68.24.71.59.04.37-.25.71-.61.74-.39.03-.68-.24-.7-.64-.02-.36.25-.67.61-.69Z"/>
    <path class="cls-12" d="M272.04,418.22c.03.36-.24.67-.59.71-.39.04-.7-.22-.73-.61-.03-.39.24-.69.63-.71.36-.02.66.25.69.61Z"/>
    <path class="cls-12" d="M274.17,417.41c.35-.03.68.24.72.58.04.37-.24.71-.61.73-.39.03-.7-.24-.72-.63-.02-.36.25-.66.61-.69Z"/>
  </g>
</svg>