<svg width="428" height="124" viewBox="0 0 428 124" fill="none" xmlns="http://www.w3.org/2000/svg">
<path d="M51.4142 80.5858C50.1543 81.8457 51.0466 84 52.8284 84H62V70L51.4142 80.5858Z" fill="#3E4FE5"/>
<path d="M62 8C62 3.58172 65.5817 0 70 0H420C424.418 0 428 3.58172 428 8V76C428 80.4183 424.418 84 420 84H62V8Z" fill="#3E4FE5"/>
<path d="M62 8C62 3.58172 65.5817 0 70 0H420C424.418 0 428 3.58172 428 8V76C428 80.4183 424.418 84 420 84H62V8Z" fill="url(#paint0_linear_52_72355)" fill-opacity="0.2"/>
<path d="M79.25 27.168C78.3353 27.168 77.5327 26.958 76.842 26.538C76.1513 26.1087 75.6147 25.516 75.232 24.76C74.8493 23.9947 74.658 23.1127 74.658 22.114C74.658 21.1153 74.8493 20.2333 75.232 19.468C75.624 18.7027 76.1747 18.1053 76.884 17.676C77.6027 17.2467 78.4473 17.032 79.418 17.032C80.5193 17.032 81.434 17.298 82.162 17.83C82.8993 18.362 83.3753 19.0947 83.59 20.028H82.232C82.1013 19.44 81.7887 18.9733 81.294 18.628C80.8087 18.2827 80.1833 18.11 79.418 18.11C78.6993 18.11 78.074 18.2733 77.542 18.6C77.01 18.9173 76.5947 19.3747 76.296 19.972C76.0067 20.5693 75.862 21.2833 75.862 22.114C75.862 22.9447 76.0067 23.6587 76.296 24.256C76.5853 24.8533 76.9867 25.3153 77.5 25.642C78.0133 25.9593 78.6107 26.118 79.292 26.118C80.3373 26.118 81.126 25.8147 81.658 25.208C82.19 24.592 82.4933 23.752 82.568 22.688H79.74V21.764H83.772V27H82.694L82.596 25.39C82.2413 25.9593 81.8073 26.398 81.294 26.706C80.7807 27.014 80.0993 27.168 79.25 27.168ZM85.5617 27V20.056H86.6257L86.7237 21.386C86.9384 20.9287 87.265 20.5647 87.7037 20.294C88.1424 20.0233 88.6837 19.888 89.3277 19.888V21.12H89.0057C88.595 21.12 88.217 21.1947 87.8717 21.344C87.5264 21.484 87.251 21.7267 87.0457 22.072C86.8404 22.4173 86.7377 22.8933 86.7377 23.5V27H85.5617ZM93.5099 27.168C92.8472 27.168 92.2592 27.0187 91.7459 26.72C91.2325 26.412 90.8265 25.9873 90.5279 25.446C90.2385 24.9047 90.0939 24.2653 90.0939 23.528C90.0939 22.8 90.2385 22.1653 90.5279 21.624C90.8172 21.0733 91.2185 20.6487 91.7319 20.35C92.2545 20.042 92.8565 19.888 93.5379 19.888C94.2099 19.888 94.7885 20.042 95.2739 20.35C95.7685 20.6487 96.1465 21.0453 96.4079 21.54C96.6692 22.0347 96.7999 22.5667 96.7999 23.136C96.7999 23.2387 96.7952 23.3413 96.7859 23.444C96.7859 23.5467 96.7859 23.6633 96.7859 23.794H91.2559C91.2839 24.326 91.4052 24.7693 91.6199 25.124C91.8439 25.4693 92.1192 25.7307 92.4459 25.908C92.7819 26.0853 93.1365 26.174 93.5099 26.174C93.9952 26.174 94.4012 26.062 94.7279 25.838C95.0545 25.614 95.2925 25.3107 95.4419 24.928H96.6039C96.4172 25.572 96.0579 26.1087 95.5259 26.538C95.0032 26.958 94.3312 27.168 93.5099 27.168ZM93.5099 20.882C92.9499 20.882 92.4505 21.0547 92.0119 21.4C91.5825 21.736 91.3352 22.2307 91.2699 22.884H95.6379C95.6099 22.2587 95.3952 21.7687 94.9939 21.414C94.5925 21.0593 94.0979 20.882 93.5099 20.882ZM100.669 27.168C100.09 27.168 99.6092 27.07 99.2266 26.874C98.8439 26.678 98.5592 26.4167 98.3726 26.09C98.1859 25.7633 98.0926 25.4087 98.0926 25.026C98.0926 24.3167 98.3632 23.7707 98.9046 23.388C99.4459 23.0053 100.183 22.814 101.117 22.814H102.993V22.73C102.993 22.1233 102.834 21.666 102.517 21.358C102.199 21.0407 101.775 20.882 101.243 20.882C100.785 20.882 100.389 20.9987 100.053 21.232C99.7259 21.456 99.5206 21.7873 99.4366 22.226H98.2326C98.2792 21.722 98.4472 21.2973 98.7366 20.952C99.0352 20.6067 99.4039 20.3453 99.8426 20.168C100.281 19.9813 100.748 19.888 101.243 19.888C102.213 19.888 102.941 20.1493 103.427 20.672C103.921 21.1853 104.169 21.8713 104.169 22.73V27H103.119L103.049 25.754C102.853 26.146 102.563 26.482 102.181 26.762C101.807 27.0327 101.303 27.168 100.669 27.168ZM100.851 26.174C101.299 26.174 101.681 26.0573 101.999 25.824C102.325 25.5907 102.573 25.2873 102.741 24.914C102.909 24.5407 102.993 24.1487 102.993 23.738V23.724H101.215C100.524 23.724 100.034 23.8453 99.7446 24.088C99.4646 24.3213 99.3246 24.6153 99.3246 24.97C99.3246 25.334 99.4552 25.628 99.7166 25.852C99.9872 26.0667 100.365 26.174 100.851 26.174ZM108.485 27C107.851 27 107.351 26.846 106.987 26.538C106.623 26.23 106.441 25.6747 106.441 24.872V21.05H105.237V20.056H106.441L106.595 18.39H107.617V20.056H109.661V21.05H107.617V24.872C107.617 25.3107 107.706 25.6093 107.883 25.768C108.061 25.9173 108.373 25.992 108.821 25.992H109.549V27H108.485ZM116.261 27L114.231 20.056H115.407L116.877 25.502L118.501 20.056H119.831L121.469 25.502L122.925 20.056H124.115L122.085 27H120.881L119.173 21.274L117.465 27H116.261ZM128.319 27.168C127.666 27.168 127.078 27.0187 126.555 26.72C126.033 26.4213 125.617 26.0013 125.309 25.46C125.011 24.9093 124.861 24.2653 124.861 23.528C124.861 22.7907 125.015 22.1513 125.323 21.61C125.631 21.0593 126.047 20.6347 126.569 20.336C127.101 20.0373 127.694 19.888 128.347 19.888C129.001 19.888 129.589 20.0373 130.111 20.336C130.634 20.6347 131.045 21.0593 131.343 21.61C131.651 22.1513 131.805 22.7907 131.805 23.528C131.805 24.2653 131.651 24.9093 131.343 25.46C131.035 26.0013 130.615 26.4213 130.083 26.72C129.561 27.0187 128.973 27.168 128.319 27.168ZM128.319 26.16C128.721 26.16 129.094 26.062 129.439 25.866C129.785 25.67 130.065 25.376 130.279 24.984C130.494 24.592 130.601 24.1067 130.601 23.528C130.601 22.9493 130.494 22.464 130.279 22.072C130.074 21.68 129.799 21.386 129.453 21.19C129.108 20.994 128.739 20.896 128.347 20.896C127.946 20.896 127.573 20.994 127.227 21.19C126.882 21.386 126.602 21.68 126.387 22.072C126.173 22.464 126.065 22.9493 126.065 23.528C126.065 24.1067 126.173 24.592 126.387 24.984C126.602 25.376 126.877 25.67 127.213 25.866C127.559 26.062 127.927 26.16 128.319 26.16ZM133.441 27V20.056H134.505L134.603 21.386C134.817 20.9287 135.144 20.5647 135.583 20.294C136.021 20.0233 136.563 19.888 137.207 19.888V21.12H136.885C136.474 21.12 136.096 21.1947 135.751 21.344C135.405 21.484 135.13 21.7267 134.925 22.072C134.719 22.4173 134.617 22.8933 134.617 23.5V27H133.441ZM138.527 27V16.92H139.703V22.982L142.545 20.056H143.987L140.907 23.192L144.379 27H142.881L139.703 23.402V27H138.527ZM145.833 24.284L145.693 17.2H146.967L146.827 24.284H145.833ZM146.365 27.07C146.132 27.07 145.936 26.9953 145.777 26.846C145.628 26.6873 145.553 26.496 145.553 26.272C145.553 26.048 145.628 25.8613 145.777 25.712C145.936 25.5533 146.132 25.474 146.365 25.474C146.589 25.474 146.776 25.5533 146.925 25.712C147.084 25.8613 147.163 26.048 147.163 26.272C147.163 26.496 147.084 26.6873 146.925 26.846C146.776 26.9953 146.589 27.07 146.365 27.07ZM152.829 27V17.2H154.005V27H152.829ZM159.718 27V16.92H160.894V22.982L163.736 20.056H165.178L162.098 23.192L165.57 27H164.072L160.894 23.402V27H159.718ZM166.773 27V20.056H167.837L167.907 21.302C168.131 20.8633 168.453 20.518 168.873 20.266C169.293 20.014 169.769 19.888 170.301 19.888C171.122 19.888 171.775 20.14 172.261 20.644C172.755 21.1387 173.003 21.904 173.003 22.94V27H171.827V23.066C171.827 21.6193 171.229 20.896 170.035 20.896C169.437 20.896 168.938 21.1153 168.537 21.554C168.145 21.9833 167.949 22.5993 167.949 23.402V27H166.773ZM177.906 27.168C177.244 27.168 176.656 27.0187 176.142 26.72C175.629 26.412 175.223 25.9873 174.924 25.446C174.635 24.9047 174.49 24.2653 174.49 23.528C174.49 22.8 174.635 22.1653 174.924 21.624C175.214 21.0733 175.615 20.6487 176.128 20.35C176.651 20.042 177.253 19.888 177.934 19.888C178.606 19.888 179.185 20.042 179.67 20.35C180.165 20.6487 180.543 21.0453 180.804 21.54C181.066 22.0347 181.196 22.5667 181.196 23.136C181.196 23.2387 181.192 23.3413 181.182 23.444C181.182 23.5467 181.182 23.6633 181.182 23.794H175.652C175.68 24.326 175.802 24.7693 176.016 25.124C176.24 25.4693 176.516 25.7307 176.842 25.908C177.178 26.0853 177.533 26.174 177.906 26.174C178.392 26.174 178.798 26.062 179.124 25.838C179.451 25.614 179.689 25.3107 179.838 24.928H181C180.814 25.572 180.454 26.1087 179.922 26.538C179.4 26.958 178.728 27.168 177.906 27.168ZM177.906 20.882C177.346 20.882 176.847 21.0547 176.408 21.4C175.979 21.736 175.732 22.2307 175.666 22.884H180.034C180.006 22.2587 179.792 21.7687 179.39 21.414C178.989 21.0593 178.494 20.882 177.906 20.882ZM183.882 27L181.852 20.056H183.028L184.498 25.502L186.122 20.056H187.452L189.09 25.502L190.546 20.056H191.736L189.706 27H188.502L186.794 21.274L185.086 27H183.882ZM197.497 30.08L199.219 26.328H198.813L196.055 20.056H197.329L199.625 25.46L202.061 20.056H203.279L198.729 30.08H197.497ZM207.028 27.168C206.375 27.168 205.787 27.0187 205.264 26.72C204.742 26.4213 204.326 26.0013 204.018 25.46C203.72 24.9093 203.57 24.2653 203.57 23.528C203.57 22.7907 203.724 22.1513 204.032 21.61C204.34 21.0593 204.756 20.6347 205.278 20.336C205.81 20.0373 206.403 19.888 207.056 19.888C207.71 19.888 208.298 20.0373 208.82 20.336C209.343 20.6347 209.754 21.0593 210.052 21.61C210.36 22.1513 210.514 22.7907 210.514 23.528C210.514 24.2653 210.36 24.9093 210.052 25.46C209.744 26.0013 209.324 26.4213 208.792 26.72C208.27 27.0187 207.682 27.168 207.028 27.168ZM207.028 26.16C207.43 26.16 207.803 26.062 208.148 25.866C208.494 25.67 208.774 25.376 208.988 24.984C209.203 24.592 209.31 24.1067 209.31 23.528C209.31 22.9493 209.203 22.464 208.988 22.072C208.783 21.68 208.508 21.386 208.162 21.19C207.817 20.994 207.448 20.896 207.056 20.896C206.655 20.896 206.282 20.994 205.936 21.19C205.591 21.386 205.311 21.68 205.096 22.072C204.882 22.464 204.774 22.9493 204.774 23.528C204.774 24.1067 204.882 24.592 205.096 24.984C205.311 25.376 205.586 25.67 205.922 25.866C206.268 26.062 206.636 26.16 207.028 26.16ZM214.684 27.168C213.862 27.168 213.209 26.9207 212.724 26.426C212.238 25.922 211.996 25.152 211.996 24.116V20.056H213.172V23.99C213.172 25.4367 213.764 26.16 214.95 26.16C215.556 26.16 216.056 25.9453 216.448 25.516C216.849 25.0773 217.05 24.4567 217.05 23.654V20.056H218.226V27H217.162L217.078 25.754C216.863 26.1927 216.541 26.538 216.112 26.79C215.692 27.042 215.216 27.168 214.684 27.168ZM219.895 19.188L219.713 16.43H220.875L220.707 19.188H219.895ZM224.911 27.168C224.22 27.168 223.614 27.0093 223.091 26.692C222.578 26.3747 222.176 25.9407 221.887 25.39C221.607 24.8393 221.467 24.214 221.467 23.514C221.467 22.814 221.612 22.1933 221.901 21.652C222.19 21.1013 222.592 20.672 223.105 20.364C223.618 20.0467 224.225 19.888 224.925 19.888C225.494 19.888 225.998 20.0047 226.437 20.238C226.876 20.4713 227.216 20.798 227.459 21.218V16.92H228.635V27H227.571L227.459 25.852C227.235 26.188 226.913 26.4913 226.493 26.762C226.073 27.0327 225.546 27.168 224.911 27.168ZM225.037 26.146C225.504 26.146 225.914 26.0387 226.269 25.824C226.633 25.6 226.913 25.292 227.109 24.9C227.314 24.508 227.417 24.0507 227.417 23.528C227.417 23.0053 227.314 22.548 227.109 22.156C226.913 21.764 226.633 21.4607 226.269 21.246C225.914 21.022 225.504 20.91 225.037 20.91C224.58 20.91 224.169 21.022 223.805 21.246C223.45 21.4607 223.17 21.764 222.965 22.156C222.769 22.548 222.671 23.0053 222.671 23.528C222.671 24.0507 222.769 24.508 222.965 24.9C223.17 25.292 223.45 25.6 223.805 25.824C224.169 26.0387 224.58 26.146 225.037 26.146ZM237.967 27.168C237.398 27.168 236.889 27.0513 236.441 26.818C236.002 26.5847 235.666 26.258 235.433 25.838L235.321 27H234.257V16.92H235.433V21.204C235.657 20.868 235.974 20.5647 236.385 20.294C236.805 20.0233 237.337 19.888 237.981 19.888C238.672 19.888 239.274 20.0467 239.787 20.364C240.3 20.6813 240.697 21.1153 240.977 21.666C241.266 22.2167 241.411 22.842 241.411 23.542C241.411 24.242 241.266 24.8673 240.977 25.418C240.697 25.9593 240.296 26.3887 239.773 26.706C239.26 27.014 238.658 27.168 237.967 27.168ZM237.841 26.146C238.308 26.146 238.718 26.0387 239.073 25.824C239.428 25.6 239.708 25.292 239.913 24.9C240.118 24.508 240.221 24.0507 240.221 23.528C240.221 23.0053 240.118 22.548 239.913 22.156C239.708 21.764 239.428 21.4607 239.073 21.246C238.718 21.022 238.308 20.91 237.841 20.91C237.374 20.91 236.964 21.022 236.609 21.246C236.254 21.4607 235.974 21.764 235.769 22.156C235.564 22.548 235.461 23.0053 235.461 23.528C235.461 24.0507 235.564 24.508 235.769 24.9C235.974 25.292 236.254 25.6 236.609 25.824C236.964 26.0387 237.374 26.146 237.841 26.146ZM246.17 27.168C245.507 27.168 244.919 27.0187 244.406 26.72C243.893 26.412 243.487 25.9873 243.188 25.446C242.899 24.9047 242.754 24.2653 242.754 23.528C242.754 22.8 242.899 22.1653 243.188 21.624C243.477 21.0733 243.879 20.6487 244.392 20.35C244.915 20.042 245.517 19.888 246.198 19.888C246.87 19.888 247.449 20.042 247.934 20.35C248.429 20.6487 248.807 21.0453 249.068 21.54C249.329 22.0347 249.46 22.5667 249.46 23.136C249.46 23.2387 249.455 23.3413 249.446 23.444C249.446 23.5467 249.446 23.6633 249.446 23.794H243.916C243.944 24.326 244.065 24.7693 244.28 25.124C244.504 25.4693 244.779 25.7307 245.106 25.908C245.442 26.0853 245.797 26.174 246.17 26.174C246.655 26.174 247.061 26.062 247.388 25.838C247.715 25.614 247.953 25.3107 248.102 24.928H249.264C249.077 25.572 248.718 26.1087 248.186 26.538C247.663 26.958 246.991 27.168 246.17 27.168ZM246.17 20.882C245.61 20.882 245.111 21.0547 244.672 21.4C244.243 21.736 243.995 22.2307 243.93 22.884H248.298C248.27 22.2587 248.055 21.7687 247.654 21.414C247.253 21.0593 246.758 20.882 246.17 20.882ZM257.468 27C256.833 27 256.334 26.846 255.97 26.538C255.606 26.23 255.424 25.6747 255.424 24.872V21.05H254.22V20.056H255.424L255.578 18.39H256.6V20.056H258.644V21.05H256.6V24.872C256.6 25.3107 256.688 25.6093 256.866 25.768C257.043 25.9173 257.356 25.992 257.804 25.992H258.532V27H257.468ZM260.138 27V16.92H261.314V21.246C261.547 20.8167 261.879 20.4853 262.308 20.252C262.737 20.0093 263.204 19.888 263.708 19.888C264.511 19.888 265.155 20.14 265.64 20.644C266.125 21.1387 266.368 21.904 266.368 22.94V27H265.206V23.066C265.206 21.6193 264.623 20.896 263.456 20.896C262.849 20.896 262.341 21.1153 261.93 21.554C261.519 21.9833 261.314 22.5993 261.314 23.402V27H260.138ZM271.272 27.168C270.609 27.168 270.021 27.0187 269.508 26.72C268.994 26.412 268.588 25.9873 268.29 25.446C268 24.9047 267.856 24.2653 267.856 23.528C267.856 22.8 268 22.1653 268.29 21.624C268.579 21.0733 268.98 20.6487 269.494 20.35C270.016 20.042 270.618 19.888 271.3 19.888C271.972 19.888 272.55 20.042 273.036 20.35C273.53 20.6487 273.908 21.0453 274.17 21.54C274.431 22.0347 274.562 22.5667 274.562 23.136C274.562 23.2387 274.557 23.3413 274.548 23.444C274.548 23.5467 274.548 23.6633 274.548 23.794H269.018C269.046 24.326 269.167 24.7693 269.382 25.124C269.606 25.4693 269.881 25.7307 270.208 25.908C270.544 26.0853 270.898 26.174 271.272 26.174C271.757 26.174 272.163 26.062 272.49 25.838C272.816 25.614 273.054 25.3107 273.204 24.928H274.366C274.179 25.572 273.82 26.1087 273.288 26.538C272.765 26.958 272.093 27.168 271.272 27.168ZM271.272 20.882C270.712 20.882 270.212 21.0547 269.774 21.4C269.344 21.736 269.097 22.2307 269.032 22.884H273.4C273.372 22.2587 273.157 21.7687 272.756 21.414C272.354 21.0593 271.86 20.882 271.272 20.882ZM279.825 27V20.056H280.889L280.987 21.386C281.202 20.9287 281.529 20.5647 281.967 20.294C282.406 20.0233 282.947 19.888 283.591 19.888V21.12H283.269C282.859 21.12 282.481 21.1947 282.135 21.344C281.79 21.484 281.515 21.7267 281.309 22.072C281.104 22.4173 281.001 22.8933 281.001 23.5V27H279.825ZM285.625 18.516C285.392 18.516 285.196 18.4413 285.037 18.292C284.888 18.1333 284.813 17.9373 284.813 17.704C284.813 17.48 284.888 17.2933 285.037 17.144C285.196 16.9947 285.392 16.92 285.625 16.92C285.849 16.92 286.041 16.9947 286.199 17.144C286.358 17.2933 286.437 17.48 286.437 17.704C286.437 17.9373 286.358 18.1333 286.199 18.292C286.041 18.4413 285.849 18.516 285.625 18.516ZM285.037 27V20.056H286.213V27H285.037ZM291.761 30.248C291.154 30.248 290.599 30.1407 290.095 29.926C289.591 29.7207 289.171 29.422 288.835 29.03C288.508 28.638 288.294 28.162 288.191 27.602H289.353C289.502 28.0873 289.787 28.4793 290.207 28.778C290.636 29.0767 291.15 29.226 291.747 29.226C292.428 29.226 293.002 29.0067 293.469 28.568C293.936 28.1293 294.169 27.476 294.169 26.608V25.6C293.945 25.992 293.609 26.3467 293.161 26.664C292.713 26.9813 292.148 27.14 291.467 27.14C290.814 27.14 290.221 26.9813 289.689 26.664C289.166 26.3467 288.746 25.9127 288.429 25.362C288.121 24.8113 287.967 24.1907 287.967 23.5C287.967 22.8093 288.121 22.1933 288.429 21.652C288.746 21.1013 289.171 20.672 289.703 20.364C290.235 20.0467 290.828 19.888 291.481 19.888C292.097 19.888 292.638 20.028 293.105 20.308C293.572 20.5787 293.926 20.91 294.169 21.302L294.281 20.056H295.345V26.594C295.345 27.35 295.191 27.9987 294.883 28.54C294.575 29.0907 294.15 29.5107 293.609 29.8C293.068 30.0987 292.452 30.248 291.761 30.248ZM291.649 26.118C292.125 26.118 292.545 26.006 292.909 25.782C293.282 25.558 293.576 25.25 293.791 24.858C294.015 24.466 294.127 24.0133 294.127 23.5C294.127 22.9867 294.015 22.534 293.791 22.142C293.576 21.75 293.282 21.4467 292.909 21.232C292.545 21.0173 292.125 20.91 291.649 20.91C291.182 20.91 290.762 21.0173 290.389 21.232C290.016 21.4467 289.717 21.75 289.493 22.142C289.278 22.534 289.171 22.9867 289.171 23.5C289.171 24.0133 289.278 24.466 289.493 24.858C289.717 25.25 290.016 25.558 290.389 25.782C290.762 26.006 291.182 26.118 291.649 26.118ZM297.271 27V16.92H298.447V21.246C298.68 20.8167 299.011 20.4853 299.441 20.252C299.87 20.0093 300.337 19.888 300.841 19.888C301.643 19.888 302.287 20.14 302.773 20.644C303.258 21.1387 303.501 21.904 303.501 22.94V27H302.339V23.066C302.339 21.6193 301.755 20.896 300.589 20.896C299.982 20.896 299.473 21.1153 299.063 21.554C298.652 21.9833 298.447 22.5993 298.447 23.402V27H297.271ZM308.026 27C307.392 27 306.892 26.846 306.528 26.538C306.164 26.23 305.982 25.6747 305.982 24.872V21.05H304.778V20.056H305.982L306.136 18.39H307.158V20.056H309.202V21.05H307.158V24.872C307.158 25.3107 307.247 25.6093 307.424 25.768C307.602 25.9173 307.914 25.992 308.362 25.992H309.09V27H308.026ZM314.402 30.08V20.056H315.466L315.578 21.204C315.802 20.868 316.119 20.5647 316.53 20.294C316.95 20.0233 317.482 19.888 318.126 19.888C318.816 19.888 319.418 20.0467 319.932 20.364C320.445 20.6813 320.842 21.1153 321.122 21.666C321.411 22.2167 321.556 22.842 321.556 23.542C321.556 24.242 321.411 24.8673 321.122 25.418C320.842 25.9593 320.44 26.3887 319.918 26.706C319.404 27.014 318.802 27.168 318.112 27.168C317.542 27.168 317.034 27.0513 316.586 26.818C316.147 26.5847 315.811 26.258 315.578 25.838V30.08H314.402ZM317.986 26.146C318.452 26.146 318.863 26.0387 319.218 25.824C319.572 25.6 319.852 25.292 320.058 24.9C320.263 24.508 320.366 24.0507 320.366 23.528C320.366 23.0053 320.263 22.548 320.058 22.156C319.852 21.764 319.572 21.4607 319.218 21.246C318.863 21.022 318.452 20.91 317.986 20.91C317.519 20.91 317.108 21.022 316.754 21.246C316.399 21.4607 316.119 21.764 315.914 22.156C315.708 22.548 315.606 23.0053 315.606 23.528C315.606 24.0507 315.708 24.508 315.914 24.9C316.119 25.292 316.399 25.6 316.754 25.824C317.108 26.0387 317.519 26.146 317.986 26.146ZM326.315 27.168C325.652 27.168 325.064 27.0187 324.551 26.72C324.037 26.412 323.631 25.9873 323.333 25.446C323.043 24.9047 322.899 24.2653 322.899 23.528C322.899 22.8 323.043 22.1653 323.333 21.624C323.622 21.0733 324.023 20.6487 324.537 20.35C325.059 20.042 325.661 19.888 326.343 19.888C327.015 19.888 327.593 20.042 328.079 20.35C328.573 20.6487 328.951 21.0453 329.213 21.54C329.474 22.0347 329.605 22.5667 329.605 23.136C329.605 23.2387 329.6 23.3413 329.591 23.444C329.591 23.5467 329.591 23.6633 329.591 23.794H324.061C324.089 24.326 324.21 24.7693 324.425 25.124C324.649 25.4693 324.924 25.7307 325.251 25.908C325.587 26.0853 325.941 26.174 326.315 26.174C326.8 26.174 327.206 26.062 327.533 25.838C327.859 25.614 328.097 25.3107 328.247 24.928H329.409C329.222 25.572 328.863 26.1087 328.331 26.538C327.808 26.958 327.136 27.168 326.315 27.168ZM326.315 20.882C325.755 20.882 325.255 21.0547 324.817 21.4C324.387 21.736 324.14 22.2307 324.075 22.884H328.443C328.415 22.2587 328.2 21.7687 327.799 21.414C327.397 21.0593 326.903 20.882 326.315 20.882ZM331.163 27V20.056H332.227L332.325 21.386C332.54 20.9287 332.867 20.5647 333.305 20.294C333.744 20.0233 334.285 19.888 334.929 19.888V21.12H334.607C334.197 21.12 333.819 21.1947 333.473 21.344C333.128 21.484 332.853 21.7267 332.647 22.072C332.442 22.4173 332.339 22.8933 332.339 23.5V27H331.163ZM338.909 27.168C338.079 27.168 337.388 26.958 336.837 26.538C336.287 26.118 335.965 25.5487 335.871 24.83H337.075C337.15 25.194 337.341 25.5113 337.649 25.782C337.967 26.0433 338.391 26.174 338.923 26.174C339.418 26.174 339.782 26.0713 340.015 25.866C340.249 25.6513 340.365 25.3993 340.365 25.11C340.365 24.69 340.211 24.41 339.903 24.27C339.605 24.13 339.18 24.004 338.629 23.892C338.256 23.8173 337.883 23.71 337.509 23.57C337.136 23.43 336.823 23.234 336.571 22.982C336.319 22.7207 336.193 22.38 336.193 21.96C336.193 21.3533 336.417 20.8587 336.865 20.476C337.323 20.084 337.939 19.888 338.713 19.888C339.451 19.888 340.053 20.0747 340.519 20.448C340.995 20.812 341.271 21.3347 341.345 22.016H340.183C340.137 21.6613 339.983 21.386 339.721 21.19C339.469 20.9847 339.129 20.882 338.699 20.882C338.279 20.882 337.953 20.9707 337.719 21.148C337.495 21.3253 337.383 21.5587 337.383 21.848C337.383 22.128 337.528 22.3473 337.817 22.506C338.116 22.6647 338.517 22.8 339.021 22.912C339.451 23.0053 339.857 23.122 340.239 23.262C340.631 23.3927 340.949 23.5933 341.191 23.864C341.443 24.1253 341.569 24.508 341.569 25.012C341.579 25.6373 341.341 26.1553 340.855 26.566C340.379 26.9673 339.731 27.168 338.909 27.168ZM346.413 27.168C345.76 27.168 345.172 27.0187 344.649 26.72C344.127 26.4213 343.711 26.0013 343.403 25.46C343.105 24.9093 342.955 24.2653 342.955 23.528C342.955 22.7907 343.109 22.1513 343.417 21.61C343.725 21.0593 344.141 20.6347 344.663 20.336C345.195 20.0373 345.788 19.888 346.441 19.888C347.095 19.888 347.683 20.0373 348.205 20.336C348.728 20.6347 349.139 21.0593 349.437 21.61C349.745 22.1513 349.899 22.7907 349.899 23.528C349.899 24.2653 349.745 24.9093 349.437 25.46C349.129 26.0013 348.709 26.4213 348.177 26.72C347.655 27.0187 347.067 27.168 346.413 27.168ZM346.413 26.16C346.815 26.16 347.188 26.062 347.533 25.866C347.879 25.67 348.159 25.376 348.373 24.984C348.588 24.592 348.695 24.1067 348.695 23.528C348.695 22.9493 348.588 22.464 348.373 22.072C348.168 21.68 347.893 21.386 347.547 21.19C347.202 20.994 346.833 20.896 346.441 20.896C346.04 20.896 345.667 20.994 345.321 21.19C344.976 21.386 344.696 21.68 344.481 22.072C344.267 22.464 344.159 22.9493 344.159 23.528C344.159 24.1067 344.267 24.592 344.481 24.984C344.696 25.376 344.971 25.67 345.307 25.866C345.653 26.062 346.021 26.16 346.413 26.16ZM351.534 27V20.056H352.598L352.668 21.302C352.892 20.8633 353.214 20.518 353.634 20.266C354.054 20.014 354.53 19.888 355.062 19.888C355.884 19.888 356.537 20.14 357.022 20.644C357.517 21.1387 357.764 21.904 357.764 22.94V27H356.588V23.066C356.588 21.6193 355.991 20.896 354.796 20.896C354.199 20.896 353.7 21.1153 353.298 21.554C352.906 21.9833 352.71 22.5993 352.71 23.402V27H351.534ZM365.995 27C365.36 27 364.861 26.846 364.497 26.538C364.133 26.23 363.951 25.6747 363.951 24.872V21.05H362.747V20.056H363.951L364.105 18.39H365.127V20.056H367.171V21.05H365.127V24.872C365.127 25.3107 365.216 25.6093 365.393 25.768C365.57 25.9173 365.883 25.992 366.331 25.992H367.059V27H365.995ZM371.638 27.168C370.984 27.168 370.396 27.0187 369.874 26.72C369.351 26.4213 368.936 26.0013 368.628 25.46C368.329 24.9093 368.18 24.2653 368.18 23.528C368.18 22.7907 368.334 22.1513 368.642 21.61C368.95 21.0593 369.365 20.6347 369.888 20.336C370.42 20.0373 371.012 19.888 371.666 19.888C372.319 19.888 372.907 20.0373 373.43 20.336C373.952 20.6347 374.363 21.0593 374.662 21.61C374.97 22.1513 375.124 22.7907 375.124 23.528C375.124 24.2653 374.97 24.9093 374.662 25.46C374.354 26.0013 373.934 26.4213 373.402 26.72C372.879 27.0187 372.291 27.168 371.638 27.168ZM371.638 26.16C372.039 26.16 372.412 26.062 372.758 25.866C373.103 25.67 373.383 25.376 373.598 24.984C373.812 24.592 373.92 24.1067 373.92 23.528C373.92 22.9493 373.812 22.464 373.598 22.072C373.392 21.68 373.117 21.386 372.772 21.19C372.426 20.994 372.058 20.896 371.666 20.896C371.264 20.896 370.891 20.994 370.546 21.19C370.2 21.386 369.92 21.68 369.706 22.072C369.491 22.464 369.384 22.9493 369.384 23.528C369.384 24.1067 369.491 24.592 369.706 24.984C369.92 25.376 370.196 25.67 370.532 25.866C370.877 26.062 371.246 26.16 371.638 26.16ZM382.774 27.168C382.195 27.168 381.715 27.07 381.332 26.874C380.949 26.678 380.665 26.4167 380.478 26.09C380.291 25.7633 380.198 25.4087 380.198 25.026C380.198 24.3167 380.469 23.7707 381.01 23.388C381.551 23.0053 382.289 22.814 383.222 22.814H385.098V22.73C385.098 22.1233 384.939 21.666 384.622 21.358C384.305 21.0407 383.88 20.882 383.348 20.882C382.891 20.882 382.494 20.9987 382.158 21.232C381.831 21.456 381.626 21.7873 381.542 22.226H380.338C380.385 21.722 380.553 21.2973 380.842 20.952C381.141 20.6067 381.509 20.3453 381.948 20.168C382.387 19.9813 382.853 19.888 383.348 19.888C384.319 19.888 385.047 20.1493 385.532 20.672C386.027 21.1853 386.274 21.8713 386.274 22.73V27H385.224L385.154 25.754C384.958 26.146 384.669 26.482 384.286 26.762C383.913 27.0327 383.409 27.168 382.774 27.168ZM382.956 26.174C383.404 26.174 383.787 26.0573 384.104 25.824C384.431 25.5907 384.678 25.2873 384.846 24.914C385.014 24.5407 385.098 24.1487 385.098 23.738V23.724H383.32C382.629 23.724 382.139 23.8453 381.85 24.088C381.57 24.3213 381.43 24.6153 381.43 24.97C381.43 25.334 381.561 25.628 381.822 25.852C382.093 26.0667 382.471 26.174 382.956 26.174ZM390.698 27.168C389.868 27.168 389.177 26.958 388.626 26.538C388.076 26.118 387.754 25.5487 387.66 24.83H388.864C388.939 25.194 389.13 25.5113 389.438 25.782C389.756 26.0433 390.18 26.174 390.712 26.174C391.207 26.174 391.571 26.0713 391.804 25.866C392.038 25.6513 392.154 25.3993 392.154 25.11C392.154 24.69 392 24.41 391.692 24.27C391.394 24.13 390.969 24.004 390.418 23.892C390.045 23.8173 389.672 23.71 389.298 23.57C388.925 23.43 388.612 23.234 388.36 22.982C388.108 22.7207 387.982 22.38 387.982 21.96C387.982 21.3533 388.206 20.8587 388.654 20.476C389.112 20.084 389.728 19.888 390.502 19.888C391.24 19.888 391.842 20.0747 392.308 20.448C392.784 20.812 393.06 21.3347 393.134 22.016H391.972C391.926 21.6613 391.772 21.386 391.51 21.19C391.258 20.9847 390.918 20.882 390.488 20.882C390.068 20.882 389.742 20.9707 389.508 21.148C389.284 21.3253 389.172 21.5587 389.172 21.848C389.172 22.128 389.317 22.3473 389.606 22.506C389.905 22.6647 390.306 22.8 390.81 22.912C391.24 23.0053 391.646 23.122 392.028 23.262C392.42 23.3927 392.738 23.5933 392.98 23.864C393.232 24.1253 393.358 24.508 393.358 25.012C393.368 25.6373 393.13 26.1553 392.644 26.566C392.168 26.9673 391.52 27.168 390.698 27.168ZM395.038 27V16.92H396.214V22.982L399.056 20.056H400.498L397.418 23.192L400.89 27H399.392L396.214 23.402V27H395.038ZM402.499 27.07C402.266 27.07 402.07 26.9953 401.911 26.846C401.762 26.6873 401.687 26.496 401.687 26.272C401.687 26.048 401.762 25.8613 401.911 25.712C402.07 25.5533 402.266 25.474 402.499 25.474C402.723 25.474 402.91 25.5533 403.059 25.712C403.218 25.8613 403.297 26.048 403.297 26.272C403.297 26.496 403.218 26.6873 403.059 26.846C402.91 26.9953 402.723 27.07 402.499 27.07ZM408.602 27V17.2H409.778V27H408.602ZM76.366 47L74.336 40.056H75.512L76.982 45.502L78.606 40.056H79.936L81.574 45.502L83.03 40.056H84.22L82.19 47H80.986L79.278 41.274L77.57 47H76.366ZM87.5846 47.168C87.0059 47.168 86.5253 47.07 86.1426 46.874C85.7599 46.678 85.4753 46.4167 85.2886 46.09C85.1019 45.7633 85.0086 45.4087 85.0086 45.026C85.0086 44.3167 85.2793 43.7707 85.8206 43.388C86.3619 43.0053 87.0993 42.814 88.0326 42.814H89.9086V42.73C89.9086 42.1233 89.7499 41.666 89.4326 41.358C89.1153 41.0407 88.6906 40.882 88.1586 40.882C87.7013 40.882 87.3046 40.9987 86.9686 41.232C86.6419 41.456 86.4366 41.7873 86.3526 42.226H85.1486C85.1953 41.722 85.3633 41.2973 85.6526 40.952C85.9513 40.6067 86.3199 40.3453 86.7586 40.168C87.1973 39.9813 87.6639 39.888 88.1586 39.888C89.1293 39.888 89.8573 40.1493 90.3426 40.672C90.8373 41.1853 91.0846 41.8713 91.0846 42.73V47H90.0346L89.9646 45.754C89.7686 46.146 89.4793 46.482 89.0966 46.762C88.7233 47.0327 88.2193 47.168 87.5846 47.168ZM87.7666 46.174C88.2146 46.174 88.5973 46.0573 88.9146 45.824C89.2413 45.5907 89.4886 45.2873 89.6566 44.914C89.8246 44.5407 89.9086 44.1487 89.9086 43.738V43.724H88.1306C87.4399 43.724 86.9499 43.8453 86.6606 44.088C86.3806 44.3213 86.2406 44.6153 86.2406 44.97C86.2406 45.334 86.3713 45.628 86.6326 45.852C86.9033 46.0667 87.2813 46.174 87.7666 46.174ZM92.8488 47V40.056H93.9128L93.9828 41.302C94.2068 40.8633 94.5288 40.518 94.9488 40.266C95.3688 40.014 95.8448 39.888 96.3768 39.888C97.1981 39.888 97.8515 40.14 98.3368 40.644C98.8315 41.1387 99.0788 41.904 99.0788 42.94V47H97.9028V43.066C97.9028 41.6193 97.3055 40.896 96.1108 40.896C95.5135 40.896 95.0141 41.1153 94.6128 41.554C94.2208 41.9833 94.0248 42.5993 94.0248 43.402V47H92.8488ZM103.605 47C102.97 47 102.471 46.846 102.107 46.538C101.743 46.23 101.561 45.6747 101.561 44.872V41.05H100.357V40.056H101.561L101.715 38.39H102.737V40.056H104.781V41.05H102.737V44.872C102.737 45.3107 102.825 45.6093 103.003 45.768C103.18 45.9173 103.493 45.992 103.941 45.992H104.669V47H103.605ZM112.29 47.168C111.711 47.168 111.23 47.07 110.848 46.874C110.465 46.678 110.18 46.4167 109.994 46.09C109.807 45.7633 109.714 45.4087 109.714 45.026C109.714 44.3167 109.984 43.7707 110.526 43.388C111.067 43.0053 111.804 42.814 112.738 42.814H114.614V42.73C114.614 42.1233 114.455 41.666 114.138 41.358C113.82 41.0407 113.396 40.882 112.864 40.882C112.406 40.882 112.01 40.9987 111.674 41.232C111.347 41.456 111.142 41.7873 111.058 42.226H109.854C109.9 41.722 110.068 41.2973 110.358 40.952C110.656 40.6067 111.025 40.3453 111.464 40.168C111.902 39.9813 112.369 39.888 112.864 39.888C113.834 39.888 114.562 40.1493 115.048 40.672C115.542 41.1853 115.79 41.8713 115.79 42.73V47H114.74L114.67 45.754C114.474 46.146 114.184 46.482 113.802 46.762C113.428 47.0327 112.924 47.168 112.29 47.168ZM112.472 46.174C112.92 46.174 113.302 46.0573 113.62 45.824C113.946 45.5907 114.194 45.2873 114.362 44.914C114.53 44.5407 114.614 44.1487 114.614 43.738V43.724H112.836C112.145 43.724 111.655 43.8453 111.366 44.088C111.086 44.3213 110.946 44.6153 110.946 44.97C110.946 45.334 111.076 45.628 111.338 45.852C111.608 46.0667 111.986 46.174 112.472 46.174ZM117.554 47V40.056H118.618L118.688 41.302C118.912 40.8633 119.234 40.518 119.654 40.266C120.074 40.014 120.55 39.888 121.082 39.888C121.903 39.888 122.557 40.14 123.042 40.644C123.537 41.1387 123.784 41.904 123.784 42.94V47H122.608V43.066C122.608 41.6193 122.011 40.896 120.816 40.896C120.219 40.896 119.719 41.1153 119.318 41.554C118.926 41.9833 118.73 42.5993 118.73 43.402V47H117.554ZM128.716 47.168C128.025 47.168 127.418 47.0093 126.896 46.692C126.382 46.3747 125.981 45.9407 125.692 45.39C125.412 44.8393 125.272 44.214 125.272 43.514C125.272 42.814 125.416 42.1933 125.706 41.652C125.995 41.1013 126.396 40.672 126.91 40.364C127.423 40.0467 128.03 39.888 128.73 39.888C129.299 39.888 129.803 40.0047 130.242 40.238C130.68 40.4713 131.021 40.798 131.264 41.218V36.92H132.44V47H131.376L131.264 45.852C131.04 46.188 130.718 46.4913 130.298 46.762C129.878 47.0327 129.35 47.168 128.716 47.168ZM128.842 46.146C129.308 46.146 129.719 46.0387 130.074 45.824C130.438 45.6 130.718 45.292 130.914 44.9C131.119 44.508 131.222 44.0507 131.222 43.528C131.222 43.0053 131.119 42.548 130.914 42.156C130.718 41.764 130.438 41.4607 130.074 41.246C129.719 41.022 129.308 40.91 128.842 40.91C128.384 40.91 127.974 41.022 127.61 41.246C127.255 41.4607 126.975 41.764 126.77 42.156C126.574 42.548 126.476 43.0053 126.476 43.528C126.476 44.0507 126.574 44.508 126.77 44.9C126.975 45.292 127.255 45.6 127.61 45.824C127.974 46.0387 128.384 46.146 128.842 46.146ZM138.062 47V40.056H139.126L139.196 41.302C139.42 40.8633 139.742 40.518 140.162 40.266C140.582 40.014 141.058 39.888 141.59 39.888C142.411 39.888 143.064 40.14 143.55 40.644C144.044 41.1387 144.292 41.904 144.292 42.94V47H143.116V43.066C143.116 41.6193 142.518 40.896 141.324 40.896C140.726 40.896 140.227 41.1153 139.826 41.554C139.434 41.9833 139.238 42.5993 139.238 43.402V47H138.062ZM149.195 47.168C148.533 47.168 147.945 47.0187 147.431 46.72C146.918 46.412 146.512 45.9873 146.213 45.446C145.924 44.9047 145.779 44.2653 145.779 43.528C145.779 42.8 145.924 42.1653 146.213 41.624C146.503 41.0733 146.904 40.6487 147.417 40.35C147.94 40.042 148.542 39.888 149.223 39.888C149.895 39.888 150.474 40.042 150.959 40.35C151.454 40.6487 151.832 41.0453 152.093 41.54C152.355 42.0347 152.485 42.5667 152.485 43.136C152.485 43.2387 152.481 43.3413 152.471 43.444C152.471 43.5467 152.471 43.6633 152.471 43.794H146.941C146.969 44.326 147.091 44.7693 147.305 45.124C147.529 45.4693 147.805 45.7307 148.131 45.908C148.467 46.0853 148.822 46.174 149.195 46.174C149.681 46.174 150.087 46.062 150.413 45.838C150.74 45.614 150.978 45.3107 151.127 44.928H152.289C152.103 45.572 151.743 46.1087 151.211 46.538C150.689 46.958 150.017 47.168 149.195 47.168ZM149.195 40.882C148.635 40.882 148.136 41.0547 147.697 41.4C147.268 41.736 147.021 42.2307 146.955 42.884H151.323C151.295 42.2587 151.081 41.7687 150.679 41.414C150.278 41.0593 149.783 40.882 149.195 40.882ZM157.166 47.168C156.503 47.168 155.915 47.0187 155.402 46.72C154.889 46.412 154.483 45.9873 154.184 45.446C153.895 44.9047 153.75 44.2653 153.75 43.528C153.75 42.8 153.895 42.1653 154.184 41.624C154.473 41.0733 154.875 40.6487 155.388 40.35C155.911 40.042 156.513 39.888 157.194 39.888C157.866 39.888 158.445 40.042 158.93 40.35C159.425 40.6487 159.803 41.0453 160.064 41.54C160.325 42.0347 160.456 42.5667 160.456 43.136C160.456 43.2387 160.451 43.3413 160.442 43.444C160.442 43.5467 160.442 43.6633 160.442 43.794H154.912C154.94 44.326 155.061 44.7693 155.276 45.124C155.5 45.4693 155.775 45.7307 156.102 45.908C156.438 46.0853 156.793 46.174 157.166 46.174C157.651 46.174 158.057 46.062 158.384 45.838C158.711 45.614 158.949 45.3107 159.098 44.928H160.26C160.073 45.572 159.714 46.1087 159.182 46.538C158.659 46.958 157.987 47.168 157.166 47.168ZM157.166 40.882C156.606 40.882 156.107 41.0547 155.668 41.4C155.239 41.736 154.991 42.2307 154.926 42.884H159.294C159.266 42.2587 159.051 41.7687 158.65 41.414C158.249 41.0593 157.754 40.882 157.166 40.882ZM165.165 47.168C164.474 47.168 163.867 47.0093 163.345 46.692C162.831 46.3747 162.43 45.9407 162.141 45.39C161.861 44.8393 161.721 44.214 161.721 43.514C161.721 42.814 161.865 42.1933 162.155 41.652C162.444 41.1013 162.845 40.672 163.359 40.364C163.872 40.0467 164.479 39.888 165.179 39.888C165.748 39.888 166.252 40.0047 166.691 40.238C167.129 40.4713 167.47 40.798 167.713 41.218V36.92H168.889V47H167.825L167.713 45.852C167.489 46.188 167.167 46.4913 166.747 46.762C166.327 47.0327 165.799 47.168 165.165 47.168ZM165.291 46.146C165.757 46.146 166.168 46.0387 166.523 45.824C166.887 45.6 167.167 45.292 167.363 44.9C167.568 44.508 167.671 44.0507 167.671 43.528C167.671 43.0053 167.568 42.548 167.363 42.156C167.167 41.764 166.887 41.4607 166.523 41.246C166.168 41.022 165.757 40.91 165.291 40.91C164.833 40.91 164.423 41.022 164.059 41.246C163.704 41.4607 163.424 41.764 163.219 42.156C163.023 42.548 162.925 43.0053 162.925 43.528C162.925 44.0507 163.023 44.508 163.219 44.9C163.424 45.292 163.704 45.6 164.059 45.824C164.423 46.0387 164.833 46.146 165.291 46.146ZM177.045 47.168C176.224 47.168 175.57 46.9207 175.085 46.426C174.6 45.922 174.357 45.152 174.357 44.116V40.056H175.533V43.99C175.533 45.4367 176.126 46.16 177.311 46.16C177.918 46.16 178.417 45.9453 178.809 45.516C179.21 45.0773 179.411 44.4567 179.411 43.654V40.056H180.587V47H179.523L179.439 45.754C179.224 46.1927 178.902 46.538 178.473 46.79C178.053 47.042 177.577 47.168 177.045 47.168ZM185.183 47.168C184.352 47.168 183.661 46.958 183.111 46.538C182.56 46.118 182.238 45.5487 182.145 44.83H183.349C183.423 45.194 183.615 45.5113 183.923 45.782C184.24 46.0433 184.665 46.174 185.197 46.174C185.691 46.174 186.055 46.0713 186.289 45.866C186.522 45.6513 186.639 45.3993 186.639 45.11C186.639 44.69 186.485 44.41 186.177 44.27C185.878 44.13 185.453 44.004 184.903 43.892C184.529 43.8173 184.156 43.71 183.783 43.57C183.409 43.43 183.097 43.234 182.845 42.982C182.593 42.7207 182.467 42.38 182.467 41.96C182.467 41.3533 182.691 40.8587 183.139 40.476C183.596 40.084 184.212 39.888 184.987 39.888C185.724 39.888 186.326 40.0747 186.793 40.448C187.269 40.812 187.544 41.3347 187.619 42.016H186.457C186.41 41.6613 186.256 41.386 185.995 41.19C185.743 40.9847 185.402 40.882 184.973 40.882C184.553 40.882 184.226 40.9707 183.993 41.148C183.769 41.3253 183.657 41.5587 183.657 41.848C183.657 42.128 183.801 42.3473 184.091 42.506C184.389 42.6647 184.791 42.8 185.295 42.912C185.724 43.0053 186.13 43.122 186.513 43.262C186.905 43.3927 187.222 43.5933 187.465 43.864C187.717 44.1253 187.843 44.508 187.843 45.012C187.852 45.6373 187.614 46.1553 187.129 46.566C186.653 46.9673 186.004 47.168 185.183 47.168ZM195.972 47C195.337 47 194.838 46.846 194.474 46.538C194.11 46.23 193.928 45.6747 193.928 44.872V41.05H192.724V40.056H193.928L194.082 38.39H195.104V40.056H197.148V41.05H195.104V44.872C195.104 45.3107 195.192 45.6093 195.37 45.768C195.547 45.9173 195.86 45.992 196.308 45.992H197.036V47H195.972ZM201.614 47.168C200.961 47.168 200.373 47.0187 199.85 46.72C199.328 46.4213 198.912 46.0013 198.604 45.46C198.306 44.9093 198.156 44.2653 198.156 43.528C198.156 42.7907 198.31 42.1513 198.618 41.61C198.926 41.0593 199.342 40.6347 199.864 40.336C200.396 40.0373 200.989 39.888 201.642 39.888C202.296 39.888 202.884 40.0373 203.406 40.336C203.929 40.6347 204.34 41.0593 204.638 41.61C204.946 42.1513 205.1 42.7907 205.1 43.528C205.1 44.2653 204.946 44.9093 204.638 45.46C204.33 46.0013 203.91 46.4213 203.378 46.72C202.856 47.0187 202.268 47.168 201.614 47.168ZM201.614 46.16C202.016 46.16 202.389 46.062 202.734 45.866C203.08 45.67 203.36 45.376 203.574 44.984C203.789 44.592 203.896 44.1067 203.896 43.528C203.896 42.9493 203.789 42.464 203.574 42.072C203.369 41.68 203.094 41.386 202.748 41.19C202.403 40.994 202.034 40.896 201.642 40.896C201.241 40.896 200.868 40.994 200.522 41.19C200.177 41.386 199.897 41.68 199.682 42.072C199.468 42.464 199.36 42.9493 199.36 43.528C199.36 44.1067 199.468 44.592 199.682 44.984C199.897 45.376 200.172 45.67 200.508 45.866C200.854 46.062 201.222 46.16 201.614 46.16ZM210.441 47V36.92H211.617V42.982L214.459 40.056H215.901L212.821 43.192L216.293 47H214.795L211.617 43.402V47H210.441ZM220.111 47.168C219.449 47.168 218.861 47.0187 218.347 46.72C217.834 46.412 217.428 45.9873 217.129 45.446C216.84 44.9047 216.695 44.2653 216.695 43.528C216.695 42.8 216.84 42.1653 217.129 41.624C217.419 41.0733 217.82 40.6487 218.333 40.35C218.856 40.042 219.458 39.888 220.139 39.888C220.811 39.888 221.39 40.042 221.875 40.35C222.37 40.6487 222.748 41.0453 223.009 41.54C223.271 42.0347 223.401 42.5667 223.401 43.136C223.401 43.2387 223.397 43.3413 223.387 43.444C223.387 43.5467 223.387 43.6633 223.387 43.794H217.857C217.885 44.326 218.007 44.7693 218.221 45.124C218.445 45.4693 218.721 45.7307 219.047 45.908C219.383 46.0853 219.738 46.174 220.111 46.174C220.597 46.174 221.003 46.062 221.329 45.838C221.656 45.614 221.894 45.3107 222.043 44.928H223.205C223.019 45.572 222.659 46.1087 222.127 46.538C221.605 46.958 220.933 47.168 220.111 47.168ZM220.111 40.882C219.551 40.882 219.052 41.0547 218.613 41.4C218.184 41.736 217.937 42.2307 217.871 42.884H222.239C222.211 42.2587 221.997 41.7687 221.595 41.414C221.194 41.0593 220.699 40.882 220.111 40.882ZM228.082 47.168C227.419 47.168 226.831 47.0187 226.318 46.72C225.805 46.412 225.399 45.9873 225.1 45.446C224.811 44.9047 224.666 44.2653 224.666 43.528C224.666 42.8 224.811 42.1653 225.1 41.624C225.389 41.0733 225.791 40.6487 226.304 40.35C226.827 40.042 227.429 39.888 228.11 39.888C228.782 39.888 229.361 40.042 229.846 40.35C230.341 40.6487 230.719 41.0453 230.98 41.54C231.241 42.0347 231.372 42.5667 231.372 43.136C231.372 43.2387 231.367 43.3413 231.358 43.444C231.358 43.5467 231.358 43.6633 231.358 43.794H225.828C225.856 44.326 225.977 44.7693 226.192 45.124C226.416 45.4693 226.691 45.7307 227.018 45.908C227.354 46.0853 227.709 46.174 228.082 46.174C228.567 46.174 228.973 46.062 229.3 45.838C229.627 45.614 229.865 45.3107 230.014 44.928H231.176C230.989 45.572 230.63 46.1087 230.098 46.538C229.575 46.958 228.903 47.168 228.082 47.168ZM228.082 40.882C227.522 40.882 227.023 41.0547 226.584 41.4C226.155 41.736 225.907 42.2307 225.842 42.884H230.21C230.182 42.2587 229.967 41.7687 229.566 41.414C229.165 41.0593 228.67 40.882 228.082 40.882ZM232.931 50.08V40.056H233.995L234.107 41.204C234.331 40.868 234.648 40.5647 235.059 40.294C235.479 40.0233 236.011 39.888 236.655 39.888C237.346 39.888 237.948 40.0467 238.461 40.364C238.974 40.6813 239.371 41.1153 239.651 41.666C239.94 42.2167 240.085 42.842 240.085 43.542C240.085 44.242 239.94 44.8673 239.651 45.418C239.371 45.9593 238.97 46.3887 238.447 46.706C237.934 47.014 237.332 47.168 236.641 47.168C236.072 47.168 235.563 47.0513 235.115 46.818C234.676 46.5847 234.34 46.258 234.107 45.838V50.08H232.931ZM236.515 46.146C236.982 46.146 237.392 46.0387 237.747 45.824C238.102 45.6 238.382 45.292 238.587 44.9C238.792 44.508 238.895 44.0507 238.895 43.528C238.895 43.0053 238.792 42.548 238.587 42.156C238.382 41.764 238.102 41.4607 237.747 41.246C237.392 41.022 236.982 40.91 236.515 40.91C236.048 40.91 235.638 41.022 235.283 41.246C234.928 41.4607 234.648 41.764 234.443 42.156C234.238 42.548 234.135 43.0053 234.135 43.528C234.135 44.0507 234.238 44.508 234.443 44.9C234.648 45.292 234.928 45.6 235.283 45.824C235.638 46.0387 236.048 46.146 236.515 46.146ZM248.927 50.248C248.32 50.248 247.765 50.1407 247.261 49.926C246.757 49.7207 246.337 49.422 246.001 49.03C245.674 48.638 245.46 48.162 245.357 47.602H246.519C246.668 48.0873 246.953 48.4793 247.373 48.778C247.802 49.0767 248.316 49.226 248.913 49.226C249.594 49.226 250.168 49.0067 250.635 48.568C251.102 48.1293 251.335 47.476 251.335 46.608V45.6C251.111 45.992 250.775 46.3467 250.327 46.664C249.879 46.9813 249.314 47.14 248.633 47.14C247.98 47.14 247.387 46.9813 246.855 46.664C246.332 46.3467 245.912 45.9127 245.595 45.362C245.287 44.8113 245.133 44.1907 245.133 43.5C245.133 42.8093 245.287 42.1933 245.595 41.652C245.912 41.1013 246.337 40.672 246.869 40.364C247.401 40.0467 247.994 39.888 248.647 39.888C249.263 39.888 249.804 40.028 250.271 40.308C250.738 40.5787 251.092 40.91 251.335 41.302L251.447 40.056H252.511V46.594C252.511 47.35 252.357 47.9987 252.049 48.54C251.741 49.0907 251.316 49.5107 250.775 49.8C250.234 50.0987 249.618 50.248 248.927 50.248ZM248.815 46.118C249.291 46.118 249.711 46.006 250.075 45.782C250.448 45.558 250.742 45.25 250.957 44.858C251.181 44.466 251.293 44.0133 251.293 43.5C251.293 42.9867 251.181 42.534 250.957 42.142C250.742 41.75 250.448 41.4467 250.075 41.232C249.711 41.0173 249.291 40.91 248.815 40.91C248.348 40.91 247.928 41.0173 247.555 41.232C247.182 41.4467 246.883 41.75 246.659 42.142C246.444 42.534 246.337 42.9867 246.337 43.5C246.337 44.0133 246.444 44.466 246.659 44.858C246.883 45.25 247.182 45.558 247.555 45.782C247.928 46.006 248.348 46.118 248.815 46.118ZM257.601 47.168C256.947 47.168 256.359 47.0187 255.837 46.72C255.314 46.4213 254.899 46.0013 254.591 45.46C254.292 44.9093 254.143 44.2653 254.143 43.528C254.143 42.7907 254.297 42.1513 254.605 41.61C254.913 41.0593 255.328 40.6347 255.851 40.336C256.383 40.0373 256.975 39.888 257.629 39.888C258.282 39.888 258.87 40.0373 259.393 40.336C259.915 40.6347 260.326 41.0593 260.625 41.61C260.933 42.1513 261.087 42.7907 261.087 43.528C261.087 44.2653 260.933 44.9093 260.625 45.46C260.317 46.0013 259.897 46.4213 259.365 46.72C258.842 47.0187 258.254 47.168 257.601 47.168ZM257.601 46.16C258.002 46.16 258.375 46.062 258.721 45.866C259.066 45.67 259.346 45.376 259.561 44.984C259.775 44.592 259.883 44.1067 259.883 43.528C259.883 42.9493 259.775 42.464 259.561 42.072C259.355 41.68 259.08 41.386 258.735 41.19C258.389 40.994 258.021 40.896 257.629 40.896C257.227 40.896 256.854 40.994 256.509 41.19C256.163 41.386 255.883 41.68 255.669 42.072C255.454 42.464 255.347 42.9493 255.347 43.528C255.347 44.1067 255.454 44.592 255.669 44.984C255.883 45.376 256.159 45.67 256.495 45.866C256.84 46.062 257.209 46.16 257.601 46.16ZM263.436 38.516C263.203 38.516 263.007 38.4413 262.848 38.292C262.699 38.1333 262.624 37.9373 262.624 37.704C262.624 37.48 262.699 37.2933 262.848 37.144C263.007 36.9947 263.203 36.92 263.436 36.92C263.66 36.92 263.851 36.9947 264.01 37.144C264.169 37.2933 264.248 37.48 264.248 37.704C264.248 37.9373 264.169 38.1333 264.01 38.292C263.851 38.4413 263.66 38.516 263.436 38.516ZM262.848 47V40.056H264.024V47H262.848ZM266.071 47V40.056H267.135L267.205 41.302C267.429 40.8633 267.751 40.518 268.171 40.266C268.591 40.014 269.067 39.888 269.599 39.888C270.421 39.888 271.074 40.14 271.559 40.644C272.054 41.1387 272.301 41.904 272.301 42.94V47H271.125V43.066C271.125 41.6193 270.528 40.896 269.333 40.896C268.736 40.896 268.237 41.1153 267.835 41.554C267.443 41.9833 267.247 42.5993 267.247 43.402V47H266.071ZM277.583 50.248C276.977 50.248 276.421 50.1407 275.917 49.926C275.413 49.7207 274.993 49.422 274.657 49.03C274.331 48.638 274.116 48.162 274.013 47.602H275.175C275.325 48.0873 275.609 48.4793 276.029 48.778C276.459 49.0767 276.972 49.226 277.569 49.226C278.251 49.226 278.825 49.0067 279.291 48.568C279.758 48.1293 279.991 47.476 279.991 46.608V45.6C279.767 45.992 279.431 46.3467 278.983 46.664C278.535 46.9813 277.971 47.14 277.289 47.14C276.636 47.14 276.043 46.9813 275.511 46.664C274.989 46.3467 274.569 45.9127 274.251 45.362C273.943 44.8113 273.789 44.1907 273.789 43.5C273.789 42.8093 273.943 42.1933 274.251 41.652C274.569 41.1013 274.993 40.672 275.525 40.364C276.057 40.0467 276.65 39.888 277.303 39.888C277.919 39.888 278.461 40.028 278.927 40.308C279.394 40.5787 279.749 40.91 279.991 41.302L280.103 40.056H281.167V46.594C281.167 47.35 281.013 47.9987 280.705 48.54C280.397 49.0907 279.973 49.5107 279.431 49.8C278.89 50.0987 278.274 50.248 277.583 50.248ZM277.471 46.118C277.947 46.118 278.367 46.006 278.731 45.782C279.105 45.558 279.399 45.25 279.613 44.858C279.837 44.466 279.949 44.0133 279.949 43.5C279.949 42.9867 279.837 42.534 279.613 42.142C279.399 41.75 279.105 41.4467 278.731 41.232C278.367 41.0173 277.947 40.91 277.471 40.91C277.005 40.91 276.585 41.0173 276.211 41.232C275.838 41.4467 275.539 41.75 275.315 42.142C275.101 42.534 274.993 42.9867 274.993 43.5C274.993 44.0133 275.101 44.466 275.315 44.858C275.539 45.25 275.838 45.558 276.211 45.782C276.585 46.006 277.005 46.118 277.471 46.118ZM283.499 47.07C283.266 47.07 283.07 46.9953 282.911 46.846C282.762 46.6873 282.687 46.496 282.687 46.272C282.687 46.048 282.762 45.8613 282.911 45.712C283.07 45.5533 283.266 45.474 283.499 45.474C283.723 45.474 283.91 45.5533 284.059 45.712C284.218 45.8613 284.297 46.048 284.297 46.272C284.297 46.496 284.218 46.6873 284.059 46.846C283.91 46.9953 283.723 47.07 283.499 47.07ZM286.233 47.07C286 47.07 285.804 46.9953 285.645 46.846C285.496 46.6873 285.421 46.496 285.421 46.272C285.421 46.048 285.496 45.8613 285.645 45.712C285.804 45.5533 286 45.474 286.233 45.474C286.457 45.474 286.644 45.5533 286.793 45.712C286.952 45.8613 287.031 46.048 287.031 46.272C287.031 46.496 286.952 46.6873 286.793 46.846C286.644 46.9953 286.457 47.07 286.233 47.07ZM288.968 47.07C288.734 47.07 288.538 46.9953 288.38 46.846C288.23 46.6873 288.156 46.496 288.156 46.272C288.156 46.048 288.23 45.8613 288.38 45.712C288.538 45.5533 288.734 45.474 288.968 45.474C289.192 45.474 289.378 45.5533 289.528 45.712C289.686 45.8613 289.766 46.048 289.766 46.272C289.766 46.496 289.686 46.6873 289.528 46.846C289.378 46.9953 289.192 47.07 288.968 47.07ZM293.956 47.168C293.125 47.168 292.435 46.958 291.884 46.538C291.333 46.118 291.011 45.5487 290.918 44.83H292.122C292.197 45.194 292.388 45.5113 292.696 45.782C293.013 46.0433 293.438 46.174 293.97 46.174C294.465 46.174 294.829 46.0713 295.062 45.866C295.295 45.6513 295.412 45.3993 295.412 45.11C295.412 44.69 295.258 44.41 294.95 44.27C294.651 44.13 294.227 44.004 293.676 43.892C293.303 43.8173 292.929 43.71 292.556 43.57C292.183 43.43 291.87 43.234 291.618 42.982C291.366 42.7207 291.24 42.38 291.24 41.96C291.24 41.3533 291.464 40.8587 291.912 40.476C292.369 40.084 292.985 39.888 293.76 39.888C294.497 39.888 295.099 40.0747 295.566 40.448C296.042 40.812 296.317 41.3347 296.392 42.016H295.23C295.183 41.6613 295.029 41.386 294.768 41.19C294.516 40.9847 294.175 40.882 293.746 40.882C293.326 40.882 292.999 40.9707 292.766 41.148C292.542 41.3253 292.43 41.5587 292.43 41.848C292.43 42.128 292.575 42.3473 292.864 42.506C293.163 42.6647 293.564 42.8 294.068 42.912C294.497 43.0053 294.903 43.122 295.286 43.262C295.678 43.3927 295.995 43.5933 296.238 43.864C296.49 44.1253 296.616 44.508 296.616 45.012C296.625 45.6373 296.387 46.1553 295.902 46.566C295.426 46.9673 294.777 47.168 293.956 47.168ZM301.418 47.168C300.755 47.168 300.167 47.0187 299.654 46.72C299.141 46.412 298.735 45.9873 298.436 45.446C298.147 44.9047 298.002 44.2653 298.002 43.528C298.002 42.8 298.147 42.1653 298.436 41.624C298.725 41.0733 299.127 40.6487 299.64 40.35C300.163 40.042 300.765 39.888 301.446 39.888C302.118 39.888 302.697 40.042 303.182 40.35C303.677 40.6487 304.055 41.0453 304.316 41.54C304.577 42.0347 304.708 42.5667 304.708 43.136C304.708 43.2387 304.703 43.3413 304.694 43.444C304.694 43.5467 304.694 43.6633 304.694 43.794H299.164C299.192 44.326 299.313 44.7693 299.528 45.124C299.752 45.4693 300.027 45.7307 300.354 45.908C300.69 46.0853 301.045 46.174 301.418 46.174C301.903 46.174 302.309 46.062 302.636 45.838C302.963 45.614 303.201 45.3107 303.35 44.928H304.512C304.325 45.572 303.966 46.1087 303.434 46.538C302.911 46.958 302.239 47.168 301.418 47.168ZM301.418 40.882C300.858 40.882 300.359 41.0547 299.92 41.4C299.491 41.736 299.243 42.2307 299.178 42.884H303.546C303.518 42.2587 303.303 41.7687 302.902 41.414C302.501 41.0593 302.006 40.882 301.418 40.882ZM309.389 47.168C308.726 47.168 308.138 47.0187 307.625 46.72C307.111 46.412 306.705 45.9873 306.407 45.446C306.117 44.9047 305.973 44.2653 305.973 43.528C305.973 42.8 306.117 42.1653 306.407 41.624C306.696 41.0733 307.097 40.6487 307.611 40.35C308.133 40.042 308.735 39.888 309.417 39.888C310.089 39.888 310.667 40.042 311.153 40.35C311.647 40.6487 312.025 41.0453 312.287 41.54C312.548 42.0347 312.679 42.5667 312.679 43.136C312.679 43.2387 312.674 43.3413 312.665 43.444C312.665 43.5467 312.665 43.6633 312.665 43.794H307.135C307.163 44.326 307.284 44.7693 307.499 45.124C307.723 45.4693 307.998 45.7307 308.325 45.908C308.661 46.0853 309.015 46.174 309.389 46.174C309.874 46.174 310.28 46.062 310.607 45.838C310.933 45.614 311.171 45.3107 311.321 44.928H312.483C312.296 45.572 311.937 46.1087 311.405 46.538C310.882 46.958 310.21 47.168 309.389 47.168ZM309.389 40.882C308.829 40.882 308.329 41.0547 307.891 41.4C307.461 41.736 307.214 42.2307 307.149 42.884H311.517C311.489 42.2587 311.274 41.7687 310.873 41.414C310.471 41.0593 309.977 40.882 309.389 40.882ZM319.343 47L317.313 40.056H318.489L319.959 45.502L321.583 40.056H322.913L324.551 45.502L326.007 40.056H327.197L325.167 47H323.963L322.255 41.274L320.547 47H319.343ZM328.497 47V36.92H329.673V41.246C329.907 40.8167 330.238 40.4853 330.667 40.252C331.097 40.0093 331.563 39.888 332.067 39.888C332.87 39.888 333.514 40.14 333.999 40.644C334.485 41.1387 334.727 41.904 334.727 42.94V47H333.565V43.066C333.565 41.6193 332.982 40.896 331.815 40.896C331.209 40.896 330.7 41.1153 330.289 41.554C329.879 41.9833 329.673 42.5993 329.673 43.402V47H328.497ZM338.819 47.168C338.24 47.168 337.76 47.07 337.377 46.874C336.994 46.678 336.71 46.4167 336.523 46.09C336.336 45.7633 336.243 45.4087 336.243 45.026C336.243 44.3167 336.514 43.7707 337.055 43.388C337.596 43.0053 338.334 42.814 339.267 42.814H341.143V42.73C341.143 42.1233 340.984 41.666 340.667 41.358C340.35 41.0407 339.925 40.882 339.393 40.882C338.936 40.882 338.539 40.9987 338.203 41.232C337.876 41.456 337.671 41.7873 337.587 42.226H336.383C336.43 41.722 336.598 41.2973 336.887 40.952C337.186 40.6067 337.554 40.3453 337.993 40.168C338.432 39.9813 338.898 39.888 339.393 39.888C340.364 39.888 341.092 40.1493 341.577 40.672C342.072 41.1853 342.319 41.8713 342.319 42.73V47H341.269L341.199 45.754C341.003 46.146 340.714 46.482 340.331 46.762C339.958 47.0327 339.454 47.168 338.819 47.168ZM339.001 46.174C339.449 46.174 339.832 46.0573 340.149 45.824C340.476 45.5907 340.723 45.2873 340.891 44.914C341.059 44.5407 341.143 44.1487 341.143 43.738V43.724H339.365C338.674 43.724 338.184 43.8453 337.895 44.088C337.615 44.3213 337.475 44.6153 337.475 44.97C337.475 45.334 337.606 45.628 337.867 45.852C338.138 46.0667 338.516 46.174 339.001 46.174ZM346.636 47C346.001 47 345.502 46.846 345.138 46.538C344.774 46.23 344.592 45.6747 344.592 44.872V41.05H343.388V40.056H344.592L344.746 38.39H345.768V40.056H347.812V41.05H345.768V44.872C345.768 45.3107 345.856 45.6093 346.034 45.768C346.211 45.9173 346.524 45.992 346.972 45.992H347.7V47H346.636ZM353.081 47V37.2H354.257V47H353.081ZM363.12 47.168C362.429 47.168 361.823 47.0093 361.3 46.692C360.787 46.3747 360.385 45.9407 360.096 45.39C359.816 44.8393 359.676 44.214 359.676 43.514C359.676 42.814 359.821 42.1933 360.11 41.652C360.399 41.1013 360.801 40.672 361.314 40.364C361.827 40.0467 362.434 39.888 363.134 39.888C363.703 39.888 364.207 40.0047 364.646 40.238C365.085 40.4713 365.425 40.798 365.668 41.218V36.92H366.844V47H365.78L365.668 45.852C365.444 46.188 365.122 46.4913 364.702 46.762C364.282 47.0327 363.755 47.168 363.12 47.168ZM363.246 46.146C363.713 46.146 364.123 46.0387 364.478 45.824C364.842 45.6 365.122 45.292 365.318 44.9C365.523 44.508 365.626 44.0507 365.626 43.528C365.626 43.0053 365.523 42.548 365.318 42.156C365.122 41.764 364.842 41.4607 364.478 41.246C364.123 41.022 363.713 40.91 363.246 40.91C362.789 40.91 362.378 41.022 362.014 41.246C361.659 41.4607 361.379 41.764 361.174 42.156C360.978 42.548 360.88 43.0053 360.88 43.528C360.88 44.0507 360.978 44.508 361.174 44.9C361.379 45.292 361.659 45.6 362.014 45.824C362.378 46.0387 362.789 46.146 363.246 46.146ZM369.475 38.516C369.242 38.516 369.046 38.4413 368.887 38.292C368.738 38.1333 368.663 37.9373 368.663 37.704C368.663 37.48 368.738 37.2933 368.887 37.144C369.046 36.9947 369.242 36.92 369.475 36.92C369.699 36.92 369.89 36.9947 370.049 37.144C370.208 37.2933 370.287 37.48 370.287 37.704C370.287 37.9373 370.208 38.1333 370.049 38.292C369.89 38.4413 369.699 38.516 369.475 38.516ZM368.887 47V40.056H370.063V47H368.887ZM375.261 47.168C374.57 47.168 373.963 47.0093 373.441 46.692C372.927 46.3747 372.526 45.9407 372.237 45.39C371.957 44.8393 371.817 44.214 371.817 43.514C371.817 42.814 371.961 42.1933 372.251 41.652C372.54 41.1013 372.941 40.672 373.455 40.364C373.968 40.0467 374.575 39.888 375.275 39.888C375.844 39.888 376.348 40.0047 376.787 40.238C377.225 40.4713 377.566 40.798 377.809 41.218V36.92H378.985V47H377.921L377.809 45.852C377.585 46.188 377.263 46.4913 376.843 46.762C376.423 47.0327 375.895 47.168 375.261 47.168ZM375.387 46.146C375.853 46.146 376.264 46.0387 376.619 45.824C376.983 45.6 377.263 45.292 377.459 44.9C377.664 44.508 377.767 44.0507 377.767 43.528C377.767 43.0053 377.664 42.548 377.459 42.156C377.263 41.764 376.983 41.4607 376.619 41.246C376.264 41.022 375.853 40.91 375.387 40.91C374.929 40.91 374.519 41.022 374.155 41.246C373.8 41.4607 373.52 41.764 373.315 42.156C373.119 42.548 373.021 43.0053 373.021 43.528C373.021 44.0507 373.119 44.508 373.315 44.9C373.52 45.292 373.8 45.6 374.155 45.824C374.519 46.0387 374.929 46.146 375.387 46.146ZM77.71 67C77.0753 67 76.576 66.846 76.212 66.538C75.848 66.23 75.666 65.6747 75.666 64.872V61.05H74.462V60.056H75.666L75.82 58.39H76.842V60.056H78.886V61.05H76.842V64.872C76.842 65.3107 76.9307 65.6093 77.108 65.768C77.2853 65.9173 77.598 65.992 78.046 65.992H78.774V67H77.71ZM80.3801 67V56.92H81.5561V61.246C81.7894 60.8167 82.1207 60.4853 82.5501 60.252C82.9794 60.0093 83.4461 59.888 83.9501 59.888C84.7527 59.888 85.3967 60.14 85.8821 60.644C86.3674 61.1387 86.6101 61.904 86.6101 62.94V67H85.4481V63.066C85.4481 61.6193 84.8647 60.896 83.6981 60.896C83.0914 60.896 82.5827 61.1153 82.1721 61.554C81.7614 61.9833 81.5561 62.5993 81.5561 63.402V67H80.3801ZM91.5138 67.168C90.8511 67.168 90.2631 67.0187 89.7498 66.72C89.2364 66.412 88.8304 65.9873 88.5318 65.446C88.2424 64.9047 88.0978 64.2653 88.0978 63.528C88.0978 62.8 88.2424 62.1653 88.5318 61.624C88.8211 61.0733 89.2224 60.6487 89.7358 60.35C90.2584 60.042 90.8604 59.888 91.5418 59.888C92.2138 59.888 92.7924 60.042 93.2778 60.35C93.7724 60.6487 94.1504 61.0453 94.4118 61.54C94.6731 62.0347 94.8038 62.5667 94.8038 63.136C94.8038 63.2387 94.7991 63.3413 94.7898 63.444C94.7898 63.5467 94.7898 63.6633 94.7898 63.794H89.2598C89.2878 64.326 89.4091 64.7693 89.6238 65.124C89.8478 65.4693 90.1231 65.7307 90.4498 65.908C90.7858 66.0853 91.1404 66.174 91.5138 66.174C91.9991 66.174 92.4051 66.062 92.7318 65.838C93.0584 65.614 93.2964 65.3107 93.4458 64.928H94.6078C94.4211 65.572 94.0618 66.1087 93.5298 66.538C93.0071 66.958 92.3351 67.168 91.5138 67.168ZM91.5138 60.882C90.9538 60.882 90.4544 61.0547 90.0158 61.4C89.5864 61.736 89.3391 62.2307 89.2738 62.884H93.6418C93.6138 62.2587 93.3991 61.7687 92.9978 61.414C92.5964 61.0593 92.1018 60.882 91.5138 60.882ZM96.3625 67V60.056H97.4265L97.5245 61.386C97.7392 60.9287 98.0658 60.5647 98.5045 60.294C98.9432 60.0233 99.4845 59.888 100.128 59.888V61.12H99.8065C99.3958 61.12 99.0178 61.1947 98.6725 61.344C98.3272 61.484 98.0518 61.7267 97.8465 62.072C97.6412 62.4173 97.5385 62.8933 97.5385 63.5V67H96.3625ZM104.311 67.168C103.648 67.168 103.06 67.0187 102.547 66.72C102.033 66.412 101.627 65.9873 101.329 65.446C101.039 64.9047 100.895 64.2653 100.895 63.528C100.895 62.8 101.039 62.1653 101.329 61.624C101.618 61.0733 102.019 60.6487 102.533 60.35C103.055 60.042 103.657 59.888 104.339 59.888C105.011 59.888 105.589 60.042 106.075 60.35C106.569 60.6487 106.947 61.0453 107.209 61.54C107.47 62.0347 107.601 62.5667 107.601 63.136C107.601 63.2387 107.596 63.3413 107.587 63.444C107.587 63.5467 107.587 63.6633 107.587 63.794H102.057C102.085 64.326 102.206 64.7693 102.421 65.124C102.645 65.4693 102.92 65.7307 103.247 65.908C103.583 66.0853 103.937 66.174 104.311 66.174C104.796 66.174 105.202 66.062 105.529 65.838C105.855 65.614 106.093 65.3107 106.243 64.928H107.405C107.218 65.572 106.859 66.1087 106.327 66.538C105.804 66.958 105.132 67.168 104.311 67.168ZM104.311 60.882C103.751 60.882 103.251 61.0547 102.813 61.4C102.383 61.736 102.136 62.2307 102.071 62.884H106.439C106.411 62.2587 106.196 61.7687 105.795 61.414C105.393 61.0593 104.899 60.882 104.311 60.882ZM110.034 64.256L109.978 62.002H110.412C110.935 62.002 111.42 61.9507 111.868 61.848C112.325 61.7453 112.694 61.5447 112.974 61.246C113.254 60.9473 113.394 60.4993 113.394 59.902C113.394 59.3233 113.212 58.866 112.848 58.53C112.493 58.194 112.022 58.026 111.434 58.026C110.837 58.026 110.365 58.1893 110.02 58.516C109.675 58.8427 109.502 59.2813 109.502 59.832H108.382C108.382 59.272 108.508 58.782 108.76 58.362C109.021 57.942 109.381 57.6153 109.838 57.382C110.295 57.1487 110.827 57.032 111.434 57.032C112.041 57.032 112.577 57.1487 113.044 57.382C113.511 57.6153 113.875 57.9467 114.136 58.376C114.397 58.8053 114.528 59.314 114.528 59.902C114.528 60.5927 114.379 61.1527 114.08 61.582C113.791 62.0113 113.385 62.324 112.862 62.52C112.349 62.716 111.761 62.814 111.098 62.814L111.056 64.256H110.034ZM110.538 67.07C110.305 67.07 110.109 66.9953 109.95 66.846C109.801 66.6873 109.726 66.496 109.726 66.272C109.726 66.048 109.801 65.8613 109.95 65.712C110.109 65.5533 110.305 65.474 110.538 65.474C110.771 65.474 110.963 65.5533 111.112 65.712C111.261 65.8613 111.336 66.048 111.336 66.272C111.336 66.496 111.261 66.6873 111.112 66.846C110.963 66.9953 110.771 67.07 110.538 67.07Z" fill="white"/>
<rect y="84" width="40" height="40" rx="8" fill="#EBEDFC"/>
<defs>
<linearGradient id="paint0_linear_52_72355" x1="62" y1="84" x2="428" y2="-4.23086e-07" gradientUnits="userSpaceOnUse">
<stop offset="0.043503" stop-color="white" stop-opacity="0"/>
<stop offset="1" stop-color="white"/>
</linearGradient>
</defs>
</svg>
