<svg width="428" height="124" viewBox="0 0 428 124" fill="none" xmlns="http://www.w3.org/2000/svg">
<path d="M51.4142 80.5858C50.1543 81.8457 51.0466 84 52.8284 84H62V70L51.4142 80.5858Z" fill="#3E4FE5"/>
<path d="M62 8C62 3.58172 65.5817 0 70 0H420C424.418 0 428 3.58172 428 8V76C428 80.4183 424.418 84 420 84H62V8Z" fill="#3E4FE5"/>
<path d="M62 8C62 3.58172 65.5817 0 70 0H420C424.418 0 428 3.58172 428 8V76C428 80.4183 424.418 84 420 84H62V8Z" fill="url(#paint0_linear_73_10398)" fill-opacity="0.2"/>
<path d="M75.26 22.646H76.254L76.394 29.646H75.12L75.26 22.646ZM75.75 19.776C75.9927 19.776 76.184 19.8553 76.324 20.014C76.4733 20.1633 76.548 20.35 76.548 20.574C76.548 20.798 76.4733 20.9893 76.324 21.148C76.184 21.2973 75.9927 21.372 75.75 21.372C75.526 21.372 75.3347 21.2973 75.176 21.148C75.0267 20.9893 74.952 20.798 74.952 20.574C74.952 20.35 75.0267 20.1633 75.176 20.014C75.3347 19.8553 75.526 19.776 75.75 19.776ZM82.764 27.168C81.8493 27.168 81.0467 26.958 80.356 26.538C79.6653 26.1087 79.1287 25.516 78.746 24.76C78.3633 24.004 78.172 23.122 78.172 22.114C78.172 21.1153 78.3633 20.2333 78.746 19.468C79.138 18.7027 79.6887 18.1053 80.398 17.676C81.1167 17.2467 81.9613 17.032 82.932 17.032C84.0333 17.032 84.9527 17.298 85.69 17.83C86.4273 18.3527 86.8987 19.0853 87.104 20.028H85.746C85.6153 19.44 85.3073 18.9733 84.822 18.628C84.3367 18.2827 83.7067 18.11 82.932 18.11C82.2133 18.11 81.5833 18.2733 81.042 18.6C80.51 18.9173 80.0993 19.3747 79.81 19.972C79.5207 20.5693 79.376 21.2833 79.376 22.114C79.376 22.9447 79.5207 23.6633 79.81 24.27C80.0993 24.8673 80.5007 25.3247 81.014 25.642C81.5367 25.9593 82.134 26.118 82.806 26.118C83.8513 26.118 84.64 25.81 85.172 25.194C85.704 24.578 86.0073 23.7427 86.082 22.688H83.254V21.764H87.286V27H86.208L86.11 25.39C85.8767 25.7727 85.606 26.0993 85.298 26.37C84.9993 26.6313 84.6447 26.832 84.234 26.972C83.8233 27.1027 83.3333 27.168 82.764 27.168ZM89.0894 27V19.944H90.1534L90.2374 21.288C90.396 20.9707 90.5967 20.7 90.8394 20.476C91.0914 20.252 91.39 20.0793 91.7354 19.958C92.09 19.8367 92.4914 19.776 92.9394 19.776V21.008H92.5054C92.2067 21.008 91.922 21.05 91.6514 21.134C91.3807 21.2087 91.138 21.3347 90.9234 21.512C90.718 21.6893 90.5547 21.932 90.4334 22.24C90.3214 22.5387 90.2654 22.912 90.2654 23.36V27H89.0894ZM96.567 27.168C95.9977 27.168 95.5217 27.07 95.139 26.874C94.7563 26.6687 94.4717 26.4027 94.285 26.076C94.0983 25.74 94.005 25.376 94.005 24.984C94.005 24.508 94.1263 24.1067 94.369 23.78C94.621 23.444 94.971 23.192 95.419 23.024C95.8763 22.8467 96.413 22.758 97.029 22.758H98.891C98.891 22.3193 98.821 21.9553 98.681 21.666C98.5503 21.3673 98.3543 21.1433 98.093 20.994C97.841 20.8447 97.5237 20.77 97.141 20.77C96.693 20.77 96.3057 20.882 95.979 21.106C95.6523 21.33 95.4517 21.6613 95.377 22.1H94.173C94.229 21.596 94.397 21.176 94.677 20.84C94.9663 20.4947 95.3303 20.2333 95.769 20.056C96.2077 19.8693 96.665 19.776 97.141 19.776C97.7943 19.776 98.3357 19.8973 98.765 20.14C99.2037 20.3733 99.5303 20.7047 99.745 21.134C99.9597 21.554 100.067 22.0533 100.067 22.632V27H99.017L98.947 25.754C98.8537 25.95 98.7323 26.1367 98.583 26.314C98.443 26.482 98.275 26.6313 98.079 26.762C97.883 26.8833 97.659 26.9813 97.407 27.056C97.1643 27.1307 96.8843 27.168 96.567 27.168ZM96.749 26.174C97.0757 26.174 97.3697 26.1087 97.631 25.978C97.9017 25.838 98.1303 25.6513 98.317 25.418C98.5037 25.1753 98.6437 24.9093 98.737 24.62C98.8397 24.3307 98.891 24.0273 98.891 23.71V23.668H97.127C96.6697 23.668 96.301 23.724 96.021 23.836C95.741 23.9387 95.5403 24.088 95.419 24.284C95.2977 24.4707 95.237 24.6853 95.237 24.928C95.237 25.18 95.293 25.3993 95.405 25.586C95.5263 25.7727 95.699 25.9173 95.923 26.02C96.1563 26.1227 96.4317 26.174 96.749 26.174ZM101.886 27V19.944H102.95L103.006 21.176C103.23 20.7373 103.548 20.3967 103.958 20.154C104.378 19.902 104.854 19.776 105.386 19.776C105.937 19.776 106.413 19.888 106.814 20.112C107.216 20.3267 107.528 20.658 107.752 21.106C107.976 21.5447 108.088 22.1047 108.088 22.786V27H106.912V22.912C106.912 22.2027 106.754 21.6707 106.436 21.316C106.128 20.9613 105.69 20.784 105.12 20.784C104.728 20.784 104.378 20.882 104.07 21.078C103.762 21.2647 103.515 21.54 103.328 21.904C103.151 22.2587 103.062 22.702 103.062 23.234V27H101.886ZM116.416 27C115.996 27 115.632 26.9347 115.324 26.804C115.016 26.6733 114.778 26.454 114.61 26.146C114.451 25.8287 114.372 25.404 114.372 24.872V20.938H113.14V19.944H114.372L114.526 18.236H115.548V19.944H117.592V20.938H115.548V24.872C115.548 25.3107 115.637 25.6093 115.814 25.768C115.991 25.9173 116.304 25.992 116.752 25.992H117.508V27H116.416ZM119.126 27V19.944H120.19L120.274 21.288C120.433 20.9707 120.634 20.7 120.876 20.476C121.128 20.252 121.427 20.0793 121.772 19.958C122.127 19.8367 122.528 19.776 122.976 19.776V21.008H122.542C122.244 21.008 121.959 21.05 121.688 21.134C121.418 21.2087 121.175 21.3347 120.96 21.512C120.755 21.6893 120.592 21.932 120.47 22.24C120.358 22.5387 120.302 22.912 120.302 23.36V27H119.126ZM126.604 27.168C126.035 27.168 125.559 27.07 125.176 26.874C124.793 26.6687 124.509 26.4027 124.322 26.076C124.135 25.74 124.042 25.376 124.042 24.984C124.042 24.508 124.163 24.1067 124.406 23.78C124.658 23.444 125.008 23.192 125.456 23.024C125.913 22.8467 126.45 22.758 127.066 22.758H128.928C128.928 22.3193 128.858 21.9553 128.718 21.666C128.587 21.3673 128.391 21.1433 128.13 20.994C127.878 20.8447 127.561 20.77 127.178 20.77C126.73 20.77 126.343 20.882 126.016 21.106C125.689 21.33 125.489 21.6613 125.414 22.1H124.21C124.266 21.596 124.434 21.176 124.714 20.84C125.003 20.4947 125.367 20.2333 125.806 20.056C126.245 19.8693 126.702 19.776 127.178 19.776C127.831 19.776 128.373 19.8973 128.802 20.14C129.241 20.3733 129.567 20.7047 129.782 21.134C129.997 21.554 130.104 22.0533 130.104 22.632V27H129.054L128.984 25.754C128.891 25.95 128.769 26.1367 128.62 26.314C128.48 26.482 128.312 26.6313 128.116 26.762C127.92 26.8833 127.696 26.9813 127.444 27.056C127.201 27.1307 126.921 27.168 126.604 27.168ZM126.786 26.174C127.113 26.174 127.407 26.1087 127.668 25.978C127.939 25.838 128.167 25.6513 128.354 25.418C128.541 25.1753 128.681 24.9093 128.774 24.62C128.877 24.3307 128.928 24.0273 128.928 23.71V23.668H127.164C126.707 23.668 126.338 23.724 126.058 23.836C125.778 23.9387 125.577 24.088 125.456 24.284C125.335 24.4707 125.274 24.6853 125.274 24.928C125.274 25.18 125.33 25.3993 125.442 25.586C125.563 25.7727 125.736 25.9173 125.96 26.02C126.193 26.1227 126.469 26.174 126.786 26.174ZM135.619 27.168C135.218 27.168 134.854 27.112 134.527 27C134.21 26.8787 133.93 26.72 133.687 26.524C133.445 26.328 133.244 26.0993 133.085 25.838L132.987 27H131.923V16.92H133.099V21.106C133.323 20.742 133.645 20.4293 134.065 20.168C134.485 19.9067 135.003 19.776 135.619 19.776C136.301 19.776 136.898 19.9393 137.411 20.266C137.925 20.5833 138.321 21.022 138.601 21.582C138.891 22.1327 139.035 22.7627 139.035 23.472C139.035 24.1813 138.891 24.816 138.601 25.376C138.321 25.936 137.925 26.3747 137.411 26.692C136.898 27.0093 136.301 27.168 135.619 27.168ZM135.479 26.146C135.937 26.146 136.343 26.034 136.697 25.81C137.052 25.586 137.327 25.278 137.523 24.886C137.729 24.4847 137.831 24.0133 137.831 23.472C137.831 22.94 137.729 22.4733 137.523 22.072C137.327 21.6707 137.052 21.358 136.697 21.134C136.343 20.91 135.937 20.798 135.479 20.798C135.013 20.798 134.602 20.91 134.247 21.134C133.893 21.358 133.617 21.6707 133.421 22.072C133.225 22.4733 133.127 22.94 133.127 23.472C133.127 24.0133 133.225 24.4847 133.421 24.886C133.617 25.278 133.893 25.586 134.247 25.81C134.602 26.034 135.013 26.146 135.479 26.146ZM142.983 27.168C142.414 27.168 141.938 27.07 141.555 26.874C141.172 26.6687 140.888 26.4027 140.701 26.076C140.514 25.74 140.421 25.376 140.421 24.984C140.421 24.508 140.542 24.1067 140.785 23.78C141.037 23.444 141.387 23.192 141.835 23.024C142.292 22.8467 142.829 22.758 143.445 22.758H145.307C145.307 22.3193 145.237 21.9553 145.097 21.666C144.966 21.3673 144.77 21.1433 144.509 20.994C144.257 20.8447 143.94 20.77 143.557 20.77C143.109 20.77 142.722 20.882 142.395 21.106C142.068 21.33 141.868 21.6613 141.793 22.1H140.589C140.645 21.596 140.813 21.176 141.093 20.84C141.382 20.4947 141.746 20.2333 142.185 20.056C142.624 19.8693 143.081 19.776 143.557 19.776C144.21 19.776 144.752 19.8973 145.181 20.14C145.62 20.3733 145.946 20.7047 146.161 21.134C146.376 21.554 146.483 22.0533 146.483 22.632V27H145.433L145.363 25.754C145.27 25.95 145.148 26.1367 144.999 26.314C144.859 26.482 144.691 26.6313 144.495 26.762C144.299 26.8833 144.075 26.9813 143.823 27.056C143.58 27.1307 143.3 27.168 142.983 27.168ZM143.165 26.174C143.492 26.174 143.786 26.1087 144.047 25.978C144.318 25.838 144.546 25.6513 144.733 25.418C144.92 25.1753 145.06 24.9093 145.153 24.62C145.256 24.3307 145.307 24.0273 145.307 23.71V23.668H143.543C143.086 23.668 142.717 23.724 142.437 23.836C142.157 23.9387 141.956 24.088 141.835 24.284C141.714 24.4707 141.653 24.6853 141.653 24.928C141.653 25.18 141.709 25.3993 141.821 25.586C141.942 25.7727 142.115 25.9173 142.339 26.02C142.572 26.1227 142.848 26.174 143.165 26.174ZM146.944 30.08V29.072H147.49C147.845 29.072 148.097 28.9973 148.246 28.848C148.396 28.708 148.47 28.4653 148.47 28.12V19.944H149.646V28.148C149.646 28.596 149.572 28.96 149.422 29.24C149.273 29.5293 149.049 29.7393 148.75 29.87C148.461 30.01 148.102 30.08 147.672 30.08H146.944ZM149.072 18.446C148.839 18.446 148.643 18.3713 148.484 18.222C148.335 18.0633 148.26 17.8673 148.26 17.634C148.26 17.4007 148.335 17.214 148.484 17.074C148.643 16.9247 148.839 16.85 149.072 16.85C149.296 16.85 149.483 16.9247 149.632 17.074C149.791 17.214 149.87 17.4007 149.87 17.634C149.87 17.8673 149.791 18.0633 149.632 18.222C149.483 18.3713 149.296 18.446 149.072 18.446ZM154.857 27.168C154.203 27.168 153.615 27.0187 153.093 26.72C152.57 26.412 152.159 25.9827 151.861 25.432C151.562 24.872 151.413 24.2233 151.413 23.486C151.413 22.73 151.562 22.0767 151.861 21.526C152.169 20.966 152.584 20.5367 153.107 20.238C153.639 19.93 154.231 19.776 154.885 19.776C155.557 19.776 156.149 19.93 156.663 20.238C157.185 20.5367 157.596 20.966 157.895 21.526C158.203 22.0767 158.357 22.7253 158.357 23.472C158.357 24.2187 158.203 24.872 157.895 25.432C157.587 25.9827 157.171 26.412 156.649 26.72C156.126 27.0187 155.529 27.168 154.857 27.168ZM154.871 26.16C155.272 26.16 155.645 26.062 155.991 25.866C156.336 25.6607 156.616 25.3573 156.831 24.956C157.045 24.5547 157.153 24.06 157.153 23.472C157.153 22.8747 157.045 22.38 156.831 21.988C156.625 21.5867 156.35 21.288 156.005 21.092C155.669 20.8867 155.295 20.784 154.885 20.784C154.493 20.784 154.119 20.8867 153.765 21.092C153.419 21.288 153.139 21.5867 152.925 21.988C152.719 22.38 152.617 22.8747 152.617 23.472C152.617 24.06 152.719 24.5547 152.925 24.956C153.139 25.3573 153.415 25.6607 153.751 25.866C154.096 26.062 154.469 26.16 154.871 26.16ZM160.285 24.214L160.145 17.2H161.419L161.279 24.214H160.285ZM160.775 27.07C160.551 27.07 160.36 26.9953 160.201 26.846C160.052 26.6873 159.977 26.496 159.977 26.272C159.977 26.048 160.052 25.8613 160.201 25.712C160.36 25.5533 160.551 25.474 160.775 25.474C161.018 25.474 161.209 25.5533 161.349 25.712C161.499 25.8613 161.573 26.048 161.573 26.272C161.573 26.496 161.499 26.6873 161.349 26.846C161.209 26.9953 161.018 27.07 160.775 27.07ZM170.416 27.168C169.697 27.168 169.072 27.0373 168.54 26.776C168.008 26.5147 167.597 26.1507 167.308 25.684C167.019 25.2173 166.874 24.676 166.874 24.06H168.106C168.106 24.4427 168.195 24.7973 168.372 25.124C168.549 25.4413 168.806 25.698 169.142 25.894C169.487 26.0807 169.912 26.174 170.416 26.174C170.855 26.174 171.228 26.104 171.536 25.964C171.853 25.8147 172.091 25.614 172.25 25.362C172.418 25.11 172.502 24.8253 172.502 24.508C172.502 24.1253 172.418 23.8173 172.25 23.584C172.091 23.3413 171.872 23.1453 171.592 22.996C171.312 22.8467 170.985 22.716 170.612 22.604C170.248 22.4827 169.865 22.3567 169.464 22.226C168.689 21.9647 168.12 21.638 167.756 21.246C167.392 20.854 167.21 20.3453 167.21 19.72C167.21 19.188 167.331 18.7213 167.574 18.32C167.826 17.9187 168.181 17.606 168.638 17.382C169.105 17.1487 169.655 17.032 170.29 17.032C170.915 17.032 171.457 17.1487 171.914 17.382C172.381 17.6153 172.745 17.9373 173.006 18.348C173.267 18.7493 173.398 19.216 173.398 19.748H172.166C172.166 19.4773 172.096 19.2113 171.956 18.95C171.816 18.6887 171.601 18.474 171.312 18.306C171.032 18.1287 170.677 18.04 170.248 18.04C169.893 18.0307 169.576 18.0913 169.296 18.222C169.025 18.3433 168.811 18.5207 168.652 18.754C168.503 18.9873 168.428 19.272 168.428 19.608C168.428 19.9253 168.493 20.182 168.624 20.378C168.764 20.574 168.96 20.742 169.212 20.882C169.473 21.0127 169.777 21.134 170.122 21.246C170.467 21.358 170.85 21.484 171.27 21.624C171.746 21.7827 172.166 21.9787 172.53 22.212C172.903 22.436 173.193 22.7253 173.398 23.08C173.613 23.4347 173.72 23.8873 173.72 24.438C173.72 24.9047 173.594 25.348 173.342 25.768C173.099 26.1787 172.735 26.5147 172.25 26.776C171.765 27.0373 171.153 27.168 170.416 27.168ZM177.641 27.168C177.072 27.168 176.596 27.07 176.213 26.874C175.831 26.6687 175.546 26.4027 175.359 26.076C175.173 25.74 175.079 25.376 175.079 24.984C175.079 24.508 175.201 24.1067 175.443 23.78C175.695 23.444 176.045 23.192 176.493 23.024C176.951 22.8467 177.487 22.758 178.103 22.758H179.965C179.965 22.3193 179.895 21.9553 179.755 21.666C179.625 21.3673 179.429 21.1433 179.167 20.994C178.915 20.8447 178.598 20.77 178.215 20.77C177.767 20.77 177.38 20.882 177.053 21.106C176.727 21.33 176.526 21.6613 176.451 22.1H175.247C175.303 21.596 175.471 21.176 175.751 20.84C176.041 20.4947 176.405 20.2333 176.843 20.056C177.282 19.8693 177.739 19.776 178.215 19.776C178.869 19.776 179.41 19.8973 179.839 20.14C180.278 20.3733 180.605 20.7047 180.819 21.134C181.034 21.554 181.141 22.0533 181.141 22.632V27H180.091L180.021 25.754C179.928 25.95 179.807 26.1367 179.657 26.314C179.517 26.482 179.349 26.6313 179.153 26.762C178.957 26.8833 178.733 26.9813 178.481 27.056C178.239 27.1307 177.959 27.168 177.641 27.168ZM177.823 26.174C178.15 26.174 178.444 26.1087 178.705 25.978C178.976 25.838 179.205 25.6513 179.391 25.418C179.578 25.1753 179.718 24.9093 179.811 24.62C179.914 24.3307 179.965 24.0273 179.965 23.71V23.668H178.201C177.744 23.668 177.375 23.724 177.095 23.836C176.815 23.9387 176.615 24.088 176.493 24.284C176.372 24.4707 176.311 24.6853 176.311 24.928C176.311 25.18 176.367 25.3993 176.479 25.586C176.601 25.7727 176.773 25.9173 176.997 26.02C177.231 26.1227 177.506 26.174 177.823 26.174ZM186.656 27.168C186.255 27.168 185.891 27.112 185.564 27C185.247 26.8787 184.967 26.72 184.724 26.524C184.482 26.328 184.281 26.0993 184.122 25.838L184.024 27H182.96V16.92H184.136V21.106C184.36 20.742 184.682 20.4293 185.102 20.168C185.522 19.9067 186.04 19.776 186.656 19.776C187.338 19.776 187.935 19.9393 188.448 20.266C188.962 20.5833 189.358 21.022 189.638 21.582C189.928 22.1327 190.072 22.7627 190.072 23.472C190.072 24.1813 189.928 24.816 189.638 25.376C189.358 25.936 188.962 26.3747 188.448 26.692C187.935 27.0093 187.338 27.168 186.656 27.168ZM186.516 26.146C186.974 26.146 187.38 26.034 187.734 25.81C188.089 25.586 188.364 25.278 188.56 24.886C188.766 24.4847 188.868 24.0133 188.868 23.472C188.868 22.94 188.766 22.4733 188.56 22.072C188.364 21.6707 188.089 21.358 187.734 21.134C187.38 20.91 186.974 20.798 186.516 20.798C186.05 20.798 185.639 20.91 185.284 21.134C184.93 21.358 184.654 21.6707 184.458 22.072C184.262 22.4733 184.164 22.94 184.164 23.472C184.164 24.0133 184.262 24.4847 184.458 24.886C184.654 25.278 184.93 25.586 185.284 25.81C185.639 26.034 186.05 26.146 186.516 26.146ZM191.724 27V19.944H192.9V27H191.724ZM190.94 19.342L190.814 18.502L193.628 16.71L193.796 17.718L190.94 19.342ZM197.137 27.168C196.568 27.168 196.092 27.07 195.709 26.874C195.327 26.6687 195.042 26.4027 194.855 26.076C194.669 25.74 194.575 25.376 194.575 24.984C194.575 24.508 194.697 24.1067 194.939 23.78C195.191 23.444 195.541 23.192 195.989 23.024C196.447 22.8467 196.983 22.758 197.599 22.758H199.461C199.461 22.3193 199.391 21.9553 199.251 21.666C199.121 21.3673 198.925 21.1433 198.663 20.994C198.411 20.8447 198.094 20.77 197.711 20.77C197.263 20.77 196.876 20.882 196.549 21.106C196.223 21.33 196.022 21.6613 195.947 22.1H194.743C194.799 21.596 194.967 21.176 195.247 20.84C195.537 20.4947 195.901 20.2333 196.339 20.056C196.778 19.8693 197.235 19.776 197.711 19.776C198.365 19.776 198.906 19.8973 199.335 20.14C199.774 20.3733 200.101 20.7047 200.315 21.134C200.53 21.554 200.637 22.0533 200.637 22.632V27H199.587L199.517 25.754C199.424 25.95 199.303 26.1367 199.153 26.314C199.013 26.482 198.845 26.6313 198.649 26.762C198.453 26.8833 198.229 26.9813 197.977 27.056C197.735 27.1307 197.455 27.168 197.137 27.168ZM197.319 26.174C197.646 26.174 197.94 26.1087 198.201 25.978C198.472 25.838 198.701 25.6513 198.887 25.418C199.074 25.1753 199.214 24.9093 199.307 24.62C199.41 24.3307 199.461 24.0273 199.461 23.71V23.668H197.697C197.24 23.668 196.871 23.724 196.591 23.836C196.311 23.9387 196.111 24.088 195.989 24.284C195.868 24.4707 195.807 24.6853 195.807 24.928C195.807 25.18 195.863 25.3993 195.975 25.586C196.097 25.7727 196.269 25.9173 196.493 26.02C196.727 26.1227 197.002 26.174 197.319 26.174ZM211.817 30.08V25.852C211.593 26.216 211.267 26.5287 210.837 26.79C210.417 27.042 209.904 27.168 209.297 27.168C208.607 27.168 208.005 27.0093 207.491 26.692C206.978 26.3653 206.581 25.9267 206.301 25.376C206.021 24.816 205.881 24.1813 205.881 23.472C205.881 22.7627 206.021 22.1327 206.301 21.582C206.581 21.022 206.978 20.5833 207.491 20.266C208.014 19.9393 208.616 19.776 209.297 19.776C209.699 19.776 210.058 19.832 210.375 19.944C210.702 20.056 210.987 20.2147 211.229 20.42C211.472 20.616 211.668 20.8447 211.817 21.106L211.929 19.944H212.993V30.08H211.817ZM209.423 26.146C209.89 26.146 210.301 26.034 210.655 25.81C211.01 25.586 211.285 25.278 211.481 24.886C211.677 24.4847 211.775 24.0133 211.775 23.472C211.775 22.94 211.677 22.4733 211.481 22.072C211.285 21.6707 211.01 21.358 210.655 21.134C210.301 20.91 209.89 20.798 209.423 20.798C208.966 20.798 208.56 20.91 208.205 21.134C207.851 21.358 207.575 21.6707 207.379 22.072C207.183 22.4733 207.085 22.94 207.085 23.472C207.085 24.0133 207.183 24.4847 207.379 24.886C207.575 25.278 207.851 25.586 208.205 25.81C208.56 26.034 208.966 26.146 209.423 26.146ZM217.515 27.168C216.973 27.168 216.497 27.0607 216.087 26.846C215.685 26.6313 215.373 26.3 215.149 25.852C214.934 25.404 214.827 24.844 214.827 24.172V19.944H216.003V24.046C216.003 24.746 216.157 25.2733 216.465 25.628C216.773 25.9827 217.207 26.16 217.767 26.16C218.159 26.16 218.513 26.0667 218.831 25.88C219.148 25.684 219.395 25.4087 219.573 25.054C219.759 24.69 219.853 24.2467 219.853 23.724V19.944H221.029V27H219.965L219.895 25.768C219.68 26.2067 219.363 26.552 218.943 26.804C218.523 27.0467 218.047 27.168 217.515 27.168ZM226.072 27.168C225.409 27.168 224.821 27.014 224.308 26.706C223.804 26.398 223.407 25.9687 223.118 25.418C222.829 24.858 222.684 24.2093 222.684 23.472C222.684 22.7253 222.824 22.0767 223.104 21.526C223.393 20.9753 223.795 20.546 224.308 20.238C224.831 19.93 225.428 19.776 226.1 19.776C226.791 19.776 227.374 19.93 227.85 20.238C228.335 20.546 228.704 20.952 228.956 21.456C229.217 21.9507 229.348 22.4967 229.348 23.094C229.348 23.1873 229.348 23.2853 229.348 23.388C229.348 23.4907 229.343 23.6073 229.334 23.738H223.566V22.828H228.2C228.172 22.184 227.957 21.68 227.556 21.316C227.164 20.952 226.669 20.77 226.072 20.77C225.671 20.77 225.297 20.8633 224.952 21.05C224.616 21.2273 224.345 21.4933 224.14 21.848C223.935 22.1933 223.832 22.6273 223.832 23.15V23.542C223.832 24.1207 223.935 24.606 224.14 24.998C224.355 25.39 224.63 25.684 224.966 25.88C225.311 26.076 225.68 26.174 226.072 26.174C226.567 26.174 226.973 26.0667 227.29 25.852C227.617 25.628 227.85 25.3293 227.99 24.956H229.152C229.04 25.376 228.844 25.754 228.564 26.09C228.284 26.426 227.934 26.692 227.514 26.888C227.103 27.0747 226.623 27.168 226.072 27.168ZM237.314 27.168C236.726 27.168 236.212 27.07 235.774 26.874C235.344 26.678 234.999 26.4073 234.738 26.062C234.486 25.7073 234.332 25.292 234.276 24.816H235.48C235.526 25.0587 235.624 25.2827 235.774 25.488C235.923 25.6933 236.124 25.8613 236.376 25.992C236.637 26.1133 236.954 26.174 237.328 26.174C237.654 26.174 237.925 26.1273 238.14 26.034C238.354 25.9313 238.513 25.796 238.616 25.628C238.728 25.46 238.784 25.278 238.784 25.082C238.784 24.7927 238.714 24.5733 238.574 24.424C238.443 24.2747 238.247 24.158 237.986 24.074C237.724 23.9807 237.407 23.9013 237.034 23.836C236.726 23.78 236.422 23.7053 236.124 23.612C235.825 23.5187 235.559 23.3973 235.326 23.248C235.092 23.0893 234.906 22.898 234.766 22.674C234.635 22.45 234.57 22.1747 234.57 21.848C234.57 21.4467 234.672 21.092 234.878 20.784C235.083 20.4667 235.377 20.2193 235.76 20.042C236.152 19.8647 236.604 19.776 237.118 19.776C237.874 19.776 238.485 19.958 238.952 20.322C239.418 20.686 239.694 21.2133 239.778 21.904H238.616C238.569 21.5493 238.415 21.274 238.154 21.078C237.902 20.8727 237.552 20.77 237.104 20.77C236.665 20.77 236.329 20.8587 236.096 21.036C235.872 21.2133 235.76 21.4467 235.76 21.736C235.76 21.9227 235.82 22.0907 235.942 22.24C236.072 22.38 236.259 22.5013 236.502 22.604C236.754 22.7067 237.062 22.7907 237.426 22.856C237.892 22.94 238.317 23.052 238.7 23.192C239.082 23.332 239.39 23.542 239.624 23.822C239.866 24.0927 239.988 24.48 239.988 24.984C239.988 25.4227 239.876 25.8053 239.652 26.132C239.437 26.4587 239.129 26.7153 238.728 26.902C238.326 27.0793 237.855 27.168 237.314 27.168ZM244.775 27.168C244.113 27.168 243.525 27.014 243.011 26.706C242.507 26.398 242.111 25.9687 241.821 25.418C241.532 24.858 241.387 24.2093 241.387 23.472C241.387 22.7253 241.527 22.0767 241.807 21.526C242.097 20.9753 242.498 20.546 243.011 20.238C243.534 19.93 244.131 19.776 244.803 19.776C245.494 19.776 246.077 19.93 246.553 20.238C247.039 20.546 247.407 20.952 247.659 21.456C247.921 21.9507 248.051 22.4967 248.051 23.094C248.051 23.1873 248.051 23.2853 248.051 23.388C248.051 23.4907 248.047 23.6073 248.037 23.738H242.269V22.828H246.903C246.875 22.184 246.661 21.68 246.259 21.316C245.867 20.952 245.373 20.77 244.775 20.77C244.374 20.77 244.001 20.8633 243.655 21.05C243.319 21.2273 243.049 21.4933 242.843 21.848C242.638 22.1933 242.535 22.6273 242.535 23.15V23.542C242.535 24.1207 242.638 24.606 242.843 24.998C243.058 25.39 243.333 25.684 243.669 25.88C244.015 26.076 244.383 26.174 244.775 26.174C245.27 26.174 245.676 26.0667 245.993 25.852C246.32 25.628 246.553 25.3293 246.693 24.956H247.855C247.743 25.376 247.547 25.754 247.267 26.09C246.987 26.426 246.637 26.692 246.217 26.888C245.807 27.0747 245.326 27.168 244.775 27.168ZM249.638 27V19.944H250.702L250.786 21.288C250.945 20.9707 251.146 20.7 251.388 20.476C251.64 20.252 251.939 20.0793 252.284 19.958C252.639 19.8367 253.04 19.776 253.488 19.776V21.008H253.054C252.756 21.008 252.471 21.05 252.2 21.134C251.93 21.2087 251.687 21.3347 251.472 21.512C251.267 21.6893 251.104 21.932 250.982 22.24C250.87 22.5387 250.814 22.912 250.814 23.36V27H249.638ZM254.82 27V19.944H255.996V27H254.82ZM254.036 19.342L253.91 18.502L256.724 16.71L256.892 17.718L254.036 19.342ZM260.233 27.168C259.664 27.168 259.188 27.07 258.805 26.874C258.422 26.6687 258.138 26.4027 257.951 26.076C257.764 25.74 257.671 25.376 257.671 24.984C257.671 24.508 257.792 24.1067 258.035 23.78C258.287 23.444 258.637 23.192 259.085 23.024C259.542 22.8467 260.079 22.758 260.695 22.758H262.557C262.557 22.3193 262.487 21.9553 262.347 21.666C262.216 21.3673 262.02 21.1433 261.759 20.994C261.507 20.8447 261.19 20.77 260.807 20.77C260.359 20.77 259.972 20.882 259.645 21.106C259.318 21.33 259.118 21.6613 259.043 22.1H257.839C257.895 21.596 258.063 21.176 258.343 20.84C258.632 20.4947 258.996 20.2333 259.435 20.056C259.874 19.8693 260.331 19.776 260.807 19.776C261.46 19.776 262.002 19.8973 262.431 20.14C262.87 20.3733 263.196 20.7047 263.411 21.134C263.626 21.554 263.733 22.0533 263.733 22.632V27H262.683L262.613 25.754C262.52 25.95 262.398 26.1367 262.249 26.314C262.109 26.482 261.941 26.6313 261.745 26.762C261.549 26.8833 261.325 26.9813 261.073 27.056C260.83 27.1307 260.55 27.168 260.233 27.168ZM260.415 26.174C260.742 26.174 261.036 26.1087 261.297 25.978C261.568 25.838 261.796 25.6513 261.983 25.418C262.17 25.1753 262.31 24.9093 262.403 24.62C262.506 24.3307 262.557 24.0273 262.557 23.71V23.668H260.793C260.336 23.668 259.967 23.724 259.687 23.836C259.407 23.9387 259.206 24.088 259.085 24.284C258.964 24.4707 258.903 24.6853 258.903 24.928C258.903 25.18 258.959 25.3993 259.071 25.586C259.192 25.7727 259.365 25.9173 259.589 26.02C259.822 26.1227 260.098 26.174 260.415 26.174ZM268.212 27.168C267.624 27.168 267.111 27.07 266.672 26.874C266.243 26.678 265.898 26.4073 265.636 26.062C265.384 25.7073 265.23 25.292 265.174 24.816H266.378C266.425 25.0587 266.523 25.2827 266.672 25.488C266.822 25.6933 267.022 25.8613 267.274 25.992C267.536 26.1133 267.853 26.174 268.226 26.174C268.553 26.174 268.824 26.1273 269.038 26.034C269.253 25.9313 269.412 25.796 269.514 25.628C269.626 25.46 269.682 25.278 269.682 25.082C269.682 24.7927 269.612 24.5733 269.472 24.424C269.342 24.2747 269.146 24.158 268.884 24.074C268.623 23.9807 268.306 23.9013 267.932 23.836C267.624 23.78 267.321 23.7053 267.022 23.612C266.724 23.5187 266.458 23.3973 266.224 23.248C265.991 23.0893 265.804 22.898 265.664 22.674C265.534 22.45 265.468 22.1747 265.468 21.848C265.468 21.4467 265.571 21.092 265.776 20.784C265.982 20.4667 266.276 20.2193 266.658 20.042C267.05 19.8647 267.503 19.776 268.016 19.776C268.772 19.776 269.384 19.958 269.85 20.322C270.317 20.686 270.592 21.2133 270.676 21.904H269.514C269.468 21.5493 269.314 21.274 269.052 21.078C268.8 20.8727 268.45 20.77 268.002 20.77C267.564 20.77 267.228 20.8587 266.994 21.036C266.77 21.2133 266.658 21.4467 266.658 21.736C266.658 21.9227 266.719 22.0907 266.84 22.24C266.971 22.38 267.158 22.5013 267.4 22.604C267.652 22.7067 267.96 22.7907 268.324 22.856C268.791 22.94 269.216 23.052 269.598 23.192C269.981 23.332 270.289 23.542 270.522 23.822C270.765 24.0927 270.886 24.48 270.886 24.984C270.886 25.4227 270.774 25.8053 270.55 26.132C270.336 26.4587 270.028 26.7153 269.626 26.902C269.225 27.0793 268.754 27.168 268.212 27.168ZM276.298 27V16.92H277.474V27H276.298ZM281.712 27.168C281.142 27.168 280.666 27.07 280.284 26.874C279.901 26.6687 279.616 26.4027 279.43 26.076C279.243 25.74 279.15 25.376 279.15 24.984C279.15 24.508 279.271 24.1067 279.514 23.78C279.766 23.444 280.116 23.192 280.564 23.024C281.021 22.8467 281.558 22.758 282.174 22.758H284.036C284.036 22.3193 283.966 21.9553 283.826 21.666C283.695 21.3673 283.499 21.1433 283.238 20.994C282.986 20.8447 282.668 20.77 282.286 20.77C281.838 20.77 281.45 20.882 281.124 21.106C280.797 21.33 280.596 21.6613 280.522 22.1H279.318C279.374 21.596 279.542 21.176 279.822 20.84C280.111 20.4947 280.475 20.2333 280.914 20.056C281.352 19.8693 281.81 19.776 282.286 19.776C282.939 19.776 283.48 19.8973 283.91 20.14C284.348 20.3733 284.675 20.7047 284.89 21.134C285.104 21.554 285.212 22.0533 285.212 22.632V27H284.162L284.092 25.754C283.998 25.95 283.877 26.1367 283.728 26.314C283.588 26.482 283.42 26.6313 283.224 26.762C283.028 26.8833 282.804 26.9813 282.552 27.056C282.309 27.1307 282.029 27.168 281.712 27.168ZM281.894 26.174C282.22 26.174 282.514 26.1087 282.776 25.978C283.046 25.838 283.275 25.6513 283.462 25.418C283.648 25.1753 283.788 24.9093 283.882 24.62C283.984 24.3307 284.036 24.0273 284.036 23.71V23.668H282.272C281.814 23.668 281.446 23.724 281.166 23.836C280.886 23.9387 280.685 24.088 280.564 24.284C280.442 24.4707 280.382 24.6853 280.382 24.928C280.382 25.18 280.438 25.3993 280.55 25.586C280.671 25.7727 280.844 25.9173 281.068 26.02C281.301 26.1227 281.576 26.174 281.894 26.174ZM290.75 30.08V19.944H291.814L291.912 21.092C292.061 20.868 292.252 20.658 292.486 20.462C292.719 20.2567 292.999 20.0933 293.326 19.972C293.652 19.8413 294.026 19.776 294.446 19.776C295.136 19.776 295.734 19.9393 296.238 20.266C296.751 20.5927 297.148 21.036 297.428 21.596C297.717 22.1467 297.862 22.7767 297.862 23.486C297.862 24.1953 297.717 24.83 297.428 25.39C297.148 25.9407 296.751 26.3747 296.238 26.692C295.724 27.0093 295.122 27.168 294.432 27.168C293.862 27.168 293.358 27.0513 292.92 26.818C292.49 26.5847 292.159 26.258 291.926 25.838V30.08H290.75ZM294.306 26.146C294.763 26.146 295.169 26.034 295.524 25.81C295.878 25.586 296.154 25.278 296.35 24.886C296.555 24.4847 296.658 24.0133 296.658 23.472C296.658 22.94 296.555 22.4733 296.35 22.072C296.154 21.6707 295.878 21.358 295.524 21.134C295.169 20.91 294.763 20.798 294.306 20.798C293.839 20.798 293.428 20.91 293.074 21.134C292.719 21.358 292.444 21.6707 292.248 22.072C292.052 22.4733 291.954 22.94 291.954 23.472C291.954 24.0133 292.052 24.4847 292.248 24.886C292.444 25.278 292.719 25.586 293.074 25.81C293.428 26.034 293.839 26.146 294.306 26.146ZM302.607 27.168C301.945 27.168 301.357 27.014 300.843 26.706C300.339 26.398 299.943 25.9687 299.653 25.418C299.364 24.858 299.219 24.2093 299.219 23.472C299.219 22.7253 299.359 22.0767 299.639 21.526C299.929 20.9753 300.33 20.546 300.843 20.238C301.366 19.93 301.963 19.776 302.635 19.776C303.326 19.776 303.909 19.93 304.385 20.238C304.871 20.546 305.239 20.952 305.491 21.456C305.753 21.9507 305.883 22.4967 305.883 23.094C305.883 23.1873 305.883 23.2853 305.883 23.388C305.883 23.4907 305.879 23.6073 305.869 23.738H300.101V22.828H304.735C304.707 22.184 304.493 21.68 304.091 21.316C303.699 20.952 303.205 20.77 302.607 20.77C302.206 20.77 301.833 20.8633 301.487 21.05C301.151 21.2273 300.881 21.4933 300.675 21.848C300.47 22.1933 300.367 22.6273 300.367 23.15V23.542C300.367 24.1207 300.47 24.606 300.675 24.998C300.89 25.39 301.165 25.684 301.501 25.88C301.847 26.076 302.215 26.174 302.607 26.174C303.102 26.174 303.508 26.0667 303.825 25.852C304.152 25.628 304.385 25.3293 304.525 24.956H305.687C305.575 25.376 305.379 25.754 305.099 26.09C304.819 26.426 304.469 26.692 304.049 26.888C303.639 27.0747 303.158 27.168 302.607 27.168ZM307.47 27V19.944H308.534L308.618 21.288C308.777 20.9707 308.978 20.7 309.22 20.476C309.472 20.252 309.771 20.0793 310.116 19.958C310.471 19.8367 310.872 19.776 311.32 19.776V21.008H310.886C310.588 21.008 310.303 21.05 310.032 21.134C309.762 21.2087 309.519 21.3347 309.304 21.512C309.099 21.6893 308.936 21.932 308.814 22.24C308.702 22.5387 308.646 22.912 308.646 23.36V27H307.47ZM315.312 27.168C314.724 27.168 314.211 27.07 313.772 26.874C313.343 26.678 312.997 26.4073 312.736 26.062C312.484 25.7073 312.33 25.292 312.274 24.816H313.478C313.525 25.0587 313.623 25.2827 313.772 25.488C313.921 25.6933 314.122 25.8613 314.374 25.992C314.635 26.1133 314.953 26.174 315.326 26.174C315.653 26.174 315.923 26.1273 316.138 26.034C316.353 25.9313 316.511 25.796 316.614 25.628C316.726 25.46 316.782 25.278 316.782 25.082C316.782 24.7927 316.712 24.5733 316.572 24.424C316.441 24.2747 316.245 24.158 315.984 24.074C315.723 23.9807 315.405 23.9013 315.032 23.836C314.724 23.78 314.421 23.7053 314.122 23.612C313.823 23.5187 313.557 23.3973 313.324 23.248C313.091 23.0893 312.904 22.898 312.764 22.674C312.633 22.45 312.568 22.1747 312.568 21.848C312.568 21.4467 312.671 21.092 312.876 20.784C313.081 20.4667 313.375 20.2193 313.758 20.042C314.15 19.8647 314.603 19.776 315.116 19.776C315.872 19.776 316.483 19.958 316.95 20.322C317.417 20.686 317.692 21.2133 317.776 21.904H316.614C316.567 21.5493 316.413 21.274 316.152 21.078C315.9 20.8727 315.55 20.77 315.102 20.77C314.663 20.77 314.327 20.8587 314.094 21.036C313.87 21.2133 313.758 21.4467 313.758 21.736C313.758 21.9227 313.819 22.0907 313.94 22.24C314.071 22.38 314.257 22.5013 314.5 22.604C314.752 22.7067 315.06 22.7907 315.424 22.856C315.891 22.94 316.315 23.052 316.698 23.192C317.081 23.332 317.389 23.542 317.622 23.822C317.865 24.0927 317.986 24.48 317.986 24.984C317.986 25.4227 317.874 25.8053 317.65 26.132C317.435 26.4587 317.127 26.7153 316.726 26.902C316.325 27.0793 315.853 27.168 315.312 27.168ZM322.829 27.168C322.176 27.168 321.588 27.0187 321.065 26.72C320.543 26.412 320.132 25.9827 319.833 25.432C319.535 24.872 319.385 24.2233 319.385 23.486C319.385 22.73 319.535 22.0767 319.833 21.526C320.141 20.966 320.557 20.5367 321.079 20.238C321.611 19.93 322.204 19.776 322.857 19.776C323.529 19.776 324.122 19.93 324.635 20.238C325.158 20.5367 325.569 20.966 325.867 21.526C326.175 22.0767 326.329 22.7253 326.329 23.472C326.329 24.2187 326.175 24.872 325.867 25.432C325.559 25.9827 325.144 26.412 324.621 26.72C324.099 27.0187 323.501 27.168 322.829 27.168ZM322.843 26.16C323.245 26.16 323.618 26.062 323.963 25.866C324.309 25.6607 324.589 25.3573 324.803 24.956C325.018 24.5547 325.125 24.06 325.125 23.472C325.125 22.8747 325.018 22.38 324.803 21.988C324.598 21.5867 324.323 21.288 323.977 21.092C323.641 20.8867 323.268 20.784 322.857 20.784C322.465 20.784 322.092 20.8867 321.737 21.092C321.392 21.288 321.112 21.5867 320.897 21.988C320.692 22.38 320.589 22.8747 320.589 23.472C320.589 24.06 320.692 24.5547 320.897 24.956C321.112 25.3573 321.387 25.6607 321.723 25.866C322.069 26.062 322.442 26.16 322.843 26.16ZM327.978 27V19.944H329.042L329.098 21.176C329.322 20.7373 329.639 20.3967 330.05 20.154C330.47 19.902 330.946 19.776 331.478 19.776C332.029 19.776 332.505 19.888 332.906 20.112C333.307 20.3267 333.62 20.658 333.844 21.106C334.068 21.5447 334.18 22.1047 334.18 22.786V27H333.004V22.912C333.004 22.2027 332.845 21.6707 332.528 21.316C332.22 20.9613 331.781 20.784 331.212 20.784C330.82 20.784 330.47 20.882 330.162 21.078C329.854 21.2647 329.607 21.54 329.42 21.904C329.243 22.2587 329.154 22.702 329.154 23.234V27H327.978ZM338.313 27.168C337.744 27.168 337.268 27.07 336.885 26.874C336.502 26.6687 336.218 26.4027 336.031 26.076C335.844 25.74 335.751 25.376 335.751 24.984C335.751 24.508 335.872 24.1067 336.115 23.78C336.367 23.444 336.717 23.192 337.165 23.024C337.622 22.8467 338.159 22.758 338.775 22.758H340.637C340.637 22.3193 340.567 21.9553 340.427 21.666C340.296 21.3673 340.1 21.1433 339.839 20.994C339.587 20.8447 339.27 20.77 338.887 20.77C338.439 20.77 338.052 20.882 337.725 21.106C337.398 21.33 337.198 21.6613 337.123 22.1H335.919C335.975 21.596 336.143 21.176 336.423 20.84C336.712 20.4947 337.076 20.2333 337.515 20.056C337.954 19.8693 338.411 19.776 338.887 19.776C339.54 19.776 340.082 19.8973 340.511 20.14C340.95 20.3733 341.276 20.7047 341.491 21.134C341.706 21.554 341.813 22.0533 341.813 22.632V27H340.763L340.693 25.754C340.6 25.95 340.478 26.1367 340.329 26.314C340.189 26.482 340.021 26.6313 339.825 26.762C339.629 26.8833 339.405 26.9813 339.153 27.056C338.91 27.1307 338.63 27.168 338.313 27.168ZM338.495 26.174C338.822 26.174 339.116 26.1087 339.377 25.978C339.648 25.838 339.876 25.6513 340.063 25.418C340.25 25.1753 340.39 24.9093 340.483 24.62C340.586 24.3307 340.637 24.0273 340.637 23.71V23.668H338.873C338.416 23.668 338.047 23.724 337.767 23.836C337.487 23.9387 337.286 24.088 337.165 24.284C337.044 24.4707 336.983 24.6853 336.983 24.928C336.983 25.18 337.039 25.3993 337.151 25.586C337.272 25.7727 337.445 25.9173 337.669 26.02C337.902 26.1227 338.178 26.174 338.495 26.174ZM350.529 27.168C349.866 27.168 349.269 27.014 348.737 26.706C348.214 26.398 347.804 25.9687 347.505 25.418C347.206 24.858 347.057 24.214 347.057 23.486C347.057 22.7393 347.206 22.0907 347.505 21.54C347.804 20.9893 348.214 20.56 348.737 20.252C349.269 19.9347 349.866 19.776 350.529 19.776C351.369 19.776 352.069 19.9953 352.629 20.434C353.189 20.8633 353.544 21.442 353.693 22.17H352.489C352.396 21.7313 352.167 21.3907 351.803 21.148C351.439 20.9053 351.01 20.784 350.515 20.784C350.114 20.784 349.74 20.8867 349.395 21.092C349.05 21.288 348.774 21.5867 348.569 21.988C348.364 22.3893 348.261 22.884 348.261 23.472C348.261 23.9107 348.322 24.3027 348.443 24.648C348.564 24.984 348.728 25.264 348.933 25.488C349.138 25.712 349.376 25.8847 349.647 26.006C349.927 26.118 350.216 26.174 350.515 26.174C350.851 26.174 351.154 26.1227 351.425 26.02C351.696 25.908 351.924 25.7447 352.111 25.53C352.298 25.3153 352.424 25.0633 352.489 24.774H353.693C353.544 25.4833 353.184 26.062 352.615 26.51C352.055 26.9487 351.36 27.168 350.529 27.168ZM358.513 27.168C357.859 27.168 357.271 27.0187 356.749 26.72C356.226 26.412 355.815 25.9827 355.517 25.432C355.218 24.872 355.069 24.2233 355.069 23.486C355.069 22.73 355.218 22.0767 355.517 21.526C355.825 20.966 356.24 20.5367 356.763 20.238C357.295 19.93 357.887 19.776 358.541 19.776C359.213 19.776 359.805 19.93 360.319 20.238C360.841 20.5367 361.252 20.966 361.551 21.526C361.859 22.0767 362.013 22.7253 362.013 23.472C362.013 24.2187 361.859 24.872 361.551 25.432C361.243 25.9827 360.827 26.412 360.305 26.72C359.782 27.0187 359.185 27.168 358.513 27.168ZM358.527 26.16C358.928 26.16 359.301 26.062 359.647 25.866C359.992 25.6607 360.272 25.3573 360.487 24.956C360.701 24.5547 360.809 24.06 360.809 23.472C360.809 22.8747 360.701 22.38 360.487 21.988C360.281 21.5867 360.006 21.288 359.661 21.092C359.325 20.8867 358.951 20.784 358.541 20.784C358.149 20.784 357.775 20.8867 357.421 21.092C357.075 21.288 356.795 21.5867 356.581 21.988C356.375 22.38 356.273 22.8747 356.273 23.472C356.273 24.06 356.375 24.5547 356.581 24.956C356.795 25.3573 357.071 25.6607 357.407 25.866C357.752 26.062 358.125 26.16 358.527 26.16ZM363.662 27V19.944H364.726L364.81 21.288C364.968 20.9707 365.169 20.7 365.412 20.476C365.664 20.252 365.962 20.0793 366.308 19.958C366.662 19.8367 367.064 19.776 367.512 19.776V21.008H367.078C366.779 21.008 366.494 21.05 366.224 21.134C365.953 21.2087 365.71 21.3347 365.496 21.512C365.29 21.6893 365.127 21.932 365.006 22.24C364.894 22.5387 364.838 22.912 364.838 23.36V27H363.662ZM368.843 27V19.944H369.907L369.991 21.288C370.15 20.9707 370.351 20.7 370.593 20.476C370.845 20.252 371.144 20.0793 371.489 19.958C371.844 19.8367 372.245 19.776 372.693 19.776V21.008H372.259C371.961 21.008 371.676 21.05 371.405 21.134C371.135 21.2087 370.892 21.3347 370.677 21.512C370.472 21.6893 370.309 21.932 370.187 22.24C370.075 22.5387 370.019 22.912 370.019 23.36V27H368.843ZM376.859 27.168C376.196 27.168 375.608 27.014 375.095 26.706C374.591 26.398 374.194 25.9687 373.905 25.418C373.616 24.858 373.471 24.2093 373.471 23.472C373.471 22.7253 373.611 22.0767 373.891 21.526C374.18 20.9753 374.582 20.546 375.095 20.238C375.618 19.93 376.215 19.776 376.887 19.776C377.578 19.776 378.161 19.93 378.637 20.238C379.122 20.546 379.491 20.952 379.743 21.456C380.004 21.9507 380.135 22.4967 380.135 23.094C380.135 23.1873 380.135 23.2853 380.135 23.388C380.135 23.4907 380.13 23.6073 380.121 23.738H374.353V22.828H378.987C378.959 22.184 378.744 21.68 378.343 21.316C377.951 20.952 377.456 20.77 376.859 20.77C376.458 20.77 376.084 20.8633 375.739 21.05C375.403 21.2273 375.132 21.4933 374.927 21.848C374.722 22.1933 374.619 22.6273 374.619 23.15V23.542C374.619 24.1207 374.722 24.606 374.927 24.998C375.142 25.39 375.417 25.684 375.753 25.88C376.098 26.076 376.467 26.174 376.859 26.174C377.354 26.174 377.76 26.0667 378.077 25.852C378.404 25.628 378.637 25.3293 378.777 24.956H379.939C379.827 25.376 379.631 25.754 379.351 26.09C379.071 26.426 378.721 26.692 378.301 26.888C377.89 27.0747 377.41 27.168 376.859 27.168ZM384.9 27.168C384.238 27.168 383.64 27.014 383.108 26.706C382.586 26.398 382.175 25.9687 381.876 25.418C381.578 24.858 381.428 24.214 381.428 23.486C381.428 22.7393 381.578 22.0907 381.876 21.54C382.175 20.9893 382.586 20.56 383.108 20.252C383.64 19.9347 384.238 19.776 384.9 19.776C385.74 19.776 386.44 19.9953 387 20.434C387.56 20.8633 387.915 21.442 388.064 22.17H386.86C386.767 21.7313 386.538 21.3907 386.174 21.148C385.81 20.9053 385.381 20.784 384.886 20.784C384.485 20.784 384.112 20.8867 383.766 21.092C383.421 21.288 383.146 21.5867 382.94 21.988C382.735 22.3893 382.632 22.884 382.632 23.472C382.632 23.9107 382.693 24.3027 382.814 24.648C382.936 24.984 383.099 25.264 383.304 25.488C383.51 25.712 383.748 25.8847 384.018 26.006C384.298 26.118 384.588 26.174 384.886 26.174C385.222 26.174 385.526 26.1227 385.796 26.02C386.067 25.908 386.296 25.7447 386.482 25.53C386.669 25.3153 386.795 25.0633 386.86 24.774H388.064C387.915 25.4833 387.556 26.062 386.986 26.51C386.426 26.9487 385.731 27.168 384.9 27.168ZM392.315 27C391.895 27 391.531 26.9347 391.223 26.804C390.915 26.6733 390.677 26.454 390.509 26.146C390.35 25.8287 390.271 25.404 390.271 24.872V20.938H389.039V19.944H390.271L390.425 18.236H391.447V19.944H393.491V20.938H391.447V24.872C391.447 25.3107 391.535 25.6093 391.713 25.768C391.89 25.9173 392.203 25.992 392.651 25.992H393.407V27H392.315ZM397.321 27.168C396.752 27.168 396.276 27.07 395.893 26.874C395.51 26.6687 395.226 26.4027 395.039 26.076C394.852 25.74 394.759 25.376 394.759 24.984C394.759 24.508 394.88 24.1067 395.123 23.78C395.375 23.444 395.725 23.192 396.173 23.024C396.63 22.8467 397.167 22.758 397.783 22.758H399.645C399.645 22.3193 399.575 21.9553 399.435 21.666C399.304 21.3673 399.108 21.1433 398.847 20.994C398.595 20.8447 398.278 20.77 397.895 20.77C397.447 20.77 397.06 20.882 396.733 21.106C396.406 21.33 396.206 21.6613 396.131 22.1H394.927C394.983 21.596 395.151 21.176 395.431 20.84C395.72 20.4947 396.084 20.2333 396.523 20.056C396.962 19.8693 397.419 19.776 397.895 19.776C398.548 19.776 399.09 19.8973 399.519 20.14C399.958 20.3733 400.284 20.7047 400.499 21.134C400.714 21.554 400.821 22.0533 400.821 22.632V27H399.771L399.701 25.754C399.608 25.95 399.486 26.1367 399.337 26.314C399.197 26.482 399.029 26.6313 398.833 26.762C398.637 26.8833 398.413 26.9813 398.161 27.056C397.918 27.1307 397.638 27.168 397.321 27.168ZM397.503 26.174C397.83 26.174 398.124 26.1087 398.385 25.978C398.656 25.838 398.884 25.6513 399.071 25.418C399.258 25.1753 399.398 24.9093 399.491 24.62C399.594 24.3307 399.645 24.0273 399.645 23.71V23.668H397.881C397.424 23.668 397.055 23.724 396.775 23.836C396.495 23.9387 396.294 24.088 396.173 24.284C396.052 24.4707 395.991 24.6853 395.991 24.928C395.991 25.18 396.047 25.3993 396.159 25.586C396.28 25.7727 396.453 25.9173 396.677 26.02C396.91 26.1227 397.186 26.174 397.503 26.174ZM74.98 50.08V39.944H76.044L76.142 41.092C76.2913 40.868 76.4827 40.658 76.716 40.462C76.9493 40.2567 77.2293 40.0933 77.556 39.972C77.8827 39.8413 78.256 39.776 78.676 39.776C79.3667 39.776 79.964 39.9393 80.468 40.266C80.9813 40.5927 81.378 41.036 81.658 41.596C81.9473 42.1467 82.092 42.7767 82.092 43.486C82.092 44.1953 81.9473 44.83 81.658 45.39C81.378 45.9407 80.9813 46.3747 80.468 46.692C79.9547 47.0093 79.3527 47.168 78.662 47.168C78.0927 47.168 77.5887 47.0513 77.15 46.818C76.7207 46.5847 76.3893 46.258 76.156 45.838V50.08H74.98ZM78.536 46.146C78.9933 46.146 79.3993 46.034 79.754 45.81C80.1087 45.586 80.384 45.278 80.58 44.886C80.7853 44.4847 80.888 44.0133 80.888 43.472C80.888 42.94 80.7853 42.4733 80.58 42.072C80.384 41.6707 80.1087 41.358 79.754 41.134C79.3993 40.91 78.9933 40.798 78.536 40.798C78.0693 40.798 77.6587 40.91 77.304 41.134C76.9493 41.358 76.674 41.6707 76.478 42.072C76.282 42.4733 76.184 42.94 76.184 43.472C76.184 44.0133 76.282 44.4847 76.478 44.886C76.674 45.278 76.9493 45.586 77.304 45.81C77.6587 46.034 78.0693 46.146 78.536 46.146ZM86.0397 47.168C85.4703 47.168 84.9943 47.07 84.6117 46.874C84.229 46.6687 83.9443 46.4027 83.7577 46.076C83.571 45.74 83.4777 45.376 83.4777 44.984C83.4777 44.508 83.599 44.1067 83.8417 43.78C84.0937 43.444 84.4437 43.192 84.8917 43.024C85.349 42.8467 85.8857 42.758 86.5017 42.758H88.3637C88.3637 42.3193 88.2937 41.9553 88.1537 41.666C88.023 41.3673 87.827 41.1433 87.5657 40.994C87.3137 40.8447 86.9963 40.77 86.6137 40.77C86.1657 40.77 85.7783 40.882 85.4517 41.106C85.125 41.33 84.9243 41.6613 84.8497 42.1H83.6457C83.7017 41.596 83.8697 41.176 84.1497 40.84C84.439 40.4947 84.803 40.2333 85.2417 40.056C85.6803 39.8693 86.1377 39.776 86.6137 39.776C87.267 39.776 87.8083 39.8973 88.2377 40.14C88.6763 40.3733 89.003 40.7047 89.2177 41.134C89.4323 41.554 89.5397 42.0533 89.5397 42.632V47H88.4897L88.4197 45.754C88.3263 45.95 88.205 46.1367 88.0557 46.314C87.9157 46.482 87.7477 46.6313 87.5517 46.762C87.3557 46.8833 87.1317 46.9813 86.8797 47.056C86.637 47.1307 86.357 47.168 86.0397 47.168ZM86.2217 46.174C86.5483 46.174 86.8423 46.1087 87.1037 45.978C87.3743 45.838 87.603 45.6513 87.7897 45.418C87.9763 45.1753 88.1163 44.9093 88.2097 44.62C88.3123 44.3307 88.3637 44.0273 88.3637 43.71V43.668H86.5997C86.1423 43.668 85.7737 43.724 85.4937 43.836C85.2137 43.9387 85.013 44.088 84.8917 44.284C84.7703 44.4707 84.7097 44.6853 84.7097 44.928C84.7097 45.18 84.7657 45.3993 84.8777 45.586C84.999 45.7727 85.1717 45.9173 85.3957 46.02C85.629 46.1227 85.9043 46.174 86.2217 46.174ZM91.3589 47V39.944H92.4229L92.5069 41.288C92.6656 40.9707 92.8662 40.7 93.1089 40.476C93.3609 40.252 93.6596 40.0793 94.0049 39.958C94.3596 39.8367 94.7609 39.776 95.2089 39.776V41.008H94.7749C94.4762 41.008 94.1916 41.05 93.9209 41.134C93.6502 41.2087 93.4076 41.3347 93.1929 41.512C92.9876 41.6893 92.8242 41.932 92.7029 42.24C92.5909 42.5387 92.5349 42.912 92.5349 43.36V47H91.3589ZM98.8365 47.168C98.2672 47.168 97.7912 47.07 97.4085 46.874C97.0259 46.6687 96.7412 46.4027 96.5545 46.076C96.3679 45.74 96.2745 45.376 96.2745 44.984C96.2745 44.508 96.3959 44.1067 96.6385 43.78C96.8905 43.444 97.2405 43.192 97.6885 43.024C98.1459 42.8467 98.6825 42.758 99.2985 42.758H101.161C101.161 42.3193 101.091 41.9553 100.951 41.666C100.82 41.3673 100.624 41.1433 100.363 40.994C100.111 40.8447 99.7932 40.77 99.4105 40.77C98.9625 40.77 98.5752 40.882 98.2485 41.106C97.9219 41.33 97.7212 41.6613 97.6465 42.1H96.4425C96.4985 41.596 96.6665 41.176 96.9465 40.84C97.2359 40.4947 97.5999 40.2333 98.0385 40.056C98.4772 39.8693 98.9345 39.776 99.4105 39.776C100.064 39.776 100.605 39.8973 101.035 40.14C101.473 40.3733 101.8 40.7047 102.015 41.134C102.229 41.554 102.337 42.0533 102.337 42.632V47H101.287L101.217 45.754C101.123 45.95 101.002 46.1367 100.853 46.314C100.713 46.482 100.545 46.6313 100.349 46.762C100.153 46.8833 99.9285 46.9813 99.6765 47.056C99.4339 47.1307 99.1539 47.168 98.8365 47.168ZM99.0185 46.174C99.3452 46.174 99.6392 46.1087 99.9005 45.978C100.171 45.838 100.4 45.6513 100.587 45.418C100.773 45.1753 100.913 44.9093 101.007 44.62C101.109 44.3307 101.161 44.0273 101.161 43.71V43.668H99.3965C98.9392 43.668 98.5705 43.724 98.2905 43.836C98.0105 43.9387 97.8099 44.088 97.6885 44.284C97.5672 44.4707 97.5065 44.6853 97.5065 44.928C97.5065 45.18 97.5625 45.3993 97.6745 45.586C97.7959 45.7727 97.9685 45.9173 98.1925 46.02C98.4259 46.1227 98.7012 46.174 99.0185 46.174ZM107.875 50.08V39.944H108.939L109.037 41.092C109.186 40.868 109.377 40.658 109.611 40.462C109.844 40.2567 110.124 40.0933 110.451 39.972C110.777 39.8413 111.151 39.776 111.571 39.776C112.261 39.776 112.859 39.9393 113.363 40.266C113.876 40.5927 114.273 41.036 114.553 41.596C114.842 42.1467 114.987 42.7767 114.987 43.486C114.987 44.1953 114.842 44.83 114.553 45.39C114.273 45.9407 113.876 46.3747 113.363 46.692C112.849 47.0093 112.247 47.168 111.557 47.168C110.987 47.168 110.483 47.0513 110.045 46.818C109.615 46.5847 109.284 46.258 109.051 45.838V50.08H107.875ZM111.431 46.146C111.888 46.146 112.294 46.034 112.649 45.81C113.003 45.586 113.279 45.278 113.475 44.886C113.68 44.4847 113.783 44.0133 113.783 43.472C113.783 42.94 113.68 42.4733 113.475 42.072C113.279 41.6707 113.003 41.358 112.649 41.134C112.294 40.91 111.888 40.798 111.431 40.798C110.964 40.798 110.553 40.91 110.199 41.134C109.844 41.358 109.569 41.6707 109.373 42.072C109.177 42.4733 109.079 42.94 109.079 43.472C109.079 44.0133 109.177 44.4847 109.373 44.886C109.569 45.278 109.844 45.586 110.199 45.81C110.553 46.034 110.964 46.146 111.431 46.146ZM119.732 47.168C119.07 47.168 118.482 47.014 117.968 46.706C117.464 46.398 117.068 45.9687 116.778 45.418C116.489 44.858 116.344 44.2093 116.344 43.472C116.344 42.7253 116.484 42.0767 116.764 41.526C117.054 40.9753 117.455 40.546 117.968 40.238C118.491 39.93 119.088 39.776 119.76 39.776C120.451 39.776 121.034 39.93 121.51 40.238C121.996 40.546 122.364 40.952 122.616 41.456C122.878 41.9507 123.008 42.4967 123.008 43.094C123.008 43.1873 123.008 43.2853 123.008 43.388C123.008 43.4907 123.004 43.6073 122.994 43.738H117.226V42.828H121.86C121.832 42.184 121.618 41.68 121.216 41.316C120.824 40.952 120.33 40.77 119.732 40.77C119.331 40.77 118.958 40.8633 118.612 41.05C118.276 41.2273 118.006 41.4933 117.8 41.848C117.595 42.1933 117.492 42.6273 117.492 43.15V43.542C117.492 44.1207 117.595 44.606 117.8 44.998C118.015 45.39 118.29 45.684 118.626 45.88C118.972 46.076 119.34 46.174 119.732 46.174C120.227 46.174 120.633 46.0667 120.95 45.852C121.277 45.628 121.51 45.3293 121.65 44.956H122.812C122.7 45.376 122.504 45.754 122.224 46.09C121.944 46.426 121.594 46.692 121.174 46.888C120.764 47.0747 120.283 47.168 119.732 47.168ZM127.703 47.168C127.022 47.168 126.425 47.0093 125.911 46.692C125.398 46.3653 125.001 45.922 124.721 45.362C124.441 44.802 124.301 44.1673 124.301 43.458C124.301 42.7487 124.441 42.1187 124.721 41.568C125.001 41.008 125.398 40.5693 125.911 40.252C126.434 39.9347 127.036 39.776 127.717 39.776C128.296 39.776 128.8 39.8927 129.229 40.126C129.668 40.3593 130.004 40.686 130.237 41.106V36.92H131.413V47H130.349L130.251 45.838C130.102 46.0713 129.911 46.2907 129.677 46.496C129.444 46.692 129.164 46.8553 128.837 46.986C128.511 47.1073 128.133 47.168 127.703 47.168ZM127.843 46.146C128.31 46.146 128.721 46.034 129.075 45.81C129.43 45.586 129.705 45.278 129.901 44.886C130.097 44.4847 130.195 44.0133 130.195 43.472C130.195 42.94 130.097 42.4733 129.901 42.072C129.705 41.6707 129.43 41.358 129.075 41.134C128.721 40.91 128.31 40.798 127.843 40.798C127.386 40.798 126.98 40.91 126.625 41.134C126.271 41.358 125.995 41.6707 125.799 42.072C125.603 42.4733 125.505 42.94 125.505 43.472C125.505 44.0133 125.603 44.4847 125.799 44.886C125.995 45.278 126.271 45.586 126.625 45.81C126.98 46.034 127.386 46.146 127.843 46.146ZM133.373 47V39.944H134.549V47H133.373ZM132.589 39.342L132.463 38.502L135.277 36.71L135.445 37.718L132.589 39.342ZM136.49 47V39.944H137.554L137.638 41.288C137.796 40.9707 137.997 40.7 138.24 40.476C138.492 40.252 138.79 40.0793 139.136 39.958C139.49 39.8367 139.892 39.776 140.34 39.776V41.008H139.906C139.607 41.008 139.322 41.05 139.052 41.134C138.781 41.2087 138.538 41.3347 138.324 41.512C138.118 41.6893 137.955 41.932 137.834 42.24C137.722 42.5387 137.666 42.912 137.666 43.36V47H136.49ZM144.331 47.168C143.743 47.168 143.23 47.07 142.791 46.874C142.362 46.678 142.017 46.4073 141.755 46.062C141.503 45.7073 141.349 45.292 141.293 44.816H142.497C142.544 45.0587 142.642 45.2827 142.791 45.488C142.941 45.6933 143.141 45.8613 143.393 45.992C143.655 46.1133 143.972 46.174 144.345 46.174C144.672 46.174 144.943 46.1273 145.157 46.034C145.372 45.9313 145.531 45.796 145.633 45.628C145.745 45.46 145.801 45.278 145.801 45.082C145.801 44.7927 145.731 44.5733 145.591 44.424C145.461 44.2747 145.265 44.158 145.003 44.074C144.742 43.9807 144.425 43.9013 144.051 43.836C143.743 43.78 143.44 43.7053 143.141 43.612C142.843 43.5187 142.577 43.3973 142.343 43.248C142.11 43.0893 141.923 42.898 141.783 42.674C141.653 42.45 141.587 42.1747 141.587 41.848C141.587 41.4467 141.69 41.092 141.895 40.784C142.101 40.4667 142.395 40.2193 142.777 40.042C143.169 39.8647 143.622 39.776 144.135 39.776C144.891 39.776 145.503 39.958 145.969 40.322C146.436 40.686 146.711 41.2133 146.795 41.904H145.633C145.587 41.5493 145.433 41.274 145.171 41.078C144.919 40.8727 144.569 40.77 144.121 40.77C143.683 40.77 143.347 40.8587 143.113 41.036C142.889 41.2133 142.777 41.4467 142.777 41.736C142.777 41.9227 142.838 42.0907 142.959 42.24C143.09 42.38 143.277 42.5013 143.519 42.604C143.771 42.7067 144.079 42.7907 144.443 42.856C144.91 42.94 145.335 43.052 145.717 43.192C146.1 43.332 146.408 43.542 146.641 43.822C146.884 44.0927 147.005 44.48 147.005 44.984C147.005 45.4227 146.893 45.8053 146.669 46.132C146.455 46.4587 146.147 46.7153 145.745 46.902C145.344 47.0793 144.873 47.168 144.331 47.168ZM151.793 47.168C151.13 47.168 150.542 47.014 150.029 46.706C149.525 46.398 149.128 45.9687 148.839 45.418C148.549 44.858 148.405 44.2093 148.405 43.472C148.405 42.7253 148.545 42.0767 148.825 41.526C149.114 40.9753 149.515 40.546 150.029 40.238C150.551 39.93 151.149 39.776 151.821 39.776C152.511 39.776 153.095 39.93 153.571 40.238C154.056 40.546 154.425 40.952 154.677 41.456C154.938 41.9507 155.069 42.4967 155.069 43.094C155.069 43.1873 155.069 43.2853 155.069 43.388C155.069 43.4907 155.064 43.6073 155.055 43.738H149.287V42.828H153.921C153.893 42.184 153.678 41.68 153.277 41.316C152.885 40.952 152.39 40.77 151.793 40.77C151.391 40.77 151.018 40.8633 150.673 41.05C150.337 41.2273 150.066 41.4933 149.861 41.848C149.655 42.1933 149.553 42.6273 149.553 43.15V43.542C149.553 44.1207 149.655 44.606 149.861 44.998C150.075 45.39 150.351 45.684 150.687 45.88C151.032 46.076 151.401 46.174 151.793 46.174C152.287 46.174 152.693 46.0667 153.011 45.852C153.337 45.628 153.571 45.3293 153.711 44.956H154.873C154.761 45.376 154.565 45.754 154.285 46.09C154.005 46.426 153.655 46.692 153.235 46.888C152.824 47.0747 152.343 47.168 151.793 47.168ZM156.656 47V36.92H157.832V47H156.656ZM162.923 47.168C162.27 47.168 161.682 47.0187 161.159 46.72C160.636 46.412 160.226 45.9827 159.927 45.432C159.628 44.872 159.479 44.2233 159.479 43.486C159.479 42.73 159.628 42.0767 159.927 41.526C160.235 40.966 160.65 40.5367 161.173 40.238C161.705 39.93 162.298 39.776 162.951 39.776C163.623 39.776 164.216 39.93 164.729 40.238C165.252 40.5367 165.662 40.966 165.961 41.526C166.269 42.0767 166.423 42.7253 166.423 43.472C166.423 44.2187 166.269 44.872 165.961 45.432C165.653 45.9827 165.238 46.412 164.715 46.72C164.192 47.0187 163.595 47.168 162.923 47.168ZM162.937 46.16C163.338 46.16 163.712 46.062 164.057 45.866C164.402 45.6607 164.682 45.3573 164.897 44.956C165.112 44.5547 165.219 44.06 165.219 43.472C165.219 42.8747 165.112 42.38 164.897 41.988C164.692 41.5867 164.416 41.288 164.071 41.092C163.735 40.8867 163.362 40.784 162.951 40.784C162.559 40.784 162.186 40.8867 161.831 41.092C161.486 41.288 161.206 41.5867 160.991 41.988C160.786 42.38 160.683 42.8747 160.683 43.472C160.683 44.06 160.786 44.5547 160.991 44.956C161.206 45.3573 161.481 45.6607 161.817 45.866C162.162 46.062 162.536 46.16 162.937 46.16ZM168.492 47.07C168.258 47.07 168.062 46.9953 167.904 46.846C167.754 46.6873 167.68 46.496 167.68 46.272C167.68 46.048 167.754 45.8613 167.904 45.712C168.062 45.5533 168.258 45.474 168.492 45.474C168.725 45.474 168.916 45.5533 169.066 45.712C169.215 45.8613 169.29 46.048 169.29 46.272C169.29 46.496 169.215 46.6873 169.066 46.846C168.916 46.9953 168.725 47.07 168.492 47.07ZM181.608 48.33L178.318 43.178H179.676L182.966 48.33H181.608ZM179.004 47.168C178.061 47.168 177.231 46.958 176.512 46.538C175.803 46.1087 175.247 45.516 174.846 44.76C174.454 43.9947 174.258 43.108 174.258 42.1C174.258 41.1013 174.454 40.224 174.846 39.468C175.247 38.7027 175.803 38.1053 176.512 37.676C177.231 37.2467 178.061 37.032 179.004 37.032C179.965 37.032 180.801 37.2467 181.51 37.676C182.219 38.1053 182.77 38.7027 183.162 39.468C183.563 40.224 183.764 41.1013 183.764 42.1C183.764 43.108 183.563 43.9947 183.162 44.76C182.77 45.516 182.219 46.1087 181.51 46.538C180.801 46.958 179.965 47.168 179.004 47.168ZM179.004 46.132C179.713 46.132 180.334 45.9733 180.866 45.656C181.407 45.3293 181.823 44.8673 182.112 44.27C182.411 43.6633 182.56 42.94 182.56 42.1C182.56 41.26 182.411 40.5413 182.112 39.944C181.823 39.3373 181.407 38.8753 180.866 38.558C180.334 38.2407 179.713 38.082 179.004 38.082C178.304 38.082 177.683 38.2407 177.142 38.558C176.61 38.8753 176.195 39.3373 175.896 39.944C175.607 40.5413 175.462 41.26 175.462 42.1C175.462 42.94 175.607 43.6633 175.896 44.27C176.195 44.8673 176.61 45.3293 177.142 45.656C177.683 45.9733 178.304 46.132 179.004 46.132ZM187.97 47.168C187.428 47.168 186.952 47.0607 186.542 46.846C186.14 46.6313 185.828 46.3 185.604 45.852C185.389 45.404 185.282 44.844 185.282 44.172V39.944H186.458V44.046C186.458 44.746 186.612 45.2733 186.92 45.628C187.228 45.9827 187.662 46.16 188.222 46.16C188.614 46.16 188.968 46.0667 189.286 45.88C189.603 45.684 189.85 45.4087 190.028 45.054C190.214 44.69 190.308 44.2467 190.308 43.724V39.944H191.484V47H190.42L190.35 45.768C190.135 46.2067 189.818 46.552 189.398 46.804C188.978 47.0467 188.502 47.168 187.97 47.168ZM193.545 47V39.944H194.721V47H193.545ZM194.133 38.446C193.9 38.446 193.704 38.3713 193.545 38.222C193.396 38.0633 193.321 37.8673 193.321 37.634C193.321 37.4007 193.396 37.214 193.545 37.074C193.704 36.9247 193.9 36.85 194.133 36.85C194.357 36.85 194.548 36.9247 194.707 37.074C194.866 37.214 194.945 37.4007 194.945 37.634C194.945 37.8673 194.866 38.0633 194.707 38.222C194.548 38.3713 194.357 38.446 194.133 38.446ZM199.89 47.168C199.228 47.168 198.64 47.014 198.126 46.706C197.622 46.398 197.226 45.9687 196.936 45.418C196.647 44.858 196.502 44.2093 196.502 43.472C196.502 42.7253 196.642 42.0767 196.922 41.526C197.212 40.9753 197.613 40.546 198.126 40.238C198.649 39.93 199.246 39.776 199.918 39.776C200.609 39.776 201.192 39.93 201.668 40.238C202.154 40.546 202.522 40.952 202.774 41.456C203.036 41.9507 203.166 42.4967 203.166 43.094C203.166 43.1873 203.166 43.2853 203.166 43.388C203.166 43.4907 203.162 43.6073 203.152 43.738H197.384V42.828H202.018C201.99 42.184 201.776 41.68 201.374 41.316C200.982 40.952 200.488 40.77 199.89 40.77C199.489 40.77 199.116 40.8633 198.77 41.05C198.434 41.2273 198.164 41.4933 197.958 41.848C197.753 42.1933 197.65 42.6273 197.65 43.15V43.542C197.65 44.1207 197.753 44.606 197.958 44.998C198.173 45.39 198.448 45.684 198.784 45.88C199.13 46.076 199.498 46.174 199.89 46.174C200.385 46.174 200.791 46.0667 201.108 45.852C201.435 45.628 201.668 45.3293 201.808 44.956H202.97C202.858 45.376 202.662 45.754 202.382 46.09C202.102 46.426 201.752 46.692 201.332 46.888C200.922 47.0747 200.441 47.168 199.89 47.168ZM204.753 47V39.944H205.817L205.901 41.288C206.06 40.9707 206.261 40.7 206.503 40.476C206.755 40.252 207.054 40.0793 207.399 39.958C207.754 39.8367 208.155 39.776 208.603 39.776V41.008H208.169C207.871 41.008 207.586 41.05 207.315 41.134C207.045 41.2087 206.802 41.3347 206.587 41.512C206.382 41.6893 206.219 41.932 206.097 42.24C205.985 42.5387 205.929 42.912 205.929 43.36V47H204.753ZM212.825 47.168C212.172 47.168 211.584 47.0187 211.061 46.72C210.539 46.412 210.128 45.9827 209.829 45.432C209.531 44.872 209.381 44.2233 209.381 43.486C209.381 42.73 209.531 42.0767 209.829 41.526C210.137 40.966 210.553 40.5367 211.075 40.238C211.607 39.93 212.2 39.776 212.853 39.776C213.525 39.776 214.118 39.93 214.631 40.238C215.154 40.5367 215.565 40.966 215.863 41.526C216.171 42.0767 216.325 42.7253 216.325 43.472C216.325 44.2187 216.171 44.872 215.863 45.432C215.555 45.9827 215.14 46.412 214.617 46.72C214.095 47.0187 213.497 47.168 212.825 47.168ZM212.839 46.16C213.241 46.16 213.614 46.062 213.959 45.866C214.305 45.6607 214.585 45.3573 214.799 44.956C215.014 44.5547 215.121 44.06 215.121 43.472C215.121 42.8747 215.014 42.38 214.799 41.988C214.594 41.5867 214.319 41.288 213.973 41.092C213.637 40.8867 213.264 40.784 212.853 40.784C212.461 40.784 212.088 40.8867 211.733 41.092C211.388 41.288 211.108 41.5867 210.893 41.988C210.688 42.38 210.585 42.8747 210.585 43.472C210.585 44.06 210.688 44.5547 210.893 44.956C211.108 45.3573 211.383 45.6607 211.719 45.866C212.065 46.062 212.438 46.16 212.839 46.16ZM222.463 50.08L224.185 46.216H223.779L221.007 39.944H222.281L224.577 45.334L226.985 39.944H228.203L223.695 50.08H222.463ZM233.191 47V39.944H234.255L234.311 41.176C234.535 40.7373 234.852 40.3967 235.263 40.154C235.683 39.902 236.159 39.776 236.691 39.776C237.242 39.776 237.718 39.888 238.119 40.112C238.52 40.3267 238.833 40.658 239.057 41.106C239.281 41.5447 239.393 42.1047 239.393 42.786V47H238.217V42.912C238.217 42.2027 238.058 41.6707 237.741 41.316C237.433 40.9613 236.994 40.784 236.425 40.784C236.033 40.784 235.683 40.882 235.375 41.078C235.067 41.2647 234.82 41.54 234.633 41.904C234.456 42.2587 234.367 42.702 234.367 43.234V47H233.191ZM244.324 47.168C243.661 47.168 243.073 47.014 242.56 46.706C242.056 46.398 241.659 45.9687 241.37 45.418C241.081 44.858 240.936 44.2093 240.936 43.472C240.936 42.7253 241.076 42.0767 241.356 41.526C241.645 40.9753 242.047 40.546 242.56 40.238C243.083 39.93 243.68 39.776 244.352 39.776C245.043 39.776 245.626 39.93 246.102 40.238C246.587 40.546 246.956 40.952 247.208 41.456C247.469 41.9507 247.6 42.4967 247.6 43.094C247.6 43.1873 247.6 43.2853 247.6 43.388C247.6 43.4907 247.595 43.6073 247.586 43.738H241.818V42.828H246.452C246.424 42.184 246.209 41.68 245.808 41.316C245.416 40.952 244.921 40.77 244.324 40.77C243.923 40.77 243.549 40.8633 243.204 41.05C242.868 41.2273 242.597 41.4933 242.392 41.848C242.187 42.1933 242.084 42.6273 242.084 43.15V43.542C242.084 44.1207 242.187 44.606 242.392 44.998C242.607 45.39 242.882 45.684 243.218 45.88C243.563 46.076 243.932 46.174 244.324 46.174C244.819 46.174 245.225 46.0667 245.542 45.852C245.869 45.628 246.102 45.3293 246.242 44.956H247.404C247.292 45.376 247.096 45.754 246.816 46.09C246.536 46.426 246.186 46.692 245.766 46.888C245.355 47.0747 244.875 47.168 244.324 47.168ZM252.365 47.168C251.702 47.168 251.105 47.014 250.573 46.706C250.05 46.398 249.64 45.9687 249.341 45.418C249.042 44.858 248.893 44.214 248.893 43.486C248.893 42.7393 249.042 42.0907 249.341 41.54C249.64 40.9893 250.05 40.56 250.573 40.252C251.105 39.9347 251.702 39.776 252.365 39.776C253.205 39.776 253.905 39.9953 254.465 40.434C255.025 40.8633 255.38 41.442 255.529 42.17H254.325C254.232 41.7313 254.003 41.3907 253.639 41.148C253.275 40.9053 252.846 40.784 252.351 40.784C251.95 40.784 251.576 40.8867 251.231 41.092C250.886 41.288 250.61 41.5867 250.405 41.988C250.2 42.3893 250.097 42.884 250.097 43.472C250.097 43.9107 250.158 44.3027 250.279 44.648C250.4 44.984 250.564 45.264 250.769 45.488C250.974 45.712 251.212 45.8847 251.483 46.006C251.763 46.118 252.052 46.174 252.351 46.174C252.687 46.174 252.99 46.1227 253.261 46.02C253.532 45.908 253.76 45.7447 253.947 45.53C254.134 45.3153 254.26 45.0633 254.325 44.774H255.529C255.38 45.4833 255.02 46.062 254.451 46.51C253.891 46.9487 253.196 47.168 252.365 47.168ZM260.293 47.168C259.63 47.168 259.042 47.014 258.529 46.706C258.025 46.398 257.628 45.9687 257.339 45.418C257.049 44.858 256.905 44.2093 256.905 43.472C256.905 42.7253 257.045 42.0767 257.325 41.526C257.614 40.9753 258.015 40.546 258.529 40.238C259.051 39.93 259.649 39.776 260.321 39.776C261.011 39.776 261.595 39.93 262.071 40.238C262.556 40.546 262.925 40.952 263.177 41.456C263.438 41.9507 263.569 42.4967 263.569 43.094C263.569 43.1873 263.569 43.2853 263.569 43.388C263.569 43.4907 263.564 43.6073 263.555 43.738H257.787V42.828H262.421C262.393 42.184 262.178 41.68 261.777 41.316C261.385 40.952 260.89 40.77 260.293 40.77C259.891 40.77 259.518 40.8633 259.173 41.05C258.837 41.2273 258.566 41.4933 258.361 41.848C258.155 42.1933 258.053 42.6273 258.053 43.15V43.542C258.053 44.1207 258.155 44.606 258.361 44.998C258.575 45.39 258.851 45.684 259.187 45.88C259.532 46.076 259.901 46.174 260.293 46.174C260.787 46.174 261.193 46.0667 261.511 45.852C261.837 45.628 262.071 45.3293 262.211 44.956H263.373C263.261 45.376 263.065 45.754 262.785 46.09C262.505 46.426 262.155 46.692 261.735 46.888C261.324 47.0747 260.843 47.168 260.293 47.168ZM267.816 47.168C267.228 47.168 266.714 47.07 266.276 46.874C265.846 46.678 265.501 46.4073 265.24 46.062C264.988 45.7073 264.834 45.292 264.778 44.816H265.982C266.028 45.0587 266.126 45.2827 266.276 45.488C266.425 45.6933 266.626 45.8613 266.878 45.992C267.139 46.1133 267.456 46.174 267.83 46.174C268.156 46.174 268.427 46.1273 268.642 46.034C268.856 45.9313 269.015 45.796 269.118 45.628C269.23 45.46 269.286 45.278 269.286 45.082C269.286 44.7927 269.216 44.5733 269.076 44.424C268.945 44.2747 268.749 44.158 268.488 44.074C268.226 43.9807 267.909 43.9013 267.536 43.836C267.228 43.78 266.924 43.7053 266.626 43.612C266.327 43.5187 266.061 43.3973 265.828 43.248C265.594 43.0893 265.408 42.898 265.268 42.674C265.137 42.45 265.072 42.1747 265.072 41.848C265.072 41.4467 265.174 41.092 265.38 40.784C265.585 40.4667 265.879 40.2193 266.262 40.042C266.654 39.8647 267.106 39.776 267.62 39.776C268.376 39.776 268.987 39.958 269.454 40.322C269.92 40.686 270.196 41.2133 270.28 41.904H269.118C269.071 41.5493 268.917 41.274 268.656 41.078C268.404 40.8727 268.054 40.77 267.606 40.77C267.167 40.77 266.831 40.8587 266.598 41.036C266.374 41.2133 266.262 41.4467 266.262 41.736C266.262 41.9227 266.322 42.0907 266.444 42.24C266.574 42.38 266.761 42.5013 267.004 42.604C267.256 42.7067 267.564 42.7907 267.928 42.856C268.394 42.94 268.819 43.052 269.202 43.192C269.584 43.332 269.892 43.542 270.126 43.822C270.368 44.0927 270.49 44.48 270.49 44.984C270.49 45.4227 270.378 45.8053 270.154 46.132C269.939 46.4587 269.631 46.7153 269.23 46.902C268.828 47.0793 268.357 47.168 267.816 47.168ZM272.295 47V39.944H273.471V47H272.295ZM272.883 38.446C272.65 38.446 272.454 38.3713 272.295 38.222C272.146 38.0633 272.071 37.8673 272.071 37.634C272.071 37.4007 272.146 37.214 272.295 37.074C272.454 36.9247 272.65 36.85 272.883 36.85C273.107 36.85 273.298 36.9247 273.457 37.074C273.616 37.214 273.695 37.4007 273.695 37.634C273.695 37.8673 273.616 38.0633 273.457 38.222C273.298 38.3713 273.107 38.446 272.883 38.446ZM278.318 47C277.898 47 277.534 46.9347 277.226 46.804C276.918 46.6733 276.68 46.454 276.512 46.146C276.354 45.8287 276.274 45.404 276.274 44.872V40.938H275.042V39.944H276.274L276.428 38.236H277.45V39.944H279.494V40.938H277.45V44.872C277.45 45.3107 277.539 45.6093 277.716 45.768C277.894 45.9173 278.206 45.992 278.654 45.992H279.41V47H278.318ZM283.987 47.168C283.334 47.168 282.746 47.0187 282.223 46.72C281.701 46.412 281.29 45.9827 280.991 45.432C280.693 44.872 280.543 44.2233 280.543 43.486C280.543 42.73 280.693 42.0767 280.991 41.526C281.299 40.966 281.715 40.5367 282.237 40.238C282.769 39.93 283.362 39.776 284.015 39.776C284.687 39.776 285.28 39.93 285.793 40.238C286.316 40.5367 286.727 40.966 287.025 41.526C287.333 42.0767 287.487 42.7253 287.487 43.472C287.487 44.2187 287.333 44.872 287.025 45.432C286.717 45.9827 286.302 46.412 285.779 46.72C285.257 47.0187 284.659 47.168 283.987 47.168ZM284.001 46.16C284.403 46.16 284.776 46.062 285.121 45.866C285.467 45.6607 285.747 45.3573 285.961 44.956C286.176 44.5547 286.283 44.06 286.283 43.472C286.283 42.8747 286.176 42.38 285.961 41.988C285.756 41.5867 285.481 41.288 285.135 41.092C284.799 40.8867 284.426 40.784 284.015 40.784C283.623 40.784 283.25 40.8867 282.895 41.092C282.55 41.288 282.27 41.5867 282.055 41.988C281.85 42.38 281.747 42.8747 281.747 43.472C281.747 44.06 281.85 44.5547 282.055 44.956C282.27 45.3573 282.545 45.6607 282.881 45.866C283.227 46.062 283.6 46.16 284.001 46.16ZM298.497 50.08V45.852C298.273 46.216 297.946 46.5287 297.517 46.79C297.097 47.042 296.584 47.168 295.977 47.168C295.286 47.168 294.684 47.0093 294.171 46.692C293.658 46.3653 293.261 45.9267 292.981 45.376C292.701 44.816 292.561 44.1813 292.561 43.472C292.561 42.7627 292.701 42.1327 292.981 41.582C293.261 41.022 293.658 40.5833 294.171 40.266C294.694 39.9393 295.296 39.776 295.977 39.776C296.378 39.776 296.738 39.832 297.055 39.944C297.382 40.056 297.666 40.2147 297.909 40.42C298.152 40.616 298.348 40.8447 298.497 41.106L298.609 39.944H299.673V50.08H298.497ZM296.103 46.146C296.57 46.146 296.98 46.034 297.335 45.81C297.69 45.586 297.965 45.278 298.161 44.886C298.357 44.4847 298.455 44.0133 298.455 43.472C298.455 42.94 298.357 42.4733 298.161 42.072C297.965 41.6707 297.69 41.358 297.335 41.134C296.98 40.91 296.57 40.798 296.103 40.798C295.646 40.798 295.24 40.91 294.885 41.134C294.53 41.358 294.255 41.6707 294.059 42.072C293.863 42.4733 293.765 42.94 293.765 43.472C293.765 44.0133 293.863 44.4847 294.059 44.886C294.255 45.278 294.53 45.586 294.885 45.81C295.24 46.034 295.646 46.146 296.103 46.146ZM304.194 47.168C303.653 47.168 303.177 47.0607 302.766 46.846C302.365 46.6313 302.052 46.3 301.828 45.852C301.614 45.404 301.506 44.844 301.506 44.172V39.944H302.682V44.046C302.682 44.746 302.836 45.2733 303.144 45.628C303.452 45.9827 303.886 46.16 304.446 46.16C304.838 46.16 305.193 46.0667 305.51 45.88C305.828 45.684 306.075 45.4087 306.252 45.054C306.439 44.69 306.532 44.2467 306.532 43.724V39.944H307.708V47H306.644L306.574 45.768C306.36 46.2067 306.042 46.552 305.622 46.804C305.202 47.0467 304.726 47.168 304.194 47.168ZM312.752 47.168C312.089 47.168 311.501 47.014 310.988 46.706C310.484 46.398 310.087 45.9687 309.798 45.418C309.508 44.858 309.364 44.2093 309.364 43.472C309.364 42.7253 309.504 42.0767 309.784 41.526C310.073 40.9753 310.474 40.546 310.988 40.238C311.51 39.93 312.108 39.776 312.78 39.776C313.47 39.776 314.054 39.93 314.53 40.238C315.015 40.546 315.384 40.952 315.636 41.456C315.897 41.9507 316.028 42.4967 316.028 43.094C316.028 43.1873 316.028 43.2853 316.028 43.388C316.028 43.4907 316.023 43.6073 316.014 43.738H310.246V42.828H314.88C314.852 42.184 314.637 41.68 314.236 41.316C313.844 40.952 313.349 40.77 312.752 40.77C312.35 40.77 311.977 40.8633 311.632 41.05C311.296 41.2273 311.025 41.4933 310.82 41.848C310.614 42.1933 310.512 42.6273 310.512 43.15V43.542C310.512 44.1207 310.614 44.606 310.82 44.998C311.034 45.39 311.31 45.684 311.646 45.88C311.991 46.076 312.36 46.174 312.752 46.174C313.246 46.174 313.652 46.0667 313.97 45.852C314.296 45.628 314.53 45.3293 314.67 44.956H315.832C315.72 45.376 315.524 45.754 315.244 46.09C314.964 46.426 314.614 46.692 314.194 46.888C313.783 47.0747 313.302 47.168 312.752 47.168ZM323.994 47.168C323.406 47.168 322.892 47.07 322.454 46.874C322.024 46.678 321.679 46.4073 321.418 46.062C321.166 45.7073 321.012 45.292 320.956 44.816H322.16C322.206 45.0587 322.304 45.2827 322.454 45.488C322.603 45.6933 322.804 45.8613 323.056 45.992C323.317 46.1133 323.634 46.174 324.008 46.174C324.334 46.174 324.605 46.1273 324.82 46.034C325.034 45.9313 325.193 45.796 325.296 45.628C325.408 45.46 325.464 45.278 325.464 45.082C325.464 44.7927 325.394 44.5733 325.254 44.424C325.123 44.2747 324.927 44.158 324.666 44.074C324.404 43.9807 324.087 43.9013 323.714 43.836C323.406 43.78 323.102 43.7053 322.804 43.612C322.505 43.5187 322.239 43.3973 322.006 43.248C321.772 43.0893 321.586 42.898 321.446 42.674C321.315 42.45 321.25 42.1747 321.25 41.848C321.25 41.4467 321.352 41.092 321.558 40.784C321.763 40.4667 322.057 40.2193 322.44 40.042C322.832 39.8647 323.284 39.776 323.798 39.776C324.554 39.776 325.165 39.958 325.632 40.322C326.098 40.686 326.374 41.2133 326.458 41.904H325.296C325.249 41.5493 325.095 41.274 324.834 41.078C324.582 40.8727 324.232 40.77 323.784 40.77C323.345 40.77 323.009 40.8587 322.776 41.036C322.552 41.2133 322.44 41.4467 322.44 41.736C322.44 41.9227 322.5 42.0907 322.622 42.24C322.752 42.38 322.939 42.5013 323.182 42.604C323.434 42.7067 323.742 42.7907 324.106 42.856C324.572 42.94 324.997 43.052 325.38 43.192C325.762 43.332 326.07 43.542 326.304 43.822C326.546 44.0927 326.668 44.48 326.668 44.984C326.668 45.4227 326.556 45.8053 326.332 46.132C326.117 46.4587 325.809 46.7153 325.408 46.902C325.006 47.0793 324.535 47.168 323.994 47.168ZM328.473 47V39.944H329.649V47H328.473ZM329.061 38.446C328.828 38.446 328.632 38.3713 328.473 38.222C328.324 38.0633 328.249 37.8673 328.249 37.634C328.249 37.4007 328.324 37.214 328.473 37.074C328.632 36.9247 328.828 36.85 329.061 36.85C329.285 36.85 329.476 36.9247 329.635 37.074C329.794 37.214 329.873 37.4007 329.873 37.634C329.873 37.8673 329.794 38.0633 329.635 38.222C329.476 38.3713 329.285 38.446 329.061 38.446ZM335.196 50.248C334.739 50.248 334.309 50.1873 333.908 50.066C333.516 49.954 333.161 49.786 332.844 49.562C332.527 49.338 332.265 49.0627 332.06 48.736C331.855 48.4093 331.715 48.0407 331.64 47.63H332.802C332.905 47.938 333.063 48.2133 333.278 48.456C333.502 48.6987 333.777 48.8853 334.104 49.016C334.431 49.156 334.79 49.226 335.182 49.226C335.639 49.226 336.045 49.128 336.4 48.932C336.764 48.7453 337.049 48.456 337.254 48.064C337.469 47.6813 337.576 47.196 337.576 46.608V45.6C337.427 45.8613 337.231 46.1087 336.988 46.342C336.745 46.566 336.447 46.748 336.092 46.888C335.747 47.028 335.345 47.098 334.888 47.098C334.244 47.098 333.661 46.944 333.138 46.636C332.615 46.3187 332.2 45.8847 331.892 45.334C331.584 44.774 331.43 44.1393 331.43 43.43C331.43 42.7113 331.584 42.0813 331.892 41.54C332.2 40.9893 332.615 40.56 333.138 40.252C333.67 39.9347 334.258 39.776 334.902 39.776C335.313 39.776 335.691 39.8413 336.036 39.972C336.381 40.0933 336.685 40.2613 336.946 40.476C337.207 40.6907 337.417 40.9287 337.576 41.19L337.688 39.944H338.752V46.594C338.752 47.1727 338.663 47.686 338.486 48.134C338.309 48.5913 338.061 48.974 337.744 49.282C337.436 49.5993 337.063 49.8373 336.624 49.996C336.195 50.164 335.719 50.248 335.196 50.248ZM335.07 46.076C335.555 46.076 335.98 45.964 336.344 45.74C336.717 45.516 337.007 45.208 337.212 44.816C337.427 44.4147 337.534 43.9527 337.534 43.43C337.534 42.898 337.427 42.436 337.212 42.044C337.007 41.652 336.717 41.3487 336.344 41.134C335.98 40.91 335.555 40.798 335.07 40.798C334.613 40.798 334.197 40.91 333.824 41.134C333.451 41.3487 333.157 41.652 332.942 42.044C332.737 42.436 332.634 42.898 332.634 43.43C332.634 43.9527 332.737 44.4147 332.942 44.816C333.157 45.208 333.451 45.516 333.824 45.74C334.197 45.964 334.613 46.076 335.07 46.076ZM342.989 47.168C342.42 47.168 341.944 47.07 341.561 46.874C341.178 46.6687 340.894 46.4027 340.707 46.076C340.52 45.74 340.427 45.376 340.427 44.984C340.427 44.508 340.548 44.1067 340.791 43.78C341.043 43.444 341.393 43.192 341.841 43.024C342.298 42.8467 342.835 42.758 343.451 42.758H345.313C345.313 42.3193 345.243 41.9553 345.103 41.666C344.972 41.3673 344.776 41.1433 344.515 40.994C344.263 40.8447 343.946 40.77 343.563 40.77C343.115 40.77 342.728 40.882 342.401 41.106C342.074 41.33 341.874 41.6613 341.799 42.1H340.595C340.651 41.596 340.819 41.176 341.099 40.84C341.388 40.4947 341.752 40.2333 342.191 40.056C342.63 39.8693 343.087 39.776 343.563 39.776C344.216 39.776 344.758 39.8973 345.187 40.14C345.626 40.3733 345.952 40.7047 346.167 41.134C346.382 41.554 346.489 42.0533 346.489 42.632V47H345.439L345.369 45.754C345.276 45.95 345.154 46.1367 345.005 46.314C344.865 46.482 344.697 46.6313 344.501 46.762C344.305 46.8833 344.081 46.9813 343.829 47.056C343.586 47.1307 343.306 47.168 342.989 47.168ZM343.171 46.174C343.498 46.174 343.792 46.1087 344.053 45.978C344.324 45.838 344.552 45.6513 344.739 45.418C344.926 45.1753 345.066 44.9093 345.159 44.62C345.262 44.3307 345.313 44.0273 345.313 43.71V43.668H343.549C343.092 43.668 342.723 43.724 342.443 43.836C342.163 43.9387 341.962 44.088 341.841 44.284C341.72 44.4707 341.659 44.6853 341.659 44.928C341.659 45.18 341.715 45.3993 341.827 45.586C341.948 45.7727 342.121 45.9173 342.345 46.02C342.578 46.1227 342.854 46.174 343.171 46.174ZM348.308 47V39.944H349.372L349.442 40.952C349.666 40.588 349.965 40.3033 350.338 40.098C350.721 39.8833 351.136 39.776 351.584 39.776C351.948 39.776 352.275 39.8273 352.564 39.93C352.863 40.0233 353.124 40.1727 353.348 40.378C353.572 40.574 353.754 40.826 353.894 41.134C354.137 40.7047 354.468 40.3733 354.888 40.14C355.317 39.8973 355.775 39.776 356.26 39.776C356.801 39.776 357.273 39.888 357.674 40.112C358.085 40.3267 358.397 40.658 358.612 41.106C358.836 41.5447 358.948 42.1047 358.948 42.786V47H357.786V42.912C357.786 42.2027 357.641 41.6707 357.352 41.316C357.063 40.9613 356.657 40.784 356.134 40.784C355.77 40.784 355.443 40.882 355.154 41.078C354.865 41.2647 354.636 41.54 354.468 41.904C354.3 42.268 354.216 42.716 354.216 43.248V47H353.04V42.912C353.04 42.2027 352.895 41.6707 352.606 41.316C352.317 40.9613 351.906 40.784 351.374 40.784C351.019 40.784 350.697 40.882 350.408 41.078C350.128 41.2647 349.904 41.54 349.736 41.904C349.568 42.268 349.484 42.716 349.484 43.248V47H348.308ZM363.927 47.168C363.274 47.168 362.686 47.0187 362.163 46.72C361.64 46.412 361.23 45.9827 360.931 45.432C360.632 44.872 360.483 44.2233 360.483 43.486C360.483 42.73 360.632 42.0767 360.931 41.526C361.239 40.966 361.654 40.5367 362.177 40.238C362.709 39.93 363.302 39.776 363.955 39.776C364.627 39.776 365.22 39.93 365.733 40.238C366.256 40.5367 366.666 40.966 366.965 41.526C367.273 42.0767 367.427 42.7253 367.427 43.472C367.427 44.2187 367.273 44.872 366.965 45.432C366.657 45.9827 366.242 46.412 365.719 46.72C365.196 47.0187 364.599 47.168 363.927 47.168ZM363.941 46.16C364.342 46.16 364.716 46.062 365.061 45.866C365.406 45.6607 365.686 45.3573 365.901 44.956C366.116 44.5547 366.223 44.06 366.223 43.472C366.223 42.8747 366.116 42.38 365.901 41.988C365.696 41.5867 365.42 41.288 365.075 41.092C364.739 40.8867 364.366 40.784 363.955 40.784C363.563 40.784 363.19 40.8867 362.835 41.092C362.49 41.288 362.21 41.5867 361.995 41.988C361.79 42.38 361.687 42.8747 361.687 43.472C361.687 44.06 361.79 44.5547 361.995 44.956C362.21 45.3573 362.485 45.6607 362.821 45.866C363.166 46.062 363.54 46.16 363.941 46.16ZM371.736 47.168C371.148 47.168 370.634 47.07 370.196 46.874C369.766 46.678 369.421 46.4073 369.16 46.062C368.908 45.7073 368.754 45.292 368.698 44.816H369.902C369.948 45.0587 370.046 45.2827 370.196 45.488C370.345 45.6933 370.546 45.8613 370.798 45.992C371.059 46.1133 371.376 46.174 371.75 46.174C372.076 46.174 372.347 46.1273 372.562 46.034C372.776 45.9313 372.935 45.796 373.038 45.628C373.15 45.46 373.206 45.278 373.206 45.082C373.206 44.7927 373.136 44.5733 372.996 44.424C372.865 44.2747 372.669 44.158 372.408 44.074C372.146 43.9807 371.829 43.9013 371.456 43.836C371.148 43.78 370.844 43.7053 370.546 43.612C370.247 43.5187 369.981 43.3973 369.748 43.248C369.514 43.0893 369.328 42.898 369.188 42.674C369.057 42.45 368.992 42.1747 368.992 41.848C368.992 41.4467 369.094 41.092 369.3 40.784C369.505 40.4667 369.799 40.2193 370.182 40.042C370.574 39.8647 371.026 39.776 371.54 39.776C372.296 39.776 372.907 39.958 373.374 40.322C373.84 40.686 374.116 41.2133 374.2 41.904H373.038C372.991 41.5493 372.837 41.274 372.576 41.078C372.324 40.8727 371.974 40.77 371.526 40.77C371.087 40.77 370.751 40.8587 370.518 41.036C370.294 41.2133 370.182 41.4467 370.182 41.736C370.182 41.9227 370.242 42.0907 370.364 42.24C370.494 42.38 370.681 42.5013 370.924 42.604C371.176 42.7067 371.484 42.7907 371.848 42.856C372.314 42.94 372.739 43.052 373.122 43.192C373.504 43.332 373.812 43.542 374.046 43.822C374.288 44.0927 374.41 44.48 374.41 44.984C374.41 45.4227 374.298 45.8053 374.074 46.132C373.859 46.4587 373.551 46.7153 373.15 46.902C372.748 47.0793 372.277 47.168 371.736 47.168ZM379.099 47.07C378.866 47.07 378.67 46.9953 378.511 46.846C378.362 46.6873 378.287 46.496 378.287 46.272C378.287 46.048 378.362 45.8613 378.511 45.712C378.67 45.5533 378.866 45.474 379.099 45.474C379.332 45.474 379.524 45.5533 379.673 45.712C379.822 45.8613 379.897 46.048 379.897 46.272C379.897 46.496 379.822 46.6873 379.673 46.846C379.524 46.9953 379.332 47.07 379.099 47.07ZM381.675 47.07C381.442 47.07 381.246 46.9953 381.087 46.846C380.938 46.6873 380.863 46.496 380.863 46.272C380.863 46.048 380.938 45.8613 381.087 45.712C381.246 45.5533 381.442 45.474 381.675 45.474C381.908 45.474 382.1 45.5533 382.249 45.712C382.398 45.8613 382.473 46.048 382.473 46.272C382.473 46.496 382.398 46.6873 382.249 46.846C382.1 46.9953 381.908 47.07 381.675 47.07ZM376.523 47.07C376.29 47.07 376.094 46.9953 375.935 46.846C375.786 46.6873 375.711 46.496 375.711 46.272C375.711 46.048 375.786 45.8613 375.935 45.712C376.094 45.5533 376.29 45.474 376.523 45.474C376.756 45.474 376.948 45.5533 377.097 45.712C377.246 45.8613 377.321 46.048 377.321 46.272C377.321 46.496 377.246 46.6873 377.097 46.846C376.948 46.9953 376.756 47.07 376.523 47.07ZM82.8428 62.674L82.8988 64.844H82.4648C82.0728 64.844 81.6948 64.872 81.3308 64.928C80.9761 64.9747 80.6588 65.0727 80.3788 65.222C80.1081 65.3713 79.8888 65.586 79.7208 65.866C79.5621 66.1367 79.4828 66.496 79.4828 66.944C79.4828 67.3267 79.5668 67.658 79.7348 67.938C79.9028 68.2273 80.1361 68.4467 80.4348 68.596C80.7334 68.7453 81.0788 68.82 81.4708 68.82C81.8721 68.82 82.2174 68.7453 82.5068 68.596C82.8054 68.4467 83.0341 68.2367 83.1928 67.966C83.3608 67.6953 83.4448 67.378 83.4448 67.014H84.5648C84.5648 67.574 84.4294 68.064 84.1588 68.484C83.8974 68.904 83.5334 69.2307 83.0668 69.464C82.6094 69.6973 82.0774 69.814 81.4708 69.814C80.8641 69.814 80.3228 69.6973 79.8468 69.464C79.3801 69.2307 79.0114 68.8993 78.7408 68.47C78.4794 68.0407 78.3488 67.532 78.3488 66.944C78.3488 66.2533 78.4934 65.6933 78.7828 65.264C79.0814 64.8347 79.4874 64.522 80.0008 64.326C80.5234 64.13 81.1161 64.032 81.7788 64.032L81.8068 62.674H82.8428ZM82.3388 59.776C82.5628 59.776 82.7541 59.8553 82.9128 60.014C83.0714 60.1633 83.1508 60.35 83.1508 60.574C83.1508 60.798 83.0714 60.9893 82.9128 61.148C82.7541 61.2973 82.5628 61.372 82.3388 61.372C82.1054 61.372 81.9141 61.2973 81.7648 61.148C81.6154 60.9893 81.5408 60.798 81.5408 60.574C81.5408 60.35 81.6154 60.1633 81.7648 60.014C81.9141 59.8553 82.1054 59.776 82.3388 59.776ZM87.7014 67L85.0274 59.944H86.2594L88.3874 65.866L90.5294 59.944H91.7334L89.0594 67H87.7014ZM93.1662 67V59.944H94.3422V67H93.1662ZM93.7542 58.446C93.5209 58.446 93.3249 58.3713 93.1662 58.222C93.0169 58.0633 92.9422 57.8673 92.9422 57.634C92.9422 57.4007 93.0169 57.214 93.1662 57.074C93.3249 56.9247 93.5209 56.85 93.7542 56.85C93.9782 56.85 94.1696 56.9247 94.3282 57.074C94.4869 57.214 94.5662 57.4007 94.5662 57.634C94.5662 57.8673 94.4869 58.0633 94.3282 58.222C94.1696 58.3713 93.9782 58.446 93.7542 58.446ZM99.0775 67.168C98.4895 67.168 97.9762 67.07 97.5375 66.874C97.1082 66.678 96.7628 66.4073 96.5015 66.062C96.2495 65.7073 96.0955 65.292 96.0395 64.816H97.2435C97.2902 65.0587 97.3882 65.2827 97.5375 65.488C97.6868 65.6933 97.8875 65.8613 98.1395 65.992C98.4008 66.1133 98.7182 66.174 99.0915 66.174C99.4182 66.174 99.6888 66.1273 99.9035 66.034C100.118 65.9313 100.277 65.796 100.38 65.628C100.492 65.46 100.548 65.278 100.548 65.082C100.548 64.7927 100.478 64.5733 100.338 64.424C100.207 64.2747 100.011 64.158 99.7495 64.074C99.4882 63.9807 99.1708 63.9013 98.7975 63.836C98.4895 63.78 98.1862 63.7053 97.8875 63.612C97.5888 63.5187 97.3228 63.3973 97.0895 63.248C96.8562 63.0893 96.6695 62.898 96.5295 62.674C96.3988 62.45 96.3335 62.1747 96.3335 61.848C96.3335 61.4467 96.4362 61.092 96.6415 60.784C96.8468 60.4667 97.1408 60.2193 97.5235 60.042C97.9155 59.8647 98.3682 59.776 98.8815 59.776C99.6375 59.776 100.249 59.958 100.716 60.322C101.182 60.686 101.458 61.2133 101.542 61.904H100.38C100.333 61.5493 100.179 61.274 99.9175 61.078C99.6655 60.8727 99.3155 60.77 98.8675 60.77C98.4288 60.77 98.0928 60.8587 97.8595 61.036C97.6355 61.2133 97.5235 61.4467 97.5235 61.736C97.5235 61.9227 97.5842 62.0907 97.7055 62.24C97.8362 62.38 98.0228 62.5013 98.2655 62.604C98.5175 62.7067 98.8255 62.7907 99.1895 62.856C99.6562 62.94 100.081 63.052 100.464 63.192C100.846 63.332 101.154 63.542 101.388 63.822C101.63 64.0927 101.752 64.48 101.752 64.984C101.752 65.4227 101.64 65.8053 101.416 66.132C101.201 66.4587 100.893 66.7153 100.492 66.902C100.09 67.0793 99.6188 67.168 99.0775 67.168ZM105.902 67C105.482 67 105.118 66.9347 104.81 66.804C104.502 66.6733 104.264 66.454 104.096 66.146C103.938 65.8287 103.858 65.404 103.858 64.872V60.938H102.626V59.944H103.858L104.012 58.236H105.034V59.944H107.078V60.938H105.034V64.872C105.034 65.3107 105.123 65.6093 105.3 65.768C105.478 65.9173 105.79 65.992 106.238 65.992H106.994V67H105.902ZM111.515 67.168C110.853 67.168 110.265 67.014 109.751 66.706C109.247 66.398 108.851 65.9687 108.561 65.418C108.272 64.858 108.127 64.2093 108.127 63.472C108.127 62.7253 108.267 62.0767 108.547 61.526C108.837 60.9753 109.238 60.546 109.751 60.238C110.274 59.93 110.871 59.776 111.543 59.776C112.234 59.776 112.817 59.93 113.293 60.238C113.779 60.546 114.147 60.952 114.399 61.456C114.661 61.9507 114.791 62.4967 114.791 63.094C114.791 63.1873 114.791 63.2853 114.791 63.388C114.791 63.4907 114.787 63.6073 114.777 63.738H109.009V62.828H113.643C113.615 62.184 113.401 61.68 112.999 61.316C112.607 60.952 112.113 60.77 111.515 60.77C111.114 60.77 110.741 60.8633 110.395 61.05C110.059 61.2273 109.789 61.4933 109.583 61.848C109.378 62.1933 109.275 62.6273 109.275 63.15V63.542C109.275 64.1207 109.378 64.606 109.583 64.998C109.798 65.39 110.073 65.684 110.409 65.88C110.755 66.076 111.123 66.174 111.515 66.174C112.01 66.174 112.416 66.0667 112.733 65.852C113.06 65.628 113.293 65.3293 113.433 64.956H114.595C114.483 65.376 114.287 65.754 114.007 66.09C113.727 66.426 113.377 66.692 112.957 66.888C112.547 67.0747 112.066 67.168 111.515 67.168ZM120.097 67V56.92H121.273V67H120.097ZM126.364 67.168C125.711 67.168 125.123 67.0187 124.6 66.72C124.078 66.412 123.667 65.9827 123.368 65.432C123.07 64.872 122.92 64.2233 122.92 63.486C122.92 62.73 123.07 62.0767 123.368 61.526C123.676 60.966 124.092 60.5367 124.614 60.238C125.146 59.93 125.739 59.776 126.392 59.776C127.064 59.776 127.657 59.93 128.17 60.238C128.693 60.5367 129.104 60.966 129.402 61.526C129.71 62.0767 129.864 62.7253 129.864 63.472C129.864 64.2187 129.71 64.872 129.402 65.432C129.094 65.9827 128.679 66.412 128.156 66.72C127.634 67.0187 127.036 67.168 126.364 67.168ZM126.378 66.16C126.78 66.16 127.153 66.062 127.498 65.866C127.844 65.6607 128.124 65.3573 128.338 64.956C128.553 64.5547 128.66 64.06 128.66 63.472C128.66 62.8747 128.553 62.38 128.338 61.988C128.133 61.5867 127.858 61.288 127.512 61.092C127.176 60.8867 126.803 60.784 126.392 60.784C126 60.784 125.627 60.8867 125.272 61.092C124.927 61.288 124.647 61.5867 124.432 61.988C124.227 62.38 124.124 62.8747 124.124 63.472C124.124 64.06 124.227 64.5547 124.432 64.956C124.647 65.3573 124.922 65.6607 125.258 65.866C125.604 66.062 125.977 66.16 126.378 66.16ZM140.874 70.08V65.852C140.65 66.216 140.323 66.5287 139.894 66.79C139.474 67.042 138.961 67.168 138.354 67.168C137.663 67.168 137.061 67.0093 136.548 66.692C136.035 66.3653 135.638 65.9267 135.358 65.376C135.078 64.816 134.938 64.1813 134.938 63.472C134.938 62.7627 135.078 62.1327 135.358 61.582C135.638 61.022 136.035 60.5833 136.548 60.266C137.071 59.9393 137.673 59.776 138.354 59.776C138.755 59.776 139.115 59.832 139.432 59.944C139.759 60.056 140.043 60.2147 140.286 60.42C140.529 60.616 140.725 60.8447 140.874 61.106L140.986 59.944H142.05V70.08H140.874ZM138.48 66.146C138.947 66.146 139.357 66.034 139.712 65.81C140.067 65.586 140.342 65.278 140.538 64.886C140.734 64.4847 140.832 64.0133 140.832 63.472C140.832 62.94 140.734 62.4733 140.538 62.072C140.342 61.6707 140.067 61.358 139.712 61.134C139.357 60.91 138.947 60.798 138.48 60.798C138.023 60.798 137.617 60.91 137.262 61.134C136.907 61.358 136.632 61.6707 136.436 62.072C136.24 62.4733 136.142 62.94 136.142 63.472C136.142 64.0133 136.24 64.4847 136.436 64.886C136.632 65.278 136.907 65.586 137.262 65.81C137.617 66.034 138.023 66.146 138.48 66.146ZM146.571 67.168C146.03 67.168 145.554 67.0607 145.143 66.846C144.742 66.6313 144.429 66.3 144.205 65.852C143.991 65.404 143.883 64.844 143.883 64.172V59.944H145.059V64.046C145.059 64.746 145.213 65.2733 145.521 65.628C145.829 65.9827 146.263 66.16 146.823 66.16C147.215 66.16 147.57 66.0667 147.887 65.88C148.205 65.684 148.452 65.4087 148.629 65.054C148.816 64.69 148.909 64.2467 148.909 63.724V59.944H150.085V67H149.021L148.951 65.768C148.737 66.2067 148.419 66.552 147.999 66.804C147.579 67.0467 147.103 67.168 146.571 67.168ZM155.129 67.168C154.466 67.168 153.878 67.014 153.365 66.706C152.861 66.398 152.464 65.9687 152.175 65.418C151.885 64.858 151.741 64.2093 151.741 63.472C151.741 62.7253 151.881 62.0767 152.161 61.526C152.45 60.9753 152.851 60.546 153.365 60.238C153.887 59.93 154.485 59.776 155.157 59.776C155.847 59.776 156.431 59.93 156.907 60.238C157.392 60.546 157.761 60.952 158.013 61.456C158.274 61.9507 158.405 62.4967 158.405 63.094C158.405 63.1873 158.405 63.2853 158.405 63.388C158.405 63.4907 158.4 63.6073 158.391 63.738H152.623V62.828H157.257C157.229 62.184 157.014 61.68 156.613 61.316C156.221 60.952 155.726 60.77 155.129 60.77C154.727 60.77 154.354 60.8633 154.009 61.05C153.673 61.2273 153.402 61.4933 153.197 61.848C152.991 62.1933 152.889 62.6273 152.889 63.15V63.542C152.889 64.1207 152.991 64.606 153.197 64.998C153.411 65.39 153.687 65.684 154.023 65.88C154.368 66.076 154.737 66.174 155.129 66.174C155.623 66.174 156.029 66.0667 156.347 65.852C156.673 65.628 156.907 65.3293 157.047 64.956H158.209C158.097 65.376 157.901 65.754 157.621 66.09C157.341 66.426 156.991 66.692 156.571 66.888C156.16 67.0747 155.679 67.168 155.129 67.168ZM163.71 67V56.92H164.886V61.134C165.12 60.714 165.446 60.3827 165.866 60.14C166.296 59.8973 166.762 59.776 167.266 59.776C167.808 59.776 168.279 59.888 168.68 60.112C169.082 60.3267 169.39 60.658 169.604 61.106C169.819 61.554 169.926 62.1187 169.926 62.8V67H168.764V62.926C168.764 62.2167 168.615 61.6847 168.316 61.33C168.018 60.966 167.584 60.784 167.014 60.784C166.613 60.784 166.249 60.882 165.922 61.078C165.605 61.274 165.353 61.554 165.166 61.918C164.98 62.282 164.886 62.73 164.886 63.262V67H163.71ZM171.875 67V59.944H173.051V67H171.875ZM172.463 58.446C172.23 58.446 172.034 58.3713 171.875 58.222C171.726 58.0633 171.651 57.8673 171.651 57.634C171.651 57.4007 171.726 57.214 171.875 57.074C172.034 56.9247 172.23 56.85 172.463 56.85C172.687 56.85 172.879 56.9247 173.037 57.074C173.196 57.214 173.275 57.4007 173.275 57.634C173.275 57.8673 173.196 58.0633 173.037 58.222C172.879 58.3713 172.687 58.446 172.463 58.446ZM178.304 67.168C177.642 67.168 177.044 67.014 176.512 66.706C175.99 66.398 175.579 65.9687 175.28 65.418C174.982 64.858 174.832 64.214 174.832 63.486C174.832 62.7393 174.982 62.0907 175.28 61.54C175.579 60.9893 175.99 60.56 176.512 60.252C177.044 59.9347 177.642 59.776 178.304 59.776C179.144 59.776 179.844 59.9953 180.404 60.434C180.964 60.8633 181.319 61.442 181.468 62.17H180.264C180.171 61.7313 179.942 61.3907 179.578 61.148C179.214 60.9053 178.785 60.784 178.29 60.784C177.889 60.784 177.516 60.8867 177.17 61.092C176.825 61.288 176.55 61.5867 176.344 61.988C176.139 62.3893 176.036 62.884 176.036 63.472C176.036 63.9107 176.097 64.3027 176.218 64.648C176.34 64.984 176.503 65.264 176.708 65.488C176.914 65.712 177.152 65.8847 177.422 66.006C177.702 66.118 177.992 66.174 178.29 66.174C178.626 66.174 178.93 66.1227 179.2 66.02C179.471 65.908 179.7 65.7447 179.886 65.53C180.073 65.3153 180.199 65.0633 180.264 64.774H181.468C181.319 65.4833 180.96 66.062 180.39 66.51C179.83 66.9487 179.135 67.168 178.304 67.168ZM186.232 67.168C185.57 67.168 184.982 67.014 184.468 66.706C183.964 66.398 183.568 65.9687 183.278 65.418C182.989 64.858 182.844 64.2093 182.844 63.472C182.844 62.7253 182.984 62.0767 183.264 61.526C183.554 60.9753 183.955 60.546 184.468 60.238C184.991 59.93 185.588 59.776 186.26 59.776C186.951 59.776 187.534 59.93 188.01 60.238C188.496 60.546 188.864 60.952 189.116 61.456C189.378 61.9507 189.508 62.4967 189.508 63.094C189.508 63.1873 189.508 63.2853 189.508 63.388C189.508 63.4907 189.504 63.6073 189.494 63.738H183.726V62.828H188.36C188.332 62.184 188.118 61.68 187.716 61.316C187.324 60.952 186.83 60.77 186.232 60.77C185.831 60.77 185.458 60.8633 185.112 61.05C184.776 61.2273 184.506 61.4933 184.3 61.848C184.095 62.1933 183.992 62.6273 183.992 63.15V63.542C183.992 64.1207 184.095 64.606 184.3 64.998C184.515 65.39 184.79 65.684 185.126 65.88C185.472 66.076 185.84 66.174 186.232 66.174C186.727 66.174 187.133 66.0667 187.45 65.852C187.777 65.628 188.01 65.3293 188.15 64.956H189.312C189.2 65.376 189.004 65.754 188.724 66.09C188.444 66.426 188.094 66.692 187.674 66.888C187.264 67.0747 186.783 67.168 186.232 67.168ZM197.11 67.168C196.541 67.168 196.065 67.07 195.682 66.874C195.299 66.6687 195.015 66.4027 194.828 66.076C194.641 65.74 194.548 65.376 194.548 64.984C194.548 64.508 194.669 64.1067 194.912 63.78C195.164 63.444 195.514 63.192 195.962 63.024C196.419 62.8467 196.956 62.758 197.572 62.758H199.434C199.434 62.3193 199.364 61.9553 199.224 61.666C199.093 61.3673 198.897 61.1433 198.636 60.994C198.384 60.8447 198.067 60.77 197.684 60.77C197.236 60.77 196.849 60.882 196.522 61.106C196.195 61.33 195.995 61.6613 195.92 62.1H194.716C194.772 61.596 194.94 61.176 195.22 60.84C195.509 60.4947 195.873 60.2333 196.312 60.056C196.751 59.8693 197.208 59.776 197.684 59.776C198.337 59.776 198.879 59.8973 199.308 60.14C199.747 60.3733 200.073 60.7047 200.288 61.134C200.503 61.554 200.61 62.0533 200.61 62.632V67H199.56L199.49 65.754C199.397 65.95 199.275 66.1367 199.126 66.314C198.986 66.482 198.818 66.6313 198.622 66.762C198.426 66.8833 198.202 66.9813 197.95 67.056C197.707 67.1307 197.427 67.168 197.11 67.168ZM197.292 66.174C197.619 66.174 197.913 66.1087 198.174 65.978C198.445 65.838 198.673 65.6513 198.86 65.418C199.047 65.1753 199.187 64.9093 199.28 64.62C199.383 64.3307 199.434 64.0273 199.434 63.71V63.668H197.67C197.213 63.668 196.844 63.724 196.564 63.836C196.284 63.9387 196.083 64.088 195.962 64.284C195.841 64.4707 195.78 64.6853 195.78 64.928C195.78 65.18 195.836 65.3993 195.948 65.586C196.069 65.7727 196.242 65.9173 196.466 66.02C196.699 66.1227 196.975 66.174 197.292 66.174ZM202.429 67V56.92H203.605V61.134C203.839 60.714 204.165 60.3827 204.585 60.14C205.015 59.8973 205.481 59.776 205.985 59.776C206.527 59.776 206.998 59.888 207.399 60.112C207.801 60.3267 208.109 60.658 208.323 61.106C208.538 61.554 208.645 62.1187 208.645 62.8V67H207.483V62.926C207.483 62.2167 207.334 61.6847 207.035 61.33C206.737 60.966 206.303 60.784 205.733 60.784C205.332 60.784 204.968 60.882 204.641 61.078C204.324 61.274 204.072 61.554 203.885 61.918C203.699 62.282 203.605 62.73 203.605 63.262V67H202.429ZM210.482 67V59.944H211.658V67H210.482ZM209.698 59.342L209.572 58.502L212.386 56.71L212.554 57.718L209.698 59.342ZM214.831 64.186L214.775 62.002H215.209C215.601 62.002 215.974 61.9787 216.329 61.932C216.693 61.876 217.01 61.778 217.281 61.638C217.561 61.4887 217.78 61.274 217.939 60.994C218.107 60.714 218.191 60.35 218.191 59.902C218.191 59.51 218.107 59.174 217.939 58.894C217.771 58.614 217.538 58.3993 217.239 58.25C216.94 58.1007 216.595 58.026 216.203 58.026C215.811 58.026 215.466 58.1007 215.167 58.25C214.868 58.3993 214.635 58.6093 214.467 58.88C214.308 59.1413 214.229 59.4587 214.229 59.832H213.109C213.109 59.272 213.24 58.782 213.501 58.362C213.762 57.942 214.126 57.6153 214.593 57.382C215.06 57.1487 215.596 57.032 216.203 57.032C216.81 57.032 217.346 57.1487 217.813 57.382C218.289 57.6153 218.658 57.9467 218.919 58.376C219.19 58.8053 219.325 59.314 219.325 59.902C219.325 60.5927 219.176 61.1527 218.877 61.582C218.588 62.0113 218.186 62.324 217.673 62.52C217.16 62.716 216.567 62.814 215.895 62.814L215.853 64.186H214.831ZM215.335 67.07C215.102 67.07 214.906 66.9953 214.747 66.846C214.598 66.6873 214.523 66.496 214.523 66.272C214.523 66.048 214.598 65.8613 214.747 65.712C214.906 65.5533 215.102 65.474 215.335 65.474C215.568 65.474 215.76 65.5533 215.909 65.712C216.058 65.8613 216.133 66.048 216.133 66.272C216.133 66.496 216.058 66.6873 215.909 66.846C215.76 66.9953 215.568 67.07 215.335 67.07Z" fill="white"/>
<rect y="84" width="40" height="40" rx="8" fill="#EBEDFC"/>
<defs>
<linearGradient id="paint0_linear_73_10398" x1="62" y1="84" x2="428" y2="-4.23086e-07" gradientUnits="userSpaceOnUse">
<stop offset="0.043503" stop-color="white" stop-opacity="0"/>
<stop offset="1" stop-color="white"/>
</linearGradient>
</defs>
</svg>
