<?xml version="1.0" encoding="UTF-8"?>
<svg id="Layer_1" data-name="Layer 1" xmlns="http://www.w3.org/2000/svg" viewBox="0 0 500 500">
  <defs>
    <style>
      .cls-1 {
        fill: #4056b2;
      }

      .cls-1, .cls-2, .cls-3, .cls-4, .cls-5, .cls-6, .cls-7, .cls-8, .cls-9, .cls-10, .cls-11, .cls-12, .cls-13 {
        stroke-width: 0px;
      }

      .cls-2 {
        fill: #3e4de5;
        opacity: .3;
      }

      .cls-3 {
        fill: #af992e;
      }

      .cls-4 {
        fill: #604416;
      }

      .cls-14, .cls-15 {
        fill: #3545a0;
      }

      .cls-14, .cls-15, .cls-16 {
        stroke: #3a56af;
      }

      .cls-14, .cls-16 {
        stroke-width: .3px;
      }

      .cls-14, .cls-16, .cls-17 {
        stroke-miterlimit: 10;
      }

      .cls-5, .cls-6 {
        fill: #000;
      }

      .cls-15 {
        stroke-linejoin: round;
        stroke-width: .3px;
      }

      .cls-16 {
        fill: none;
      }

      .cls-6 {
        opacity: .1;
      }

      .cls-7 {
        fill: #685130;
      }

      .cls-8 {
        fill: #f2f2f2;
      }

      .cls-18 {
        opacity: .25;
      }

      .cls-9 {
        fill: #fec71f;
      }

      .cls-17 {
        stroke: #33240e;
        stroke-width: 7.48px;
      }

      .cls-17, .cls-13 {
        fill: #fff;
      }

      .cls-10 {
        fill: #242f60;
        opacity: .5;
      }

      .cls-11 {
        fill: #82683f;
      }

      .cls-12 {
        fill: #33240e;
      }
    </style>
  </defs>
  <ellipse class="cls-2" cx="266.03" cy="253.93" rx="163.86" ry="121.61" transform="translate(-101.21 273.56) rotate(-46.73)"/>
  <path class="cls-5" d="M297.41,341.3c-.65,21.83,1.42,44.16,6.03,65.49.81,3.76,6.58,2.17,5.77-1.59-4.5-20.81-6.45-42.6-5.82-63.9.11-3.85-5.87-3.85-5.99,0h0Z"/>
  <path class="cls-5" d="M237.91,336.64c.63,21.31-1.32,43.09-5.82,63.9-.81,3.76,4.96,5.36,5.77,1.59,4.61-21.33,6.68-43.66,6.03-65.49-.11-3.84-6.1-3.86-5.99,0h0Z"/>
  <g class="cls-18">
    <path class="cls-7" d="M182.65,242.75c-.69,11.68-.81,24.81,7.36,34.17.85.97,2.26-.45,1.42-1.42-7.77-8.9-7.42-21.69-6.77-32.75.08-1.29-1.93-1.28-2,0h0Z"/>
  </g>
  <g class="cls-18">
    <path class="cls-7" d="M181.77,214.53c-.69,11.68-.81,24.81,7.36,34.17.85.97,2.26-.45,1.42-1.42-7.77-8.9-7.42-21.69-6.77-32.75.08-1.29-1.93-1.28-2,0h0Z"/>
  </g>
  <path class="cls-9" d="M297.16,396.45c-.68-.26-1.39.34-1.22,1.05.7,3,1.38,9.56-2.17,19.31,0,0-2.02,5.39-1.29,8.75,0,0,4.84,3.49,26.01,1.47,0,0,10.71-.43,16.53-.31,5.81.12,24.73-2.88,26.93-5.51,0,0,.31-1.96-13.34-1.83,0,0-10.08-.31-21.47-10.71-9.06-8.27-12.7-15.42-13.81-18.01-.25-.57-.92-.82-1.48-.54-1.94.99-5.73,3.44-4.44,7.04,0,0-4.99,1.28-10.26-.72Z"/>
  <path class="cls-8" d="M292.49,425.57s-.98,3.18,0,7.53c0,0,3.98,2.33,15.98,1.59,12-.73,17.2-.2,21.85.14s27.48-1.18,32.62-6.02c0,0,2.26-.86,1.16-5.75,0,0-.21-1.53-2.14-2.33s-3.24-1.36-11.69-1.35c0,0,2.27,3.33,2.02,4.85,0,0-9.24,2.63-23.02,2.51,0,0-4.96.12-13.28.52,0,0-14.81.82-23.5-1.69Z"/>
  <path class="cls-8" d="M317.73,398.22s-5.11.79-4.5,2.08,5.64-.53,5.64-.53l-1.15-1.54Z"/>
  <path class="cls-8" d="M321.78,403.26s-5.73,1.81-4.44,3.4,6.01-1.7,6.01-1.7l-1.56-1.7Z"/>
  <path class="cls-8" d="M325.99,407.61s-7.13,1.91-5.47,4.18,6.62-3.11,6.62-3.11l-1.15-1.07Z"/>
  <path class="cls-8" d="M330.89,411.79s-6.51,1.23-5.41,3.38,6.86-2.32,6.86-2.32l-1.45-1.05Z"/>
  <path class="cls-8" d="M335.23,414.7s-5.41,2.12-3.88,3.47,5.77-2.42,5.77-2.42l-1.89-1.05Z"/>
  <path class="cls-8" d="M339.54,416.91s-3.63,1.93-2.42,2.79,4.49-1.95,4.49-1.95l-2.07-.84Z"/>
  <path class="cls-9" d="M243.17,396.62c.88-.3,1.75.46,1.56,1.37-.65,3.19-1.1,9.57,2.28,18.83,0,0,2.02,5.39,1.29,8.75,0,0-4.84,3.49-26.01,1.47,0,0-10.71-.43-16.53-.31-5.81.12-24.73-2.88-26.93-5.51,0,0-.31-1.96,13.34-1.83,0,0,10.08-.31,21.47-10.71,8.97-8.19,12.63-15.29,13.77-17.93.27-.62,1.01-.88,1.6-.57,1.97,1.02,5.61,3.45,4.34,6.99,0,0,4.71,1.21,9.81-.55Z"/>
  <path class="cls-8" d="M248.29,425.57s.98,3.18,0,7.53c0,0-3.98,2.33-15.98,1.59-12-.73-17.2-.2-21.85.14-4.65.35-27.48-1.18-32.62-6.02,0,0-2.26-.86-1.16-5.75,0,0,.21-1.53,2.14-2.33s3.24-1.36,11.69-1.35c0,0-2.27,3.33-2.02,4.85,0,0,9.24,2.63,23.02,2.51,0,0,4.96.12,13.28.52,0,0,14.81.82,23.5-1.69Z"/>
  <path class="cls-8" d="M223.05,398.22s5.11.79,4.5,2.08-5.64-.53-5.64-.53l1.15-1.54Z"/>
  <path class="cls-8" d="M219,403.26s5.73,1.81,4.44,3.4-6.01-1.7-6.01-1.7l1.56-1.7Z"/>
  <path class="cls-8" d="M214.78,407.61s7.13,1.91,5.47,4.18-6.62-3.11-6.62-3.11l1.15-1.07Z"/>
  <path class="cls-8" d="M209.89,411.79s6.51,1.23,5.41,3.38c-1.1,2.14-6.86-2.32-6.86-2.32l1.45-1.05Z"/>
  <path class="cls-8" d="M205.55,414.7s5.41,2.12,3.88,3.47-5.77-2.42-5.77-2.42l1.89-1.05Z"/>
  <path class="cls-8" d="M201.24,416.91s3.63,1.93,2.42,2.79-4.49-1.95-4.49-1.95l2.07-.84Z"/>
  <g>
    <ellipse class="cls-11" cx="279.35" cy="244.96" rx="108.5" ry="116.25"/>
    <g class="cls-18">
      <path class="cls-7" d="M198.99,278.64c-.69,11.68-.81,24.81,7.36,34.17.85.97,2.26-.45,1.42-1.42-7.77-8.9-7.42-21.69-6.77-32.75.08-1.29-1.93-1.28-2,0h0Z"/>
    </g>
    <g class="cls-18">
      <path class="cls-7" d="M202.64,249.47c-.69,11.68-.81,24.81,7.36,34.17.85.97,2.26-.45,1.42-1.42-7.77-8.9-7.42-21.69-6.77-32.75.08-1.29-1.93-1.28-2,0h0Z"/>
    </g>
    <g class="cls-18">
      <path class="cls-7" d="M214.99,295.37c-.69,11.68-.81,24.81,7.36,34.17.85.97,2.26-.45,1.42-1.42-7.77-8.9-7.42-21.69-6.77-32.75.08-1.29-1.93-1.28-2,0h0Z"/>
    </g>
    <g class="cls-18">
      <path class="cls-7" d="M232.99,310.09c-.69,11.68-.81,24.81,7.36,34.17.85.97,2.26-.45,1.42-1.42-7.77-8.9-7.42-21.69-6.77-32.75.08-1.29-1.93-1.28-2,0h0Z"/>
    </g>
    <g class="cls-18">
      <path class="cls-7" d="M242.07,289.98c-.69,11.68-.81,24.81,7.36,34.17.85.97,2.26-.45,1.42-1.42-7.77-8.9-7.42-21.69-6.77-32.75.08-1.29-1.93-1.28-2,0h0Z"/>
    </g>
    <g class="cls-18">
      <path class="cls-7" d="M222.35,263.36c-.69,11.68-.81,24.81,7.36,34.17.85.97,2.26-.45,1.42-1.42-7.77-8.9-7.42-21.69-6.77-32.75.08-1.29-1.93-1.28-2,0h0Z"/>
    </g>
    <g class="cls-18">
      <path class="cls-7" d="M210.01,221.94c-.69,11.68-.81,24.81,7.36,34.17.85.97,2.26-.45,1.42-1.42-7.77-8.9-7.42-21.69-6.77-32.75.08-1.29-1.93-1.28-2,0h0Z"/>
    </g>
    <g class="cls-18">
      <path class="cls-7" d="M242.07,243.91c-.69,11.68-.81,24.81,7.36,34.17.85.97,2.26-.45,1.42-1.42-7.77-8.9-7.42-21.69-6.77-32.75.08-1.29-1.93-1.28-2,0h0Z"/>
    </g>
    <g class="cls-18">
      <path class="cls-7" d="M223.71,202.07c-.69,11.68-.81,24.81,7.36,34.17.85.97,2.26-.45,1.42-1.42-7.77-8.9-7.42-21.69-6.77-32.75.08-1.29-1.93-1.28-2,0h0Z"/>
    </g>
    <g class="cls-18">
      <path class="cls-7" d="M371.06,291.35c5.13-10.59,10.11-22.59,6.26-34.44-.4-1.22-2.33-.7-1.93.53,3.68,11.31-1.15,22.78-6.05,32.89-.56,1.16,1.17,2.17,1.73,1.01h0Z"/>
    </g>
    <g class="cls-18">
      <path class="cls-7" d="M369.65,251.44c5.13-10.59,10.11-22.59,6.26-34.44-.4-1.22-2.33-.7-1.93.53,3.68,11.31-1.15,22.78-6.05,32.89-.56,1.16,1.17,2.17,1.73,1.01h0Z"/>
    </g>
    <g class="cls-18">
      <path class="cls-7" d="M355.31,276.55c5.13-10.59,10.11-22.59,6.26-34.44-.4-1.22-2.33-.7-1.93.53,3.68,11.31-1.15,22.78-6.05,32.89-.56,1.16,1.17,2.17,1.73,1.01h0Z"/>
    </g>
    <g class="cls-18">
      <path class="cls-7" d="M352.01,318.16c5.13-10.59,10.11-22.59,6.26-34.44-.4-1.22-2.33-.7-1.93.53,3.68,11.31-1.15,22.78-6.05,32.89-.56,1.16,1.17,2.17,1.73,1.01h0Z"/>
    </g>
    <g class="cls-18">
      <path class="cls-7" d="M361.32,229.21c5.13-10.59,10.11-22.59,6.26-34.44-.4-1.22-2.33-.7-1.93.53,3.68,11.31-1.15,22.78-6.05,32.89-.56,1.16,1.17,2.17,1.73,1.01h0Z"/>
    </g>
    <g class="cls-18">
      <path class="cls-7" d="M350.41,207.95c5.13-10.59,10.11-22.59,6.26-34.44-.4-1.22-2.33-.7-1.93.53,3.68,11.31-1.15,22.78-6.05,32.89-.56,1.16,1.17,2.17,1.73,1.01h0Z"/>
    </g>
    <g class="cls-18">
      <path class="cls-7" d="M335.56,207.95c3.55-7.33,6.87-14.86,7.53-23.08.1-1.29-1.9-1.28-2,0-.63,7.84-3.87,15.08-7.26,22.07-.56,1.16,1.17,2.17,1.73,1.01h0Z"/>
    </g>
    <g class="cls-18">
      <path class="cls-7" d="M342.52,255.31c5.13-10.59,10.11-22.59,6.26-34.44-.4-1.22-2.33-.7-1.93.53,3.68,11.31-1.15,22.78-6.05,32.89-.56,1.16,1.17,2.17,1.73,1.01h0Z"/>
    </g>
    <g class="cls-18">
      <path class="cls-7" d="M338.19,298.54c5.13-10.59,10.11-22.59,6.26-34.44-.4-1.22-2.33-.7-1.93.53,3.68,11.31-1.15,22.78-6.05,32.89-.56,1.16,1.17,2.17,1.73,1.01h0Z"/>
    </g>
    <g class="cls-18">
      <path class="cls-7" d="M317.15,264.57c5.13-10.59,10.11-22.59,6.26-34.44-.4-1.22-2.33-.7-1.93.53,3.68,11.31-1.15,22.78-6.05,32.89-.56,1.16,1.17,2.17,1.73,1.01h0Z"/>
    </g>
    <g class="cls-18">
      <path class="cls-7" d="M318.16,310.79c5.13-10.59,10.11-22.59,6.26-34.44-.4-1.22-2.33-.7-1.93.53,3.68,11.31-1.15,22.78-6.05,32.89-.56,1.16,1.17,2.17,1.73,1.01h0Z"/>
    </g>
    <g class="cls-18">
      <path class="cls-7" d="M307.8,323c5.13-10.59,10.11-22.59,6.26-34.44-.4-1.22-2.33-.7-1.93.53,3.68,11.31-1.15,22.78-6.05,32.89-.56,1.16,1.17,2.17,1.73,1.01h0Z"/>
    </g>
    <g class="cls-18">
      <path class="cls-7" d="M306.39,283.09c5.13-10.59,10.11-22.59,6.26-34.44-.4-1.22-2.33-.7-1.93.53,3.68,11.31-1.15,22.78-6.05,32.89-.56,1.16,1.17,2.17,1.73,1.01h0Z"/>
    </g>
    <g class="cls-18">
      <path class="cls-7" d="M292.05,308.2c5.13-10.59,10.11-22.59,6.26-34.44-.4-1.22-2.33-.7-1.93.53,3.68,11.31-1.15,22.78-6.05,32.89-.56,1.16,1.17,2.17,1.73,1.01h0Z"/>
    </g>
    <g class="cls-18">
      <path class="cls-7" d="M288.74,349.81c5.13-10.59,10.11-22.59,6.26-34.44-.4-1.22-2.33-.7-1.93.53,3.68,11.31-1.15,22.78-6.05,32.89-.56,1.16,1.17,2.17,1.73,1.01h0Z"/>
    </g>
    <g class="cls-18">
      <path class="cls-7" d="M262.27,228.79c1.86,11.42,4.56,24.25,14.62,31.37,1.06.75,2.06-.99,1.01-1.73-9.56-6.76-11.95-19.38-13.7-30.17-.21-1.27-2.14-.73-1.93.53h0Z"/>
    </g>
    <g class="cls-18">
      <path class="cls-7" d="M278.64,245.67c5.13-10.59,10.11-22.59,6.26-34.44-.4-1.22-2.33-.7-1.93.53,3.68,11.31-1.15,22.78-6.05,32.89-.56,1.16,1.17,2.17,1.73,1.01h0Z"/>
    </g>
    <g class="cls-18">
      <path class="cls-7" d="M279.25,286.96c5.13-10.59,10.11-22.59,6.26-34.44-.4-1.22-2.33-.7-1.93.53,3.68,11.31-1.15,22.78-6.05,32.89-.56,1.16,1.17,2.17,1.73,1.01h0Z"/>
    </g>
    <g class="cls-18">
      <path class="cls-7" d="M274.92,330.19c5.13-10.59,10.11-22.59,6.26-34.44-.4-1.22-2.33-.7-1.93.53,3.68,11.31-1.15,22.78-6.05,32.89-.56,1.16,1.17,2.17,1.73,1.01h0Z"/>
    </g>
    <g class="cls-18">
      <path class="cls-7" d="M253.88,296.22c5.13-10.59,10.11-22.59,6.26-34.44-.4-1.22-2.33-.7-1.93.53,3.68,11.31-1.15,22.78-6.05,32.89-.56,1.16,1.17,2.17,1.73,1.01h0Z"/>
    </g>
    <g class="cls-18">
      <path class="cls-7" d="M254.9,342.44c5.13-10.59,10.11-22.59,6.26-34.44-.4-1.22-2.33-.7-1.93.53,3.68,11.31-1.15,22.78-6.05,32.89-.56,1.16,1.17,2.17,1.73,1.01h0Z"/>
    </g>
    <g class="cls-18">
      <path class="cls-7" d="M362.37,213.17c-1.27-9.21-2.92-18.76-8.57-26.42-.76-1.03-2.5-.03-1.73,1.01,5.55,7.52,7.12,16.89,8.37,25.94.18,1.27,2.11.73,1.93-.53h0Z"/>
    </g>
    <g class="cls-18">
      <path class="cls-7" d="M326.19,201.3c-1.59-11.49-3.99-24.36-13.88-31.75-1.03-.77-2.03.97-1.01,1.73,9.38,7.01,11.47,19.72,12.96,30.55.18,1.27,2.11.73,1.93-.53h0Z"/>
    </g>
    <g class="cls-18">
      <path class="cls-7" d="M366.64,245.7c-1.59-11.49-3.99-24.36-13.88-31.75-1.03-.77-2.03.97-1.01,1.73,9.38,7.01,11.47,19.72,12.96,30.55.18,1.27,2.11.73,1.93-.53h0Z"/>
    </g>
    <g class="cls-18">
      <path class="cls-7" d="M300.93,166.15c-1.59-11.49-3.99-24.36-13.88-31.75-1.03-.77-2.03.97-1.01,1.73,9.38,7.01,11.47,19.72,12.96,30.55.18,1.27,2.11.73,1.93-.53h0Z"/>
    </g>
    <g class="cls-18">
      <path class="cls-7" d="M310.86,190.64c-1.59-11.49-3.99-24.36-13.88-31.75-1.03-.77-2.03.97-1.01,1.73,9.38,7.01,11.47,19.72,12.96,30.55.18,1.27,2.11.73,1.93-.53h0Z"/>
    </g>
    <g class="cls-18">
      <path class="cls-7" d="M306.74,217.46c-1.59-11.49-3.99-24.36-13.88-31.75-1.03-.77-2.03.97-1.01,1.73,9.38,7.01,11.47,19.72,12.96,30.55.18,1.27,2.11.73,1.93-.53h0Z"/>
    </g>
    <g class="cls-18">
      <path class="cls-7" d="M339.66,239.64c-1.59-11.49-3.99-24.36-13.88-31.75-1.03-.77-2.03.97-1.01,1.73,9.38,7.01,11.47,19.72,12.96,30.55.18,1.27,2.11.73,1.93-.53h0Z"/>
    </g>
    <g class="cls-18">
      <path class="cls-7" d="M300.03,239.37c-1.59-11.49-3.99-24.36-13.88-31.75-1.03-.77-2.03.97-1.01,1.73,9.38,7.01,11.47,19.72,12.96,30.55.18,1.27,2.11.73,1.93-.53h0Z"/>
    </g>
    <g class="cls-18">
      <path class="cls-7" d="M337.78,259.21c-1.59-11.49-3.99-24.36-13.88-31.75-1.03-.77-2.03.97-1.01,1.73,9.38,7.01,11.47,19.72,12.96,30.55.18,1.27,2.11.73,1.93-.53h0Z"/>
    </g>
    <g class="cls-18">
      <path class="cls-7" d="M221.9,155.83c-8.3,8.23-16.6,17.81-16.71,30.17-.01,1.29,1.99,1.29,2,0,.1-11.8,8.22-20.91,16.12-28.75.92-.91-.5-2.33-1.42-1.42h0Z"/>
    </g>
    <g class="cls-18">
      <path class="cls-7" d="M210.64,193.9c-8.3,8.23-16.6,17.81-16.71,30.17-.01,1.29,1.99,1.29,2,0,.1-11.8,8.22-20.91,16.12-28.75.92-.91-.5-2.33-1.42-1.42h0Z"/>
    </g>
    <g class="cls-18">
      <path class="cls-7" d="M232.05,175.46c-8.3,8.23-16.6,17.81-16.71,30.17-.01,1.29,1.99,1.29,2,0,.1-11.8,8.22-20.91,16.12-28.75.92-.91-.5-2.33-1.42-1.42h0Z"/>
    </g>
    <g class="cls-18">
      <path class="cls-7" d="M248.29,137.5c-8.3,8.23-16.6,17.81-16.71,30.17-.01,1.29,1.99,1.29,2,0,.1-11.8,8.22-20.91,16.12-28.75.92-.91-.5-2.33-1.42-1.42h0Z"/>
    </g>
    <g class="cls-18">
      <path class="cls-7" d="M211.47,214.3c-8.3,8.23-16.6,17.81-16.71,30.17-.01,1.29,1.99,1.29,2,0,.1-11.8,8.22-20.91,16.12-28.75.92-.91-.5-2.33-1.42-1.42h0Z"/>
    </g>
    <g class="cls-18">
      <path class="cls-7" d="M201.85,179.85c-8.3,8.23-16.6,17.81-16.71,30.17-.01,1.29,1.99,1.29,2,0,.1-11.8,8.22-20.91,16.12-28.75.92-.91-.5-2.33-1.42-1.42h0Z"/>
    </g>
    <g class="cls-18">
      <path class="cls-7" d="M244.28,233.48c-8.3,8.23-16.6,17.81-16.71,30.17-.01,1.29,1.99,1.29,2,0,.1-11.8,8.22-20.91,16.12-28.75.92-.91-.5-2.33-1.42-1.42h0Z"/>
    </g>
    <g class="cls-18">
      <path class="cls-7" d="M256.73,194.57c-8.3,8.23-16.6,17.81-16.71,30.17-.01,1.29,1.99,1.29,2,0,.1-11.8,8.22-20.91,16.12-28.75.92-.91-.5-2.33-1.42-1.42h0Z"/>
    </g>
    <g class="cls-18">
      <path class="cls-7" d="M255.11,160.96c-8.3,8.23-16.6,17.81-16.71,30.17-.01,1.29,1.99,1.29,2,0,.1-11.8,8.22-20.91,16.12-28.75.92-.91-.5-2.33-1.42-1.42h0Z"/>
    </g>
    <g class="cls-18">
      <path class="cls-7" d="M273.34,201.83c-8.3,8.23-16.6,17.81-16.71,30.17-.01,1.29,1.99,1.29,2,0,.1-11.8,8.22-20.91,16.12-28.75.92-.91-.5-2.33-1.42-1.42h0Z"/>
    </g>
    <g class="cls-18">
      <path class="cls-7" d="M264.26,179.17c-8.3,8.23-16.6,17.81-16.71,30.17-.01,1.29,1.99,1.29,2,0,.1-11.8,8.22-20.91,16.12-28.75.92-.91-.5-2.33-1.42-1.42h0Z"/>
    </g>
    <g class="cls-18">
      <path class="cls-7" d="M331.51,336.91c3-11.37,5.64-24.2-.44-35.08-.63-1.13-2.36-.12-1.73,1.01,5.8,10.37,3.08,22.71.23,33.53-.33,1.25,1.6,1.78,1.93.53h0Z"/>
    </g>
    <g class="cls-18">
      <path class="cls-7" d="M310.19,346.25c3-11.37,5.64-24.2-.44-35.08-.63-1.13-2.36-.12-1.73,1.01,5.8,10.37,3.08,22.71.23,33.53-.33,1.25,1.6,1.78,1.93.53h0Z"/>
    </g>
    <g class="cls-18">
      <path class="cls-7" d="M266.93,319.76c-1.18,11.68-1.8,24.74,5.96,34.47.8,1.01,2.21-.42,1.42-1.42-7.37-9.24-6.48-22.03-5.37-33.06.13-1.28-1.88-1.27-2,0h0Z"/>
    </g>
    <g class="cls-18">
      <path class="cls-7" d="M279.44,134.75c-4.06,11.1-7.75,23.51-2.71,34.95.52,1.18,2.25.16,1.73-1.01-4.78-10.86-.92-22.92,2.92-33.4.44-1.21-1.49-1.74-1.93-.53h0Z"/>
    </g>
    <g class="cls-18">
      <path class="cls-7" d="M262.11,136.27c-4.06,11.1-7.75,23.51-2.71,34.95.52,1.18,2.25.16,1.73-1.01-4.78-10.86-.92-22.92,2.92-33.4.44-1.21-1.49-1.74-1.93-.53h0Z"/>
    </g>
    <g class="cls-18">
      <path class="cls-7" d="M285.2,160.9c-4.06,11.1-7.75,23.51-2.71,34.95.52,1.18,2.25.16,1.73-1.01-4.78-10.86-.92-22.92,2.92-33.4.44-1.21-1.49-1.74-1.93-.53h0Z"/>
    </g>
    <path class="cls-11" d="M208.33,251.58s25.21-17.46,50.56-1.11"/>
    <path class="cls-11" d="M212.01,238.06s25.21-17.46,50.56-1.11"/>
    <path class="cls-11" d="M282.57,238.85s25.21-17.46,50.56-1.11"/>
  </g>
  <path class="cls-4" d="M290.81,280.16c7.59-.29,16.07-2.48,21.53-8.01,1.91-1.93-1.07-4.92-2.98-2.98-4.65,4.72-12.08,6.53-18.55,6.77-2.7.1-2.72,4.32,0,4.22h0Z"/>
  <rect class="cls-17" x="201.03" y="207.12" width="59.48" height="35.38" rx="5.68" ry="5.68"/>
  <circle class="cls-4" cx="224.07" cy="224.82" r="9.68"/>
  <circle class="cls-13" cx="228.85" cy="228.39" r="4.78"/>
  <path class="cls-12" d="M262.81,232.75s8.2-2.45,12.34,0v-5.58s-4.9-1.27-12.34,0v5.58Z"/>
  <rect class="cls-17" x="277.37" y="207.59" width="59.48" height="35.38" rx="5.68" ry="5.68"/>
  <circle class="cls-4" cx="300.42" cy="225.28" r="9.68"/>
  <circle class="cls-13" cx="305.19" cy="228.85" r="4.78"/>
  <ellipse class="cls-6" cx="341.65" cy="170.42" rx="8" ry="17.06" transform="translate(-29.23 261.08) rotate(-40.25)"/>
  <ellipse class="cls-6" cx="310.1" cy="145.74" rx="8" ry="17.06" transform="translate(13.13 316.66) rotate(-55.09)"/>
  <path class="cls-6" d="M348.28,155.18c2.71,2.65-9.16-1.61-14.28-5.18-4.73-3.3-8.15-7.33-9.5-10.78,0,0,15.68,8.04,23.79,15.96Z"/>
  <path class="cls-14" d="M178.41,287.46s-13.63,7.57-17.38,9.86c-3.75,2.29-12.42,9.27-12.2,11.8s.34,4.39-.73,7.47-1.32,11.15,8.46,14.77c9.77,3.62,25.03,10,25.03,10l4.43-14.03s-21.91-9.26-20.36-10.7,9.12-4.49,12.47-3.82,10.1-5.25,10.1-5.25l-9.82-20.1Z"/>
  <path class="cls-14" d="M259.9,361.14l-14.69-67.24c-.14-.62-.6-1.12-1.21-1.29l-69.19-19.9"/>
  <g>
    <path class="cls-13" d="M233.04,417.53c-1.39.36-2.69-.42-3.05-1.84-.34-1.31.48-2.67,1.83-3.01,1.34-.35,2.73.5,3.07,1.87.33,1.33-.47,2.63-1.85,2.99Z"/>
    <path class="cls-13" d="M233.18,417.73c1.35-.4,2.76.38,3.14,1.73.38,1.33-.37,2.67-1.72,3.07-1.35.4-2.7-.32-3.1-1.65-.42-1.39.3-2.75,1.68-3.16Z"/>
    <path class="cls-13" d="M231.64,412.47c-1.36.39-2.67-.34-3.07-1.68-.4-1.36.39-2.8,1.72-3.15,1.33-.35,2.76.47,3.12,1.81.36,1.33-.41,2.64-1.78,3.03Z"/>
    <path class="cls-13" d="M238.13,408.04c.34,1.14-.32,2.37-1.46,2.74-1.15.37-2.5-.38-2.83-1.59-.31-1.12.41-2.38,1.55-2.7,1.2-.35,2.38.32,2.74,1.55Z"/>
    <path class="cls-13" d="M239.59,413.07c.34,1.15-.33,2.38-1.47,2.73-1.18.36-2.51-.38-2.83-1.58-.3-1.12.41-2.37,1.56-2.7,1.2-.35,2.38.31,2.74,1.54Z"/>
    <path class="cls-13" d="M240.71,405.99c.62-.17,1.3.2,1.49.82.2.65-.2,1.38-.84,1.55-.67.18-1.32-.21-1.5-.9-.16-.63.22-1.29.85-1.46Z"/>
    <path class="cls-13" d="M242.15,411.03c.63-.18,1.31.17,1.5.79.21.65-.17,1.37-.82,1.56-.68.19-1.32-.17-1.51-.87-.17-.64.19-1.29.82-1.47Z"/>
    <path class="cls-13" d="M240.08,418.34c.18.63-.16,1.3-.78,1.5-.68.22-1.33-.13-1.54-.81-.2-.68.16-1.33.85-1.51.64-.17,1.28.19,1.47.83Z"/>
    <path class="cls-13" d="M243.6,416.07c.62-.19,1.3.16,1.51.77.22.65-.15,1.36-.81,1.55-.68.2-1.35-.17-1.53-.85-.17-.63.19-1.28.83-1.47Z"/>
  </g>
  <g>
    <path class="cls-13" d="M299.51,415.27c-1.37-.42-2.06-1.78-1.61-3.18.41-1.29,1.82-2.01,3.14-1.59,1.32.41,2.05,1.87,1.62,3.21-.42,1.31-1.79,1.98-3.15,1.56Z"/>
    <path class="cls-13" d="M299.51,415.52c1.36.37,2.15,1.78,1.76,3.13-.38,1.33-1.73,2.07-3.08,1.7-1.36-.37-2.12-1.69-1.76-3.04.37-1.4,1.71-2.18,3.09-1.8Z"/>
    <path class="cls-13" d="M300.99,410.25c-1.35-.39-2.09-1.7-1.71-3.05.38-1.36,1.81-2.17,3.12-1.77,1.32.4,2.1,1.86,1.7,3.18-.4,1.32-1.74,2.02-3.11,1.63Z"/>
    <path class="cls-13" d="M308.84,409.91c-.32,1.15-1.52,1.85-2.69,1.56-1.18-.29-1.92-1.64-1.56-2.84.33-1.11,1.6-1.8,2.74-1.48,1.2.34,1.85,1.53,1.51,2.76Z"/>
    <path class="cls-13" d="M307.42,414.95c-.32,1.15-1.53,1.85-2.69,1.55-1.2-.32-1.93-1.64-1.57-2.84.34-1.11,1.6-1.79,2.75-1.47,1.21.34,1.86,1.52,1.51,2.76Z"/>
    <path class="cls-13" d="M312.11,409.53c.62.18,1,.86.84,1.48-.17.65-.9,1.07-1.53.87-.67-.21-1.01-.88-.8-1.56.2-.63.87-.98,1.49-.79Z"/>
    <path class="cls-13" d="M310.67,414.57c.63.18,1.02.84.86,1.46-.17.66-.87,1.07-1.52.89-.68-.2-1.03-.84-.82-1.53.19-.63.84-1,1.48-.82Z"/>
    <path class="cls-13" d="M305.06,419.69c-.18.63-.82,1.01-1.45.86-.69-.17-1.07-.81-.88-1.5.19-.69.84-1.05,1.52-.84.63.2.99.84.81,1.48Z"/>
    <path class="cls-13" d="M309.24,419.61c.62.17,1.02.83.87,1.45-.16.66-.85,1.07-1.51.89-.68-.19-1.05-.85-.85-1.52.19-.63.84-.99,1.48-.81Z"/>
  </g>
  <path class="cls-14" d="M174.81,272.71c-.8-.17-1.55.47-1.49,1.29.87,12.96,27.8,74.12,28.22,81.94,0,0,52.97,10.17,56.92,7.01.9-.72,2.04-.83,1.45-1.81"/>
  <path class="cls-14" d="M179.51,295.37s45.45,10.15,67.87,8.46"/>
  <path class="cls-15" d="M221.32,302.75s1.35,9.92,0,10.71-9.07,4.26-9.07,4.26c0,0-8.17-5.05-9.3-5.1s-3.83-13.44-3.83-13.44l10.02,8.33c.73.6,1.71.81,2.63.57,2.32-.63,6.8-3.24,9.55-5.33Z"/>
  <path class="cls-5" d="M362.47,306.72c8.38,2.71,16.74,6.08,24.41,10.43,3.74,2.12,9.09,5.4,10.08,8.81.08.29.23.51-.09,1.17-.09.18-.71,1.07-1.51,1.72-2.56,2.07-6.08,3.11-9.18,4.02-18.66,5.43-39.05,5.9-58.31,6.7-3.84.16-3.86,6.15,0,5.99,19.13-.8,39.04-1.5,57.68-6.31,5.91-1.52,15.81-4.14,17.28-11.27,1.19-5.76-4.23-10.25-8.39-13.16-5.57-3.89-11.89-6.7-18.14-9.29-4.02-1.66-8.1-3.23-12.24-4.57-3.67-1.19-5.25,4.59-1.59,5.77h0Z"/>
  <path class="cls-14" d="M377.76,294.89s12.92,8.72,16.46,11.33c3.54,2.61,11.57,10.31,11.13,12.82s-.72,4.35.08,7.5.35,11.22-9.71,13.98c-10.05,2.76-25.8,7.79-25.8,7.79l-3.19-14.36s22.63-7.32,21.21-8.9c-1.42-1.57-8.69-5.27-12.09-4.88s-9.61-6.1-9.61-6.1l11.52-19.17Z"/>
  <path class="cls-10" d="M372.47,332.01s3.84,8.63,1.82,14.92l-5.59-10.84,3.76-4.08Z"/>
  <path class="cls-14" d="M200.36,351.1l59.21,6.47s2.96,5.53,1.95,5.99-41.21-1.5-59.99-7.62l-1.17-4.85Z"/>
  <path class="cls-10" d="M191.56,292.49s36.2-3.85,44.77-2.02l-22.14-6.32-22.62,8.34Z"/>
  <circle class="cls-3" cx="211.13" cy="305.79" r="1.49"/>
  <path class="cls-16" d="M204.93,304.02s3.57,33.19,6.42,48.32"/>
  <path class="cls-16" d="M216.69,305.79s4.09,35.47,3.39,47.36"/>
  <path class="cls-14" d="M173.55,272.2c-.79-.21-1.29,1.14-.67,1.81,7.81,8.38,15.5,19.74,17.23,18.84.41-.21,2.12-.51,4.62-.85,10.5-1.43,34.89-3.64,34.89-3.64,0,0-16.02-5.43-56.08-16.16Z"/>
  <path class="cls-16" d="M240.66,304.02s3.36,25.67,13.37,59.19"/>
  <circle class="cls-3" cx="244.25" cy="307.69" r="1.49"/>
  <circle class="cls-3" cx="247.38" cy="324.68" r="1.49"/>
  <circle class="cls-3" cx="251.52" cy="340.44" r="1.49"/>
  <path class="cls-14" d="M297.82,362.35l14.69-67.24c.14-.62.6-1.12,1.21-1.29l69.19-19.9"/>
  <path class="cls-14" d="M382.92,273.92c.8-.17,1.55.47,1.49,1.29-.87,12.96-27.8,74.12-28.22,81.94,0,0-52.97,10.17-56.92,7.01-.9-.72-2.04-.83-1.45-1.81"/>
  <path class="cls-14" d="M378.21,296.58s-45.45,10.15-67.87,8.46"/>
  <path class="cls-15" d="M336.41,303.95s-1.35,9.92,0,10.71,9.07,4.26,9.07,4.26c0,0,8.17-5.05,9.3-5.1s3.83-13.44,3.83-13.44l-10.02,8.33c-.73.6-1.71.81-2.63.57-2.32-.63-6.8-3.24-9.55-5.33Z"/>
  <path class="cls-14" d="M357.37,352.31l-59.21,6.47s-2.96,5.53-1.95,5.99,41.21-1.5,59.99-7.62l1.17-4.85Z"/>
  <path class="cls-10" d="M366.16,293.69s-36.2-3.85-44.77-2.02l22.14-6.32,22.62,8.34Z"/>
  <circle class="cls-3" cx="346.59" cy="307" r="1.49"/>
  <path class="cls-16" d="M352.79,305.23s-3.57,33.19-6.42,48.32"/>
  <path class="cls-16" d="M341.03,307s-4.09,35.47-3.39,47.36"/>
  <path class="cls-14" d="M384.18,273.41c.79-.21,1.29,1.14.67,1.81-7.81,8.38-15.5,19.74-17.23,18.84-.41-.21-2.12-.51-4.62-.85-10.5-1.43-34.89-3.64-34.89-3.64,0,0,16.02-5.43,56.08-16.16Z"/>
  <path class="cls-16" d="M317.06,305.23s-3.36,25.67-13.37,59.19"/>
  <circle class="cls-3" cx="256.76" cy="359.71" r="1.49"/>
  <path class="cls-5" d="M363.54,337c-3.86.45-7.71.92-11.58,1.23s-3.85,6.3,0,5.99,7.72-.78,11.58-1.23,3.83-6.43,0-5.99h0Z"/>
  <path class="cls-1" d="M351.66,333.27s1.49,15.95,3.22,16.82c0,0-4.13,1.66-4.58-.93s-3.65-16.25-2.22-16.34,3.58.45,3.58.45Z"/>
  <path class="cls-1" d="M370.42,349.86s3.39-.33,3.81-2.04-1.38-17.66-2.74-18.37-8.27,2.42-8.36,3.73.08,19.13,7.29,16.68Z"/>
  <path class="cls-5" d="M185.63,336.96c5.55,2.01,11.15,3.85,16.83,5.48,3.71,1.06,5.29-4.71,1.59-5.77-5.68-1.62-11.28-3.46-16.83-5.48-3.63-1.31-5.19,4.47-1.59,5.77h0Z"/>
  <path class="cls-1" d="M203.81,331.11s-1.49,15.95-3.22,16.82c0,0,4.13,1.66,4.58-.93s3.65-16.25,2.22-16.34-3.58.45-3.58.45Z"/>
  <path class="cls-10" d="M180.29,340.21s-.8-8.14,3.11-14.7l-3.11,14.7Z"/>
  <path class="cls-1" d="M183.89,343.47s-3.35-.62-3.62-2.36,2.9-17.48,4.32-18.06,8.03,3.13,8.01,4.44-1.73,19.05-8.7,15.98Z"/>
</svg>