<?xml version="1.0" encoding="UTF-8"?>
<svg id="Layer_1" data-name="Layer 1" xmlns="http://www.w3.org/2000/svg" viewBox="0 0 500 500">
  <defs>
    <style>
      .cls-1 {
        fill: #3e4de5;
        opacity: .3;
      }

      .cls-1, .cls-2 {
        stroke-width: 0px;
      }

      .cls-3, .cls-2 {
        fill: #000;
      }

      .cls-3, .cls-4 {
        stroke: #000;
        stroke-miterlimit: 10;
      }

      .cls-4 {
        fill: none;
      }
    </style>
  </defs>
  <ellipse class="cls-1" cx="259.51" cy="245.29" rx="163.86" ry="121.61" transform="translate(-96.97 266.09) rotate(-46.73)"/>
  <g>
    <path class="cls-2" d="M293.89,332.66s-1.04,33.23,5.92,64.7"/>
    <path class="cls-2" d="M291.39,332.66c-.65,21.79,1.41,44.07,6.01,65.36.68,3.14,5.5,1.81,4.82-1.33-4.51-20.85-6.47-42.68-5.83-64.03.1-3.22-4.9-3.22-5,0h0Z"/>
  </g>
  <g>
    <path class="cls-2" d="M234.38,328.01s1.04,33.23-5.92,64.7"/>
    <path class="cls-2" d="M231.88,328.01c.63,21.35-1.33,43.18-5.83,64.03-.68,3.14,4.14,4.48,4.82,1.33,4.6-21.29,6.66-43.57,6.01-65.36-.1-3.21-5.1-3.22-5,0h0Z"/>
  </g>
  <path class="cls-3" d="M177.13,234.11c-.35,5.88-.59,11.82.29,17.63s2.98,11.56,6.77,15.83"/>
  <path class="cls-3" d="M176.25,205.89c-.35,5.88-.59,11.82.29,17.63s2.98,11.56,6.77,15.83"/>
  <path class="cls-3" d="M290.64,387.82c-.68-.26-1.39.34-1.22,1.05.7,3,1.38,9.56-2.17,19.31,0,0-2.02,5.39-1.29,8.75,0,0,4.84,3.49,26.01,1.47,0,0,10.71-.43,16.53-.31,5.81.12,24.73-2.88,26.93-5.51,0,0,.31-1.96-13.34-1.83,0,0-10.08-.31-21.47-10.71-9.06-8.27-12.7-15.42-13.81-18.01-.25-.57-.92-.82-1.48-.54-1.94.99-5.73,3.44-4.44,7.04,0,0-4.99,1.28-10.26-.72Z"/>
  <path class="cls-3" d="M285.96,416.93s-.98,3.18,0,7.53c0,0,3.98,2.33,15.98,1.59,12-.73,17.2-.2,21.85.14,4.65.35,27.48-1.18,32.62-6.02,0,0,2.26-.86,1.16-5.75,0,0-.21-1.53-2.14-2.33s-3.24-1.36-11.69-1.35c0,0,2.27,3.33,2.02,4.85,0,0-9.24,2.63-23.02,2.51,0,0-4.96.12-13.28.52,0,0-14.81.82-23.5-1.69Z"/>
  <path class="cls-3" d="M311.21,389.58s-5.11.79-4.5,2.08,5.64-.53,5.64-.53l-1.15-1.54Z"/>
  <path class="cls-3" d="M315.26,394.62s-5.73,1.81-4.44,3.4c1.29,1.59,6.01-1.7,6.01-1.7l-1.56-1.7Z"/>
  <path class="cls-3" d="M319.47,398.97s-7.13,1.91-5.47,4.18c1.65,2.27,6.62-3.11,6.62-3.11l-1.15-1.07Z"/>
  <path class="cls-3" d="M324.36,403.15s-6.51,1.23-5.41,3.38,6.86-2.32,6.86-2.32l-1.45-1.05Z"/>
  <path class="cls-3" d="M328.71,406.06s-5.41,2.12-3.88,3.47,5.77-2.42,5.77-2.42l-1.89-1.05Z"/>
  <path class="cls-3" d="M333.02,408.27s-3.63,1.93-2.42,2.79,4.49-1.95,4.49-1.95l-2.07-.84Z"/>
  <path class="cls-3" d="M236.64,387.98c.88-.3,1.75.46,1.56,1.37-.65,3.19-1.1,9.57,2.28,18.83,0,0,2.02,5.39,1.29,8.75,0,0-4.84,3.49-26.01,1.47,0,0-10.71-.43-16.53-.31-5.81.12-24.73-2.88-26.93-5.51,0,0-.31-1.96,13.34-1.83,0,0,10.08-.31,21.47-10.71,8.97-8.19,12.63-15.29,13.77-17.93.27-.62,1.01-.88,1.6-.57,1.97,1.02,5.61,3.45,4.34,6.99,0,0,4.71,1.21,9.81-.55Z"/>
  <path class="cls-3" d="M241.77,416.93s.98,3.18,0,7.53c0,0-3.98,2.33-15.98,1.59-12-.73-17.2-.2-21.85.14-4.65.35-27.48-1.18-32.62-6.02,0,0-2.26-.86-1.16-5.75,0,0,.21-1.53,2.14-2.33s3.24-1.36,11.69-1.35c0,0-2.27,3.33-2.02,4.85,0,0,9.24,2.63,23.02,2.51,0,0,4.96.12,13.28.52,0,0,14.81.82,23.5-1.69Z"/>
  <path class="cls-3" d="M216.52,389.58s5.11.79,4.5,2.08-5.64-.53-5.64-.53l1.15-1.54Z"/>
  <path class="cls-3" d="M212.48,394.62s5.73,1.81,4.44,3.4-6.01-1.7-6.01-1.7l1.56-1.7Z"/>
  <path class="cls-3" d="M208.26,398.97s7.13,1.91,5.47,4.18-6.62-3.11-6.62-3.11l1.15-1.07Z"/>
  <path class="cls-3" d="M203.37,403.15s6.51,1.23,5.41,3.38c-1.1,2.14-6.86-2.32-6.86-2.32l1.45-1.05Z"/>
  <path class="cls-3" d="M199.03,406.06s5.41,2.12,3.88,3.47-5.77-2.42-5.77-2.42l1.89-1.05Z"/>
  <path class="cls-3" d="M194.72,408.27s3.63,1.93,2.42,2.79-4.49-1.95-4.49-1.95l2.07-.84Z"/>
  <g>
    <ellipse class="cls-3" cx="272.83" cy="236.32" rx="108.5" ry="116.25"/>
    <path class="cls-3" d="M193.47,270.01c-.35,5.88-.59,11.82.29,17.63.88,5.82,2.98,11.56,6.77,15.83"/>
    <path class="cls-3" d="M197.12,240.83c-.35,5.88-.59,11.82.29,17.63.88,5.82,2.98,11.56,6.77,15.83"/>
    <path class="cls-3" d="M209.47,286.74c-.35,5.88-.59,11.82.29,17.63.88,5.82,2.98,11.56,6.77,15.83"/>
    <path class="cls-3" d="M227.47,301.46c-.35,5.88-.59,11.82.29,17.63.88,5.82,2.98,11.56,6.77,15.83"/>
    <path class="cls-3" d="M236.55,281.34c-.35,5.88-.59,11.82.29,17.63.88,5.82,2.98,11.56,6.77,15.83"/>
    <path class="cls-3" d="M216.84,254.73c-.35,5.88-.59,11.82.29,17.63.88,5.82,2.98,11.56,6.77,15.83"/>
    <path class="cls-3" d="M204.49,213.3c-.35,5.88-.59,11.82.29,17.63.88,5.82,2.98,11.56,6.77,15.83"/>
    <path class="cls-3" d="M236.55,235.27c-.35,5.88-.59,11.82.29,17.63.88,5.82,2.98,11.56,6.77,15.83"/>
    <path class="cls-3" d="M218.19,193.43c-.35,5.88-.59,11.82.29,17.63.88,5.82,2.98,11.56,6.77,15.83"/>
    <path class="cls-3" d="M363.67,282.2c2.54-5.23,5-10.55,6.38-16.26s1.63-11.86-.23-17.41"/>
    <path class="cls-3" d="M362.26,242.3c2.54-5.23,5-10.55,6.38-16.26,1.38-5.7,1.63-11.86-.23-17.41"/>
    <path class="cls-3" d="M347.92,267.4c2.54-5.23,5-10.55,6.38-16.26s1.63-11.86-.23-17.41"/>
    <path class="cls-3" d="M344.62,309.02c2.54-5.23,5-10.55,6.38-16.26s1.63-11.86-.23-17.41"/>
    <path class="cls-3" d="M353.93,220.07c2.54-5.23,5-10.55,6.38-16.26s1.63-11.86-.23-17.41"/>
    <path class="cls-3" d="M343.02,198.81c2.54-5.23,5-10.55,6.38-16.26,1.38-5.7,1.63-11.86-.23-17.41"/>
    <path class="cls-3" d="M328.17,198.81c2.54-5.23,5-10.55,6.38-16.26.5-2.06.85-4.19,1.01-6.32"/>
    <path class="cls-3" d="M335.13,246.16c2.54-5.23,5-10.55,6.38-16.26,1.38-5.7,1.63-11.86-.23-17.41"/>
    <path class="cls-3" d="M330.8,289.4c2.54-5.23,5-10.55,6.38-16.26,1.38-5.7,1.63-11.86-.23-17.41"/>
    <path class="cls-3" d="M309.76,255.42c2.54-5.23,5-10.55,6.38-16.26,1.38-5.7,1.63-11.86-.23-17.41"/>
    <path class="cls-3" d="M310.78,301.65c2.54-5.23,5-10.55,6.38-16.26s1.63-11.86-.23-17.41"/>
    <path class="cls-3" d="M300.41,313.85c2.54-5.23,5-10.55,6.38-16.26,1.38-5.7,1.63-11.86-.23-17.41"/>
    <path class="cls-3" d="M299,273.95c2.54-5.23,5-10.55,6.38-16.26s1.63-11.86-.23-17.41"/>
    <path class="cls-3" d="M284.66,299.05c2.54-5.23,5-10.55,6.38-16.26,1.38-5.7,1.63-11.86-.23-17.41"/>
    <path class="cls-3" d="M281.35,340.67c2.54-5.23,5-10.55,6.38-16.26s1.63-11.86-.23-17.41"/>
    <path class="cls-3" d="M256.72,219.89c.94,5.81,2,11.64,4.13,17.07,2.13,5.43,5.42,10.5,10.03,13.69"/>
    <path class="cls-3" d="M271.26,236.53c2.54-5.23,5-10.55,6.38-16.26,1.38-5.7,1.63-11.86-.23-17.41"/>
    <path class="cls-3" d="M271.86,277.81c2.54-5.23,5-10.55,6.38-16.26s1.63-11.86-.23-17.41"/>
    <path class="cls-3" d="M267.53,321.05c2.54-5.23,5-10.55,6.38-16.26,1.38-5.7,1.63-11.86-.23-17.41"/>
    <path class="cls-3" d="M246.49,287.07c2.54-5.23,5-10.55,6.38-16.26,1.38-5.7,1.63-11.86-.23-17.41"/>
    <path class="cls-3" d="M247.51,333.3c2.54-5.23,5-10.55,6.38-16.26,1.38-5.7,1.63-11.86-.23-17.41"/>
    <path class="cls-3" d="M354.88,204.8c-.8-5.83-1.72-11.69-3.72-17.18-1.17-3.21-2.74-6.31-4.75-9"/>
    <path class="cls-3" d="M318.7,192.93c-.8-5.83-1.72-11.69-3.72-17.18s-5.16-10.64-9.7-13.96"/>
    <path class="cls-3" d="M359.15,237.33c-.8-5.83-1.72-11.69-3.72-17.18s-5.16-10.64-9.7-13.96"/>
    <path class="cls-3" d="M293.45,157.77c-.8-5.83-1.72-11.69-3.72-17.18s-5.16-10.64-9.7-13.96"/>
    <path class="cls-3" d="M303.38,182.26c-.8-5.83-1.72-11.69-3.72-17.18s-5.16-10.64-9.7-13.96"/>
    <path class="cls-3" d="M299.25,209.09c-.8-5.83-1.72-11.69-3.72-17.18s-5.16-10.64-9.7-13.96"/>
    <path class="cls-3" d="M332.18,231.27c-.8-5.83-1.72-11.69-3.72-17.18s-5.16-10.64-9.7-13.96"/>
    <path class="cls-3" d="M292.54,231c-.8-5.83-1.72-11.69-3.72-17.18-2-5.49-5.16-10.64-9.7-13.96"/>
    <path class="cls-3" d="M330.29,250.84c-.8-5.83-1.72-11.69-3.72-17.18-2-5.49-5.16-10.64-9.7-13.96"/>
    <path class="cls-3" d="M216.09,147.9c-4.04,4-8.03,8.12-11.14,12.99s-5.28,10.58-5.28,16.47"/>
    <path class="cls-3" d="M204.83,185.97c-4.04,4-8.03,8.12-11.14,12.99-3.1,4.87-5.28,10.58-5.28,16.47"/>
    <path class="cls-3" d="M226.24,167.54c-4.04,4-8.03,8.12-11.14,12.99s-5.28,10.58-5.28,16.47"/>
    <path class="cls-3" d="M242.48,129.57c-4.04,4-8.03,8.12-11.14,12.99s-5.28,10.58-5.28,16.47"/>
    <path class="cls-3" d="M205.66,206.38c-4.04,4-8.03,8.12-11.14,12.99s-5.28,10.58-5.28,16.47"/>
    <path class="cls-3" d="M196.03,171.92c-4.04,4-8.03,8.12-11.14,12.99-3.1,4.87-5.28,10.58-5.28,16.47"/>
    <path class="cls-3" d="M238.47,225.56c-4.04,4-8.03,8.12-11.14,12.99s-5.28,10.58-5.28,16.47"/>
    <path class="cls-3" d="M250.91,186.64c-4.04,4-8.03,8.12-11.14,12.99-3.1,4.87-5.28,10.58-5.28,16.47"/>
    <path class="cls-3" d="M249.3,153.03c-4.04,4-8.03,8.12-11.14,12.99s-5.28,10.58-5.28,16.47"/>
    <path class="cls-3" d="M267.53,193.91c-4.04,4-8.03,8.12-11.14,12.99s-5.28,10.58-5.28,16.47"/>
    <path class="cls-3" d="M258.44,171.24c-4.04,4-8.03,8.12-11.14,12.99-3.1,4.87-5.28,10.58-5.28,16.47"/>
    <path class="cls-3" d="M324.02,328.01c1.5-5.67,2.9-11.42,3.18-17.31.28-5.88-.64-11.97-3.51-17"/>
    <path class="cls-3" d="M302.71,337.35c1.5-5.67,2.9-11.42,3.18-17.31s-.64-11.97-3.51-17"/>
    <path class="cls-3" d="M261.41,311.12c-.59,5.86-1.08,11.78-.44,17.63.64,5.85,2.5,11.69,6.11,16.13"/>
    <path class="cls-3" d="M273.88,126.38c-2.01,5.48-3.94,11.06-4.75,16.89-.82,5.83-.46,11.98,1.94,17.29"/>
    <path class="cls-3" d="M256.55,127.9c-2.01,5.48-3.94,11.06-4.75,16.89s-.46,11.98,1.94,17.29"/>
    <path class="cls-3" d="M279.65,152.53c-2.01,5.48-3.94,11.06-4.75,16.89-.82,5.83-.46,11.98,1.94,17.29"/>
    <path class="cls-3" d="M201.81,242.95s25.21-17.46,50.56-1.11"/>
    <path class="cls-3" d="M205.49,229.43s25.21-17.46,50.56-1.11"/>
    <path class="cls-3" d="M276.05,230.21s25.21-17.46,50.56-1.11"/>
  </g>
  <path class="cls-3" d="M284.29,269.41s13.65-.45,20.04-7.39"/>
  <rect class="cls-3" x="194.51" y="198.49" width="59.48" height="35.38" rx="5.68" ry="5.68"/>
  <circle class="cls-3" cx="217.55" cy="216.18" r="9.68"/>
  <circle class="cls-3" cx="222.33" cy="219.75" r="4.78"/>
  <path class="cls-3" d="M256.29,224.12s8.2-2.45,12.34,0v-5.58s-4.9-1.27-12.34,0v5.58Z"/>
  <rect class="cls-3" x="270.85" y="198.95" width="59.48" height="35.38" rx="5.68" ry="5.68"/>
  <circle class="cls-3" cx="293.9" cy="216.64" r="9.68"/>
  <circle class="cls-3" cx="298.67" cy="220.22" r="4.78"/>
  <ellipse class="cls-3" cx="335.13" cy="161.79" rx="8" ry="17.06" transform="translate(-25.19 254.82) rotate(-40.25)"/>
  <ellipse class="cls-3" cx="303.58" cy="137.11" rx="8" ry="17.06" transform="translate(17.42 307.61) rotate(-55.09)"/>
  <path class="cls-3" d="M341.76,146.54c2.71,2.65-9.16-1.61-14.28-5.18-4.73-3.3-8.15-7.33-9.5-10.78,0,0,15.68,8.04,23.79,15.96Z"/>
  <path class="cls-3" d="M171.89,278.82s-13.63,7.57-17.38,9.86-12.42,9.27-12.2,11.8.34,4.39-.73,7.47-1.32,11.15,8.46,14.77c9.77,3.62,25.03,10,25.03,10l4.43-14.03s-21.91-9.26-20.36-10.7,9.12-4.49,12.47-3.82,10.1-5.25,10.1-5.25l-9.82-20.1Z"/>
  <path class="cls-3" d="M253.38,352.51l-14.69-67.24c-.14-.62-.6-1.12-1.21-1.29l-69.19-19.9"/>
  <g>
    <path class="cls-3" d="M226.52,408.89c-1.39.36-2.69-.42-3.05-1.84-.34-1.31.48-2.67,1.83-3.01,1.34-.35,2.73.5,3.07,1.87.33,1.33-.47,2.63-1.85,2.99Z"/>
    <path class="cls-3" d="M226.66,409.1c1.35-.4,2.76.38,3.14,1.73.38,1.33-.37,2.67-1.72,3.07-1.35.4-2.7-.32-3.1-1.65-.42-1.39.3-2.75,1.68-3.16Z"/>
    <path class="cls-3" d="M225.12,403.83c-1.36.39-2.67-.34-3.07-1.68-.4-1.36.39-2.8,1.72-3.15,1.33-.35,2.76.47,3.12,1.81.36,1.33-.41,2.64-1.78,3.03Z"/>
    <path class="cls-3" d="M231.61,399.4c.34,1.14-.32,2.37-1.46,2.74-1.15.37-2.5-.38-2.83-1.59-.31-1.12.41-2.38,1.55-2.7,1.2-.35,2.38.32,2.74,1.55Z"/>
    <path class="cls-3" d="M233.07,404.43c.34,1.15-.33,2.38-1.47,2.73-1.18.36-2.51-.38-2.83-1.58-.3-1.12.41-2.37,1.56-2.7,1.2-.35,2.38.31,2.74,1.54Z"/>
    <path class="cls-3" d="M234.19,397.35c.62-.17,1.3.2,1.49.82.2.65-.2,1.38-.84,1.55-.67.18-1.32-.21-1.5-.9-.16-.63.22-1.29.85-1.46Z"/>
    <path class="cls-3" d="M235.63,402.39c.63-.18,1.31.17,1.5.79.21.65-.17,1.37-.82,1.56-.68.19-1.32-.17-1.51-.87-.17-.64.19-1.29.82-1.47Z"/>
    <path class="cls-3" d="M233.56,409.7c.18.63-.16,1.3-.78,1.5-.68.22-1.33-.13-1.54-.81-.2-.68.16-1.33.85-1.51.64-.17,1.28.19,1.47.83Z"/>
    <path class="cls-3" d="M237.08,407.43c.62-.19,1.3.16,1.51.77.22.65-.15,1.36-.81,1.55-.68.2-1.35-.17-1.53-.85-.17-.63.19-1.28.83-1.47Z"/>
  </g>
  <g>
    <path class="cls-3" d="M292.99,406.64c-1.37-.42-2.06-1.78-1.61-3.18.41-1.29,1.82-2.01,3.14-1.59,1.32.41,2.05,1.87,1.62,3.21-.42,1.31-1.79,1.98-3.15,1.56Z"/>
    <path class="cls-3" d="M292.99,406.89c1.36.37,2.15,1.78,1.76,3.13-.38,1.33-1.73,2.07-3.08,1.7-1.36-.37-2.12-1.69-1.76-3.04.37-1.4,1.71-2.18,3.09-1.8Z"/>
    <path class="cls-3" d="M294.47,401.61c-1.35-.39-2.09-1.7-1.71-3.05.38-1.36,1.81-2.17,3.12-1.77,1.32.4,2.1,1.86,1.7,3.18-.4,1.32-1.74,2.02-3.11,1.63Z"/>
    <path class="cls-3" d="M302.32,401.27c-.32,1.15-1.52,1.85-2.69,1.56-1.18-.29-1.92-1.64-1.56-2.84.33-1.11,1.6-1.8,2.74-1.48,1.2.34,1.85,1.53,1.51,2.76Z"/>
    <path class="cls-3" d="M300.9,406.31c-.32,1.15-1.53,1.85-2.69,1.55-1.2-.32-1.93-1.64-1.57-2.84.34-1.11,1.6-1.79,2.75-1.47,1.21.34,1.86,1.52,1.51,2.76Z"/>
    <path class="cls-3" d="M305.59,400.9c.62.18,1,.86.84,1.48-.17.65-.9,1.07-1.53.87-.67-.21-1.01-.88-.8-1.56.2-.63.87-.98,1.49-.79Z"/>
    <path class="cls-3" d="M304.15,405.93c.63.18,1.02.84.86,1.46-.17.66-.87,1.07-1.52.89-.68-.2-1.03-.84-.82-1.53.19-.63.84-1,1.48-.82Z"/>
    <path class="cls-3" d="M298.53,411.05c-.18.63-.82,1.01-1.45.86-.69-.17-1.07-.81-.88-1.5.19-.69.84-1.05,1.52-.84.63.2.99.84.81,1.48Z"/>
    <path class="cls-3" d="M302.72,410.98c.62.17,1.02.83.87,1.45-.16.66-.85,1.07-1.51.89-.68-.19-1.05-.85-.85-1.52.19-.63.84-.99,1.48-.81Z"/>
  </g>
  <path class="cls-3" d="M168.29,264.08c-.8-.17-1.55.47-1.49,1.29.87,12.96,27.8,74.12,28.22,81.94,0,0,52.97,10.17,56.92,7.01.9-.72,2.04-.83,1.45-1.81"/>
  <path class="cls-3" d="M172.99,286.74s45.45,10.15,67.87,8.46"/>
  <path class="cls-3" d="M214.79,294.11s1.35,9.92,0,10.71-9.07,4.26-9.07,4.26c0,0-8.17-5.05-9.3-5.1s-3.83-13.44-3.83-13.44l10.02,8.33c.73.6,1.71.81,2.63.57,2.32-.63,6.8-3.24,9.55-5.33Z"/>
  <path class="cls-4" d="M356.75,295.2s102.76,33.16-35.4,38.72"/>
  <path class="cls-3" d="M371.24,286.25s12.92,8.72,16.46,11.33c3.54,2.61,11.57,10.31,11.13,12.82s-.72,4.35.08,7.5.35,11.22-9.71,13.98c-10.05,2.76-25.8,7.79-25.8,7.79l-3.19-14.36s22.63-7.32,21.21-8.9c-1.42-1.57-8.69-5.27-12.09-4.88-3.4.39-9.61-6.1-9.61-6.1l11.52-19.17Z"/>
  <path class="cls-3" d="M365.95,323.37s3.84,8.63,1.82,14.92l-5.59-10.84,3.76-4.08Z"/>
  <path class="cls-3" d="M193.84,342.47l59.21,6.47s2.96,5.53,1.95,5.99-41.21-1.5-59.99-7.62l-1.17-4.85Z"/>
  <path class="cls-3" d="M185.04,283.85s36.2-3.85,44.77-2.02l-22.14-6.32-22.62,8.34Z"/>
  <circle class="cls-3" cx="204.61" cy="297.15" r="1.49"/>
  <path class="cls-3" d="M198.41,295.39s3.57,33.19,6.42,48.32"/>
  <path class="cls-3" d="M210.17,297.15s4.09,35.47,3.39,47.36"/>
  <path class="cls-3" d="M167.02,263.57c-.79-.21-1.29,1.14-.67,1.81,7.81,8.38,15.5,19.74,17.23,18.84.41-.21,2.12-.51,4.62-.85,10.5-1.43,34.89-3.64,34.89-3.64,0,0-16.02-5.43-56.08-16.16Z"/>
  <path class="cls-3" d="M234.14,295.39s3.36,25.67,13.37,59.19"/>
  <circle class="cls-3" cx="237.73" cy="299.05" r="1.49"/>
  <circle class="cls-3" cx="240.86" cy="316.04" r="1.49"/>
  <circle class="cls-3" cx="245" cy="331.8" r="1.49"/>
  <path class="cls-3" d="M291.3,353.71l14.69-67.24c.14-.62.6-1.12,1.21-1.29l69.19-19.9"/>
  <path class="cls-3" d="M376.39,265.28c.8-.17,1.55.47,1.49,1.29-.87,12.96-27.8,74.12-28.22,81.94,0,0-52.97,10.17-56.92,7.01-.9-.72-2.04-.83-1.45-1.81"/>
  <path class="cls-3" d="M371.69,287.94s-45.45,10.15-67.87,8.46"/>
  <path class="cls-3" d="M329.89,295.32s-1.35,9.92,0,10.71,9.07,4.26,9.07,4.26c0,0,8.17-5.05,9.3-5.1s3.83-13.44,3.83-13.44l-10.02,8.33c-.73.6-1.71.81-2.63.57-2.32-.63-6.8-3.24-9.55-5.33Z"/>
  <path class="cls-3" d="M350.84,343.67l-59.21,6.47s-2.96,5.53-1.95,5.99,41.21-1.5,59.99-7.62l1.17-4.85Z"/>
  <path class="cls-3" d="M359.64,285.05s-36.2-3.85-44.77-2.02l22.14-6.32,22.62,8.34Z"/>
  <circle class="cls-3" cx="340.07" cy="298.36" r="1.49"/>
  <path class="cls-3" d="M346.27,296.59s-3.57,33.19-6.42,48.32"/>
  <path class="cls-3" d="M334.51,298.36s-4.09,35.47-3.39,47.36"/>
  <path class="cls-3" d="M377.66,264.77c.79-.21,1.29,1.14.67,1.81-7.81,8.38-15.5,19.74-17.23,18.84-.41-.21-2.12-.51-4.62-.85-10.5-1.43-34.89-3.64-34.89-3.64,0,0,16.02-5.43,56.08-16.16Z"/>
  <path class="cls-3" d="M310.54,296.59s-3.36,25.67-13.37,59.19"/>
  <circle class="cls-3" cx="250.24" cy="351.07" r="1.49"/>
  <g>
    <path class="cls-2" d="M357.02,331.36c-3.88.45-6.94.86-11.58,1.23"/>
    <path class="cls-2" d="M357.02,328.86c-3.86.45-7.71.92-11.58,1.23-3.18.26-3.21,5.26,0,5,3.87-.32,7.72-.78,11.58-1.23,3.16-.37,3.2-5.37,0-5h0Z"/>
  </g>
  <path class="cls-3" d="M345.14,324.63s1.49,15.95,3.22,16.82c0,0-4.13,1.66-4.58-.93s-3.65-16.25-2.22-16.34,3.58.45,3.58.45Z"/>
  <path class="cls-3" d="M363.9,341.22s3.39-.33,3.81-2.04-1.38-17.66-2.74-18.37-8.27,2.42-8.36,3.73.08,19.13,7.29,16.68Z"/>
  <g>
    <path class="cls-2" d="M179.9,325.44c4.81,1.75,10.11,3.57,16.83,5.48"/>
    <path class="cls-2" d="M179.24,327.85c5.55,2.01,11.15,3.85,16.83,5.48,3.1.89,4.42-3.94,1.33-4.82-5.68-1.62-11.28-3.46-16.83-5.48-3.03-1.1-4.34,3.73-1.33,4.82h0Z"/>
  </g>
  <path class="cls-3" d="M197.29,322.47s-1.49,15.95-3.22,16.82c0,0,4.13,1.66,4.58-.93s3.65-16.25,2.22-16.34-3.58.45-3.58.45Z"/>
  <path class="cls-3" d="M173.77,331.57s-.8-8.14,3.11-14.7l-3.11,14.7Z"/>
  <path class="cls-3" d="M177.37,334.83s-3.35-.62-3.62-2.36,2.9-17.48,4.32-18.06,8.03,3.13,8.01,4.44-1.73,19.05-8.7,15.98Z"/>
</svg>