<svg width="428" height="144" viewBox="0 0 428 144" fill="none" xmlns="http://www.w3.org/2000/svg">
<path d="M51.4142 100.586C50.1543 101.846 51.0466 104 52.8284 104H62V90L51.4142 100.586Z" fill="#5BB398"/>
<path d="M62 8C62 3.58172 65.5817 0 70 0H420C424.418 0 428 3.58172 428 8V96C428 100.418 424.418 104 420 104H62V8Z" fill="#5BB398"/>
<path d="M62 8C62 3.58172 65.5817 0 70 0H420C424.418 0 428 3.58172 428 8V96C428 100.418 424.418 104 420 104H62V8Z" fill="url(#paint0_linear_52_72382)" fill-opacity="0.2"/>
<path d="M77.332 27V18.166H74.406V17.2H81.434V18.166H78.508V27H77.332ZM82.8 27V16.92H83.976V21.246C84.2093 20.8167 84.5407 20.4853 84.97 20.252C85.3993 20.0093 85.866 19.888 86.37 19.888C87.1727 19.888 87.8167 20.14 88.302 20.644C88.7873 21.1387 89.03 21.904 89.03 22.94V27H87.868V23.066C87.868 21.6193 87.2847 20.896 86.118 20.896C85.5113 20.896 85.0027 21.1153 84.592 21.554C84.1813 21.9833 83.976 22.5993 83.976 23.402V27H82.8ZM93.9337 27.168C93.271 27.168 92.683 27.0187 92.1697 26.72C91.6564 26.412 91.2504 25.9873 90.9517 25.446C90.6624 24.9047 90.5177 24.2653 90.5177 23.528C90.5177 22.8 90.6624 22.1653 90.9517 21.624C91.241 21.0733 91.6424 20.6487 92.1557 20.35C92.6784 20.042 93.2804 19.888 93.9617 19.888C94.6337 19.888 95.2124 20.042 95.6977 20.35C96.1924 20.6487 96.5704 21.0453 96.8317 21.54C97.093 22.0347 97.2237 22.5667 97.2237 23.136C97.2237 23.2387 97.219 23.3413 97.2097 23.444C97.2097 23.5467 97.2097 23.6633 97.2097 23.794H91.6797C91.7077 24.326 91.829 24.7693 92.0437 25.124C92.2677 25.4693 92.543 25.7307 92.8697 25.908C93.2057 26.0853 93.5604 26.174 93.9337 26.174C94.419 26.174 94.825 26.062 95.1517 25.838C95.4784 25.614 95.7164 25.3107 95.8657 24.928H97.0277C96.841 25.572 96.4817 26.1087 95.9497 26.538C95.427 26.958 94.755 27.168 93.9337 27.168ZM93.9337 20.882C93.3737 20.882 92.8744 21.0547 92.4357 21.4C92.0064 21.736 91.759 22.2307 91.6937 22.884H96.0617C96.0337 22.2587 95.819 21.7687 95.4177 21.414C95.0164 21.0593 94.5217 20.882 93.9337 20.882ZM105.609 27.168C104.984 27.168 104.419 27.056 103.915 26.832C103.411 26.5987 103.005 26.2533 102.697 25.796C102.399 25.3387 102.24 24.7693 102.221 24.088H103.411C103.421 24.648 103.617 25.1333 103.999 25.544C104.382 25.9453 104.919 26.146 105.609 26.146C106.3 26.146 106.818 25.9547 107.163 25.572C107.518 25.1893 107.695 24.7273 107.695 24.186C107.695 23.7287 107.583 23.3553 107.359 23.066C107.145 22.7767 106.851 22.562 106.477 22.422C106.113 22.282 105.712 22.212 105.273 22.212H104.545V21.218H105.273C105.908 21.218 106.403 21.0733 106.757 20.784C107.121 20.4947 107.303 20.0887 107.303 19.566C107.303 19.1273 107.159 18.768 106.869 18.488C106.589 18.1987 106.169 18.054 105.609 18.054C105.068 18.054 104.634 18.2173 104.307 18.544C103.981 18.8613 103.799 19.2627 103.761 19.748H102.571C102.599 19.216 102.739 18.7447 102.991 18.334C103.253 17.9233 103.607 17.606 104.055 17.382C104.503 17.1487 105.021 17.032 105.609 17.032C106.244 17.032 106.771 17.144 107.191 17.368C107.621 17.592 107.943 17.8907 108.157 18.264C108.381 18.6373 108.493 19.048 108.493 19.496C108.493 19.9907 108.358 20.4433 108.087 20.854C107.817 21.2553 107.411 21.526 106.869 21.666C107.448 21.7873 107.929 22.0627 108.311 22.492C108.694 22.9213 108.885 23.486 108.885 24.186C108.885 24.7273 108.759 25.2267 108.507 25.684C108.265 26.132 107.901 26.4913 107.415 26.762C106.93 27.0327 106.328 27.168 105.609 27.168ZM114.61 27.168C113.742 27.168 112.991 26.958 112.356 26.538C111.731 26.1087 111.25 25.516 110.914 24.76C110.578 23.9947 110.41 23.108 110.41 22.1C110.41 21.092 110.578 20.21 110.914 19.454C111.25 18.6887 111.731 18.096 112.356 17.676C112.991 17.2467 113.742 17.032 114.61 17.032C115.478 17.032 116.225 17.2467 116.85 17.676C117.475 18.096 117.956 18.6887 118.292 19.454C118.628 20.21 118.796 21.092 118.796 22.1C118.796 23.108 118.628 23.9947 118.292 24.76C117.956 25.516 117.475 26.1087 116.85 26.538C116.225 26.958 115.478 27.168 114.61 27.168ZM114.61 26.132C115.179 26.132 115.688 25.9733 116.136 25.656C116.593 25.3293 116.948 24.8673 117.2 24.27C117.461 23.6633 117.592 22.94 117.592 22.1C117.592 21.26 117.461 20.5413 117.2 19.944C116.948 19.3467 116.593 18.8893 116.136 18.572C115.688 18.2453 115.179 18.082 114.61 18.082C114.031 18.082 113.518 18.2453 113.07 18.572C112.622 18.8893 112.267 19.3467 112.006 19.944C111.745 20.5413 111.614 21.26 111.614 22.1C111.614 22.94 111.745 23.6633 112.006 24.27C112.267 24.8673 112.622 25.3293 113.07 25.656C113.518 25.9733 114.031 26.132 114.61 26.132ZM124.2 27V17.2H127.21C128.937 17.2 130.206 17.6387 131.018 18.516C131.839 19.3933 132.25 20.5973 132.25 22.128C132.25 23.6307 131.839 24.8207 131.018 25.698C130.206 26.566 128.937 27 127.21 27H124.2ZM125.376 26.02H127.182C128.134 26.02 128.89 25.866 129.45 25.558C130.019 25.2407 130.425 24.7927 130.668 24.214C130.911 23.626 131.032 22.9307 131.032 22.128C131.032 21.3067 130.911 20.602 130.668 20.014C130.425 19.426 130.019 18.9733 129.45 18.656C128.89 18.3387 128.134 18.18 127.182 18.18H125.376V26.02ZM136.188 27.168C135.609 27.168 135.129 27.07 134.746 26.874C134.363 26.678 134.079 26.4167 133.892 26.09C133.705 25.7633 133.612 25.4087 133.612 25.026C133.612 24.3167 133.883 23.7707 134.424 23.388C134.965 23.0053 135.703 22.814 136.636 22.814H138.512V22.73C138.512 22.1233 138.353 21.666 138.036 21.358C137.719 21.0407 137.294 20.882 136.762 20.882C136.305 20.882 135.908 20.9987 135.572 21.232C135.245 21.456 135.04 21.7873 134.956 22.226H133.752C133.799 21.722 133.967 21.2973 134.256 20.952C134.555 20.6067 134.923 20.3453 135.362 20.168C135.801 19.9813 136.267 19.888 136.762 19.888C137.733 19.888 138.461 20.1493 138.946 20.672C139.441 21.1853 139.688 21.8713 139.688 22.73V27H138.638L138.568 25.754C138.372 26.146 138.083 26.482 137.7 26.762C137.327 27.0327 136.823 27.168 136.188 27.168ZM136.37 26.174C136.818 26.174 137.201 26.0573 137.518 25.824C137.845 25.5907 138.092 25.2873 138.26 24.914C138.428 24.5407 138.512 24.1487 138.512 23.738V23.724H136.734C136.043 23.724 135.553 23.8453 135.264 24.088C134.984 24.3213 134.844 24.6153 134.844 24.97C134.844 25.334 134.975 25.628 135.236 25.852C135.507 26.0667 135.885 26.174 136.37 26.174ZM142.003 30.08L143.725 26.328H143.319L140.561 20.056H141.835L144.131 25.46L146.567 20.056H147.785L143.235 30.08H142.003ZM152.802 27V17.2H155.966C156.731 17.2 157.356 17.326 157.842 17.578C158.327 17.83 158.686 18.1753 158.92 18.614C159.153 19.0527 159.27 19.538 159.27 20.07C159.27 20.686 159.102 21.2413 158.766 21.736C158.439 22.2307 157.926 22.5807 157.226 22.786L159.368 27H157.982L155.994 22.954H155.91H153.978V27H152.802ZM153.978 22.03H155.882C156.638 22.03 157.188 21.848 157.534 21.484C157.879 21.12 158.052 20.6533 158.052 20.084C158.052 19.5053 157.879 19.048 157.534 18.712C157.198 18.3667 156.642 18.194 155.868 18.194H153.978V22.03ZM163.564 27.168C162.743 27.168 162.09 26.9207 161.604 26.426C161.119 25.922 160.876 25.152 160.876 24.116V20.056H162.052V23.99C162.052 25.4367 162.645 26.16 163.83 26.16C164.437 26.16 164.936 25.9453 165.328 25.516C165.73 25.0773 165.93 24.4567 165.93 23.654V20.056H167.106V27H166.042L165.958 25.754C165.744 26.1927 165.422 26.538 164.992 26.79C164.572 27.042 164.096 27.168 163.564 27.168ZM169.042 27V16.92H170.218V27H169.042ZM175.268 27.168C174.605 27.168 174.017 27.0187 173.504 26.72C172.99 26.412 172.584 25.9873 172.286 25.446C171.996 24.9047 171.852 24.2653 171.852 23.528C171.852 22.8 171.996 22.1653 172.286 21.624C172.575 21.0733 172.976 20.6487 173.49 20.35C174.012 20.042 174.614 19.888 175.296 19.888C175.968 19.888 176.546 20.042 177.032 20.35C177.526 20.6487 177.904 21.0453 178.166 21.54C178.427 22.0347 178.558 22.5667 178.558 23.136C178.558 23.2387 178.553 23.3413 178.544 23.444C178.544 23.5467 178.544 23.6633 178.544 23.794H173.014C173.042 24.326 173.163 24.7693 173.378 25.124C173.602 25.4693 173.877 25.7307 174.204 25.908C174.54 26.0853 174.894 26.174 175.268 26.174C175.753 26.174 176.159 26.062 176.486 25.838C176.812 25.614 177.05 25.3107 177.2 24.928H178.362C178.175 25.572 177.816 26.1087 177.284 26.538C176.761 26.958 176.089 27.168 175.268 27.168ZM175.268 20.882C174.708 20.882 174.208 21.0547 173.77 21.4C173.34 21.736 173.093 22.2307 173.028 22.884H177.396C177.368 22.2587 177.153 21.7687 176.752 21.414C176.35 21.0593 175.856 20.882 175.268 20.882ZM184.535 18.516C184.302 18.516 184.106 18.4413 183.947 18.292C183.798 18.1333 183.723 17.9373 183.723 17.704C183.723 17.48 183.798 17.2933 183.947 17.144C184.106 16.9947 184.302 16.92 184.535 16.92C184.759 16.92 184.951 16.9947 185.109 17.144C185.268 17.2933 185.347 17.48 185.347 17.704C185.347 17.9373 185.268 18.1333 185.109 18.292C184.951 18.4413 184.759 18.516 184.535 18.516ZM183.947 27V20.056H185.123V27H183.947ZM189.831 27.168C189 27.168 188.31 26.958 187.759 26.538C187.208 26.118 186.886 25.5487 186.793 24.83H187.997C188.072 25.194 188.263 25.5113 188.571 25.782C188.888 26.0433 189.313 26.174 189.845 26.174C190.34 26.174 190.704 26.0713 190.937 25.866C191.17 25.6513 191.287 25.3993 191.287 25.11C191.287 24.69 191.133 24.41 190.825 24.27C190.526 24.13 190.102 24.004 189.551 23.892C189.178 23.8173 188.804 23.71 188.431 23.57C188.058 23.43 187.745 23.234 187.493 22.982C187.241 22.7207 187.115 22.38 187.115 21.96C187.115 21.3533 187.339 20.8587 187.787 20.476C188.244 20.084 188.86 19.888 189.635 19.888C190.372 19.888 190.974 20.0747 191.441 20.448C191.917 20.812 192.192 21.3347 192.267 22.016H191.105C191.058 21.6613 190.904 21.386 190.643 21.19C190.391 20.9847 190.05 20.882 189.621 20.882C189.201 20.882 188.874 20.9707 188.641 21.148C188.417 21.3253 188.305 21.5587 188.305 21.848C188.305 22.128 188.45 22.3473 188.739 22.506C189.038 22.6647 189.439 22.8 189.943 22.912C190.372 23.0053 190.778 23.122 191.161 23.262C191.553 23.3927 191.87 23.5933 192.113 23.864C192.365 24.1253 192.491 24.508 192.491 25.012C192.5 25.6373 192.262 26.1553 191.777 26.566C191.301 26.9673 190.652 27.168 189.831 27.168ZM200.186 27.168C199.607 27.168 199.127 27.07 198.744 26.874C198.361 26.678 198.077 26.4167 197.89 26.09C197.703 25.7633 197.61 25.4087 197.61 25.026C197.61 24.3167 197.881 23.7707 198.422 23.388C198.963 23.0053 199.701 22.814 200.634 22.814H202.51V22.73C202.51 22.1233 202.351 21.666 202.034 21.358C201.717 21.0407 201.292 20.882 200.76 20.882C200.303 20.882 199.906 20.9987 199.57 21.232C199.243 21.456 199.038 21.7873 198.954 22.226H197.75C197.797 21.722 197.965 21.2973 198.254 20.952C198.553 20.6067 198.921 20.3453 199.36 20.168C199.799 19.9813 200.265 19.888 200.76 19.888C201.731 19.888 202.459 20.1493 202.944 20.672C203.439 21.1853 203.686 21.8713 203.686 22.73V27H202.636L202.566 25.754C202.37 26.146 202.081 26.482 201.698 26.762C201.325 27.0327 200.821 27.168 200.186 27.168ZM200.368 26.174C200.816 26.174 201.199 26.0573 201.516 25.824C201.843 25.5907 202.09 25.2873 202.258 24.914C202.426 24.5407 202.51 24.1487 202.51 23.738V23.724H200.732C200.041 23.724 199.551 23.8453 199.262 24.088C198.982 24.3213 198.842 24.6153 198.842 24.97C198.842 25.334 198.973 25.628 199.234 25.852C199.505 26.0667 199.883 26.174 200.368 26.174ZM205.45 27V20.056H206.514L206.584 21.302C206.808 20.8633 207.13 20.518 207.55 20.266C207.97 20.014 208.446 19.888 208.978 19.888C209.8 19.888 210.453 20.14 210.938 20.644C211.433 21.1387 211.68 21.904 211.68 22.94V27H210.504V23.066C210.504 21.6193 209.907 20.896 208.712 20.896C208.115 20.896 207.616 21.1153 207.214 21.554C206.822 21.9833 206.626 22.5993 206.626 23.402V27H205.45ZM220.331 27.168C219.678 27.168 219.09 27.0187 218.567 26.72C218.045 26.4213 217.629 26.0013 217.321 25.46C217.023 24.9093 216.873 24.2653 216.873 23.528C216.873 22.7907 217.027 22.1513 217.335 21.61C217.643 21.0593 218.059 20.6347 218.581 20.336C219.113 20.0373 219.706 19.888 220.359 19.888C221.013 19.888 221.601 20.0373 222.123 20.336C222.646 20.6347 223.057 21.0593 223.355 21.61C223.663 22.1513 223.817 22.7907 223.817 23.528C223.817 24.2653 223.663 24.9093 223.355 25.46C223.047 26.0013 222.627 26.4213 222.095 26.72C221.573 27.0187 220.985 27.168 220.331 27.168ZM220.331 26.16C220.733 26.16 221.106 26.062 221.451 25.866C221.797 25.67 222.077 25.376 222.291 24.984C222.506 24.592 222.613 24.1067 222.613 23.528C222.613 22.9493 222.506 22.464 222.291 22.072C222.086 21.68 221.811 21.386 221.465 21.19C221.12 20.994 220.751 20.896 220.359 20.896C219.958 20.896 219.585 20.994 219.239 21.19C218.894 21.386 218.614 21.68 218.399 22.072C218.185 22.464 218.077 22.9493 218.077 23.528C218.077 24.1067 218.185 24.592 218.399 24.984C218.614 25.376 218.889 25.67 219.225 25.866C219.571 26.062 219.939 26.16 220.331 26.16ZM225.452 27V16.92H226.628V27H225.452ZM231.706 27.168C231.015 27.168 230.409 27.0093 229.886 26.692C229.373 26.3747 228.971 25.9407 228.682 25.39C228.402 24.8393 228.262 24.214 228.262 23.514C228.262 22.814 228.407 22.1933 228.696 21.652C228.985 21.1013 229.387 20.672 229.9 20.364C230.413 20.0467 231.02 19.888 231.72 19.888C232.289 19.888 232.793 20.0047 233.232 20.238C233.671 20.4713 234.011 20.798 234.254 21.218V16.92H235.43V27H234.366L234.254 25.852C234.03 26.188 233.708 26.4913 233.288 26.762C232.868 27.0327 232.341 27.168 231.706 27.168ZM231.832 26.146C232.299 26.146 232.709 26.0387 233.064 25.824C233.428 25.6 233.708 25.292 233.904 24.9C234.109 24.508 234.212 24.0507 234.212 23.528C234.212 23.0053 234.109 22.548 233.904 22.156C233.708 21.764 233.428 21.4607 233.064 21.246C232.709 21.022 232.299 20.91 231.832 20.91C231.375 20.91 230.964 21.022 230.6 21.246C230.245 21.4607 229.965 21.764 229.76 22.156C229.564 22.548 229.466 23.0053 229.466 23.528C229.466 24.0507 229.564 24.508 229.76 24.9C229.965 25.292 230.245 25.6 230.6 25.824C230.964 26.0387 231.375 26.146 231.832 26.146ZM243.796 27C243.161 27 242.662 26.846 242.298 26.538C241.934 26.23 241.752 25.6747 241.752 24.872V21.05H240.548V20.056H241.752L241.906 18.39H242.928V20.056H244.972V21.05H242.928V24.872C242.928 25.3107 243.017 25.6093 243.194 25.768C243.371 25.9173 243.684 25.992 244.132 25.992H244.86V27H243.796ZM246.466 27V20.056H247.53L247.628 21.386C247.843 20.9287 248.169 20.5647 248.608 20.294C249.047 20.0233 249.588 19.888 250.232 19.888V21.12H249.91C249.499 21.12 249.121 21.1947 248.776 21.344C248.431 21.484 248.155 21.7267 247.95 22.072C247.745 22.4173 247.642 22.8933 247.642 23.5V27H246.466ZM252.266 18.516C252.033 18.516 251.837 18.4413 251.678 18.292C251.529 18.1333 251.454 17.9373 251.454 17.704C251.454 17.48 251.529 17.2933 251.678 17.144C251.837 16.9947 252.033 16.92 252.266 16.92C252.49 16.92 252.681 16.9947 252.84 17.144C252.999 17.2933 253.078 17.48 253.078 17.704C253.078 17.9373 252.999 18.1333 252.84 18.292C252.681 18.4413 252.49 18.516 252.266 18.516ZM251.678 27V20.056H252.854V27H251.678ZM258.094 27.168C257.431 27.168 256.834 27.0187 256.302 26.72C255.779 26.412 255.364 25.9873 255.056 25.446C254.757 24.8953 254.608 24.256 254.608 23.528C254.608 22.8 254.757 22.1653 255.056 21.624C255.364 21.0733 255.779 20.6487 256.302 20.35C256.834 20.042 257.431 19.888 258.094 19.888C258.915 19.888 259.606 20.1027 260.166 20.532C260.735 20.9613 261.094 21.5353 261.244 22.254H260.04C259.946 21.8247 259.718 21.4933 259.354 21.26C258.99 21.0173 258.565 20.896 258.08 20.896C257.688 20.896 257.319 20.994 256.974 21.19C256.628 21.386 256.348 21.68 256.134 22.072C255.919 22.464 255.812 22.9493 255.812 23.528C255.812 24.1067 255.919 24.592 256.134 24.984C256.348 25.376 256.628 25.6747 256.974 25.88C257.319 26.076 257.688 26.174 258.08 26.174C258.565 26.174 258.99 26.0573 259.354 25.824C259.718 25.5813 259.946 25.2407 260.04 24.802H261.244C261.104 25.502 260.749 26.0713 260.18 26.51C259.61 26.9487 258.915 27.168 258.094 27.168ZM262.886 27V16.92H264.062V22.982L266.904 20.056H268.346L265.266 23.192L268.738 27H267.24L264.062 23.402V27H262.886ZM273.716 27V17.2H274.892V27H273.716ZM276.634 19.188L276.452 16.43H277.614L277.446 19.188H276.634ZM279.101 27V20.056H280.165L280.249 21.064C280.473 20.6907 280.771 20.4013 281.145 20.196C281.518 19.9907 281.938 19.888 282.405 19.888C282.955 19.888 283.427 20 283.819 20.224C284.22 20.448 284.528 20.7887 284.743 21.246C284.985 20.826 285.317 20.4947 285.737 20.252C286.166 20.0093 286.628 19.888 287.123 19.888C287.953 19.888 288.616 20.14 289.111 20.644C289.605 21.1387 289.853 21.904 289.853 22.94V27H288.691V23.066C288.691 22.3473 288.546 21.806 288.257 21.442C287.967 21.078 287.552 20.896 287.011 20.896C286.451 20.896 285.984 21.1153 285.611 21.554C285.247 21.9833 285.065 22.5993 285.065 23.402V27H283.889V23.066C283.889 22.3473 283.744 21.806 283.455 21.442C283.165 21.078 282.75 20.896 282.209 20.896C281.658 20.896 281.196 21.1153 280.823 21.554C280.459 21.9833 280.277 22.5993 280.277 23.402V27H279.101ZM297.863 27.168C297.042 27.168 296.389 26.9207 295.903 26.426C295.418 25.922 295.175 25.152 295.175 24.116V20.056H296.351V23.99C296.351 25.4367 296.944 26.16 298.129 26.16C298.736 26.16 299.235 25.9453 299.627 25.516C300.029 25.0773 300.229 24.4567 300.229 23.654V20.056H301.405V27H300.341L300.257 25.754C300.043 26.1927 299.721 26.538 299.291 26.79C298.871 27.042 298.395 27.168 297.863 27.168ZM306.001 27.168C305.17 27.168 304.48 26.958 303.929 26.538C303.378 26.118 303.056 25.5487 302.963 24.83H304.167C304.242 25.194 304.433 25.5113 304.741 25.782C305.058 26.0433 305.483 26.174 306.015 26.174C306.51 26.174 306.874 26.0713 307.107 25.866C307.34 25.6513 307.457 25.3993 307.457 25.11C307.457 24.69 307.303 24.41 306.995 24.27C306.696 24.13 306.272 24.004 305.721 23.892C305.348 23.8173 304.974 23.71 304.601 23.57C304.228 23.43 303.915 23.234 303.663 22.982C303.411 22.7207 303.285 22.38 303.285 21.96C303.285 21.3533 303.509 20.8587 303.957 20.476C304.414 20.084 305.03 19.888 305.805 19.888C306.542 19.888 307.144 20.0747 307.611 20.448C308.087 20.812 308.362 21.3347 308.437 22.016H307.275C307.228 21.6613 307.074 21.386 306.813 21.19C306.561 20.9847 306.22 20.882 305.791 20.882C305.371 20.882 305.044 20.9707 304.811 21.148C304.587 21.3253 304.475 21.5587 304.475 21.848C304.475 22.128 304.62 22.3473 304.909 22.506C305.208 22.6647 305.609 22.8 306.113 22.912C306.542 23.0053 306.948 23.122 307.331 23.262C307.723 23.3927 308.04 23.5933 308.283 23.864C308.535 24.1253 308.661 24.508 308.661 25.012C308.67 25.6373 308.432 26.1553 307.947 26.566C307.471 26.9673 306.822 27.168 306.001 27.168ZM311.055 18.516C310.822 18.516 310.626 18.4413 310.467 18.292C310.318 18.1333 310.243 17.9373 310.243 17.704C310.243 17.48 310.318 17.2933 310.467 17.144C310.626 16.9947 310.822 16.92 311.055 16.92C311.279 16.92 311.47 16.9947 311.629 17.144C311.788 17.2933 311.867 17.48 311.867 17.704C311.867 17.9373 311.788 18.1333 311.629 18.292C311.47 18.4413 311.279 18.516 311.055 18.516ZM310.467 27V20.056H311.643V27H310.467ZM313.691 27V20.056H314.755L314.825 21.302C315.049 20.8633 315.371 20.518 315.791 20.266C316.211 20.014 316.687 19.888 317.219 19.888C318.04 19.888 318.693 20.14 319.179 20.644C319.673 21.1387 319.921 21.904 319.921 22.94V27H318.745V23.066C318.745 21.6193 318.147 20.896 316.953 20.896C316.355 20.896 315.856 21.1153 315.455 21.554C315.063 21.9833 314.867 22.5993 314.867 23.402V27H313.691ZM325.202 30.248C324.596 30.248 324.04 30.1407 323.536 29.926C323.032 29.7207 322.612 29.422 322.276 29.03C321.95 28.638 321.735 28.162 321.632 27.602H322.794C322.944 28.0873 323.228 28.4793 323.648 28.778C324.078 29.0767 324.591 29.226 325.188 29.226C325.87 29.226 326.444 29.0067 326.91 28.568C327.377 28.1293 327.61 27.476 327.61 26.608V25.6C327.386 25.992 327.05 26.3467 326.602 26.664C326.154 26.9813 325.59 27.14 324.908 27.14C324.255 27.14 323.662 26.9813 323.13 26.664C322.608 26.3467 322.188 25.9127 321.87 25.362C321.562 24.8113 321.408 24.1907 321.408 23.5C321.408 22.8093 321.562 22.1933 321.87 21.652C322.188 21.1013 322.612 20.672 323.144 20.364C323.676 20.0467 324.269 19.888 324.922 19.888C325.538 19.888 326.08 20.028 326.546 20.308C327.013 20.5787 327.368 20.91 327.61 21.302L327.722 20.056H328.786V26.594C328.786 27.35 328.632 27.9987 328.324 28.54C328.016 29.0907 327.592 29.5107 327.05 29.8C326.509 30.0987 325.893 30.248 325.202 30.248ZM325.09 26.118C325.566 26.118 325.986 26.006 326.35 25.782C326.724 25.558 327.018 25.25 327.232 24.858C327.456 24.466 327.568 24.0133 327.568 23.5C327.568 22.9867 327.456 22.534 327.232 22.142C327.018 21.75 326.724 21.4467 326.35 21.232C325.986 21.0173 325.566 20.91 325.09 20.91C324.624 20.91 324.204 21.0173 323.83 21.232C323.457 21.4467 323.158 21.75 322.934 22.142C322.72 22.534 322.612 22.9867 322.612 23.5C322.612 24.0133 322.72 24.466 322.934 24.858C323.158 25.25 323.457 25.558 323.83 25.782C324.204 26.006 324.624 26.118 325.09 26.118ZM337.161 27C336.527 27 336.027 26.846 335.663 26.538C335.299 26.23 335.117 25.6747 335.117 24.872V21.05H333.913V20.056H335.117L335.271 18.39H336.293V20.056H338.337V21.05H336.293V24.872C336.293 25.3107 336.382 25.6093 336.559 25.768C336.737 25.9173 337.049 25.992 337.497 25.992H338.225V27H337.161ZM342.804 27.168C342.15 27.168 341.562 27.0187 341.04 26.72C340.517 26.4213 340.102 26.0013 339.794 25.46C339.495 24.9093 339.346 24.2653 339.346 23.528C339.346 22.7907 339.5 22.1513 339.808 21.61C340.116 21.0593 340.531 20.6347 341.054 20.336C341.586 20.0373 342.178 19.888 342.832 19.888C343.485 19.888 344.073 20.0373 344.596 20.336C345.118 20.6347 345.529 21.0593 345.828 21.61C346.136 22.1513 346.29 22.7907 346.29 23.528C346.29 24.2653 346.136 24.9093 345.828 25.46C345.52 26.0013 345.1 26.4213 344.568 26.72C344.045 27.0187 343.457 27.168 342.804 27.168ZM342.804 26.16C343.205 26.16 343.578 26.062 343.924 25.866C344.269 25.67 344.549 25.376 344.764 24.984C344.978 24.592 345.086 24.1067 345.086 23.528C345.086 22.9493 344.978 22.464 344.764 22.072C344.558 21.68 344.283 21.386 343.938 21.19C343.592 20.994 343.224 20.896 342.832 20.896C342.43 20.896 342.057 20.994 341.712 21.19C341.366 21.386 341.086 21.68 340.872 22.072C340.657 22.464 340.55 22.9493 340.55 23.528C340.55 24.1067 340.657 24.592 340.872 24.984C341.086 25.376 341.362 25.67 341.698 25.866C342.043 26.062 342.412 26.16 342.804 26.16ZM78.116 47.168C77.4253 47.168 76.8187 47.0093 76.296 46.692C75.7827 46.3747 75.3813 45.9407 75.092 45.39C74.812 44.8393 74.672 44.214 74.672 43.514C74.672 42.814 74.8167 42.1933 75.106 41.652C75.3953 41.1013 75.7967 40.672 76.31 40.364C76.8233 40.0467 77.43 39.888 78.13 39.888C78.6993 39.888 79.2033 40.0047 79.642 40.238C80.0807 40.4713 80.4213 40.798 80.664 41.218V36.92H81.84V47H80.776L80.664 45.852C80.44 46.188 80.118 46.4913 79.698 46.762C79.278 47.0327 78.7507 47.168 78.116 47.168ZM78.242 46.146C78.7087 46.146 79.1193 46.0387 79.474 45.824C79.838 45.6 80.118 45.292 80.314 44.9C80.5193 44.508 80.622 44.0507 80.622 43.528C80.622 43.0053 80.5193 42.548 80.314 42.156C80.118 41.764 79.838 41.4607 79.474 41.246C79.1193 41.022 78.7087 40.91 78.242 40.91C77.7847 40.91 77.374 41.022 77.01 41.246C76.6553 41.4607 76.3753 41.764 76.17 42.156C75.974 42.548 75.876 43.0053 75.876 43.528C75.876 44.0507 75.974 44.508 76.17 44.9C76.3753 45.292 76.6553 45.6 77.01 45.824C77.374 46.0387 77.7847 46.146 78.242 46.146ZM86.879 47.168C86.2163 47.168 85.6283 47.0187 85.115 46.72C84.6017 46.412 84.1957 45.9873 83.897 45.446C83.6077 44.9047 83.463 44.2653 83.463 43.528C83.463 42.8 83.6077 42.1653 83.897 41.624C84.1863 41.0733 84.5877 40.6487 85.101 40.35C85.6237 40.042 86.2257 39.888 86.907 39.888C87.579 39.888 88.1577 40.042 88.643 40.35C89.1377 40.6487 89.5157 41.0453 89.777 41.54C90.0383 42.0347 90.169 42.5667 90.169 43.136C90.169 43.2387 90.1643 43.3413 90.155 43.444C90.155 43.5467 90.155 43.6633 90.155 43.794H84.625C84.653 44.326 84.7743 44.7693 84.989 45.124C85.213 45.4693 85.4883 45.7307 85.815 45.908C86.151 46.0853 86.5057 46.174 86.879 46.174C87.3643 46.174 87.7703 46.062 88.097 45.838C88.4237 45.614 88.6617 45.3107 88.811 44.928H89.973C89.7863 45.572 89.427 46.1087 88.895 46.538C88.3723 46.958 87.7003 47.168 86.879 47.168ZM86.879 40.882C86.319 40.882 85.8197 41.0547 85.381 41.4C84.9517 41.736 84.7043 42.2307 84.639 42.884H89.007C88.979 42.2587 88.7643 41.7687 88.363 41.414C87.9617 41.0593 87.467 40.882 86.879 40.882ZM94.2393 47C93.6046 47 93.1053 46.846 92.7413 46.538C92.3773 46.23 92.1953 45.6747 92.1953 44.872V41.05H90.9913V40.056H92.1953L92.3493 38.39H93.3713V40.056H95.4153V41.05H93.3713V44.872C93.3713 45.3107 93.46 45.6093 93.6373 45.768C93.8146 45.9173 94.1273 45.992 94.5753 45.992H95.3033V47H94.2393ZM99.84 47.168C99.1773 47.168 98.5893 47.0187 98.076 46.72C97.5626 46.412 97.1566 45.9873 96.858 45.446C96.5686 44.9047 96.424 44.2653 96.424 43.528C96.424 42.8 96.5686 42.1653 96.858 41.624C97.1473 41.0733 97.5486 40.6487 98.062 40.35C98.5846 40.042 99.1866 39.888 99.868 39.888C100.54 39.888 101.119 40.042 101.604 40.35C102.099 40.6487 102.477 41.0453 102.738 41.54C102.999 42.0347 103.13 42.5667 103.13 43.136C103.13 43.2387 103.125 43.3413 103.116 43.444C103.116 43.5467 103.116 43.6633 103.116 43.794H97.586C97.614 44.326 97.7353 44.7693 97.95 45.124C98.174 45.4693 98.4493 45.7307 98.776 45.908C99.112 46.0853 99.4666 46.174 99.84 46.174C100.325 46.174 100.731 46.062 101.058 45.838C101.385 45.614 101.623 45.3107 101.772 44.928H102.934C102.747 45.572 102.388 46.1087 101.856 46.538C101.333 46.958 100.661 47.168 99.84 47.168ZM99.84 40.882C99.28 40.882 98.7806 41.0547 98.342 41.4C97.9126 41.736 97.6653 42.2307 97.6 42.884H101.968C101.94 42.2587 101.725 41.7687 101.324 41.414C100.923 41.0593 100.428 40.882 99.84 40.882ZM104.689 47V40.056H105.753L105.851 41.386C106.065 40.9287 106.392 40.5647 106.831 40.294C107.269 40.0233 107.811 39.888 108.455 39.888V41.12H108.133C107.722 41.12 107.344 41.1947 106.999 41.344C106.653 41.484 106.378 41.7267 106.173 42.072C105.967 42.4173 105.865 42.8933 105.865 43.5V47H104.689ZM109.775 47V40.056H110.839L110.923 41.064C111.147 40.6907 111.445 40.4013 111.819 40.196C112.192 39.9907 112.612 39.888 113.079 39.888C113.629 39.888 114.101 40 114.493 40.224C114.894 40.448 115.202 40.7887 115.417 41.246C115.659 40.826 115.991 40.4947 116.411 40.252C116.84 40.0093 117.302 39.888 117.797 39.888C118.627 39.888 119.29 40.14 119.785 40.644C120.279 41.1387 120.527 41.904 120.527 42.94V47H119.365V43.066C119.365 42.3473 119.22 41.806 118.931 41.442C118.641 41.078 118.226 40.896 117.685 40.896C117.125 40.896 116.658 41.1153 116.285 41.554C115.921 41.9833 115.739 42.5993 115.739 43.402V47H114.563V43.066C114.563 42.3473 114.418 41.806 114.129 41.442C113.839 41.078 113.424 40.896 112.883 40.896C112.332 40.896 111.87 41.1153 111.497 41.554C111.133 41.9833 110.951 42.5993 110.951 43.402V47H109.775ZM123.012 38.516C122.779 38.516 122.583 38.4413 122.424 38.292C122.275 38.1333 122.2 37.9373 122.2 37.704C122.2 37.48 122.275 37.2933 122.424 37.144C122.583 36.9947 122.779 36.92 123.012 36.92C123.236 36.92 123.427 36.9947 123.586 37.144C123.745 37.2933 123.824 37.48 123.824 37.704C123.824 37.9373 123.745 38.1333 123.586 38.292C123.427 38.4413 123.236 38.516 123.012 38.516ZM122.424 47V40.056H123.6V47H122.424ZM125.648 47V40.056H126.712L126.782 41.302C127.006 40.8633 127.328 40.518 127.748 40.266C128.168 40.014 128.644 39.888 129.176 39.888C129.997 39.888 130.65 40.14 131.136 40.644C131.63 41.1387 131.878 41.904 131.878 42.94V47H130.702V43.066C130.702 41.6193 130.104 40.896 128.91 40.896C128.312 40.896 127.813 41.1153 127.412 41.554C127.02 41.9833 126.824 42.5993 126.824 43.402V47H125.648ZM136.781 47.168C136.119 47.168 135.531 47.0187 135.017 46.72C134.504 46.412 134.098 45.9873 133.799 45.446C133.51 44.9047 133.365 44.2653 133.365 43.528C133.365 42.8 133.51 42.1653 133.799 41.624C134.089 41.0733 134.49 40.6487 135.003 40.35C135.526 40.042 136.128 39.888 136.809 39.888C137.481 39.888 138.06 40.042 138.545 40.35C139.04 40.6487 139.418 41.0453 139.679 41.54C139.941 42.0347 140.071 42.5667 140.071 43.136C140.071 43.2387 140.067 43.3413 140.057 43.444C140.057 43.5467 140.057 43.6633 140.057 43.794H134.527C134.555 44.326 134.677 44.7693 134.891 45.124C135.115 45.4693 135.391 45.7307 135.717 45.908C136.053 46.0853 136.408 46.174 136.781 46.174C137.267 46.174 137.673 46.062 137.999 45.838C138.326 45.614 138.564 45.3107 138.713 44.928H139.875C139.689 45.572 139.329 46.1087 138.797 46.538C138.275 46.958 137.603 47.168 136.781 47.168ZM136.781 40.882C136.221 40.882 135.722 41.0547 135.283 41.4C134.854 41.736 134.607 42.2307 134.541 42.884H138.909C138.881 42.2587 138.667 41.7687 138.265 41.414C137.864 41.0593 137.369 40.882 136.781 40.882ZM146.049 38.516C145.816 38.516 145.62 38.4413 145.461 38.292C145.312 38.1333 145.237 37.9373 145.237 37.704C145.237 37.48 145.312 37.2933 145.461 37.144C145.62 36.9947 145.816 36.92 146.049 36.92C146.273 36.92 146.464 36.9947 146.623 37.144C146.782 37.2933 146.861 37.48 146.861 37.704C146.861 37.9373 146.782 38.1333 146.623 38.292C146.464 38.4413 146.273 38.516 146.049 38.516ZM145.461 47V40.056H146.637V47H145.461ZM149.063 47V41.05H148.013V40.056H149.063V38.852C149.063 38.18 149.231 37.69 149.567 37.382C149.903 37.074 150.393 36.92 151.037 36.92H151.737V37.928H151.219C150.864 37.928 150.612 38.0027 150.463 38.152C150.313 38.292 150.239 38.5347 150.239 38.88V40.056H151.947V41.05H150.239V47H149.063ZM157.122 47V37.2H158.298V47H157.122ZM164.011 47V40.056H165.075L165.173 41.386C165.388 40.9287 165.714 40.5647 166.153 40.294C166.592 40.0233 167.133 39.888 167.777 39.888V41.12H167.455C167.044 41.12 166.666 41.1947 166.321 41.344C165.976 41.484 165.7 41.7267 165.495 42.072C165.29 42.4173 165.187 42.8933 165.187 43.5V47H164.011ZM171.959 47.168C171.296 47.168 170.708 47.0187 170.195 46.72C169.682 46.412 169.276 45.9873 168.977 45.446C168.688 44.9047 168.543 44.2653 168.543 43.528C168.543 42.8 168.688 42.1653 168.977 41.624C169.266 41.0733 169.668 40.6487 170.181 40.35C170.704 40.042 171.306 39.888 171.987 39.888C172.659 39.888 173.238 40.042 173.723 40.35C174.218 40.6487 174.596 41.0453 174.857 41.54C175.118 42.0347 175.249 42.5667 175.249 43.136C175.249 43.2387 175.244 43.3413 175.235 43.444C175.235 43.5467 175.235 43.6633 175.235 43.794H169.705C169.733 44.326 169.854 44.7693 170.069 45.124C170.293 45.4693 170.568 45.7307 170.895 45.908C171.231 46.0853 171.586 46.174 171.959 46.174C172.444 46.174 172.85 46.062 173.177 45.838C173.504 45.614 173.742 45.3107 173.891 44.928H175.053C174.866 45.572 174.507 46.1087 173.975 46.538C173.452 46.958 172.78 47.168 171.959 47.168ZM171.959 40.882C171.399 40.882 170.9 41.0547 170.461 41.4C170.032 41.736 169.784 42.2307 169.719 42.884H174.087C174.059 42.2587 173.844 41.7687 173.443 41.414C173.042 41.0593 172.547 40.882 171.959 40.882ZM179.118 47.168C178.539 47.168 178.058 47.07 177.676 46.874C177.293 46.678 177.008 46.4167 176.822 46.09C176.635 45.7633 176.542 45.4087 176.542 45.026C176.542 44.3167 176.812 43.7707 177.354 43.388C177.895 43.0053 178.632 42.814 179.566 42.814H181.442V42.73C181.442 42.1233 181.283 41.666 180.966 41.358C180.648 41.0407 180.224 40.882 179.692 40.882C179.234 40.882 178.838 40.9987 178.502 41.232C178.175 41.456 177.97 41.7873 177.886 42.226H176.682C176.728 41.722 176.896 41.2973 177.186 40.952C177.484 40.6067 177.853 40.3453 178.292 40.168C178.73 39.9813 179.197 39.888 179.692 39.888C180.662 39.888 181.39 40.1493 181.876 40.672C182.37 41.1853 182.618 41.8713 182.618 42.73V47H181.568L181.498 45.754C181.302 46.146 181.012 46.482 180.63 46.762C180.256 47.0327 179.752 47.168 179.118 47.168ZM179.3 46.174C179.748 46.174 180.13 46.0573 180.448 45.824C180.774 45.5907 181.022 45.2873 181.19 44.914C181.358 44.5407 181.442 44.1487 181.442 43.738V43.724H179.664C178.973 43.724 178.483 43.8453 178.194 44.088C177.914 44.3213 177.774 44.6153 177.774 44.97C177.774 45.334 177.904 45.628 178.166 45.852C178.436 46.0667 178.814 46.174 179.3 46.174ZM184.382 47V36.92H185.558V47H184.382ZM187.486 47V36.92H188.662V47H187.486ZM191.345 50.08L193.067 46.328H192.661L189.903 40.056H191.177L193.473 45.46L195.909 40.056H197.127L192.577 50.08H191.345ZM203.473 47L201.443 40.056H202.619L204.089 45.502L205.713 40.056H207.043L208.681 45.502L210.137 40.056H211.327L209.297 47H208.093L206.385 41.274L204.677 47H203.473ZM214.692 47.168C214.113 47.168 213.633 47.07 213.25 46.874C212.867 46.678 212.583 46.4167 212.396 46.09C212.209 45.7633 212.116 45.4087 212.116 45.026C212.116 44.3167 212.387 43.7707 212.928 43.388C213.469 43.0053 214.207 42.814 215.14 42.814H217.016V42.73C217.016 42.1233 216.857 41.666 216.54 41.358C216.223 41.0407 215.798 40.882 215.266 40.882C214.809 40.882 214.412 40.9987 214.076 41.232C213.749 41.456 213.544 41.7873 213.46 42.226H212.256C212.303 41.722 212.471 41.2973 212.76 40.952C213.059 40.6067 213.427 40.3453 213.866 40.168C214.305 39.9813 214.771 39.888 215.266 39.888C216.237 39.888 216.965 40.1493 217.45 40.672C217.945 41.1853 218.192 41.8713 218.192 42.73V47H217.142L217.072 45.754C216.876 46.146 216.587 46.482 216.204 46.762C215.831 47.0327 215.327 47.168 214.692 47.168ZM214.874 46.174C215.322 46.174 215.705 46.0573 216.022 45.824C216.349 45.5907 216.596 45.2873 216.764 44.914C216.932 44.5407 217.016 44.1487 217.016 43.738V43.724H215.238C214.547 43.724 214.057 43.8453 213.768 44.088C213.488 44.3213 213.348 44.6153 213.348 44.97C213.348 45.334 213.479 45.628 213.74 45.852C214.011 46.0667 214.389 46.174 214.874 46.174ZM219.956 47V40.056H221.02L221.09 41.302C221.314 40.8633 221.636 40.518 222.056 40.266C222.476 40.014 222.952 39.888 223.484 39.888C224.306 39.888 224.959 40.14 225.444 40.644C225.939 41.1387 226.186 41.904 226.186 42.94V47H225.01V43.066C225.01 41.6193 224.413 40.896 223.218 40.896C222.621 40.896 222.122 41.1153 221.72 41.554C221.328 41.9833 221.132 42.5993 221.132 43.402V47H219.956ZM230.712 47C230.077 47 229.578 46.846 229.214 46.538C228.85 46.23 228.668 45.6747 228.668 44.872V41.05H227.464V40.056H228.668L228.822 38.39H229.844V40.056H231.888V41.05H229.844V44.872C229.844 45.3107 229.933 45.6093 230.11 45.768C230.287 45.9173 230.6 45.992 231.048 45.992H231.776V47H230.712ZM239.831 47C239.196 47 238.697 46.846 238.333 46.538C237.969 46.23 237.787 45.6747 237.787 44.872V41.05H236.583V40.056H237.787L237.941 38.39H238.963V40.056H241.007V41.05H238.963V44.872C238.963 45.3107 239.052 45.6093 239.229 45.768C239.406 45.9173 239.719 45.992 240.167 45.992H240.895V47H239.831ZM245.474 47.168C244.82 47.168 244.232 47.0187 243.71 46.72C243.187 46.4213 242.772 46.0013 242.464 45.46C242.165 44.9093 242.016 44.2653 242.016 43.528C242.016 42.7907 242.17 42.1513 242.478 41.61C242.786 41.0593 243.201 40.6347 243.724 40.336C244.256 40.0373 244.848 39.888 245.502 39.888C246.155 39.888 246.743 40.0373 247.266 40.336C247.788 40.6347 248.199 41.0593 248.498 41.61C248.806 42.1513 248.96 42.7907 248.96 43.528C248.96 44.2653 248.806 44.9093 248.498 45.46C248.19 46.0013 247.77 46.4213 247.238 46.72C246.715 47.0187 246.127 47.168 245.474 47.168ZM245.474 46.16C245.875 46.16 246.248 46.062 246.594 45.866C246.939 45.67 247.219 45.376 247.434 44.984C247.648 44.592 247.756 44.1067 247.756 43.528C247.756 42.9493 247.648 42.464 247.434 42.072C247.228 41.68 246.953 41.386 246.608 41.19C246.262 40.994 245.894 40.896 245.502 40.896C245.1 40.896 244.727 40.994 244.382 41.19C244.036 41.386 243.756 41.68 243.542 42.072C243.327 42.464 243.22 42.9493 243.22 43.528C243.22 44.1067 243.327 44.592 243.542 44.984C243.756 45.376 244.032 45.67 244.368 45.866C244.713 46.062 245.082 46.16 245.474 46.16ZM257.8 50.248C257.193 50.248 256.638 50.1407 256.134 49.926C255.63 49.7207 255.21 49.422 254.874 49.03C254.547 48.638 254.333 48.162 254.23 47.602H255.392C255.541 48.0873 255.826 48.4793 256.246 48.778C256.675 49.0767 257.189 49.226 257.786 49.226C258.467 49.226 259.041 49.0067 259.508 48.568C259.975 48.1293 260.208 47.476 260.208 46.608V45.6C259.984 45.992 259.648 46.3467 259.2 46.664C258.752 46.9813 258.187 47.14 257.506 47.14C256.853 47.14 256.26 46.9813 255.728 46.664C255.205 46.3467 254.785 45.9127 254.468 45.362C254.16 44.8113 254.006 44.1907 254.006 43.5C254.006 42.8093 254.16 42.1933 254.468 41.652C254.785 41.1013 255.21 40.672 255.742 40.364C256.274 40.0467 256.867 39.888 257.52 39.888C258.136 39.888 258.677 40.028 259.144 40.308C259.611 40.5787 259.965 40.91 260.208 41.302L260.32 40.056H261.384V46.594C261.384 47.35 261.23 47.9987 260.922 48.54C260.614 49.0907 260.189 49.5107 259.648 49.8C259.107 50.0987 258.491 50.248 257.8 50.248ZM257.688 46.118C258.164 46.118 258.584 46.006 258.948 45.782C259.321 45.558 259.615 45.25 259.83 44.858C260.054 44.466 260.166 44.0133 260.166 43.5C260.166 42.9867 260.054 42.534 259.83 42.142C259.615 41.75 259.321 41.4467 258.948 41.232C258.584 41.0173 258.164 40.91 257.688 40.91C257.221 40.91 256.801 41.0173 256.428 41.232C256.055 41.4467 255.756 41.75 255.532 42.142C255.317 42.534 255.21 42.9867 255.21 43.5C255.21 44.0133 255.317 44.466 255.532 44.858C255.756 45.25 256.055 45.558 256.428 45.782C256.801 46.006 257.221 46.118 257.688 46.118ZM266.474 47.168C265.82 47.168 265.232 47.0187 264.71 46.72C264.187 46.4213 263.772 46.0013 263.464 45.46C263.165 44.9093 263.016 44.2653 263.016 43.528C263.016 42.7907 263.17 42.1513 263.478 41.61C263.786 41.0593 264.201 40.6347 264.724 40.336C265.256 40.0373 265.848 39.888 266.502 39.888C267.155 39.888 267.743 40.0373 268.266 40.336C268.788 40.6347 269.199 41.0593 269.498 41.61C269.806 42.1513 269.96 42.7907 269.96 43.528C269.96 44.2653 269.806 44.9093 269.498 45.46C269.19 46.0013 268.77 46.4213 268.238 46.72C267.715 47.0187 267.127 47.168 266.474 47.168ZM266.474 46.16C266.875 46.16 267.248 46.062 267.594 45.866C267.939 45.67 268.219 45.376 268.434 44.984C268.648 44.592 268.756 44.1067 268.756 43.528C268.756 42.9493 268.648 42.464 268.434 42.072C268.228 41.68 267.953 41.386 267.608 41.19C267.262 40.994 266.894 40.896 266.502 40.896C266.1 40.896 265.727 40.994 265.382 41.19C265.036 41.386 264.756 41.68 264.542 42.072C264.327 42.464 264.22 42.9493 264.22 43.528C264.22 44.1067 264.327 44.592 264.542 44.984C264.756 45.376 265.032 45.67 265.368 45.866C265.713 46.062 266.082 46.16 266.474 46.16ZM278.464 47.168C277.811 47.168 277.223 47.0187 276.7 46.72C276.177 46.4213 275.762 46.0013 275.454 45.46C275.155 44.9093 275.006 44.2653 275.006 43.528C275.006 42.7907 275.16 42.1513 275.468 41.61C275.776 41.0593 276.191 40.6347 276.714 40.336C277.246 40.0373 277.839 39.888 278.492 39.888C279.145 39.888 279.733 40.0373 280.256 40.336C280.779 40.6347 281.189 41.0593 281.488 41.61C281.796 42.1513 281.95 42.7907 281.95 43.528C281.95 44.2653 281.796 44.9093 281.488 45.46C281.18 46.0013 280.76 46.4213 280.228 46.72C279.705 47.0187 279.117 47.168 278.464 47.168ZM278.464 46.16C278.865 46.16 279.239 46.062 279.584 45.866C279.929 45.67 280.209 45.376 280.424 44.984C280.639 44.592 280.746 44.1067 280.746 43.528C280.746 42.9493 280.639 42.464 280.424 42.072C280.219 41.68 279.943 41.386 279.598 41.19C279.253 40.994 278.884 40.896 278.492 40.896C278.091 40.896 277.717 40.994 277.372 41.19C277.027 41.386 276.747 41.68 276.532 42.072C276.317 42.464 276.21 42.9493 276.21 43.528C276.21 44.1067 276.317 44.592 276.532 44.984C276.747 45.376 277.022 45.67 277.358 45.866C277.703 46.062 278.072 46.16 278.464 46.16ZM283.585 47V40.056H284.649L284.719 41.302C284.943 40.8633 285.265 40.518 285.685 40.266C286.105 40.014 286.581 39.888 287.113 39.888C287.934 39.888 288.588 40.14 289.073 40.644C289.568 41.1387 289.815 41.904 289.815 42.94V47H288.639V43.066C288.639 41.6193 288.042 40.896 286.847 40.896C286.25 40.896 285.75 41.1153 285.349 41.554C284.957 41.9833 284.761 42.5993 284.761 43.402V47H283.585ZM298.046 47C297.411 47 296.912 46.846 296.548 46.538C296.184 46.23 296.002 45.6747 296.002 44.872V41.05H294.798V40.056H296.002L296.156 38.39H297.178V40.056H299.222V41.05H297.178V44.872C297.178 45.3107 297.267 45.6093 297.444 45.768C297.621 45.9173 297.934 45.992 298.382 45.992H299.11V47H298.046ZM300.716 47V36.92H301.892V41.246C302.125 40.8167 302.457 40.4853 302.886 40.252C303.315 40.0093 303.782 39.888 304.286 39.888C305.089 39.888 305.733 40.14 306.218 40.644C306.703 41.1387 306.946 41.904 306.946 42.94V47H305.784V43.066C305.784 41.6193 305.201 40.896 304.034 40.896C303.427 40.896 302.919 41.1153 302.508 41.554C302.097 41.9833 301.892 42.5993 301.892 43.402V47H300.716ZM309.442 38.516C309.208 38.516 309.012 38.4413 308.854 38.292C308.704 38.1333 308.63 37.9373 308.63 37.704C308.63 37.48 308.704 37.2933 308.854 37.144C309.012 36.9947 309.208 36.92 309.442 36.92C309.666 36.92 309.857 36.9947 310.016 37.144C310.174 37.2933 310.254 37.48 310.254 37.704C310.254 37.9373 310.174 38.1333 310.016 38.292C309.857 38.4413 309.666 38.516 309.442 38.516ZM308.854 47V40.056H310.03V47H308.854ZM314.737 47.168C313.907 47.168 313.216 46.958 312.665 46.538C312.115 46.118 311.793 45.5487 311.699 44.83H312.903C312.978 45.194 313.169 45.5113 313.477 45.782C313.795 46.0433 314.219 46.174 314.751 46.174C315.246 46.174 315.61 46.0713 315.843 45.866C316.077 45.6513 316.193 45.3993 316.193 45.11C316.193 44.69 316.039 44.41 315.731 44.27C315.433 44.13 315.008 44.004 314.457 43.892C314.084 43.8173 313.711 43.71 313.337 43.57C312.964 43.43 312.651 43.234 312.399 42.982C312.147 42.7207 312.021 42.38 312.021 41.96C312.021 41.3533 312.245 40.8587 312.693 40.476C313.151 40.084 313.767 39.888 314.541 39.888C315.279 39.888 315.881 40.0747 316.347 40.448C316.823 40.812 317.099 41.3347 317.173 42.016H316.011C315.965 41.6613 315.811 41.386 315.549 41.19C315.297 40.9847 314.957 40.882 314.527 40.882C314.107 40.882 313.781 40.9707 313.547 41.148C313.323 41.3253 313.211 41.5587 313.211 41.848C313.211 42.128 313.356 42.3473 313.645 42.506C313.944 42.6647 314.345 42.8 314.849 42.912C315.279 43.0053 315.685 43.122 316.067 43.262C316.459 43.3927 316.777 43.5933 317.019 43.864C317.271 44.1253 317.397 44.508 317.397 45.012C317.407 45.6373 317.169 46.1553 316.683 46.566C316.207 46.9673 315.559 47.168 314.737 47.168ZM325.974 47.168C325.312 47.168 324.714 47.0187 324.182 46.72C323.66 46.412 323.244 45.9873 322.936 45.446C322.638 44.8953 322.488 44.256 322.488 43.528C322.488 42.8 322.638 42.1653 322.936 41.624C323.244 41.0733 323.66 40.6487 324.182 40.35C324.714 40.042 325.312 39.888 325.974 39.888C326.796 39.888 327.486 40.1027 328.046 40.532C328.616 40.9613 328.975 41.5353 329.124 42.254H327.92C327.827 41.8247 327.598 41.4933 327.234 41.26C326.87 41.0173 326.446 40.896 325.96 40.896C325.568 40.896 325.2 40.994 324.854 41.19C324.509 41.386 324.229 41.68 324.014 42.072C323.8 42.464 323.692 42.9493 323.692 43.528C323.692 44.1067 323.8 44.592 324.014 44.984C324.229 45.376 324.509 45.6747 324.854 45.88C325.2 46.076 325.568 46.174 325.96 46.174C326.446 46.174 326.87 46.0573 327.234 45.824C327.598 45.5813 327.827 45.2407 327.92 44.802H329.124C328.984 45.502 328.63 46.0713 328.06 46.51C327.491 46.9487 326.796 47.168 325.974 47.168ZM330.767 47V40.056H331.831L331.929 41.386C332.143 40.9287 332.47 40.5647 332.909 40.294C333.347 40.0233 333.889 39.888 334.533 39.888V41.12H334.211C333.8 41.12 333.422 41.1947 333.077 41.344C332.731 41.484 332.456 41.7267 332.251 42.072C332.045 42.4173 331.943 42.8933 331.943 43.5V47H330.767ZM338.387 47.168C337.565 47.168 336.912 46.9207 336.427 46.426C335.941 45.922 335.699 45.152 335.699 44.116V40.056H336.875V43.99C336.875 45.4367 337.467 46.16 338.653 46.16C339.259 46.16 339.759 45.9453 340.151 45.516C340.552 45.0773 340.753 44.4567 340.753 43.654V40.056H341.929V47H340.865L340.781 45.754C340.566 46.1927 340.244 46.538 339.815 46.79C339.395 47.042 338.919 47.168 338.387 47.168ZM344.578 38.516C344.345 38.516 344.149 38.4413 343.99 38.292C343.841 38.1333 343.766 37.9373 343.766 37.704C343.766 37.48 343.841 37.2933 343.99 37.144C344.149 36.9947 344.345 36.92 344.578 36.92C344.802 36.92 344.994 36.9947 345.152 37.144C345.311 37.2933 345.39 37.48 345.39 37.704C345.39 37.9373 345.311 38.1333 345.152 38.292C344.994 38.4413 344.802 38.516 344.578 38.516ZM343.99 47V40.056H345.166V47H343.99ZM349.874 47.168C349.043 47.168 348.353 46.958 347.802 46.538C347.251 46.118 346.929 45.5487 346.836 44.83H348.04C348.115 45.194 348.306 45.5113 348.614 45.782C348.931 46.0433 349.356 46.174 349.888 46.174C350.383 46.174 350.747 46.0713 350.98 45.866C351.213 45.6513 351.33 45.3993 351.33 45.11C351.33 44.69 351.176 44.41 350.868 44.27C350.569 44.13 350.145 44.004 349.594 43.892C349.221 43.8173 348.847 43.71 348.474 43.57C348.101 43.43 347.788 43.234 347.536 42.982C347.284 42.7207 347.158 42.38 347.158 41.96C347.158 41.3533 347.382 40.8587 347.83 40.476C348.287 40.084 348.903 39.888 349.678 39.888C350.415 39.888 351.017 40.0747 351.484 40.448C351.96 40.812 352.235 41.3347 352.31 42.016H351.148C351.101 41.6613 350.947 41.386 350.686 41.19C350.434 40.9847 350.093 40.882 349.664 40.882C349.244 40.882 348.917 40.9707 348.684 41.148C348.46 41.3253 348.348 41.5587 348.348 41.848C348.348 42.128 348.493 42.3473 348.782 42.506C349.081 42.6647 349.482 42.8 349.986 42.912C350.415 43.0053 350.821 43.122 351.204 43.262C351.596 43.3927 351.913 43.5933 352.156 43.864C352.408 44.1253 352.534 44.508 352.534 45.012C352.543 45.6373 352.305 46.1553 351.82 46.566C351.344 46.9673 350.695 47.168 349.874 47.168ZM357.336 47.168C356.673 47.168 356.085 47.0187 355.572 46.72C355.059 46.412 354.653 45.9873 354.354 45.446C354.065 44.9047 353.92 44.2653 353.92 43.528C353.92 42.8 354.065 42.1653 354.354 41.624C354.643 41.0733 355.045 40.6487 355.558 40.35C356.081 40.042 356.683 39.888 357.364 39.888C358.036 39.888 358.615 40.042 359.1 40.35C359.595 40.6487 359.973 41.0453 360.234 41.54C360.495 42.0347 360.626 42.5667 360.626 43.136C360.626 43.2387 360.621 43.3413 360.612 43.444C360.612 43.5467 360.612 43.6633 360.612 43.794H355.082C355.11 44.326 355.231 44.7693 355.446 45.124C355.67 45.4693 355.945 45.7307 356.272 45.908C356.608 46.0853 356.963 46.174 357.336 46.174C357.821 46.174 358.227 46.062 358.554 45.838C358.881 45.614 359.119 45.3107 359.268 44.928H360.43C360.243 45.572 359.884 46.1087 359.352 46.538C358.829 46.958 358.157 47.168 357.336 47.168ZM357.336 40.882C356.776 40.882 356.277 41.0547 355.838 41.4C355.409 41.736 355.161 42.2307 355.096 42.884H359.464C359.436 42.2587 359.221 41.7687 358.82 41.414C358.419 41.0593 357.924 40.882 357.336 40.882ZM362.591 47.07C362.357 47.07 362.161 46.9953 362.003 46.846C361.853 46.6873 361.779 46.496 361.779 46.272C361.779 46.048 361.853 45.8613 362.003 45.712C362.161 45.5533 362.357 45.474 362.591 45.474C362.815 45.474 363.001 45.5533 363.151 45.712C363.309 45.8613 363.389 46.048 363.389 46.272C363.389 46.496 363.309 46.6873 363.151 46.846C363.001 46.9953 362.815 47.07 362.591 47.07ZM370.878 47.168C369.992 47.168 369.296 46.9207 368.792 46.426C368.288 45.9313 368.036 45.2453 368.036 44.368H369.226C369.226 44.8627 369.348 45.278 369.59 45.614C369.833 45.95 370.258 46.118 370.864 46.118C371.452 46.118 371.858 45.9547 372.082 45.628C372.316 45.3013 372.432 44.8953 372.432 44.41V37.2H373.608V44.41C373.608 45.278 373.366 45.9547 372.88 46.44C372.404 46.9253 371.737 47.168 370.878 47.168ZM378.145 47.168C377.323 47.168 376.67 46.9207 376.185 46.426C375.699 45.922 375.457 45.152 375.457 44.116V40.056H376.633V43.99C376.633 45.4367 377.225 46.16 378.411 46.16C379.017 46.16 379.517 45.9453 379.909 45.516C380.31 45.0773 380.511 44.4567 380.511 43.654V40.056H381.687V47H380.623L380.539 45.754C380.324 46.1927 380.002 46.538 379.573 46.79C379.153 47.042 378.677 47.168 378.145 47.168ZM386.282 47.168C385.452 47.168 384.761 46.958 384.21 46.538C383.66 46.118 383.338 45.5487 383.244 44.83H384.448C384.523 45.194 384.714 45.5113 385.022 45.782C385.34 46.0433 385.764 46.174 386.296 46.174C386.791 46.174 387.155 46.0713 387.388 45.866C387.622 45.6513 387.738 45.3993 387.738 45.11C387.738 44.69 387.584 44.41 387.276 44.27C386.978 44.13 386.553 44.004 386.002 43.892C385.629 43.8173 385.256 43.71 384.882 43.57C384.509 43.43 384.196 43.234 383.944 42.982C383.692 42.7207 383.566 42.38 383.566 41.96C383.566 41.3533 383.79 40.8587 384.238 40.476C384.696 40.084 385.312 39.888 386.086 39.888C386.824 39.888 387.426 40.0747 387.892 40.448C388.368 40.812 388.644 41.3347 388.718 42.016H387.556C387.51 41.6613 387.356 41.386 387.094 41.19C386.842 40.9847 386.502 40.882 386.072 40.882C385.652 40.882 385.326 40.9707 385.092 41.148C384.868 41.3253 384.756 41.5587 384.756 41.848C384.756 42.128 384.901 42.3473 385.19 42.506C385.489 42.6647 385.89 42.8 386.394 42.912C386.824 43.0053 387.23 43.122 387.612 43.262C388.004 43.3927 388.322 43.5933 388.564 43.864C388.816 44.1253 388.942 44.508 388.942 45.012C388.952 45.6373 388.714 46.1553 388.228 46.566C387.752 46.9673 387.104 47.168 386.282 47.168ZM393.052 47C392.417 47 391.918 46.846 391.554 46.538C391.19 46.23 391.008 45.6747 391.008 44.872V41.05H389.804V40.056H391.008L391.162 38.39H392.184V40.056H394.228V41.05H392.184V44.872C392.184 45.3107 392.272 45.6093 392.45 45.768C392.627 45.9173 392.94 45.992 393.388 45.992H394.116V47H393.052ZM402.171 47C401.536 47 401.037 46.846 400.673 46.538C400.309 46.23 400.127 45.6747 400.127 44.872V41.05H398.923V40.056H400.127L400.281 38.39H401.303V40.056H403.347V41.05H401.303V44.872C401.303 45.3107 401.392 45.6093 401.569 45.768C401.746 45.9173 402.059 45.992 402.507 45.992H403.235V47H402.171ZM407.814 47.168C407.16 47.168 406.572 47.0187 406.05 46.72C405.527 46.4213 405.112 46.0013 404.804 45.46C404.505 44.9093 404.356 44.2653 404.356 43.528C404.356 42.7907 404.51 42.1513 404.818 41.61C405.126 41.0593 405.541 40.6347 406.064 40.336C406.596 40.0373 407.188 39.888 407.842 39.888C408.495 39.888 409.083 40.0373 409.606 40.336C410.128 40.6347 410.539 41.0593 410.838 41.61C411.146 42.1513 411.3 42.7907 411.3 43.528C411.3 44.2653 411.146 44.9093 410.838 45.46C410.53 46.0013 410.11 46.4213 409.578 46.72C409.055 47.0187 408.467 47.168 407.814 47.168ZM407.814 46.16C408.215 46.16 408.588 46.062 408.934 45.866C409.279 45.67 409.559 45.376 409.774 44.984C409.988 44.592 410.096 44.1067 410.096 43.528C410.096 42.9493 409.988 42.464 409.774 42.072C409.568 41.68 409.293 41.386 408.948 41.19C408.602 40.994 408.234 40.896 407.842 40.896C407.44 40.896 407.067 40.994 406.722 41.19C406.376 41.386 406.096 41.68 405.882 42.072C405.667 42.464 405.56 42.9493 405.56 43.528C405.56 44.1067 405.667 44.592 405.882 44.984C406.096 45.376 406.372 45.67 406.708 45.866C407.053 46.062 407.422 46.16 407.814 46.16ZM78.676 67.168C78.1067 67.168 77.598 67.0513 77.15 66.818C76.7113 66.5847 76.3753 66.258 76.142 65.838L76.03 67H74.966V56.92H76.142V61.204C76.366 60.868 76.6833 60.5647 77.094 60.294C77.514 60.0233 78.046 59.888 78.69 59.888C79.3807 59.888 79.9827 60.0467 80.496 60.364C81.0093 60.6813 81.406 61.1153 81.686 61.666C81.9753 62.2167 82.12 62.842 82.12 63.542C82.12 64.242 81.9753 64.8673 81.686 65.418C81.406 65.9593 81.0047 66.3887 80.482 66.706C79.9687 67.014 79.3667 67.168 78.676 67.168ZM78.55 66.146C79.0167 66.146 79.4273 66.0387 79.782 65.824C80.1367 65.6 80.4167 65.292 80.622 64.9C80.8273 64.508 80.93 64.0507 80.93 63.528C80.93 63.0053 80.8273 62.548 80.622 62.156C80.4167 61.764 80.1367 61.4607 79.782 61.246C79.4273 61.022 79.0167 60.91 78.55 60.91C78.0833 60.91 77.6727 61.022 77.318 61.246C76.9633 61.4607 76.6833 61.764 76.478 62.156C76.2727 62.548 76.17 63.0053 76.17 63.528C76.17 64.0507 76.2727 64.508 76.478 64.9C76.6833 65.292 76.9633 65.6 77.318 65.824C77.6727 66.0387 78.0833 66.146 78.55 66.146ZM86.879 67.168C86.2163 67.168 85.6283 67.0187 85.115 66.72C84.6017 66.412 84.1957 65.9873 83.897 65.446C83.6077 64.9047 83.463 64.2653 83.463 63.528C83.463 62.8 83.6077 62.1653 83.897 61.624C84.1863 61.0733 84.5877 60.6487 85.101 60.35C85.6237 60.042 86.2257 59.888 86.907 59.888C87.579 59.888 88.1577 60.042 88.643 60.35C89.1377 60.6487 89.5157 61.0453 89.777 61.54C90.0383 62.0347 90.169 62.5667 90.169 63.136C90.169 63.2387 90.1643 63.3413 90.155 63.444C90.155 63.5467 90.155 63.6633 90.155 63.794H84.625C84.653 64.326 84.7743 64.7693 84.989 65.124C85.213 65.4693 85.4883 65.7307 85.815 65.908C86.151 66.0853 86.5057 66.174 86.879 66.174C87.3643 66.174 87.7703 66.062 88.097 65.838C88.4237 65.614 88.6617 65.3107 88.811 64.928H89.973C89.7863 65.572 89.427 66.1087 88.895 66.538C88.3723 66.958 87.7003 67.168 86.879 67.168ZM86.879 60.882C86.319 60.882 85.8197 61.0547 85.381 61.4C84.9517 61.736 84.7043 62.2307 84.639 62.884H89.007C88.979 62.2587 88.7643 61.7687 88.363 61.414C87.9617 61.0593 87.467 60.882 86.879 60.882ZM98.0928 67.168C97.2621 67.168 96.5715 66.958 96.0208 66.538C95.4701 66.118 95.1481 65.5487 95.0548 64.83H96.2588C96.3335 65.194 96.5248 65.5113 96.8328 65.782C97.1501 66.0433 97.5748 66.174 98.1068 66.174C98.6015 66.174 98.9655 66.0713 99.1988 65.866C99.4321 65.6513 99.5488 65.3993 99.5488 65.11C99.5488 64.69 99.3948 64.41 99.0868 64.27C98.7881 64.13 98.3635 64.004 97.8128 63.892C97.4395 63.8173 97.0661 63.71 96.6928 63.57C96.3195 63.43 96.0068 63.234 95.7548 62.982C95.5028 62.7207 95.3768 62.38 95.3768 61.96C95.3768 61.3533 95.6008 60.8587 96.0488 60.476C96.5061 60.084 97.1221 59.888 97.8968 59.888C98.6341 59.888 99.2361 60.0747 99.7028 60.448C100.179 60.812 100.454 61.3347 100.529 62.016H99.3668C99.3201 61.6613 99.1661 61.386 98.9048 61.19C98.6528 60.9847 98.3121 60.882 97.8828 60.882C97.4628 60.882 97.1361 60.9707 96.9028 61.148C96.6788 61.3253 96.5668 61.5587 96.5668 61.848C96.5668 62.128 96.7115 62.3473 97.0008 62.506C97.2995 62.6647 97.7008 62.8 98.2048 62.912C98.6341 63.0053 99.0401 63.122 99.4228 63.262C99.8148 63.3927 100.132 63.5933 100.375 63.864C100.627 64.1253 100.753 64.508 100.753 65.012C100.762 65.6373 100.524 66.1553 100.039 66.566C99.5628 66.9673 98.9141 67.168 98.0928 67.168ZM104.743 67.168C104.164 67.168 103.683 67.07 103.301 66.874C102.918 66.678 102.633 66.4167 102.447 66.09C102.26 65.7633 102.167 65.4087 102.167 65.026C102.167 64.3167 102.437 63.7707 102.979 63.388C103.52 63.0053 104.257 62.814 105.191 62.814H107.067V62.73C107.067 62.1233 106.908 61.666 106.591 61.358C106.273 61.0407 105.849 60.882 105.317 60.882C104.859 60.882 104.463 60.9987 104.127 61.232C103.8 61.456 103.595 61.7873 103.511 62.226H102.307C102.353 61.722 102.521 61.2973 102.811 60.952C103.109 60.6067 103.478 60.3453 103.917 60.168C104.355 59.9813 104.822 59.888 105.317 59.888C106.287 59.888 107.015 60.1493 107.501 60.672C107.995 61.1853 108.243 61.8713 108.243 62.73V67H107.193L107.123 65.754C106.927 66.146 106.637 66.482 106.255 66.762C105.881 67.0327 105.377 67.168 104.743 67.168ZM104.925 66.174C105.373 66.174 105.755 66.0573 106.073 65.824C106.399 65.5907 106.647 65.2873 106.815 64.914C106.983 64.5407 107.067 64.1487 107.067 63.738V63.724H105.289C104.598 63.724 104.108 63.8453 103.819 64.088C103.539 64.3213 103.399 64.6153 103.399 64.97C103.399 65.334 103.529 65.628 103.791 65.852C104.061 66.0667 104.439 66.174 104.925 66.174ZM110.385 67V61.05H109.335V60.056H110.385V58.852C110.385 58.18 110.553 57.69 110.889 57.382C111.225 57.074 111.715 56.92 112.359 56.92H113.059V57.928H112.541C112.186 57.928 111.934 58.0027 111.785 58.152C111.636 58.292 111.561 58.5347 111.561 58.88V60.056H113.269V61.05H111.561V67H110.385ZM117.518 67.168C116.855 67.168 116.267 67.0187 115.754 66.72C115.24 66.412 114.834 65.9873 114.536 65.446C114.246 64.9047 114.102 64.2653 114.102 63.528C114.102 62.8 114.246 62.1653 114.536 61.624C114.825 61.0733 115.226 60.6487 115.74 60.35C116.262 60.042 116.864 59.888 117.546 59.888C118.218 59.888 118.796 60.042 119.282 60.35C119.776 60.6487 120.154 61.0453 120.416 61.54C120.677 62.0347 120.808 62.5667 120.808 63.136C120.808 63.2387 120.803 63.3413 120.794 63.444C120.794 63.5467 120.794 63.6633 120.794 63.794H115.264C115.292 64.326 115.413 64.7693 115.628 65.124C115.852 65.4693 116.127 65.7307 116.454 65.908C116.79 66.0853 117.144 66.174 117.518 66.174C118.003 66.174 118.409 66.062 118.736 65.838C119.062 65.614 119.3 65.3107 119.45 64.928H120.612C120.425 65.572 120.066 66.1087 119.534 66.538C119.011 66.958 118.339 67.168 117.518 67.168ZM117.518 60.882C116.958 60.882 116.458 61.0547 116.02 61.4C115.59 61.736 115.343 62.2307 115.278 62.884H119.646C119.618 62.2587 119.403 61.7687 119.002 61.414C118.6 61.0593 118.106 60.882 117.518 60.882ZM121.876 68.372V67.826C122.119 67.826 122.287 67.7607 122.38 67.63C122.483 67.5087 122.534 67.322 122.534 67.07V66.734H121.862V65.586H123.094C123.15 65.8287 123.188 66.0573 123.206 66.272C123.234 66.4773 123.248 66.6687 123.248 66.846C123.248 67.378 123.132 67.7653 122.898 68.008C122.665 68.2507 122.324 68.372 121.876 68.372ZM131.628 67.168C130.937 67.168 130.33 67.0093 129.808 66.692C129.294 66.3747 128.893 65.9407 128.604 65.39C128.324 64.8393 128.184 64.214 128.184 63.514C128.184 62.814 128.328 62.1933 128.618 61.652C128.907 61.1013 129.308 60.672 129.822 60.364C130.335 60.0467 130.942 59.888 131.642 59.888C132.211 59.888 132.715 60.0047 133.154 60.238C133.592 60.4713 133.933 60.798 134.176 61.218V56.92H135.352V67H134.288L134.176 65.852C133.952 66.188 133.63 66.4913 133.21 66.762C132.79 67.0327 132.262 67.168 131.628 67.168ZM131.754 66.146C132.22 66.146 132.631 66.0387 132.986 65.824C133.35 65.6 133.63 65.292 133.826 64.9C134.031 64.508 134.134 64.0507 134.134 63.528C134.134 63.0053 134.031 62.548 133.826 62.156C133.63 61.764 133.35 61.4607 132.986 61.246C132.631 61.022 132.22 60.91 131.754 60.91C131.296 60.91 130.886 61.022 130.522 61.246C130.167 61.4607 129.887 61.764 129.682 62.156C129.486 62.548 129.388 63.0053 129.388 63.528C129.388 64.0507 129.486 64.508 129.682 64.9C129.887 65.292 130.167 65.6 130.522 65.824C130.886 66.0387 131.296 66.146 131.754 66.146ZM139.579 67.168C139 67.168 138.519 67.07 138.137 66.874C137.754 66.678 137.469 66.4167 137.283 66.09C137.096 65.7633 137.003 65.4087 137.003 65.026C137.003 64.3167 137.273 63.7707 137.815 63.388C138.356 63.0053 139.093 62.814 140.027 62.814H141.903V62.73C141.903 62.1233 141.744 61.666 141.427 61.358C141.109 61.0407 140.685 60.882 140.153 60.882C139.695 60.882 139.299 60.9987 138.963 61.232C138.636 61.456 138.431 61.7873 138.347 62.226H137.143C137.189 61.722 137.357 61.2973 137.647 60.952C137.945 60.6067 138.314 60.3453 138.753 60.168C139.191 59.9813 139.658 59.888 140.153 59.888C141.123 59.888 141.851 60.1493 142.337 60.672C142.831 61.1853 143.079 61.8713 143.079 62.73V67H142.029L141.959 65.754C141.763 66.146 141.473 66.482 141.091 66.762C140.717 67.0327 140.213 67.168 139.579 67.168ZM139.761 66.174C140.209 66.174 140.591 66.0573 140.909 65.824C141.235 65.5907 141.483 65.2873 141.651 64.914C141.819 64.5407 141.903 64.1487 141.903 63.738V63.724H140.125C139.434 63.724 138.944 63.8453 138.655 64.088C138.375 64.3213 138.235 64.6153 138.235 64.97C138.235 65.334 138.365 65.628 138.627 65.852C138.897 66.0667 139.275 66.174 139.761 66.174ZM144.843 67V60.056H145.907L146.005 61.386C146.22 60.9287 146.546 60.5647 146.985 60.294C147.424 60.0233 147.965 59.888 148.609 59.888V61.12H148.287C147.876 61.12 147.498 61.1947 147.153 61.344C146.808 61.484 146.532 61.7267 146.327 62.072C146.122 62.4173 146.019 62.8933 146.019 63.5V67H144.843ZM149.929 67V56.92H151.105V67H149.929ZM153.746 58.516C153.513 58.516 153.317 58.4413 153.158 58.292C153.009 58.1333 152.934 57.9373 152.934 57.704C152.934 57.48 153.009 57.2933 153.158 57.144C153.317 56.9947 153.513 56.92 153.746 56.92C153.97 56.92 154.162 56.9947 154.32 57.144C154.479 57.2933 154.558 57.48 154.558 57.704C154.558 57.9373 154.479 58.1333 154.32 58.292C154.162 58.4413 153.97 58.516 153.746 58.516ZM153.158 67V60.056H154.334V67H153.158ZM156.382 67V60.056H157.446L157.516 61.302C157.74 60.8633 158.062 60.518 158.482 60.266C158.902 60.014 159.378 59.888 159.91 59.888C160.731 59.888 161.385 60.14 161.87 60.644C162.365 61.1387 162.612 61.904 162.612 62.94V67H161.436V63.066C161.436 61.6193 160.839 60.896 159.644 60.896C159.047 60.896 158.547 61.1153 158.146 61.554C157.754 61.9833 157.558 62.5993 157.558 63.402V67H156.382ZM167.894 70.248C167.287 70.248 166.732 70.1407 166.228 69.926C165.724 69.7207 165.304 69.422 164.968 69.03C164.641 68.638 164.426 68.162 164.324 67.602H165.486C165.635 68.0873 165.92 68.4793 166.34 68.778C166.769 69.0767 167.282 69.226 167.88 69.226C168.561 69.226 169.135 69.0067 169.602 68.568C170.068 68.1293 170.302 67.476 170.302 66.608V65.6C170.078 65.992 169.742 66.3467 169.294 66.664C168.846 66.9813 168.281 67.14 167.6 67.14C166.946 67.14 166.354 66.9813 165.822 66.664C165.299 66.3467 164.879 65.9127 164.562 65.362C164.254 64.8113 164.1 64.1907 164.1 63.5C164.1 62.8093 164.254 62.1933 164.562 61.652C164.879 61.1013 165.304 60.672 165.836 60.364C166.368 60.0467 166.96 59.888 167.614 59.888C168.23 59.888 168.771 60.028 169.238 60.308C169.704 60.5787 170.059 60.91 170.302 61.302L170.414 60.056H171.478V66.594C171.478 67.35 171.324 67.9987 171.016 68.54C170.708 69.0907 170.283 69.5107 169.742 69.8C169.2 70.0987 168.584 70.248 167.894 70.248ZM167.782 66.118C168.258 66.118 168.678 66.006 169.042 65.782C169.415 65.558 169.709 65.25 169.924 64.858C170.148 64.466 170.26 64.0133 170.26 63.5C170.26 62.9867 170.148 62.534 169.924 62.142C169.709 61.75 169.415 61.4467 169.042 61.232C168.678 61.0173 168.258 60.91 167.782 60.91C167.315 60.91 166.895 61.0173 166.522 61.232C166.148 61.4467 165.85 61.75 165.626 62.142C165.411 62.534 165.304 62.9867 165.304 63.5C165.304 64.0133 165.411 64.466 165.626 64.858C165.85 65.25 166.148 65.558 166.522 65.782C166.895 66.006 167.315 66.118 167.782 66.118ZM172.914 68.372V67.826C173.156 67.826 173.324 67.7607 173.418 67.63C173.52 67.5087 173.572 67.322 173.572 67.07V66.734H172.899V65.586H174.132C174.188 65.8287 174.225 66.0573 174.244 66.272C174.272 66.4773 174.285 66.6687 174.285 66.846C174.285 67.378 174.169 67.7653 173.936 68.008C173.702 68.2507 173.362 68.372 172.914 68.372ZM181.825 67.168C181.246 67.168 180.765 67.07 180.383 66.874C180 66.678 179.715 66.4167 179.529 66.09C179.342 65.7633 179.249 65.4087 179.249 65.026C179.249 64.3167 179.519 63.7707 180.061 63.388C180.602 63.0053 181.339 62.814 182.273 62.814H184.149V62.73C184.149 62.1233 183.99 61.666 183.673 61.358C183.355 61.0407 182.931 60.882 182.399 60.882C181.941 60.882 181.545 60.9987 181.209 61.232C180.882 61.456 180.677 61.7873 180.593 62.226H179.389C179.435 61.722 179.603 61.2973 179.893 60.952C180.191 60.6067 180.56 60.3453 180.999 60.168C181.437 59.9813 181.904 59.888 182.399 59.888C183.369 59.888 184.097 60.1493 184.583 60.672C185.077 61.1853 185.325 61.8713 185.325 62.73V67H184.275L184.205 65.754C184.009 66.146 183.719 66.482 183.337 66.762C182.963 67.0327 182.459 67.168 181.825 67.168ZM182.007 66.174C182.455 66.174 182.837 66.0573 183.155 65.824C183.481 65.5907 183.729 65.2873 183.897 64.914C184.065 64.5407 184.149 64.1487 184.149 63.738V63.724H182.371C181.68 63.724 181.19 63.8453 180.901 64.088C180.621 64.3213 180.481 64.6153 180.481 64.97C180.481 65.334 180.611 65.628 180.873 65.852C181.143 66.0667 181.521 66.174 182.007 66.174ZM187.089 67V56.92H188.265V67H187.089ZM192.937 67C192.302 67 191.803 66.846 191.439 66.538C191.075 66.23 190.893 65.6747 190.893 64.872V61.05H189.689V60.056H190.893L191.047 58.39H192.069V60.056H194.113V61.05H192.069V64.872C192.069 65.3107 192.157 65.6093 192.335 65.768C192.512 65.9173 192.825 65.992 193.273 65.992H194.001V67H192.937ZM195.607 67V56.92H196.783V61.246C197.016 60.8167 197.347 60.4853 197.777 60.252C198.206 60.0093 198.673 59.888 199.177 59.888C199.979 59.888 200.623 60.14 201.109 60.644C201.594 61.1387 201.837 61.904 201.837 62.94V67H200.675V63.066C200.675 61.6193 200.091 60.896 198.925 60.896C198.318 60.896 197.809 61.1153 197.399 61.554C196.988 61.9833 196.783 62.5993 196.783 63.402V67H195.607ZM206.782 67.168C206.129 67.168 205.541 67.0187 205.018 66.72C204.496 66.4213 204.08 66.0013 203.772 65.46C203.474 64.9093 203.324 64.2653 203.324 63.528C203.324 62.7907 203.478 62.1513 203.786 61.61C204.094 61.0593 204.51 60.6347 205.032 60.336C205.564 60.0373 206.157 59.888 206.81 59.888C207.464 59.888 208.052 60.0373 208.574 60.336C209.097 60.6347 209.508 61.0593 209.806 61.61C210.114 62.1513 210.268 62.7907 210.268 63.528C210.268 64.2653 210.114 64.9093 209.806 65.46C209.498 66.0013 209.078 66.4213 208.546 66.72C208.024 67.0187 207.436 67.168 206.782 67.168ZM206.782 66.16C207.184 66.16 207.557 66.062 207.902 65.866C208.248 65.67 208.528 65.376 208.742 64.984C208.957 64.592 209.064 64.1067 209.064 63.528C209.064 62.9493 208.957 62.464 208.742 62.072C208.537 61.68 208.262 61.386 207.916 61.19C207.571 60.994 207.202 60.896 206.81 60.896C206.409 60.896 206.036 60.994 205.69 61.19C205.345 61.386 205.065 61.68 204.85 62.072C204.636 62.464 204.528 62.9493 204.528 63.528C204.528 64.1067 204.636 64.592 204.85 64.984C205.065 65.376 205.34 65.67 205.676 65.866C206.022 66.062 206.39 66.16 206.782 66.16ZM214.438 67.168C213.616 67.168 212.963 66.9207 212.478 66.426C211.992 65.922 211.75 65.152 211.75 64.116V60.056H212.926V63.99C212.926 65.4367 213.518 66.16 214.704 66.16C215.31 66.16 215.81 65.9453 216.202 65.516C216.603 65.0773 216.804 64.4567 216.804 63.654V60.056H217.98V67H216.916L216.832 65.754C216.617 66.1927 216.295 66.538 215.866 66.79C215.446 67.042 214.97 67.168 214.438 67.168ZM223.415 70.248C222.809 70.248 222.253 70.1407 221.749 69.926C221.245 69.7207 220.825 69.422 220.489 69.03C220.163 68.638 219.948 68.162 219.845 67.602H221.007C221.157 68.0873 221.441 68.4793 221.861 68.778C222.291 69.0767 222.804 69.226 223.401 69.226C224.083 69.226 224.657 69.0067 225.123 68.568C225.59 68.1293 225.823 67.476 225.823 66.608V65.6C225.599 65.992 225.263 66.3467 224.815 66.664C224.367 66.9813 223.803 67.14 223.121 67.14C222.468 67.14 221.875 66.9813 221.343 66.664C220.821 66.3467 220.401 65.9127 220.083 65.362C219.775 64.8113 219.621 64.1907 219.621 63.5C219.621 62.8093 219.775 62.1933 220.083 61.652C220.401 61.1013 220.825 60.672 221.357 60.364C221.889 60.0467 222.482 59.888 223.135 59.888C223.751 59.888 224.293 60.028 224.759 60.308C225.226 60.5787 225.581 60.91 225.823 61.302L225.935 60.056H226.999V66.594C226.999 67.35 226.845 67.9987 226.537 68.54C226.229 69.0907 225.805 69.5107 225.263 69.8C224.722 70.0987 224.106 70.248 223.415 70.248ZM223.303 66.118C223.779 66.118 224.199 66.006 224.563 65.782C224.937 65.558 225.231 65.25 225.445 64.858C225.669 64.466 225.781 64.0133 225.781 63.5C225.781 62.9867 225.669 62.534 225.445 62.142C225.231 61.75 224.937 61.4467 224.563 61.232C224.199 61.0173 223.779 60.91 223.303 60.91C222.837 60.91 222.417 61.0173 222.043 61.232C221.67 61.4467 221.371 61.75 221.147 62.142C220.933 62.534 220.825 62.9867 220.825 63.5C220.825 64.0133 220.933 64.466 221.147 64.858C221.371 65.25 221.67 65.558 222.043 65.782C222.417 66.006 222.837 66.118 223.303 66.118ZM228.925 67V56.92H230.101V61.246C230.334 60.8167 230.666 60.4853 231.095 60.252C231.524 60.0093 231.991 59.888 232.495 59.888C233.298 59.888 233.942 60.14 234.427 60.644C234.912 61.1387 235.155 61.904 235.155 62.94V67H233.993V63.066C233.993 61.6193 233.41 60.896 232.243 60.896C231.636 60.896 231.128 61.1153 230.717 61.554C230.306 61.9833 230.101 62.5993 230.101 63.402V67H228.925ZM240.712 67V57.2H241.888V67H240.712ZM243.63 59.188L243.448 56.43H244.61L244.442 59.188H243.63ZM246.097 67V60.056H247.161L247.245 61.064C247.469 60.6907 247.768 60.4013 248.141 60.196C248.514 59.9907 248.934 59.888 249.401 59.888C249.952 59.888 250.423 60 250.815 60.224C251.216 60.448 251.524 60.7887 251.739 61.246C251.982 60.826 252.313 60.4947 252.733 60.252C253.162 60.0093 253.624 59.888 254.119 59.888C254.95 59.888 255.612 60.14 256.107 60.644C256.602 61.1387 256.849 61.904 256.849 62.94V67H255.687V63.066C255.687 62.3473 255.542 61.806 255.253 61.442C254.964 61.078 254.548 60.896 254.007 60.896C253.447 60.896 252.98 61.1153 252.607 61.554C252.243 61.9833 252.061 62.5993 252.061 63.402V67H250.885V63.066C250.885 62.3473 250.74 61.806 250.451 61.442C250.162 61.078 249.746 60.896 249.205 60.896C248.654 60.896 248.192 61.1153 247.819 61.554C247.455 61.9833 247.273 62.5993 247.273 63.402V67H246.097ZM264.985 67.168C264.155 67.168 263.464 66.958 262.913 66.538C262.363 66.118 262.041 65.5487 261.947 64.83H263.151C263.226 65.194 263.417 65.5113 263.725 65.782C264.043 66.0433 264.467 66.174 264.999 66.174C265.494 66.174 265.858 66.0713 266.091 65.866C266.325 65.6513 266.441 65.3993 266.441 65.11C266.441 64.69 266.287 64.41 265.979 64.27C265.681 64.13 265.256 64.004 264.705 63.892C264.332 63.8173 263.959 63.71 263.585 63.57C263.212 63.43 262.899 63.234 262.647 62.982C262.395 62.7207 262.269 62.38 262.269 61.96C262.269 61.3533 262.493 60.8587 262.941 60.476C263.399 60.084 264.015 59.888 264.789 59.888C265.527 59.888 266.129 60.0747 266.595 60.448C267.071 60.812 267.347 61.3347 267.421 62.016H266.259C266.213 61.6613 266.059 61.386 265.797 61.19C265.545 60.9847 265.205 60.882 264.775 60.882C264.355 60.882 264.029 60.9707 263.795 61.148C263.571 61.3253 263.459 61.5587 263.459 61.848C263.459 62.128 263.604 62.3473 263.893 62.506C264.192 62.6647 264.593 62.8 265.097 62.912C265.527 63.0053 265.933 63.122 266.315 63.262C266.707 63.3927 267.025 63.5933 267.267 63.864C267.519 64.1253 267.645 64.508 267.645 65.012C267.655 65.6373 267.417 66.1553 266.931 66.566C266.455 66.9673 265.807 67.168 264.985 67.168ZM271.859 67.168C271.038 67.168 270.385 66.9207 269.899 66.426C269.414 65.922 269.171 65.152 269.171 64.116V60.056H270.347V63.99C270.347 65.4367 270.94 66.16 272.125 66.16C272.732 66.16 273.231 65.9453 273.623 65.516C274.025 65.0773 274.225 64.4567 274.225 63.654V60.056H275.401V67H274.337L274.253 65.754C274.039 66.1927 273.717 66.538 273.287 66.79C272.867 67.042 272.391 67.168 271.859 67.168ZM277.337 67V60.056H278.401L278.499 61.386C278.714 60.9287 279.04 60.5647 279.479 60.294C279.918 60.0233 280.459 59.888 281.103 59.888V61.12H280.781C280.37 61.12 279.992 61.1947 279.647 61.344C279.302 61.484 279.026 61.7267 278.821 62.072C278.616 62.4173 278.513 62.8933 278.513 63.5V67H277.337ZM285.285 67.168C284.623 67.168 284.035 67.0187 283.521 66.72C283.008 66.412 282.602 65.9873 282.303 65.446C282.014 64.9047 281.869 64.2653 281.869 63.528C281.869 62.8 282.014 62.1653 282.303 61.624C282.593 61.0733 282.994 60.6487 283.507 60.35C284.03 60.042 284.632 59.888 285.313 59.888C285.985 59.888 286.564 60.042 287.049 60.35C287.544 60.6487 287.922 61.0453 288.183 61.54C288.445 62.0347 288.575 62.5667 288.575 63.136C288.575 63.2387 288.571 63.3413 288.561 63.444C288.561 63.5467 288.561 63.6633 288.561 63.794H283.031C283.059 64.326 283.181 64.7693 283.395 65.124C283.619 65.4693 283.895 65.7307 284.221 65.908C284.557 66.0853 284.912 66.174 285.285 66.174C285.771 66.174 286.177 66.062 286.503 65.838C286.83 65.614 287.068 65.3107 287.217 64.928H288.379C288.193 65.572 287.833 66.1087 287.301 66.538C286.779 66.958 286.107 67.168 285.285 67.168ZM285.285 60.882C284.725 60.882 284.226 61.0547 283.787 61.4C283.358 61.736 283.111 62.2307 283.045 62.884H287.413C287.385 62.2587 287.171 61.7687 286.769 61.414C286.368 61.0593 285.873 60.882 285.285 60.882ZM296.583 67C295.948 67 295.449 66.846 295.085 66.538C294.721 66.23 294.539 65.6747 294.539 64.872V61.05H293.335V60.056H294.539L294.693 58.39H295.715V60.056H297.759V61.05H295.715V64.872C295.715 65.3107 295.804 65.6093 295.981 65.768C296.158 65.9173 296.471 65.992 296.919 65.992H297.647V67H296.583ZM299.253 67V56.92H300.429V61.246C300.662 60.8167 300.994 60.4853 301.423 60.252C301.852 60.0093 302.319 59.888 302.823 59.888C303.626 59.888 304.27 60.14 304.755 60.644C305.24 61.1387 305.483 61.904 305.483 62.94V67H304.321V63.066C304.321 61.6193 303.738 60.896 302.571 60.896C301.964 60.896 301.456 61.1153 301.045 61.554C300.634 61.9833 300.429 62.5993 300.429 63.402V67H299.253ZM307.979 58.516C307.745 58.516 307.549 58.4413 307.391 58.292C307.241 58.1333 307.167 57.9373 307.167 57.704C307.167 57.48 307.241 57.2933 307.391 57.144C307.549 56.9947 307.745 56.92 307.979 56.92C308.203 56.92 308.394 56.9947 308.553 57.144C308.711 57.2933 308.791 57.48 308.791 57.704C308.791 57.9373 308.711 58.1333 308.553 58.292C308.394 58.4413 308.203 58.516 307.979 58.516ZM307.391 67V60.056H308.567V67H307.391ZM313.274 67.168C312.444 67.168 311.753 66.958 311.202 66.538C310.652 66.118 310.33 65.5487 310.236 64.83H311.44C311.515 65.194 311.706 65.5113 312.014 65.782C312.332 66.0433 312.756 66.174 313.288 66.174C313.783 66.174 314.147 66.0713 314.38 65.866C314.614 65.6513 314.73 65.3993 314.73 65.11C314.73 64.69 314.576 64.41 314.268 64.27C313.97 64.13 313.545 64.004 312.994 63.892C312.621 63.8173 312.248 63.71 311.874 63.57C311.501 63.43 311.188 63.234 310.936 62.982C310.684 62.7207 310.558 62.38 310.558 61.96C310.558 61.3533 310.782 60.8587 311.23 60.476C311.688 60.084 312.304 59.888 313.078 59.888C313.816 59.888 314.418 60.0747 314.884 60.448C315.36 60.812 315.636 61.3347 315.71 62.016H314.548C314.502 61.6613 314.348 61.386 314.086 61.19C313.834 60.9847 313.494 60.882 313.064 60.882C312.644 60.882 312.318 60.9707 312.084 61.148C311.86 61.3253 311.748 61.5587 311.748 61.848C311.748 62.128 311.893 62.3473 312.182 62.506C312.481 62.6647 312.882 62.8 313.386 62.912C313.816 63.0053 314.222 63.122 314.604 63.262C314.996 63.3927 315.314 63.5933 315.556 63.864C315.808 64.1253 315.934 64.508 315.934 65.012C315.944 65.6373 315.706 66.1553 315.22 66.566C314.744 66.9673 314.096 67.168 313.274 67.168ZM322.034 58.516C321.8 58.516 321.604 58.4413 321.446 58.292C321.296 58.1333 321.222 57.9373 321.222 57.704C321.222 57.48 321.296 57.2933 321.446 57.144C321.604 56.9947 321.8 56.92 322.034 56.92C322.258 56.92 322.449 56.9947 322.608 57.144C322.766 57.2933 322.846 57.48 322.846 57.704C322.846 57.9373 322.766 58.1333 322.608 58.292C322.449 58.4413 322.258 58.516 322.034 58.516ZM321.446 67V60.056H322.622V67H321.446ZM327.329 67.168C326.498 67.168 325.808 66.958 325.257 66.538C324.706 66.118 324.384 65.5487 324.291 64.83H325.495C325.57 65.194 325.761 65.5113 326.069 65.782C326.386 66.0433 326.811 66.174 327.343 66.174C327.838 66.174 328.202 66.0713 328.435 65.866C328.668 65.6513 328.785 65.3993 328.785 65.11C328.785 64.69 328.631 64.41 328.323 64.27C328.024 64.13 327.6 64.004 327.049 63.892C326.676 63.8173 326.302 63.71 325.929 63.57C325.556 63.43 325.243 63.234 324.991 62.982C324.739 62.7207 324.613 62.38 324.613 61.96C324.613 61.3533 324.837 60.8587 325.285 60.476C325.742 60.084 326.358 59.888 327.133 59.888C327.87 59.888 328.472 60.0747 328.939 60.448C329.415 60.812 329.69 61.3347 329.765 62.016H328.603C328.556 61.6613 328.402 61.386 328.141 61.19C327.889 60.9847 327.548 60.882 327.119 60.882C326.699 60.882 326.372 60.9707 326.139 61.148C325.915 61.3253 325.803 61.5587 325.803 61.848C325.803 62.128 325.948 62.3473 326.237 62.506C326.536 62.6647 326.937 62.8 327.441 62.912C327.87 63.0053 328.276 63.122 328.659 63.262C329.051 63.3927 329.368 63.5933 329.611 63.864C329.863 64.1253 329.989 64.508 329.989 65.012C329.998 65.6373 329.76 66.1553 329.275 66.566C328.799 66.9673 328.15 67.168 327.329 67.168ZM335.374 67V60.056H336.438L336.508 61.302C336.732 60.8633 337.054 60.518 337.474 60.266C337.894 60.014 338.37 59.888 338.902 59.888C339.724 59.888 340.377 60.14 340.862 60.644C341.357 61.1387 341.604 61.904 341.604 62.94V67H340.428V63.066C340.428 61.6193 339.831 60.896 338.636 60.896C338.039 60.896 337.54 61.1153 337.138 61.554C336.746 61.9833 336.55 62.5993 336.55 63.402V67H335.374ZM346.55 67.168C345.897 67.168 345.309 67.0187 344.786 66.72C344.263 66.4213 343.848 66.0013 343.54 65.46C343.241 64.9093 343.092 64.2653 343.092 63.528C343.092 62.7907 343.246 62.1513 343.554 61.61C343.862 61.0593 344.277 60.6347 344.8 60.336C345.332 60.0373 345.925 59.888 346.578 59.888C347.231 59.888 347.819 60.0373 348.342 60.336C348.865 60.6347 349.275 61.0593 349.574 61.61C349.882 62.1513 350.036 62.7907 350.036 63.528C350.036 64.2653 349.882 64.9093 349.574 65.46C349.266 66.0013 348.846 66.4213 348.314 66.72C347.791 67.0187 347.203 67.168 346.55 67.168ZM346.55 66.16C346.951 66.16 347.325 66.062 347.67 65.866C348.015 65.67 348.295 65.376 348.51 64.984C348.725 64.592 348.832 64.1067 348.832 63.528C348.832 62.9493 348.725 62.464 348.51 62.072C348.305 61.68 348.029 61.386 347.684 61.19C347.339 60.994 346.97 60.896 346.578 60.896C346.177 60.896 345.803 60.994 345.458 61.19C345.113 61.386 344.833 61.68 344.618 62.072C344.403 62.464 344.296 62.9493 344.296 63.528C344.296 64.1067 344.403 64.592 344.618 64.984C344.833 65.376 345.108 65.67 345.444 65.866C345.789 66.062 346.158 66.16 346.55 66.16ZM354.142 67C353.507 67 353.008 66.846 352.644 66.538C352.28 66.23 352.098 65.6747 352.098 64.872V61.05H350.894V60.056H352.098L352.252 58.39H353.274V60.056H355.318V61.05H353.274V64.872C353.274 65.3107 353.362 65.6093 353.54 65.768C353.717 65.9173 354.03 65.992 354.478 65.992H355.206V67H354.142ZM362.827 67.168C362.248 67.168 361.767 67.07 361.385 66.874C361.002 66.678 360.717 66.4167 360.531 66.09C360.344 65.7633 360.251 65.4087 360.251 65.026C360.251 64.3167 360.521 63.7707 361.063 63.388C361.604 63.0053 362.341 62.814 363.275 62.814H365.151V62.73C365.151 62.1233 364.992 61.666 364.675 61.358C364.357 61.0407 363.933 60.882 363.401 60.882C362.943 60.882 362.547 60.9987 362.211 61.232C361.884 61.456 361.679 61.7873 361.595 62.226H360.391C360.437 61.722 360.605 61.2973 360.895 60.952C361.193 60.6067 361.562 60.3453 362.001 60.168C362.439 59.9813 362.906 59.888 363.401 59.888C364.371 59.888 365.099 60.1493 365.585 60.672C366.079 61.1853 366.327 61.8713 366.327 62.73V67H365.277L365.207 65.754C365.011 66.146 364.721 66.482 364.339 66.762C363.965 67.0327 363.461 67.168 362.827 67.168ZM363.009 66.174C363.457 66.174 363.839 66.0573 364.157 65.824C364.483 65.5907 364.731 65.2873 364.899 64.914C365.067 64.5407 365.151 64.1487 365.151 63.738V63.724H363.373C362.682 63.724 362.192 63.8453 361.903 64.088C361.623 64.3213 361.483 64.6153 361.483 64.97C361.483 65.334 361.613 65.628 361.875 65.852C362.145 66.0667 362.523 66.174 363.009 66.174ZM368.091 67V60.056H369.155L369.225 61.302C369.449 60.8633 369.771 60.518 370.191 60.266C370.611 60.014 371.087 59.888 371.619 59.888C372.44 59.888 373.094 60.14 373.579 60.644C374.074 61.1387 374.321 61.904 374.321 62.94V67H373.145V63.066C373.145 61.6193 372.548 60.896 371.353 60.896C370.756 60.896 370.256 61.1153 369.855 61.554C369.463 61.9833 369.267 62.5993 369.267 63.402V67H368.091ZM75.68 78.516C75.4467 78.516 75.2507 78.4413 75.092 78.292C74.9427 78.1333 74.868 77.9373 74.868 77.704C74.868 77.48 74.9427 77.2933 75.092 77.144C75.2507 76.9947 75.4467 76.92 75.68 76.92C75.904 76.92 76.0953 76.9947 76.254 77.144C76.4127 77.2933 76.492 77.48 76.492 77.704C76.492 77.9373 76.4127 78.1333 76.254 78.292C76.0953 78.4413 75.904 78.516 75.68 78.516ZM75.092 87V80.056H76.268V87H75.092ZM78.3156 87V80.056H79.3796L79.4636 81.064C79.6876 80.6907 79.9863 80.4013 80.3596 80.196C80.7329 79.9907 81.1529 79.888 81.6196 79.888C82.1703 79.888 82.6416 80 83.0336 80.224C83.4349 80.448 83.7429 80.7887 83.9576 81.246C84.2003 80.826 84.5316 80.4947 84.9516 80.252C85.3809 80.0093 85.8429 79.888 86.3376 79.888C87.1683 79.888 87.8309 80.14 88.3256 80.644C88.8203 81.1387 89.0676 81.904 89.0676 82.94V87H87.9056V83.066C87.9056 82.3473 87.7609 81.806 87.4716 81.442C87.1823 81.078 86.7669 80.896 86.2256 80.896C85.6656 80.896 85.1989 81.1153 84.8256 81.554C84.4616 81.9833 84.2796 82.5993 84.2796 83.402V87H83.1036V83.066C83.1036 82.3473 82.9589 81.806 82.6696 81.442C82.3803 81.078 81.9649 80.896 81.4236 80.896C80.8729 80.896 80.4109 81.1153 80.0376 81.554C79.6736 81.9833 79.4916 82.5993 79.4916 83.402V87H78.3156ZM90.839 90.08V80.056H91.903L92.015 81.204C92.239 80.868 92.5564 80.5647 92.967 80.294C93.387 80.0233 93.919 79.888 94.563 79.888C95.2537 79.888 95.8557 80.0467 96.369 80.364C96.8824 80.6813 97.279 81.1153 97.559 81.666C97.8484 82.2167 97.993 82.842 97.993 83.542C97.993 84.242 97.8484 84.8673 97.559 85.418C97.279 85.9593 96.8777 86.3887 96.355 86.706C95.8417 87.014 95.2397 87.168 94.549 87.168C93.9797 87.168 93.471 87.0513 93.023 86.818C92.5844 86.5847 92.2484 86.258 92.015 85.838V90.08H90.839ZM94.423 86.146C94.8897 86.146 95.3004 86.0387 95.655 85.824C96.0097 85.6 96.2897 85.292 96.495 84.9C96.7004 84.508 96.803 84.0507 96.803 83.528C96.803 83.0053 96.7004 82.548 96.495 82.156C96.2897 81.764 96.0097 81.4607 95.655 81.246C95.3004 81.022 94.8897 80.91 94.423 80.91C93.9564 80.91 93.5457 81.022 93.191 81.246C92.8364 81.4607 92.5564 81.764 92.351 82.156C92.1457 82.548 92.043 83.0053 92.043 83.528C92.043 84.0507 92.1457 84.508 92.351 84.9C92.5564 85.292 92.8364 85.6 93.191 85.824C93.5457 86.0387 93.9564 86.146 94.423 86.146ZM102.164 87.168C101.343 87.168 100.689 86.9207 100.204 86.426C99.7187 85.922 99.4761 85.152 99.4761 84.116V80.056H100.652V83.99C100.652 85.4367 101.245 86.16 102.43 86.16C103.037 86.16 103.536 85.9453 103.928 85.516C104.329 85.0773 104.53 84.4567 104.53 83.654V80.056H105.706V87H104.642L104.558 85.754C104.343 86.1927 104.021 86.538 103.592 86.79C103.172 87.042 102.696 87.168 102.164 87.168ZM107.642 87V76.92H108.818V87H107.642ZM113.405 87.168C112.575 87.168 111.884 86.958 111.333 86.538C110.783 86.118 110.461 85.5487 110.367 84.83H111.571C111.646 85.194 111.837 85.5113 112.145 85.782C112.463 86.0433 112.887 86.174 113.419 86.174C113.914 86.174 114.278 86.0713 114.511 85.866C114.745 85.6513 114.861 85.3993 114.861 85.11C114.861 84.69 114.707 84.41 114.399 84.27C114.101 84.13 113.676 84.004 113.125 83.892C112.752 83.8173 112.379 83.71 112.005 83.57C111.632 83.43 111.319 83.234 111.067 82.982C110.815 82.7207 110.689 82.38 110.689 81.96C110.689 81.3533 110.913 80.8587 111.361 80.476C111.819 80.084 112.435 79.888 113.209 79.888C113.947 79.888 114.549 80.0747 115.015 80.448C115.491 80.812 115.767 81.3347 115.841 82.016H114.679C114.633 81.6613 114.479 81.386 114.217 81.19C113.965 80.9847 113.625 80.882 113.195 80.882C112.775 80.882 112.449 80.9707 112.215 81.148C111.991 81.3253 111.879 81.5587 111.879 81.848C111.879 82.128 112.024 82.3473 112.313 82.506C112.612 82.6647 113.013 82.8 113.517 82.912C113.947 83.0053 114.353 83.122 114.735 83.262C115.127 83.3927 115.445 83.5933 115.687 83.864C115.939 84.1253 116.065 84.508 116.065 85.012C116.075 85.6373 115.837 86.1553 115.351 86.566C114.875 86.9673 114.227 87.168 113.405 87.168ZM120.867 87.168C120.205 87.168 119.617 87.0187 119.103 86.72C118.59 86.412 118.184 85.9873 117.885 85.446C117.596 84.9047 117.451 84.2653 117.451 83.528C117.451 82.8 117.596 82.1653 117.885 81.624C118.175 81.0733 118.576 80.6487 119.089 80.35C119.612 80.042 120.214 79.888 120.895 79.888C121.567 79.888 122.146 80.042 122.631 80.35C123.126 80.6487 123.504 81.0453 123.765 81.54C124.027 82.0347 124.157 82.5667 124.157 83.136C124.157 83.2387 124.153 83.3413 124.143 83.444C124.143 83.5467 124.143 83.6633 124.143 83.794H118.613C118.641 84.326 118.763 84.7693 118.977 85.124C119.201 85.4693 119.477 85.7307 119.803 85.908C120.139 86.0853 120.494 86.174 120.867 86.174C121.353 86.174 121.759 86.062 122.085 85.838C122.412 85.614 122.65 85.3107 122.799 84.928H123.961C123.775 85.572 123.415 86.1087 122.883 86.538C122.361 86.958 121.689 87.168 120.867 87.168ZM120.867 80.882C120.307 80.882 119.808 81.0547 119.369 81.4C118.94 81.736 118.693 82.2307 118.627 82.884H122.995C122.967 82.2587 122.753 81.7687 122.351 81.414C121.95 81.0593 121.455 80.882 120.867 80.882ZM133.131 87.168C132.562 87.168 132.053 87.0513 131.605 86.818C131.166 86.5847 130.83 86.258 130.597 85.838L130.485 87H129.421V76.92H130.597V81.204C130.821 80.868 131.138 80.5647 131.549 80.294C131.969 80.0233 132.501 79.888 133.145 79.888C133.836 79.888 134.438 80.0467 134.951 80.364C135.464 80.6813 135.861 81.1153 136.141 81.666C136.43 82.2167 136.575 82.842 136.575 83.542C136.575 84.242 136.43 84.8673 136.141 85.418C135.861 85.9593 135.46 86.3887 134.937 86.706C134.424 87.014 133.822 87.168 133.131 87.168ZM133.005 86.146C133.472 86.146 133.882 86.0387 134.237 85.824C134.592 85.6 134.872 85.292 135.077 84.9C135.282 84.508 135.385 84.0507 135.385 83.528C135.385 83.0053 135.282 82.548 135.077 82.156C134.872 81.764 134.592 81.4607 134.237 81.246C133.882 81.022 133.472 80.91 133.005 80.91C132.538 80.91 132.128 81.022 131.773 81.246C131.418 81.4607 131.138 81.764 130.933 82.156C130.728 82.548 130.625 83.0053 130.625 83.528C130.625 84.0507 130.728 84.508 130.933 84.9C131.138 85.292 131.418 85.6 131.773 85.824C132.128 86.0387 132.538 86.146 133.005 86.146ZM140.746 87.168C139.925 87.168 139.271 86.9207 138.786 86.426C138.301 85.922 138.058 85.152 138.058 84.116V80.056H139.234V83.99C139.234 85.4367 139.827 86.16 141.012 86.16C141.619 86.16 142.118 85.9453 142.51 85.516C142.911 85.0773 143.112 84.4567 143.112 83.654V80.056H144.288V87H143.224L143.14 85.754C142.925 86.1927 142.603 86.538 142.174 86.79C141.754 87.042 141.278 87.168 140.746 87.168ZM146.98 90.08L148.702 86.328H148.296L145.538 80.056H146.812L149.108 85.46L151.544 80.056H152.762L148.212 90.08H146.98ZM153.411 87.07C153.178 87.07 152.982 86.9953 152.823 86.846C152.674 86.6873 152.599 86.496 152.599 86.272C152.599 86.048 152.674 85.8613 152.823 85.712C152.982 85.5533 153.178 85.474 153.411 85.474C153.635 85.474 153.822 85.5533 153.971 85.712C154.13 85.8613 154.209 86.048 154.209 86.272C154.209 86.496 154.13 86.6873 153.971 86.846C153.822 86.9953 153.635 87.07 153.411 87.07ZM156.145 87.07C155.912 87.07 155.716 86.9953 155.557 86.846C155.408 86.6873 155.333 86.496 155.333 86.272C155.333 86.048 155.408 85.8613 155.557 85.712C155.716 85.5533 155.912 85.474 156.145 85.474C156.369 85.474 156.556 85.5533 156.705 85.712C156.864 85.8613 156.943 86.048 156.943 86.272C156.943 86.496 156.864 86.6873 156.705 86.846C156.556 86.9953 156.369 87.07 156.145 87.07ZM158.88 87.07C158.646 87.07 158.45 86.9953 158.292 86.846C158.142 86.6873 158.068 86.496 158.068 86.272C158.068 86.048 158.142 85.8613 158.292 85.712C158.45 85.5533 158.646 85.474 158.88 85.474C159.104 85.474 159.29 85.5533 159.44 85.712C159.598 85.8613 159.678 86.048 159.678 86.272C159.678 86.496 159.598 86.6873 159.44 86.846C159.29 86.9953 159.104 87.07 158.88 87.07Z" fill="white"/>
<rect y="104" width="40" height="40" rx="8" fill="#5BB398" fill-opacity="0.1"/>
<defs>
<linearGradient id="paint0_linear_52_72382" x1="62" y1="104" x2="434.479" y2="34.9528" gradientUnits="userSpaceOnUse">
<stop offset="0.043503" stop-color="white" stop-opacity="0"/>
<stop offset="1" stop-color="white"/>
</linearGradient>
</defs>
</svg>
