<?xml version="1.0" encoding="UTF-8"?>
<svg id="Layer_1" data-name="Layer 1" xmlns="http://www.w3.org/2000/svg" viewBox="0 0 500 500">
  <defs>
    <style>
      .cls-1 {
        fill: #3e4de5;
      }

      .cls-1, .cls-2, .cls-3, .cls-4, .cls-5, .cls-6, .cls-7, .cls-8, .cls-9, .cls-10, .cls-11, .cls-12, .cls-13, .cls-14, .cls-15, .cls-16, .cls-17, .cls-18, .cls-19 {
        stroke-width: 0px;
      }

      .cls-1, .cls-5, .cls-20 {
        opacity: .3;
      }

      .cls-2 {
        fill: #b5bc6c;
      }

      .cls-3 {
        fill: #322033;
      }

      .cls-4 {
        fill: #f2f2f2;
        opacity: .9;
      }

      .cls-5 {
        fill: #b4bc69;
      }

      .cls-6, .cls-21 {
        fill: #8e9147;
      }

      .cls-22 {
        fill: none;
        stroke: #593756;
        stroke-linecap: round;
        stroke-linejoin: round;
        stroke-width: 1.5px;
      }

      .cls-22, .cls-16 {
        opacity: .1;
      }

      .cls-7 {
        fill: #ecd7ff;
      }

      .cls-8 {
        fill: #604416;
      }

      .cls-9 {
        fill: #aa6da2;
      }

      .cls-10 {
        fill: #000;
      }

      .cls-11 {
        fill: #6b4069;
      }

      .cls-21 {
        stroke: #8e9147;
        stroke-miterlimit: 10;
        stroke-width: .3px;
      }

      .cls-12 {
        fill: #e2cdf7;
      }

      .cls-13 {
        fill: #a0a852;
      }

      .cls-14 {
        fill: #afb765;
      }

      .cls-15 {
        fill: #fec71f;
      }

      .cls-23 {
        opacity: .4;
      }

      .cls-16 {
        fill: #d392b4;
      }

      .cls-17 {
        fill: #82683f;
      }

      .cls-18 {
        fill: #fff;
      }

      .cls-19 {
        fill: #a86da3;
      }
    </style>
  </defs>
  <ellipse class="cls-1" cx="242.47" cy="249.09" rx="163.86" ry="121.61" transform="translate(-105.1 254.87) rotate(-46.73)"/>
  <path class="cls-10" d="M298.38,267.91c12.86,1.05,25.72,2.6,38.43,4.77,8.14,1.39,16.56,2.85,24.29,5.86,2.24.87,4.31,1.84,5.78,3.4.01.01,0,.01-.06.09.31-.33-.67.75-1.29,1.24-4.02,3.09-9.65,4.5-14.41,5.88-9.66,2.82-19.56,4.8-29.44,6.65-3.78.71-2.18,6.48,1.59,5.77,9.88-1.85,19.78-3.83,29.44-6.65,4.97-1.45,10.25-3.04,14.71-5.76,5.46-3.33,7.48-9.04,1.67-13.23-6.26-4.51-15.14-6-22.52-7.51-10.07-2.06-20.27-3.47-30.48-4.69-5.89-.7-11.8-1.34-17.72-1.82-3.84-.31-3.82,5.67,0,5.99h0Z"/>
  <g>
    <path class="cls-18" d="M167.83,202c0,4.55-3.69,8.24-8.24,8.24s-8.24-3.69-8.24-8.24c0-2.76,1.35-5.2,3.43-6.69,1.35-.97,3.01-1.55,4.81-1.55,4.55,0,8.24,3.69,8.24,8.24Z"/>
    <path class="cls-4" d="M153.85,196.09s13.32-2.86,13.24,9.32c0,0,2.93-6.17-2.84-10.2,0,0-5.03-3.85-10.41.88Z"/>
  </g>
  <path class="cls-12" d="M248.63,84.62s39.03-22.48,43.34-13.35c4.31,9.13.76,29.41,0,33.46-.76,4.06-4.13,25.39-18.04,17.76s-29.67-18.69-29.67-18.69l4.36-19.19Z"/>
  <path class="cls-12" d="M221.34,86.02s-39.03-22.48-43.34-13.35c-4.31,9.13-.76,29.41,0,33.46s4.13,25.39,18.04,17.76c13.91-7.62,29.67-18.69,29.67-18.69l-4.36-19.19Z"/>
  <path class="cls-10" d="M161.44,253.1c-10.19-1.63-20.9-2.71-31.2-1.74-5.08.48-12.1,1.36-15,6.25-3.63,6.11,2.39,12.97,6.46,17.01,14.51,14.39,33.78,24.61,51.39,34.53,3.36,1.89,6.38-3.28,3.02-5.17-15.72-8.85-31.96-17.91-45.79-29.61-3.17-2.68-6.55-5.6-8.78-9.16-.59-.94-1.05-1.8-1.32-2.84-.12-.45.06-1.55-.06-1.28.49-1.13,1.77-1.84,3.38-2.42,2.35-.85,4.9-1.18,7.38-1.38,6.1-.5,12.26-.19,18.35.34,3.94.34,7.37.73,10.58,1.24,3.77.6,5.39-5.17,1.59-5.77h0Z"/>
  <path class="cls-3" d="M296.5,416.42s-.23-9.53,5.89-7.7c6.11,1.84,16.65,12.17,19.03,11.29,0,0-.54,4.41-2.92,5.49,0,0-6.29-5.31-7.34-4.69s3.9,14.19-5.72,23.99c0,0-3.3,3.01-4.21-3.22-.91-6.23,1.36-18.11-4.72-25.17Z"/>
  <path class="cls-3" d="M215.84,440.97s7.44-5.97,9.69,0,.45,20.62,2.59,21.97c0,0-3.83,2.25-6.14,1.01,0,0,.39-8.23-.73-8.68s-8.9,11.72-22.54,10.03c0,0-4.39-.79,0-5.3s15.21-9.92,17.13-19.04Z"/>
  <path class="cls-10" d="M210.82,387.84c-.6,18.96,1.35,38.4,5.61,56.87.94,4.05,7.17,2.34,6.23-1.72-4.13-17.92-5.96-36.75-5.38-55.15.13-4.16-6.33-4.16-6.46,0h0Z"/>
  <path class="cls-10" d="M258.21,379.1c-3.37,7.36-4.87,16.46-2.65,24.34,5.51,19.53,30.16,20.32,46.59,18.91,4.11-.35,4.15-6.82,0-6.46-13.4,1.15-36.8,1.9-40.63-15.25-.92-4.09-.53-8.42.44-12.47.36-1.53.82-3.02,1.34-4.51.36-1.02.66-1.65.5-1.3,1.72-3.76-3.85-7.05-5.58-3.26h0Z"/>
  <path class="cls-14" d="M230.16,104s44.74-4.94,58.63,33.76c13.89,38.7,35.49,68.35,35.49,68.35,0,0,69.48,86.4-11.74,164.16-10.79,10.33-24.32,16.87-38.75,18.34-1.39.14-2.81.25-4.28.31-10.34.42-20.48,3.48-27.87,6.33-16.38,6.33-34.42,5.99-50.41-1.38-19.54-9.01-42.3-29-57.86-72.49-3.5-9.79-5.01-20.27-4.4-30.74,1.05-17.95,5.89-47.76,24.05-80.41,17.91-32.21,22.29-45.35,22.98-50.69.8-6.16,2.36-12.18,5.15-17.64,7.3-14.26,22.28-34.72,49.01-37.89Z"/>
  <path class="cls-2" d="M220.12,107.79s20.27-4.23,27.63,2.21c0,0-10.19-1.88-15.24,7.12,0,0-3.56-11.06-12.39-9.34Z"/>
  <path class="cls-17" d="M240.98,109.2l-.33-17.76c-1.14-23.63,13.85-25.26,17.93-26.73s4.56-5.21,1.63-6.36-1.63-3.91-3.42-7.5c-1.79-3.59-8.8,4.24-8.8,4.24-22.82,22-19.57,53.91-19.57,53.91,0,0,3.85,1.53,4.53,5.47,0,0,3.61-4.79,8.04-5.28Z"/>
  <path class="cls-5" d="M269.5,388.91s89.58-69.02,69.58-157.94c0,0,27.43,48.25,1.62,102,0,0-31.37,57.5-71.2,55.95Z"/>
  <path class="cls-13" d="M190.4,144.53s14.31-12.18,25.32-4.15c1.12.81,3.02,1.63,3.16,3.01.12,1.12-1.32,2.59-3.05,2.4-3.46-.38-6.45-8.87-19-2.48-11.68,5.94-6.42,1.23-6.42,1.23Z"/>
  <path class="cls-13" d="M270.85,141.77s-14.31-12.18-25.32-4.15c-1.12.81-3.02,1.63-3.16,3.01-.12,1.12,1.32,2.59,3.05,2.4,3.46-.38,6.45-8.87,19-2.48,11.68,5.94,6.42,1.23,6.42,1.23Z"/>
  <path class="cls-7" d="M220.02,104.49s-5.58-9.2,0-18.33c0,0,1.62-3.3,7.91-1.52,6.29,1.77,22.01-5.58,22.01.76s3.8,20.28,0,21.04-29.92-1.95-29.92-1.95Z"/>
  <g class="cls-20">
    <circle class="cls-13" cx="312.7" cy="333.79" r="1.22"/>
    <circle class="cls-13" cx="318.23" cy="323.75" r="1.22"/>
    <circle class="cls-13" cx="320.7" cy="331.5" r="1.22"/>
    <circle class="cls-13" cx="324.78" cy="338.39" r="1.22"/>
    <circle class="cls-13" cx="330.31" cy="328.35" r="1.22"/>
    <circle class="cls-13" cx="332.78" cy="336.1" r="1.22"/>
    <circle class="cls-13" cx="326.95" cy="320.6" r="1.22"/>
    <circle class="cls-13" cx="332.47" cy="310.57" r="1.22"/>
    <circle class="cls-13" cx="334.94" cy="318.32" r="1.22"/>
    <circle class="cls-13" cx="314.33" cy="313.62" r="1.22"/>
    <circle class="cls-13" cx="319.39" cy="299.58" r="1.22"/>
    <circle class="cls-13" cx="322.33" cy="311.33" r="1.22"/>
    <circle class="cls-13" cx="296.68" cy="329.16" r="1.22"/>
    <circle class="cls-13" cx="303.92" cy="317.47" r="1.22"/>
    <circle class="cls-13" cx="304.68" cy="326.87" r="1.22"/>
    <circle class="cls-13" cx="281.9" cy="344.74" r="1.22"/>
    <circle class="cls-13" cx="288.61" cy="334" r="1.22"/>
    <circle class="cls-13" cx="294.38" cy="339.96" r="1.22"/>
    <circle class="cls-13" cx="282.61" cy="360.08" r="1.22"/>
    <circle class="cls-13" cx="288.14" cy="350.04" r="1.22"/>
    <circle class="cls-13" cx="290.61" cy="357.8" r="1.22"/>
    <circle class="cls-13" cx="299.82" cy="365.45" r="1.22"/>
    <circle class="cls-13" cx="305.35" cy="355.41" r="1.22"/>
    <circle class="cls-13" cx="307.82" cy="363.17" r="1.22"/>
    <circle class="cls-13" cx="297.1" cy="346.09" r="1.22"/>
    <circle class="cls-13" cx="304.13" cy="334.73" r="1.22"/>
    <circle class="cls-13" cx="305.1" cy="343.8" r="1.22"/>
    <circle class="cls-13" cx="312.44" cy="354.78" r="1.22"/>
    <circle class="cls-13" cx="317.96" cy="344.74" r="1.22"/>
    <circle class="cls-13" cx="320.43" cy="352.49" r="1.22"/>
    <circle class="cls-13" cx="304.09" cy="306.77" r="1.22"/>
    <circle class="cls-13" cx="309.61" cy="296.73" r="1.22"/>
    <circle class="cls-13" cx="313.36" cy="305.78" r="1.22"/>
    <circle class="cls-13" cx="328.07" cy="299.63" r="1.22"/>
    <circle class="cls-13" cx="324.36" cy="291.54" r="1.22"/>
    <circle class="cls-13" cx="336.06" cy="297.34" r="1.22"/>
    <circle class="cls-13" cx="312.11" cy="321.86" r="1.22"/>
    <circle class="cls-13" cx="294.59" cy="318.66" r="1.22"/>
    <circle class="cls-13" cx="289.6" cy="370.05" r="1.22"/>
  </g>
  <g class="cls-20">
    <circle class="cls-13" cx="166.75" cy="345.87" r="1.22"/>
    <circle class="cls-13" cx="172.86" cy="356.14" r="1.22"/>
    <circle class="cls-13" cx="162.89" cy="354.85" r="1.22"/>
    <circle class="cls-13" cx="155.28" cy="354.91" r="1.22"/>
    <circle class="cls-13" cx="167.63" cy="364.85" r="1.22"/>
    <circle class="cls-13" cx="159.6" cy="363.56" r="1.22"/>
    <circle class="cls-13" cx="176.06" cy="365.34" r="1.22"/>
    <circle class="cls-13" cx="181.37" cy="373.57" r="1.22"/>
    <circle class="cls-13" cx="171.27" cy="377.01" r="1.22"/>
    <circle class="cls-13" cx="182.05" cy="356.08" r="1.22"/>
    <circle class="cls-13" cx="194.35" cy="366.07" r="1.22"/>
    <circle class="cls-13" cx="186.42" cy="365.39" r="1.22"/>
    <circle class="cls-13" cx="182.05" cy="334.46" r="1.22"/>
    <circle class="cls-13" cx="185.71" cy="349.94" r="1.22"/>
    <circle class="cls-13" cx="180.49" cy="342.64" r="1.22"/>
    <circle class="cls-13" cx="174.67" cy="318.23" r="1.22"/>
    <circle class="cls-13" cx="181.37" cy="325.08" r="1.22"/>
    <circle class="cls-13" cx="173.45" cy="327.54" r="1.22"/>
    <circle class="cls-13" cx="157.34" cy="315.78" r="1.22"/>
    <circle class="cls-13" cx="167.26" cy="317.43" r="1.22"/>
    <circle class="cls-13" cx="156.11" cy="324.76" r="1.22"/>
    <circle class="cls-13" cx="145.4" cy="325.99" r="1.22"/>
    <circle class="cls-13" cx="152.26" cy="335.69" r="1.22"/>
    <circle class="cls-13" cx="137.71" cy="322.14" r="1.22"/>
    <circle class="cls-13" cx="164.3" cy="327.54" r="1.22"/>
    <circle class="cls-13" cx="171.64" cy="337.38" r="1.22"/>
    <circle class="cls-13" cx="159.6" cy="336.61" r="1.22"/>
    <circle class="cls-13" cx="142.95" cy="334.46" r="1.22"/>
    <circle class="cls-13" cx="158.56" cy="346.44" r="1.22"/>
    <circle class="cls-13" cx="150.53" cy="345.16" r="1.22"/>
    <circle class="cls-13" cx="198.71" cy="351.16" r="1.22"/>
    <circle class="cls-13" cx="201.94" cy="360.31" r="1.22"/>
    <circle class="cls-13" cx="192.37" cy="357.87" r="1.22"/>
    <circle class="cls-13" cx="191.14" cy="374.1" r="1.22"/>
    <circle class="cls-13" cx="200.72" cy="371.9" r="1.22"/>
    <circle class="cls-13" cx="182.85" cy="383.96" r="1.22"/>
    <circle class="cls-13" cx="176.03" cy="348.31" r="1.22"/>
    <circle class="cls-13" cx="191.9" cy="344.64" r="1.22"/>
    <circle class="cls-13" cx="144.97" cy="314.92" r="1.22"/>
  </g>
  <rect class="cls-9" x="176.17" y="300.33" width="98.31" height="50.84" rx="8.49" ry="8.49"/>
  <polyline class="cls-22" points="181.37 309.34 218.84 327.21 231.01 327.21 266.41 309.34"/>
  <rect class="cls-15" x="217.17" y="323.86" width="15.04" height="6.88" rx="1.24" ry="1.24"/>
  <g class="cls-20">
    <circle class="cls-13" cx="320.88" cy="244.44" r="1.22"/>
    <circle class="cls-13" cx="317.78" cy="233.41" r="1.22"/>
    <circle class="cls-13" cx="324.98" cy="237.2" r="1.22"/>
    <circle class="cls-13" cx="332.71" cy="239.25" r="1.22"/>
    <circle class="cls-13" cx="329.62" cy="228.22" r="1.22"/>
    <circle class="cls-13" cx="336.81" cy="232.02" r="1.22"/>
    <circle class="cls-13" cx="321.79" cy="225.05" r="1.22"/>
    <circle class="cls-13" cx="318.69" cy="214.02" r="1.22"/>
    <circle class="cls-13" cx="325.89" cy="217.82" r="1.22"/>
    <circle class="cls-13" cx="307.89" cy="228.92" r="1.22"/>
    <circle class="cls-13" cx="301.66" cy="215.36" r="1.22"/>
    <circle class="cls-13" cx="311.99" cy="221.68" r="1.22"/>
    <circle class="cls-13" cx="306.21" cy="252.37" r="1.22"/>
    <circle class="cls-13" cx="303.17" cy="238.96" r="1.22"/>
    <circle class="cls-13" cx="310.31" cy="245.13" r="1.22"/>
    <circle class="cls-13" cx="306.59" cy="273.85" r="1.22"/>
    <circle class="cls-13" cx="303.84" cy="261.48" r="1.22"/>
    <circle class="cls-13" cx="312.14" cy="261.69" r="1.22"/>
    <circle class="cls-13" cx="317.85" cy="284.29" r="1.22"/>
    <circle class="cls-13" cx="314.76" cy="273.26" r="1.22"/>
    <circle class="cls-13" cx="321.95" cy="277.05" r="1.22"/>
    <circle class="cls-13" cx="333.89" cy="276.05" r="1.22"/>
    <circle class="cls-13" cx="330.8" cy="265.02" r="1.22"/>
    <circle class="cls-13" cx="337.99" cy="268.81" r="1.22"/>
    <circle class="cls-13" cx="318.38" cy="264.15" r="1.22"/>
    <circle class="cls-13" cx="315.43" cy="251.12" r="1.22"/>
    <circle class="cls-13" cx="322.48" cy="256.91" r="1.22"/>
    <circle class="cls-13" cx="335.4" cy="259.59" r="1.22"/>
    <circle class="cls-13" cx="332.3" cy="248.56" r="1.22"/>
    <circle class="cls-13" cx="339.5" cy="252.36" r="1.22"/>
    <circle class="cls-13" cx="295.79" cy="231.21" r="1.22"/>
    <circle class="cls-13" cx="292.69" cy="220.18" r="1.22"/>
    <circle class="cls-13" cx="301.7" cy="224.01" r="1.22"/>
    <circle class="cls-13" cx="307.88" cy="209.31" r="1.22"/>
    <circle class="cls-13" cx="299.57" cy="206.14" r="1.22"/>
    <circle class="cls-13" cx="311.98" cy="202.08" r="1.22"/>
    <circle class="cls-13" cx="312.09" cy="236.35" r="1.22"/>
    <circle class="cls-13" cx="297.36" cy="246.36" r="1.22"/>
    <circle class="cls-13" cx="329.83" cy="286.49" r="1.22"/>
  </g>
  <g>
    <path class="cls-18" d="M328.74,202c0,4.55-3.69,8.24-8.24,8.24s-8.24-3.69-8.24-8.24c0-2.76,1.35-5.2,3.43-6.69,1.35-.97,3.01-1.55,4.81-1.55,4.55,0,8.24,3.69,8.24,8.24Z"/>
    <path class="cls-4" d="M314.76,196.09s13.32-2.86,13.24,9.32c0,0,2.93-6.17-2.84-10.2,0,0-5.03-3.85-10.41.88Z"/>
  </g>
  <path class="cls-10" d="M118.06,270.54c5.92,7.4,14.09,13.1,21.87,18.4,10.68,7.28,21.84,13.99,33.18,20.19,9.21,5.04,18.54,9.88,27.81,14.82,3.4,1.81,6.43-3.35,3.02-5.17-9.26-4.93-18.58-9.76-27.77-14.8-10.59-5.81-21.02-12.06-31.07-18.77-8.13-5.43-16.64-11.22-22.8-18.91-2.41-3.01-6.62,1.25-4.23,4.23h0Z"/>
  <g>
    <path class="cls-6" d="M220.91,185s10.73-29.46-18.4-30.06c0,0-20.72.67-14.39,31"/>
    <path class="cls-13" d="M220.91,185c3.21-15.63-.28-28.1-18.38-28.28-14.58,1.71-15.72,17.45-14.41,29.21-4.63-13.28-2.61-30.57,14.1-32.77,19.74-.11,26.01,15.06,18.69,31.83h0Z"/>
  </g>
  <path class="cls-21" d="M187.99,166.19s-5.2,1.83-11.82-5.88c0,0,3.73,7.83,11.92,7.06l-.1-1.18Z"/>
  <path class="cls-21" d="M188.4,165.73s-5.49-.41-8.46-10.13c0,0,.27,8.67,8.08,11.26l.38-1.12Z"/>
  <path class="cls-18" d="M187.61,189.65c-.93-3.01-1.44-6.33-1.44-9.8,0-13.95,8.25-25.27,18.42-25.27s18.42,11.31,18.42,25.27c0,2.4.07,6.15-.18,9.25,0,0-12.53-8.19-35.22.55"/>
  <circle class="cls-8" cx="205.56" cy="174.52" r="8.65"/>
  <circle class="cls-18" cx="209.83" cy="177.72" r="4.27"/>
  <path class="cls-13" d="M183.35,191.83c12.6-5.89,28.47-7.38,41.34-1.83.87.38,1.64-.91.76-1.29-13.43-5.79-29.72-4.31-42.85,1.83-.87.41-.11,1.7.76,1.29h0Z"/>
  <path class="cls-16" d="M205.47,190.48c-14.27-2.13-28.32,5.07-35.22,17.73-4.17,7.65-8.14,16.88-8.71,25.01-1.24,17.92,58.17,4.39,57.7-7.44-.37-9.43,9.43-31.85-13.77-35.31Z"/>
  <path class="cls-16" d="M266.7,189.88c14.27-2.13,28.32,5.07,35.22,17.73,4.17,7.65,8.14,16.88,8.71,25.01,1.24,17.92-58.17,4.39-57.7-7.44.37-9.43-9.43-31.85,13.77-35.31Z"/>
  <g class="cls-20">
    <circle class="cls-13" cx="230.55" cy="216.54" r="1.16"/>
    <circle class="cls-13" cx="241.35" cy="215.98" r="1.16"/>
    <circle class="cls-13" cx="236.36" cy="221.81" r="1.16"/>
    <circle class="cls-13" cx="232.86" cy="228.5" r="1.16"/>
    <circle class="cls-13" cx="243.66" cy="227.95" r="1.16"/>
    <circle class="cls-13" cx="238.67" cy="233.78" r="1.16"/>
    <circle class="cls-13" cx="248.2" cy="221.41" r="1.16"/>
    <circle class="cls-13" cx="259" cy="220.86" r="1.16"/>
    <circle class="cls-13" cx="254.01" cy="226.69" r="1.16"/>
    <circle class="cls-13" cx="247.54" cy="207.82" r="1.16"/>
    <circle class="cls-13" cx="261.31" cy="204.91" r="1.16"/>
    <circle class="cls-13" cx="253.34" cy="213.1" r="1.16"/>
    <circle class="cls-13" cx="226.31" cy="201.39" r="1.16"/>
    <circle class="cls-13" cx="239.29" cy="201.39" r="1.16"/>
    <circle class="cls-13" cx="232.12" cy="206.67" r="1.16"/>
    <circle class="cls-13" cx="206.48" cy="197.27" r="1.16"/>
    <circle class="cls-13" cx="218.43" cy="197.32" r="1.16"/>
    <circle class="cls-13" cx="216.5" cy="204.91" r="1.16"/>
    <circle class="cls-13" cx="194.53" cy="205.46" r="1.16"/>
    <circle class="cls-13" cx="205.32" cy="204.91" r="1.16"/>
    <circle class="cls-13" cx="200.33" cy="210.74" r="1.16"/>
    <circle class="cls-13" cx="198.77" cy="221.93" r="1.16"/>
    <circle class="cls-13" cx="209.56" cy="221.38" r="1.16"/>
    <circle class="cls-13" cx="204.57" cy="227.21" r="1.16"/>
    <circle class="cls-13" cx="212.95" cy="210.13" r="1.16"/>
    <circle class="cls-13" cx="225.54" cy="210.13" r="1.16"/>
    <circle class="cls-13" cx="218.75" cy="215.41" r="1.16"/>
    <circle class="cls-13" cx="213.59" cy="226.74" r="1.16"/>
    <circle class="cls-13" cx="224.39" cy="226.19" r="1.16"/>
    <circle class="cls-13" cx="219.4" cy="232.02" r="1.16"/>
    <circle class="cls-13" cx="247.95" cy="196.21" r="1.16"/>
    <circle class="cls-13" cx="258.74" cy="195.65" r="1.16"/>
    <circle class="cls-13" cx="253.34" cy="203.15" r="1.16"/>
    <circle class="cls-13" cx="265.57" cy="211.89" r="1.16"/>
    <circle class="cls-13" cx="270.22" cy="204.91" r="1.16"/>
    <circle class="cls-13" cx="271.38" cy="217.17" r="1.16"/>
    <circle class="cls-13" cx="239.82" cy="210.13" r="1.16"/>
    <circle class="cls-13" cx="233.69" cy="194.5" r="1.16"/>
    <circle class="cls-13" cx="190.01" cy="216.01" r="1.16"/>
  </g>
  <path class="cls-19" d="M237.68,219.47s-1.13-6.02,2-6.04c3.12-.02,3.53,1.44,4.81-1.58s2.79-.41,6.16.8c3.37,1.21-12.97,6.82-12.97,6.82Z"/>
  <path class="cls-19" d="M238.56,221.1s2.43,3.28,6.15,1.47c3.72-1.8,7.84-2.48,7.08-7.78l-11.16,3.85-2.06,2.45Z"/>
  <path class="cls-8" d="M232.7,221.52c8.09-.31,17.15-2.62,22.97-8.52,1.35-1.37-.76-3.49-2.12-2.12-5.24,5.31-13.57,7.36-20.85,7.64-1.92.07-1.93,3.07,0,2.99h0Z"/>
  <path class="cls-8" d="M251.04,208c1.46,3.35,5.42,5.4,8.67,6.45,1.84.59,2.62-2.3.8-2.89-2.59-.83-5.73-2.41-6.89-5.08-.77-1.76-3.35-.24-2.58,1.51h0Z"/>
  <path class="cls-10" d="M352.78,288.65c-32.56,9.84-67.49,13.32-101.1,17.46-3.77.47-3.82,6.46,0,5.99,21.67-2.67,43.33-5.56,64.85-9.32,12.71-2.22,25.48-4.62,37.85-8.36,3.68-1.11,2.11-6.89-1.59-5.77h0Z"/>
  <g>
    <circle class="cls-18" cx="270.63" cy="311.6" r="2.38"/>
    <circle class="cls-18" cx="269.48" cy="307.02" r="2.38"/>
    <circle class="cls-18" cx="268.8" cy="302.58" r="2.38"/>
  </g>
  <g>
    <path class="cls-6" d="M245.32,184.23s-10.73-29.46,18.4-30.06c0,0,20.72.67,14.39,31"/>
    <path class="cls-13" d="M245.32,184.23c-7.32-16.79-1.05-31.94,18.69-31.83,16.71,2.19,18.73,19.49,14.1,32.77,1.31-11.76.18-27.5-14.41-29.21-18.11.17-21.59,12.66-18.38,28.28h0Z"/>
  </g>
  <path class="cls-21" d="M278.23,165.43s5.2,1.83,11.82-5.88c0,0-3.73,7.83-11.92,7.06l.1-1.18Z"/>
  <path class="cls-21" d="M277.82,164.97s5.49-.41,8.46-10.13c0,0-.27,8.67-8.08,11.26l-.38-1.12Z"/>
  <path class="cls-18" d="M278.61,188.89c.93-3.01,1.44-6.33,1.44-9.8,0-13.95-8.25-25.27-18.42-25.27s-18.42,11.31-18.42,25.27c0,2.4-.07,6.15.18,9.25,0,0,12.53-8.19,35.22.55"/>
  <path class="cls-13" d="M283.62,189.77c-13.13-6.14-29.43-7.62-42.85-1.83-.88.38-.12,1.67.76,1.29,12.87-5.56,28.75-4.06,41.34,1.83.87.41,1.63-.88.76-1.29h0Z"/>
  <circle class="cls-8" cx="264.43" cy="172.12" r="8.65"/>
  <circle class="cls-18" cx="268.7" cy="175.31" r="4.27"/>
  <g class="cls-23">
    <path class="cls-11" d="M182.98,338.45c-2.12-.06-3.65-1.71-3.58-3.88.06-2.01,1.79-3.59,3.84-3.53,2.05.06,3.68,1.84,3.6,3.93-.08,2.03-1.75,3.54-3.87,3.49Z"/>
    <path class="cls-11" d="M183.09,338.8c2.09-.01,3.77,1.67,3.76,3.76-.01,2.05-1.63,3.65-3.71,3.66-2.08.01-3.71-1.56-3.74-3.62-.03-2.15,1.56-3.79,3.69-3.8Z"/>
    <path class="cls-11" d="M183.07,330.68c-2.09,0-3.67-1.58-3.67-3.66,0-2.1,1.7-3.82,3.75-3.78,2.05.04,3.74,1.81,3.7,3.86-.04,2.04-1.67,3.59-3.78,3.58Z"/>
    <path class="cls-11" d="M194.13,327.04c0,1.77-1.43,3.25-3.21,3.3-1.8.06-3.4-1.57-3.38-3.43.02-1.72,1.56-3.21,3.32-3.21,1.85,0,3.26,1.44,3.27,3.33Z"/>
    <path class="cls-11" d="M194.13,334.8c0,1.77-1.44,3.26-3.21,3.29-1.83.03-3.41-1.57-3.38-3.41.03-1.72,1.56-3.2,3.33-3.2,1.86,0,3.26,1.43,3.27,3.33Z"/>
    <path class="cls-11" d="M198.65,325.19c.96.01,1.77.82,1.79,1.78.02,1-.85,1.88-1.83,1.85-1.03-.03-1.79-.84-1.76-1.9.03-.97.84-1.75,1.81-1.73Z"/>
    <path class="cls-11" d="M198.62,332.95c.97,0,1.79.79,1.81,1.74.03,1.01-.81,1.88-1.8,1.88-1.06,0-1.8-.78-1.79-1.86.02-.98.8-1.76,1.78-1.76Z"/>
    <path class="cls-11" d="M192.67,342.51c0,.97-.77,1.78-1.73,1.81-1.05.03-1.85-.73-1.85-1.78,0-1.06.78-1.83,1.83-1.81.98.02,1.75.81,1.75,1.78Z"/>
    <path class="cls-11" d="M198.61,340.72c.96-.01,1.79.77,1.83,1.72.04,1.01-.78,1.87-1.79,1.87-1.05,0-1.85-.8-1.83-1.83.02-.97.8-1.74,1.79-1.75Z"/>
  </g>
</svg>
