<?xml version="1.0" encoding="UTF-8"?>
<svg id="Layer_1" data-name="Layer 1" xmlns="http://www.w3.org/2000/svg" viewBox="0 0 500 500">
  <defs>
    <style>
      .cls-1 {
        fill: #3e4de5;
      }

      .cls-1, .cls-2 {
        stroke-width: 0px;
      }

      .cls-1, .cls-3 {
        opacity: .3;
      }

      .cls-4 {
        stroke: #000;
        stroke-miterlimit: 10;
      }

      .cls-4, .cls-2 {
        fill: #000;
      }

      .cls-5 {
        opacity: .4;
      }
    </style>
  </defs>
  <ellipse class="cls-1" cx="235.94" cy="240.45" rx="163.86" ry="121.61" transform="translate(-100.86 247.41) rotate(-46.73)"/>
  <path class="cls-2" d="M291.86,258.77c12.9,1.05,25.81,2.61,38.57,4.79,8.14,1.39,16.55,2.86,24.29,5.86,2.11.82,4.49,1.77,6,3.53.18.21.17.35.07.57-.04.09-.92,1.07-1.52,1.53-4.01,3.13-9.75,4.54-14.52,5.93-9.66,2.82-19.56,4.8-29.44,6.65-3.16.59-1.82,5.41,1.33,4.82,9.88-1.85,19.78-3.83,29.44-6.65,4.93-1.44,10.17-3.01,14.59-5.71,5.13-3.14,7.16-8.39,1.67-12.38-6.21-4.5-15.07-5.96-22.4-7.46-10.03-2.05-20.19-3.46-30.34-4.67-5.89-.7-11.8-1.34-17.72-1.82-3.21-.26-3.19,4.74,0,5h0Z"/>
  <g>
    <path class="cls-4" d="M161.31,193.36c0,4.55-3.69,8.24-8.24,8.24s-8.24-3.69-8.24-8.24c0-2.76,1.35-5.2,3.43-6.69,1.35-.97,3.01-1.55,4.81-1.55,4.55,0,8.24,3.69,8.24,8.24Z"/>
    <path class="cls-4" d="M147.33,187.45s13.32-2.86,13.24,9.32c0,0,2.93-6.17-2.84-10.2,0,0-5.03-3.85-10.41.88Z"/>
  </g>
  <path class="cls-4" d="M242.11,75.98s39.03-22.48,43.34-13.35c4.31,9.13.76,29.41,0,33.46-.76,4.06-4.13,25.39-18.04,17.76-13.91-7.62-29.67-18.69-29.67-18.69l4.36-19.19Z"/>
  <path class="cls-4" d="M214.82,77.38s-39.03-22.48-43.34-13.35c-4.31,9.13-.76,29.41,0,33.46s4.13,25.39,18.04,17.76c13.91-7.62,29.67-18.69,29.67-18.69l-4.36-19.19Z"/>
  <path class="cls-2" d="M155.46,242.53c-10.37-1.65-21.26-2.8-31.73-1.81-5.85.55-13.43,1.66-16.73,7.24-4.16,7.03,1.97,14.67,6.78,19.44,14.63,14.5,34.04,24.84,51.8,34.84,5.62,3.16,10.66-5.47,5.05-8.63-15.56-8.76-31.69-17.71-45.38-29.29-3.08-2.61-6.67-5.83-8.46-8.75-.3-.49-.6-.99-.85-1.51-.16-.34-.03.3-.26-.85-.18-.88-.01.32.01.4-.03-.1.04-.67-.03-.73-.25-.21.65-1.48-.07.38.27-.69-.21-.6-.17.21-.04-.85.94-.43.01-.18-.05.01,1.86-1.11.14-.24.46-.23.84-.59,1.32-.79,1.22-.5-.65.16.7-.28,1.11-.36,2.24-.63,3.38-.87,1.88-.39,1.25-.26,3.46-.44,6.1-.5,12.26-.19,18.35.34,2.64.23,5.28.53,7.91.86,1.38.17-1.13-.16.28.04.33.05.67.1,1,.14.28.04.56.08.85.13,6.3,1.01,9.01-8.63,2.66-9.64h0Z"/>
  <path class="cls-4" d="M289.98,407.79s-.23-9.53,5.89-7.7c6.11,1.84,16.65,12.17,19.03,11.29,0,0-.54,4.41-2.92,5.49,0,0-6.29-5.31-7.34-4.69s3.9,14.19-5.72,23.99c0,0-3.3,3.01-4.21-3.22-.91-6.23,1.36-18.11-4.72-25.17Z"/>
  <path class="cls-4" d="M209.32,432.33s7.44-5.97,9.69,0,.45,20.62,2.59,21.97c0,0-3.83,2.25-6.14,1.01,0,0,.39-8.23-.73-8.68s-8.9,11.72-22.54,10.03c0,0-4.39-.79,0-5.3s15.21-9.92,17.13-19.04Z"/>
  <path class="cls-2" d="M205.04,379.21c-.6,18.9,1.34,38.27,5.58,56.67.72,3.13,5.55,1.81,4.82-1.33-4.15-17.98-5.99-36.88-5.41-55.34.1-3.22-4.9-3.22-5,0h0Z"/>
  <path class="cls-2" d="M252.32,370.83c-3.28,7.18-4.74,16.1-2.58,23.77,5.4,19.16,29.84,19.75,45.89,18.37,3.18-.27,3.21-5.27,0-5-13.82,1.18-37.37,1.74-41.34-15.79-.95-4.22-.56-8.68.44-12.85.36-1.53.83-3.02,1.34-4.51.29-.85.63-1.62.57-1.48,1.33-2.91-2.98-5.45-4.32-2.52h0Z"/>
  <path class="cls-4" d="M223.64,95.36s44.74-4.94,58.63,33.76c13.89,38.7,35.49,68.35,35.49,68.35,0,0,69.48,86.4-11.74,164.16-10.79,10.33-24.32,16.87-38.75,18.34-1.39.14-2.81.25-4.28.31-10.34.42-20.48,3.48-27.87,6.33-16.38,6.33-34.42,5.99-50.41-1.38-19.54-9.01-42.3-29-57.86-72.49-3.5-9.79-5.01-20.27-4.4-30.74,1.05-17.95,5.89-47.76,24.05-80.41,17.91-32.21,22.29-45.35,22.98-50.69.8-6.16,2.36-12.18,5.15-17.64,7.3-14.26,22.28-34.72,49.01-37.89Z"/>
  <path class="cls-4" d="M213.6,99.15s20.27-4.23,27.63,2.21c0,0-10.19-1.88-15.24,7.12,0,0-3.56-11.06-12.39-9.34Z"/>
  <path class="cls-4" d="M234.46,100.57l-.33-17.76c-1.14-23.63,13.85-25.26,17.93-26.73s4.56-5.21,1.63-6.36-1.63-3.91-3.42-7.5c-1.79-3.59-8.8,4.24-8.8,4.24-22.82,22-19.57,53.91-19.57,53.91,0,0,3.85,1.53,4.53,5.47,0,0,3.61-4.79,8.04-5.28Z"/>
  <path class="cls-4" d="M262.98,380.27s89.58-69.02,69.58-157.94c0,0,27.43,48.25,1.62,102,0,0-31.37,57.5-71.2,55.95Z"/>
  <path class="cls-4" d="M183.88,135.89s14.31-12.18,25.32-4.15c1.12.81,3.02,1.63,3.16,3.01.12,1.12-1.32,2.59-3.05,2.4-3.46-.38-6.45-8.87-19-2.48-11.68,5.94-6.42,1.23-6.42,1.23Z"/>
  <path class="cls-4" d="M264.33,133.14s-14.31-12.18-25.32-4.15c-1.12.81-3.02,1.63-3.16,3.01-.12,1.12,1.32,2.59,3.05,2.4,3.46-.38,6.45-8.87,19-2.48,11.68,5.94,6.42,1.23,6.42,1.23Z"/>
  <path class="cls-4" d="M213.5,95.85s-5.58-9.2,0-18.33c0,0,1.62-3.3,7.91-1.52,6.29,1.77,22.01-5.58,22.01.76s3.8,20.28,0,21.04-29.92-1.95-29.92-1.95Z"/>
  <g class="cls-3">
    <circle class="cls-4" cx="306.18" cy="325.15" r="1.22"/>
    <circle class="cls-4" cx="311.71" cy="315.11" r="1.22"/>
    <circle class="cls-4" cx="314.18" cy="322.87" r="1.22"/>
    <circle class="cls-4" cx="318.26" cy="329.75" r="1.22"/>
    <circle class="cls-4" cx="323.78" cy="319.71" r="1.22"/>
    <circle class="cls-4" cx="326.26" cy="327.46" r="1.22"/>
    <circle class="cls-4" cx="320.43" cy="311.97" r="1.22"/>
    <circle class="cls-4" cx="325.95" cy="301.93" r="1.22"/>
    <circle class="cls-4" cx="328.42" cy="309.68" r="1.22"/>
    <circle class="cls-4" cx="307.81" cy="304.98" r="1.22"/>
    <circle class="cls-4" cx="312.86" cy="290.94" r="1.22"/>
    <circle class="cls-4" cx="315.81" cy="302.69" r="1.22"/>
    <circle class="cls-4" cx="290.16" cy="320.52" r="1.22"/>
    <circle class="cls-4" cx="297.4" cy="308.83" r="1.22"/>
    <circle class="cls-4" cx="298.16" cy="318.23" r="1.22"/>
    <circle class="cls-4" cx="275.38" cy="336.1" r="1.22"/>
    <circle class="cls-4" cx="282.09" cy="325.36" r="1.22"/>
    <circle class="cls-4" cx="287.86" cy="331.33" r="1.22"/>
    <circle class="cls-4" cx="276.09" cy="351.44" r="1.22"/>
    <circle class="cls-4" cx="281.61" cy="341.41" r="1.22"/>
    <circle class="cls-4" cx="284.09" cy="349.16" r="1.22"/>
    <circle class="cls-4" cx="293.3" cy="356.81" r="1.22"/>
    <circle class="cls-4" cx="298.83" cy="346.78" r="1.22"/>
    <circle class="cls-4" cx="301.3" cy="354.53" r="1.22"/>
    <circle class="cls-4" cx="290.58" cy="337.45" r="1.22"/>
    <circle class="cls-4" cx="297.61" cy="326.1" r="1.22"/>
    <circle class="cls-4" cx="298.58" cy="335.16" r="1.22"/>
    <circle class="cls-4" cx="305.91" cy="346.14" r="1.22"/>
    <circle class="cls-4" cx="311.44" cy="336.1" r="1.22"/>
    <circle class="cls-4" cx="313.91" cy="343.85" r="1.22"/>
    <circle class="cls-4" cx="297.57" cy="298.13" r="1.22"/>
    <circle class="cls-4" cx="303.09" cy="288.09" r="1.22"/>
    <circle class="cls-4" cx="306.84" cy="297.14" r="1.22"/>
    <circle class="cls-4" cx="321.54" cy="290.99" r="1.22"/>
    <circle class="cls-4" cx="317.84" cy="282.9" r="1.22"/>
    <circle class="cls-4" cx="329.54" cy="288.71" r="1.22"/>
    <circle class="cls-4" cx="305.58" cy="313.22" r="1.22"/>
    <circle class="cls-4" cx="288.07" cy="310.03" r="1.22"/>
    <circle class="cls-4" cx="283.08" cy="361.41" r="1.22"/>
  </g>
  <g class="cls-3">
    <circle class="cls-4" cx="160.23" cy="337.23" r="1.22"/>
    <circle class="cls-4" cx="166.34" cy="347.5" r="1.22"/>
    <circle class="cls-4" cx="156.37" cy="346.21" r="1.22"/>
    <circle class="cls-4" cx="148.76" cy="346.28" r="1.22"/>
    <circle class="cls-4" cx="161.11" cy="356.21" r="1.22"/>
    <circle class="cls-4" cx="153.08" cy="354.92" r="1.22"/>
    <circle class="cls-4" cx="169.54" cy="356.7" r="1.22"/>
    <circle class="cls-4" cx="174.85" cy="364.93" r="1.22"/>
    <circle class="cls-4" cx="164.75" cy="368.37" r="1.22"/>
    <circle class="cls-4" cx="175.53" cy="347.44" r="1.22"/>
    <circle class="cls-4" cx="187.83" cy="357.43" r="1.22"/>
    <circle class="cls-4" cx="179.9" cy="356.75" r="1.22"/>
    <circle class="cls-4" cx="175.53" cy="325.83" r="1.22"/>
    <circle class="cls-4" cx="179.19" cy="341.3" r="1.22"/>
    <circle class="cls-4" cx="173.97" cy="334" r="1.22"/>
    <circle class="cls-4" cx="168.15" cy="309.59" r="1.22"/>
    <circle class="cls-4" cx="174.85" cy="316.44" r="1.22"/>
    <circle class="cls-4" cx="166.93" cy="318.9" r="1.22"/>
    <circle class="cls-4" cx="150.81" cy="307.14" r="1.22"/>
    <circle class="cls-4" cx="160.74" cy="308.79" r="1.22"/>
    <circle class="cls-4" cx="149.59" cy="316.13" r="1.22"/>
    <circle class="cls-4" cx="138.87" cy="317.35" r="1.22"/>
    <circle class="cls-4" cx="145.74" cy="327.05" r="1.22"/>
    <circle class="cls-4" cx="131.19" cy="313.51" r="1.22"/>
    <circle class="cls-4" cx="157.78" cy="318.9" r="1.22"/>
    <circle class="cls-4" cx="165.12" cy="328.74" r="1.22"/>
    <circle class="cls-4" cx="153.08" cy="327.97" r="1.22"/>
    <circle class="cls-4" cx="136.43" cy="325.83" r="1.22"/>
    <circle class="cls-4" cx="152.04" cy="337.81" r="1.22"/>
    <circle class="cls-4" cx="144.01" cy="336.52" r="1.22"/>
    <circle class="cls-4" cx="192.19" cy="342.53" r="1.22"/>
    <circle class="cls-4" cx="195.42" cy="351.68" r="1.22"/>
    <circle class="cls-4" cx="185.85" cy="349.23" r="1.22"/>
    <circle class="cls-4" cx="184.62" cy="365.46" r="1.22"/>
    <circle class="cls-4" cx="194.2" cy="363.26" r="1.22"/>
    <circle class="cls-4" cx="176.33" cy="375.32" r="1.22"/>
    <circle class="cls-4" cx="169.51" cy="339.68" r="1.22"/>
    <circle class="cls-4" cx="185.38" cy="336" r="1.22"/>
    <circle class="cls-4" cx="138.45" cy="306.28" r="1.22"/>
  </g>
  <rect class="cls-4" x="169.65" y="291.69" width="98.31" height="50.84" rx="8.49" ry="8.49"/>
  <polyline class="cls-4" points="174.85 300.7 212.32 318.57 224.49 318.57 259.89 300.7"/>
  <rect class="cls-4" x="210.65" y="315.22" width="15.04" height="6.88" rx="1.24" ry="1.24"/>
  <g class="cls-3">
    <circle class="cls-4" cx="314.36" cy="235.8" r="1.22"/>
    <circle class="cls-4" cx="311.26" cy="224.77" r="1.22"/>
    <circle class="cls-4" cx="318.46" cy="228.57" r="1.22"/>
    <circle class="cls-4" cx="326.19" cy="230.62" r="1.22"/>
    <circle class="cls-4" cx="323.09" cy="219.58" r="1.22"/>
    <circle class="cls-4" cx="330.29" cy="223.38" r="1.22"/>
    <circle class="cls-4" cx="315.27" cy="216.42" r="1.22"/>
    <circle class="cls-4" cx="312.17" cy="205.38" r="1.22"/>
    <circle class="cls-4" cx="319.37" cy="209.18" r="1.22"/>
    <circle class="cls-4" cx="301.37" cy="220.28" r="1.22"/>
    <circle class="cls-4" cx="295.14" cy="206.73" r="1.22"/>
    <circle class="cls-4" cx="305.47" cy="213.04" r="1.22"/>
    <circle class="cls-4" cx="299.69" cy="243.73" r="1.22"/>
    <circle class="cls-4" cx="296.65" cy="230.32" r="1.22"/>
    <circle class="cls-4" cx="303.79" cy="236.5" r="1.22"/>
    <circle class="cls-4" cx="300.07" cy="265.21" r="1.22"/>
    <circle class="cls-4" cx="297.32" cy="252.84" r="1.22"/>
    <circle class="cls-4" cx="305.62" cy="253.05" r="1.22"/>
    <circle class="cls-4" cx="311.33" cy="275.65" r="1.22"/>
    <circle class="cls-4" cx="308.24" cy="264.62" r="1.22"/>
    <circle class="cls-4" cx="315.43" cy="268.41" r="1.22"/>
    <circle class="cls-4" cx="327.37" cy="267.41" r="1.22"/>
    <circle class="cls-4" cx="324.28" cy="256.38" r="1.22"/>
    <circle class="cls-4" cx="331.47" cy="260.17" r="1.22"/>
    <circle class="cls-4" cx="311.85" cy="255.51" r="1.22"/>
    <circle class="cls-4" cx="308.91" cy="242.49" r="1.22"/>
    <circle class="cls-4" cx="315.95" cy="248.27" r="1.22"/>
    <circle class="cls-4" cx="328.88" cy="250.96" r="1.22"/>
    <circle class="cls-4" cx="325.78" cy="239.92" r="1.22"/>
    <circle class="cls-4" cx="332.98" cy="243.72" r="1.22"/>
    <circle class="cls-4" cx="289.27" cy="222.57" r="1.22"/>
    <circle class="cls-4" cx="286.17" cy="211.54" r="1.22"/>
    <circle class="cls-4" cx="295.18" cy="215.37" r="1.22"/>
    <circle class="cls-4" cx="301.36" cy="200.68" r="1.22"/>
    <circle class="cls-4" cx="293.05" cy="197.5" r="1.22"/>
    <circle class="cls-4" cx="305.46" cy="193.44" r="1.22"/>
    <circle class="cls-4" cx="305.57" cy="227.72" r="1.22"/>
    <circle class="cls-4" cx="290.84" cy="237.72" r="1.22"/>
    <circle class="cls-4" cx="323.3" cy="277.85" r="1.22"/>
  </g>
  <g>
    <path class="cls-4" d="M322.22,193.36c0,4.55-3.69,8.24-8.24,8.24s-8.24-3.69-8.24-8.24c0-2.76,1.35-5.2,3.43-6.69,1.35-.97,3.01-1.55,4.81-1.55,4.55,0,8.24,3.69,8.24,8.24Z"/>
    <path class="cls-4" d="M308.24,187.45s13.32-2.86,13.24,9.32c0,0,2.93-6.17-2.84-10.2,0,0-5.03-3.85-10.41.88Z"/>
  </g>
  <path class="cls-2" d="M111.89,261.56c5.9,7.37,14.02,13.04,21.77,18.32,10.68,7.28,21.84,13.99,33.18,20.19,9.21,5.04,18.54,9.88,27.81,14.82,2.84,1.51,5.37-2.8,2.52-4.32-9.26-4.93-18.58-9.76-27.77-14.8-10.59-5.81-21.02-12.06-31.07-18.77-8.16-5.45-16.72-11.27-22.9-18.99-2.01-2.51-5.53,1.05-3.54,3.54h0Z"/>
  <path class="cls-4" d="M214.38,176.36s10.73-29.46-18.4-30.06c0,0-20.72.67-14.39,31"/>
  <path class="cls-4" d="M181.47,157.55s-5.2,1.83-11.82-5.88c0,0,3.73,7.83,11.92,7.06l-.1-1.18Z"/>
  <path class="cls-4" d="M181.88,157.1s-5.49-.41-8.46-10.13c0,0,.27,8.67,8.08,11.26l.38-1.12Z"/>
  <path class="cls-4" d="M181.09,181.02c-.93-3.01-1.44-6.33-1.44-9.8,0-13.95,8.25-25.27,18.42-25.27s18.42,11.31,18.42,25.27c0,2.4.07,6.15-.18,9.25,0,0-12.53-8.19-35.22.55"/>
  <circle class="cls-4" cx="199.04" cy="165.89" r="8.65"/>
  <circle class="cls-4" cx="203.31" cy="169.08" r="4.27"/>
  <path class="cls-4" d="M176.45,182.54s22.66-10.76,42.1-1.83"/>
  <path class="cls-4" d="M198.94,181.84c-14.27-2.13-28.32,5.07-35.22,17.73-4.17,7.65-8.14,16.88-8.71,25.01-1.24,17.92,58.17,4.39,57.7-7.44-.37-9.43,9.43-31.85-13.77-35.31Z"/>
  <path class="cls-4" d="M260.18,181.25c14.27-2.13,28.32,5.07,35.22,17.73,4.17,7.65,8.14,16.88,8.71,25.01,1.24,17.92-58.17,4.39-57.7-7.44.37-9.43-9.43-31.85,13.77-35.31Z"/>
  <g class="cls-3">
    <circle class="cls-4" cx="224.03" cy="207.9" r="1.16"/>
    <circle class="cls-4" cx="234.83" cy="207.34" r="1.16"/>
    <circle class="cls-4" cx="229.84" cy="213.18" r="1.16"/>
    <circle class="cls-4" cx="226.34" cy="219.86" r="1.16"/>
    <circle class="cls-4" cx="237.14" cy="219.31" r="1.16"/>
    <circle class="cls-4" cx="232.15" cy="225.14" r="1.16"/>
    <circle class="cls-4" cx="241.68" cy="212.77" r="1.16"/>
    <circle class="cls-4" cx="252.47" cy="212.22" r="1.16"/>
    <circle class="cls-4" cx="247.49" cy="218.05" r="1.16"/>
    <circle class="cls-4" cx="241.02" cy="199.18" r="1.16"/>
    <circle class="cls-4" cx="254.78" cy="196.27" r="1.16"/>
    <circle class="cls-4" cx="246.82" cy="204.46" r="1.16"/>
    <circle class="cls-4" cx="219.79" cy="192.75" r="1.16"/>
    <circle class="cls-4" cx="232.76" cy="192.75" r="1.16"/>
    <circle class="cls-4" cx="225.6" cy="198.03" r="1.16"/>
    <circle class="cls-4" cx="199.96" cy="188.63" r="1.16"/>
    <circle class="cls-4" cx="211.9" cy="188.68" r="1.16"/>
    <circle class="cls-4" cx="209.98" cy="196.27" r="1.16"/>
    <circle class="cls-4" cx="188.01" cy="196.82" r="1.16"/>
    <circle class="cls-4" cx="198.8" cy="196.27" r="1.16"/>
    <circle class="cls-4" cx="193.81" cy="202.1" r="1.16"/>
    <circle class="cls-4" cx="192.25" cy="213.29" r="1.16"/>
    <circle class="cls-4" cx="203.04" cy="212.74" r="1.16"/>
    <circle class="cls-4" cx="198.05" cy="218.57" r="1.16"/>
    <circle class="cls-4" cx="206.42" cy="201.49" r="1.16"/>
    <circle class="cls-4" cx="219.02" cy="201.49" r="1.16"/>
    <circle class="cls-4" cx="212.23" cy="206.77" r="1.16"/>
    <circle class="cls-4" cx="207.07" cy="218.1" r="1.16"/>
    <circle class="cls-4" cx="217.87" cy="217.55" r="1.16"/>
    <circle class="cls-4" cx="212.88" cy="223.38" r="1.16"/>
    <circle class="cls-4" cx="241.43" cy="187.57" r="1.16"/>
    <circle class="cls-4" cx="252.22" cy="187.02" r="1.16"/>
    <circle class="cls-4" cx="246.82" cy="194.51" r="1.16"/>
    <circle class="cls-4" cx="259.05" cy="203.25" r="1.16"/>
    <circle class="cls-4" cx="263.7" cy="196.27" r="1.16"/>
    <circle class="cls-4" cx="264.86" cy="208.53" r="1.16"/>
    <circle class="cls-4" cx="233.3" cy="201.49" r="1.16"/>
    <circle class="cls-4" cx="227.17" cy="185.86" r="1.16"/>
    <circle class="cls-4" cx="183.49" cy="207.38" r="1.16"/>
  </g>
  <path class="cls-4" d="M231.16,210.83s-1.13-6.02,2-6.04c3.12-.02,3.53,1.44,4.81-1.58s2.79-.41,6.16.8c3.37,1.21-12.97,6.82-12.97,6.82Z"/>
  <path class="cls-4" d="M232.04,212.46s2.43,3.28,6.15,1.47c3.72-1.8,7.84-2.48,7.08-7.78l-11.16,3.85-2.06,2.45Z"/>
  <path class="cls-4" d="M226.18,211.39s14.93-.49,21.91-8.08"/>
  <path class="cls-4" d="M245.81,198.61s1.64,3.88,7.78,5.76"/>
  <path class="cls-2" d="M346.39,280.49c-32.61,9.85-67.58,13.33-101.23,17.48-3.15.39-3.19,5.39,0,5,21.63-2.67,43.25-5.55,64.71-9.3,12.71-2.22,25.48-4.62,37.85-8.36,3.07-.93,1.76-5.76-1.33-4.82h0Z"/>
  <g>
    <circle class="cls-4" cx="264.11" cy="302.96" r="2.38"/>
    <circle class="cls-4" cx="262.96" cy="298.38" r="2.38"/>
    <circle class="cls-4" cx="262.27" cy="293.94" r="2.38"/>
  </g>
  <path class="cls-4" d="M238.79,175.6s-10.73-29.46,18.4-30.06c0,0,20.72.67,14.39,31"/>
  <path class="cls-4" d="M271.71,156.79s5.2,1.83,11.82-5.88c0,0-3.73,7.83-11.92,7.06l.1-1.18Z"/>
  <path class="cls-4" d="M271.3,156.33s5.49-.41,8.46-10.13c0,0-.27,8.67-8.08,11.26l-.38-1.12Z"/>
  <path class="cls-4" d="M272.09,180.25c.93-3.01,1.44-6.33,1.44-9.8,0-13.95-8.25-25.27-18.42-25.27s-18.42,11.31-18.42,25.27c0,2.4-.07,6.15.18,9.25,0,0,12.53-8.19,35.22.55"/>
  <path class="cls-4" d="M276.73,181.78s-22.66-10.76-42.1-1.83"/>
  <circle class="cls-4" cx="257.91" cy="163.48" r="8.65"/>
  <circle class="cls-4" cx="262.18" cy="166.68" r="4.27"/>
  <g class="cls-5">
    <path class="cls-4" d="M176.46,329.81c-2.12-.06-3.65-1.71-3.58-3.88.06-2.01,1.79-3.59,3.84-3.53,2.05.06,3.68,1.84,3.6,3.93-.08,2.03-1.75,3.54-3.87,3.49Z"/>
    <path class="cls-4" d="M176.56,330.16c2.09-.01,3.77,1.67,3.76,3.76-.01,2.05-1.63,3.65-3.71,3.66-2.08.01-3.71-1.56-3.74-3.62-.03-2.15,1.56-3.79,3.69-3.8Z"/>
    <path class="cls-4" d="M176.55,322.04c-2.09,0-3.67-1.58-3.67-3.66,0-2.1,1.7-3.82,3.75-3.78,2.05.04,3.74,1.81,3.7,3.86-.04,2.04-1.67,3.59-3.78,3.58Z"/>
    <path class="cls-4" d="M187.61,318.41c0,1.77-1.43,3.25-3.21,3.3-1.8.06-3.4-1.57-3.38-3.43.02-1.72,1.56-3.21,3.32-3.21,1.85,0,3.26,1.44,3.27,3.33Z"/>
    <path class="cls-4" d="M187.61,326.16c0,1.77-1.44,3.26-3.21,3.29-1.83.03-3.41-1.57-3.38-3.41.03-1.72,1.56-3.2,3.33-3.2,1.86,0,3.26,1.43,3.27,3.33Z"/>
    <path class="cls-4" d="M192.13,316.55c.96.01,1.77.82,1.79,1.78.02,1-.85,1.88-1.83,1.85-1.03-.03-1.79-.84-1.76-1.9.03-.97.84-1.75,1.81-1.73Z"/>
    <path class="cls-4" d="M192.1,324.32c.97,0,1.79.79,1.81,1.74.03,1.01-.81,1.88-1.8,1.88-1.06,0-1.8-.78-1.79-1.86.02-.98.8-1.76,1.78-1.76Z"/>
    <path class="cls-4" d="M186.15,333.87c0,.97-.77,1.78-1.73,1.81-1.05.03-1.85-.73-1.85-1.78,0-1.06.78-1.83,1.83-1.81.98.02,1.75.81,1.75,1.78Z"/>
    <path class="cls-4" d="M192.08,332.08c.96-.01,1.79.77,1.83,1.72.04,1.01-.78,1.87-1.79,1.87-1.05,0-1.85-.8-1.83-1.83.02-.97.8-1.74,1.79-1.75Z"/>
  </g>
</svg>