<svg width="428" height="104" viewBox="0 0 428 104" fill="none" xmlns="http://www.w3.org/2000/svg">
<path d="M51.4142 60.5858C50.1543 61.8457 51.0466 64 52.8284 64H62V50L51.4142 60.5858Z" fill="#5BB398"/>
<path d="M62 8C62 3.58172 65.5817 0 70 0H420C424.418 0 428 3.58172 428 8V56C428 60.4183 424.418 64 420 64H62V8Z" fill="#5BB398"/>
<path d="M62 8C62 3.58172 65.5817 0 70 0H420C424.418 0 428 3.58172 428 8V56C428 60.4183 424.418 64 420 64H62V8Z" fill="url(#paint0_linear_52_72373)" fill-opacity="0.2"/>
<path d="M78.172 27.168C77.4533 27.168 76.828 27.0373 76.296 26.776C75.764 26.5147 75.3533 26.1507 75.064 25.684C74.7747 25.2173 74.63 24.676 74.63 24.06H75.862C75.862 24.4427 75.9507 24.7973 76.128 25.124C76.3053 25.4413 76.562 25.698 76.898 25.894C77.2433 26.0807 77.668 26.174 78.172 26.174C78.6107 26.174 78.984 26.104 79.292 25.964C79.6093 25.8147 79.8473 25.614 80.006 25.362C80.174 25.11 80.258 24.8253 80.258 24.508C80.258 24.1253 80.174 23.8173 80.006 23.584C79.8473 23.3413 79.628 23.1453 79.348 22.996C79.068 22.8467 78.7413 22.716 78.368 22.604C78.004 22.4827 77.6213 22.3567 77.22 22.226C76.4453 21.9647 75.876 21.638 75.512 21.246C75.148 20.854 74.966 20.3453 74.966 19.72C74.966 19.188 75.0873 18.7213 75.33 18.32C75.582 17.9187 75.9367 17.606 76.394 17.382C76.8607 17.1487 77.4113 17.032 78.046 17.032C78.6713 17.032 79.2127 17.1487 79.67 17.382C80.1367 17.6153 80.5007 17.9373 80.762 18.348C81.0233 18.7493 81.154 19.216 81.154 19.748H79.922C79.922 19.4773 79.852 19.2113 79.712 18.95C79.572 18.6887 79.3573 18.474 79.068 18.306C78.788 18.1287 78.4333 18.04 78.004 18.04C77.6493 18.0307 77.332 18.0913 77.052 18.222C76.7813 18.3433 76.5667 18.5207 76.408 18.754C76.2587 18.9873 76.184 19.272 76.184 19.608C76.184 19.9253 76.2493 20.182 76.38 20.378C76.52 20.574 76.716 20.742 76.968 20.882C77.2293 21.0127 77.5327 21.134 77.878 21.246C78.2233 21.358 78.606 21.484 79.026 21.624C79.502 21.7827 79.922 21.9787 80.286 22.212C80.6593 22.436 80.9487 22.7253 81.154 23.08C81.3687 23.4347 81.476 23.8873 81.476 24.438C81.476 24.9047 81.35 25.348 81.098 25.768C80.8553 26.1787 80.4913 26.5147 80.006 26.776C79.5207 27.0373 78.9093 27.168 78.172 27.168ZM83.1011 27V16.92H84.2771V21.134C84.5104 20.714 84.8371 20.3827 85.2571 20.14C85.6864 19.8973 86.1531 19.776 86.6571 19.776C87.1984 19.776 87.6698 19.888 88.0711 20.112C88.4724 20.3267 88.7804 20.658 88.9951 21.106C89.2098 21.554 89.3171 22.1187 89.3171 22.8V27H88.1551V22.926C88.1551 22.2167 88.0058 21.6847 87.7071 21.33C87.4084 20.966 86.9744 20.784 86.4051 20.784C86.0038 20.784 85.6398 20.882 85.3131 21.078C84.9958 21.274 84.7438 21.554 84.5571 21.918C84.3704 22.282 84.2771 22.73 84.2771 23.262V27H83.1011ZM93.4498 27.168C92.8805 27.168 92.4045 27.07 92.0218 26.874C91.6392 26.6687 91.3545 26.4027 91.1678 26.076C90.9812 25.74 90.8878 25.376 90.8878 24.984C90.8878 24.508 91.0092 24.1067 91.2518 23.78C91.5038 23.444 91.8538 23.192 92.3018 23.024C92.7592 22.8467 93.2958 22.758 93.9118 22.758H95.7738C95.7738 22.3193 95.7038 21.9553 95.5638 21.666C95.4332 21.3673 95.2372 21.1433 94.9758 20.994C94.7238 20.8447 94.4065 20.77 94.0238 20.77C93.5758 20.77 93.1885 20.882 92.8618 21.106C92.5352 21.33 92.3345 21.6613 92.2598 22.1H91.0558C91.1118 21.596 91.2798 21.176 91.5598 20.84C91.8492 20.4947 92.2132 20.2333 92.6518 20.056C93.0905 19.8693 93.5478 19.776 94.0238 19.776C94.6772 19.776 95.2185 19.8973 95.6478 20.14C96.0865 20.3733 96.4132 20.7047 96.6278 21.134C96.8425 21.554 96.9498 22.0533 96.9498 22.632V27H95.8998L95.8298 25.754C95.7365 25.95 95.6152 26.1367 95.4658 26.314C95.3258 26.482 95.1578 26.6313 94.9618 26.762C94.7658 26.8833 94.5418 26.9813 94.2898 27.056C94.0472 27.1307 93.7672 27.168 93.4498 27.168ZM93.6318 26.174C93.9585 26.174 94.2525 26.1087 94.5138 25.978C94.7845 25.838 95.0132 25.6513 95.1998 25.418C95.3865 25.1753 95.5265 24.9093 95.6198 24.62C95.7225 24.3307 95.7738 24.0273 95.7738 23.71V23.668H94.0098C93.5525 23.668 93.1838 23.724 92.9038 23.836C92.6238 23.9387 92.4232 24.088 92.3018 24.284C92.1805 24.4707 92.1198 24.6853 92.1198 24.928C92.1198 25.18 92.1758 25.3993 92.2878 25.586C92.4092 25.7727 92.5818 25.9173 92.8058 26.02C93.0392 26.1227 93.3145 26.174 93.6318 26.174ZM98.7691 27V16.92H99.9451V27H98.7691ZM101.886 27V16.92H103.062V27H101.886ZM110.15 27L108.078 19.944H109.254L110.864 25.894H110.654L112.404 19.944H113.734L115.512 25.88L115.288 25.894L116.884 19.944H118.074L116.016 27H114.812L112.964 20.784H113.202L111.354 27H110.15ZM122.234 27.168C121.571 27.168 120.983 27.014 120.47 26.706C119.966 26.398 119.569 25.9687 119.28 25.418C118.991 24.858 118.846 24.2093 118.846 23.472C118.846 22.7253 118.986 22.0767 119.266 21.526C119.555 20.9753 119.957 20.546 120.47 20.238C120.993 19.93 121.59 19.776 122.262 19.776C122.953 19.776 123.536 19.93 124.012 20.238C124.497 20.546 124.866 20.952 125.118 21.456C125.379 21.9507 125.51 22.4967 125.51 23.094C125.51 23.1873 125.51 23.2853 125.51 23.388C125.51 23.4907 125.505 23.6073 125.496 23.738H119.728V22.828H124.362C124.334 22.184 124.119 21.68 123.718 21.316C123.326 20.952 122.831 20.77 122.234 20.77C121.833 20.77 121.459 20.8633 121.114 21.05C120.778 21.2273 120.507 21.4933 120.302 21.848C120.097 22.1933 119.994 22.6273 119.994 23.15V23.542C119.994 24.1207 120.097 24.606 120.302 24.998C120.517 25.39 120.792 25.684 121.128 25.88C121.473 26.076 121.842 26.174 122.234 26.174C122.729 26.174 123.135 26.0667 123.452 25.852C123.779 25.628 124.012 25.3293 124.152 24.956H125.314C125.202 25.376 125.006 25.754 124.726 26.09C124.446 26.426 124.096 26.692 123.676 26.888C123.265 27.0747 122.785 27.168 122.234 27.168ZM133.994 27.168C133.331 27.168 132.734 27.014 132.202 26.706C131.679 26.398 131.269 25.9687 130.97 25.418C130.671 24.858 130.522 24.214 130.522 23.486C130.522 22.7393 130.671 22.0907 130.97 21.54C131.269 20.9893 131.679 20.56 132.202 20.252C132.734 19.9347 133.331 19.776 133.994 19.776C134.834 19.776 135.534 19.9953 136.094 20.434C136.654 20.8633 137.009 21.442 137.158 22.17H135.954C135.861 21.7313 135.632 21.3907 135.268 21.148C134.904 20.9053 134.475 20.784 133.98 20.784C133.579 20.784 133.205 20.8867 132.86 21.092C132.515 21.288 132.239 21.5867 132.034 21.988C131.829 22.3893 131.726 22.884 131.726 23.472C131.726 23.9107 131.787 24.3027 131.908 24.648C132.029 24.984 132.193 25.264 132.398 25.488C132.603 25.712 132.841 25.8847 133.112 26.006C133.392 26.118 133.681 26.174 133.98 26.174C134.316 26.174 134.619 26.1227 134.89 26.02C135.161 25.908 135.389 25.7447 135.576 25.53C135.763 25.3153 135.889 25.0633 135.954 24.774H137.158C137.009 25.4833 136.649 26.062 136.08 26.51C135.52 26.9487 134.825 27.168 133.994 27.168ZM138.828 27V16.92H140.004V21.134C140.237 20.714 140.564 20.3827 140.984 20.14C141.413 19.8973 141.88 19.776 142.384 19.776C142.925 19.776 143.396 19.888 143.798 20.112C144.199 20.3267 144.507 20.658 144.722 21.106C144.936 21.554 145.044 22.1187 145.044 22.8V27H143.882V22.926C143.882 22.2167 143.732 21.6847 143.434 21.33C143.135 20.966 142.701 20.784 142.132 20.784C141.73 20.784 141.366 20.882 141.04 21.078C140.722 21.274 140.47 21.554 140.284 21.918C140.097 22.282 140.004 22.73 140.004 23.262V27H138.828ZM149.974 27.168C149.312 27.168 148.724 27.014 148.21 26.706C147.706 26.398 147.31 25.9687 147.02 25.418C146.731 24.858 146.586 24.2093 146.586 23.472C146.586 22.7253 146.726 22.0767 147.006 21.526C147.296 20.9753 147.697 20.546 148.21 20.238C148.733 19.93 149.33 19.776 150.002 19.776C150.693 19.776 151.276 19.93 151.752 20.238C152.238 20.546 152.606 20.952 152.858 21.456C153.12 21.9507 153.25 22.4967 153.25 23.094C153.25 23.1873 153.25 23.2853 153.25 23.388C153.25 23.4907 153.246 23.6073 153.236 23.738H147.468V22.828H152.102C152.074 22.184 151.86 21.68 151.458 21.316C151.066 20.952 150.572 20.77 149.974 20.77C149.573 20.77 149.2 20.8633 148.854 21.05C148.518 21.2273 148.248 21.4933 148.042 21.848C147.837 22.1933 147.734 22.6273 147.734 23.15V23.542C147.734 24.1207 147.837 24.606 148.042 24.998C148.257 25.39 148.532 25.684 148.868 25.88C149.214 26.076 149.582 26.174 149.974 26.174C150.469 26.174 150.875 26.0667 151.192 25.852C151.519 25.628 151.752 25.3293 151.892 24.956H153.054C152.942 25.376 152.746 25.754 152.466 26.09C152.186 26.426 151.836 26.692 151.416 26.888C151.006 27.0747 150.525 27.168 149.974 27.168ZM157.931 27.168C157.269 27.168 156.681 27.014 156.167 26.706C155.663 26.398 155.267 25.9687 154.977 25.418C154.688 24.858 154.543 24.2093 154.543 23.472C154.543 22.7253 154.683 22.0767 154.963 21.526C155.253 20.9753 155.654 20.546 156.167 20.238C156.69 19.93 157.287 19.776 157.959 19.776C158.65 19.776 159.233 19.93 159.709 20.238C160.195 20.546 160.563 20.952 160.815 21.456C161.077 21.9507 161.207 22.4967 161.207 23.094C161.207 23.1873 161.207 23.2853 161.207 23.388C161.207 23.4907 161.203 23.6073 161.193 23.738H155.425V22.828H160.059C160.031 22.184 159.817 21.68 159.415 21.316C159.023 20.952 158.529 20.77 157.931 20.77C157.53 20.77 157.157 20.8633 156.811 21.05C156.475 21.2273 156.205 21.4933 155.999 21.848C155.794 22.1933 155.691 22.6273 155.691 23.15V23.542C155.691 24.1207 155.794 24.606 155.999 24.998C156.214 25.39 156.489 25.684 156.825 25.88C157.171 26.076 157.539 26.174 157.931 26.174C158.426 26.174 158.832 26.0667 159.149 25.852C159.476 25.628 159.709 25.3293 159.849 24.956H161.011C160.899 25.376 160.703 25.754 160.423 26.09C160.143 26.426 159.793 26.692 159.373 26.888C158.963 27.0747 158.482 27.168 157.931 27.168ZM162.794 27V19.944H163.858L163.942 21.288C164.101 20.9707 164.302 20.7 164.544 20.476C164.796 20.252 165.095 20.0793 165.44 19.958C165.795 19.8367 166.196 19.776 166.644 19.776V21.008H166.21C165.912 21.008 165.627 21.05 165.356 21.134C165.086 21.2087 164.843 21.3347 164.628 21.512C164.423 21.6893 164.26 21.932 164.138 22.24C164.026 22.5387 163.97 22.912 163.97 23.36V27H162.794ZM170.636 27.168C170.048 27.168 169.535 27.07 169.096 26.874C168.667 26.678 168.321 26.4073 168.06 26.062C167.808 25.7073 167.654 25.292 167.598 24.816H168.802C168.849 25.0587 168.947 25.2827 169.096 25.488C169.245 25.6933 169.446 25.8613 169.698 25.992C169.959 26.1133 170.277 26.174 170.65 26.174C170.977 26.174 171.247 26.1273 171.462 26.034C171.677 25.9313 171.835 25.796 171.938 25.628C172.05 25.46 172.106 25.278 172.106 25.082C172.106 24.7927 172.036 24.5733 171.896 24.424C171.765 24.2747 171.569 24.158 171.308 24.074C171.047 23.9807 170.729 23.9013 170.356 23.836C170.048 23.78 169.745 23.7053 169.446 23.612C169.147 23.5187 168.881 23.3973 168.648 23.248C168.415 23.0893 168.228 22.898 168.088 22.674C167.957 22.45 167.892 22.1747 167.892 21.848C167.892 21.4467 167.995 21.092 168.2 20.784C168.405 20.4667 168.699 20.2193 169.082 20.042C169.474 19.8647 169.927 19.776 170.44 19.776C171.196 19.776 171.807 19.958 172.274 20.322C172.741 20.686 173.016 21.2133 173.1 21.904H171.938C171.891 21.5493 171.737 21.274 171.476 21.078C171.224 20.8727 170.874 20.77 170.426 20.77C169.987 20.77 169.651 20.8587 169.418 21.036C169.194 21.2133 169.082 21.4467 169.082 21.736C169.082 21.9227 169.143 22.0907 169.264 22.24C169.395 22.38 169.581 22.5013 169.824 22.604C170.076 22.7067 170.384 22.7907 170.748 22.856C171.215 22.94 171.639 23.052 172.022 23.192C172.405 23.332 172.713 23.542 172.946 23.822C173.189 24.0927 173.31 24.48 173.31 24.984C173.31 25.4227 173.198 25.8053 172.974 26.132C172.759 26.4587 172.451 26.7153 172.05 26.902C171.649 27.0793 171.177 27.168 170.636 27.168ZM181.494 27C181.074 27 180.71 26.9347 180.402 26.804C180.094 26.6733 179.856 26.454 179.688 26.146C179.53 25.8287 179.45 25.404 179.45 24.872V20.938H178.218V19.944H179.45L179.604 18.236H180.626V19.944H182.67V20.938H180.626V24.872C180.626 25.3107 180.715 25.6093 180.892 25.768C181.07 25.9173 181.382 25.992 181.83 25.992H182.586V27H181.494ZM187.163 27.168C186.51 27.168 185.922 27.0187 185.399 26.72C184.877 26.412 184.466 25.9827 184.167 25.432C183.869 24.872 183.719 24.2233 183.719 23.486C183.719 22.73 183.869 22.0767 184.167 21.526C184.475 20.966 184.891 20.5367 185.413 20.238C185.945 19.93 186.538 19.776 187.191 19.776C187.863 19.776 188.456 19.93 188.969 20.238C189.492 20.5367 189.903 20.966 190.201 21.526C190.509 22.0767 190.663 22.7253 190.663 23.472C190.663 24.2187 190.509 24.872 190.201 25.432C189.893 25.9827 189.478 26.412 188.955 26.72C188.433 27.0187 187.835 27.168 187.163 27.168ZM187.177 26.16C187.579 26.16 187.952 26.062 188.297 25.866C188.643 25.6607 188.923 25.3573 189.137 24.956C189.352 24.5547 189.459 24.06 189.459 23.472C189.459 22.8747 189.352 22.38 189.137 21.988C188.932 21.5867 188.657 21.288 188.311 21.092C187.975 20.8867 187.602 20.784 187.191 20.784C186.799 20.784 186.426 20.8867 186.071 21.092C185.726 21.288 185.446 21.5867 185.231 21.988C185.026 22.38 184.923 22.8747 184.923 23.472C184.923 24.06 185.026 24.5547 185.231 24.956C185.446 25.3573 185.721 25.6607 186.057 25.866C186.403 26.062 186.776 26.16 187.177 26.16ZM196.801 30.08L198.523 26.216H198.117L195.345 19.944H196.619L198.915 25.334L201.323 19.944H202.541L198.033 30.08H196.801ZM206.304 27.168C205.65 27.168 205.062 27.0187 204.54 26.72C204.017 26.412 203.606 25.9827 203.308 25.432C203.009 24.872 202.86 24.2233 202.86 23.486C202.86 22.73 203.009 22.0767 203.308 21.526C203.616 20.966 204.031 20.5367 204.554 20.238C205.086 19.93 205.678 19.776 206.332 19.776C207.004 19.776 207.596 19.93 208.11 20.238C208.632 20.5367 209.043 20.966 209.342 21.526C209.65 22.0767 209.804 22.7253 209.804 23.472C209.804 24.2187 209.65 24.872 209.342 25.432C209.034 25.9827 208.618 26.412 208.096 26.72C207.573 27.0187 206.976 27.168 206.304 27.168ZM206.318 26.16C206.719 26.16 207.092 26.062 207.438 25.866C207.783 25.6607 208.063 25.3573 208.278 24.956C208.492 24.5547 208.6 24.06 208.6 23.472C208.6 22.8747 208.492 22.38 208.278 21.988C208.072 21.5867 207.797 21.288 207.452 21.092C207.116 20.8867 206.742 20.784 206.332 20.784C205.94 20.784 205.566 20.8867 205.212 21.092C204.866 21.288 204.586 21.5867 204.372 21.988C204.166 22.38 204.064 22.8747 204.064 23.472C204.064 24.06 204.166 24.5547 204.372 24.956C204.586 25.3573 204.862 25.6607 205.198 25.866C205.543 26.062 205.916 26.16 206.318 26.16ZM214.015 27.168C213.473 27.168 212.997 27.0607 212.587 26.846C212.185 26.6313 211.873 26.3 211.649 25.852C211.434 25.404 211.327 24.844 211.327 24.172V19.944H212.503V24.046C212.503 24.746 212.657 25.2733 212.965 25.628C213.273 25.9827 213.707 26.16 214.267 26.16C214.659 26.16 215.013 26.0667 215.331 25.88C215.648 25.684 215.895 25.4087 216.073 25.054C216.259 24.69 216.353 24.2467 216.353 23.724V19.944H217.529V27H216.465L216.395 25.768C216.18 26.2067 215.863 26.552 215.443 26.804C215.023 27.0467 214.547 27.168 214.015 27.168ZM221.839 30.08V29.072H222.385C222.739 29.072 222.991 28.9973 223.141 28.848C223.29 28.708 223.365 28.4653 223.365 28.12V19.944H224.541V28.148C224.541 28.596 224.466 28.96 224.317 29.24C224.167 29.5293 223.943 29.7393 223.645 29.87C223.355 30.01 222.996 30.08 222.567 30.08H221.839ZM223.967 18.446C223.733 18.446 223.537 18.3713 223.379 18.222C223.229 18.0633 223.155 17.8673 223.155 17.634C223.155 17.4007 223.229 17.214 223.379 17.074C223.537 16.9247 223.733 16.85 223.967 16.85C224.191 16.85 224.377 16.9247 224.527 17.074C224.685 17.214 224.765 17.4007 224.765 17.634C224.765 17.8673 224.685 18.0633 224.527 18.222C224.377 18.3713 224.191 18.446 223.967 18.446ZM229.751 27.168C229.098 27.168 228.51 27.0187 227.987 26.72C227.464 26.412 227.054 25.9827 226.755 25.432C226.456 24.872 226.307 24.2233 226.307 23.486C226.307 22.73 226.456 22.0767 226.755 21.526C227.063 20.966 227.478 20.5367 228.001 20.238C228.533 19.93 229.126 19.776 229.779 19.776C230.451 19.776 231.044 19.93 231.557 20.238C232.08 20.5367 232.49 20.966 232.789 21.526C233.097 22.0767 233.251 22.7253 233.251 23.472C233.251 24.2187 233.097 24.872 232.789 25.432C232.481 25.9827 232.066 26.412 231.543 26.72C231.02 27.0187 230.423 27.168 229.751 27.168ZM229.765 26.16C230.166 26.16 230.54 26.062 230.885 25.866C231.23 25.6607 231.51 25.3573 231.725 24.956C231.94 24.5547 232.047 24.06 232.047 23.472C232.047 22.8747 231.94 22.38 231.725 21.988C231.52 21.5867 231.244 21.288 230.899 21.092C230.563 20.8867 230.19 20.784 229.779 20.784C229.387 20.784 229.014 20.8867 228.659 21.092C228.314 21.288 228.034 21.5867 227.819 21.988C227.614 22.38 227.511 22.8747 227.511 23.472C227.511 24.06 227.614 24.5547 227.819 24.956C228.034 25.3573 228.309 25.6607 228.645 25.866C228.99 26.062 229.364 26.16 229.765 26.16ZM235.012 27V19.944H236.188V27H235.012ZM235.6 18.446C235.367 18.446 235.171 18.3713 235.012 18.222C234.863 18.0633 234.788 17.8673 234.788 17.634C234.788 17.4007 234.863 17.214 235.012 17.074C235.171 16.9247 235.367 16.85 235.6 16.85C235.824 16.85 236.015 16.9247 236.174 17.074C236.333 17.214 236.412 17.4007 236.412 17.634C236.412 17.8673 236.333 18.0633 236.174 18.222C236.015 18.3713 235.824 18.446 235.6 18.446ZM238.263 27V19.944H239.327L239.383 21.176C239.607 20.7373 239.925 20.3967 240.335 20.154C240.755 19.902 241.231 19.776 241.763 19.776C242.314 19.776 242.79 19.888 243.191 20.112C243.593 20.3267 243.905 20.658 244.129 21.106C244.353 21.5447 244.465 22.1047 244.465 22.786V27H243.289V22.912C243.289 22.2027 243.131 21.6707 242.813 21.316C242.505 20.9613 242.067 20.784 241.497 20.784C241.105 20.784 240.755 20.882 240.447 21.078C240.139 21.2647 239.892 21.54 239.705 21.904C239.528 22.2587 239.439 22.702 239.439 23.234V27H238.263ZM246.414 27V19.944H247.59V27H246.414ZM247.002 18.446C246.769 18.446 246.573 18.3713 246.414 18.222C246.265 18.0633 246.19 17.8673 246.19 17.634C246.19 17.4007 246.265 17.214 246.414 17.074C246.573 16.9247 246.769 16.85 247.002 16.85C247.226 16.85 247.418 16.9247 247.576 17.074C247.735 17.214 247.814 17.4007 247.814 17.634C247.814 17.8673 247.735 18.0633 247.576 18.222C247.418 18.3713 247.226 18.446 247.002 18.446ZM249.666 27V19.944H250.73L250.786 21.176C251.01 20.7373 251.327 20.3967 251.738 20.154C252.158 19.902 252.634 19.776 253.166 19.776C253.716 19.776 254.192 19.888 254.594 20.112C254.995 20.3267 255.308 20.658 255.532 21.106C255.756 21.5447 255.868 22.1047 255.868 22.786V27H254.692V22.912C254.692 22.2027 254.533 21.6707 254.216 21.316C253.908 20.9613 253.469 20.784 252.9 20.784C252.508 20.784 252.158 20.882 251.85 21.078C251.542 21.2647 251.294 21.54 251.108 21.904C250.93 22.2587 250.842 22.702 250.842 23.234V27H249.666ZM261.177 30.248C260.719 30.248 260.29 30.1873 259.889 30.066C259.497 29.954 259.142 29.786 258.825 29.562C258.507 29.338 258.246 29.0627 258.041 28.736C257.835 28.4093 257.695 28.0407 257.621 27.63H258.783C258.885 27.938 259.044 28.2133 259.259 28.456C259.483 28.6987 259.758 28.8853 260.085 29.016C260.411 29.156 260.771 29.226 261.163 29.226C261.62 29.226 262.026 29.128 262.381 28.932C262.745 28.7453 263.029 28.456 263.235 28.064C263.449 27.6813 263.557 27.196 263.557 26.608V25.6C263.407 25.8613 263.211 26.1087 262.969 26.342C262.726 26.566 262.427 26.748 262.073 26.888C261.727 27.028 261.326 27.098 260.869 27.098C260.225 27.098 259.641 26.944 259.119 26.636C258.596 26.3187 258.181 25.8847 257.873 25.334C257.565 24.774 257.411 24.1393 257.411 23.43C257.411 22.7113 257.565 22.0813 257.873 21.54C258.181 20.9893 258.596 20.56 259.119 20.252C259.651 19.9347 260.239 19.776 260.883 19.776C261.293 19.776 261.671 19.8413 262.017 19.972C262.362 20.0933 262.665 20.2613 262.927 20.476C263.188 20.6907 263.398 20.9287 263.557 21.19L263.669 19.944H264.733V26.594C264.733 27.1727 264.644 27.686 264.467 28.134C264.289 28.5913 264.042 28.974 263.725 29.282C263.417 29.5993 263.043 29.8373 262.605 29.996C262.175 30.164 261.699 30.248 261.177 30.248ZM261.051 26.076C261.536 26.076 261.961 25.964 262.325 25.74C262.698 25.516 262.987 25.208 263.193 24.816C263.407 24.4147 263.515 23.9527 263.515 23.43C263.515 22.898 263.407 22.436 263.193 22.044C262.987 21.652 262.698 21.3487 262.325 21.134C261.961 20.91 261.536 20.798 261.051 20.798C260.593 20.798 260.178 20.91 259.805 21.134C259.431 21.3487 259.137 21.652 258.923 22.044C258.717 22.436 258.615 22.898 258.615 23.43C258.615 23.9527 258.717 24.4147 258.923 24.816C259.137 25.208 259.431 25.516 259.805 25.74C260.178 25.964 260.593 26.076 261.051 26.076ZM270.392 27V19.944H271.456L271.526 20.952C271.75 20.588 272.049 20.3033 272.422 20.098C272.805 19.8833 273.22 19.776 273.668 19.776C274.032 19.776 274.359 19.8273 274.648 19.93C274.947 20.0233 275.208 20.1727 275.432 20.378C275.656 20.574 275.838 20.826 275.978 21.134C276.221 20.7047 276.552 20.3733 276.972 20.14C277.401 19.8973 277.859 19.776 278.344 19.776C278.885 19.776 279.357 19.888 279.758 20.112C280.169 20.3267 280.481 20.658 280.696 21.106C280.92 21.5447 281.032 22.1047 281.032 22.786V27H279.87V22.912C279.87 22.2027 279.725 21.6707 279.436 21.316C279.147 20.9613 278.741 20.784 278.218 20.784C277.854 20.784 277.527 20.882 277.238 21.078C276.949 21.2647 276.72 21.54 276.552 21.904C276.384 22.268 276.3 22.716 276.3 23.248V27H275.124V22.912C275.124 22.2027 274.979 21.6707 274.69 21.316C274.401 20.9613 273.99 20.784 273.458 20.784C273.103 20.784 272.781 20.882 272.492 21.078C272.212 21.2647 271.988 21.54 271.82 21.904C271.652 22.268 271.568 22.716 271.568 23.248V27H270.392ZM285.955 27.168C285.292 27.168 284.704 27.014 284.191 26.706C283.687 26.398 283.29 25.9687 283.001 25.418C282.712 24.858 282.567 24.2093 282.567 23.472C282.567 22.7253 282.707 22.0767 282.987 21.526C283.276 20.9753 283.678 20.546 284.191 20.238C284.714 19.93 285.311 19.776 285.983 19.776C286.674 19.776 287.257 19.93 287.733 20.238C288.218 20.546 288.587 20.952 288.839 21.456C289.1 21.9507 289.231 22.4967 289.231 23.094C289.231 23.1873 289.231 23.2853 289.231 23.388C289.231 23.4907 289.226 23.6073 289.217 23.738H283.449V22.828H288.083C288.055 22.184 287.84 21.68 287.439 21.316C287.047 20.952 286.552 20.77 285.955 20.77C285.554 20.77 285.18 20.8633 284.835 21.05C284.499 21.2273 284.228 21.4933 284.023 21.848C283.818 22.1933 283.715 22.6273 283.715 23.15V23.542C283.715 24.1207 283.818 24.606 284.023 24.998C284.238 25.39 284.513 25.684 284.849 25.88C285.194 26.076 285.563 26.174 285.955 26.174C286.45 26.174 286.856 26.0667 287.173 25.852C287.5 25.628 287.733 25.3293 287.873 24.956H289.035C288.923 25.376 288.727 25.754 288.447 26.09C288.167 26.426 287.817 26.692 287.397 26.888C286.986 27.0747 286.506 27.168 285.955 27.168ZM291.776 24.186L291.72 22.002H292.154C292.546 22.002 292.92 21.9787 293.274 21.932C293.638 21.876 293.956 21.778 294.226 21.638C294.506 21.4887 294.726 21.274 294.884 20.994C295.052 20.714 295.136 20.35 295.136 19.902C295.136 19.51 295.052 19.174 294.884 18.894C294.716 18.614 294.483 18.3993 294.184 18.25C293.886 18.1007 293.54 18.026 293.148 18.026C292.756 18.026 292.411 18.1007 292.112 18.25C291.814 18.3993 291.58 18.6093 291.412 18.88C291.254 19.1413 291.174 19.4587 291.174 19.832H290.054C290.054 19.272 290.185 18.782 290.446 18.362C290.708 17.942 291.072 17.6153 291.538 17.382C292.005 17.1487 292.542 17.032 293.148 17.032C293.755 17.032 294.292 17.1487 294.758 17.382C295.234 17.6153 295.603 17.9467 295.864 18.376C296.135 18.8053 296.27 19.314 296.27 19.902C296.27 20.5927 296.121 21.1527 295.822 21.582C295.533 22.0113 295.132 22.324 294.618 22.52C294.105 22.716 293.512 22.814 292.84 22.814L292.798 24.186H291.776ZM292.28 27.07C292.047 27.07 291.851 26.9953 291.692 26.846C291.543 26.6873 291.468 26.496 291.468 26.272C291.468 26.048 291.543 25.8613 291.692 25.712C291.851 25.5533 292.047 25.474 292.28 25.474C292.514 25.474 292.705 25.5533 292.854 25.712C293.004 25.8613 293.078 26.048 293.078 26.272C293.078 26.496 293.004 26.6873 292.854 26.846C292.705 26.9953 292.514 27.07 292.28 27.07ZM76.926 41.96L77.094 39.818L75.358 41.036L74.868 40.182L76.814 39.328L74.882 38.488L75.344 37.662L77.108 38.88L76.912 36.738H77.864L77.654 38.88L79.404 37.662L79.852 38.474L77.92 39.342L79.866 40.196L79.404 41.022L77.654 39.818L77.85 41.96H76.926ZM86.0326 47.168C85.0806 47.168 84.2546 46.958 83.5546 46.538C82.8639 46.1087 82.3319 45.516 81.9586 44.76C81.5852 43.9947 81.3986 43.108 81.3986 42.1C81.3986 41.092 81.5852 40.21 81.9586 39.454C82.3319 38.6887 82.8639 38.096 83.5546 37.676C84.2546 37.2467 85.0806 37.032 86.0326 37.032C87.1526 37.032 88.0626 37.298 88.7626 37.83C89.4626 38.362 89.9106 39.1133 90.1066 40.084H88.8046C88.6552 39.4773 88.3519 38.992 87.8946 38.628C87.4372 38.2547 86.8166 38.068 86.0326 38.068C85.3326 38.068 84.7259 38.2313 84.2126 38.558C83.6992 38.8753 83.3026 39.3373 83.0226 39.944C82.7426 40.5413 82.6026 41.26 82.6026 42.1C82.6026 42.94 82.7426 43.6633 83.0226 44.27C83.3026 44.8673 83.6992 45.3293 84.2126 45.656C84.7259 45.9733 85.3326 46.132 86.0326 46.132C86.8166 46.132 87.4372 45.9547 87.8946 45.6C88.3519 45.236 88.6552 44.7553 88.8046 44.158H90.1066C89.9106 45.1007 89.4626 45.838 88.7626 46.37C88.0626 46.902 87.1526 47.168 86.0326 47.168ZM91.7417 47V36.92H92.9177V47H91.7417ZM97.1549 47.168C96.5856 47.168 96.1096 47.07 95.7269 46.874C95.3442 46.6687 95.0596 46.4027 94.8729 46.076C94.6862 45.74 94.5929 45.376 94.5929 44.984C94.5929 44.508 94.7142 44.1067 94.9569 43.78C95.2089 43.444 95.5589 43.192 96.0069 43.024C96.4642 42.8467 97.0009 42.758 97.6169 42.758H99.4789C99.4789 42.3193 99.4089 41.9553 99.2689 41.666C99.1382 41.3673 98.9422 41.1433 98.6809 40.994C98.4289 40.8447 98.1116 40.77 97.7289 40.77C97.2809 40.77 96.8936 40.882 96.5669 41.106C96.2402 41.33 96.0396 41.6613 95.9649 42.1H94.7609C94.8169 41.596 94.9849 41.176 95.2649 40.84C95.5542 40.4947 95.9182 40.2333 96.3569 40.056C96.7956 39.8693 97.2529 39.776 97.7289 39.776C98.3822 39.776 98.9236 39.8973 99.3529 40.14C99.7916 40.3733 100.118 40.7047 100.333 41.134C100.548 41.554 100.655 42.0533 100.655 42.632V47H99.6049L99.5349 45.754C99.4416 45.95 99.3202 46.1367 99.1709 46.314C99.0309 46.482 98.8629 46.6313 98.6669 46.762C98.4709 46.8833 98.2469 46.9813 97.9949 47.056C97.7522 47.1307 97.4722 47.168 97.1549 47.168ZM97.3369 46.174C97.6636 46.174 97.9576 46.1087 98.2189 45.978C98.4896 45.838 98.7182 45.6513 98.9049 45.418C99.0916 45.1753 99.2316 44.9093 99.3249 44.62C99.4276 44.3307 99.4789 44.0273 99.4789 43.71V43.668H97.7149C97.2576 43.668 96.8889 43.724 96.6089 43.836C96.3289 43.9387 96.1282 44.088 96.0069 44.284C95.8856 44.4707 95.8249 44.6853 95.8249 44.928C95.8249 45.18 95.8809 45.3993 95.9929 45.586C96.1142 45.7727 96.2869 45.9173 96.5109 46.02C96.7442 46.1227 97.0196 46.174 97.3369 46.174ZM102.474 47V39.944H103.538L103.594 41.176C103.818 40.7373 104.135 40.3967 104.546 40.154C104.966 39.902 105.442 39.776 105.974 39.776C106.525 39.776 107.001 39.888 107.402 40.112C107.803 40.3267 108.116 40.658 108.34 41.106C108.564 41.5447 108.676 42.1047 108.676 42.786V47H107.5V42.912C107.5 42.2027 107.341 41.6707 107.024 41.316C106.716 40.9613 106.277 40.784 105.708 40.784C105.316 40.784 104.966 40.882 104.658 41.078C104.35 41.2647 104.103 41.54 103.916 41.904C103.739 42.2587 103.65 42.702 103.65 43.234V47H102.474ZM114.853 47L111.493 43.136L114.559 39.944H116.001L112.487 43.556L112.501 42.716L116.351 47H114.853ZM110.513 47V36.92H111.689V47H110.513ZM119.818 47.168C119.23 47.168 118.716 47.07 118.278 46.874C117.848 46.678 117.503 46.4073 117.242 46.062C116.99 45.7073 116.836 45.292 116.78 44.816H117.984C118.03 45.0587 118.128 45.2827 118.278 45.488C118.427 45.6933 118.628 45.8613 118.88 45.992C119.141 46.1133 119.458 46.174 119.832 46.174C120.158 46.174 120.429 46.1273 120.644 46.034C120.858 45.9313 121.017 45.796 121.12 45.628C121.232 45.46 121.288 45.278 121.288 45.082C121.288 44.7927 121.218 44.5733 121.078 44.424C120.947 44.2747 120.751 44.158 120.49 44.074C120.228 43.9807 119.911 43.9013 119.538 43.836C119.23 43.78 118.926 43.7053 118.628 43.612C118.329 43.5187 118.063 43.3973 117.83 43.248C117.596 43.0893 117.41 42.898 117.27 42.674C117.139 42.45 117.074 42.1747 117.074 41.848C117.074 41.4467 117.176 41.092 117.382 40.784C117.587 40.4667 117.881 40.2193 118.264 40.042C118.656 39.8647 119.108 39.776 119.622 39.776C120.378 39.776 120.989 39.958 121.456 40.322C121.922 40.686 122.198 41.2133 122.282 41.904H121.12C121.073 41.5493 120.919 41.274 120.658 41.078C120.406 40.8727 120.056 40.77 119.608 40.77C119.169 40.77 118.833 40.8587 118.6 41.036C118.376 41.2133 118.264 41.4467 118.264 41.736C118.264 41.9227 118.324 42.0907 118.446 42.24C118.576 42.38 118.763 42.5013 119.006 42.604C119.258 42.7067 119.566 42.7907 119.93 42.856C120.396 42.94 120.821 43.052 121.204 43.192C121.586 43.332 121.894 43.542 122.128 43.822C122.37 44.0927 122.492 44.48 122.492 44.984C122.492 45.4227 122.38 45.8053 122.156 46.132C121.941 46.4587 121.633 46.7153 121.232 46.902C120.83 47.0793 120.359 47.168 119.818 47.168ZM130.676 47C130.256 47 129.892 46.9347 129.584 46.804C129.276 46.6733 129.038 46.454 128.87 46.146C128.711 45.8287 128.632 45.404 128.632 44.872V40.938H127.4V39.944H128.632L128.786 38.236H129.808V39.944H131.852V40.938H129.808V44.872C129.808 45.3107 129.896 45.6093 130.074 45.768C130.251 45.9173 130.564 45.992 131.012 45.992H131.768V47H130.676ZM136.289 47.168C135.626 47.168 135.038 47.014 134.525 46.706C134.021 46.398 133.624 45.9687 133.335 45.418C133.046 44.858 132.901 44.2093 132.901 43.472C132.901 42.7253 133.041 42.0767 133.321 41.526C133.61 40.9753 134.012 40.546 134.525 40.238C135.048 39.93 135.645 39.776 136.317 39.776C137.008 39.776 137.591 39.93 138.067 40.238C138.552 40.546 138.921 40.952 139.173 41.456C139.434 41.9507 139.565 42.4967 139.565 43.094C139.565 43.1873 139.565 43.2853 139.565 43.388C139.565 43.4907 139.56 43.6073 139.551 43.738H133.783V42.828H138.417C138.389 42.184 138.174 41.68 137.773 41.316C137.381 40.952 136.886 40.77 136.289 40.77C135.888 40.77 135.514 40.8633 135.169 41.05C134.833 41.2273 134.562 41.4933 134.357 41.848C134.152 42.1933 134.049 42.6273 134.049 43.15V43.542C134.049 44.1207 134.152 44.606 134.357 44.998C134.572 45.39 134.847 45.684 135.183 45.88C135.528 46.076 135.897 46.174 136.289 46.174C136.784 46.174 137.19 46.0667 137.507 45.852C137.834 45.628 138.067 45.3293 138.207 44.956H139.369C139.257 45.376 139.061 45.754 138.781 46.09C138.501 46.426 138.151 46.692 137.731 46.888C137.32 47.0747 136.84 47.168 136.289 47.168ZM143.448 47.168C142.879 47.168 142.403 47.07 142.02 46.874C141.637 46.6687 141.353 46.4027 141.166 46.076C140.979 45.74 140.886 45.376 140.886 44.984C140.886 44.508 141.007 44.1067 141.25 43.78C141.502 43.444 141.852 43.192 142.3 43.024C142.757 42.8467 143.294 42.758 143.91 42.758H145.772C145.772 42.3193 145.702 41.9553 145.562 41.666C145.431 41.3673 145.235 41.1433 144.974 40.994C144.722 40.8447 144.405 40.77 144.022 40.77C143.574 40.77 143.187 40.882 142.86 41.106C142.533 41.33 142.333 41.6613 142.258 42.1H141.054C141.11 41.596 141.278 41.176 141.558 40.84C141.847 40.4947 142.211 40.2333 142.65 40.056C143.089 39.8693 143.546 39.776 144.022 39.776C144.675 39.776 145.217 39.8973 145.646 40.14C146.085 40.3733 146.411 40.7047 146.626 41.134C146.841 41.554 146.948 42.0533 146.948 42.632V47H145.898L145.828 45.754C145.735 45.95 145.613 46.1367 145.464 46.314C145.324 46.482 145.156 46.6313 144.96 46.762C144.764 46.8833 144.54 46.9813 144.288 47.056C144.045 47.1307 143.765 47.168 143.448 47.168ZM143.63 46.174C143.957 46.174 144.251 46.1087 144.512 45.978C144.783 45.838 145.011 45.6513 145.198 45.418C145.385 45.1753 145.525 44.9093 145.618 44.62C145.721 44.3307 145.772 44.0273 145.772 43.71V43.668H144.008C143.551 43.668 143.182 43.724 142.902 43.836C142.622 43.9387 142.421 44.088 142.3 44.284C142.179 44.4707 142.118 44.6853 142.118 44.928C142.118 45.18 142.174 45.3993 142.286 45.586C142.407 45.7727 142.58 45.9173 142.804 46.02C143.037 46.1227 143.313 46.174 143.63 46.174ZM151.945 47.168C151.282 47.168 150.685 47.014 150.153 46.706C149.63 46.398 149.22 45.9687 148.921 45.418C148.622 44.858 148.473 44.214 148.473 43.486C148.473 42.7393 148.622 42.0907 148.921 41.54C149.22 40.9893 149.63 40.56 150.153 40.252C150.685 39.9347 151.282 39.776 151.945 39.776C152.785 39.776 153.485 39.9953 154.045 40.434C154.605 40.8633 154.96 41.442 155.109 42.17H153.905C153.812 41.7313 153.583 41.3907 153.219 41.148C152.855 40.9053 152.426 40.784 151.931 40.784C151.53 40.784 151.156 40.8867 150.811 41.092C150.466 41.288 150.19 41.5867 149.985 41.988C149.78 42.3893 149.677 42.884 149.677 43.472C149.677 43.9107 149.738 44.3027 149.859 44.648C149.98 44.984 150.144 45.264 150.349 45.488C150.554 45.712 150.792 45.8847 151.063 46.006C151.343 46.118 151.632 46.174 151.931 46.174C152.267 46.174 152.57 46.1227 152.841 46.02C153.112 45.908 153.34 45.7447 153.527 45.53C153.714 45.3153 153.84 45.0633 153.905 44.774H155.109C154.96 45.4833 154.6 46.062 154.031 46.51C153.471 46.9487 152.776 47.168 151.945 47.168ZM159.341 47.168C158.799 47.168 158.323 47.0607 157.913 46.846C157.511 46.6313 157.199 46.3 156.975 45.852C156.76 45.404 156.653 44.844 156.653 44.172V39.944H157.829V44.046C157.829 44.746 157.983 45.2733 158.291 45.628C158.599 45.9827 159.033 46.16 159.593 46.16C159.985 46.16 160.339 46.0667 160.657 45.88C160.974 45.684 161.221 45.4087 161.399 45.054C161.585 44.69 161.679 44.2467 161.679 43.724V39.944H162.855V47H161.791L161.721 45.768C161.506 46.2067 161.189 46.552 160.769 46.804C160.349 47.0467 159.873 47.168 159.341 47.168ZM164.804 50.08V39.944H165.868L165.966 41.092C166.116 40.868 166.307 40.658 166.54 40.462C166.774 40.2567 167.054 40.0933 167.38 39.972C167.707 39.8413 168.08 39.776 168.5 39.776C169.191 39.776 169.788 39.9393 170.292 40.266C170.806 40.5927 171.202 41.036 171.482 41.596C171.772 42.1467 171.916 42.7767 171.916 43.486C171.916 44.1953 171.772 44.83 171.482 45.39C171.202 45.9407 170.806 46.3747 170.292 46.692C169.779 47.0093 169.177 47.168 168.486 47.168C167.917 47.168 167.413 47.0513 166.974 46.818C166.545 46.5847 166.214 46.258 165.98 45.838V50.08H164.804ZM168.36 46.146C168.818 46.146 169.224 46.034 169.578 45.81C169.933 45.586 170.208 45.278 170.404 44.886C170.61 44.4847 170.712 44.0133 170.712 43.472C170.712 42.94 170.61 42.4733 170.404 42.072C170.208 41.6707 169.933 41.358 169.578 41.134C169.224 40.91 168.818 40.798 168.36 40.798C167.894 40.798 167.483 40.91 167.128 41.134C166.774 41.358 166.498 41.6707 166.302 42.072C166.106 42.4733 166.008 42.94 166.008 43.472C166.008 44.0133 166.106 44.4847 166.302 44.886C166.498 45.278 166.774 45.586 167.128 45.81C167.483 46.034 167.894 46.146 168.36 46.146ZM176.228 47.168C175.64 47.168 175.127 47.07 174.688 46.874C174.259 46.678 173.913 46.4073 173.652 46.062C173.4 45.7073 173.246 45.292 173.19 44.816H174.394C174.441 45.0587 174.539 45.2827 174.688 45.488C174.837 45.6933 175.038 45.8613 175.29 45.992C175.551 46.1133 175.869 46.174 176.242 46.174C176.569 46.174 176.839 46.1273 177.054 46.034C177.269 45.9313 177.427 45.796 177.53 45.628C177.642 45.46 177.698 45.278 177.698 45.082C177.698 44.7927 177.628 44.5733 177.488 44.424C177.357 44.2747 177.161 44.158 176.9 44.074C176.639 43.9807 176.321 43.9013 175.948 43.836C175.64 43.78 175.337 43.7053 175.038 43.612C174.739 43.5187 174.473 43.3973 174.24 43.248C174.007 43.0893 173.82 42.898 173.68 42.674C173.549 42.45 173.484 42.1747 173.484 41.848C173.484 41.4467 173.587 41.092 173.792 40.784C173.997 40.4667 174.291 40.2193 174.674 40.042C175.066 39.8647 175.519 39.776 176.032 39.776C176.788 39.776 177.399 39.958 177.866 40.322C178.333 40.686 178.608 41.2133 178.692 41.904H177.53C177.483 41.5493 177.329 41.274 177.068 41.078C176.816 40.8727 176.466 40.77 176.018 40.77C175.579 40.77 175.243 40.8587 175.01 41.036C174.786 41.2133 174.674 41.4467 174.674 41.736C174.674 41.9227 174.735 42.0907 174.856 42.24C174.987 42.38 175.173 42.5013 175.416 42.604C175.668 42.7067 175.976 42.7907 176.34 42.856C176.807 42.94 177.231 43.052 177.614 43.192C177.997 43.332 178.305 43.542 178.538 43.822C178.781 44.0927 178.902 44.48 178.902 44.984C178.902 45.4227 178.79 45.8053 178.566 46.132C178.351 46.4587 178.043 46.7153 177.642 46.902C177.241 47.0793 176.769 47.168 176.228 47.168ZM182.022 41.96L182.19 39.818L180.454 41.036L179.964 40.182L181.91 39.328L179.978 38.488L180.44 37.662L182.204 38.88L182.008 36.738H182.96L182.75 38.88L184.5 37.662L184.948 38.474L183.016 39.342L184.962 40.196L184.5 41.022L182.75 39.818L182.946 41.96H182.022Z" fill="white"/>
<rect y="64" width="40" height="40" rx="8" fill="#5BB398" fill-opacity="0.1"/>
<defs>
<linearGradient id="paint0_linear_52_72373" x1="62" y1="64" x2="415.227" y2="-42.4024" gradientUnits="userSpaceOnUse">
<stop offset="0.043503" stop-color="white" stop-opacity="0"/>
<stop offset="1" stop-color="white"/>
</linearGradient>
</defs>
</svg>
