<svg width="428" height="104" viewBox="0 0 428 104" fill="none" xmlns="http://www.w3.org/2000/svg">
<path d="M51.4142 60.5858C50.1543 61.8457 51.0466 64 52.8284 64H62V50L51.4142 60.5858Z" fill="#5BB398"/>
<path d="M62 8C62 3.58172 65.5817 0 70 0H420C424.418 0 428 3.58172 428 8V56C428 60.4183 424.418 64 420 64H62V8Z" fill="#5BB398"/>
<path d="M62 8C62 3.58172 65.5817 0 70 0H420C424.418 0 428 3.58172 428 8V56C428 60.4183 424.418 64 420 64H62V8Z" fill="url(#paint0_linear_79_13539)" fill-opacity="0.2"/>
<path d="M79.124 22.674L79.18 24.844H78.746C78.354 24.844 77.976 24.872 77.612 24.928C77.2573 24.9747 76.94 25.0727 76.66 25.222C76.3893 25.3713 76.17 25.586 76.002 25.866C75.8433 26.1367 75.764 26.496 75.764 26.944C75.764 27.3267 75.848 27.658 76.016 27.938C76.184 28.2273 76.4173 28.4467 76.716 28.596C77.0147 28.7453 77.36 28.82 77.752 28.82C78.1533 28.82 78.4987 28.7453 78.788 28.596C79.0867 28.4467 79.3153 28.2367 79.474 27.966C79.642 27.6953 79.726 27.378 79.726 27.014H80.846C80.846 27.574 80.7107 28.064 80.44 28.484C80.1787 28.904 79.8147 29.2307 79.348 29.464C78.8907 29.6973 78.3587 29.814 77.752 29.814C77.1453 29.814 76.604 29.6973 76.128 29.464C75.6613 29.2307 75.2927 28.8993 75.022 28.47C74.7607 28.0407 74.63 27.532 74.63 26.944C74.63 26.2533 74.7747 25.6933 75.064 25.264C75.3627 24.8347 75.7687 24.522 76.282 24.326C76.8047 24.13 77.3973 24.032 78.06 24.032L78.088 22.674H79.124ZM78.62 19.776C78.844 19.776 79.0353 19.8553 79.194 20.014C79.3527 20.1633 79.432 20.35 79.432 20.574C79.432 20.798 79.3527 20.9893 79.194 21.148C79.0353 21.2973 78.844 21.372 78.62 21.372C78.3867 21.372 78.1953 21.2973 78.046 21.148C77.8967 20.9893 77.822 20.798 77.822 20.574C77.822 20.35 77.8967 20.1633 78.046 20.014C78.1953 19.8553 78.3867 19.776 78.62 19.776ZM82.3918 27V17.2H85.8358C86.5265 17.2 87.0958 17.312 87.5438 17.536C88.0011 17.7507 88.3418 18.0493 88.5658 18.432C88.7898 18.8053 88.9018 19.2253 88.9018 19.692C88.9018 20.196 88.7898 20.616 88.5658 20.952C88.3511 21.288 88.0665 21.5447 87.7118 21.722C87.3665 21.8993 86.9978 22.0067 86.6058 22.044L86.8018 21.904C87.2218 21.9133 87.6091 22.0253 87.9638 22.24C88.3185 22.4547 88.5985 22.744 88.8038 23.108C89.0185 23.472 89.1258 23.878 89.1258 24.326C89.1258 24.8207 89.0045 25.2733 88.7618 25.684C88.5191 26.0853 88.1598 26.4073 87.6838 26.65C87.2171 26.8833 86.6385 27 85.9478 27H82.3918ZM83.5678 26.02H85.8218C86.4845 26.02 86.9978 25.866 87.3618 25.558C87.7351 25.2407 87.9218 24.802 87.9218 24.242C87.9218 23.6913 87.7305 23.2527 87.3478 22.926C86.9745 22.59 86.4565 22.422 85.7938 22.422H83.5678V26.02ZM83.5678 21.484H85.7518C86.3865 21.484 86.8671 21.3347 87.1938 21.036C87.5298 20.7373 87.6978 20.3313 87.6978 19.818C87.6978 19.3233 87.5298 18.9267 87.1938 18.628C86.8671 18.3293 86.3725 18.18 85.7098 18.18H83.5678V21.484ZM90.7573 27V19.944H91.8213L91.9053 21.288C92.064 20.9707 92.2647 20.7 92.5073 20.476C92.7593 20.252 93.058 20.0793 93.4033 19.958C93.758 19.8367 94.1593 19.776 94.6073 19.776V21.008H94.1733C93.8747 21.008 93.59 21.05 93.3193 21.134C93.0487 21.2087 92.806 21.3347 92.5913 21.512C92.386 21.6893 92.2227 21.932 92.1013 22.24C91.9893 22.5387 91.9333 22.912 91.9333 23.36V27H90.7573ZM96.051 27V19.944H97.227V27H96.051ZM96.639 18.446C96.4057 18.446 96.2097 18.3713 96.051 18.222C95.9017 18.0633 95.827 17.8673 95.827 17.634C95.827 17.4007 95.9017 17.214 96.051 17.074C96.2097 16.9247 96.4057 16.85 96.639 16.85C96.863 16.85 97.0543 16.9247 97.213 17.074C97.3717 17.214 97.451 17.4007 97.451 17.634C97.451 17.8673 97.3717 18.0633 97.213 18.222C97.0543 18.3713 96.863 18.446 96.639 18.446ZM99.3023 27V19.944H100.366L100.422 21.176C100.646 20.7373 100.964 20.3967 101.374 20.154C101.794 19.902 102.27 19.776 102.802 19.776C103.353 19.776 103.829 19.888 104.23 20.112C104.632 20.3267 104.944 20.658 105.168 21.106C105.392 21.5447 105.504 22.1047 105.504 22.786V27H104.328V22.912C104.328 22.2027 104.17 21.6707 103.852 21.316C103.544 20.9613 103.106 20.784 102.536 20.784C102.144 20.784 101.794 20.882 101.486 21.078C101.178 21.2647 100.931 21.54 100.744 21.904C100.567 22.2587 100.478 22.702 100.478 23.234V27H99.3023ZM110.449 27.168C109.768 27.168 109.171 27.0093 108.657 26.692C108.144 26.3653 107.747 25.922 107.467 25.362C107.187 24.802 107.047 24.1673 107.047 23.458C107.047 22.7487 107.187 22.1187 107.467 21.568C107.747 21.008 108.144 20.5693 108.657 20.252C109.18 19.9347 109.782 19.776 110.463 19.776C111.042 19.776 111.546 19.8927 111.975 20.126C112.414 20.3593 112.75 20.686 112.983 21.106V16.92H114.159V27H113.095L112.997 25.838C112.848 26.0713 112.657 26.2907 112.423 26.496C112.19 26.692 111.91 26.8553 111.583 26.986C111.257 27.1073 110.879 27.168 110.449 27.168ZM110.589 26.146C111.056 26.146 111.467 26.034 111.821 25.81C112.176 25.586 112.451 25.278 112.647 24.886C112.843 24.4847 112.941 24.0133 112.941 23.472C112.941 22.94 112.843 22.4733 112.647 22.072C112.451 21.6707 112.176 21.358 111.821 21.134C111.467 20.91 111.056 20.798 110.589 20.798C110.132 20.798 109.726 20.91 109.371 21.134C109.017 21.358 108.741 21.6707 108.545 22.072C108.349 22.4733 108.251 22.94 108.251 23.472C108.251 24.0133 108.349 24.4847 108.545 24.886C108.741 25.278 109.017 25.586 109.371 25.81C109.726 26.034 110.132 26.146 110.589 26.146ZM118.415 27.168C117.845 27.168 117.369 27.07 116.987 26.874C116.604 26.6687 116.319 26.4027 116.133 26.076C115.946 25.74 115.853 25.376 115.853 24.984C115.853 24.508 115.974 24.1067 116.217 23.78C116.469 23.444 116.819 23.192 117.267 23.024C117.724 22.8467 118.261 22.758 118.877 22.758H120.739C120.739 22.3193 120.669 21.9553 120.529 21.666C120.398 21.3673 120.202 21.1433 119.941 20.994C119.689 20.8447 119.371 20.77 118.989 20.77C118.541 20.77 118.153 20.882 117.827 21.106C117.5 21.33 117.299 21.6613 117.225 22.1H116.021C116.077 21.596 116.245 21.176 116.525 20.84C116.814 20.4947 117.178 20.2333 117.617 20.056C118.055 19.8693 118.513 19.776 118.989 19.776C119.642 19.776 120.183 19.8973 120.613 20.14C121.051 20.3733 121.378 20.7047 121.593 21.134C121.807 21.554 121.915 22.0533 121.915 22.632V27H120.865L120.795 25.754C120.701 25.95 120.58 26.1367 120.431 26.314C120.291 26.482 120.123 26.6313 119.927 26.762C119.731 26.8833 119.507 26.9813 119.255 27.056C119.012 27.1307 118.732 27.168 118.415 27.168ZM118.597 26.174C118.923 26.174 119.217 26.1087 119.479 25.978C119.749 25.838 119.978 25.6513 120.165 25.418C120.351 25.1753 120.491 24.9093 120.585 24.62C120.687 24.3307 120.739 24.0273 120.739 23.71V23.668H118.975C118.517 23.668 118.149 23.724 117.869 23.836C117.589 23.9387 117.388 24.088 117.267 24.284C117.145 24.4707 117.085 24.6853 117.085 24.928C117.085 25.18 117.141 25.3993 117.253 25.586C117.374 25.7727 117.547 25.9173 117.771 26.02C118.004 26.1227 118.279 26.174 118.597 26.174ZM123.734 27V19.944H124.798L124.868 20.952C125.092 20.588 125.391 20.3033 125.764 20.098C126.147 19.8833 126.562 19.776 127.01 19.776C127.374 19.776 127.701 19.8273 127.99 19.93C128.289 20.0233 128.55 20.1727 128.774 20.378C128.998 20.574 129.18 20.826 129.32 21.134C129.563 20.7047 129.894 20.3733 130.314 20.14C130.743 19.8973 131.201 19.776 131.686 19.776C132.227 19.776 132.699 19.888 133.1 20.112C133.511 20.3267 133.823 20.658 134.038 21.106C134.262 21.5447 134.374 22.1047 134.374 22.786V27H133.212V22.912C133.212 22.2027 133.067 21.6707 132.778 21.316C132.489 20.9613 132.083 20.784 131.56 20.784C131.196 20.784 130.869 20.882 130.58 21.078C130.291 21.2647 130.062 21.54 129.894 21.904C129.726 22.268 129.642 22.716 129.642 23.248V27H128.466V22.912C128.466 22.2027 128.321 21.6707 128.032 21.316C127.743 20.9613 127.332 20.784 126.8 20.784C126.445 20.784 126.123 20.882 125.834 21.078C125.554 21.2647 125.33 21.54 125.162 21.904C124.994 22.268 124.91 22.716 124.91 23.248V27H123.734ZM139.353 27.168C138.699 27.168 138.111 27.0187 137.589 26.72C137.066 26.412 136.655 25.9827 136.357 25.432C136.058 24.872 135.909 24.2233 135.909 23.486C135.909 22.73 136.058 22.0767 136.357 21.526C136.665 20.966 137.08 20.5367 137.603 20.238C138.135 19.93 138.727 19.776 139.381 19.776C140.053 19.776 140.645 19.93 141.159 20.238C141.681 20.5367 142.092 20.966 142.391 21.526C142.699 22.0767 142.853 22.7253 142.853 23.472C142.853 24.2187 142.699 24.872 142.391 25.432C142.083 25.9827 141.667 26.412 141.145 26.72C140.622 27.0187 140.025 27.168 139.353 27.168ZM139.367 26.16C139.768 26.16 140.141 26.062 140.487 25.866C140.832 25.6607 141.112 25.3573 141.327 24.956C141.541 24.5547 141.649 24.06 141.649 23.472C141.649 22.8747 141.541 22.38 141.327 21.988C141.121 21.5867 140.846 21.288 140.501 21.092C140.165 20.8867 139.791 20.784 139.381 20.784C138.989 20.784 138.615 20.8867 138.261 21.092C137.915 21.288 137.635 21.5867 137.421 21.988C137.215 22.38 137.113 22.8747 137.113 23.472C137.113 24.06 137.215 24.5547 137.421 24.956C137.635 25.3573 137.911 25.6607 138.247 25.866C138.592 26.062 138.965 26.16 139.367 26.16ZM147.161 27.168C146.573 27.168 146.06 27.07 145.621 26.874C145.192 26.678 144.847 26.4073 144.585 26.062C144.333 25.7073 144.179 25.292 144.123 24.816H145.327C145.374 25.0587 145.472 25.2827 145.621 25.488C145.771 25.6933 145.971 25.8613 146.223 25.992C146.485 26.1133 146.802 26.174 147.175 26.174C147.502 26.174 147.773 26.1273 147.987 26.034C148.202 25.9313 148.361 25.796 148.463 25.628C148.575 25.46 148.631 25.278 148.631 25.082C148.631 24.7927 148.561 24.5733 148.421 24.424C148.291 24.2747 148.095 24.158 147.833 24.074C147.572 23.9807 147.255 23.9013 146.881 23.836C146.573 23.78 146.27 23.7053 145.971 23.612C145.673 23.5187 145.407 23.3973 145.173 23.248C144.94 23.0893 144.753 22.898 144.613 22.674C144.483 22.45 144.417 22.1747 144.417 21.848C144.417 21.4467 144.52 21.092 144.725 20.784C144.931 20.4667 145.225 20.2193 145.607 20.042C145.999 19.8647 146.452 19.776 146.965 19.776C147.721 19.776 148.333 19.958 148.799 20.322C149.266 20.686 149.541 21.2133 149.625 21.904H148.463C148.417 21.5493 148.263 21.274 148.001 21.078C147.749 20.8727 147.399 20.77 146.951 20.77C146.513 20.77 146.177 20.8587 145.943 21.036C145.719 21.2133 145.607 21.4467 145.607 21.736C145.607 21.9227 145.668 22.0907 145.789 22.24C145.92 22.38 146.107 22.5013 146.349 22.604C146.601 22.7067 146.909 22.7907 147.273 22.856C147.74 22.94 148.165 23.052 148.547 23.192C148.93 23.332 149.238 23.542 149.471 23.822C149.714 24.0927 149.835 24.48 149.835 24.984C149.835 25.4227 149.723 25.8053 149.499 26.132C149.285 26.4587 148.977 26.7153 148.575 26.902C148.174 27.0793 147.703 27.168 147.161 27.168ZM155.248 30.08V19.944H156.312L156.41 21.092C156.559 20.868 156.75 20.658 156.984 20.462C157.217 20.2567 157.497 20.0933 157.824 19.972C158.15 19.8413 158.524 19.776 158.944 19.776C159.634 19.776 160.232 19.9393 160.736 20.266C161.249 20.5927 161.646 21.036 161.926 21.596C162.215 22.1467 162.36 22.7767 162.36 23.486C162.36 24.1953 162.215 24.83 161.926 25.39C161.646 25.9407 161.249 26.3747 160.736 26.692C160.222 27.0093 159.62 27.168 158.93 27.168C158.36 27.168 157.856 27.0513 157.418 26.818C156.988 26.5847 156.657 26.258 156.424 25.838V30.08H155.248ZM158.804 26.146C159.261 26.146 159.667 26.034 160.022 25.81C160.376 25.586 160.652 25.278 160.848 24.886C161.053 24.4847 161.156 24.0133 161.156 23.472C161.156 22.94 161.053 22.4733 160.848 22.072C160.652 21.6707 160.376 21.358 160.022 21.134C159.667 20.91 159.261 20.798 158.804 20.798C158.337 20.798 157.926 20.91 157.572 21.134C157.217 21.358 156.942 21.6707 156.746 22.072C156.55 22.4733 156.452 22.94 156.452 23.472C156.452 24.0133 156.55 24.4847 156.746 24.886C156.942 25.278 157.217 25.586 157.572 25.81C157.926 26.034 158.337 26.146 158.804 26.146ZM167.161 27.168C166.508 27.168 165.92 27.0187 165.397 26.72C164.875 26.412 164.464 25.9827 164.165 25.432C163.867 24.872 163.717 24.2233 163.717 23.486C163.717 22.73 163.867 22.0767 164.165 21.526C164.473 20.966 164.889 20.5367 165.411 20.238C165.943 19.93 166.536 19.776 167.189 19.776C167.861 19.776 168.454 19.93 168.967 20.238C169.49 20.5367 169.901 20.966 170.199 21.526C170.507 22.0767 170.661 22.7253 170.661 23.472C170.661 24.2187 170.507 24.872 170.199 25.432C169.891 25.9827 169.476 26.412 168.953 26.72C168.431 27.0187 167.833 27.168 167.161 27.168ZM167.175 26.16C167.577 26.16 167.95 26.062 168.295 25.866C168.641 25.6607 168.921 25.3573 169.135 24.956C169.35 24.5547 169.457 24.06 169.457 23.472C169.457 22.8747 169.35 22.38 169.135 21.988C168.93 21.5867 168.655 21.288 168.309 21.092C167.973 20.8867 167.6 20.784 167.189 20.784C166.797 20.784 166.424 20.8867 166.069 21.092C165.724 21.288 165.444 21.5867 165.229 21.988C165.024 22.38 164.921 22.8747 164.921 23.472C164.921 24.06 165.024 24.5547 165.229 24.956C165.444 25.3573 165.719 25.6607 166.055 25.866C166.401 26.062 166.774 26.16 167.175 26.16ZM172.31 27V19.944H173.374L173.458 21.288C173.617 20.9707 173.817 20.7 174.06 20.476C174.312 20.252 174.611 20.0793 174.956 19.958C175.311 19.8367 175.712 19.776 176.16 19.776V21.008H175.726C175.427 21.008 175.143 21.05 174.872 21.134C174.601 21.2087 174.359 21.3347 174.144 21.512C173.939 21.6893 173.775 21.932 173.654 22.24C173.542 22.5387 173.486 22.912 173.486 23.36V27H172.31ZM182.874 30.08V25.852C182.65 26.216 182.323 26.5287 181.894 26.79C181.474 27.042 180.961 27.168 180.354 27.168C179.663 27.168 179.061 27.0093 178.548 26.692C178.035 26.3653 177.638 25.9267 177.358 25.376C177.078 24.816 176.938 24.1813 176.938 23.472C176.938 22.7627 177.078 22.1327 177.358 21.582C177.638 21.022 178.035 20.5833 178.548 20.266C179.071 19.9393 179.673 19.776 180.354 19.776C180.755 19.776 181.115 19.832 181.432 19.944C181.759 20.056 182.043 20.2147 182.286 20.42C182.529 20.616 182.725 20.8447 182.874 21.106L182.986 19.944H184.05V30.08H182.874ZM180.48 26.146C180.947 26.146 181.357 26.034 181.712 25.81C182.067 25.586 182.342 25.278 182.538 24.886C182.734 24.4847 182.832 24.0133 182.832 23.472C182.832 22.94 182.734 22.4733 182.538 22.072C182.342 21.6707 182.067 21.358 181.712 21.134C181.357 20.91 180.947 20.798 180.48 20.798C180.023 20.798 179.617 20.91 179.262 21.134C178.907 21.358 178.632 21.6707 178.436 22.072C178.24 22.4733 178.142 22.94 178.142 23.472C178.142 24.0133 178.24 24.4847 178.436 24.886C178.632 25.278 178.907 25.586 179.262 25.81C179.617 26.034 180.023 26.146 180.48 26.146ZM188.571 27.168C188.03 27.168 187.554 27.0607 187.143 26.846C186.742 26.6313 186.429 26.3 186.205 25.852C185.991 25.404 185.883 24.844 185.883 24.172V19.944H187.059V24.046C187.059 24.746 187.213 25.2733 187.521 25.628C187.829 25.9827 188.263 26.16 188.823 26.16C189.215 26.16 189.57 26.0667 189.887 25.88C190.205 25.684 190.452 25.4087 190.629 25.054C190.816 24.69 190.909 24.2467 190.909 23.724V19.944H192.085V27H191.021L190.951 25.768C190.737 26.2067 190.419 26.552 189.999 26.804C189.579 27.0467 189.103 27.168 188.571 27.168ZM197.129 27.168C196.466 27.168 195.878 27.014 195.365 26.706C194.861 26.398 194.464 25.9687 194.175 25.418C193.885 24.858 193.741 24.2093 193.741 23.472C193.741 22.7253 193.881 22.0767 194.161 21.526C194.45 20.9753 194.851 20.546 195.365 20.238C195.887 19.93 196.485 19.776 197.157 19.776C197.847 19.776 198.431 19.93 198.907 20.238C199.392 20.546 199.761 20.952 200.013 21.456C200.274 21.9507 200.405 22.4967 200.405 23.094C200.405 23.1873 200.405 23.2853 200.405 23.388C200.405 23.4907 200.4 23.6073 200.391 23.738H194.623V22.828H199.257C199.229 22.184 199.014 21.68 198.613 21.316C198.221 20.952 197.726 20.77 197.129 20.77C196.727 20.77 196.354 20.8633 196.009 21.05C195.673 21.2273 195.402 21.4933 195.197 21.848C194.991 22.1933 194.889 22.6273 194.889 23.15V23.542C194.889 24.1207 194.991 24.606 195.197 24.998C195.411 25.39 195.687 25.684 196.023 25.88C196.368 26.076 196.737 26.174 197.129 26.174C197.623 26.174 198.029 26.0667 198.347 25.852C198.673 25.628 198.907 25.3293 199.047 24.956H200.209C200.097 25.376 199.901 25.754 199.621 26.09C199.341 26.426 198.991 26.692 198.571 26.888C198.16 27.0747 197.679 27.168 197.129 27.168ZM208.482 27C208.062 27 207.698 26.9347 207.39 26.804C207.082 26.6733 206.844 26.454 206.676 26.146C206.518 25.8287 206.438 25.404 206.438 24.872V20.938H205.206V19.944H206.438L206.592 18.236H207.614V19.944H209.658V20.938H207.614V24.872C207.614 25.3107 207.703 25.6093 207.88 25.768C208.058 25.9173 208.37 25.992 208.818 25.992H209.574V27H208.482ZM214.095 27.168C213.433 27.168 212.845 27.014 212.331 26.706C211.827 26.398 211.431 25.9687 211.141 25.418C210.852 24.858 210.707 24.2093 210.707 23.472C210.707 22.7253 210.847 22.0767 211.127 21.526C211.417 20.9753 211.818 20.546 212.331 20.238C212.854 19.93 213.451 19.776 214.123 19.776C214.814 19.776 215.397 19.93 215.873 20.238C216.359 20.546 216.727 20.952 216.979 21.456C217.241 21.9507 217.371 22.4967 217.371 23.094C217.371 23.1873 217.371 23.2853 217.371 23.388C217.371 23.4907 217.367 23.6073 217.357 23.738H211.589V22.828H216.223C216.195 22.184 215.981 21.68 215.579 21.316C215.187 20.952 214.693 20.77 214.095 20.77C213.694 20.77 213.321 20.8633 212.975 21.05C212.639 21.2273 212.369 21.4933 212.163 21.848C211.958 22.1933 211.855 22.6273 211.855 23.15V23.542C211.855 24.1207 211.958 24.606 212.163 24.998C212.378 25.39 212.653 25.684 212.989 25.88C213.335 26.076 213.703 26.174 214.095 26.174C214.59 26.174 214.996 26.0667 215.313 25.852C215.64 25.628 215.873 25.3293 216.013 24.956H217.175C217.063 25.376 216.867 25.754 216.587 26.09C216.307 26.426 215.957 26.692 215.537 26.888C215.127 27.0747 214.646 27.168 214.095 27.168ZM225.239 27.168C224.698 27.168 224.222 27.0607 223.811 26.846C223.41 26.6313 223.097 26.3 222.873 25.852C222.659 25.404 222.551 24.844 222.551 24.172V19.944H223.727V24.046C223.727 24.746 223.881 25.2733 224.189 25.628C224.497 25.9827 224.931 26.16 225.491 26.16C225.883 26.16 226.238 26.0667 226.555 25.88C226.873 25.684 227.12 25.4087 227.297 25.054C227.484 24.69 227.577 24.2467 227.577 23.724V19.944H228.753V27H227.689L227.619 25.768C227.405 26.2067 227.087 26.552 226.667 26.804C226.247 27.0467 225.771 27.168 225.239 27.168ZM230.703 27V19.944H231.767L231.823 21.176C232.047 20.7373 232.364 20.3967 232.775 20.154C233.195 19.902 233.671 19.776 234.203 19.776C234.753 19.776 235.229 19.888 235.631 20.112C236.032 20.3267 236.345 20.658 236.569 21.106C236.793 21.5447 236.905 22.1047 236.905 22.786V27H235.729V22.912C235.729 22.2027 235.57 21.6707 235.253 21.316C234.945 20.9613 234.506 20.784 233.937 20.784C233.545 20.784 233.195 20.882 232.887 21.078C232.579 21.2647 232.331 21.54 232.145 21.904C231.967 22.2587 231.879 22.702 231.879 23.234V27H230.703ZM238.854 27V19.944H240.03V27H238.854ZM239.442 18.446C239.208 18.446 239.012 18.3713 238.854 18.222C238.704 18.0633 238.63 17.8673 238.63 17.634C238.63 17.4007 238.704 17.214 238.854 17.074C239.012 16.9247 239.208 16.85 239.442 16.85C239.666 16.85 239.857 16.9247 240.016 17.074C240.174 17.214 240.254 17.4007 240.254 17.634C240.254 17.8673 240.174 18.0633 240.016 18.222C239.857 18.3713 239.666 18.446 239.442 18.446ZM244.765 27.168C244.177 27.168 243.664 27.07 243.225 26.874C242.796 26.678 242.45 26.4073 242.189 26.062C241.937 25.7073 241.783 25.292 241.727 24.816H242.931C242.978 25.0587 243.076 25.2827 243.225 25.488C243.374 25.6933 243.575 25.8613 243.827 25.992C244.088 26.1133 244.406 26.174 244.779 26.174C245.106 26.174 245.376 26.1273 245.591 26.034C245.806 25.9313 245.964 25.796 246.067 25.628C246.179 25.46 246.235 25.278 246.235 25.082C246.235 24.7927 246.165 24.5733 246.025 24.424C245.894 24.2747 245.698 24.158 245.437 24.074C245.176 23.9807 244.858 23.9013 244.485 23.836C244.177 23.78 243.874 23.7053 243.575 23.612C243.276 23.5187 243.01 23.3973 242.777 23.248C242.544 23.0893 242.357 22.898 242.217 22.674C242.086 22.45 242.021 22.1747 242.021 21.848C242.021 21.4467 242.124 21.092 242.329 20.784C242.534 20.4667 242.828 20.2193 243.211 20.042C243.603 19.8647 244.056 19.776 244.569 19.776C245.325 19.776 245.936 19.958 246.403 20.322C246.87 20.686 247.145 21.2133 247.229 21.904H246.067C246.02 21.5493 245.866 21.274 245.605 21.078C245.353 20.8727 245.003 20.77 244.555 20.77C244.116 20.77 243.78 20.8587 243.547 21.036C243.323 21.2133 243.211 21.4467 243.211 21.736C243.211 21.9227 243.272 22.0907 243.393 22.24C243.524 22.38 243.71 22.5013 243.953 22.604C244.205 22.7067 244.513 22.7907 244.877 22.856C245.344 22.94 245.768 23.052 246.151 23.192C246.534 23.332 246.842 23.542 247.075 23.822C247.318 24.0927 247.439 24.48 247.439 24.984C247.439 25.4227 247.327 25.8053 247.103 26.132C246.888 26.4587 246.58 26.7153 246.179 26.902C245.778 27.0793 245.306 27.168 244.765 27.168ZM251.59 27C251.17 27 250.806 26.9347 250.498 26.804C250.19 26.6733 249.952 26.454 249.784 26.146C249.625 25.8287 249.546 25.404 249.546 24.872V20.938H248.314V19.944H249.546L249.7 18.236H250.722V19.944H252.766V20.938H250.722V24.872C250.722 25.3107 250.811 25.6093 250.988 25.768C251.165 25.9173 251.478 25.992 251.926 25.992H252.682V27H251.59ZM257.203 27.168C256.54 27.168 255.952 27.014 255.439 26.706C254.935 26.398 254.538 25.9687 254.249 25.418C253.96 24.858 253.815 24.2093 253.815 23.472C253.815 22.7253 253.955 22.0767 254.235 21.526C254.524 20.9753 254.926 20.546 255.439 20.238C255.962 19.93 256.559 19.776 257.231 19.776C257.922 19.776 258.505 19.93 258.981 20.238C259.466 20.546 259.835 20.952 260.087 21.456C260.348 21.9507 260.479 22.4967 260.479 23.094C260.479 23.1873 260.479 23.2853 260.479 23.388C260.479 23.4907 260.474 23.6073 260.465 23.738H254.697V22.828H259.331C259.303 22.184 259.088 21.68 258.687 21.316C258.295 20.952 257.8 20.77 257.203 20.77C256.802 20.77 256.428 20.8633 256.083 21.05C255.747 21.2273 255.476 21.4933 255.271 21.848C255.066 22.1933 254.963 22.6273 254.963 23.15V23.542C254.963 24.1207 255.066 24.606 255.271 24.998C255.486 25.39 255.761 25.684 256.097 25.88C256.442 26.076 256.811 26.174 257.203 26.174C257.698 26.174 258.104 26.0667 258.421 25.852C258.748 25.628 258.981 25.3293 259.121 24.956H260.283C260.171 25.376 259.975 25.754 259.695 26.09C259.415 26.426 259.065 26.692 258.645 26.888C258.234 27.0747 257.754 27.168 257.203 27.168ZM263.025 24.186L262.969 22.002H263.403C263.795 22.002 264.168 21.9787 264.523 21.932C264.887 21.876 265.204 21.778 265.475 21.638C265.755 21.4887 265.974 21.274 266.133 20.994C266.301 20.714 266.385 20.35 266.385 19.902C266.385 19.51 266.301 19.174 266.133 18.894C265.965 18.614 265.731 18.3993 265.433 18.25C265.134 18.1007 264.789 18.026 264.397 18.026C264.005 18.026 263.659 18.1007 263.361 18.25C263.062 18.3993 262.829 18.6093 262.66 18.88C262.502 19.1413 262.423 19.4587 262.423 19.832H261.303C261.303 19.272 261.433 18.782 261.695 18.362C261.956 17.942 262.32 17.6153 262.787 17.382C263.253 17.1487 263.79 17.032 264.397 17.032C265.003 17.032 265.54 17.1487 266.007 17.382C266.483 17.6153 266.851 17.9467 267.113 18.376C267.383 18.8053 267.519 19.314 267.519 19.902C267.519 20.5927 267.369 21.1527 267.071 21.582C266.781 22.0113 266.38 22.324 265.867 22.52C265.353 22.716 264.761 22.814 264.089 22.814L264.047 24.186H263.025ZM263.529 27.07C263.295 27.07 263.099 26.9953 262.941 26.846C262.791 26.6873 262.717 26.496 262.717 26.272C262.717 26.048 262.791 25.8613 262.941 25.712C263.099 25.5533 263.295 25.474 263.529 25.474C263.762 25.474 263.953 25.5533 264.103 25.712C264.252 25.8613 264.327 26.048 264.327 26.272C264.327 26.496 264.252 26.6873 264.103 26.846C263.953 26.9953 263.762 27.07 263.529 27.07ZM76.926 41.96L77.094 39.818L75.358 41.036L74.868 40.182L76.814 39.328L74.882 38.488L75.344 37.662L77.108 38.88L76.912 36.738H77.864L77.654 38.88L79.404 37.662L79.852 38.474L77.92 39.342L79.866 40.196L79.404 41.022L77.654 39.818L77.85 41.96H76.926ZM81.7766 47V37.2H85.2206C85.9112 37.2 86.4806 37.312 86.9286 37.536C87.3859 37.7507 87.7266 38.0493 87.9506 38.432C88.1746 38.8053 88.2866 39.2253 88.2866 39.692C88.2866 40.196 88.1746 40.616 87.9506 40.952C87.7359 41.288 87.4512 41.5447 87.0966 41.722C86.7512 41.8993 86.3826 42.0067 85.9906 42.044L86.1866 41.904C86.6066 41.9133 86.9939 42.0253 87.3486 42.24C87.7032 42.4547 87.9832 42.744 88.1886 43.108C88.4032 43.472 88.5106 43.878 88.5106 44.326C88.5106 44.8207 88.3892 45.2733 88.1466 45.684C87.9039 46.0853 87.5446 46.4073 87.0686 46.65C86.6019 46.8833 86.0232 47 85.3326 47H81.7766ZM82.9526 46.02H85.2066C85.8692 46.02 86.3826 45.866 86.7466 45.558C87.1199 45.2407 87.3066 44.802 87.3066 44.242C87.3066 43.6913 87.1152 43.2527 86.7326 42.926C86.3592 42.59 85.8412 42.422 85.1786 42.422H82.9526V46.02ZM82.9526 41.484H85.1366C85.7712 41.484 86.2519 41.3347 86.5786 41.036C86.9146 40.7373 87.0826 40.3313 87.0826 39.818C87.0826 39.3233 86.9146 38.9267 86.5786 38.628C86.2519 38.3293 85.7572 38.18 85.0946 38.18H82.9526V41.484ZM90.1421 47V39.944H91.2061L91.2901 41.288C91.4488 40.9707 91.6494 40.7 91.8921 40.476C92.1441 40.252 92.4428 40.0793 92.7881 39.958C93.1428 39.8367 93.5441 39.776 93.9921 39.776V41.008H93.5581C93.2594 41.008 92.9748 41.05 92.7041 41.134C92.4334 41.2087 92.1908 41.3347 91.9761 41.512C91.7708 41.6893 91.6074 41.932 91.4861 42.24C91.3741 42.5387 91.3181 42.912 91.3181 43.36V47H90.1421ZM95.4358 47V39.944H96.6118V47H95.4358ZM96.0238 38.446C95.7904 38.446 95.5944 38.3713 95.4358 38.222C95.2864 38.0633 95.2118 37.8673 95.2118 37.634C95.2118 37.4007 95.2864 37.214 95.4358 37.074C95.5944 36.9247 95.7904 36.85 96.0238 36.85C96.2478 36.85 96.4391 36.9247 96.5978 37.074C96.7564 37.214 96.8358 37.4007 96.8358 37.634C96.8358 37.8673 96.7564 38.0633 96.5978 38.222C96.4391 38.3713 96.2478 38.446 96.0238 38.446ZM98.687 47V39.944H99.751L99.807 41.176C100.031 40.7373 100.348 40.3967 100.759 40.154C101.179 39.902 101.655 39.776 102.187 39.776C102.738 39.776 103.214 39.888 103.615 40.112C104.016 40.3267 104.329 40.658 104.553 41.106C104.777 41.5447 104.889 42.1047 104.889 42.786V47H103.713V42.912C103.713 42.2027 103.554 41.6707 103.237 41.316C102.929 40.9613 102.49 40.784 101.921 40.784C101.529 40.784 101.179 40.882 100.871 41.078C100.563 41.2647 100.316 41.54 100.129 41.904C99.9517 42.2587 99.863 42.702 99.863 43.234V47H98.687ZM109.834 47.168C109.153 47.168 108.555 47.0093 108.042 46.692C107.529 46.3653 107.132 45.922 106.852 45.362C106.572 44.802 106.432 44.1673 106.432 43.458C106.432 42.7487 106.572 42.1187 106.852 41.568C107.132 41.008 107.529 40.5693 108.042 40.252C108.565 39.9347 109.167 39.776 109.848 39.776C110.427 39.776 110.931 39.8927 111.36 40.126C111.799 40.3593 112.135 40.686 112.368 41.106V36.92H113.544V47H112.48L112.382 45.838C112.233 46.0713 112.041 46.2907 111.808 46.496C111.575 46.692 111.295 46.8553 110.968 46.986C110.641 47.1073 110.263 47.168 109.834 47.168ZM109.974 46.146C110.441 46.146 110.851 46.034 111.206 45.81C111.561 45.586 111.836 45.278 112.032 44.886C112.228 44.4847 112.326 44.0133 112.326 43.472C112.326 42.94 112.228 42.4733 112.032 42.072C111.836 41.6707 111.561 41.358 111.206 41.134C110.851 40.91 110.441 40.798 109.974 40.798C109.517 40.798 109.111 40.91 108.756 41.134C108.401 41.358 108.126 41.6707 107.93 42.072C107.734 42.4733 107.636 42.94 107.636 43.472C107.636 44.0133 107.734 44.4847 107.93 44.886C108.126 45.278 108.401 45.586 108.756 45.81C109.111 46.034 109.517 46.146 109.974 46.146ZM117.799 47.168C117.23 47.168 116.754 47.07 116.371 46.874C115.989 46.6687 115.704 46.4027 115.517 46.076C115.331 45.74 115.237 45.376 115.237 44.984C115.237 44.508 115.359 44.1067 115.601 43.78C115.853 43.444 116.203 43.192 116.651 43.024C117.109 42.8467 117.645 42.758 118.261 42.758H120.123C120.123 42.3193 120.053 41.9553 119.913 41.666C119.783 41.3673 119.587 41.1433 119.325 40.994C119.073 40.8447 118.756 40.77 118.373 40.77C117.925 40.77 117.538 40.882 117.211 41.106C116.885 41.33 116.684 41.6613 116.609 42.1H115.405C115.461 41.596 115.629 41.176 115.909 40.84C116.199 40.4947 116.563 40.2333 117.001 40.056C117.44 39.8693 117.897 39.776 118.373 39.776C119.027 39.776 119.568 39.8973 119.997 40.14C120.436 40.3733 120.763 40.7047 120.977 41.134C121.192 41.554 121.299 42.0533 121.299 42.632V47H120.249L120.179 45.754C120.086 45.95 119.965 46.1367 119.815 46.314C119.675 46.482 119.507 46.6313 119.311 46.762C119.115 46.8833 118.891 46.9813 118.639 47.056C118.397 47.1307 118.117 47.168 117.799 47.168ZM117.981 46.174C118.308 46.174 118.602 46.1087 118.863 45.978C119.134 45.838 119.363 45.6513 119.549 45.418C119.736 45.1753 119.876 44.9093 119.969 44.62C120.072 44.3307 120.123 44.0273 120.123 43.71V43.668H118.359C117.902 43.668 117.533 43.724 117.253 43.836C116.973 43.9387 116.773 44.088 116.651 44.284C116.53 44.4707 116.469 44.6853 116.469 44.928C116.469 45.18 116.525 45.3993 116.637 45.586C116.759 45.7727 116.931 45.9173 117.155 46.02C117.389 46.1227 117.664 46.174 117.981 46.174ZM130.015 47.168C129.353 47.168 128.755 47.014 128.223 46.706C127.701 46.398 127.29 45.9687 126.991 45.418C126.693 44.858 126.543 44.214 126.543 43.486C126.543 42.7393 126.693 42.0907 126.991 41.54C127.29 40.9893 127.701 40.56 128.223 40.252C128.755 39.9347 129.353 39.776 130.015 39.776C130.855 39.776 131.555 39.9953 132.115 40.434C132.675 40.8633 133.03 41.442 133.179 42.17H131.975C131.882 41.7313 131.653 41.3907 131.289 41.148C130.925 40.9053 130.496 40.784 130.001 40.784C129.6 40.784 129.227 40.8867 128.881 41.092C128.536 41.288 128.261 41.5867 128.055 41.988C127.85 42.3893 127.747 42.884 127.747 43.472C127.747 43.9107 127.808 44.3027 127.929 44.648C128.051 44.984 128.214 45.264 128.419 45.488C128.625 45.712 128.863 45.8847 129.133 46.006C129.413 46.118 129.703 46.174 130.001 46.174C130.337 46.174 130.641 46.1227 130.911 46.02C131.182 45.908 131.411 45.7447 131.597 45.53C131.784 45.3153 131.91 45.0633 131.975 44.774H133.179C133.03 45.4833 132.671 46.062 132.101 46.51C131.541 46.9487 130.846 47.168 130.015 47.168ZM137.999 47.168C137.346 47.168 136.758 47.0187 136.235 46.72C135.712 46.412 135.302 45.9827 135.003 45.432C134.704 44.872 134.555 44.2233 134.555 43.486C134.555 42.73 134.704 42.0767 135.003 41.526C135.311 40.966 135.726 40.5367 136.249 40.238C136.781 39.93 137.374 39.776 138.027 39.776C138.699 39.776 139.292 39.93 139.805 40.238C140.328 40.5367 140.738 40.966 141.037 41.526C141.345 42.0767 141.499 42.7253 141.499 43.472C141.499 44.2187 141.345 44.872 141.037 45.432C140.729 45.9827 140.314 46.412 139.791 46.72C139.268 47.0187 138.671 47.168 137.999 47.168ZM138.013 46.16C138.414 46.16 138.788 46.062 139.133 45.866C139.478 45.6607 139.758 45.3573 139.973 44.956C140.188 44.5547 140.295 44.06 140.295 43.472C140.295 42.8747 140.188 42.38 139.973 41.988C139.768 41.5867 139.492 41.288 139.147 41.092C138.811 40.8867 138.438 40.784 138.027 40.784C137.635 40.784 137.262 40.8867 136.907 41.092C136.562 41.288 136.282 41.5867 136.067 41.988C135.862 42.38 135.759 42.8747 135.759 43.472C135.759 44.06 135.862 44.5547 136.067 44.956C136.282 45.3573 136.557 45.6607 136.893 45.866C137.238 46.062 137.612 46.16 138.013 46.16ZM143.148 47V39.944H144.212L144.268 41.176C144.492 40.7373 144.809 40.3967 145.22 40.154C145.64 39.902 146.116 39.776 146.648 39.776C147.199 39.776 147.675 39.888 148.076 40.112C148.477 40.3267 148.79 40.658 149.014 41.106C149.238 41.5447 149.35 42.1047 149.35 42.786V47H148.174V42.912C148.174 42.2027 148.015 41.6707 147.698 41.316C147.39 40.9613 146.951 40.784 146.382 40.784C145.99 40.784 145.64 40.882 145.332 41.078C145.024 41.2647 144.777 41.54 144.59 41.904C144.413 42.2587 144.324 42.702 144.324 43.234V47H143.148ZM157.566 47.168C156.978 47.168 156.464 47.07 156.026 46.874C155.596 46.678 155.251 46.4073 154.99 46.062C154.738 45.7073 154.584 45.292 154.528 44.816H155.732C155.778 45.0587 155.876 45.2827 156.026 45.488C156.175 45.6933 156.376 45.8613 156.628 45.992C156.889 46.1133 157.206 46.174 157.58 46.174C157.906 46.174 158.177 46.1273 158.392 46.034C158.606 45.9313 158.765 45.796 158.868 45.628C158.98 45.46 159.036 45.278 159.036 45.082C159.036 44.7927 158.966 44.5733 158.826 44.424C158.695 44.2747 158.499 44.158 158.238 44.074C157.976 43.9807 157.659 43.9013 157.286 43.836C156.978 43.78 156.674 43.7053 156.376 43.612C156.077 43.5187 155.811 43.3973 155.578 43.248C155.344 43.0893 155.158 42.898 155.018 42.674C154.887 42.45 154.822 42.1747 154.822 41.848C154.822 41.4467 154.924 41.092 155.13 40.784C155.335 40.4667 155.629 40.2193 156.012 40.042C156.404 39.8647 156.856 39.776 157.37 39.776C158.126 39.776 158.737 39.958 159.204 40.322C159.67 40.686 159.946 41.2133 160.03 41.904H158.868C158.821 41.5493 158.667 41.274 158.406 41.078C158.154 40.8727 157.804 40.77 157.356 40.77C156.917 40.77 156.581 40.8587 156.348 41.036C156.124 41.2133 156.012 41.4467 156.012 41.736C156.012 41.9227 156.072 42.0907 156.194 42.24C156.324 42.38 156.511 42.5013 156.754 42.604C157.006 42.7067 157.314 42.7907 157.678 42.856C158.144 42.94 158.569 43.052 158.952 43.192C159.334 43.332 159.642 43.542 159.876 43.822C160.118 44.0927 160.24 44.48 160.24 44.984C160.24 45.4227 160.128 45.8053 159.904 46.132C159.689 46.4587 159.381 46.7153 158.98 46.902C158.578 47.0793 158.107 47.168 157.566 47.168ZM164.495 47.168C163.954 47.168 163.478 47.0607 163.067 46.846C162.666 46.6313 162.353 46.3 162.129 45.852C161.914 45.404 161.807 44.844 161.807 44.172V39.944H162.983V44.046C162.983 44.746 163.137 45.2733 163.445 45.628C163.753 45.9827 164.187 46.16 164.747 46.16C165.139 46.16 165.494 46.0667 165.811 45.88C166.128 45.684 166.376 45.4087 166.553 45.054C166.74 44.69 166.833 44.2467 166.833 43.724V39.944H168.009V47H166.945L166.875 45.768C166.66 46.2067 166.343 46.552 165.923 46.804C165.503 47.0467 165.027 47.168 164.495 47.168ZM176.449 47C176.029 47 175.665 46.9347 175.357 46.804C175.049 46.6733 174.811 46.454 174.643 46.146C174.485 45.8287 174.405 45.404 174.405 44.872V40.938H173.173V39.944H174.405L174.559 38.236H175.581V39.944H177.625V40.938H175.581V44.872C175.581 45.3107 175.67 45.6093 175.847 45.768C176.025 45.9173 176.337 45.992 176.785 45.992H177.541V47H176.449ZM181.456 47.168C180.886 47.168 180.41 47.07 180.028 46.874C179.645 46.6687 179.36 46.4027 179.174 46.076C178.987 45.74 178.894 45.376 178.894 44.984C178.894 44.508 179.015 44.1067 179.258 43.78C179.51 43.444 179.86 43.192 180.308 43.024C180.765 42.8467 181.302 42.758 181.918 42.758H183.78C183.78 42.3193 183.71 41.9553 183.57 41.666C183.439 41.3673 183.243 41.1433 182.982 40.994C182.73 40.8447 182.412 40.77 182.03 40.77C181.582 40.77 181.194 40.882 180.868 41.106C180.541 41.33 180.34 41.6613 180.266 42.1H179.062C179.118 41.596 179.286 41.176 179.566 40.84C179.855 40.4947 180.219 40.2333 180.658 40.056C181.096 39.8693 181.554 39.776 182.03 39.776C182.683 39.776 183.224 39.8973 183.654 40.14C184.092 40.3733 184.419 40.7047 184.634 41.134C184.848 41.554 184.956 42.0533 184.956 42.632V47H183.906L183.836 45.754C183.742 45.95 183.621 46.1367 183.472 46.314C183.332 46.482 183.164 46.6313 182.968 46.762C182.772 46.8833 182.548 46.9813 182.296 47.056C182.053 47.1307 181.773 47.168 181.456 47.168ZM181.638 46.174C181.964 46.174 182.258 46.1087 182.52 45.978C182.79 45.838 183.019 45.6513 183.206 45.418C183.392 45.1753 183.532 44.9093 183.626 44.62C183.728 44.3307 183.78 44.0273 183.78 43.71V43.668H182.016C181.558 43.668 181.19 43.724 180.91 43.836C180.63 43.9387 180.429 44.088 180.308 44.284C180.186 44.4707 180.126 44.6853 180.126 44.928C180.126 45.18 180.182 45.3993 180.294 45.586C180.415 45.7727 180.588 45.9173 180.812 46.02C181.045 46.1227 181.32 46.174 181.638 46.174ZM186.299 47V46.034L190.205 40.924H186.369V39.944H191.549V40.91L187.629 46.02H191.619V47H186.299ZM195.483 47.168C194.914 47.168 194.438 47.07 194.055 46.874C193.672 46.6687 193.388 46.4027 193.201 46.076C193.014 45.74 192.921 45.376 192.921 44.984C192.921 44.508 193.042 44.1067 193.285 43.78C193.537 43.444 193.887 43.192 194.335 43.024C194.792 42.8467 195.329 42.758 195.945 42.758H197.807C197.807 42.3193 197.737 41.9553 197.597 41.666C197.466 41.3673 197.27 41.1433 197.009 40.994C196.757 40.8447 196.44 40.77 196.057 40.77C195.609 40.77 195.222 40.882 194.895 41.106C194.568 41.33 194.368 41.6613 194.293 42.1H193.089C193.145 41.596 193.313 41.176 193.593 40.84C193.882 40.4947 194.246 40.2333 194.685 40.056C195.124 39.8693 195.581 39.776 196.057 39.776C196.71 39.776 197.252 39.8973 197.681 40.14C198.12 40.3733 198.446 40.7047 198.661 41.134C198.876 41.554 198.983 42.0533 198.983 42.632V47H197.933L197.863 45.754C197.77 45.95 197.648 46.1367 197.499 46.314C197.359 46.482 197.191 46.6313 196.995 46.762C196.799 46.8833 196.575 46.9813 196.323 47.056C196.08 47.1307 195.8 47.168 195.483 47.168ZM195.665 46.174C195.992 46.174 196.286 46.1087 196.547 45.978C196.818 45.838 197.046 45.6513 197.233 45.418C197.42 45.1753 197.56 44.9093 197.653 44.62C197.756 44.3307 197.807 44.0273 197.807 43.71V43.668H196.043C195.586 43.668 195.217 43.724 194.937 43.836C194.657 43.9387 194.456 44.088 194.335 44.284C194.214 44.4707 194.153 44.6853 194.153 44.928C194.153 45.18 194.209 45.3993 194.321 45.586C194.442 45.7727 194.615 45.9173 194.839 46.02C195.072 46.1227 195.348 46.174 195.665 46.174ZM207.629 47.168C206.948 47.168 206.35 47.0093 205.837 46.692C205.324 46.3653 204.927 45.922 204.647 45.362C204.367 44.802 204.227 44.1673 204.227 43.458C204.227 42.7487 204.367 42.1187 204.647 41.568C204.927 41.008 205.324 40.5693 205.837 40.252C206.36 39.9347 206.962 39.776 207.643 39.776C208.222 39.776 208.726 39.8927 209.155 40.126C209.594 40.3593 209.93 40.686 210.163 41.106V36.92H211.339V47H210.275L210.177 45.838C210.028 46.0713 209.836 46.2907 209.603 46.496C209.37 46.692 209.09 46.8553 208.763 46.986C208.436 47.1073 208.058 47.168 207.629 47.168ZM207.769 46.146C208.236 46.146 208.646 46.034 209.001 45.81C209.356 45.586 209.631 45.278 209.827 44.886C210.023 44.4847 210.121 44.0133 210.121 43.472C210.121 42.94 210.023 42.4733 209.827 42.072C209.631 41.6707 209.356 41.358 209.001 41.134C208.646 40.91 208.236 40.798 207.769 40.798C207.312 40.798 206.906 40.91 206.551 41.134C206.196 41.358 205.921 41.6707 205.725 42.072C205.529 42.4733 205.431 42.94 205.431 43.472C205.431 44.0133 205.529 44.4847 205.725 44.886C205.921 45.278 206.196 45.586 206.551 45.81C206.906 46.034 207.312 46.146 207.769 46.146ZM216.392 47.168C215.73 47.168 215.142 47.014 214.628 46.706C214.124 46.398 213.728 45.9687 213.438 45.418C213.149 44.858 213.004 44.2093 213.004 43.472C213.004 42.7253 213.144 42.0767 213.424 41.526C213.714 40.9753 214.115 40.546 214.628 40.238C215.151 39.93 215.748 39.776 216.42 39.776C217.111 39.776 217.694 39.93 218.17 40.238C218.656 40.546 219.024 40.952 219.276 41.456C219.538 41.9507 219.668 42.4967 219.668 43.094C219.668 43.1873 219.668 43.2853 219.668 43.388C219.668 43.4907 219.664 43.6073 219.654 43.738H213.886V42.828H218.52C218.492 42.184 218.278 41.68 217.876 41.316C217.484 40.952 216.99 40.77 216.392 40.77C215.991 40.77 215.618 40.8633 215.272 41.05C214.936 41.2273 214.666 41.4933 214.46 41.848C214.255 42.1933 214.152 42.6273 214.152 43.15V43.542C214.152 44.1207 214.255 44.606 214.46 44.998C214.675 45.39 214.95 45.684 215.286 45.88C215.632 46.076 216 46.174 216.392 46.174C216.887 46.174 217.293 46.0667 217.61 45.852C217.937 45.628 218.17 45.3293 218.31 44.956H219.472C219.36 45.376 219.164 45.754 218.884 46.09C218.604 46.426 218.254 46.692 217.834 46.888C217.424 47.0747 216.943 47.168 216.392 47.168ZM227.746 47C227.326 47 226.962 46.9347 226.654 46.804C226.346 46.6733 226.108 46.454 225.94 46.146C225.781 45.8287 225.702 45.404 225.702 44.872V40.938H224.47V39.944H225.702L225.856 38.236H226.878V39.944H228.922V40.938H226.878V44.872C226.878 45.3107 226.967 45.6093 227.144 45.768C227.321 45.9173 227.634 45.992 228.082 45.992H228.838V47H227.746ZM233.359 47.168C232.696 47.168 232.108 47.014 231.595 46.706C231.091 46.398 230.694 45.9687 230.405 45.418C230.116 44.858 229.971 44.2093 229.971 43.472C229.971 42.7253 230.111 42.0767 230.391 41.526C230.68 40.9753 231.082 40.546 231.595 40.238C232.118 39.93 232.715 39.776 233.387 39.776C234.078 39.776 234.661 39.93 235.137 40.238C235.622 40.546 235.991 40.952 236.243 41.456C236.504 41.9507 236.635 42.4967 236.635 43.094C236.635 43.1873 236.635 43.2853 236.635 43.388C236.635 43.4907 236.63 43.6073 236.621 43.738H230.853V42.828H235.487C235.459 42.184 235.244 41.68 234.843 41.316C234.451 40.952 233.956 40.77 233.359 40.77C232.958 40.77 232.584 40.8633 232.239 41.05C231.903 41.2273 231.632 41.4933 231.427 41.848C231.222 42.1933 231.119 42.6273 231.119 43.15V43.542C231.119 44.1207 231.222 44.606 231.427 44.998C231.642 45.39 231.917 45.684 232.253 45.88C232.598 46.076 232.967 46.174 233.359 46.174C233.854 46.174 234.26 46.0667 234.577 45.852C234.904 45.628 235.137 45.3293 235.277 44.956H236.439C236.327 45.376 236.131 45.754 235.851 46.09C235.571 46.426 235.221 46.692 234.801 46.888C234.39 47.0747 233.91 47.168 233.359 47.168ZM231.959 39.342L231.833 38.502L234.647 36.71L234.815 37.718L231.959 39.342ZM239.84 41.96L240.008 39.818L238.272 41.036L237.782 40.182L239.728 39.328L237.796 38.488L238.258 37.662L240.022 38.88L239.826 36.738H240.778L240.568 38.88L242.318 37.662L242.766 38.474L240.834 39.342L242.78 40.196L242.318 41.022L240.568 39.818L240.764 41.96H239.84Z" fill="white"/>
<rect y="64" width="40" height="40" rx="8" fill="#5BB398" fill-opacity="0.1"/>
<defs>
<linearGradient id="paint0_linear_79_13539" x1="62" y1="64" x2="415.227" y2="-42.4024" gradientUnits="userSpaceOnUse">
<stop offset="0.043503" stop-color="white" stop-opacity="0"/>
<stop offset="1" stop-color="white"/>
</linearGradient>
</defs>
</svg>
