<?xml version="1.0" encoding="UTF-8"?>
<svg id="Layer_1" data-name="Layer 1" xmlns="http://www.w3.org/2000/svg" viewBox="0 0 500 500">
  <defs>
    <style>
      .cls-1 {
        fill: #3e4de5;
        opacity: .3;
      }

      .cls-1, .cls-2 {
        stroke-width: 0px;
      }

      .cls-3, .cls-2, .cls-4 {
        fill: #000;
      }

      .cls-3, .cls-4 {
        stroke: #000;
        stroke-miterlimit: 10;
      }

      .cls-4 {
        stroke-width: .5px;
      }
    </style>
  </defs>
  <ellipse class="cls-1" cx="264.72" cy="234.92" rx="163.86" ry="121.61" transform="translate(-87.78 266.62) rotate(-46.73)"/>
  <path class="cls-3" d="M245.6,98.2s-.38-5.92,1.58-7.1,1.57-2.87,2.84-2.87,3.59-2.54,4.51,0,3.39-.17,3.54,3.72.89,3.21,2.68,6.25,3.81,4.15,3.79,6.59,2.6,5.3,2.28,6.73-3.82,3.14-4.9,2.51-8.72-.56-10.28-1.13-5.38,3.05-4.75.27-3.8-.84-2.48-2.67,1.78-3.86,1.78-6.73-.62-5.58-.62-5.58Z"/>
  <path class="cls-2" d="M200,292.28c-2.12,8.72-4.99,17.54-9.07,25.53-1.89,3.71-4.81,9.6-9.11,10.78-5.03,1.38-9.06-7.46-10.79-11.29-8.11-17.96-11.2-38.59-14.41-57.85-.53-3.17-5.35-1.82-4.82,1.33,3.19,19.1,6.45,39.02,14.02,56.98,2.51,5.95,6.67,15.29,14.21,15.94,11.96,1.03,18.12-18.95,21.04-27.45,1.42-4.15,2.73-8.37,3.76-12.64.76-3.13-4.06-4.46-4.82-1.33h0Z"/>
  <path class="cls-3" d="M174.51,200.57c-13.89,0-25.15,14.7-25.15,32.83s11.26,32.83,25.15,32.83,25.15-14.7,25.15-32.83-11.26-32.83-25.15-32.83ZM175.69,254.57c-11.15,0-20.19-11.8-20.19-26.35s9.04-26.35,20.19-26.35,20.19,11.8,20.19,26.35-9.04,26.35-20.19,26.35Z"/>
  <path class="cls-2" d="M284.56,305.75c-.61,29.85,1.25,60.05,5.58,89.58.47,3.17,5.28,1.82,4.82-1.33-4.27-29.08-6-58.85-5.41-88.25.07-3.22-4.93-3.22-5,0h0Z"/>
  <path class="cls-2" d="M239.89,305.75c-.61,29.85,1.25,60.05,5.58,89.58.47,3.17,5.28,1.82,4.82-1.33-4.27-29.08-6-58.85-5.41-88.25.07-3.22-4.93-3.22-5,0h0Z"/>
  <path class="cls-3" d="M346.73,165.59l-.04.02c-.42-1.42-.88-2.84-1.38-4.25,2.46,1.56,4.63,2.8,5.75,3.13,3.11.92-8.77-12.79-11.9-16.35-.65-1.1-1.35-2.2-2.07-3.28,2.58.85,4.79,1.47,5.9,1.52,3.72.17-16.38-13.68-16.38-13.68h0c-.18-.16-.36-.32-.54-.49,1.49.13,2.7.17,3.4.07,2.98-.45-11.14-6.91-16.61-9.34-.95-.52-1.93-1.03-2.92-1.53.7-.11,1.27-.24,1.66-.38,2.44-.88-8.4-3.62-15.2-5.2.65-.2,1.17-.4,1.52-.59,2.28-1.2-8.72-2.43-15.68-3.07.46-.22.84-.43,1.11-.62,2.43-1.7-12.53-1.25-18.72-1,1.87-1.05,3.36-1.98,4.02-2.63,2.47-2.4-17.73,1.81-20.8,2.46-1.12.03-2.26.07-3.41.12,0,0-78.52-.76-78.93,66.42-.1,16.65.65,32.28,2.78,46.8-.14,6.91-.17,18.86,1.33,16.65.32-.47.69-1.27,1.09-2.28.54,5.38,2.35,22.16,3.75,19.36.28-.56.57-1.51.87-2.71,1.06,4.74,5.11,22.21,6.19,19.17.28-.77.49-2.22.66-4.02,2.01,5.19,8.12,20.55,8.72,17.51.14-.7.16-1.9.1-3.39.52.72,1.06,1.42,1.6,2.13,2.93,4.57,12.11,18.67,12.1,15.54,0-.61-.16-1.55-.43-2.72,2.57,2.54,16.82,16.5,16.05,13.2-.07-.29-.19-.65-.36-1.07.62.4,1.24.8,1.87,1.2,1.79,1.42,18.85,14.92,17.68,11.59-.23-.65-.8-1.66-1.58-2.86.94.44,1.89.87,2.85,1.3.74.33,1.47.63,2.21.92,1.66,2.96,3.25,5.55,4.2,6.47.94.92.83-1.45.28-4.9,1.84.56,3.66,1,5.46,1.34,1.28,2.19,2.44,3.98,3.19,4.71.87.85.84-1.13.39-4.17,1.57.17,3.13.26,4.68.28.72,1.93,1.4,3.47,1.92,4.21.72,1.02,1.04-1.06,1.15-4.27,1.41-.08,2.8-.21,4.18-.41-.2,1.6-.3,2.89-.21,3.64.16,1.4,1.76-.89,3.69-4.27,1.88-.41,3.73-.93,5.56-1.55-1,1.48-1.74,2.73-2.02,3.49-1.26,3.5,17.9-11.62,17.9-11.62l-.05-.05c1.43-.99,2.83-2.04,4.21-3.14-.47,1.51-.78,2.75-.82,3.5-.19,3.21,10.34-11.24,13.19-15.2,1.03-1.13,2.04-2.29,3.03-3.46-.19,1.3-.28,2.36-.22,3,.32,3.71,11.42-18.02,11.42-18.02h-.01c.63-.95,1.24-1.9,1.84-2.85-.02.96.02,1.74.12,2.25.66,3.44,8.48-16.58,9.38-18.9.57-1.11,1.12-2.21,1.65-3.3.21,1.33.44,2.38.69,2.99.92,2.26,3.01-7.28,4.33-14.14.75-1.81,1.41-3.51,1.98-5.07.3,1.04.58,1.87.85,2.37,1.75,3.28,3.39-21.07,3.39-21.07h-.02c.15-.9.29-1.86.44-2.87.75,1.72,1.44,3.08,1.95,3.74,2.02,2.58.26-15.92-.18-20.38.07-1.22.13-2.46.17-3.73,1.24,2.05,2.35,3.71,3.08,4.4,2.7,2.57-3.38-21.07-3.38-21.07l-.11.04c-.14-1.55-.31-3.12-.52-4.69,2.15,2.24,4.12,4.11,5.18,4.73,3.23,1.86-8.26-19.67-8.26-19.67Z"/>
  <ellipse class="cls-3" cx="323.61" cy="223.35" rx="23.42" ry="22.99" transform="translate(9.1 459.34) rotate(-71.5)"/>
  <path class="cls-3" d="M213.46,412.05s3.57-12.11,17.74-12.39l6.85-.5-2.16-8.89s.94-2.82,5.82-1.5c0,0,1.31.38,1.78,2.07l11.27.94-.94,20.28h-40.37Z"/>
  <path class="cls-3" d="M260.01,413.44s2.73-12.33,16.85-13.58l6.8-.97-2.76-8.72s.74-2.87,5.7-1.9c0,0,1.34.28,1.92,1.94l11.3.17.45,20.29-40.27,2.76Z"/>
  <ellipse class="cls-3" cx="201.55" cy="222.34" rx="22.99" ry="22.23" transform="translate(-74.96 105.72) rotate(-24.94)"/>
  <rect class="cls-3" x="142.97" y="232.97" width="35.15" height="58.97" rx="6.27" ry="6.27" transform="translate(-66.62 54.97) rotate(-16.14)"/>
  <circle class="cls-3" cx="143.31" cy="243.85" r="2.82"/>
  <circle class="cls-3" cx="146.36" cy="241.17" r="1.37"/>
  <path class="cls-3" d="M321.09,137.8s8.25,15.66,8.79,19.34-15.23-14.95-15.23-14.95c0,0-2.64-3.04.62-5.46s5.82,1.06,5.82,1.06Z"/>
  <path class="cls-3" d="M336.55,167.44s2.75,17.48,2.07,21.14-9.58-19.06-9.58-19.06c0,0-1.52-3.73,2.35-4.96s5.16,2.89,5.16,2.89Z"/>
  <path class="cls-3" d="M297.94,118.61s10.08,14.55,11.05,18.14-16.92-13-16.92-13c0,0-2.99-2.7-.04-5.49s5.91.35,5.91.35Z"/>
  <path class="cls-3" d="M315.18,159.7s2.75,17.48,2.07,21.14-9.58-19.06-9.58-19.06c0,0-1.52-3.73,2.35-4.96s5.16,2.89,5.16,2.89Z"/>
  <path class="cls-3" d="M275.65,114.89s12.96,12.05,14.68,15.35-19.31-9.08-19.31-9.08c0,0-3.5-2-1.22-5.35,2.28-3.36,5.84-.92,5.84-.92Z"/>
  <path class="cls-3" d="M254.09,114.89s12.96,12.05,14.68,15.35-19.31-9.08-19.31-9.08c0,0-3.5-2-1.22-5.35s5.84-.92,5.84-.92Z"/>
  <path class="cls-3" d="M242.01,124.02s-7.3,16.12-9.88,18.8,2.47-21.19,2.47-21.19c0,0,.78-3.95,4.69-2.86s2.73,5.25,2.73,5.25Z"/>
  <path class="cls-3" d="M300.08,136.08s2.75,17.48,2.07,21.14-9.58-19.06-9.58-19.06c0,0-1.52-3.73,2.35-4.96s5.16,2.89,5.16,2.89Z"/>
  <path class="cls-3" d="M282.67,137.73s2.75,17.48,2.07,21.14-9.58-19.06-9.58-19.06c0,0-1.52-3.73,2.35-4.96,3.87-1.23,5.16,2.89,5.16,2.89Z"/>
  <path class="cls-3" d="M260.19,137.39s2.75,17.48,2.07,21.14-9.58-19.06-9.58-19.06c0,0-1.52-3.73,2.35-4.96,3.87-1.23,5.16,2.89,5.16,2.89Z"/>
  <path class="cls-3" d="M244.99,148.41s2.75,17.48,2.07,21.14-9.58-19.06-9.58-19.06c0,0-1.52-3.73,2.35-4.96s5.16,2.89,5.16,2.89Z"/>
  <path class="cls-3" d="M184.95,225.01s-1.93,17.59-3.56,20.94-4.24-20.91-4.24-20.91c0,0-.49-4,3.57-4.17,4.05-.18,4.23,4.14,4.23,4.14Z"/>
  <path class="cls-3" d="M188.78,253.19s4.54,17.11,4.23,20.82c-.3,3.71-11.49-17.98-11.49-17.98,0,0-1.89-3.55,1.82-5.18s5.43,2.34,5.43,2.34Z"/>
  <path class="cls-3" d="M203.2,274.9s6.67,16.39,6.84,20.11c.17,3.72-13.68-16.38-13.68-16.38,0,0-2.33-3.28,1.15-5.37s5.69,1.63,5.69,1.63Z"/>
  <path class="cls-3" d="M219.28,284.14s1.12,17.66.1,21.24-7.77-19.87-7.77-19.87c0,0-1.17-3.85,2.8-4.72,3.96-.87,4.87,3.35,4.87,3.35Z"/>
  <path class="cls-3" d="M236.46,296.68s1.12,17.66.1,21.24-7.77-19.87-7.77-19.87c0,0-1.17-3.85,2.8-4.72s4.87,3.35,4.87,3.35Z"/>
  <path class="cls-3" d="M250.81,301.7s1.12,17.66.1,21.24-7.77-19.87-7.77-19.87c0,0-1.17-3.85,2.8-4.72,3.96-.87,4.87,3.35,4.87,3.35Z"/>
  <path class="cls-3" d="M270.45,301.25s-2.7,17.49-4.46,20.77-3.32-21.08-3.32-21.08c0,0-.31-4.01,3.75-4.01,4.06,0,4.04,4.32,4.04,4.32Z"/>
  <path class="cls-3" d="M287.49,298.97s-3.71,17.31-5.66,20.48-2.1-21.23-2.1-21.23c0,0-.08-4.02,3.97-3.79,4.05.24,3.78,4.55,3.78,4.55Z"/>
  <path class="cls-3" d="M303.05,292.18s-3.88,17.27-5.86,20.42-1.89-21.25-1.89-21.25c0,0-.04-4.03,4.01-3.75,4.05.28,3.74,4.58,3.74,4.58Z"/>
  <path class="cls-3" d="M318.3,274.79s-5.04,16.97-7.23,19.98c-2.19,3.01-.45-21.33-.45-21.33,0,0,.23-4.02,4.25-3.47,4.02.55,3.42,4.83,3.42,4.83Z"/>
  <path class="cls-3" d="M211.59,256.58s-.11,17.7-1.37,21.2-6.38-20.36-6.38-20.36c0,0-.9-3.92,3.12-4.52s4.63,3.68,4.63,3.68Z"/>
  <path class="cls-3" d="M229.4,267.69s-.11,17.7-1.37,21.2c-1.27,3.5-6.38-20.36-6.38-20.36,0,0-.9-3.92,3.12-4.52s4.63,3.68,4.63,3.68Z"/>
  <path class="cls-3" d="M244.74,273.56s-.11,17.7-1.37,21.2-6.38-20.36-6.38-20.36c0,0-.9-3.92,3.12-4.52s4.63,3.68,4.63,3.68Z"/>
  <path class="cls-3" d="M261.47,278.68s-.11,17.7-1.37,21.2-6.38-20.36-6.38-20.36c0,0-.9-3.92,3.12-4.52s4.63,3.68,4.63,3.68Z"/>
  <path class="cls-3" d="M278.05,273.56s-.11,17.7-1.37,21.2-6.38-20.36-6.38-20.36c0,0-.9-3.92,3.12-4.52s4.63,3.68,4.63,3.68Z"/>
  <path class="cls-3" d="M292.74,269.68s-.11,17.7-1.37,21.2-6.38-20.36-6.38-20.36c0,0-.9-3.92,3.12-4.52s4.63,3.68,4.63,3.68Z"/>
  <path class="cls-3" d="M310.26,251.25s-.11,17.7-1.37,21.2-6.38-20.36-6.38-20.36c0,0-.9-3.92,3.12-4.52s4.63,3.68,4.63,3.68Z"/>
  <path class="cls-3" d="M219.94,238.77s-.11,17.7-1.37,21.2-6.38-20.36-6.38-20.36c0,0-.9-3.92,3.12-4.52s4.63,3.68,4.63,3.68Z"/>
  <path class="cls-3" d="M328.75,246.8s-.11,17.7-1.37,21.2-6.38-20.36-6.38-20.36c0,0-.9-3.92,3.12-4.52s4.63,3.68,4.63,3.68Z"/>
  <path class="cls-3" d="M198.27,234.16s-.11,17.7-1.37,21.2-6.38-20.36-6.38-20.36c0,0-.9-3.92,3.12-4.52,4.01-.59,4.63,3.68,4.63,3.68Z"/>
  <path class="cls-3" d="M237.23,243.94s-.11,17.7-1.37,21.2-6.38-20.36-6.38-20.36c0,0-.9-3.92,3.12-4.52s4.63,3.68,4.63,3.68Z"/>
  <path class="cls-3" d="M255.85,245.68s-.11,17.7-1.37,21.2-6.38-20.36-6.38-20.36c0,0-.9-3.92,3.12-4.52s4.63,3.68,4.63,3.68Z"/>
  <path class="cls-3" d="M274.37,243.15s-.11,17.7-1.37,21.2-6.38-20.36-6.38-20.36c0,0-.9-3.92,3.12-4.52s4.63,3.68,4.63,3.68Z"/>
  <path class="cls-3" d="M295.5,239.67s-.11,17.7-1.37,21.2-6.38-20.36-6.38-20.36c0,0-.9-3.92,3.12-4.52,4.01-.59,4.63,3.68,4.63,3.68Z"/>
  <path class="cls-3" d="M303.08,212.24s-.11,17.7-1.37,21.2-6.38-20.36-6.38-20.36c0,0-.9-3.92,3.12-4.52,4.01-.59,4.63,3.68,4.63,3.68Z"/>
  <path class="cls-3" d="M286.61,212.27s-.11,17.7-1.37,21.2-6.38-20.36-6.38-20.36c0,0-.9-3.92,3.12-4.52s4.63,3.68,4.63,3.68Z"/>
  <path class="cls-3" d="M270.26,211.67s-.11,17.7-1.37,21.2-6.38-20.36-6.38-20.36c0,0-.9-3.92,3.12-4.52s4.63,3.68,4.63,3.68Z"/>
  <path class="cls-3" d="M253.34,212.52s-.11,17.7-1.37,21.2-6.38-20.36-6.38-20.36c0,0-.9-3.92,3.12-4.52s4.63,3.68,4.63,3.68Z"/>
  <path class="cls-3" d="M236.54,212.45s-.11,17.7-1.37,21.2-6.38-20.36-6.38-20.36c0,0-.9-3.92,3.12-4.52,4.01-.59,4.63,3.68,4.63,3.68Z"/>
  <path class="cls-3" d="M276.17,167.09s-.11,17.7-1.37,21.2-6.38-20.36-6.38-20.36c0,0-.9-3.92,3.12-4.52s4.63,3.68,4.63,3.68Z"/>
  <path class="cls-3" d="M258.43,177.04s-.11,17.7-1.37,21.2c-1.27,3.5-6.38-20.36-6.38-20.36,0,0-.9-3.92,3.12-4.52s4.63,3.68,4.63,3.68Z"/>
  <path class="cls-3" d="M225.48,146.77s-.11,17.7-1.37,21.2-6.38-20.36-6.38-20.36c0,0-.9-3.92,3.12-4.52s4.63,3.68,4.63,3.68Z"/>
  <path class="cls-3" d="M276.17,214.95c-2.39-5.77-3.18-13.17-2.43-20.98,1.7-17.83,11.67-31.46,22.27-30.44,10.6,1.01,17.81,16.28,16.11,34.11-.59,6.16-2.16,11.81-4.41,16.54-.65,1.36-1.94,2.31-3.44,2.52-6.75.98-26.02,3.3-28.11-1.75Z"/>
  <circle class="cls-3" cx="284.76" cy="204.71" r="10.73"/>
  <circle class="cls-3" cx="280.8" cy="203.38" r="5.29"/>
  <path class="cls-3" d="M276.17,214.95s2.49,3.65,17.2,2.93c14.71-.72,14.35-3.7,14.35-3.7,0,0,.25,4.75-13.88,4.45-14.13-.31-16.39-1.21-17.67-3.67Z"/>
  <path class="cls-3" d="M298.55,186.08s0,0,0,0h0c1.65-.15,3.4-.25,5.25-.31,14.65-1.67,24.42-9.7,24.42-9.7-5.15,8.54-16.97,9.76-16.97,9.76,0,0,10.12,2.48,17.1-6.01,0,0-4.8,11.3-16.79,9.05-11.99-2.25-28.82.38-38.7,6.95,0,0,6.01-7.96,25.69-9.74Z"/>
  <path class="cls-3" d="M272.85,195.82s3.52-31.1,21.63-32.33c0,0,13.25-2.32,17.21,20.71l-6.43,2.35-15.55,1.83-9.28,2.97-7.58,4.47Z"/>
  <path class="cls-3" d="M247.15,214.58c1.98-5.93,2.24-13.36.94-21.1-2.96-17.66-13.87-30.55-24.37-28.79-10.5,1.76-16.62,17.5-13.66,35.16,1.02,6.1,2.99,11.63,5.57,16.18.74,1.31,2.1,2.16,3.61,2.27,6.81.5,26.19,1.45,27.92-3.73Z"/>
  <circle class="cls-3" cx="227.62" cy="205.34" r="10.73"/>
  <circle class="cls-3" cx="223.57" cy="204.28" r="5.29"/>
  <path class="cls-3" d="M247.15,214.58s-2.23,3.82-16.95,4.14-14.58-2.68-14.58-2.68c0,0,.09,4.76,14.16,3.45s16.27-2.37,17.36-4.91Z"/>
  <path class="cls-3" d="M222.79,187.37s0,0,0,0h0c-1.66-.03-3.41-.01-5.26.07-14.73-.63-25.05-7.95-25.05-7.95,5.74,8.16,17.62,8.53,17.62,8.53,0,0-9.92,3.18-17.48-4.79,0,0,5.58,10.93,17.39,7.84,11.81-3.1,28.78-1.66,39.09,4.2,0,0-6.56-7.52-26.32-7.9Z"/>
  <path class="cls-3" d="M249.11,195.26s-5.71-30.77-23.86-30.72c0,0-13.38-1.38-15.71,21.88l6.58,1.89,15.64.73,9.47,2.31,7.88,3.92Z"/>
  <path class="cls-3" d="M230.6,121.53c-17.58,77.74-83.25,119.11-83.25,119.11,15.55-22.74,13.86-38.12,13.86-38.12-10.31-95.16,66.94-86.78,66.94-86.78,0,0,25.9-7.64,36.31-5.97,0,0-32.21,4.52-33.85,11.77Z"/>
  <path class="cls-3" d="M242.32,107.25c-58.53,54.1-136.08,50.98-136.08,50.98,25.69-9.93,33.02-23.56,33.02-23.56,45.41-84.25,104.33-33.59,104.33-33.59,0,0,25.66,8.38,33.31,15.65,0,0-29.1-14.53-34.56-9.48Z"/>
  <path class="cls-3" d="M260.24,254.87s10.78,7.53,25.62,2.66c14.84-4.86,13.32-19.36,13.32-19.36"/>
  <path class="cls-3" d="M260.24,254.87s9.36-4.26,13.32-8.12c3.96-3.86,8.15-.78,8.15-.78,0,0,.9-5.46,6.06-5.62s11.43-2.18,11.43-2.18c0,0-3.93,14-38.94,16.7Z"/>
  <path class="cls-3" d="M348.76,203.38c-13.89,0-25.15,14.7-25.15,32.83s11.26,32.83,25.15,32.83,25.15-14.7,25.15-32.83-11.26-32.83-25.15-32.83ZM349.94,257.38c-11.15,0-20.19-11.8-20.19-26.35s9.04-26.35,20.19-26.35,20.19,11.8,20.19,26.35-9.04,26.35-20.19,26.35Z"/>
  <path class="cls-2" d="M320.14,275.98c-.63,12.16-1.65,24.38-3.47,36.42-.88,5.82-1.5,13.28-4.65,18.32-.7,1.12.19,1.08-.55.02-1.78-2.55-3.01-6.55-3.97-9.81-6.49-22.11-9.16-45.6-12.22-68.35-.42-3.14-5.43-3.18-5,0,3.03,22.56,5.78,45.6,11.81,67.61,1.12,4.08,3.95,17.89,10.86,15.99,5.31-1.46,6.49-11.18,7.35-15.51,1.77-8.94,2.73-18.06,3.56-27.13.53-5.84.98-11.7,1.29-17.56.17-3.22-4.83-3.21-5,0h0Z"/>
  <path class="cls-4" d="M175.03,328.39c-5.72-5.75-11.84-20.92-17.87-51.79"/>
  <g>
    <path class="cls-3" d="M153.38,257.79c-1.39.36-2.69-.42-3.05-1.84-.34-1.31.48-2.67,1.83-3.01,1.34-.35,2.73.5,3.07,1.87.33,1.33-.47,2.63-1.85,2.99Z"/>
    <path class="cls-3" d="M153.52,258c1.35-.4,2.76.38,3.14,1.73.38,1.33-.37,2.67-1.72,3.07-1.35.4-2.7-.32-3.1-1.65-.42-1.39.3-2.75,1.68-3.16Z"/>
    <path class="cls-3" d="M151.98,252.74c-1.36.39-2.67-.34-3.07-1.68-.4-1.36.39-2.8,1.72-3.15,1.33-.35,2.76.47,3.12,1.81.36,1.33-.41,2.64-1.78,3.03Z"/>
    <path class="cls-3" d="M158.47,248.31c.34,1.14-.32,2.37-1.46,2.74-1.15.37-2.5-.38-2.83-1.59-.31-1.12.41-2.38,1.55-2.7,1.2-.35,2.38.32,2.74,1.55Z"/>
    <path class="cls-3" d="M159.93,253.33c.34,1.15-.33,2.38-1.47,2.73-1.18.36-2.51-.38-2.83-1.58-.3-1.12.41-2.37,1.56-2.7,1.2-.35,2.38.31,2.74,1.54Z"/>
    <path class="cls-3" d="M161.05,246.26c.62-.17,1.3.2,1.49.82.2.65-.2,1.38-.84,1.55-.67.18-1.32-.21-1.5-.9-.16-.63.22-1.29.85-1.46Z"/>
    <path class="cls-3" d="M162.49,251.3c.63-.18,1.31.17,1.5.79.21.65-.17,1.37-.82,1.56-.68.19-1.32-.17-1.51-.87-.17-.64.19-1.29.82-1.47Z"/>
    <path class="cls-3" d="M160.42,258.61c.18.63-.16,1.3-.78,1.5-.68.22-1.33-.13-1.54-.81-.2-.68.16-1.33.85-1.51.64-.17,1.28.19,1.47.83Z"/>
    <path class="cls-3" d="M163.94,256.34c.62-.19,1.3.16,1.51.77.22.65-.15,1.36-.81,1.55-.68.2-1.35-.17-1.53-.85-.17-.63.19-1.28.83-1.47Z"/>
  </g>
</svg>