<svg width="428" height="144" viewBox="0 0 428 144" fill="none" xmlns="http://www.w3.org/2000/svg">
<path d="M51.4142 80.5858C50.1543 81.8457 51.0466 84 52.8284 84H62V70L51.4142 80.5858Z" fill="#DF4F4F"/>
<path d="M62 8C62 3.58172 65.5817 0 70 0H420C424.418 0 428 3.58172 428 8V76C428 80.4183 424.418 84 420 84H62V8Z" fill="#DF4F4F"/>
<path d="M62 8C62 3.58172 65.5817 0 70 0H420C424.418 0 428 3.58172 428 8V76C428 80.4183 424.418 84 420 84H62V8Z" fill="url(#paint0_linear_150_36047)" fill-opacity="0.2"/>
<path d="M78.7688 27V17.2H79.9448V27H78.7688ZM81.98 27V19.944H83.044L83.1 21.176C83.324 20.7373 83.6413 20.3967 84.052 20.154C84.472 19.902 84.948 19.776 85.48 19.776C86.0307 19.776 86.5067 19.888 86.908 20.112C87.3093 20.3267 87.622 20.658 87.846 21.106C88.07 21.5447 88.182 22.1047 88.182 22.786V27H87.006V22.912C87.006 22.2027 86.8473 21.6707 86.53 21.316C86.222 20.9613 85.7833 20.784 85.214 20.784C84.822 20.784 84.472 20.882 84.164 21.078C83.856 21.2647 83.6087 21.54 83.422 21.904C83.2447 22.2587 83.156 22.702 83.156 23.234V27H81.98ZM91.9123 27L89.2383 19.944H90.4703L92.5983 25.866L94.7403 19.944H95.9443L93.2703 27H91.9123ZM100.004 27.168C99.341 27.168 98.753 27.014 98.2397 26.706C97.7357 26.398 97.339 25.9687 97.0497 25.418C96.7604 24.858 96.6157 24.2093 96.6157 23.472C96.6157 22.7253 96.7557 22.0767 97.0357 21.526C97.325 20.9753 97.7264 20.546 98.2397 20.238C98.7624 19.93 99.3597 19.776 100.032 19.776C100.722 19.776 101.306 19.93 101.782 20.238C102.267 20.546 102.636 20.952 102.888 21.456C103.149 21.9507 103.28 22.4967 103.28 23.094C103.28 23.1873 103.28 23.2853 103.28 23.388C103.28 23.4907 103.275 23.6073 103.266 23.738H97.4977V22.828H102.132C102.104 22.184 101.889 21.68 101.488 21.316C101.096 20.952 100.601 20.77 100.004 20.77C99.6024 20.77 99.229 20.8633 98.8837 21.05C98.5477 21.2273 98.277 21.4933 98.0717 21.848C97.8664 22.1933 97.7637 22.6273 97.7637 23.15V23.542C97.7637 24.1207 97.8664 24.606 98.0717 24.998C98.2864 25.39 98.5617 25.684 98.8977 25.88C99.243 26.076 99.6117 26.174 100.004 26.174C100.498 26.174 100.904 26.0667 101.222 25.852C101.548 25.628 101.782 25.3293 101.922 24.956H103.084C102.972 25.376 102.776 25.754 102.496 26.09C102.216 26.426 101.866 26.692 101.446 26.888C101.035 27.0747 100.554 27.168 100.004 27.168ZM107.527 27.168C106.939 27.168 106.425 27.07 105.987 26.874C105.557 26.678 105.212 26.4073 104.951 26.062C104.699 25.7073 104.545 25.292 104.489 24.816H105.693C105.739 25.0587 105.837 25.2827 105.987 25.488C106.136 25.6933 106.337 25.8613 106.589 25.992C106.85 26.1133 107.167 26.174 107.541 26.174C107.867 26.174 108.138 26.1273 108.353 26.034C108.567 25.9313 108.726 25.796 108.829 25.628C108.941 25.46 108.997 25.278 108.997 25.082C108.997 24.7927 108.927 24.5733 108.787 24.424C108.656 24.2747 108.46 24.158 108.199 24.074C107.937 23.9807 107.62 23.9013 107.247 23.836C106.939 23.78 106.635 23.7053 106.337 23.612C106.038 23.5187 105.772 23.3973 105.539 23.248C105.305 23.0893 105.119 22.898 104.979 22.674C104.848 22.45 104.783 22.1747 104.783 21.848C104.783 21.4467 104.885 21.092 105.091 20.784C105.296 20.4667 105.59 20.2193 105.973 20.042C106.365 19.8647 106.817 19.776 107.331 19.776C108.087 19.776 108.698 19.958 109.165 20.322C109.631 20.686 109.907 21.2133 109.991 21.904H108.829C108.782 21.5493 108.628 21.274 108.367 21.078C108.115 20.8727 107.765 20.77 107.317 20.77C106.878 20.77 106.542 20.8587 106.309 21.036C106.085 21.2133 105.973 21.4467 105.973 21.736C105.973 21.9227 106.033 22.0907 106.155 22.24C106.285 22.38 106.472 22.5013 106.715 22.604C106.967 22.7067 107.275 22.7907 107.639 22.856C108.105 22.94 108.53 23.052 108.913 23.192C109.295 23.332 109.603 23.542 109.837 23.822C110.079 24.0927 110.201 24.48 110.201 24.984C110.201 25.4227 110.089 25.8053 109.865 26.132C109.65 26.4587 109.342 26.7153 108.941 26.902C108.539 27.0793 108.068 27.168 107.527 27.168ZM114.352 27C113.932 27 113.568 26.9347 113.26 26.804C112.952 26.6733 112.714 26.454 112.546 26.146C112.387 25.8287 112.308 25.404 112.308 24.872V20.938H111.076V19.944H112.308L112.462 18.236H113.484V19.944H115.528V20.938H113.484V24.872C113.484 25.3107 113.572 25.6093 113.75 25.768C113.927 25.9173 114.24 25.992 114.688 25.992H115.444V27H114.352ZM117.174 27V19.944H118.35V27H117.174ZM117.762 18.446C117.529 18.446 117.333 18.3713 117.174 18.222C117.025 18.0633 116.95 17.8673 116.95 17.634C116.95 17.4007 117.025 17.214 117.174 17.074C117.333 16.9247 117.529 16.85 117.762 16.85C117.986 16.85 118.177 16.9247 118.336 17.074C118.495 17.214 118.574 17.4007 118.574 17.634C118.574 17.8673 118.495 18.0633 118.336 18.222C118.177 18.3713 117.986 18.446 117.762 18.446ZM120.425 27V19.944H121.489L121.545 21.176C121.769 20.7373 122.087 20.3967 122.497 20.154C122.917 19.902 123.393 19.776 123.925 19.776C124.476 19.776 124.952 19.888 125.353 20.112C125.755 20.3267 126.067 20.658 126.291 21.106C126.515 21.5447 126.627 22.1047 126.627 22.786V27H125.451V22.912C125.451 22.2027 125.293 21.6707 124.975 21.316C124.667 20.9613 124.229 20.784 123.659 20.784C123.267 20.784 122.917 20.882 122.609 21.078C122.301 21.2647 122.054 21.54 121.867 21.904C121.69 22.2587 121.601 22.702 121.601 23.234V27H120.425ZM131.936 30.248C131.479 30.248 131.05 30.1873 130.648 30.066C130.256 29.954 129.902 29.786 129.584 29.562C129.267 29.338 129.006 29.0627 128.8 28.736C128.595 28.4093 128.455 28.0407 128.38 27.63H129.542C129.645 27.938 129.804 28.2133 130.018 28.456C130.242 28.6987 130.518 28.8853 130.844 29.016C131.171 29.156 131.53 29.226 131.922 29.226C132.38 29.226 132.786 29.128 133.14 28.932C133.504 28.7453 133.789 28.456 133.994 28.064C134.209 27.6813 134.316 27.196 134.316 26.608V25.6C134.167 25.8613 133.971 26.1087 133.728 26.342C133.486 26.566 133.187 26.748 132.832 26.888C132.487 27.028 132.086 27.098 131.628 27.098C130.984 27.098 130.401 26.944 129.878 26.636C129.356 26.3187 128.94 25.8847 128.632 25.334C128.324 24.774 128.17 24.1393 128.17 23.43C128.17 22.7113 128.324 22.0813 128.632 21.54C128.94 20.9893 129.356 20.56 129.878 20.252C130.41 19.9347 130.998 19.776 131.642 19.776C132.053 19.776 132.431 19.8413 132.776 19.972C133.122 20.0933 133.425 20.2613 133.686 20.476C133.948 20.6907 134.158 20.9287 134.316 21.19L134.428 19.944H135.492V26.594C135.492 27.1727 135.404 27.686 135.226 28.134C135.049 28.5913 134.802 28.974 134.484 29.282C134.176 29.5993 133.803 29.8373 133.364 29.996C132.935 30.164 132.459 30.248 131.936 30.248ZM131.81 26.076C132.296 26.076 132.72 25.964 133.084 25.74C133.458 25.516 133.747 25.208 133.952 24.816C134.167 24.4147 134.274 23.9527 134.274 23.43C134.274 22.898 134.167 22.436 133.952 22.044C133.747 21.652 133.458 21.3487 133.084 21.134C132.72 20.91 132.296 20.798 131.81 20.798C131.353 20.798 130.938 20.91 130.564 21.134C130.191 21.3487 129.897 21.652 129.682 22.044C129.477 22.436 129.374 22.898 129.374 23.43C129.374 23.9527 129.477 24.4147 129.682 24.816C129.897 25.208 130.191 25.516 130.564 25.74C130.938 25.964 131.353 26.076 131.81 26.076ZM144.33 27.168C143.667 27.168 143.07 27.014 142.538 26.706C142.015 26.398 141.605 25.9687 141.306 25.418C141.007 24.858 140.858 24.214 140.858 23.486C140.858 22.7393 141.007 22.0907 141.306 21.54C141.605 20.9893 142.015 20.56 142.538 20.252C143.07 19.9347 143.667 19.776 144.33 19.776C145.17 19.776 145.87 19.9953 146.43 20.434C146.99 20.8633 147.345 21.442 147.494 22.17H146.29C146.197 21.7313 145.968 21.3907 145.604 21.148C145.24 20.9053 144.811 20.784 144.316 20.784C143.915 20.784 143.541 20.8867 143.196 21.092C142.851 21.288 142.575 21.5867 142.37 21.988C142.165 22.3893 142.062 22.884 142.062 23.472C142.062 23.9107 142.123 24.3027 142.244 24.648C142.365 24.984 142.529 25.264 142.734 25.488C142.939 25.712 143.177 25.8847 143.448 26.006C143.728 26.118 144.017 26.174 144.316 26.174C144.652 26.174 144.955 26.1227 145.226 26.02C145.497 25.908 145.725 25.7447 145.912 25.53C146.099 25.3153 146.225 25.0633 146.29 24.774H147.494C147.345 25.4833 146.985 26.062 146.416 26.51C145.856 26.9487 145.161 27.168 144.33 27.168ZM151.46 27.168C150.89 27.168 150.414 27.07 150.032 26.874C149.649 26.6687 149.364 26.4027 149.178 26.076C148.991 25.74 148.898 25.376 148.898 24.984C148.898 24.508 149.019 24.1067 149.262 23.78C149.514 23.444 149.864 23.192 150.312 23.024C150.769 22.8467 151.306 22.758 151.922 22.758H153.784C153.784 22.3193 153.714 21.9553 153.574 21.666C153.443 21.3673 153.247 21.1433 152.986 20.994C152.734 20.8447 152.416 20.77 152.034 20.77C151.586 20.77 151.198 20.882 150.872 21.106C150.545 21.33 150.344 21.6613 150.27 22.1H149.066C149.122 21.596 149.29 21.176 149.57 20.84C149.859 20.4947 150.223 20.2333 150.662 20.056C151.1 19.8693 151.558 19.776 152.034 19.776C152.687 19.776 153.228 19.8973 153.658 20.14C154.096 20.3733 154.423 20.7047 154.638 21.134C154.852 21.554 154.96 22.0533 154.96 22.632V27H153.91L153.84 25.754C153.746 25.95 153.625 26.1367 153.476 26.314C153.336 26.482 153.168 26.6313 152.972 26.762C152.776 26.8833 152.552 26.9813 152.3 27.056C152.057 27.1307 151.777 27.168 151.46 27.168ZM151.642 26.174C151.968 26.174 152.262 26.1087 152.524 25.978C152.794 25.838 153.023 25.6513 153.21 25.418C153.396 25.1753 153.536 24.9093 153.63 24.62C153.732 24.3307 153.784 24.0273 153.784 23.71V23.668H152.02C151.562 23.668 151.194 23.724 150.914 23.836C150.634 23.9387 150.433 24.088 150.312 24.284C150.19 24.4707 150.13 24.6853 150.13 24.928C150.13 25.18 150.186 25.3993 150.298 25.586C150.419 25.7727 150.592 25.9173 150.816 26.02C151.049 26.1227 151.324 26.174 151.642 26.174ZM156.779 27V19.944H157.843L157.899 21.176C158.123 20.7373 158.44 20.3967 158.851 20.154C159.271 19.902 159.747 19.776 160.279 19.776C160.829 19.776 161.305 19.888 161.707 20.112C162.108 20.3267 162.421 20.658 162.645 21.106C162.869 21.5447 162.981 22.1047 162.981 22.786V27H161.805V22.912C161.805 22.2027 161.646 21.6707 161.329 21.316C161.021 20.9613 160.582 20.784 160.013 20.784C159.621 20.784 159.271 20.882 158.963 21.078C158.655 21.2647 158.407 21.54 158.221 21.904C158.043 22.2587 157.955 22.702 157.955 23.234V27H156.779ZM171.197 27.168C170.609 27.168 170.095 27.07 169.657 26.874C169.227 26.678 168.882 26.4073 168.621 26.062C168.369 25.7073 168.215 25.292 168.159 24.816H169.363C169.409 25.0587 169.507 25.2827 169.657 25.488C169.806 25.6933 170.007 25.8613 170.259 25.992C170.52 26.1133 170.837 26.174 171.211 26.174C171.537 26.174 171.808 26.1273 172.023 26.034C172.237 25.9313 172.396 25.796 172.499 25.628C172.611 25.46 172.667 25.278 172.667 25.082C172.667 24.7927 172.597 24.5733 172.457 24.424C172.326 24.2747 172.13 24.158 171.869 24.074C171.607 23.9807 171.29 23.9013 170.917 23.836C170.609 23.78 170.305 23.7053 170.007 23.612C169.708 23.5187 169.442 23.3973 169.209 23.248C168.975 23.0893 168.789 22.898 168.649 22.674C168.518 22.45 168.453 22.1747 168.453 21.848C168.453 21.4467 168.555 21.092 168.761 20.784C168.966 20.4667 169.26 20.2193 169.643 20.042C170.035 19.8647 170.487 19.776 171.001 19.776C171.757 19.776 172.368 19.958 172.835 20.322C173.301 20.686 173.577 21.2133 173.661 21.904H172.499C172.452 21.5493 172.298 21.274 172.037 21.078C171.785 20.8727 171.435 20.77 170.987 20.77C170.548 20.77 170.212 20.8587 169.979 21.036C169.755 21.2133 169.643 21.4467 169.643 21.736C169.643 21.9227 169.703 22.0907 169.825 22.24C169.955 22.38 170.142 22.5013 170.385 22.604C170.637 22.7067 170.945 22.7907 171.309 22.856C171.775 22.94 172.2 23.052 172.583 23.192C172.965 23.332 173.273 23.542 173.507 23.822C173.749 24.0927 173.871 24.48 173.871 24.984C173.871 25.4227 173.759 25.8053 173.535 26.132C173.32 26.4587 173.012 26.7153 172.611 26.902C172.209 27.0793 171.738 27.168 171.197 27.168ZM178.658 27.168C177.995 27.168 177.407 27.014 176.894 26.706C176.39 26.398 175.993 25.9687 175.704 25.418C175.415 24.858 175.27 24.2093 175.27 23.472C175.27 22.7253 175.41 22.0767 175.69 21.526C175.979 20.9753 176.381 20.546 176.894 20.238C177.417 19.93 178.014 19.776 178.686 19.776C179.377 19.776 179.96 19.93 180.436 20.238C180.921 20.546 181.29 20.952 181.542 21.456C181.803 21.9507 181.934 22.4967 181.934 23.094C181.934 23.1873 181.934 23.2853 181.934 23.388C181.934 23.4907 181.929 23.6073 181.92 23.738H176.152V22.828H180.786C180.758 22.184 180.543 21.68 180.142 21.316C179.75 20.952 179.255 20.77 178.658 20.77C178.257 20.77 177.883 20.8633 177.538 21.05C177.202 21.2273 176.931 21.4933 176.726 21.848C176.521 22.1933 176.418 22.6273 176.418 23.15V23.542C176.418 24.1207 176.521 24.606 176.726 24.998C176.941 25.39 177.216 25.684 177.552 25.88C177.897 26.076 178.266 26.174 178.658 26.174C179.153 26.174 179.559 26.0667 179.876 25.852C180.203 25.628 180.436 25.3293 180.576 24.956H181.738C181.626 25.376 181.43 25.754 181.15 26.09C180.87 26.426 180.52 26.692 180.1 26.888C179.689 27.0747 179.209 27.168 178.658 27.168ZM186.615 27.168C185.952 27.168 185.364 27.014 184.851 26.706C184.347 26.398 183.95 25.9687 183.661 25.418C183.372 24.858 183.227 24.2093 183.227 23.472C183.227 22.7253 183.367 22.0767 183.647 21.526C183.936 20.9753 184.338 20.546 184.851 20.238C185.374 19.93 185.971 19.776 186.643 19.776C187.334 19.776 187.917 19.93 188.393 20.238C188.878 20.546 189.247 20.952 189.499 21.456C189.76 21.9507 189.891 22.4967 189.891 23.094C189.891 23.1873 189.891 23.2853 189.891 23.388C189.891 23.4907 189.886 23.6073 189.877 23.738H184.109V22.828H188.743C188.715 22.184 188.5 21.68 188.099 21.316C187.707 20.952 187.212 20.77 186.615 20.77C186.214 20.77 185.84 20.8633 185.495 21.05C185.159 21.2273 184.888 21.4933 184.683 21.848C184.478 22.1933 184.375 22.6273 184.375 23.15V23.542C184.375 24.1207 184.478 24.606 184.683 24.998C184.898 25.39 185.173 25.684 185.509 25.88C185.854 26.076 186.223 26.174 186.615 26.174C187.11 26.174 187.516 26.0667 187.833 25.852C188.16 25.628 188.393 25.3293 188.533 24.956H189.695C189.583 25.376 189.387 25.754 189.107 26.09C188.827 26.426 188.477 26.692 188.057 26.888C187.646 27.0747 187.166 27.168 186.615 27.168ZM191.478 27V19.944H192.542L192.612 20.952C192.836 20.588 193.135 20.3033 193.508 20.098C193.891 19.8833 194.306 19.776 194.754 19.776C195.118 19.776 195.445 19.8273 195.734 19.93C196.033 20.0233 196.294 20.1727 196.518 20.378C196.742 20.574 196.924 20.826 197.064 21.134C197.307 20.7047 197.638 20.3733 198.058 20.14C198.487 19.8973 198.945 19.776 199.43 19.776C199.971 19.776 200.443 19.888 200.844 20.112C201.255 20.3267 201.567 20.658 201.782 21.106C202.006 21.5447 202.118 22.1047 202.118 22.786V27H200.956V22.912C200.956 22.2027 200.811 21.6707 200.522 21.316C200.233 20.9613 199.827 20.784 199.304 20.784C198.94 20.784 198.613 20.882 198.324 21.078C198.035 21.2647 197.806 21.54 197.638 21.904C197.47 22.268 197.386 22.716 197.386 23.248V27H196.21V22.912C196.21 22.2027 196.065 21.6707 195.776 21.316C195.487 20.9613 195.076 20.784 194.544 20.784C194.189 20.784 193.867 20.882 193.578 21.078C193.298 21.2647 193.074 21.54 192.906 21.904C192.738 22.268 192.654 22.716 192.654 23.248V27H191.478ZM210.326 27.168C209.738 27.168 209.224 27.07 208.786 26.874C208.356 26.678 208.011 26.4073 207.75 26.062C207.498 25.7073 207.344 25.292 207.288 24.816H208.492C208.538 25.0587 208.636 25.2827 208.786 25.488C208.935 25.6933 209.136 25.8613 209.388 25.992C209.649 26.1133 209.966 26.174 210.34 26.174C210.666 26.174 210.937 26.1273 211.152 26.034C211.366 25.9313 211.525 25.796 211.628 25.628C211.74 25.46 211.796 25.278 211.796 25.082C211.796 24.7927 211.726 24.5733 211.586 24.424C211.455 24.2747 211.259 24.158 210.998 24.074C210.736 23.9807 210.419 23.9013 210.046 23.836C209.738 23.78 209.434 23.7053 209.136 23.612C208.837 23.5187 208.571 23.3973 208.338 23.248C208.104 23.0893 207.918 22.898 207.778 22.674C207.647 22.45 207.582 22.1747 207.582 21.848C207.582 21.4467 207.684 21.092 207.89 20.784C208.095 20.4667 208.389 20.2193 208.772 20.042C209.164 19.8647 209.616 19.776 210.13 19.776C210.886 19.776 211.497 19.958 211.964 20.322C212.43 20.686 212.706 21.2133 212.79 21.904H211.628C211.581 21.5493 211.427 21.274 211.166 21.078C210.914 20.8727 210.564 20.77 210.116 20.77C209.677 20.77 209.341 20.8587 209.108 21.036C208.884 21.2133 208.772 21.4467 208.772 21.736C208.772 21.9227 208.832 22.0907 208.954 22.24C209.084 22.38 209.271 22.5013 209.514 22.604C209.766 22.7067 210.074 22.7907 210.438 22.856C210.904 22.94 211.329 23.052 211.712 23.192C212.094 23.332 212.402 23.542 212.636 23.822C212.878 24.0927 213 24.48 213 24.984C213 25.4227 212.888 25.8053 212.664 26.132C212.449 26.4587 212.141 26.7153 211.74 26.902C211.338 27.0793 210.867 27.168 210.326 27.168ZM217.843 27.168C217.19 27.168 216.602 27.0187 216.079 26.72C215.556 26.412 215.146 25.9827 214.847 25.432C214.548 24.872 214.399 24.2233 214.399 23.486C214.399 22.73 214.548 22.0767 214.847 21.526C215.155 20.966 215.57 20.5367 216.093 20.238C216.625 19.93 217.218 19.776 217.871 19.776C218.543 19.776 219.136 19.93 219.649 20.238C220.172 20.5367 220.582 20.966 220.881 21.526C221.189 22.0767 221.343 22.7253 221.343 23.472C221.343 24.2187 221.189 24.872 220.881 25.432C220.573 25.9827 220.158 26.412 219.635 26.72C219.112 27.0187 218.515 27.168 217.843 27.168ZM217.857 26.16C218.258 26.16 218.632 26.062 218.977 25.866C219.322 25.6607 219.602 25.3573 219.817 24.956C220.032 24.5547 220.139 24.06 220.139 23.472C220.139 22.8747 220.032 22.38 219.817 21.988C219.612 21.5867 219.336 21.288 218.991 21.092C218.655 20.8867 218.282 20.784 217.871 20.784C217.479 20.784 217.106 20.8867 216.751 21.092C216.406 21.288 216.126 21.5867 215.911 21.988C215.706 22.38 215.603 22.8747 215.603 23.472C215.603 24.06 215.706 24.5547 215.911 24.956C216.126 25.3573 216.401 25.6607 216.737 25.866C217.082 26.062 217.456 26.16 217.857 26.16ZM226.142 27.168C225.488 27.168 224.9 27.0187 224.378 26.72C223.855 26.412 223.444 25.9827 223.146 25.432C222.847 24.872 222.698 24.2233 222.698 23.486C222.698 22.73 222.847 22.0767 223.146 21.526C223.454 20.966 223.869 20.5367 224.392 20.238C224.924 19.93 225.516 19.776 226.17 19.776C226.842 19.776 227.434 19.93 227.948 20.238C228.47 20.5367 228.881 20.966 229.18 21.526C229.488 22.0767 229.642 22.7253 229.642 23.472C229.642 24.2187 229.488 24.872 229.18 25.432C228.872 25.9827 228.456 26.412 227.934 26.72C227.411 27.0187 226.814 27.168 226.142 27.168ZM226.156 26.16C226.557 26.16 226.93 26.062 227.276 25.866C227.621 25.6607 227.901 25.3573 228.116 24.956C228.33 24.5547 228.438 24.06 228.438 23.472C228.438 22.8747 228.33 22.38 228.116 21.988C227.91 21.5867 227.635 21.288 227.29 21.092C226.954 20.8867 226.58 20.784 226.17 20.784C225.778 20.784 225.404 20.8867 225.05 21.092C224.704 21.288 224.424 21.5867 224.21 21.988C224.004 22.38 223.902 22.8747 223.902 23.472C223.902 24.06 224.004 24.5547 224.21 24.956C224.424 25.3573 224.7 25.6607 225.036 25.866C225.381 26.062 225.754 26.16 226.156 26.16ZM234.441 27.168C233.787 27.168 233.199 27.0187 232.677 26.72C232.154 26.412 231.743 25.9827 231.445 25.432C231.146 24.872 230.997 24.2233 230.997 23.486C230.997 22.73 231.146 22.0767 231.445 21.526C231.753 20.966 232.168 20.5367 232.691 20.238C233.223 19.93 233.815 19.776 234.469 19.776C235.141 19.776 235.733 19.93 236.247 20.238C236.769 20.5367 237.18 20.966 237.479 21.526C237.787 22.0767 237.941 22.7253 237.941 23.472C237.941 24.2187 237.787 24.872 237.479 25.432C237.171 25.9827 236.755 26.412 236.233 26.72C235.71 27.0187 235.113 27.168 234.441 27.168ZM234.455 26.16C234.856 26.16 235.229 26.062 235.575 25.866C235.92 25.6607 236.2 25.3573 236.415 24.956C236.629 24.5547 236.737 24.06 236.737 23.472C236.737 22.8747 236.629 22.38 236.415 21.988C236.209 21.5867 235.934 21.288 235.589 21.092C235.253 20.8867 234.879 20.784 234.469 20.784C234.077 20.784 233.703 20.8867 233.349 21.092C233.003 21.288 232.723 21.5867 232.509 21.988C232.303 22.38 232.201 22.8747 232.201 23.472C232.201 24.06 232.303 24.5547 232.509 24.956C232.723 25.3573 232.999 25.6607 233.335 25.866C233.68 26.062 234.053 26.16 234.455 26.16ZM242.739 27.168C242.086 27.168 241.498 27.0187 240.975 26.72C240.453 26.412 240.042 25.9827 239.743 25.432C239.445 24.872 239.295 24.2233 239.295 23.486C239.295 22.73 239.445 22.0767 239.743 21.526C240.051 20.966 240.467 20.5367 240.989 20.238C241.521 19.93 242.114 19.776 242.767 19.776C243.439 19.776 244.032 19.93 244.545 20.238C245.068 20.5367 245.479 20.966 245.777 21.526C246.085 22.0767 246.239 22.7253 246.239 23.472C246.239 24.2187 246.085 24.872 245.777 25.432C245.469 25.9827 245.054 26.412 244.531 26.72C244.009 27.0187 243.411 27.168 242.739 27.168ZM242.753 26.16C243.155 26.16 243.528 26.062 243.873 25.866C244.219 25.6607 244.499 25.3573 244.713 24.956C244.928 24.5547 245.035 24.06 245.035 23.472C245.035 22.8747 244.928 22.38 244.713 21.988C244.508 21.5867 244.233 21.288 243.887 21.092C243.551 20.8867 243.178 20.784 242.767 20.784C242.375 20.784 242.002 20.8867 241.647 21.092C241.302 21.288 241.022 21.5867 240.807 21.988C240.602 22.38 240.499 22.8747 240.499 23.472C240.499 24.06 240.602 24.5547 240.807 24.956C241.022 25.3573 241.297 25.6607 241.633 25.866C241.979 26.062 242.352 26.16 242.753 26.16ZM254.267 27.168C253.679 27.168 253.166 27.07 252.727 26.874C252.298 26.678 251.952 26.4073 251.691 26.062C251.439 25.7073 251.285 25.292 251.229 24.816H252.433C252.48 25.0587 252.578 25.2827 252.727 25.488C252.876 25.6933 253.077 25.8613 253.329 25.992C253.59 26.1133 253.908 26.174 254.281 26.174C254.608 26.174 254.878 26.1273 255.093 26.034C255.308 25.9313 255.466 25.796 255.569 25.628C255.681 25.46 255.737 25.278 255.737 25.082C255.737 24.7927 255.667 24.5733 255.527 24.424C255.396 24.2747 255.2 24.158 254.939 24.074C254.678 23.9807 254.36 23.9013 253.987 23.836C253.679 23.78 253.376 23.7053 253.077 23.612C252.778 23.5187 252.512 23.3973 252.279 23.248C252.046 23.0893 251.859 22.898 251.719 22.674C251.588 22.45 251.523 22.1747 251.523 21.848C251.523 21.4467 251.626 21.092 251.831 20.784C252.036 20.4667 252.33 20.2193 252.713 20.042C253.105 19.8647 253.558 19.776 254.071 19.776C254.827 19.776 255.438 19.958 255.905 20.322C256.372 20.686 256.647 21.2133 256.731 21.904H255.569C255.522 21.5493 255.368 21.274 255.107 21.078C254.855 20.8727 254.505 20.77 254.057 20.77C253.618 20.77 253.282 20.8587 253.049 21.036C252.825 21.2133 252.713 21.4467 252.713 21.736C252.713 21.9227 252.774 22.0907 252.895 22.24C253.026 22.38 253.212 22.5013 253.455 22.604C253.707 22.7067 254.015 22.7907 254.379 22.856C254.846 22.94 255.27 23.052 255.653 23.192C256.036 23.332 256.344 23.542 256.577 23.822C256.82 24.0927 256.941 24.48 256.941 24.984C256.941 25.4227 256.829 25.8053 256.605 26.132C256.39 26.4587 256.082 26.7153 255.681 26.902C255.28 27.0793 254.808 27.168 254.267 27.168ZM262.974 27L259.614 23.136L262.68 19.944H264.122L260.608 23.556L260.622 22.716L264.472 27H262.974ZM258.634 27V16.92H259.81V27H258.634ZM265.801 27V19.944H266.977V27H265.801ZM266.389 18.446C266.156 18.446 265.96 18.3713 265.801 18.222C265.652 18.0633 265.577 17.8673 265.577 17.634C265.577 17.4007 265.652 17.214 265.801 17.074C265.96 16.9247 266.156 16.85 266.389 16.85C266.613 16.85 266.804 16.9247 266.963 17.074C267.122 17.214 267.201 17.4007 267.201 17.634C267.201 17.8673 267.122 18.0633 266.963 18.222C266.804 18.3713 266.613 18.446 266.389 18.446ZM272.748 27.168C272.347 27.168 271.983 27.112 271.656 27C271.339 26.8787 271.059 26.72 270.816 26.524C270.574 26.328 270.373 26.0993 270.214 25.838L270.116 27H269.052V16.92H270.228V21.106C270.452 20.742 270.774 20.4293 271.194 20.168C271.614 19.9067 272.132 19.776 272.748 19.776C273.43 19.776 274.027 19.9393 274.54 20.266C275.054 20.5833 275.45 21.022 275.73 21.582C276.02 22.1327 276.164 22.7627 276.164 23.472C276.164 24.1813 276.02 24.816 275.73 25.376C275.45 25.936 275.054 26.3747 274.54 26.692C274.027 27.0093 273.43 27.168 272.748 27.168ZM272.608 26.146C273.066 26.146 273.472 26.034 273.826 25.81C274.181 25.586 274.456 25.278 274.652 24.886C274.858 24.4847 274.96 24.0133 274.96 23.472C274.96 22.94 274.858 22.4733 274.652 22.072C274.456 21.6707 274.181 21.358 273.826 21.134C273.472 20.91 273.066 20.798 272.608 20.798C272.142 20.798 271.731 20.91 271.376 21.134C271.022 21.358 270.746 21.6707 270.55 22.072C270.354 22.4733 270.256 22.94 270.256 23.472C270.256 24.0133 270.354 24.4847 270.55 24.886C270.746 25.278 271.022 25.586 271.376 25.81C271.731 26.034 272.142 26.146 272.608 26.146ZM277.928 27V19.944H279.104V27H277.928ZM278.516 18.446C278.283 18.446 278.087 18.3713 277.928 18.222C277.779 18.0633 277.704 17.8673 277.704 17.634C277.704 17.4007 277.779 17.214 277.928 17.074C278.087 16.9247 278.283 16.85 278.516 16.85C278.74 16.85 278.931 16.9247 279.09 17.074C279.249 17.214 279.328 17.4007 279.328 17.634C279.328 17.8673 279.249 18.0633 279.09 18.222C278.931 18.3713 278.74 18.446 278.516 18.446ZM284.287 27.168C283.606 27.168 283.009 27.0093 282.495 26.692C281.982 26.3653 281.585 25.922 281.305 25.362C281.025 24.802 280.885 24.1673 280.885 23.458C280.885 22.7487 281.025 22.1187 281.305 21.568C281.585 21.008 281.982 20.5693 282.495 20.252C283.018 19.9347 283.62 19.776 284.301 19.776C284.88 19.776 285.384 19.8927 285.813 20.126C286.252 20.3593 286.588 20.686 286.821 21.106V16.92H287.997V27H286.933L286.835 25.838C286.686 26.0713 286.495 26.2907 286.261 26.496C286.028 26.692 285.748 26.8553 285.421 26.986C285.095 27.1073 284.717 27.168 284.287 27.168ZM284.427 26.146C284.894 26.146 285.305 26.034 285.659 25.81C286.014 25.586 286.289 25.278 286.485 24.886C286.681 24.4847 286.779 24.0133 286.779 23.472C286.779 22.94 286.681 22.4733 286.485 22.072C286.289 21.6707 286.014 21.358 285.659 21.134C285.305 20.91 284.894 20.798 284.427 20.798C283.97 20.798 283.564 20.91 283.209 21.134C282.855 21.358 282.579 21.6707 282.383 22.072C282.187 22.4733 282.089 22.94 282.089 23.472C282.089 24.0133 282.187 24.4847 282.383 24.886C282.579 25.278 282.855 25.586 283.209 25.81C283.564 26.034 283.97 26.146 284.427 26.146ZM290.069 27V19.944H291.245V27H290.069ZM290.657 18.446C290.423 18.446 290.227 18.3713 290.069 18.222C289.919 18.0633 289.845 17.8673 289.845 17.634C289.845 17.4007 289.919 17.214 290.069 17.074C290.227 16.9247 290.423 16.85 290.657 16.85C290.881 16.85 291.072 16.9247 291.231 17.074C291.389 17.214 291.469 17.4007 291.469 17.634C291.469 17.8673 291.389 18.0633 291.231 18.222C291.072 18.3713 290.881 18.446 290.657 18.446ZM300.735 27.168C300.333 27.168 299.969 27.112 299.643 27C299.325 26.8787 299.045 26.72 298.803 26.524C298.56 26.328 298.359 26.0993 298.201 25.838L298.103 27H297.039V16.92H298.215V21.106C298.439 20.742 298.761 20.4293 299.181 20.168C299.601 19.9067 300.119 19.776 300.735 19.776C301.416 19.776 302.013 19.9393 302.527 20.266C303.04 20.5833 303.437 21.022 303.717 21.582C304.006 22.1327 304.151 22.7627 304.151 23.472C304.151 24.1813 304.006 24.816 303.717 25.376C303.437 25.936 303.04 26.3747 302.527 26.692C302.013 27.0093 301.416 27.168 300.735 27.168ZM300.595 26.146C301.052 26.146 301.458 26.034 301.813 25.81C302.167 25.586 302.443 25.278 302.639 24.886C302.844 24.4847 302.947 24.0133 302.947 23.472C302.947 22.94 302.844 22.4733 302.639 22.072C302.443 21.6707 302.167 21.358 301.813 21.134C301.458 20.91 301.052 20.798 300.595 20.798C300.128 20.798 299.717 20.91 299.363 21.134C299.008 21.358 298.733 21.6707 298.537 22.072C298.341 22.4733 298.243 22.94 298.243 23.472C298.243 24.0133 298.341 24.4847 298.537 24.886C298.733 25.278 299.008 25.586 299.363 25.81C299.717 26.034 300.128 26.146 300.595 26.146ZM308.364 27.168C307.823 27.168 307.347 27.0607 306.936 26.846C306.535 26.6313 306.222 26.3 305.998 25.852C305.784 25.404 305.676 24.844 305.676 24.172V19.944H306.852V24.046C306.852 24.746 307.006 25.2733 307.314 25.628C307.622 25.9827 308.056 26.16 308.616 26.16C309.008 26.16 309.363 26.0667 309.68 25.88C309.998 25.684 310.245 25.4087 310.422 25.054C310.609 24.69 310.702 24.2467 310.702 23.724V19.944H311.878V27H310.814L310.744 25.768C310.53 26.2067 310.212 26.552 309.792 26.804C309.372 27.0467 308.896 27.168 308.364 27.168ZM316.6 27C316.18 27 315.816 26.9347 315.508 26.804C315.2 26.6733 314.962 26.454 314.794 26.146C314.635 25.8287 314.556 25.404 314.556 24.872V20.938H313.324V19.944H314.556L314.71 18.236H315.732V19.944H317.776V20.938H315.732V24.872C315.732 25.3107 315.82 25.6093 315.998 25.768C316.175 25.9173 316.488 25.992 316.936 25.992H317.692V27H316.6ZM323.141 27V19.944H324.317V27H323.141ZM323.729 18.446C323.495 18.446 323.299 18.3713 323.141 18.222C322.991 18.0633 322.917 17.8673 322.917 17.634C322.917 17.4007 322.991 17.214 323.141 17.074C323.299 16.9247 323.495 16.85 323.729 16.85C323.953 16.85 324.144 16.9247 324.303 17.074C324.461 17.214 324.541 17.4007 324.541 17.634C324.541 17.8673 324.461 18.0633 324.303 18.222C324.144 18.3713 323.953 18.446 323.729 18.446ZM329.164 27C328.744 27 328.38 26.9347 328.072 26.804C327.764 26.6733 327.526 26.454 327.358 26.146C327.199 25.8287 327.12 25.404 327.12 24.872V20.938H325.888V19.944H327.12L327.274 18.236H328.296V19.944H330.34V20.938H328.296V24.872C328.296 25.3107 328.385 25.6093 328.562 25.768C328.739 25.9173 329.052 25.992 329.5 25.992H330.256V27H329.164ZM331.609 19.286L331.427 16.43H332.589L332.421 19.286H331.609ZM336.763 27.168C336.175 27.168 335.662 27.07 335.223 26.874C334.794 26.678 334.448 26.4073 334.187 26.062C333.935 25.7073 333.781 25.292 333.725 24.816H334.929C334.976 25.0587 335.074 25.2827 335.223 25.488C335.372 25.6933 335.573 25.8613 335.825 25.992C336.086 26.1133 336.404 26.174 336.777 26.174C337.104 26.174 337.374 26.1273 337.589 26.034C337.804 25.9313 337.962 25.796 338.065 25.628C338.177 25.46 338.233 25.278 338.233 25.082C338.233 24.7927 338.163 24.5733 338.023 24.424C337.892 24.2747 337.696 24.158 337.435 24.074C337.174 23.9807 336.856 23.9013 336.483 23.836C336.175 23.78 335.872 23.7053 335.573 23.612C335.274 23.5187 335.008 23.3973 334.775 23.248C334.542 23.0893 334.355 22.898 334.215 22.674C334.084 22.45 334.019 22.1747 334.019 21.848C334.019 21.4467 334.122 21.092 334.327 20.784C334.532 20.4667 334.826 20.2193 335.209 20.042C335.601 19.8647 336.054 19.776 336.567 19.776C337.323 19.776 337.934 19.958 338.401 20.322C338.868 20.686 339.143 21.2133 339.227 21.904H338.065C338.018 21.5493 337.864 21.274 337.603 21.078C337.351 20.8727 337.001 20.77 336.553 20.77C336.114 20.77 335.778 20.8587 335.545 21.036C335.321 21.2133 335.209 21.4467 335.209 21.736C335.209 21.9227 335.27 22.0907 335.391 22.24C335.522 22.38 335.708 22.5013 335.951 22.604C336.203 22.7067 336.511 22.7907 336.875 22.856C337.342 22.94 337.766 23.052 338.149 23.192C338.532 23.332 338.84 23.542 339.073 23.822C339.316 24.0927 339.437 24.48 339.437 24.984C339.437 25.4227 339.325 25.8053 339.101 26.132C338.886 26.4587 338.578 26.7153 338.177 26.902C337.776 27.0793 337.304 27.168 336.763 27.168ZM344.849 27V19.944H345.913L345.997 21.288C346.156 20.9707 346.356 20.7 346.599 20.476C346.851 20.252 347.15 20.0793 347.495 19.958C347.85 19.8367 348.251 19.776 348.699 19.776V21.008H348.265C347.966 21.008 347.682 21.05 347.411 21.134C347.14 21.2087 346.898 21.3347 346.683 21.512C346.478 21.6893 346.314 21.932 346.193 22.24C346.081 22.5387 346.025 22.912 346.025 23.36V27H344.849ZM352.865 27.168C352.202 27.168 351.614 27.014 351.101 26.706C350.597 26.398 350.2 25.9687 349.911 25.418C349.622 24.858 349.477 24.2093 349.477 23.472C349.477 22.7253 349.617 22.0767 349.897 21.526C350.186 20.9753 350.588 20.546 351.101 20.238C351.624 19.93 352.221 19.776 352.893 19.776C353.584 19.776 354.167 19.93 354.643 20.238C355.128 20.546 355.497 20.952 355.749 21.456C356.01 21.9507 356.141 22.4967 356.141 23.094C356.141 23.1873 356.141 23.2853 356.141 23.388C356.141 23.4907 356.136 23.6073 356.127 23.738H350.359V22.828H354.993C354.965 22.184 354.75 21.68 354.349 21.316C353.957 20.952 353.462 20.77 352.865 20.77C352.464 20.77 352.09 20.8633 351.745 21.05C351.409 21.2273 351.138 21.4933 350.933 21.848C350.728 22.1933 350.625 22.6273 350.625 23.15V23.542C350.625 24.1207 350.728 24.606 350.933 24.998C351.148 25.39 351.423 25.684 351.759 25.88C352.104 26.076 352.473 26.174 352.865 26.174C353.36 26.174 353.766 26.0667 354.083 25.852C354.41 25.628 354.643 25.3293 354.783 24.956H355.945C355.833 25.376 355.637 25.754 355.357 26.09C355.077 26.426 354.727 26.692 354.307 26.888C353.896 27.0747 353.416 27.168 352.865 27.168ZM360.024 27.168C359.455 27.168 358.979 27.07 358.596 26.874C358.213 26.6687 357.929 26.4027 357.742 26.076C357.555 25.74 357.462 25.376 357.462 24.984C357.462 24.508 357.583 24.1067 357.826 23.78C358.078 23.444 358.428 23.192 358.876 23.024C359.333 22.8467 359.87 22.758 360.486 22.758H362.348C362.348 22.3193 362.278 21.9553 362.138 21.666C362.007 21.3673 361.811 21.1433 361.55 20.994C361.298 20.8447 360.981 20.77 360.598 20.77C360.15 20.77 359.763 20.882 359.436 21.106C359.109 21.33 358.909 21.6613 358.834 22.1H357.63C357.686 21.596 357.854 21.176 358.134 20.84C358.423 20.4947 358.787 20.2333 359.226 20.056C359.665 19.8693 360.122 19.776 360.598 19.776C361.251 19.776 361.793 19.8973 362.222 20.14C362.661 20.3733 362.987 20.7047 363.202 21.134C363.417 21.554 363.524 22.0533 363.524 22.632V27H362.474L362.404 25.754C362.311 25.95 362.189 26.1367 362.04 26.314C361.9 26.482 361.732 26.6313 361.536 26.762C361.34 26.8833 361.116 26.9813 360.864 27.056C360.621 27.1307 360.341 27.168 360.024 27.168ZM360.206 26.174C360.533 26.174 360.827 26.1087 361.088 25.978C361.359 25.838 361.587 25.6513 361.774 25.418C361.961 25.1753 362.101 24.9093 362.194 24.62C362.297 24.3307 362.348 24.0273 362.348 23.71V23.668H360.584C360.127 23.668 359.758 23.724 359.478 23.836C359.198 23.9387 358.997 24.088 358.876 24.284C358.755 24.4707 358.694 24.6853 358.694 24.928C358.694 25.18 358.75 25.3993 358.862 25.586C358.983 25.7727 359.156 25.9173 359.38 26.02C359.613 26.1227 359.889 26.174 360.206 26.174ZM365.343 27V16.92H366.519V27H365.343ZM368.46 27V16.92H369.636V27H368.46ZM372.348 30.08L374.07 26.216H373.664L370.892 19.944H372.166L374.462 25.334L376.87 19.944H378.088L373.58 30.08H372.348ZM74.98 47V39.944H76.044L76.128 41.288C76.2867 40.9707 76.4873 40.7 76.73 40.476C76.982 40.252 77.2807 40.0793 77.626 39.958C77.9807 39.8367 78.382 39.776 78.83 39.776V41.008H78.396C78.0973 41.008 77.8127 41.05 77.542 41.134C77.2713 41.2087 77.0287 41.3347 76.814 41.512C76.6087 41.6893 76.4453 41.932 76.324 42.24C76.212 42.5387 76.156 42.912 76.156 43.36V47H74.98ZM82.9959 47.168C82.3332 47.168 81.7452 47.014 81.2319 46.706C80.7279 46.398 80.3312 45.9687 80.0419 45.418C79.7525 44.858 79.6079 44.2093 79.6079 43.472C79.6079 42.7253 79.7479 42.0767 80.0279 41.526C80.3172 40.9753 80.7185 40.546 81.2319 40.238C81.7545 39.93 82.3519 39.776 83.0239 39.776C83.7145 39.776 84.2979 39.93 84.7739 40.238C85.2592 40.546 85.6279 40.952 85.8799 41.456C86.1412 41.9507 86.2719 42.4967 86.2719 43.094C86.2719 43.1873 86.2719 43.2853 86.2719 43.388C86.2719 43.4907 86.2672 43.6073 86.2579 43.738H80.4899V42.828H85.1239C85.0959 42.184 84.8812 41.68 84.4799 41.316C84.0879 40.952 83.5932 40.77 82.9959 40.77C82.5945 40.77 82.2212 40.8633 81.8759 41.05C81.5399 41.2273 81.2692 41.4933 81.0639 41.848C80.8585 42.1933 80.7559 42.6273 80.7559 43.15V43.542C80.7559 44.1207 80.8585 44.606 81.0639 44.998C81.2785 45.39 81.5539 45.684 81.8899 45.88C82.2352 46.076 82.6039 46.174 82.9959 46.174C83.4905 46.174 83.8965 46.0667 84.2139 45.852C84.5405 45.628 84.7739 45.3293 84.9139 44.956H86.0759C85.9639 45.376 85.7679 45.754 85.4879 46.09C85.2079 46.426 84.8579 46.692 84.4379 46.888C84.0272 47.0747 83.5465 47.168 82.9959 47.168ZM87.8589 47V36.92H89.0349V47H87.8589ZM94.0701 47.168C93.4074 47.168 92.8194 47.014 92.3061 46.706C91.8021 46.398 91.4054 45.9687 91.1161 45.418C90.8268 44.858 90.6821 44.2093 90.6821 43.472C90.6821 42.7253 90.8221 42.0767 91.1021 41.526C91.3914 40.9753 91.7928 40.546 92.3061 40.238C92.8288 39.93 93.4261 39.776 94.0981 39.776C94.7888 39.776 95.3721 39.93 95.8481 40.238C96.3334 40.546 96.7021 40.952 96.9541 41.456C97.2154 41.9507 97.3461 42.4967 97.3461 43.094C97.3461 43.1873 97.3461 43.2853 97.3461 43.388C97.3461 43.4907 97.3414 43.6073 97.3321 43.738H91.5641V42.828H96.1981C96.1701 42.184 95.9554 41.68 95.5541 41.316C95.1621 40.952 94.6674 40.77 94.0701 40.77C93.6688 40.77 93.2954 40.8633 92.9501 41.05C92.6141 41.2273 92.3434 41.4933 92.1381 41.848C91.9328 42.1933 91.8301 42.6273 91.8301 43.15V43.542C91.8301 44.1207 91.9328 44.606 92.1381 44.998C92.3528 45.39 92.6281 45.684 92.9641 45.88C93.3094 46.076 93.6781 46.174 94.0701 46.174C94.5648 46.174 94.9708 46.0667 95.2881 45.852C95.6148 45.628 95.8481 45.3293 95.9881 44.956H97.1501C97.0381 45.376 96.8421 45.754 96.5621 46.09C96.2821 46.426 95.9321 46.692 95.5121 46.888C95.1014 47.0747 94.6208 47.168 94.0701 47.168ZM100.69 47L98.0157 39.944H99.2477L101.376 45.866L103.518 39.944H104.722L102.048 47H100.69ZM107.983 47.168C107.414 47.168 106.938 47.07 106.555 46.874C106.172 46.6687 105.888 46.4027 105.701 46.076C105.514 45.74 105.421 45.376 105.421 44.984C105.421 44.508 105.542 44.1067 105.785 43.78C106.037 43.444 106.387 43.192 106.835 43.024C107.292 42.8467 107.829 42.758 108.445 42.758H110.307C110.307 42.3193 110.237 41.9553 110.097 41.666C109.966 41.3673 109.77 41.1433 109.509 40.994C109.257 40.8447 108.94 40.77 108.557 40.77C108.109 40.77 107.722 40.882 107.395 41.106C107.068 41.33 106.868 41.6613 106.793 42.1H105.589C105.645 41.596 105.813 41.176 106.093 40.84C106.382 40.4947 106.746 40.2333 107.185 40.056C107.624 39.8693 108.081 39.776 108.557 39.776C109.21 39.776 109.752 39.8973 110.181 40.14C110.62 40.3733 110.946 40.7047 111.161 41.134C111.376 41.554 111.483 42.0533 111.483 42.632V47H110.433L110.363 45.754C110.27 45.95 110.148 46.1367 109.999 46.314C109.859 46.482 109.691 46.6313 109.495 46.762C109.299 46.8833 109.075 46.9813 108.823 47.056C108.58 47.1307 108.3 47.168 107.983 47.168ZM108.165 46.174C108.492 46.174 108.786 46.1087 109.047 45.978C109.318 45.838 109.546 45.6513 109.733 45.418C109.92 45.1753 110.06 44.9093 110.153 44.62C110.256 44.3307 110.307 44.0273 110.307 43.71V43.668H108.543C108.086 43.668 107.717 43.724 107.437 43.836C107.157 43.9387 106.956 44.088 106.835 44.284C106.714 44.4707 106.653 44.6853 106.653 44.928C106.653 45.18 106.709 45.3993 106.821 45.586C106.942 45.7727 107.115 45.9173 107.339 46.02C107.572 46.1227 107.848 46.174 108.165 46.174ZM113.302 47V39.944H114.366L114.422 41.176C114.646 40.7373 114.964 40.3967 115.374 40.154C115.794 39.902 116.27 39.776 116.802 39.776C117.353 39.776 117.829 39.888 118.23 40.112C118.632 40.3267 118.944 40.658 119.168 41.106C119.392 41.5447 119.504 42.1047 119.504 42.786V47H118.328V42.912C118.328 42.2027 118.17 41.6707 117.852 41.316C117.544 40.9613 117.106 40.784 116.536 40.784C116.144 40.784 115.794 40.882 115.486 41.078C115.178 41.2647 114.931 41.54 114.744 41.904C114.567 42.2587 114.478 42.702 114.478 43.234V47H113.302ZM124.113 47C123.693 47 123.329 46.9347 123.021 46.804C122.713 46.6733 122.475 46.454 122.307 46.146C122.149 45.8287 122.069 45.404 122.069 44.872V40.938H120.837V39.944H122.069L122.223 38.236H123.245V39.944H125.289V40.938H123.245V44.872C123.245 45.3107 123.334 45.6093 123.511 45.768C123.689 45.9173 124.001 45.992 124.449 45.992H125.205V47H124.113ZM127.104 44.214L126.964 37.2H128.238L128.098 44.214H127.104ZM127.594 47.07C127.37 47.07 127.178 46.9953 127.02 46.846C126.87 46.6873 126.796 46.496 126.796 46.272C126.796 46.048 126.87 45.8613 127.02 45.712C127.178 45.5533 127.37 45.474 127.594 45.474C127.836 45.474 128.028 45.5533 128.168 45.712C128.317 45.8613 128.392 46.048 128.392 46.272C128.392 46.496 128.317 46.6873 128.168 46.846C128.028 46.9953 127.836 47.07 127.594 47.07ZM136.129 47L133.441 37.2H134.701L136.815 45.6L139.209 37.2H140.525L142.863 45.628L145.005 37.2H146.265L143.521 47H142.177L139.839 38.894L137.445 47H136.129ZM149.974 47.168C149.312 47.168 148.724 47.014 148.21 46.706C147.706 46.398 147.31 45.9687 147.02 45.418C146.731 44.858 146.586 44.2093 146.586 43.472C146.586 42.7253 146.726 42.0767 147.006 41.526C147.296 40.9753 147.697 40.546 148.21 40.238C148.733 39.93 149.33 39.776 150.002 39.776C150.693 39.776 151.276 39.93 151.752 40.238C152.238 40.546 152.606 40.952 152.858 41.456C153.12 41.9507 153.25 42.4967 153.25 43.094C153.25 43.1873 153.25 43.2853 153.25 43.388C153.25 43.4907 153.246 43.6073 153.236 43.738H147.468V42.828H152.102C152.074 42.184 151.86 41.68 151.458 41.316C151.066 40.952 150.572 40.77 149.974 40.77C149.573 40.77 149.2 40.8633 148.854 41.05C148.518 41.2273 148.248 41.4933 148.042 41.848C147.837 42.1933 147.734 42.6273 147.734 43.15V43.542C147.734 44.1207 147.837 44.606 148.042 44.998C148.257 45.39 148.532 45.684 148.868 45.88C149.214 46.076 149.582 46.174 149.974 46.174C150.469 46.174 150.875 46.0667 151.192 45.852C151.519 45.628 151.752 45.3293 151.892 44.956H153.054C152.942 45.376 152.746 45.754 152.466 46.09C152.186 46.426 151.836 46.692 151.416 46.888C151.006 47.0747 150.525 47.168 149.974 47.168ZM157.198 50.08V49.072H157.744C158.099 49.072 158.351 48.9973 158.5 48.848C158.65 48.708 158.724 48.4653 158.724 48.12V39.944H159.9V48.148C159.9 48.596 159.826 48.96 159.676 49.24C159.527 49.5293 159.303 49.7393 159.004 49.87C158.715 50.01 158.356 50.08 157.926 50.08H157.198ZM159.326 38.446C159.093 38.446 158.897 38.3713 158.738 38.222C158.589 38.0633 158.514 37.8673 158.514 37.634C158.514 37.4007 158.589 37.214 158.738 37.074C158.897 36.9247 159.093 36.85 159.326 36.85C159.55 36.85 159.737 36.9247 159.886 37.074C160.045 37.214 160.124 37.4007 160.124 37.634C160.124 37.8673 160.045 38.0633 159.886 38.222C159.737 38.3713 159.55 38.446 159.326 38.446ZM164.522 47.168C163.981 47.168 163.505 47.0607 163.094 46.846C162.693 46.6313 162.38 46.3 162.156 45.852C161.942 45.404 161.834 44.844 161.834 44.172V39.944H163.01V44.046C163.01 44.746 163.164 45.2733 163.472 45.628C163.78 45.9827 164.214 46.16 164.774 46.16C165.166 46.16 165.521 46.0667 165.838 45.88C166.156 45.684 166.403 45.4087 166.58 45.054C166.767 44.69 166.86 44.2467 166.86 43.724V39.944H168.036V47H166.972L166.902 45.768C166.688 46.2067 166.37 46.552 165.95 46.804C165.53 47.0467 165.054 47.168 164.522 47.168ZM172.646 47.168C172.058 47.168 171.545 47.07 171.106 46.874C170.677 46.678 170.331 46.4073 170.07 46.062C169.818 45.7073 169.664 45.292 169.608 44.816H170.812C170.859 45.0587 170.957 45.2827 171.106 45.488C171.255 45.6933 171.456 45.8613 171.708 45.992C171.969 46.1133 172.287 46.174 172.66 46.174C172.987 46.174 173.257 46.1273 173.472 46.034C173.687 45.9313 173.845 45.796 173.948 45.628C174.06 45.46 174.116 45.278 174.116 45.082C174.116 44.7927 174.046 44.5733 173.906 44.424C173.775 44.2747 173.579 44.158 173.318 44.074C173.057 43.9807 172.739 43.9013 172.366 43.836C172.058 43.78 171.755 43.7053 171.456 43.612C171.157 43.5187 170.891 43.3973 170.658 43.248C170.425 43.0893 170.238 42.898 170.098 42.674C169.967 42.45 169.902 42.1747 169.902 41.848C169.902 41.4467 170.005 41.092 170.21 40.784C170.415 40.4667 170.709 40.2193 171.092 40.042C171.484 39.8647 171.937 39.776 172.45 39.776C173.206 39.776 173.817 39.958 174.284 40.322C174.751 40.686 175.026 41.2133 175.11 41.904H173.948C173.901 41.5493 173.747 41.274 173.486 41.078C173.234 40.8727 172.884 40.77 172.436 40.77C171.997 40.77 171.661 40.8587 171.428 41.036C171.204 41.2133 171.092 41.4467 171.092 41.736C171.092 41.9227 171.153 42.0907 171.274 42.24C171.405 42.38 171.591 42.5013 171.834 42.604C172.086 42.7067 172.394 42.7907 172.758 42.856C173.225 42.94 173.649 43.052 174.032 43.192C174.415 43.332 174.723 43.542 174.956 43.822C175.199 44.0927 175.32 44.48 175.32 44.984C175.32 45.4227 175.208 45.8053 174.984 46.132C174.769 46.4587 174.461 46.7153 174.06 46.902C173.659 47.0793 173.187 47.168 172.646 47.168ZM179.471 47C179.051 47 178.687 46.9347 178.379 46.804C178.071 46.6733 177.833 46.454 177.665 46.146C177.506 45.8287 177.427 45.404 177.427 44.872V40.938H176.195V39.944H177.427L177.581 38.236H178.603V39.944H180.647V40.938H178.603V44.872C178.603 45.3107 178.691 45.6093 178.869 45.768C179.046 45.9173 179.359 45.992 179.807 45.992H180.563V47H179.471ZM185.9 47V36.92H187.076V47H185.9ZM192.111 47.168C191.448 47.168 190.86 47.014 190.347 46.706C189.843 46.398 189.446 45.9687 189.157 45.418C188.868 44.858 188.723 44.2093 188.723 43.472C188.723 42.7253 188.863 42.0767 189.143 41.526C189.432 40.9753 189.834 40.546 190.347 40.238C190.87 39.93 191.467 39.776 192.139 39.776C192.83 39.776 193.413 39.93 193.889 40.238C194.374 40.546 194.743 40.952 194.995 41.456C195.256 41.9507 195.387 42.4967 195.387 43.094C195.387 43.1873 195.387 43.2853 195.387 43.388C195.387 43.4907 195.382 43.6073 195.373 43.738H189.605V42.828H194.239C194.211 42.184 193.996 41.68 193.595 41.316C193.203 40.952 192.708 40.77 192.111 40.77C191.71 40.77 191.336 40.8633 190.991 41.05C190.655 41.2273 190.384 41.4933 190.179 41.848C189.974 42.1933 189.871 42.6273 189.871 43.15V43.542C189.871 44.1207 189.974 44.606 190.179 44.998C190.394 45.39 190.669 45.684 191.005 45.88C191.35 46.076 191.719 46.174 192.111 46.174C192.606 46.174 193.012 46.0667 193.329 45.852C193.656 45.628 193.889 45.3293 194.029 44.956H195.191C195.079 45.376 194.883 45.754 194.603 46.09C194.323 46.426 193.973 46.692 193.553 46.888C193.142 47.0747 192.662 47.168 192.111 47.168ZM199.27 47.168C198.701 47.168 198.225 47.07 197.842 46.874C197.459 46.6687 197.175 46.4027 196.988 46.076C196.801 45.74 196.708 45.376 196.708 44.984C196.708 44.508 196.829 44.1067 197.072 43.78C197.324 43.444 197.674 43.192 198.122 43.024C198.579 42.8467 199.116 42.758 199.732 42.758H201.594C201.594 42.3193 201.524 41.9553 201.384 41.666C201.253 41.3673 201.057 41.1433 200.796 40.994C200.544 40.8447 200.227 40.77 199.844 40.77C199.396 40.77 199.009 40.882 198.682 41.106C198.355 41.33 198.155 41.6613 198.08 42.1H196.876C196.932 41.596 197.1 41.176 197.38 40.84C197.669 40.4947 198.033 40.2333 198.472 40.056C198.911 39.8693 199.368 39.776 199.844 39.776C200.497 39.776 201.039 39.8973 201.468 40.14C201.907 40.3733 202.233 40.7047 202.448 41.134C202.663 41.554 202.77 42.0533 202.77 42.632V47H201.72L201.65 45.754C201.557 45.95 201.435 46.1367 201.286 46.314C201.146 46.482 200.978 46.6313 200.782 46.762C200.586 46.8833 200.362 46.9813 200.11 47.056C199.867 47.1307 199.587 47.168 199.27 47.168ZM199.452 46.174C199.779 46.174 200.073 46.1087 200.334 45.978C200.605 45.838 200.833 45.6513 201.02 45.418C201.207 45.1753 201.347 44.9093 201.44 44.62C201.543 44.3307 201.594 44.0273 201.594 43.71V43.668H199.83C199.373 43.668 199.004 43.724 198.724 43.836C198.444 43.9387 198.243 44.088 198.122 44.284C198.001 44.4707 197.94 44.6853 197.94 44.928C197.94 45.18 197.996 45.3993 198.108 45.586C198.229 45.7727 198.402 45.9173 198.626 46.02C198.859 46.1227 199.135 46.174 199.452 46.174ZM204.589 47V39.944H205.653L205.737 41.288C205.896 40.9707 206.097 40.7 206.339 40.476C206.591 40.252 206.89 40.0793 207.235 39.958C207.59 39.8367 207.991 39.776 208.439 39.776V41.008H208.005C207.707 41.008 207.422 41.05 207.151 41.134C206.881 41.2087 206.638 41.3347 206.423 41.512C206.218 41.6893 206.055 41.932 205.933 42.24C205.821 42.5387 205.765 42.912 205.765 43.36V47H204.589ZM209.771 47V39.944H210.835L210.891 41.176C211.115 40.7373 211.432 40.3967 211.843 40.154C212.263 39.902 212.739 39.776 213.271 39.776C213.822 39.776 214.298 39.888 214.699 40.112C215.1 40.3267 215.413 40.658 215.637 41.106C215.861 41.5447 215.973 42.1047 215.973 42.786V47H214.797V42.912C214.797 42.2027 214.638 41.6707 214.321 41.316C214.013 40.9613 213.574 40.784 213.005 40.784C212.613 40.784 212.263 40.882 211.955 41.078C211.647 41.2647 211.4 41.54 211.213 41.904C211.036 42.2587 210.947 42.702 210.947 43.234V47H209.771ZM220.904 47.168C220.241 47.168 219.653 47.014 219.14 46.706C218.636 46.398 218.239 45.9687 217.95 45.418C217.661 44.858 217.516 44.2093 217.516 43.472C217.516 42.7253 217.656 42.0767 217.936 41.526C218.225 40.9753 218.627 40.546 219.14 40.238C219.663 39.93 220.26 39.776 220.932 39.776C221.623 39.776 222.206 39.93 222.682 40.238C223.167 40.546 223.536 40.952 223.788 41.456C224.049 41.9507 224.18 42.4967 224.18 43.094C224.18 43.1873 224.18 43.2853 224.18 43.388C224.18 43.4907 224.175 43.6073 224.166 43.738H218.398V42.828H223.032C223.004 42.184 222.789 41.68 222.388 41.316C221.996 40.952 221.501 40.77 220.904 40.77C220.503 40.77 220.129 40.8633 219.784 41.05C219.448 41.2273 219.177 41.4933 218.972 41.848C218.767 42.1933 218.664 42.6273 218.664 43.15V43.542C218.664 44.1207 218.767 44.606 218.972 44.998C219.187 45.39 219.462 45.684 219.798 45.88C220.143 46.076 220.512 46.174 220.904 46.174C221.399 46.174 221.805 46.0667 222.122 45.852C222.449 45.628 222.682 45.3293 222.822 44.956H223.984C223.872 45.376 223.676 45.754 223.396 46.09C223.116 46.426 222.766 46.692 222.346 46.888C221.935 47.0747 221.455 47.168 220.904 47.168ZM228.875 47.168C228.194 47.168 227.596 47.0093 227.083 46.692C226.57 46.3653 226.173 45.922 225.893 45.362C225.613 44.802 225.473 44.1673 225.473 43.458C225.473 42.7487 225.613 42.1187 225.893 41.568C226.173 41.008 226.57 40.5693 227.083 40.252C227.606 39.9347 228.208 39.776 228.889 39.776C229.468 39.776 229.972 39.8927 230.401 40.126C230.84 40.3593 231.176 40.686 231.409 41.106V36.92H232.585V47H231.521L231.423 45.838C231.274 46.0713 231.082 46.2907 230.849 46.496C230.616 46.692 230.336 46.8553 230.009 46.986C229.682 47.1073 229.304 47.168 228.875 47.168ZM229.015 46.146C229.482 46.146 229.892 46.034 230.247 45.81C230.602 45.586 230.877 45.278 231.073 44.886C231.269 44.4847 231.367 44.0133 231.367 43.472C231.367 42.94 231.269 42.4733 231.073 42.072C230.877 41.6707 230.602 41.358 230.247 41.134C229.892 40.91 229.482 40.798 229.015 40.798C228.558 40.798 228.152 40.91 227.797 41.134C227.442 41.358 227.167 41.6707 226.971 42.072C226.775 42.4733 226.677 42.94 226.677 43.472C226.677 44.0133 226.775 44.4847 226.971 44.886C227.167 45.278 227.442 45.586 227.797 45.81C228.152 46.034 228.558 46.146 229.015 46.146ZM240.559 47.168C239.99 47.168 239.514 47.07 239.131 46.874C238.749 46.6687 238.464 46.4027 238.277 46.076C238.091 45.74 237.997 45.376 237.997 44.984C237.997 44.508 238.119 44.1067 238.361 43.78C238.613 43.444 238.963 43.192 239.411 43.024C239.869 42.8467 240.405 42.758 241.021 42.758H242.883C242.883 42.3193 242.813 41.9553 242.673 41.666C242.543 41.3673 242.347 41.1433 242.085 40.994C241.833 40.8447 241.516 40.77 241.133 40.77C240.685 40.77 240.298 40.882 239.971 41.106C239.645 41.33 239.444 41.6613 239.369 42.1H238.165C238.221 41.596 238.389 41.176 238.669 40.84C238.959 40.4947 239.323 40.2333 239.761 40.056C240.2 39.8693 240.657 39.776 241.133 39.776C241.787 39.776 242.328 39.8973 242.757 40.14C243.196 40.3733 243.523 40.7047 243.737 41.134C243.952 41.554 244.059 42.0533 244.059 42.632V47H243.009L242.939 45.754C242.846 45.95 242.725 46.1367 242.575 46.314C242.435 46.482 242.267 46.6313 242.071 46.762C241.875 46.8833 241.651 46.9813 241.399 47.056C241.157 47.1307 240.877 47.168 240.559 47.168ZM240.741 46.174C241.068 46.174 241.362 46.1087 241.623 45.978C241.894 45.838 242.123 45.6513 242.309 45.418C242.496 45.1753 242.636 44.9093 242.729 44.62C242.832 44.3307 242.883 44.0273 242.883 43.71V43.668H241.119C240.662 43.668 240.293 43.724 240.013 43.836C239.733 43.9387 239.533 44.088 239.411 44.284C239.29 44.4707 239.229 44.6853 239.229 44.928C239.229 45.18 239.285 45.3993 239.397 45.586C239.519 45.7727 239.691 45.9173 239.915 46.02C240.149 46.1227 240.424 46.174 240.741 46.174ZM249.574 47.168C249.173 47.168 248.809 47.112 248.482 47C248.165 46.8787 247.885 46.72 247.642 46.524C247.4 46.328 247.199 46.0993 247.04 45.838L246.942 47H245.878V36.92H247.054V41.106C247.278 40.742 247.6 40.4293 248.02 40.168C248.44 39.9067 248.958 39.776 249.574 39.776C250.256 39.776 250.853 39.9393 251.366 40.266C251.88 40.5833 252.276 41.022 252.556 41.582C252.846 42.1327 252.99 42.7627 252.99 43.472C252.99 44.1813 252.846 44.816 252.556 45.376C252.276 45.936 251.88 46.3747 251.366 46.692C250.853 47.0093 250.256 47.168 249.574 47.168ZM249.434 46.146C249.892 46.146 250.298 46.034 250.652 45.81C251.007 45.586 251.282 45.278 251.478 44.886C251.684 44.4847 251.786 44.0133 251.786 43.472C251.786 42.94 251.684 42.4733 251.478 42.072C251.282 41.6707 251.007 41.358 250.652 41.134C250.298 40.91 249.892 40.798 249.434 40.798C248.968 40.798 248.557 40.91 248.202 41.134C247.848 41.358 247.572 41.6707 247.376 42.072C247.18 42.4733 247.082 42.94 247.082 43.472C247.082 44.0133 247.18 44.4847 247.376 44.886C247.572 45.278 247.848 45.586 248.202 45.81C248.557 46.034 248.968 46.146 249.434 46.146ZM257.792 47.168C257.139 47.168 256.551 47.0187 256.028 46.72C255.505 46.412 255.095 45.9827 254.796 45.432C254.497 44.872 254.348 44.2233 254.348 43.486C254.348 42.73 254.497 42.0767 254.796 41.526C255.104 40.966 255.519 40.5367 256.042 40.238C256.574 39.93 257.167 39.776 257.82 39.776C258.492 39.776 259.085 39.93 259.598 40.238C260.121 40.5367 260.531 40.966 260.83 41.526C261.138 42.0767 261.292 42.7253 261.292 43.472C261.292 44.2187 261.138 44.872 260.83 45.432C260.522 45.9827 260.107 46.412 259.584 46.72C259.061 47.0187 258.464 47.168 257.792 47.168ZM257.806 46.16C258.207 46.16 258.581 46.062 258.926 45.866C259.271 45.6607 259.551 45.3573 259.766 44.956C259.981 44.5547 260.088 44.06 260.088 43.472C260.088 42.8747 259.981 42.38 259.766 41.988C259.561 41.5867 259.285 41.288 258.94 41.092C258.604 40.8867 258.231 40.784 257.82 40.784C257.428 40.784 257.055 40.8867 256.7 41.092C256.355 41.288 256.075 41.5867 255.86 41.988C255.655 42.38 255.552 42.8747 255.552 43.472C255.552 44.06 255.655 44.5547 255.86 44.956C256.075 45.3573 256.35 45.6607 256.686 45.866C257.031 46.062 257.405 46.16 257.806 46.16ZM265.503 47.168C264.962 47.168 264.486 47.0607 264.075 46.846C263.674 46.6313 263.361 46.3 263.137 45.852C262.922 45.404 262.815 44.844 262.815 44.172V39.944H263.991V44.046C263.991 44.746 264.145 45.2733 264.453 45.628C264.761 45.9827 265.195 46.16 265.755 46.16C266.147 46.16 266.502 46.0667 266.819 45.88C267.136 45.684 267.384 45.4087 267.561 45.054C267.748 44.69 267.841 44.2467 267.841 43.724V39.944H269.017V47H267.953L267.883 45.768C267.668 46.2067 267.351 46.552 266.931 46.804C266.511 47.0467 266.035 47.168 265.503 47.168ZM273.738 47C273.318 47 272.954 46.9347 272.646 46.804C272.338 46.6733 272.1 46.454 271.932 46.146C271.774 45.8287 271.694 45.404 271.694 44.872V40.938H270.462V39.944H271.694L271.848 38.236H272.87V39.944H274.914V40.938H272.87V44.872C272.87 45.3107 272.959 45.6093 273.136 45.768C273.314 45.9173 273.626 45.992 274.074 45.992H274.83V47H273.738ZM281.596 47L279.524 39.944H280.7L282.31 45.894H282.1L283.85 39.944H285.18L286.958 45.88L286.734 45.894L288.33 39.944H289.52L287.462 47H286.257L284.41 40.784H284.648L282.8 47H281.596ZM290.845 47V36.92H292.021V41.134C292.255 40.714 292.581 40.3827 293.001 40.14C293.431 39.8973 293.897 39.776 294.401 39.776C294.943 39.776 295.414 39.888 295.815 40.112C296.217 40.3267 296.525 40.658 296.739 41.106C296.954 41.554 297.061 42.1187 297.061 42.8V47H295.899V42.926C295.899 42.2167 295.75 41.6847 295.451 41.33C295.153 40.966 294.719 40.784 294.149 40.784C293.748 40.784 293.384 40.882 293.057 41.078C292.74 41.274 292.488 41.554 292.301 41.918C292.115 42.282 292.021 42.73 292.021 43.262V47H290.845ZM299.463 50.08L301.185 46.216H300.779L298.007 39.944H299.281L301.577 45.334L303.985 39.944H305.203L300.695 50.08H299.463ZM305.271 48.372V47.826C305.514 47.826 305.682 47.7607 305.775 47.63C305.878 47.5087 305.929 47.322 305.929 47.07V46.734H305.257V45.586H306.489C306.545 45.8193 306.583 46.0433 306.601 46.258C306.629 46.4727 306.643 46.6687 306.643 46.846C306.643 47.378 306.522 47.7653 306.279 48.008C306.046 48.2507 305.71 48.372 305.271 48.372ZM311.9 47V39.944H312.964L313.02 41.176C313.244 40.7373 313.561 40.3967 313.972 40.154C314.392 39.902 314.868 39.776 315.4 39.776C315.951 39.776 316.427 39.888 316.828 40.112C317.229 40.3267 317.542 40.658 317.766 41.106C317.99 41.5447 318.102 42.1047 318.102 42.786V47H316.926V42.912C316.926 42.2027 316.767 41.6707 316.45 41.316C316.142 40.9613 315.703 40.784 315.134 40.784C314.742 40.784 314.392 40.882 314.084 41.078C313.776 41.2647 313.529 41.54 313.342 41.904C313.165 42.2587 313.076 42.702 313.076 43.234V47H311.9ZM323.089 47.168C322.436 47.168 321.848 47.0187 321.325 46.72C320.802 46.412 320.392 45.9827 320.093 45.432C319.794 44.872 319.645 44.2233 319.645 43.486C319.645 42.73 319.794 42.0767 320.093 41.526C320.401 40.966 320.816 40.5367 321.339 40.238C321.871 39.93 322.464 39.776 323.117 39.776C323.789 39.776 324.382 39.93 324.895 40.238C325.418 40.5367 325.828 40.966 326.127 41.526C326.435 42.0767 326.589 42.7253 326.589 43.472C326.589 44.2187 326.435 44.872 326.127 45.432C325.819 45.9827 325.404 46.412 324.881 46.72C324.358 47.0187 323.761 47.168 323.089 47.168ZM323.103 46.16C323.504 46.16 323.878 46.062 324.223 45.866C324.568 45.6607 324.848 45.3573 325.063 44.956C325.278 44.5547 325.385 44.06 325.385 43.472C325.385 42.8747 325.278 42.38 325.063 41.988C324.858 41.5867 324.582 41.288 324.237 41.092C323.901 40.8867 323.528 40.784 323.117 40.784C322.725 40.784 322.352 40.8867 321.997 41.092C321.652 41.288 321.372 41.5867 321.157 41.988C320.952 42.38 320.849 42.8747 320.849 43.472C320.849 44.06 320.952 44.5547 321.157 44.956C321.372 45.3573 321.647 45.6607 321.983 45.866C322.328 46.062 322.702 46.16 323.103 46.16ZM329.406 47L327.334 39.944H328.51L330.12 45.894H329.91L331.66 39.944H332.99L334.768 45.88L334.544 45.894L336.14 39.944H337.33L335.272 47H334.068L332.22 40.784H332.458L330.61 47H329.406ZM342.375 47V36.92H343.551V47H342.375ZM348.586 47.168C347.923 47.168 347.335 47.014 346.822 46.706C346.318 46.398 345.921 45.9687 345.632 45.418C345.342 44.858 345.198 44.2093 345.198 43.472C345.198 42.7253 345.338 42.0767 345.618 41.526C345.907 40.9753 346.308 40.546 346.822 40.238C347.344 39.93 347.942 39.776 348.614 39.776C349.304 39.776 349.888 39.93 350.364 40.238C350.849 40.546 351.218 40.952 351.47 41.456C351.731 41.9507 351.862 42.4967 351.862 43.094C351.862 43.1873 351.862 43.2853 351.862 43.388C351.862 43.4907 351.857 43.6073 351.848 43.738H346.08V42.828H350.714C350.686 42.184 350.471 41.68 350.07 41.316C349.678 40.952 349.183 40.77 348.586 40.77C348.184 40.77 347.811 40.8633 347.466 41.05C347.13 41.2273 346.859 41.4933 346.654 41.848C346.448 42.1933 346.346 42.6273 346.346 43.15V43.542C346.346 44.1207 346.448 44.606 346.654 44.998C346.868 45.39 347.144 45.684 347.48 45.88C347.825 46.076 348.194 46.174 348.586 46.174C349.08 46.174 349.486 46.0667 349.804 45.852C350.13 45.628 350.364 45.3293 350.504 44.956H351.666C351.554 45.376 351.358 45.754 351.078 46.09C350.798 46.426 350.448 46.692 350.028 46.888C349.617 47.0747 349.136 47.168 348.586 47.168ZM355.988 47C355.568 47 355.204 46.9347 354.896 46.804C354.588 46.6733 354.35 46.454 354.182 46.146C354.024 45.8287 353.944 45.404 353.944 44.872V40.938H352.712V39.944H353.944L354.098 38.236H355.12V39.944H357.164V40.938H355.12V44.872C355.12 45.3107 355.209 45.6093 355.386 45.768C355.564 45.9173 355.876 45.992 356.324 45.992H357.08V47H355.988ZM358.433 39.286L358.251 36.43H359.413L359.245 39.286H358.433ZM363.587 47.168C362.999 47.168 362.486 47.07 362.047 46.874C361.618 46.678 361.273 46.4073 361.011 46.062C360.759 45.7073 360.605 45.292 360.549 44.816H361.753C361.8 45.0587 361.898 45.2827 362.047 45.488C362.197 45.6933 362.397 45.8613 362.649 45.992C362.911 46.1133 363.228 46.174 363.601 46.174C363.928 46.174 364.199 46.1273 364.413 46.034C364.628 45.9313 364.787 45.796 364.889 45.628C365.001 45.46 365.057 45.278 365.057 45.082C365.057 44.7927 364.987 44.5733 364.847 44.424C364.717 44.2747 364.521 44.158 364.259 44.074C363.998 43.9807 363.681 43.9013 363.307 43.836C362.999 43.78 362.696 43.7053 362.397 43.612C362.099 43.5187 361.833 43.3973 361.599 43.248C361.366 43.0893 361.179 42.898 361.039 42.674C360.909 42.45 360.843 42.1747 360.843 41.848C360.843 41.4467 360.946 41.092 361.151 40.784C361.357 40.4667 361.651 40.2193 362.033 40.042C362.425 39.8647 362.878 39.776 363.391 39.776C364.147 39.776 364.759 39.958 365.225 40.322C365.692 40.686 365.967 41.2133 366.051 41.904H364.889C364.843 41.5493 364.689 41.274 364.427 41.078C364.175 40.8727 363.825 40.77 363.377 40.77C362.939 40.77 362.603 40.8587 362.369 41.036C362.145 41.2133 362.033 41.4467 362.033 41.736C362.033 41.9227 362.094 42.0907 362.215 42.24C362.346 42.38 362.533 42.5013 362.775 42.604C363.027 42.7067 363.335 42.7907 363.699 42.856C364.166 42.94 364.591 43.052 364.973 43.192C365.356 43.332 365.664 43.542 365.897 43.822C366.14 44.0927 366.261 44.48 366.261 44.984C366.261 45.4227 366.149 45.8053 365.925 46.132C365.711 46.4587 365.403 46.7153 365.001 46.902C364.6 47.0793 364.129 47.168 363.587 47.168ZM371.673 47V36.92H372.849V47H371.673ZM377.885 47.168C377.222 47.168 376.634 47.014 376.121 46.706C375.617 46.398 375.22 45.9687 374.931 45.418C374.641 44.858 374.497 44.2093 374.497 43.472C374.497 42.7253 374.637 42.0767 374.917 41.526C375.206 40.9753 375.607 40.546 376.121 40.238C376.643 39.93 377.241 39.776 377.913 39.776C378.603 39.776 379.187 39.93 379.663 40.238C380.148 40.546 380.517 40.952 380.769 41.456C381.03 41.9507 381.161 42.4967 381.161 43.094C381.161 43.1873 381.161 43.2853 381.161 43.388C381.161 43.4907 381.156 43.6073 381.147 43.738H375.379V42.828H380.013C379.985 42.184 379.77 41.68 379.369 41.316C378.977 40.952 378.482 40.77 377.885 40.77C377.483 40.77 377.11 40.8633 376.765 41.05C376.429 41.2273 376.158 41.4933 375.953 41.848C375.747 42.1933 375.645 42.6273 375.645 43.15V43.542C375.645 44.1207 375.747 44.606 375.953 44.998C376.167 45.39 376.443 45.684 376.779 45.88C377.124 46.076 377.493 46.174 377.885 46.174C378.379 46.174 378.785 46.0667 379.103 45.852C379.429 45.628 379.663 45.3293 379.803 44.956H380.965C380.853 45.376 380.657 45.754 380.377 46.09C380.097 46.426 379.747 46.692 379.327 46.888C378.916 47.0747 378.435 47.168 377.885 47.168ZM385.044 47.168C384.474 47.168 383.998 47.07 383.616 46.874C383.233 46.6687 382.948 46.4027 382.762 46.076C382.575 45.74 382.482 45.376 382.482 44.984C382.482 44.508 382.603 44.1067 382.846 43.78C383.098 43.444 383.448 43.192 383.896 43.024C384.353 42.8467 384.89 42.758 385.506 42.758H387.368C387.368 42.3193 387.298 41.9553 387.158 41.666C387.027 41.3673 386.831 41.1433 386.57 40.994C386.318 40.8447 386 40.77 385.618 40.77C385.17 40.77 384.782 40.882 384.456 41.106C384.129 41.33 383.928 41.6613 383.854 42.1H382.65C382.706 41.596 382.874 41.176 383.154 40.84C383.443 40.4947 383.807 40.2333 384.246 40.056C384.684 39.8693 385.142 39.776 385.618 39.776C386.271 39.776 386.812 39.8973 387.242 40.14C387.68 40.3733 388.007 40.7047 388.222 41.134C388.436 41.554 388.544 42.0533 388.544 42.632V47H387.494L387.424 45.754C387.33 45.95 387.209 46.1367 387.06 46.314C386.92 46.482 386.752 46.6313 386.556 46.762C386.36 46.8833 386.136 46.9813 385.884 47.056C385.641 47.1307 385.361 47.168 385.044 47.168ZM385.226 46.174C385.552 46.174 385.846 46.1087 386.108 45.978C386.378 45.838 386.607 45.6513 386.794 45.418C386.98 45.1753 387.12 44.9093 387.214 44.62C387.316 44.3307 387.368 44.0273 387.368 43.71V43.668H385.604C385.146 43.668 384.778 43.724 384.498 43.836C384.218 43.9387 384.017 44.088 383.896 44.284C383.774 44.4707 383.714 44.6853 383.714 44.928C383.714 45.18 383.77 45.3993 383.882 45.586C384.003 45.7727 384.176 45.9173 384.4 46.02C384.633 46.1227 384.908 46.174 385.226 46.174ZM390.363 47V39.944H391.427L391.511 41.288C391.669 40.9707 391.87 40.7 392.113 40.476C392.365 40.252 392.663 40.0793 393.009 39.958C393.363 39.8367 393.765 39.776 394.213 39.776V41.008H393.779C393.48 41.008 393.195 41.05 392.925 41.134C392.654 41.2087 392.411 41.3347 392.197 41.512C391.991 41.6893 391.828 41.932 391.707 42.24C391.595 42.5387 391.539 42.912 391.539 43.36V47H390.363ZM395.544 47V39.944H396.608L396.664 41.176C396.888 40.7373 397.206 40.3967 397.616 40.154C398.036 39.902 398.512 39.776 399.044 39.776C399.595 39.776 400.071 39.888 400.472 40.112C400.874 40.3267 401.186 40.658 401.41 41.106C401.634 41.5447 401.746 42.1047 401.746 42.786V47H400.57V42.912C400.57 42.2027 400.412 41.6707 400.094 41.316C399.786 40.9613 399.348 40.784 398.778 40.784C398.386 40.784 398.036 40.882 397.728 41.078C397.42 41.2647 397.173 41.54 396.986 41.904C396.809 42.2587 396.72 42.702 396.72 43.234V47H395.544ZM77.276 67.168C76.7067 67.168 76.2307 67.07 75.848 66.874C75.4653 66.6687 75.1807 66.4027 74.994 66.076C74.8073 65.74 74.714 65.376 74.714 64.984C74.714 64.508 74.8353 64.1067 75.078 63.78C75.33 63.444 75.68 63.192 76.128 63.024C76.5853 62.8467 77.122 62.758 77.738 62.758H79.6C79.6 62.3193 79.53 61.9553 79.39 61.666C79.2593 61.3673 79.0633 61.1433 78.802 60.994C78.55 60.8447 78.2327 60.77 77.85 60.77C77.402 60.77 77.0147 60.882 76.688 61.106C76.3613 61.33 76.1607 61.6613 76.086 62.1H74.882C74.938 61.596 75.106 61.176 75.386 60.84C75.6753 60.4947 76.0393 60.2333 76.478 60.056C76.9167 59.8693 77.374 59.776 77.85 59.776C78.5033 59.776 79.0447 59.8973 79.474 60.14C79.9127 60.3733 80.2393 60.7047 80.454 61.134C80.6687 61.554 80.776 62.0533 80.776 62.632V67H79.726L79.656 65.754C79.5627 65.95 79.4413 66.1367 79.292 66.314C79.152 66.482 78.984 66.6313 78.788 66.762C78.592 66.8833 78.368 66.9813 78.116 67.056C77.8733 67.1307 77.5933 67.168 77.276 67.168ZM77.458 66.174C77.7847 66.174 78.0787 66.1087 78.34 65.978C78.6107 65.838 78.8393 65.6513 79.026 65.418C79.2127 65.1753 79.3527 64.9093 79.446 64.62C79.5487 64.3307 79.6 64.0273 79.6 63.71V63.668H77.836C77.3787 63.668 77.01 63.724 76.73 63.836C76.45 63.9387 76.2493 64.088 76.128 64.284C76.0067 64.4707 75.946 64.6853 75.946 64.928C75.946 65.18 76.002 65.3993 76.114 65.586C76.2353 65.7727 76.408 65.9173 76.632 66.02C76.8653 66.1227 77.1407 66.174 77.458 66.174ZM86.2912 67.168C85.8899 67.168 85.5259 67.112 85.1992 67C84.8819 66.8787 84.6019 66.72 84.3592 66.524C84.1166 66.328 83.9159 66.0993 83.7572 65.838L83.6592 67H82.5952V56.92H83.7712V61.106C83.9952 60.742 84.3172 60.4293 84.7372 60.168C85.1572 59.9067 85.6752 59.776 86.2912 59.776C86.9726 59.776 87.5699 59.9393 88.0832 60.266C88.5966 60.5833 88.9932 61.022 89.2732 61.582C89.5626 62.1327 89.7072 62.7627 89.7072 63.472C89.7072 64.1813 89.5626 64.816 89.2732 65.376C88.9932 65.936 88.5966 66.3747 88.0832 66.692C87.5699 67.0093 86.9726 67.168 86.2912 67.168ZM86.1512 66.146C86.6086 66.146 87.0146 66.034 87.3692 65.81C87.7239 65.586 87.9992 65.278 88.1952 64.886C88.4006 64.4847 88.5032 64.0133 88.5032 63.472C88.5032 62.94 88.4006 62.4733 88.1952 62.072C87.9992 61.6707 87.7239 61.358 87.3692 61.134C87.0146 60.91 86.6086 60.798 86.1512 60.798C85.6846 60.798 85.2739 60.91 84.9192 61.134C84.5646 61.358 84.2892 61.6707 84.0932 62.072C83.8972 62.4733 83.7992 62.94 83.7992 63.472C83.7992 64.0133 83.8972 64.4847 84.0932 64.886C84.2892 65.278 84.5646 65.586 84.9192 65.81C85.2739 66.034 85.6846 66.146 86.1512 66.146ZM94.5089 67.168C93.8556 67.168 93.2676 67.0187 92.7449 66.72C92.2222 66.412 91.8116 65.9827 91.5129 65.432C91.2142 64.872 91.0649 64.2233 91.0649 63.486C91.0649 62.73 91.2142 62.0767 91.5129 61.526C91.8209 60.966 92.2362 60.5367 92.7589 60.238C93.2909 59.93 93.8836 59.776 94.5369 59.776C95.2089 59.776 95.8016 59.93 96.3149 60.238C96.8376 60.5367 97.2482 60.966 97.5469 61.526C97.8549 62.0767 98.0089 62.7253 98.0089 63.472C98.0089 64.2187 97.8549 64.872 97.5469 65.432C97.2389 65.9827 96.8236 66.412 96.3009 66.72C95.7782 67.0187 95.1809 67.168 94.5089 67.168ZM94.5229 66.16C94.9242 66.16 95.2976 66.062 95.6429 65.866C95.9882 65.6607 96.2682 65.3573 96.4829 64.956C96.6976 64.5547 96.8049 64.06 96.8049 63.472C96.8049 62.8747 96.6976 62.38 96.4829 61.988C96.2776 61.5867 96.0022 61.288 95.6569 61.092C95.3209 60.8867 94.9476 60.784 94.5369 60.784C94.1449 60.784 93.7716 60.8867 93.4169 61.092C93.0716 61.288 92.7916 61.5867 92.5769 61.988C92.3716 62.38 92.2689 62.8747 92.2689 63.472C92.2689 64.06 92.3716 64.5547 92.5769 64.956C92.7916 65.3573 93.0669 65.6607 93.4029 65.866C93.7482 66.062 94.1216 66.16 94.5229 66.16ZM102.22 67.168C101.678 67.168 101.202 67.0607 100.792 66.846C100.39 66.6313 100.078 66.3 99.8537 65.852C99.6391 65.404 99.5317 64.844 99.5317 64.172V59.944H100.708V64.046C100.708 64.746 100.862 65.2733 101.17 65.628C101.478 65.9827 101.912 66.16 102.472 66.16C102.864 66.16 103.218 66.0667 103.536 65.88C103.853 65.684 104.1 65.4087 104.278 65.054C104.464 64.69 104.558 64.2467 104.558 63.724V59.944H105.734V67H104.67L104.6 65.768C104.385 66.2067 104.068 66.552 103.648 66.804C103.228 67.0467 102.752 67.168 102.22 67.168ZM110.455 67C110.035 67 109.671 66.9347 109.363 66.804C109.055 66.6733 108.817 66.454 108.649 66.146C108.49 65.8287 108.411 65.404 108.411 64.872V60.938H107.179V59.944H108.411L108.565 58.236H109.587V59.944H111.631V60.938H109.587V64.872C109.587 65.3107 109.676 65.6093 109.853 65.768C110.03 65.9173 110.343 65.992 110.791 65.992H111.547V67H110.455ZM118.312 67L116.24 59.944H117.416L119.026 65.894H118.816L120.566 59.944H121.896L123.674 65.88L123.45 65.894L125.046 59.944H126.236L124.178 67H122.974L121.126 60.784H121.364L119.516 67H118.312ZM127.562 67V56.92H128.738V61.134C128.971 60.714 129.298 60.3827 129.718 60.14C130.147 59.8973 130.614 59.776 131.118 59.776C131.659 59.776 132.131 59.888 132.532 60.112C132.933 60.3267 133.241 60.658 133.456 61.106C133.671 61.554 133.778 62.1187 133.778 62.8V67H132.616V62.926C132.616 62.2167 132.467 61.6847 132.168 61.33C131.869 60.966 131.435 60.784 130.866 60.784C130.465 60.784 130.101 60.882 129.774 61.078C129.457 61.274 129.205 61.554 129.018 61.918C128.831 62.282 128.738 62.73 128.738 63.262V67H127.562ZM137.911 67.168C137.341 67.168 136.865 67.07 136.483 66.874C136.1 66.6687 135.815 66.4027 135.629 66.076C135.442 65.74 135.349 65.376 135.349 64.984C135.349 64.508 135.47 64.1067 135.713 63.78C135.965 63.444 136.315 63.192 136.763 63.024C137.22 62.8467 137.757 62.758 138.373 62.758H140.235C140.235 62.3193 140.165 61.9553 140.025 61.666C139.894 61.3673 139.698 61.1433 139.437 60.994C139.185 60.8447 138.867 60.77 138.485 60.77C138.037 60.77 137.649 60.882 137.323 61.106C136.996 61.33 136.795 61.6613 136.721 62.1H135.517C135.573 61.596 135.741 61.176 136.021 60.84C136.31 60.4947 136.674 60.2333 137.113 60.056C137.551 59.8693 138.009 59.776 138.485 59.776C139.138 59.776 139.679 59.8973 140.109 60.14C140.547 60.3733 140.874 60.7047 141.089 61.134C141.303 61.554 141.411 62.0533 141.411 62.632V67H140.361L140.291 65.754C140.197 65.95 140.076 66.1367 139.927 66.314C139.787 66.482 139.619 66.6313 139.423 66.762C139.227 66.8833 139.003 66.9813 138.751 67.056C138.508 67.1307 138.228 67.168 137.911 67.168ZM138.093 66.174C138.419 66.174 138.713 66.1087 138.975 65.978C139.245 65.838 139.474 65.6513 139.661 65.418C139.847 65.1753 139.987 64.9093 140.081 64.62C140.183 64.3307 140.235 64.0273 140.235 63.71V63.668H138.471C138.013 63.668 137.645 63.724 137.365 63.836C137.085 63.9387 136.884 64.088 136.763 64.284C136.641 64.4707 136.581 64.6853 136.581 64.928C136.581 65.18 136.637 65.3993 136.749 65.586C136.87 65.7727 137.043 65.9173 137.267 66.02C137.5 66.1227 137.775 66.174 138.093 66.174ZM145.811 67C145.391 67 145.027 66.9347 144.719 66.804C144.411 66.6733 144.173 66.454 144.005 66.146C143.846 65.8287 143.767 65.404 143.767 64.872V60.938H142.535V59.944H143.767L143.921 58.236H144.943V59.944H146.987V60.938H144.943V64.872C144.943 65.3107 145.031 65.6093 145.209 65.768C145.386 65.9173 145.699 65.992 146.147 65.992H146.903V67H145.811ZM152.352 67V59.944H153.528V67H152.352ZM152.94 58.446C152.706 58.446 152.51 58.3713 152.352 58.222C152.202 58.0633 152.128 57.8673 152.128 57.634C152.128 57.4007 152.202 57.214 152.352 57.074C152.51 56.9247 152.706 56.85 152.94 56.85C153.164 56.85 153.355 56.9247 153.514 57.074C153.672 57.214 153.752 57.4007 153.752 57.634C153.752 57.8673 153.672 58.0633 153.514 58.222C153.355 58.3713 153.164 58.446 152.94 58.446ZM155.603 67V59.944H156.667L156.723 61.176C156.947 60.7373 157.264 60.3967 157.675 60.154C158.095 59.902 158.571 59.776 159.103 59.776C159.654 59.776 160.13 59.888 160.531 60.112C160.932 60.3267 161.245 60.658 161.469 61.106C161.693 61.5447 161.805 62.1047 161.805 62.786V67H160.629V62.912C160.629 62.2027 160.47 61.6707 160.153 61.316C159.845 60.9613 159.406 60.784 158.837 60.784C158.445 60.784 158.095 60.882 157.787 61.078C157.479 61.2647 157.232 61.54 157.045 61.904C156.868 62.2587 156.779 62.702 156.779 63.234V67H155.603ZM165.535 67L162.861 59.944H164.093L166.221 65.866L168.363 59.944H169.567L166.893 67H165.535ZM173.627 67.168C172.964 67.168 172.376 67.014 171.863 66.706C171.359 66.398 170.962 65.9687 170.673 65.418C170.383 64.858 170.239 64.2093 170.239 63.472C170.239 62.7253 170.379 62.0767 170.659 61.526C170.948 60.9753 171.349 60.546 171.863 60.238C172.385 59.93 172.983 59.776 173.655 59.776C174.345 59.776 174.929 59.93 175.405 60.238C175.89 60.546 176.259 60.952 176.511 61.456C176.772 61.9507 176.903 62.4967 176.903 63.094C176.903 63.1873 176.903 63.2853 176.903 63.388C176.903 63.4907 176.898 63.6073 176.889 63.738H171.121V62.828H175.755C175.727 62.184 175.512 61.68 175.111 61.316C174.719 60.952 174.224 60.77 173.627 60.77C173.225 60.77 172.852 60.8633 172.507 61.05C172.171 61.2273 171.9 61.4933 171.695 61.848C171.489 62.1933 171.387 62.6273 171.387 63.15V63.542C171.387 64.1207 171.489 64.606 171.695 64.998C171.909 65.39 172.185 65.684 172.521 65.88C172.866 66.076 173.235 66.174 173.627 66.174C174.121 66.174 174.527 66.0667 174.845 65.852C175.171 65.628 175.405 65.3293 175.545 64.956H176.707C176.595 65.376 176.399 65.754 176.119 66.09C175.839 66.426 175.489 66.692 175.069 66.888C174.658 67.0747 174.177 67.168 173.627 67.168ZM181.15 67.168C180.562 67.168 180.048 67.07 179.61 66.874C179.18 66.678 178.835 66.4073 178.574 66.062C178.322 65.7073 178.168 65.292 178.112 64.816H179.316C179.362 65.0587 179.46 65.2827 179.61 65.488C179.759 65.6933 179.96 65.8613 180.212 65.992C180.473 66.1133 180.79 66.174 181.164 66.174C181.49 66.174 181.761 66.1273 181.976 66.034C182.19 65.9313 182.349 65.796 182.452 65.628C182.564 65.46 182.62 65.278 182.62 65.082C182.62 64.7927 182.55 64.5733 182.41 64.424C182.279 64.2747 182.083 64.158 181.822 64.074C181.56 63.9807 181.243 63.9013 180.87 63.836C180.562 63.78 180.258 63.7053 179.96 63.612C179.661 63.5187 179.395 63.3973 179.162 63.248C178.928 63.0893 178.742 62.898 178.602 62.674C178.471 62.45 178.406 62.1747 178.406 61.848C178.406 61.4467 178.508 61.092 178.714 60.784C178.919 60.4667 179.213 60.2193 179.596 60.042C179.988 59.8647 180.44 59.776 180.954 59.776C181.71 59.776 182.321 59.958 182.788 60.322C183.254 60.686 183.53 61.2133 183.614 61.904H182.452C182.405 61.5493 182.251 61.274 181.99 61.078C181.738 60.8727 181.388 60.77 180.94 60.77C180.501 60.77 180.165 60.8587 179.932 61.036C179.708 61.2133 179.596 61.4467 179.596 61.736C179.596 61.9227 179.656 62.0907 179.778 62.24C179.908 62.38 180.095 62.5013 180.338 62.604C180.59 62.7067 180.898 62.7907 181.262 62.856C181.728 62.94 182.153 63.052 182.536 63.192C182.918 63.332 183.226 63.542 183.46 63.822C183.702 64.0927 183.824 64.48 183.824 64.984C183.824 65.4227 183.712 65.8053 183.488 66.132C183.273 66.4587 182.965 66.7153 182.564 66.902C182.162 67.0793 181.691 67.168 181.15 67.168ZM187.975 67C187.555 67 187.191 66.9347 186.883 66.804C186.575 66.6733 186.337 66.454 186.169 66.146C186.01 65.8287 185.931 65.404 185.931 64.872V60.938H184.699V59.944H185.931L186.085 58.236H187.107V59.944H189.151V60.938H187.107V64.872C187.107 65.3107 187.195 65.6093 187.373 65.768C187.55 65.9173 187.863 65.992 188.311 65.992H189.067V67H187.975ZM190.797 67V59.944H191.973V67H190.797ZM191.385 58.446C191.152 58.446 190.956 58.3713 190.797 58.222C190.648 58.0633 190.573 57.8673 190.573 57.634C190.573 57.4007 190.648 57.214 190.797 57.074C190.956 56.9247 191.152 56.85 191.385 56.85C191.609 56.85 191.8 56.9247 191.959 57.074C192.118 57.214 192.197 57.4007 192.197 57.634C192.197 57.8673 192.118 58.0633 191.959 58.222C191.8 58.3713 191.609 58.446 191.385 58.446ZM194.048 67V59.944H195.112L195.168 61.176C195.392 60.7373 195.71 60.3967 196.12 60.154C196.54 59.902 197.016 59.776 197.548 59.776C198.099 59.776 198.575 59.888 198.976 60.112C199.378 60.3267 199.69 60.658 199.914 61.106C200.138 61.5447 200.25 62.1047 200.25 62.786V67H199.074V62.912C199.074 62.2027 198.916 61.6707 198.598 61.316C198.29 60.9613 197.852 60.784 197.282 60.784C196.89 60.784 196.54 60.882 196.232 61.078C195.924 61.2647 195.677 61.54 195.49 61.904C195.313 62.2587 195.224 62.702 195.224 63.234V67H194.048ZM205.559 70.248C205.102 70.248 204.673 70.1873 204.271 70.066C203.879 69.954 203.525 69.786 203.207 69.562C202.89 69.338 202.629 69.0627 202.423 68.736C202.218 68.4093 202.078 68.0407 202.003 67.63H203.165C203.268 67.938 203.427 68.2133 203.641 68.456C203.865 68.6987 204.141 68.8853 204.467 69.016C204.794 69.156 205.153 69.226 205.545 69.226C206.003 69.226 206.409 69.128 206.763 68.932C207.127 68.7453 207.412 68.456 207.617 68.064C207.832 67.6813 207.939 67.196 207.939 66.608V65.6C207.79 65.8613 207.594 66.1087 207.351 66.342C207.109 66.566 206.81 66.748 206.455 66.888C206.11 67.028 205.709 67.098 205.251 67.098C204.607 67.098 204.024 66.944 203.501 66.636C202.979 66.3187 202.563 65.8847 202.255 65.334C201.947 64.774 201.793 64.1393 201.793 63.43C201.793 62.7113 201.947 62.0813 202.255 61.54C202.563 60.9893 202.979 60.56 203.501 60.252C204.033 59.9347 204.621 59.776 205.265 59.776C205.676 59.776 206.054 59.8413 206.399 59.972C206.745 60.0933 207.048 60.2613 207.309 60.476C207.571 60.6907 207.781 60.9287 207.939 61.19L208.051 59.944H209.115V66.594C209.115 67.1727 209.027 67.686 208.849 68.134C208.672 68.5913 208.425 68.974 208.107 69.282C207.799 69.5993 207.426 69.8373 206.987 69.996C206.558 70.164 206.082 70.248 205.559 70.248ZM205.433 66.076C205.919 66.076 206.343 65.964 206.707 65.74C207.081 65.516 207.37 65.208 207.575 64.816C207.79 64.4147 207.897 63.9527 207.897 63.43C207.897 62.898 207.79 62.436 207.575 62.044C207.37 61.652 207.081 61.3487 206.707 61.134C206.343 60.91 205.919 60.798 205.433 60.798C204.976 60.798 204.561 60.91 204.187 61.134C203.814 61.3487 203.52 61.652 203.305 62.044C203.1 62.436 202.997 62.898 202.997 63.43C202.997 63.9527 203.1 64.4147 203.305 64.816C203.52 65.208 203.814 65.516 204.187 65.74C204.561 65.964 204.976 66.076 205.433 66.076ZM214.775 67V59.944H215.839L215.923 61.288C216.082 60.9707 216.282 60.7 216.525 60.476C216.777 60.252 217.076 60.0793 217.421 59.958C217.776 59.8367 218.177 59.776 218.625 59.776V61.008H218.191C217.892 61.008 217.608 61.05 217.337 61.134C217.066 61.2087 216.824 61.3347 216.609 61.512C216.404 61.6893 216.24 61.932 216.119 62.24C216.007 62.5387 215.951 62.912 215.951 63.36V67H214.775ZM222.791 67.168C222.128 67.168 221.54 67.014 221.027 66.706C220.523 66.398 220.126 65.9687 219.837 65.418C219.547 64.858 219.403 64.2093 219.403 63.472C219.403 62.7253 219.543 62.0767 219.823 61.526C220.112 60.9753 220.513 60.546 221.027 60.238C221.549 59.93 222.147 59.776 222.819 59.776C223.509 59.776 224.093 59.93 224.569 60.238C225.054 60.546 225.423 60.952 225.675 61.456C225.936 61.9507 226.067 62.4967 226.067 63.094C226.067 63.1873 226.067 63.2853 226.067 63.388C226.067 63.4907 226.062 63.6073 226.053 63.738H220.285V62.828H224.919C224.891 62.184 224.676 61.68 224.275 61.316C223.883 60.952 223.388 60.77 222.791 60.77C222.389 60.77 222.016 60.8633 221.671 61.05C221.335 61.2273 221.064 61.4933 220.859 61.848C220.653 62.1933 220.551 62.6273 220.551 63.15V63.542C220.551 64.1207 220.653 64.606 220.859 64.998C221.073 65.39 221.349 65.684 221.685 65.88C222.03 66.076 222.399 66.174 222.791 66.174C223.285 66.174 223.691 66.0667 224.009 65.852C224.335 65.628 224.569 65.3293 224.709 64.956H225.871C225.759 65.376 225.563 65.754 225.283 66.09C225.003 66.426 224.653 66.692 224.233 66.888C223.822 67.0747 223.341 67.168 222.791 67.168ZM229.95 67.168C229.38 67.168 228.904 67.07 228.522 66.874C228.139 66.6687 227.854 66.4027 227.668 66.076C227.481 65.74 227.388 65.376 227.388 64.984C227.388 64.508 227.509 64.1067 227.752 63.78C228.004 63.444 228.354 63.192 228.802 63.024C229.259 62.8467 229.796 62.758 230.412 62.758H232.274C232.274 62.3193 232.204 61.9553 232.064 61.666C231.933 61.3673 231.737 61.1433 231.476 60.994C231.224 60.8447 230.906 60.77 230.524 60.77C230.076 60.77 229.688 60.882 229.362 61.106C229.035 61.33 228.834 61.6613 228.76 62.1H227.556C227.612 61.596 227.78 61.176 228.06 60.84C228.349 60.4947 228.713 60.2333 229.152 60.056C229.59 59.8693 230.048 59.776 230.524 59.776C231.177 59.776 231.718 59.8973 232.148 60.14C232.586 60.3733 232.913 60.7047 233.128 61.134C233.342 61.554 233.45 62.0533 233.45 62.632V67H232.4L232.33 65.754C232.236 65.95 232.115 66.1367 231.966 66.314C231.826 66.482 231.658 66.6313 231.462 66.762C231.266 66.8833 231.042 66.9813 230.79 67.056C230.547 67.1307 230.267 67.168 229.95 67.168ZM230.132 66.174C230.458 66.174 230.752 66.1087 231.014 65.978C231.284 65.838 231.513 65.6513 231.7 65.418C231.886 65.1753 232.026 64.9093 232.12 64.62C232.222 64.3307 232.274 64.0273 232.274 63.71V63.668H230.51C230.052 63.668 229.684 63.724 229.404 63.836C229.124 63.9387 228.923 64.088 228.802 64.284C228.68 64.4707 228.62 64.6853 228.62 64.928C228.62 65.18 228.676 65.3993 228.788 65.586C228.909 65.7727 229.082 65.9173 229.306 66.02C229.539 66.1227 229.814 66.174 230.132 66.174ZM235.269 67V56.92H236.445V67H235.269ZM238.386 67V56.92H239.562V67H238.386ZM242.273 70.08L243.995 66.216H243.589L240.817 59.944H242.091L244.387 65.334L246.795 59.944H248.013L243.505 70.08H242.273ZM253.113 67V59.944H254.289V67H253.113ZM253.701 58.446C253.468 58.446 253.272 58.3713 253.113 58.222C252.964 58.0633 252.889 57.8673 252.889 57.634C252.889 57.4007 252.964 57.214 253.113 57.074C253.272 56.9247 253.468 56.85 253.701 56.85C253.925 56.85 254.117 56.9247 254.275 57.074C254.434 57.214 254.513 57.4007 254.513 57.634C254.513 57.8673 254.434 58.0633 254.275 58.222C254.117 58.3713 253.925 58.446 253.701 58.446ZM259.025 67.168C258.437 67.168 257.923 67.07 257.485 66.874C257.055 66.678 256.71 66.4073 256.449 66.062C256.197 65.7073 256.043 65.292 255.987 64.816H257.191C257.237 65.0587 257.335 65.2827 257.485 65.488C257.634 65.6933 257.835 65.8613 258.087 65.992C258.348 66.1133 258.665 66.174 259.039 66.174C259.365 66.174 259.636 66.1273 259.851 66.034C260.065 65.9313 260.224 65.796 260.327 65.628C260.439 65.46 260.495 65.278 260.495 65.082C260.495 64.7927 260.425 64.5733 260.285 64.424C260.154 64.2747 259.958 64.158 259.697 64.074C259.435 63.9807 259.118 63.9013 258.745 63.836C258.437 63.78 258.133 63.7053 257.835 63.612C257.536 63.5187 257.27 63.3973 257.037 63.248C256.803 63.0893 256.617 62.898 256.477 62.674C256.346 62.45 256.281 62.1747 256.281 61.848C256.281 61.4467 256.383 61.092 256.589 60.784C256.794 60.4667 257.088 60.2193 257.471 60.042C257.863 59.8647 258.315 59.776 258.829 59.776C259.585 59.776 260.196 59.958 260.663 60.322C261.129 60.686 261.405 61.2133 261.489 61.904H260.327C260.28 61.5493 260.126 61.274 259.865 61.078C259.613 60.8727 259.263 60.77 258.815 60.77C258.376 60.77 258.04 60.8587 257.807 61.036C257.583 61.2133 257.471 61.4467 257.471 61.736C257.471 61.9227 257.531 62.0907 257.653 62.24C257.783 62.38 257.97 62.5013 258.213 62.604C258.465 62.7067 258.773 62.7907 259.137 62.856C259.603 62.94 260.028 63.052 260.411 63.192C260.793 63.332 261.101 63.542 261.335 63.822C261.577 64.0927 261.699 64.48 261.699 64.984C261.699 65.4227 261.587 65.8053 261.363 66.132C261.148 66.4587 260.84 66.7153 260.439 66.902C260.037 67.0793 259.566 67.168 259.025 67.168ZM263.672 64.214L263.532 57.2H264.806L264.666 64.214H263.672ZM264.162 67.07C263.938 67.07 263.747 66.9953 263.588 66.846C263.439 66.6873 263.364 66.496 263.364 66.272C263.364 66.048 263.439 65.8613 263.588 65.712C263.747 65.5533 263.938 65.474 264.162 65.474C264.405 65.474 264.596 65.5533 264.736 65.712C264.885 65.8613 264.96 66.048 264.96 66.272C264.96 66.496 264.885 66.6873 264.736 66.846C264.596 66.9953 264.405 67.07 264.162 67.07Z" fill="white"/>
<rect y="84" width="40" height="40" rx="8" fill="#DF4F4F" fill-opacity="0.1"/>
<defs>
<linearGradient id="paint0_linear_150_36047" x1="62" y1="84" x2="428" y2="-4.23086e-07" gradientUnits="userSpaceOnUse">
<stop offset="0.043503" stop-color="white" stop-opacity="0"/>
<stop offset="1" stop-color="white"/>
</linearGradient>
</defs>
</svg>
